<svg height="1400" viewBox="0 0 1400 1400" width="1400" xmlns="http://www.w3.org/2000/svg"><g fill="none" fill-rule="evenodd" transform="translate(-25 -711)"><path d="m.06 2800h2799.94v-2799.96h-2799.94z"/><path d="m685.026 848.404c-6.521 2.335-34.966 16.133-22.098 76.091 5.229 24.363 7.23 50.48 9.166 75.735 4.245 55.48 8.257 107.88 47.963 123.88 8.047 3.24 15.626 4.89 22.527 4.89h.005c27.536 0 38.678-24.35 46.81-42.13 2.485-5.42 4.83-10.55 7.215-14.16 4.191-6.35 8.951-10.73 13.556-14.97 8.851-8.15 18.002-16.58 18.107228-34.78.098772-18.49-31.992228-111.535-75.655228-155.444-22.676-22.797-46.177-29.308-67.596-19.112" fill="#ccbbb5"/><path d="m1168.75 906.797c.18-80.893-1.78-110.949-13.18-118.463-3.53-2.33-7.82-2.702-11.77-.998-18.92 8.17-28.57 77.563-33.33 134.337-.04.482-.01.95.03 1.418 5.77 1.575 11.41 3.291 16.89 5.16 7.83 2.67 15.34 5.621 22.53 8.813 6.73 2.988 13.18 6.178 19.31 9.545-.55-6.945-.52-24.26-.48-39.812" fill="#ccbbb5"/><g fill="#fffffe"><path d="m1110.47 921.673c4.76-56.774 14.41-126.167 33.33-134.337 3.95-1.704 8.24-1.332 11.77.998 11.4 7.514 13.36 37.57 13.18 118.463-.04 15.552-.07 32.867.48 39.812 4.63 2.543 9.11 5.172 13.38 7.893-.39-10.521-.19-24.278.13-42.179.96-51.648 2.39-129.697-20.15-151.473-3.98-3.837-8.42-5.503-13.94-5.194-47.28 2.513-66.22 109.336-70.63 160.527 11.26 1.737 22.09 4.077 32.48 6.908-.04-.468-.07-.936-.03-1.418"/><path d="m1102.43 1872.6c.23.15 2.29 1.55 4.94 4.01-3.53-13.26-14.33-21.16-25.48-24.61-10 8.8-24.04 11.1-25.81 11.36-.43.06-.84.09-1.25.09-4.18 0-7.83-3.06-8.45-7.3-.69-4.67 2.53-9 7.19-9.7 3.3-.5 12.08-2.79 17.24-7.52.55-12.05 2.67-55.06 5.99-83.47 2.96-25.35 6.43-94.12 6.72-144.3-33.59 67.83-72.96 112.37-113.198 141.04.194.73.328 1.49.317 2.29-.01.52-.454 53.01 25.002 119.9.294.77.474 1.58.534 2.4.828 10.99 10.865 32.16 27.565 43.33 10.02 6.71 21.07 8.88 32.89 6.62-.16-1-.17-2.05.05-3.1.79-3.87-3.48-12.31-6.73-16.68-2.82-3.78-2.04-9.14 1.74-11.96 3.77-2.81 9.14-2.05 11.96 1.74 1.98 2.66 11.3 15.91 10.08 28.23 5.42-.35 12.99-2 19.63-6.56 4.84-3.32 8.42-7.87 10.98-13.35-.34-.76-.6-1.57-.7-2.44-1.1-9.2-10.58-15.72-10.67-15.78-3.89-2.64-4.95-7.94-2.34-11.85 2.62-3.9 7.88-4.98 11.8-2.39"/><path d="m493.712 1807.43c-.533-.26-1.037-.58-1.501-.95-13.542-10.65-11.751-50.15-10.492-62.88-1.555-.69-3.1-1.36-4.666-2.06-26.681-11.97-49.691-20.26-69.131-26.11 1.362 14.61 6.318 45.99 24.471 79.89.269.51.489 1.04.653 1.58 6.127 20.49 9.55 29.74 26.509 34.35 7.273 1.97 13.56 3.15 19.048 3.79-.162-1.67-.794-3.61-2.613-5.22-3.018-2.65-3.313-7.26-.653-10.27 2.654-3.02 7.254-3.31 10.273-.65 5.573 4.9 7.423 11.05 7.597 16.28 5.319-.75 8.734-2.44 9.975-4.75.3-.55.659-1.07 1.073-1.55-.005 0 3.563-4.41 2.545-9.15-.913-4.27-5.439-8.53-13.088-12.3"/></g><path d="m1234.96 1269.59c6.6 1.15 11.03 7.43 9.88 14.03-1.14 6.6-7.43 11.03-14.03 9.88-6.6-1.14-11.03-7.43-9.88-14.03s7.43-11.03 14.03-9.88zm-22.94-29.24c-1.14 6.6-7.43 11.02-14.03 9.88-6.6-1.15-11.03-7.43-9.88-14.03s7.43-11.03 14.03-9.88c6.6 1.14 11.03 7.43 9.88 14.03zm-4.99 85.7c-1.15 6.6-7.43 11.02-14.03 9.88-6.61-1.15-11.03-7.43-9.88-14.03 1.14-6.61 7.42-11.03 14.03-9.88 6.6 1.14 11.02 7.42 9.88 14.03zm-32.32-43.83c-1.15 6.6-7.43 11.03-14.03 9.88s-11.03-7.43-9.88-14.03c1.14-6.6 7.43-11.03 14.03-9.88s11.03 7.43 9.88 14.03zm160.39 40.17c-2.32-11.69-4.91-24.74-6.14-46.13-2.69 3.21-6.93 4.97-11.34 4.21-6.61-1.15-11.03-7.43-9.89-14.03 1.15-6.61 7.43-11.03 14.03-9.89 2.54.44 4.74 1.65 6.44 3.33-.43-8.79-1.09-17.23-2.02-25.25-5.08-2.15-8.21-7.55-7.22-13.22.51-2.93 2.06-5.39 4.18-7.17-6.62-35.55-18.88-61.23-35.91-74.2-9.51-7.25-20.54-10.85-33.38-10.85-6.3 0-13.03.87-20.25 2.6-41.37 9.91-62.53 42.08-87.03 79.33-20.67 31.42-44.09 67.03-83.78 95.94-69.998 50.99-97.674 108.81-72.218 150.9 9.438 15.6 30.068 33.4 59.678 36.57 27.74 3 72.45-5.89 128.28-64.95 14.69-15.54 27.7-24.74 39.17-32.85 22.77-16.1 37.8-26.74 49.81-76.95.01-.07.03-.14.05-.21 6.86-28.91 2.8-78.96.92-97.69-.28-.88-.45-1.81-.45-2.77-1.38-3.32-11.72-9.94-17.32-13.53-12.91-8.28-25.12-16.1-22.65-28.1 2.93-14.17 26.49-20.77 41.49-20.77 17.1 0 29 7.73 31.82 20.66 4.62 21.15-7.29 37.77-13.8 44.99 1.99 20.34 5.41 66.51-.69 97.44 8.11 13.18 9.26 33.77 10.39 53.74.61 10.95 2.06 36.57 6.71 38.27 2.69.97 6.02.07 9.89-2.75 13.59-9.94 26.16-37.83 25.39-56.32-.51-11.98-2.2-20.5-4.16-30.35z" fill="#b3b5b2"/><path d="m973.927 1129.5c7.739-4.74 15.472-7.15 22.981-7.15 36.732 0 50.902 54.32 52.392 60.51.33 1.36.35 2.78.07 4.15-.39 1.87-9.96 45.88-50.097 50.4-1.197.14-2.375.2-3.542.2-.005 0-.005 0-.005 0-17.802 0-33.12-15.1-39.98-39.41-6.666-23.63-3.817-55.2 18.181-68.7zm-163.757-71.76c-4.605 4.24-9.365 8.62-13.556 14.97-2.385 3.61-4.73 8.74-7.215 14.16-8.132 17.78-19.274 42.13-46.81 42.13-.005 0-.005 0-.005 0-6.901 0-14.48-1.65-22.527-4.89-39.706-16-43.718-68.4-47.963-123.88-1.936-25.255-3.937-51.372-9.166-75.735-12.868-59.958 15.577-73.756 22.098-76.091 21.419-10.196 44.92-3.685 67.596 19.112 43.663 43.909 75.754 136.954 75.655228 155.444-.105228 18.2-9.256228 26.63-18.107228 34.78zm-30.789 924.78c-15.213 7.49-23.496 9.12-24.389 9.27-.509.1-1.018.14-1.516.14-4.062 0-7.664-2.9-8.403-7.04-.828-4.63 2.231-9.05 6.846-9.91.254-.05 7.105-1.49 19.908-7.8 4.211-2.08 9.35-.34 11.445 3.89 2.086 4.23.345 9.36-3.891 11.45zm377.139-894.74c1.23-.87 30.65-21.04 64.24-12.13 5.06 1.34 8.07 6.52 6.73 11.58-1.34 5.05-6.52 8.04-11.58 6.72-25.18-6.66-48.31 9.2-48.54 9.36-1.66 1.15-3.55 1.7-5.42 1.7-2.99 0-5.93-1.41-7.77-4.05-2.99-4.29-1.95-10.19 2.34-13.18zm120.36 266.31c-12.67 32.95-28.84 44.38-48.24 58.1-10.76 7.61-22.95 16.23-36.35 30.4-54.32 57.45-100.57 71.38-132.62 71.38-4.05 0-7.86-.22-11.44-.61-30.98-3.32-58.596-20.36-73.864-45.6-31.004-51.26-1.392-118.7 77.284-176.01 36.9-26.89 58.35-59.5 79.1-91.04 25.59-38.91 49.78-75.68 98.44-87.34 11.5-2.76 22.25-3.56 32.29-2.63-5.17-25.73-22.22-87.83-71.11-127.4-28.6-23.146-70.49-42.639-121.19-49.33-.6.085-1.22.12-1.85.087-1.02-.062-1.98-.324-2.88-.68-52.67-6.051-114.519 1.81-180.722 33.511 4.753 16.359 8.535 33.172 11.177 50.242.798 5.17-2.744 10-7.913 10.81-5.179.79-10.004-2.75-10.807-7.92-15.258-98.591-69.188-187.964-134.205-222.386-29.153-15.429-57.458-17.463-81.871-5.86-27.487 13.055-69.393 48.667-41.208 140.472 11.042 35.956 12.913 79.224 14.56 117.394 1.471 34.1 2.859 66.3 10.457 85.81 18.79 48.28 69.044 46.1 69.553 46.07 5.184-.29 9.684 3.72 9.968 8.94.285 5.23-3.722 9.69-8.941 9.97-1.077.06-2.215.09-3.402.09-10.653 0-25.51-2.52-40.229-9.63-7.727 22.49-33.781 118.41 41.281 218.71 3.134 4.19 2.281 10.12-1.906 13.25-1.701 1.28-3.692 1.89-5.667 1.89-2.879 0-5.728-1.31-7.584-3.79-48.916-65.36-58.25-128.26-55.915-173.66-23.5 19.41-55.043 53.12-68.89 82.61-1.457 3.1-4.536 4.92-7.744 4.92-1.217 0-2.455-.26-3.627-.81-4.276-2.01-6.112-7.1-4.106-11.37 7.484-15.94 19.434-32.7 32.645-48.13-143.419-6.65-251.761 26.16-321.906 97.89-58.383 59.05-72.002 154.32-80.14 211.24-2.427 16.97-4.343 30.37-6.89 39.42-30.597 108.69-38.341 195.22-21.245 237.42.267.66.452 1.35.549 2.05.332 2.43.621 4.83.903 7.18 2.63 21.9 4.219 35.11 36.196 44.12 9.549 2.68 17.749 4.49 24.908 5.66-.888-7.69-6.598-13.32-6.669-13.39-3.406-3.24-3.593-8.63-.387-12.06 3.203-3.43 8.554-3.65 12.004-.48.567.52 12.256 11.49 12.348 27.59 14.41.15 21.678-3.6 25.245-7.82.529-.62 1.143-1.17 1.826-1.62 1.107-.73 2.616-1.86 4.272-3.27-3.363-9.51-12.138-16.17-12.24-16.24-3.812-2.78-4.655-8.13-1.876-11.95 2.789-3.81 8.123-4.64 11.945-1.87.462.34 8.07 5.97 13.903 15.32.872-2.14 1.381-4.32 1.289-6.49-.698-16.71-3.991-21.91-32.585-30.69-3.234-1-5.579-3.8-5.978-7.16-.139-1.16-3.323-28.76 3.034-52.13 4.8-17.64 18.041-32.85 33.374-50.45 22.083-25.36 49.57-56.91 61.898-108.56 1.093-4.58 5.678-7.43 10.299-6.33 4.59 1.1 7.424 5.71 6.326 10.3-3.826 16.03-8.978 30.16-14.894 42.85 20.741 1.59 67.919 8.88 139.185 40.86 76.967 34.54 141.523 49.43 162.492 53.72 1.223-34.4 4.088-58.41 4.413-61.04.579-4.68 4.855-8.01 9.53-7.43 4.685.57 8.013 4.85 7.434 9.53-.214 1.75-21.05 175.96 27.492 274.44.224.46.409.94.549 1.43 10.493 36.79 35.968 46.93 55.492 48.96 14.917 2 23.5-.93 27.624-3.16-2.31-8.91-5.088-12.12-5.122-12.16-3.477-3.19-3.562-8.46-.369-11.94 3.188-3.47 8.736-3.57 12.214-.37 1.081.99 5.948 6.11 9.508 19.05 7.154-1.19 19.263-5.56 27.401-21.16-.622-.9-1.123-1.89-1.37-3.02-1.661-7.63-9.579-11.29-9.659-11.32-4.346-1.84-6.377-6.86-4.54-11.21 1.846-4.34 6.87-6.36 11.206-4.54.242.11 2.499 1.09 5.423 3.1-.163-.38-.289-.77-.469-1.15-5.064-10.62-15.936-17.92-31.443-21.11-3.672-.76-6.426-3.82-6.781-7.56-.079-.84-1.905-20.86 3.458-46.94 2.719-13.21 11.396-51.5 19.788-88.53 7.644-33.75 14.868-65.63 16.909-75.54.953-4.63 5.484-7.6 10.099-6.65 4.62.95 7.599 5.48 6.646 10.1-1.078 5.23-3.553 16.38-6.752 30.61 138.505-7.22 214.689-124.54 255.269-229.53-19.97 3.31-41.34 5.35-64.24 5.81-30.509 14.9-58.644 20.11-83.067 20.11-54.899 0-91.037-26.31-93.202-27.92-4.187-3.13-5.05-9.07-1.921-13.26 3.133-4.19 9.07-5.04 13.247-1.93 2.943 2.19 69.257 49.74 158.403 5.1 1.27-.64 2.67-.98 4.09-1 27.52-.43 52.74-3.19 75.76-7.78 2.05-1.65 4.79-2.3 7.47-1.61 95.79-21.22 151.9-74.94 174.1-125.95-1.58-8.64-2.17-18.75-2.77-29.48-.38-6.76-.78-13.86-1.48-20.52z" fill="#fffffe"/><path d="m1009.16 1172.79c5.9-1.18 9.3-9.02 7.61-17.5-.03-.14-.08-.25-.11-.38-1.81-8.27-7.84-14.01-13.65-12.85-.26.06-.48.19-.73.26-5.426 1.67-8.498 9.13-6.873 17.24 1.699 8.49 7.853 14.41 13.753 13.23" fill="#fffffe"/><path d="m1291.86 1178.67c.25-.55.42-1.11.42-1.71 0-2.25-1.92-4.22-4.81-5.36-1.64-.65-3.59-1.03-5.69-1.03-5.07.01-9.29 2.22-10.27 5.14-.13.42-.21.85-.21 1.29.01 3.54 4.71 6.4 10.5 6.39003.47 0 .91-.05003 1.36-.09003 4.21-.34 7.59-2.18 8.7-4.63" fill="#fffffe"/><g fill="#1b1a19"><path d="m1003.01 1142.06c5.81-1.16 11.84 4.58 13.65 12.85.03.13.08.24.11.38 1.69 8.48-1.71 16.32-7.61 17.5s-12.054-4.74-13.753-13.23c-1.625-8.11 1.447-15.57 6.873-17.24.25-.07.47-.2.73-.26zm-7.284 95.55h.005c1.167 0 2.345-.06 3.542-.2 40.137-4.52 49.707-48.53 50.097-50.4.28-1.37.26-2.79-.07-4.15-1.49-6.19-15.66-60.51-52.392-60.51-7.509 0-15.242 2.41-22.981 7.15-21.998 13.5-24.847 45.07-18.181 68.7 6.86 24.31 22.178 39.41 39.98 39.41z"/><path d="m1313.87 1409.06c-3.87 2.82-7.2 3.72-9.89 2.75-4.65-1.7-6.1-27.32-6.71-38.27-1.13-19.97-2.28-40.56-10.39-53.74 6.1-30.93 2.68-77.1.69-97.44 6.51-7.22 18.42-23.84 13.8-44.99-2.82-12.93-14.72-20.66-31.82-20.66-15 0-38.56 6.6-41.49 20.77-2.47 12 9.74 19.82 22.65 28.1 5.6 3.59 15.94 10.21 17.32 13.53 0 .96.17 1.89.45 2.77 1.88 18.73 5.94 68.78-.92 97.69-.02.07-.04.14-.05.21-12.01 50.21-27.04 60.85-49.81 76.95-11.47 8.11-24.48 17.31-39.17 32.85-55.83 59.06-100.54 67.95-128.28 64.95-29.61-3.17-50.24-20.97-59.678-36.57-25.456-42.09 2.22-99.91 72.218-150.9 39.69-28.91 63.11-64.52 83.78-95.94 24.5-37.25 45.66-69.42 87.03-79.33 7.22-1.73 13.95-2.6 20.25-2.6 12.84 0 23.87 3.6 33.38 10.85 17.03 12.97 29.29 38.65 35.91 74.2-2.12 1.78-3.67 4.24-4.18 7.17-.99 5.67 2.14 11.07 7.22 13.22.93 8.02 1.59 16.46 2.02 25.25-1.7-1.68-3.9-2.89-6.44-3.33-6.6-1.14-12.88 3.28-14.03 9.89-1.14 6.6 3.28 12.88 9.89 14.03 4.41.76 8.65-1 11.34-4.21 1.23 21.39 3.82 34.44 6.14 46.13 1.96 9.85 3.65 18.37 4.16 30.35.77 18.49-11.8 46.38-25.39 56.32zm-22.01-230.39c-1.11 2.45-4.49 4.29-8.7 4.63-.45.04-.89.09003-1.36.09003-5.79.00997-10.49-2.85003-10.5-6.39003 0-.44.08-.87.21-1.29.98-2.92 5.2-5.13 10.27-5.14 2.1 0 4.05.38 5.69 1.03 2.89 1.14 4.81 3.11 4.81 5.36 0 .6-.17 1.16-.42 1.71zm-184.83 351.37c-2.68-.69-5.42-.04-7.47 1.61-23.02 4.59-48.24 7.35-75.76 7.78-1.42.02-2.82.36-4.09 1-89.146 44.64-155.46-2.91-158.403-5.1-4.177-3.11-10.114-2.26-13.247 1.93-3.129 4.19-2.266 10.13 1.921 13.26 2.165 1.61 38.303 27.92 93.202 27.92 24.423 0 52.558-5.21 83.067-20.11 22.9-.46 44.27-2.5 64.24-5.81-40.58 104.99-116.764 222.31-255.269 229.53 3.199-14.23 5.674-25.38 6.752-30.61.953-4.62-2.026-9.15-6.646-10.1-4.615-.95-9.146 2.02-10.099 6.65-2.041 9.91-9.265 41.79-16.909 75.54-8.392 37.03-17.069 75.32-19.788 88.53-5.363 26.08-3.537 46.1-3.458 46.94.355 3.74 3.109 6.8 6.781 7.56 15.507 3.19 26.379 10.49 31.443 21.11.18.38.306.77.469 1.15-2.924-2.01-5.181-2.99-5.423-3.1-4.336-1.82-9.36.2-11.206 4.54-1.837 4.35.194 9.37 4.54 11.21.08.03 7.998 3.69 9.659 11.32.247 1.13.748 2.12 1.37 3.02-8.138 15.6-20.247 19.97-27.401 21.16-3.56-12.94-8.427-18.06-9.508-19.05-3.478-3.2-9.026-3.1-12.214.37-3.193 3.48-3.108 8.75.369 11.94.034.04 2.812 3.25 5.122 12.16-4.124 2.23-12.707 5.16-27.624 3.16-19.524-2.03-44.999-12.17-55.492-48.96-.14-.49-.325-.97-.549-1.43-48.542-98.48-27.706-272.69-27.492-274.44.579-4.68-2.749-8.96-7.434-9.53-4.675-.58-8.951 2.75-9.53 7.43-.325 2.63-3.19 26.64-4.413 61.04-20.969-4.29-85.525-19.18-162.492-53.72-71.266-31.98-118.444-39.27-139.185-40.86 5.916-12.69 11.068-26.82 14.894-42.85 1.098-4.59-1.736-9.2-6.326-10.3-4.621-1.1-9.206 1.75-10.299 6.33-12.328 51.65-39.815 83.2-61.898 108.56-15.333 17.6-28.574 32.81-33.374 50.45-6.357 23.37-3.173 50.97-3.034 52.13.399 3.36 2.744 6.16 5.978 7.16 28.594 8.78 31.887 13.98 32.585 30.69.092 2.17-.417 4.35-1.289 6.49-5.833-9.35-13.441-14.98-13.903-15.32-3.822-2.77-9.156-1.94-11.945 1.87-2.779 3.82-1.936 9.17 1.876 11.95.102.07 8.877 6.73 12.24 16.24-1.656 1.41-3.165 2.54-4.272 3.27-.683.45-1.297 1-1.826 1.62-3.567 4.22-10.835 7.97-25.245 7.82-.092-16.1-11.781-27.07-12.348-27.59-3.45-3.17-8.801-2.95-12.004.48-3.206 3.43-3.019 8.82.387 12.06.071.07 5.781 5.7 6.669 13.39-7.159-1.17-15.359-2.98-24.908-5.66-31.977-9.01-33.566-22.22-36.196-44.12-.282-2.35-.571-4.75-.903-7.18-.097-.7-.282-1.39-.549-2.05-17.096-42.2-9.352-128.73 21.245-237.42 2.547-9.05 4.463-22.45 6.89-39.42 8.138-56.92 21.757-152.19 80.14-211.24 70.145-71.73 178.487-104.54 321.906-97.89-13.211 15.43-25.161 32.19-32.645 48.13-2.006 4.27-.17 9.36 4.106 11.37 1.172.55 2.41.81 3.627.81 3.208 0 6.287-1.82 7.744-4.92 13.847-29.49 45.39-63.2 68.89-82.61-2.335 45.4 6.999 108.3 55.915 173.66 1.856 2.48 4.705 3.79 7.584 3.79 1.975 0 3.966-.61 5.667-1.89 4.187-3.13 5.04-9.06 1.906-13.25-75.062-100.3-49.008-196.22-41.281-218.71 14.719 7.11 29.576 9.63 40.229 9.63 1.187 0 2.325-.03 3.402-.09 5.219-.28 9.226-4.74 8.941-9.97-.284-5.22-4.784-9.23-9.968-8.94-.509.03-50.763 2.21-69.553-46.07-7.598-19.51-8.986-51.71-10.457-85.81-1.647-38.17-3.518-81.438-14.56-117.394-28.185-91.805 13.721-127.417 41.208-140.472 24.413-11.603 52.718-9.569 81.871 5.86 65.017 34.422 118.947 123.795 134.205 222.386.803 5.17 5.628 8.71 10.807 7.92 5.169-.81 8.711-5.64 7.913-10.81-2.642-17.07-6.424-33.883-11.177-50.242 66.203-31.701 128.052-39.562 180.722-33.511.9.356 1.86.618 2.88.68.63.033 1.25-.002 1.85-.087 50.7 6.691 92.59 26.184 121.19 49.33 48.89 39.57 65.94 101.67 71.11 127.4-10.04-.93-20.79-.13-32.29 2.63-48.66 11.66-72.85 48.43-98.44 87.34-20.75 31.54-42.2 64.15-79.1 91.04-78.676 57.31-108.288 124.75-77.284 176.01 15.268 25.24 42.884 42.28 73.864 45.6 3.58.39 7.39.61 11.44.61 32.05 0 78.3-13.93 132.62-71.38 13.4-14.17 25.59-22.79 36.35-30.4 19.4-13.72 35.57-25.15 48.24-58.1.7 6.66 1.1 13.76 1.48 20.52.6 10.73 1.19 20.84 2.77 29.48-22.2 51.01-78.31 104.73-174.1 125.95zm-30.23 225.42c-3.32 28.41-5.44 71.42-5.99 83.47-5.16 4.73-13.94 7.02-17.24 7.52-4.66.7-7.88 5.03-7.19 9.7.62 4.24 4.27 7.3 8.45 7.3.41 0 .82-.03 1.25-.09 1.77-.26 15.81-2.56 25.81-11.36 11.15 3.45 21.95 11.35 25.48 24.61-2.65-2.46-4.71-3.86-4.94-4.01-3.92-2.59-9.18-1.51-11.8 2.39-2.61 3.91-1.55 9.21 2.34 11.85.09.06 9.57 6.58 10.67 15.78.1.87.36 1.68.7 2.44-2.56 5.48-6.14 10.03-10.98 13.35-6.64 4.56-14.21 6.21-19.63 6.56 1.22-12.32-8.1-25.57-10.08-28.23-2.82-3.79-8.19-4.55-11.96-1.74-3.78 2.82-4.56 8.18-1.74 11.96 3.25 4.37 7.52 12.81 6.73 16.68-.22 1.05-.21 2.1-.05 3.1-11.82 2.26-22.87.09-32.89-6.62-16.7-11.17-26.737-32.34-27.565-43.33-.06-.82-.24-1.63-.534-2.4-25.456-66.89-25.012-119.38-25.002-119.9.011-.8-.123-1.56-.317-2.29 40.238-28.67 79.608-73.21 113.198-141.04-.29 50.18-3.76 118.95-6.72 144.3zm-584.589 51.02c.464.37.968.69 1.501.95 7.649 3.77 12.175 8.03 13.088 12.3 1.018 4.74-2.55 9.15-2.545 9.15-.414.48-.773 1-1.073 1.55-1.241 2.31-4.656 4-9.975 4.75-.174-5.23-2.024-11.38-7.597-16.28-3.019-2.66-7.619-2.37-10.273.65-2.66 3.01-2.365 7.62.653 10.27 1.819 1.61 2.451 3.55 2.613 5.22-5.488-.64-11.775-1.82-19.048-3.79-16.959-4.61-20.382-13.86-26.509-34.35-.164-.54-.384-1.07-.653-1.58-18.153-33.9-23.109-65.28-24.471-79.89 19.44 5.85 42.45 14.14 69.131 26.11 1.566.7 3.111 1.37 4.666 2.06-1.259 12.73-3.05 52.23 10.492 62.88zm656.439-1050.824c5.52-.309 9.96 1.357 13.94 5.194 22.54 21.776 21.11 99.825 20.15 151.473-.32 17.901-.52 31.658-.13 42.179-4.27-2.721-8.75-5.35-13.38-7.893-6.13-3.367-12.58-6.557-19.31-9.545-7.19-3.192-14.7-6.143-22.53-8.813-5.48-1.869-11.12-3.585-16.89-5.16-10.39-2.831-21.22-5.171-32.48-6.908 4.41-51.191 23.35-158.014 70.63-160.527zm209.53 596.294c-.57-13.45-2.48-23.07-4.5-33.25-2.51-12.66-5.36-27.01-6.24-52.84-1.64-48.59-11.42-112.47-48.74-140.89-5.31-4.05-11.04-7.16-17.09-9.54-3.14-20.34-18.62-96.89-78.3-145.942-2.56-5.934-2.05-34.096-1.63-56.815 1.13-61.457 2.54-137.942-25.94-165.444-7.79-7.534-17.23-11.104-28.1-10.483-33.54 1.781-58.76 34.657-74.96 97.71-8.29 32.268-11.97 63.801-13.42 79.453-53.62-4.876-115.492 3.778-181.298 34.793-25.91-75.584-72.861-139.039-127.121-167.765-34.646-18.348-68.839-20.491-98.855-6.231-79.77 37.889-62.372 126.71-51.186 163.138 10.328 33.639 12.139 75.616 13.741 112.656 1.542 35.7 2.993 69.43 11.725 91.86 6.668 17.13 16.816 29.53 28.127 38.37-2.261 5.75-7.717 21.17-11.006 43.38-10.909 7.49-25.037 19.59-39.087 34.04-155.625-9.85-273.035 24.58-349.041 102.3-62.318 63.04-76.438 161.8-84.875 220.81-2.242 15.69-4.181 29.25-6.421 37.21-18.473 65.62-45.655 184.68-21.04 247.45.262 1.98.499 3.94.731 5.87 2.741 22.83 5.578 46.44 48.534 58.53 18.778 5.29 34.636 7.93 47.704 7.93 16.644 0 28.759-4.29 36.607-12.9 5.204-3.64 24.812-18.75 23.974-38.82-1.113-26.45-13.057-35.91-39.127-44.55-.544-8.54-.948-25.67 3.009-40.22 3.772-13.87 15.816-27.7 29.767-43.71 13.514-15.52 28.927-33.27 42.102-56.27 6.38.12 24.714 1.19 54.181 8.72.537 11.82 4.019 49.75 26.511 92.12 5.857 19.57 11.68 37.92 38.159 45.12 12.338 3.36 23.11 5.03 32.191 5.03 14.933 0 25.296-4.52 30.54-13.47 2.131-2.76 8.033-11.62 5.778-22.84-1.916-9.52-9.006-17.5-21.085-23.74-3.944-5.04-5.202-28.36-4.383-42.07 73.41 30.65 131.267 43.15 147.982 46.37-.947 60.94 4.244 144.82 33.639 205.01 10.358 35.43 35.171 56.91 69.697 60.49 4.151.56 7.983.8 11.506.8 16.455 0 26.179-5.31 30.844-8.86 9.246-.33 32.247-3.98 46.192-30.95 6.96-13.45 7.24-29.6.753-43.21-6.556-13.73-19.523-23.83-36.896-28.87-.115-7.26.264-20.47 3.443-35.92 2.684-13.04 11.34-51.25 19.713-88.21 2.179-9.61 4.319-19.05 6.32-27.91 37.22-1.28 79.932-10.54 122.45-36.28.868 18.18 5.122 62.31 25.497 116.28 1.656 14.61 13.222 40.38 34.974 54.94 10.34 6.92 21.72 10.41 33.62 10.41 6.19 0 12.52-.95 18.92-2.84 8.55.97 23.58-.69 36.27-9.39 11.65-8 19.17-20.42 21.74-35.9 5.35-32.17-14.22-53.06-36.71-60.59.74-15.39 2.77-53.44 5.71-78.57 3.86-33.02 8.37-132.64 6.38-180.4-.03-.68-.15-1.32-.32-1.94 3.52-8.46 6.95-17.27 10.29-26.35 94.41-20.67 153.32-71.53 181.28-122.71 1.76 1.49 3.75 2.71 6.07 3.55 6.21 2.26 16.02 3.19 27.57-5.25 18.69-13.67 34.17-47.5 33.13-72.4z"/><path d="m771.827 1967.18c-12.803 6.31-19.654 7.75-19.908 7.8-4.615.86-7.674 5.28-6.846 9.91.739 4.14 4.341 7.04 8.403 7.04.498 0 1.007-.04 1.516-.14.893-.15 9.176-1.78 24.389-9.27 4.236-2.09 5.977-7.22 3.891-11.45-2.095-4.23-7.234-5.97-11.445-3.89"/><path d="m1202.14 1226.32c-6.6-1.15-12.88 3.28-14.03 9.88s3.28 12.88 9.88 14.03c6.6 1.14 12.89-3.28 14.03-9.88 1.15-6.6-3.28-12.89-9.88-14.03"/><path d="m1220.93 1279.47c-1.15 6.6 3.28 12.89 9.88 14.03 6.6 1.15 12.89-3.28 14.03-9.88 1.15-6.6-3.28-12.88-9.88-14.03s-12.88 3.28-14.03 9.88"/><path d="m1197.15 1312.02c-6.61-1.15-12.89 3.27-14.03 9.88-1.15 6.6 3.27 12.88 9.88 14.03 6.6 1.14 12.88-3.28 14.03-9.88 1.14-6.61-3.28-12.89-9.88-14.03"/><path d="m1164.83 1268.19c-6.6-1.15-12.89 3.28-14.03 9.88-1.15 6.6 3.28 12.88 9.88 14.03s12.88-3.28 14.03-9.88-3.28-12.88-9.88-14.03"/><path d="m1161.95 1105.01c1.87 0 3.76-.55 5.42-1.7.23-.16 23.36-16.02 48.54-9.36 5.06 1.32 10.24-1.67 11.58-6.72 1.34-5.06-1.67-10.24-6.73-11.58-33.59-8.91-63.01 11.26-64.24 12.13-4.29 2.99-5.33 8.89-2.34 13.18 1.84 2.64 4.78 4.05 7.77 4.05"/></g></g></svg>