<svg height="2452" viewBox="0 0 2452 2452" width="2452" xmlns="http://www.w3.org/2000/svg"><g fill="none" fill-rule="evenodd" transform="translate(-174 -174)"><path d="m.06 2800h2799.94v-2799.96h-2799.94z"/><path d="m1312.62 1703.23c0 14.1-11.44 25.54-25.55 25.54-14.1 0-25.54-11.44-25.54-25.54 0-14.11 11.44-25.54 25.54-25.54 14.11 0 25.55 11.43 25.55 25.54zm-80.72-64.37c-14.1 0-25.54-11.43-25.54-25.54s11.44-25.54 25.54-25.54c14.11 0 25.54 11.43 25.54 25.54s-11.43 25.54-25.54 25.54zm-30.65 147.12c-14.1 0-25.54-11.43-25.54-25.54 0-14.1 11.44-25.54 25.54-25.54 14.11 0 25.54 11.44 25.54 25.54 0 14.11-11.43 25.54-25.54 25.54zm-53.13-81.73c-14.1 0-25.54-11.44-25.54-25.54 0-14.11 11.44-25.55 25.54-25.55 14.11 0 25.55 11.44 25.55 25.55 0 14.1-11.44 25.54-25.55 25.54zm140.37-126.07c-17.53-21.71-27.76-45.77-29.27-67.58-26.91 5.04-72.82 18.21-117.91 44.15-61.23 35.2-98.94 80.69-112.1 135.19-25.81 106.9 21.31 159.93 51.69 182.02 42.1 30.61 152.31 43.1 255.2-27.41 18.79-12.87 39.51-25.9 50.79-32.9v-175.33c-36.65-5.16-72.47-26.03-98.4-58.14z" fill="#cacbc6"/><path d="m1812.61 1037.53c-17.63-6.88-37.6-14.68-46.09-40.831-9.48-29.279-8.3-167.665 50.6-305.844 33.63-78.913 84.03-90.685 111.06-90.685 15.94 0 26.89 3.997 28.08 4.462 93.93 28.863 74.81 168.717 63.4 252.275l-2.23 16.552c-6.04 46.272-2.42 87.128 1.08 126.631 2.12 24.01 4.32 48.82 4.32 74.43 0 21.89-7.12 42.2-20.05 57.23-13.37 15.55-31.57 24.12-51.22 24.12-.01 0-.01 0-.01 0-34 0-65.84-25.6-87.38-70.22-13.84-33.4-32.17-40.55-51.56-48.12zm-64.07 862.78c-24.68 17.95-66.32 31.1-115.95 31.1-47.2 0-101.64-11.94-155.62-42.88-19.69 6.31-44.95 10.12-72.55 10.12-27.61 0-52.87-3.81-72.55-10.12-53.98 30.94-108.42 42.87-155.63 42.87-49.64 0-91.27-13.14-115.95-31.1-30.16-21.92-96.886-87.13-65.162-218.57 35.372-146.46 212.212-200.43 271.382-207.8.16-.02.32 0 .48-.01 28.18-50.34 124.11-50.02 137.47-49.72 13.54-.26 109.23-.54 137.39 49.72.16.01.31-.01.47.01 59.17 7.37 236.03 61.35 271.38 207.8 31.72 131.46-35 196.65-65.16 218.58zm-803.461-815.58c-21.956 45.55-53.802 71.14-87.8 71.14-39.963 0-71.271-35.74-71.271-81.35 0-25.61 2.2-50.44 4.327-74.43 3.497-39.516 7.115-80.371 1.076-126.631l-2.213-16.479c-11.442-83.582-30.574-223.485 64.475-252.727.098-.086 11.051-4.083 26.993-4.083 27.029 0 77.42 11.772 111.051 90.685 58.903 138.191 60.073 276.565 50.583 305.844-8.48 26.151-28.46 33.951-46.084 40.831-19.389 7.57-37.714 14.72-51.137 47.2zm156.811 348.65s-12.52 35.47-47.99 47.99c-89.921 31.74-64.676-158.57-8.34-154.39 56.33 4.17 56.33 106.4 56.33 106.4zm661.39-106.4c56.33-4.18 81.58 186.13-8.35 154.39-35.47-12.52-47.99-47.99-47.99-47.99s0-102.23 56.34-106.4zm135.36 289.82c-9.82-41.75-19.08-81.19-16.19-121.05.9-12.31 1.86-24.32 2.82-36.05 7.69-95.66 13.76-171.21-31.58-251.5-4.77-8.42-1.79-19.12 6.64-23.87 8.43-4.77 19.13-1.8 23.87 6.64 21.97 38.88 33.1 76.76 38.06 115.17 162.53-31.07 159.2-138.65 154.47-286.71-1.87-58.232-3.79-118.44 5.13-179.052 27.87-189.621-7.9-292.103-112.62-322.421-53.89-10.477-102.84.061-145.55 31.332-127.75 93.49-168.4 341.95-175.36 391.768 21.09 9.925 38.85 20.403 53.35 30.398 7.96 5.489 9.98 16.406 4.48 24.376-3.4 4.929-8.88 7.579-14.44 7.579-3.44 0-6.89-1-9.94-3.1-48.51-33.44-135.71-72.388-277.13-71.007-.07.012-.16.012-.23.012s-.16 0-.23-.012c-141.38-1.54-228.63 37.58-277.14 71.007-3.05 2.1-6.51 3.1-9.94 3.1-5.56 0-11.04-2.65-14.44-7.579-5.5-7.97-3.48-18.887 4.48-24.376 14.49-9.991 32.27-20.469 53.36-30.395-6.99-49.857-47.75-298.441-175.394-391.807-42.714-31.235-91.7-41.773-145.514-31.296-104.719 30.318-140.49 132.8-112.617 322.421 8.912 60.612 6.993 120.82 5.123 179.052-4.73 148.06-8.054 255.64 154.469 286.71 4.954-38.4 16.093-76.29 38.062-115.17 4.756-8.44 15.465-11.41 23.875-6.64 8.436 4.75 11.406 15.45 6.639 23.87-45.343 80.26-39.267 155.8-31.59 251.42.942 11.76 1.907 23.79 2.812 36.13 2.897 39.86-6.369 79.3-16.174 121.04-14.657 62.37-29.816 126.84-8.398 204.15 52.017 187.91 311.627 181.31 314.247 181.2l188.37-.01h187.78c3.17.17 262.91 6.41 314.84-181.19 21.42-77.29 6.26-141.78-8.4-204.14z" fill="#fffffe"/><path d="m1660.71 1704.25c-14.11 0-25.54-11.44-25.54-25.54 0-14.11 11.43-25.55 25.54-25.55s25.54 11.44 25.54 25.55c0 14.1-11.43 25.54-25.54 25.54zm-53.13 81.73c-14.1 0-25.54-11.43-25.54-25.54 0-14.1 11.44-25.54 25.54-25.54 14.11 0 25.54 11.44 25.54 25.54 0 14.11-11.43 25.54-25.54 25.54zm-56.19-172.66c0-14.11 11.44-25.54 25.54-25.54 14.11 0 25.54 11.43 25.54 25.54s-11.43 25.54-25.54 25.54c-14.1 0-25.54-11.43-25.54-25.54zm-29.63 115.45c-14.11 0-25.54-11.44-25.54-25.54 0-14.11 11.43-25.54 25.54-25.54s25.54 11.43 25.54 25.54c0 14.1-11.43 25.54-25.54 25.54zm145.77-174.02c-45.08-25.93-90.99-39.11-117.91-44.15-1.51 21.81-11.74 45.87-29.27 67.58-25.93 32.11-61.75 52.98-98.4 58.14v175.33c11.28 7 31.99 20.03 50.78 32.9 102.89 70.49 213.11 58.02 255.2 27.41 30.38-22.09 77.49-75.1 51.69-182.02-13.16-54.5-50.87-99.99-112.09-135.19z" fill="#cacbc6"/><path d="m1598.2 2037.27c-3.83 0-6.11-.08-6.6-.09l-187.18.01h-187.78c-.37.01-2.55.08-6.25.08-19.03 0-78.49-1.78-143.59-21.57-40.6-12.35-75.704-29.52-105.009-51 1.806 44.41 45.029 197.63 513.029 379.88 13.31-7.96 44.04-28.36 66.54-58.82 1.8-3.57 9.27-21.97 14.61-53.11.98-5.74 4.75-10.62 10.05-13.01 186.1-84.25 276.07-165.72 280.68-254.68-29.23 21.37-64.22 38.44-104.66 50.74-64.99 19.76-124.35 21.57-143.84 21.57" fill="#bd242d"/><path d="m2430.3 1480.6c-13.77 4.55-26.35 6.14-37.21 6.14-24.48 0-40.22-8.07-41.15-8.57-8.57-4.51-11.84-15.11-7.33-23.67 4.47-8.52 15-11.81 23.51-7.42 1.22.59 21.46 10.04 51.21.24 9.17-3.09 19.09 1.96 22.12 11.15 3.04 9.2-1.95 19.1-11.15 22.13zm149.23-220.28c-1.19-2.19-2.51-3.25-4.7-3.82-.82-.2-1.57-.31-2.19-.31-3.42 0-8.24 5.56-14.32 16.51l-51.95 93.76c-14.82 26.71-32.64 40.24-52.98 40.25-6.99 0-14.08-1.66-21.06-4.94-11.52-5.4-19.7-14.38-23.66-25.99-8.6-25.2 5.88-54.52 7.55-57.77 2.21-4.24 53.41-102.83 64.02-121.98 8.5-15.33-5.45-25.31-11.84-28.88-2.3-1.26-9.38-4.33-16.18-4.33-6.62 0-11.04 2.84-14.73 9.52-10.62 19.14-67.08 114.8-69.47 118.87-2.37 3.96-23.69 38.27-55.16 38.27-8.56 0-16.79-2.52-24.46-7.49-14.97-9.69-36.07-33.15-9.28-81.49l51.97-93.75c9.91-17.87 6.95-20.7 5-22.58-1.49-1.42-2.96-1.99-5.06-1.99-4.66 0-22.6 3.32-58.35 46.11-29.63 35.45-72.29 115.88-78.02 155.73-12.71 88.37 61.68 140.54 62.43 141.05 7.54 5.18 9.84 15.29 5.27 23.21l-145.47 252.35c8.31 2.46 16.43 5.49 24.16 9.12 9.77 4.58 19.27 10.41 28.28 17.2l135.79-254.97c4.3-8.05 14.07-11.46 22.47-7.82.21.08 26.37 11.14 60.87 11.14 35.05 0 65.94-11.09 91.83-32.95 30.75-25.98 76.35-104.78 90.72-148.68 16.45-50.28 11.45-68.05 8.52-73.35z" fill="#fffffe"/><path d="m327.95 1103.96c-3.423 4.77-8.802 7.31-14.255 7.31-3.539 0-7.108-1.07-10.207-3.29-14.34-10.29-25.117-8.63-25.581-8.58-9.371 1.64-18.515-4.52-20.355-13.81-1.846-9.29 3.729-18.3 12.953-20.44 2.579-.61 26.063-5.28 53.423 14.35 7.86 5.65 9.664 16.59 4.022 24.46zm335.143 649.52c-28.382-48.75-48.775-84.9-52.098-93.61-8.423-22.13 6.234-45.42 20.403-67.94 13.289-21.12 27.03-42.95 19.316-56.88-8.215-14.83-249.072-395.33-295.918-460.81-17.787-24.85-48.381-39.69-81.846-39.69-17.348 0-33.741 4.23-46.168 11.9-15.196 9.41-8.368 24.39-4.725 30.4l395.361 713.22c13.166-15.47 28.945-27.67 45.675-36.59z" fill="#fffffe"/><path d="m873.643 2107.1c-21.125 10.79-45.08 17.25-70.242 18.48l26.079 47.04c1.479 2.31 7.029 2.79 10.159 2.79 8.594 0 19.254-3.32 27.836-8.66 23.35-14.51 22.347-29.78 21.394-34.4-3.216-5.33-8.472-14.04-15.226-25.25" fill="#fffffe"/><path d="m1890.72 2132.97c-4.82 18.06 23.04 29.32 23.34 29.43 1.4.56 2.72 1.3 3.94 2.19 3.57 2.58 15.26 9.41 25.46 9.41 4.95 0 8.57-1.56 11.83-5.17l24.89-46.73c-24.5-5.14-47.09-15.38-66.06-29.72z" fill="#fffffe"/><path d="m1471.18 1504.32c18.44 0 33.38-9.34 33.38-20.86 0-.26-.1-.5-.12-.76-.65-11.16-15.24-20.11-33.26-20.11-4.44 0-8.67.57-12.55 1.56-12.21 3.1-20.83 10.56-20.83 19.31 0 11.52 14.95 20.86 33.38 20.86" fill="#fffffe"/><path d="m1775.92 1398.57c6.5 0 11.77-7.77 11.77-17.35s-5.27-17.34-11.77-17.34-11.77 7.76-11.77 17.34 5.27 17.35 11.77 17.35" fill="#fffffe"/><path d="m1063.41 1398.57c6.5 0 11.77-7.77 11.77-17.35s-5.27-17.34-11.77-17.34-11.77 7.76-11.77 17.34 5.27 17.35 11.77 17.35" fill="#fffffe"/><path d="m890.837 1946.59c-3.203 2.51-7.005 3.73-10.783 3.73-5.207 0-10.366-2.31-13.814-6.73-5.966-7.63-4.621-18.65 3.008-24.6.182-.14.319-.32.497-.46 20.816-17.05 10.125-54.23-5.803-74.77-8.924-11.51-23.521-19.34-39.022-20.97-10.978-1.15-18.203 1.25-20.404 3.13-.363.31-.819.39-1.199.66-7.364 5.28-17.555 4.31-23.507-2.7-6.26-7.4-5.343-18.45 2.041-24.71 6.474-5.48 15.35-8.89 25.391-10.51-23.344-19.48-59.397-24.34-92.936-17.02-10.047 2.19-19.867 5.47-29.044 9.77-1.584.74-2.924 1.62-4.443 2.4-20.325 10.4-35.023 23.86-45.078 39.31-8.524 13.1-13.867 27.53-16.349 42.74-5.747 35.25 3.01 74.32 18.755 108.72 23.48 51.3 58.358 87.39 99.528 104.66 14.668 6.15 30.131 9.89 46.176 11.07 2.836.2 5.667.43 8.538.48 22.71.34 44.228-4.82 63.029-13.97 10.767-5.24 20.543-11.83 29.076-19.65 9.764-8.95 18.045-19.28 23.91-31.08 23.425-47.11 13.057-82.43 1.206-103.07-4.18 8.86-10.271 16.93-18.773 23.57" fill="#fffffe"/><path d="m2152.84 1797.91c-7.65-6.13-16.5-11.65-26.68-16.43-8.68-4.07-17.94-7.18-27.42-9.37-12.73-2.94-25.82-4.08-38.52-3.37-21.23 1.18-41.24 7.6-56.08 20.01 10.04 1.62 18.94 5.01 25.42 10.49 3.73 3.17 5.78 7.56 6.12 12.08.33 4.42-.99 8.97-4.08 12.63-1.63 1.92-3.6 3.35-5.73 4.38-5.64 2.74-12.43 2.16-17.78-1.68-.38-.27-.83-.35-1.2-.66-2.22-1.88-9.45-4.28-20.41-3.13-15.5 1.63-30.09 9.47-39.01 20.97-15.95 20.55-26.64 57.72-5.8 74.76.18.14.31.31.49.45 7.63 5.96 8.97 16.98 3.02 24.61-3.46 4.41-8.62 6.73-13.83 6.73-3.77 0-7.58-1.22-10.78-3.71-8.54-6.68-14.65-14.78-18.83-23.69-11.9 20.61-22.24 55.91 1.26 103.19 1.31 2.62 3 4.99 4.52 7.48 6.43 10.59 14.61 20 24.34 27.96 17.98 14.72 40.72 24.55 65.69 27.87 7.03.94 14.17 1.51 21.47 1.38 6.2-.1 12.3-.7 18.33-1.55 56.91-8.01 105.78-48.83 135.91-114.66 22.04-48.14 30.32-105.43 4.27-148.54-6.22-10.3-14.25-19.85-24.69-28.2" fill="#fffffe"/><g fill="#1b1a19"><path d="m1141.31 1554.75c45.09-25.94 91-39.11 117.91-44.15 1.51 21.81 11.74 45.87 29.27 67.58 25.93 32.11 61.75 52.98 98.4 58.14v175.33c-11.28 7-32 20.03-50.79 32.9-102.89 70.51-213.1 58.02-255.2 27.41-30.38-22.09-77.5-75.12-51.69-182.02 13.16-54.5 50.87-99.99 112.1-135.19zm638.31 135.19c25.8 106.92-21.31 159.93-51.69 182.02-42.09 30.61-152.31 43.08-255.2-27.41-18.79-12.87-39.5-25.9-50.78-32.9v-175.33c36.65-5.16 72.47-26.03 98.4-58.14 17.53-21.71 27.76-45.77 29.27-67.58 26.92 5.04 72.83 18.22 117.91 44.15 61.22 35.2 98.93 80.69 112.09 135.19zm-275.06-206.48c0 11.52-14.94 20.86-33.38 20.86-18.43 0-33.38-9.34-33.38-20.86 0-8.75 8.62-16.21 20.83-19.31 3.88-.99 8.11-1.56 12.55-1.56 18.02 0 32.61 8.95 33.26 20.11.02.26.12.5.12.76zm-509.432 198.27c-31.724 131.44 35.002 196.65 65.162 218.57 24.68 17.96 66.31 31.1 115.95 31.1 47.21 0 101.65-11.93 155.63-42.87 19.68 6.31 44.94 10.12 72.55 10.12 27.6 0 52.86-3.81 72.55-10.12 53.98 30.94 108.42 42.88 155.62 42.88 49.63 0 91.27-13.15 115.95-31.1 30.16-21.93 96.88-87.12 65.16-218.58-35.35-146.45-212.21-200.43-271.38-207.8-.16-.02-.31 0-.47-.01-28.16-50.26-123.85-49.98-137.39-49.72-13.36-.3-109.29-.62-137.47 49.72-.16.01-.32-.01-.48.01-59.17 7.37-236.01 61.34-271.382 207.8z"/><path d="m1231.9 1638.86c14.11 0 25.54-11.43 25.54-25.54s-11.43-25.54-25.54-25.54c-14.1 0-25.54 11.43-25.54 25.54s11.44 25.54 25.54 25.54"/><path d="m1287.07 1728.77c14.11 0 25.55-11.44 25.55-25.54 0-14.11-11.44-25.54-25.55-25.54-14.1 0-25.54 11.43-25.54 25.54 0 14.1 11.44 25.54 25.54 25.54"/><path d="m1148.12 1704.25c14.11 0 25.55-11.44 25.55-25.54 0-14.11-11.44-25.55-25.55-25.55-14.1 0-25.54 11.44-25.54 25.55 0 14.1 11.44 25.54 25.54 25.54"/><path d="m1201.25 1785.98c14.11 0 25.54-11.43 25.54-25.54 0-14.1-11.43-25.54-25.54-25.54-14.1 0-25.54 11.44-25.54 25.54 0 14.11 11.44 25.54 25.54 25.54"/><path d="m1063.41 1363.88c6.5 0 11.77 7.76 11.77 17.34s-5.27 17.35-11.77 17.35-11.77-7.77-11.77-17.35 5.27-17.34 11.77-17.34zm-9.51 117.49c35.47-12.52 47.99-47.99 47.99-47.99s0-102.23-56.33-106.4c-56.336-4.18-81.581 186.13 8.34 154.39z"/><path d="m880.666 600.17c-15.942 0-26.895 3.997-26.993 4.083-95.049 29.242-75.917 169.145-64.475 252.727l2.213 16.479c6.039 46.26 2.421 87.115-1.076 126.631-2.127 23.99-4.327 48.82-4.327 74.43 0 45.62 31.308 81.35 71.271 81.35 33.998 0 65.844-25.59 87.8-71.14 13.423-32.48 31.748-39.63 51.137-47.2 17.624-6.88 37.604-14.68 46.084-40.831 9.49-29.279 8.32-167.653-50.583-305.845-33.631-78.912-84.022-90.684-111.051-90.684"/><path d="m2017.43 873.459 2.23-16.553c11.41-83.557 30.53-223.411-63.4-252.274-1.19-.465-12.14-4.462-28.08-4.462-27.03 0-77.43 11.772-111.06 90.684-58.9 138.18-60.08 276.566-50.6 305.845 8.49 26.151 28.46 33.951 46.09 40.831 19.39 7.57 37.72 14.72 51.56 48.12 21.54 44.62 53.38 70.22 87.38 70.22h.01c19.65 0 37.85-8.57 51.22-24.12 12.93-15.03 20.05-35.34 20.05-57.23 0-25.61-2.2-50.42-4.32-74.43-3.5-39.503-7.12-80.359-1.08-126.631"/><path d="m1576.93 1638.86c14.11 0 25.54-11.43 25.54-25.54s-11.43-25.54-25.54-25.54c-14.1 0-25.54 11.43-25.54 25.54s11.44 25.54 25.54 25.54"/><path d="m1521.76 1677.69c-14.11 0-25.54 11.43-25.54 25.54 0 14.1 11.43 25.54 25.54 25.54s25.54-11.44 25.54-25.54c0-14.11-11.43-25.54-25.54-25.54"/><path d="m1660.71 1704.25c14.11 0 25.54-11.44 25.54-25.54 0-14.11-11.43-25.55-25.54-25.55s-25.54 11.44-25.54 25.55c0 14.1 11.43 25.54 25.54 25.54"/><path d="m1582.04 1760.44c0 14.11 11.44 25.54 25.54 25.54 14.11 0 25.54-11.43 25.54-25.54 0-14.1-11.43-25.54-25.54-25.54-14.1 0-25.54 11.44-25.54 25.54"/><path d="m1775.92 1363.88c6.5 0 11.77 7.76 11.77 17.34s-5.27 17.35-11.77 17.35-11.77-7.77-11.77-17.35 5.27-17.34 11.77-17.34zm-20.99 117.49c89.93 31.74 64.68-158.57 8.35-154.39-56.34 4.17-56.34 106.4-56.34 106.4s12.52 35.47 47.99 47.99z"/><path d="m270.505 1065.15c-9.224 2.14-14.799 11.15-12.953 20.44 1.84 9.29 10.984 15.45 20.355 13.81.464-.05 11.241-1.71 25.581 8.58 3.099 2.22 6.668 3.29 10.207 3.29 5.453 0 10.832-2.54 14.255-7.31 5.642-7.87 3.838-18.81-4.022-24.46-27.36-19.63-50.844-14.96-53.423-14.35"/><path d="m2571.01 1333.67c-14.37 43.9-59.97 122.7-90.72 148.68-25.89 21.86-56.78 32.95-91.83 32.95-34.5 0-60.66-11.06-60.87-11.14-8.4-3.64-18.17-.23-22.47 7.82l-135.79 254.97c-9.01-6.79-18.51-12.62-28.28-17.2-7.73-3.63-15.85-6.66-24.16-9.12l145.47-252.35c4.57-7.92 2.27-18.03-5.27-23.21-.75-.51-75.14-52.68-62.43-141.05 5.73-39.85 48.39-120.28 78.02-155.73 35.75-42.79 53.69-46.11 58.35-46.11 2.1 0 3.57.57 5.06 1.99 1.95 1.88 4.91 4.71-5 22.58l-51.97 93.75c-26.79 48.34-5.69 71.8 9.28 81.49 7.67 4.97 15.9 7.49 24.46 7.49 31.47 0 52.79-34.31 55.16-38.27 2.39-4.07 58.85-99.73 69.47-118.87 3.69-6.68 8.11-9.52 14.73-9.52 6.8 0 13.88 3.07 16.18 4.33 6.39 3.57 20.34 13.55 11.84 28.88-10.61 19.15-61.81 117.74-64.02 121.98-1.67 3.25-16.15 32.57-7.55 57.77 3.96 11.61 12.14 20.59 23.66 25.99 6.98 3.28 14.07 4.94 21.06 4.94 20.34-.01 38.16-13.54 52.98-40.25l51.95-93.76c6.08-10.95 10.9-16.51 14.32-16.51.62 0 1.37.11 2.19.31 2.19.57 3.51 1.63 4.7 3.82 2.93 5.3 7.93 23.07-8.52 73.35zm-615.72 835.16c-3.26 3.61-6.88 5.17-11.83 5.17-10.2 0-21.89-6.83-25.46-9.41-1.22-.89-2.54-1.63-3.94-2.19-.3-.11-28.16-11.37-23.34-29.43l23.4-40.59c18.97 14.34 41.56 24.58 66.06 29.72zm-389.27 50.81c-5.3 2.39-9.07 7.27-10.05 13.01-5.34 31.14-12.81 49.54-14.61 53.11-22.5 30.46-53.23 50.86-66.54 58.82-468-182.25-511.223-335.47-513.029-379.88 29.305 21.48 64.409 38.65 105.009 51 65.1 19.79 124.56 21.57 143.59 21.57 3.7 0 5.88-.07 6.25-.08h187.78l187.18-.01c.49.01 2.77.09 6.6.09 19.49 0 78.85-1.81 143.84-21.57 40.44-12.3 75.43-29.37 104.66-50.74-4.61 88.96-94.58 170.43-280.68 254.68zm-677.151-87.29c.953 4.62 1.956 19.89-21.394 34.4-8.582 5.34-19.242 8.66-27.836 8.66-3.13 0-8.68-.48-10.159-2.79l-26.079-47.04c25.162-1.23 49.117-7.69 70.242-18.48 6.754 11.21 12.01 19.92 15.226 25.25zm-666.812-1055.5c-3.643-6.01-10.471-20.99 4.725-30.4 12.427-7.67 28.82-11.9 46.168-11.9 33.465 0 64.059 14.84 81.846 39.69 46.846 65.48 287.703 445.98 295.918 460.81 7.714 13.93-6.027 35.76-19.316 56.88-14.169 22.52-28.826 45.81-20.403 67.94 3.323 8.71 23.716 44.86 52.098 93.61-16.73 8.92-32.509 21.12-45.675 36.59zm686.347 949.24c-5.865 11.8-14.146 22.13-23.91 31.08-8.533 7.82-18.309 14.41-29.076 19.65-18.801 9.15-40.319 14.31-63.029 13.97-2.871-.05-5.702-.28-8.538-.48-16.045-1.18-31.508-4.92-46.176-11.07-41.17-17.27-76.048-53.36-99.528-104.66-15.745-34.4-24.502-73.47-18.755-108.72 2.482-15.21 7.825-29.64 16.349-42.74 10.055-15.45 24.753-28.91 45.078-39.31 1.519-.78 2.859-1.66 4.443-2.4 9.177-4.3 18.997-7.58 29.044-9.77 33.539-7.32 69.592-2.46 92.936 17.02-10.041 1.62-18.917 5.03-25.391 10.51-7.384 6.26-8.301 17.31-2.041 24.71 5.952 7.01 16.143 7.98 23.507 2.7.38-.27.836-.35 1.199-.66 2.201-1.88 9.426-4.28 20.404-3.13 15.501 1.63 30.098 9.46 39.022 20.97 15.928 20.54 26.619 57.72 5.803 74.77-.178.14-.315.32-.497.46-7.629 5.95-8.974 16.97-3.008 24.6 3.448 4.42 8.607 6.73 13.814 6.73 3.778 0 7.58-1.22 10.783-3.73 8.502-6.64 14.593-14.71 18.773-23.57 11.851 20.64 22.219 55.96-1.206 103.07zm1.797-409.3c9.805-41.74 19.071-81.18 16.174-121.04-.905-12.34-1.87-24.37-2.812-36.13-7.677-95.62-13.753-171.16 31.59-251.42 4.767-8.42 1.797-19.12-6.639-23.87-8.41-4.77-19.119-1.8-23.875 6.64-21.969 38.88-33.108 76.77-38.062 115.17-162.523-31.07-159.199-138.65-154.469-286.71 1.87-58.232 3.789-118.44-5.123-179.052-27.873-189.621 7.898-292.103 112.617-322.421 53.814-10.477 102.8.061 145.514 31.296 127.644 93.366 168.404 341.95 175.394 391.807-21.09 9.926-38.87 20.404-53.36 30.395-7.96 5.489-9.98 16.406-4.48 24.376 3.4 4.929 8.88 7.579 14.44 7.579 3.43 0 6.89-1 9.94-3.1 48.51-33.427 135.76-72.547 277.14-71.007.07.012.16.012.23.012s.16 0 .23-.012c141.42-1.381 228.62 37.567 277.13 71.007 3.05 2.1 6.5 3.1 9.94 3.1 5.56 0 11.04-2.65 14.44-7.579 5.5-7.97 3.48-18.887-4.48-24.376-14.5-9.995-32.26-20.473-53.35-30.398 6.96-49.818 47.61-298.278 175.36-391.768 42.71-31.271 91.66-41.809 145.55-31.332 104.72 30.318 140.49 132.8 112.62 322.421-8.92 60.612-7 120.82-5.13 179.052 4.73 148.06 8.06 255.64-154.47 286.71-4.96-38.41-16.09-76.29-38.06-115.17-4.74-8.44-15.44-11.41-23.87-6.64-8.43 4.75-11.41 15.45-6.64 23.87 45.34 80.29 39.27 155.84 31.58 251.5-.96 11.73-1.92 23.74-2.82 36.05-2.89 39.86 6.37 79.3 16.19 121.05 14.66 62.36 29.82 126.85 8.4 204.14-51.93 187.6-311.67 181.36-314.84 181.19h-187.78l-188.37.01c-2.62.11-262.23 6.71-314.247-181.2-21.418-77.31-6.259-141.78 8.398-204.15zm1127.149 472.52c-6.03.85-12.13 1.45-18.33 1.55-7.3.13-14.44-.44-21.47-1.38-24.97-3.32-47.71-13.15-65.69-27.87-9.73-7.96-17.91-17.37-24.34-27.96-1.52-2.49-3.21-4.86-4.52-7.48-23.5-47.28-13.16-82.58-1.26-103.19 4.18 8.91 10.29 17.01 18.83 23.69 3.2 2.49 7.01 3.71 10.78 3.71 5.21 0 10.37-2.32 13.83-6.73 5.95-7.63 4.61-18.65-3.02-24.61-.18-.14-.31-.31-.49-.45-20.84-17.04-10.15-54.21 5.8-74.76 8.92-11.5 23.51-19.34 39.01-20.97 10.96-1.15 18.19 1.25 20.41 3.13.37.31.82.39 1.2.66 5.35 3.84 12.14 4.42 17.78 1.68 2.13-1.03 4.1-2.46 5.73-4.38 3.09-3.66 4.41-8.21 4.08-12.63-.34-4.52-2.39-8.91-6.12-12.08-6.48-5.48-15.38-8.87-25.42-10.49 14.84-12.41 34.85-18.83 56.08-20.01 12.7-.71 25.79.43 38.52 3.37 9.48 2.19 18.74 5.3 27.42 9.37 10.18 4.78 19.03 10.3 26.68 16.43 10.44 8.35 18.47 17.9 24.69 28.2 26.05 43.11 17.77 100.4-4.27 148.54-30.13 65.83-79 106.65-135.91 114.66zm572.91-845.87c-5.88-10.7-15.15-17.94-26.79-20.9-3.65-.93-7.3-1.4-10.83-1.4-25.79 0-39.23 24.23-44.98 34.57l-51.95 93.75c-7.83 14.1-15.97 22.19-22.34 22.19-1.79 0-3.87-.54-6.17-1.61-3.61-1.69-4.69-3.66-5.34-5.53-3.02-8.78 2.44-24.35 5.5-30.4.54-1.03 53.15-102.35 63.54-121.09 7.28-13.13 9.1-26.96 5.29-39.98-6.78-23.05-28.6-35.36-30.69-36.47-1.58-.91-15.92-8.81-33.28-8.81-19.41 0-35.52 9.8-45.39 27.58-10.39 18.73-68.42 117.06-68.93 117.94-5.37 8.86-17.06 21.13-25.04 21.13-1.09 0-2.85-.18-5.42-1.85-4.08-2.64-12.59-8.15 2.34-35.07l51.97-93.75c6.29-11.36 23.03-41.51-1.45-64.9-8.02-7.67-18.14-11.71-29.27-11.71-24.37 0-52.25 19.19-85.25 58.69-29.29 35.06-78.46 122.03-85.82 173.22-12.32 85.7 39.48 142.67 64.52 164.74l-144.2 250.17c-50.58-3.92-101.67 14.24-124.86 61.17-2.56 1.09-5.06 2.3-7.49 3.61 12.5-72.24-2.1-134.34-15.17-189.95-9.18-39.07-17.86-75.97-15.34-110.49.89-12.22 1.84-24.13 2.78-35.78 3.42-42.43 6.61-82.34 4.99-121.27 195.65-35.66 191.3-175.21 186.57-322.94-1.81-56.686-3.69-115.305 4.77-172.812 30.57-207.873-14.69-326.101-138.35-361.431-.47-.135-.95-.257-1.42-.342-64.17-12.739-122.63-.159-173.78 37.286-133.63 97.791-177.85 336.604-188.11 406.05-52.56-19.508-121.52-33.993-210.2-32.783-.01 0-.01-.002-.02-.002-.08-.001-.16.002-.24.001-.07.001-.15-.002-.22-.001-.01 0-.01.002-.02.002-88.62-1.24-157.61 13.258-210.2 32.782-10.26-69.447-54.48-308.258-188.11-406.049-51.148-37.433-109.632-50-173.776-37.286-.477.085-.954.207-1.418.342-123.668 35.33-168.925 153.558-138.351 361.431 8.46 57.507 6.577 116.126 4.768 172.812-4.729 147.73-9.079 287.28 186.563 322.94-1.618 38.91 1.574 78.79 4.978 121.19.941 11.67 1.895 23.61 2.787 35.86 2.519 34.52-6.161 71.42-15.342 110.49-12.976 55.24-27.434 116.91-15.363 188.54-1.569-.77-3.117-1.59-4.734-2.28-28.648-57.97-99.909-72.17-160.116-54.88-29.305-50.2-49.307-85.46-52.098-92.79-2.201-5.77 10.012-25.17 17.31-36.77 16.956-26.95 38.069-60.5 20.306-92.54-11.785-21.27-251.486-399.1-298.069-464.21-24.353-34.03-65.606-54.351-110.355-54.351-23.772 0-46.712 6.091-64.603 17.151-13.026 8.06-21.541 19.38-24.628 32.74-5.317 23.04 7.177 43.75 8.112 45.18l404.153 729.07c-19.034 41.27-21.277 96.6 10.28 165.53 34.115 74.52 89.808 121.88 155.615 133.73l37.442 67.54c8.117 12.91 22.433 20.02 40.318 20.02 14.988 0 32.31-5.21 46.345-13.94 41.565-25.84 41.381-61.97 35.477-77.47-.379-.98-.832-1.92-1.382-2.81-5.568-9.23-11.314-18.76-17.152-28.45 15.324-12.76 28.009-28.28 36.871-46.1 1.749-3.52 3.161-6.95 4.623-10.39 7.263 14.87 17.144 31.22 30.939 49.03 79.84 103.11 246.24 204.03 494.55 299.93 2.04.8 4.18 1.19 6.32 1.19 2.74 0 5.48-.65 7.98-1.93 2.07-1.06 51.01-26.41 85.39-73.01l-.02-.01c6.99-9.59 14.52-35.09 19.23-58.72 113.04-51.78 235.48-120.65 277.84-217.17 1.55 3.69 3.08 7.38 4.96 11.15 4.55 9.15 10.12 17.67 16.5 25.56l-28.71 49.81c-.55.94-1 1.94-1.36 2.97-13.61 38.93 19.85 64.9 41.1 74.06 6.03 4.06 24.04 14.89 44.32 14.89 16.06 0 29.92-6.7 40.09-19.38.69-.85 1.29-1.76 1.8-2.72l32.51-61.04c.57 0 1.15 0 1.72-.01 78.74-1.26 146.38-51.07 185.56-136.65 40.49-88.44 25.54-154.63-9.46-197.21l133.34-250.36c13.41 3.96 34.56 8.66 59.44 8.66 43.54 0 82.05-13.87 114.45-41.22 39.5-33.36 87.2-121.14 101.42-164.55 15.44-47.21 17.38-80.29 5.93-101.13z"/><path d="m2419.33 1447.32c-29.75 9.8-49.99.35-51.21-.24-8.51-4.39-19.04-1.1-23.51 7.42-4.51 8.56-1.24 19.16 7.33 23.67.93.5 16.67 8.57 41.15 8.57 10.86 0 23.44-1.59 37.21-6.14 9.2-3.03 14.19-12.93 11.15-22.13-3.03-9.19-12.95-14.24-22.12-11.15"/></g><path d="m1204.54 2142.5c-26.57 0-48.75 17.77-55.98 41.99 28.23 18.4 60.86 37.57 98.17 57.34 10.16-10.55 16.49-24.84 16.49-40.65 0-32.41-26.27-58.68-58.68-58.68" fill="#fffffe"/><path d="m1196.19 2076.25c25.49 0 46.97-16.35 55.07-39.06h-34.62c-.37.01-2.55.08-6.25.08-11.48 0-37.71-.68-70.96-5.53 6.36 25.52 29.27 44.51 56.76 44.51" fill="#fffffe"/><path d="m1392.31 2063.21c-32.4 0-58.68 26.28-58.68 58.68 0 32.41 26.28 58.68 58.68 58.68 32.41 0 58.68-26.27 58.68-58.68 0-32.4-26.27-58.68-58.68-58.68" fill="#fffffe"/><path d="m1596.78 2076.25c26.7 0 48.98-17.94 56.09-42.34-25.31 2.9-44.95 3.36-54.67 3.36-3.83 0-6.11-.08-6.6-.09h-49.89c8.1 22.72 29.58 39.07 55.07 39.07" fill="#fffffe"/><path d="m1713.36 2109.38c0 9.66 2.56 18.64 6.7 26.68 36.5-24.73 65.08-49.53 85.64-74.64-9.54-6.71-21.11-10.72-33.66-10.72-32.41 0-58.68 26.27-58.68 58.68" fill="#fffffe"/><path d="m1588.43 2142.5c-32.4 0-58.67 26.27-58.67 58.68 0 19.03 9.2 35.77 23.25 46.49 1.02-4.66 2.03-9.57 2.96-15.02.98-5.74 4.75-10.62 10.05-13.01 28.11-12.72 53.75-25.38 77.51-38.01-8.09-22.75-29.58-39.13-55.1-39.13" fill="#fffffe"/><path d="m1417.35 2259.34c-25.28 0-46.64 16.07-54.89 38.49 33.19 14.75 69.03 29.75 107.91 44.97 3.53-7.55 5.66-15.89 5.66-24.78 0-32.41-26.27-58.68-58.68-58.68" fill="#fffffe"/><path d="m1008.42 2025.66c-8.57 0-16.65 1.93-23.987 5.23 14.159 24.02 36.837 52.72 73.247 85.15 5.9-9.15 9.42-20 9.42-31.7 0-32.41-26.28-58.68-58.68-58.68" fill="#fffffe"/></g></svg>