<svg height="1867" viewBox="0 0 1271 1867" width="1271" xmlns="http://www.w3.org/2000/svg"><g fill="none" fill-rule="evenodd" transform="translate(-1440 -480)"><path d="m.06 2800h2799.94v-2799.96h-2799.94z"/><path d="m2208.41 2149.45c-18.13 27.21-51.09 28.99-59.4 28.99-1.05 0-1.7-.03-1.88-.04-6.02-.3-10.65-5.42-10.35-11.43.3-6 5.27-10.5 11.4-10.35.43-.01 28.64.91 42.09-19.26 3.34-5.01 10.11-6.37 15.12-3.03s6.36 10.11 3.02 15.12zm16.61-12.48c-4.18.6-8.24-1.21-10.58-4.66-26.41-38.82-70.02-172.26-65.54-212.3 7.48-66.98 2.64-107.71 2.59-108.11-.74-5.97 3.51-11.42 9.48-12.16 5.95-.68 11.41 3.49 12.16 9.46.22 1.75 5.24 43.42-2.57 113.24-.48 4.32-.09 10.69.98 18.51 131.59-12.33 256.39-101.98 326.46-234.94 44.74-84.89 33.35-207.16 22.02-274.72-11.29 2.71-19.64 3.04-21.82 3.07-3.04.23-6.09.34-9.07.34-1.43 0-2.81-.07-4.21-.12-16.96 59.31-63.83 70.66-109.25 81.53-30.39 7.27-61.81 14.78-89.19 35.72-55.73 42.61-98.32 55.11-129.1 55.11-25.13 0-42.31-8.31-52.41-15.38-24.9 10.75-48.18 13.7-66.03 13.7-29.49 0-59.25-7.96-81.66-21.82-43.76-27.1-67.42-65.53-66.63-108.22.05-2.51.19-5.01.41-7.5-11.35-10.2-23.26-28.74-35.86-48.39-12.03-18.77-24.47-38.18-36.6-50.68-15.86-16.35-28.71-33.89-38.66-52.51-12.61 14.58-35.88 52.35-27.48 126.77.67 5.98-3.63 11.37-9.61 12.05-.42.05-.83.07-1.24.07-5.47 0-10.19-4.11-10.82-9.68-1.86-16.5-2.24-31.4-1.58-44.9-11.45 10.73-23.25 20.27-37.44 31.72-18.95 15.29-42.54 34.32-75.84 64.78-90.33 82.64-97.84 294.56-71.83 382.42 15.88 53.61 53.96 87.61 113.18 101.07 45.5 10.32 87 4.14 87.41 4.07 5.98-.91 11.52 3.16 12.44 9.1.92 5.95-3.14 11.52-9.09 12.45-.48.07-13.53 1.98-33.23 1.98-16.83 0-38.53-1.4-61.42-6.52 14.06 31.34 29.5 58.01 53.42 82.61 16.09 16.55 37.68 14.03 48.19 11.45-.27-3.12-1.27-7.31-4.1-11.85-3.2-5.11-1.64-11.83 3.46-15.02 5.11-3.19 11.83-1.64 15.02 3.47 5.52 8.82 7.21 17.14 7.47 23.44 7.13 1.37 15.5 1.61 22.33-1.11 8.17-3.24 9.97-7.55 10.32-8.75-.24-13.44-6.25-31.73-6.31-31.92-1.9-5.71 1.19-11.88 6.9-13.79 5.71-1.89 11.88 1.19 13.79 6.9.2.62 3.6 10.9 5.73 22.79 4.87-5.11 8.83-14.37 5.91-31.27-4.06-23.44-25.81-39.8-34.24-45.34-12.97 6.34-24.44 6.98-25.16 7.01-.16.01-.32.01-.49.01-5.8 0-10.62-4.57-10.88-10.42-.27-6.01 4.4-11.1 10.41-11.37.11-.01 18.16-1.19 30.21-15.22 9.34-10.88 13.07-26.96 11.09-47.78-8.15-85.53-128.46-140.38-129.67-140.92-5.49-2.46-7.95-8.91-5.49-14.41s8.92-7.95 14.41-5.49c5.43 2.43 133.12 60.72 142.46 158.76 1.18 12.43.57 23.66-1.65 33.73 20.05 1.42 49.36 5.28 66.99 7.75-7.08-21.42-13.23-43.41-17.97-65.74-1.25-5.89 2.51-11.68 8.4-12.93 5.89-1.28 11.68 2.51 12.93 8.4 35.24 166.14 153.48 319.56 154.68 321.1.55.7 1.01 1.49 1.38 2.31 8.67 19.79 27.89 53.54 42.53 59.81 33.97 14.56 49.72 8.22 55.73 3.76-3.83-9.74-11.81-20.74-15.07-24.73-3.81-4.66-3.12-11.53 1.54-15.34s11.52-3.13 15.34 1.53c1.51 1.84 13.12 16.33 18.85 31.48 36.62 4.41 62.99-4.84 75.53-26.35-4.36-28.09-22.32-39.17-23.08-39.63-5.13-3.08-6.87-9.74-3.84-14.9s9.61-6.94 14.79-3.96c.86.49 16.46 9.73 26.51 31.27 3.95-8.69 5.47-18.57-1.39-33.67-19.43-42.74-45.1-40.25-45.35-40.22z" fill="#fffffe"/><path d="m2402.58 1327.44c-9.99 0-18.08-8.1-18.08-18.09s8.09-18.08 18.08-18.08 18.08 8.09 18.08 18.08-8.09 18.09-18.08 18.09zm-3.88-105.93c9.99 0 18.09 8.1 18.09 18.09 0 9.98-8.1 18.08-18.09 18.08-9.98 0-18.08-8.1-18.08-18.08 0-9.99 8.1-18.09 18.08-18.09zm-68.46 85.69c-9.99 0-18.08-8.1-18.08-18.09 0-9.98 8.09-18.08 18.08-18.08s18.09 8.1 18.09 18.08c0 9.99-8.1 18.09-18.09 18.09zm-3.44-99.9c9.98 0 18.08 8.1 18.08 18.09s-8.1 18.08-18.08 18.08c-9.99 0-18.09-8.09-18.09-18.08s8.1-18.09 18.09-18.09zm-150.71 188.6c0 9.99-8.1 18.09-18.09 18.09-9.98 0-18.08-8.1-18.08-18.09s8.1-18.08 18.08-18.08c9.99 0 18.09 8.09 18.09 18.08zm23.25-85.26c9.99 0 18.09 8.1 18.09 18.09s-8.1 18.08-18.09 18.08-18.08-8.09-18.08-18.08 8.09-18.09 18.08-18.09zm-82.67-20.66c0-9.99 8.1-18.09 18.08-18.09 9.99 0 18.09 8.1 18.09 18.09 0 9.98-8.1 18.08-18.09 18.08-9.98 0-18.08-8.1-18.08-18.08zm-15.5 79.22c-9.99 0-18.09-8.09-18.09-18.08s8.1-18.08 18.09-18.08 18.08 8.09 18.08 18.08-8.09 18.08-18.08 18.08zm471.39-144.69c-19.01-19.9-46.9-22.05-58.01-22.05-3.13 0-5.07.17-5.32.19-7.09.62-14.17.93-21.2.93-18.22 0-41.27-2.06-65.17-9.33-17.41-5.3-35.28-13.35-52.07-25.47l-2.27-1.65c-38.34-27.69-68.62-49.56-113.82-49.56-25.45 0-54.42 7-88.58 21.41-.91.35-42.28 16.15-71.17 56.57-9.88 13.83-18.32 30.52-23.16 50.49-23.72 97.83-54.34 114.95-96.72 138.64-3 1.68-6.08 3.4-9.24 5.2-31.79 18.07-52.75 51.73-53.38 85.75-.65 34.68 19.35 66.39 56.31 89.26 19.05 11.8 44.63 18.56 70.18 18.56 43.42 0 123.4-20.14 171.22-155.02 9.46-26.69 20.63-43.19 29.6-56.46 13.95-20.63 21.64-32 12.42-67.53v-.01c0-.01 0-.02-.01-.03-.26-1.01-.32-2.02-.3-3.01-7.67-26.08-17.86-51.16-22.25-61.56-1.07.05-2.14.11-3.28.11-20.4 0-65.89-9.95-68.15-39.5-.14-1.77-.06-3.47.12-5.14 2.97-27.87 46.99-43.14 52.3-44.87.22-.07.45-.14.68-.2 11.17-2.86 19.29-4.14 26.33-4.14 16.19 0 27.44 7.08 33.43 21.05 3.92 9.12 2.81 19.42.62 27.71-1.01 3.83-2.23 7.28-3.33 9.91-3.88 9.29-10.8 20.74-19.34 27.83 4.75 11.26 14.85 36.27 22.68 62.88.69 1.01 1.26 2.13 1.58 3.39.48 1.81 12.07 43.93 57.46 47.42 33.98 2.61 58.32 19.25 81.87 35.34 25.47 17.4 49.3 33.72 84.29 30.97.32-.03.65-.03.95-.03 3.62 0 89.72-1.34 95.02-117.91 1.41-30.99-5.42-54.59-20.29-70.14z" fill="#b3b5b2"/><g fill="#fffffe"><path d="m2370.59 1494.9c43.6-10.43 78.34-18.86 92.46-63.24-24.39-5.81-43.82-19.09-62.77-32.04-22.15-15.14-43.07-29.43-71.23-31.6-23.73-1.83-40.56-11.58-52.29-22.93-2.88 15.35-10.41 26.48-18.94 39.1-8.71 12.87-18.57 27.46-27.11 51.52-27.57 77.77-65.69 120.64-102.79 143.81 23.2 9.99 69.1 13.27 145.32-45.02 31.04-23.74 66.28-32.16 97.35-39.6"/><path d="m2220.36 777.954c14.09 1.279 27.46 3.316 40.25 5.895-11.88-43.271-37.35-150.292-11.95-193.734 6.18-10.559 14.87-17.133 25.85-19.54 51.07-11.203 68.36 39.554 83.61 84.322 8.78 25.764 17.86 52.403 32.42 71.227 20.47 26.474 68.43 88.474 35.6 143.179-.12.193-.29.33-.41.514 9.94 9.636 18.47 19.127 25.71 27.987 30.82-24.448 19.16-87.447 6.75-122.158-7.58-21.225-18.77-37.148-31.74-55.583-19.36-27.544-41.32-58.761-56.37-115.819-10.52-39.836-37.92-70.816-69.81-78.921-23.41-5.955-46.19 1.267-64.14 20.322-23.71 25.151-33.81 74.013-29.22 141.298 2.77 40.513 10.17 76.528 13.45 91.011"/><path d="m2541.26 1907.17c-16.05 26.19-45.4 28.3-46.75 28.38-.22.01-.44.02-.65.02-5.73 0-10.53-4.47-10.88-10.26-.35-5.99 4.21-11.14 10.18-11.52 1.09-.09 21.55-1.94 31.11-20.88-.23-16.39-1.66-108.86-5.8-179.1-.4.78-.77 1.59-1.18 2.37-29.69 56.32-68.85 105.23-114.12 144.4.54 4.93 4.19 36.37 13.4 71.67 10.01 38.36 19.32 58.78 32.12 70.48.37.35.72.71 1.05 1.11 11.03 13.35 28.17 16.24 37.4 16.77 6.41.38 11.93-.18 16.15-1.07-3.17-11.89-12.05-19.72-12.15-19.8-4.56-3.9-5.14-10.76-1.27-15.34 3.87-4.59 10.68-5.2 15.28-1.37.58.48 12.56 10.64 18.2 27.33 2.56.21 13.18.81 24.11-2.65 14.44-4.58 23.02-14.07 26.33-28.82-4.22-10.31-13.72-14.98-13.83-15.02-5.41-2.54-7.83-8.99-5.35-14.43s8.84-7.88 14.3-5.46c.57.25 9.9 4.51 17.79 14.22 3.47-8.1 4.13-20.03-7.87-34.85-7.62-9.42-26.13-14.26-37.57-16.18"/><path d="m1570.42 892.806c3.15-6.021 15.01-23.509 46.34-23.509 6.33 0 13.19.73 20.38 2.172 49.27 9.88 107.58 60.135 134.75 130.521 1.72 4.46 3.33 8.99 4.79 13.61 1.61 5.11 3.05 10.31 4.32 15.6 1.57 6.52 2.89 13.15 3.89 19.92.09.57.12 1.15.12 1.72-.36 28.37-13.78 42.95-23.58 53.6-1.17 1.27-2.21 2.41-3.17 3.5-3.95 4.47-6.16 7.65-6.2 11.04-.12 11.18-2.11 25.81-7.31 38.85-2.52 6.31-5.84 12.18-10.01 17.17-6.92 8.29-16.28 14.03-28.87 14.5-.98.04-1.95.06-2.89.06-44.23 0-54.7-37.12-66.83-80.09-4.15-14.71-8.85-31.37-15.27-48.02-8.59-22.27-19.87-42.6-30.79-62.26-23.26-41.901-43.38-78.146-19.67-108.384zm324.84 263.574c7.77-5.82 16.12-8.78 24.84-8.78 28.57 0 50.94 31.93 60.6 48.4 2.6 4.45 4.34 7.83 4.95 9.08 7.39 14.29 5.73 33.02-4.54 49.9-11.56 18.99-30.89 31.27-49.24 31.27l-1.06-.01c-22.07-.56-41.05-28.72-49.33-54.66-4.02-12.58-5.72-24.47-5.22-35.17.79-17.14 7.24-31.21 19-40.03zm184.28-62.99c1.58-1.47 39.43-35.99 109.1-46.71 5.89-.95 11.51 3.17 12.43 9.12s-3.17 11.52-9.12 12.43c-63.12 9.72-97.24 40.82-97.58 41.14-2.1 1.95-4.76 2.91-7.41 2.91-2.93 0-5.84-1.17-7.99-3.48-4.1-4.42-3.84-11.31.57-15.41zm311.97-111.976c2.84-.751 5.76-1.131 8.66-1.131 23.94 0 42.79 25.117 52.45 48.617 8.86 21.55 14.01 51.86-.63 66.35-8.35 8.26-20.32 12.62-34.61 12.62-22.79 0-50.64-11.92-55.89-31.18-7.78-30.51-10.14-84.674 30.02-95.276zm-787.99 132.636c14.76 50.94 26.42 91.18 67.58 113.84 21.11 11.62 58.59 7.94 83.55-8.21.16-.11.34-.16.5-.26-.1-4.84-.05-9.73.14-14.67.06-1.35.05-2.69.13-4.05s.43-2.64.98-3.81c.49-1.07 1.18-2.01 1.99-2.83 2.01-2.07 4.83-3.31 7.92-3.1 1.33.07 2.57.41 3.71.93 2.2 1.01 3.94 2.76 4.99 4.92.73 1.53 1.14 3.23 1.04 5.04-.36 6.49-.4 12.84-.24 19.11 1.38 51.06 20.3 94.84 57.63 133.3 11.89 12.26 23.36 29.36 34.48 46.61 1.57 2.44 3.13 4.88 4.68 7.31 8.31 12.96 16.28 25.34 23.5 34.49 9.36-29.43 30.26-55.44 58.95-71.75 3.21-1.82 6.33-3.57 9.38-5.27 40.35-22.56 64.7-36.17 86.17-124.75 4.16-17.16 10.54-32.17 18.15-45.25 32.2-55.39 86.56-75.92 89.38-76.95 36.4-15.37 68.15-22.94 96.57-22.94 52.25 0 86.7 24.89 126.58 53.7l2.28 1.64c35.11 25.35 76.19 30.67 104.47 30.67 6.41 0 12.85-.28 19.18-.83.13-.01 2.89-.28 7.34-.28 4.74 0 11.96.35 20.36 1.8-3.64-9.96-9.12-27.01-15.07-52.8l-.65-2.84c-26.26-114.55-51.69-168.361-68.4-193.337-35.36-52.844-141.73-170.803-365.08-124.991-138.57 28.425-224.35 111.095-266.73 164.199 3.9 7.088 7.43 14.107 10.53 20.983 2.48 5.486.04 11.946-5.45 14.426-2.35 1.06-4.86 1.17-7.18.57-3.09-.79-5.82-2.89-7.24-6.03-1.64-3.619-3.44-7.126-5.2-10.661-1.83-3.685-3.72-7.32-5.68-10.906-1.9-3.474-3.78-6.966-5.79-10.343-43.05-72.394-110.12-122.275-157.82-134.385-31.02-7.871-58.46-2.981-81.55 14.549-48.09 36.512-25.76 99.292-7.24 127.39 31.79 48.226 45.27 94.736 57.16 135.766z"/></g><path d="m2390.54 726.123c-14.56-18.824-23.64-45.463-32.42-71.226-15.25-44.768-32.54-95.526-83.61-84.322-10.98 2.406-19.67 8.981-25.85 19.54-25.4 43.442.07 150.462 11.95 193.734 8.35 1.682 16.48 3.567 24.3 5.728 52.94 14.634 93.74 39.503 124.21 65.229 5.91 4.996 11.46 10.022 16.61 15.01.12-.184.29-.319.41-.514 32.83-54.704-15.13-116.705-35.6-143.179" fill="#ccbbb5"/><path d="m1781 1031.2c-1.27-5.28-2.71-10.49-4.32-15.6-1.46-4.62-3.07-9.15-4.79-13.61-27.17-70.386-85.48-120.641-134.75-130.521-7.19-1.443-14.05-2.172-20.38-2.172-31.33 0-43.19 17.488-46.34 23.509-23.71 30.237-3.59 66.483 19.67 108.374 10.92 19.67 22.2 40 30.79 62.27 6.42 16.65 11.12 33.31 15.27 48.01 12.13 42.98 22.6 80.1 66.83 80.1.94 0 1.91-.02 2.89-.06 12.59-.47 21.95-6.21 28.87-14.5 4.17-4.99 7.49-10.87 10.01-17.17 5.2-13.04 7.19-27.68 7.31-38.85.04-3.39 2.25-6.57 6.2-11.04.96-1.09 2-2.23 3.17-3.5 9.8-10.65 23.22-25.23 23.58-53.6 0-.57-.03-1.15-.12-1.72-1-6.77-2.32-13.4-3.89-19.92" fill="#ccbbb5"/><path d="m1922.08 1198.03c4.61 9.66 13.82 14.88 20.58 11.66 4.47-2.13 6.69-7.43 6.4-13.57-.16-3.14-.93-6.48-2.49-9.76-.23-.47-.52-.89-.77-1.35-3-5.48-7.46-9.33-11.99-10.68-2.71-.8-5.42-.77-7.82.38-6.35 3.02-8.2 12.4-4.62 21.52.24.6.43 1.21.71 1.8" fill="#fffffe"/><path d="m2420.61 1037.27c3.78-1.13 6.46-4.48 7.73-8.88 1.15-3.94 1.17-8.71-.28-13.56-3.06-10.26-11.36-16.835-18.53-14.69-1.76.52-3.29 1.53-4.55 2.9-3.88 4.19-5.22 11.8-2.91 19.54 3.06 10.26 11.36 16.83 18.54 14.69" fill="#fffffe"/><path d="m2250 1166.67c-1.53-5.09-9.42-7.22-17.62-4.76-5.46 1.64-9.63 4.91-11.38 8.42-.88 1.75-1.2 3.56-.69 5.26 1.53 5.1 9.42 7.23 17.62 4.77 5.25-1.58 9.33-4.67 11.2-8.02 1.05-1.88 1.42-3.84.87-5.67" fill="#fffffe"/><g fill="#1b1a19"><path d="m1945.8 1185.01c.25.46.54.88.77 1.35 1.56 3.28 2.33 6.62 2.49 9.76.29 6.14-1.93 11.44-6.4 13.57-6.76 3.22-15.97-2-20.58-11.66-.28-.59-.47-1.2-.71-1.8-3.58-9.12-1.73-18.5 4.62-21.52 2.4-1.15 5.11-1.18 7.82-.38 4.53 1.35 8.99 5.2 11.99 10.68zm-13.93 101.24c18.35 0 37.68-12.28 49.24-31.27 10.27-16.88 11.93-35.61 4.54-49.9-.61-1.25-2.35-4.63-4.95-9.08-9.66-16.47-32.03-48.4-60.6-48.4-8.72 0-17.07 2.96-24.84 8.78-11.76 8.82-18.21 22.89-19 40.03-.5 10.7 1.2 22.59 5.22 35.17 8.28 25.94 27.26 54.1 49.33 54.66z"/><path d="m2409.53 1000.14c7.17-2.145 15.47 4.43 18.53 14.69 1.45 4.85 1.43 9.62.28 13.56-1.27 4.4-3.95 7.75-7.73 8.88-7.18 2.14-15.48-4.43-18.54-14.69-2.31-7.74-.97-15.35 2.91-19.54 1.26-1.37 2.79-2.38 4.55-2.9zm7.85 107.73c14.29 0 26.26-4.36 34.61-12.62 14.64-14.49 9.49-44.8.63-66.35-9.66-23.5-28.51-48.617-52.45-48.617-2.9 0-5.82.38-8.66 1.131-40.16 10.602-37.8 64.766-30.02 95.276 5.25 19.26 33.1 31.18 55.89 31.18z"/><path d="m2152.84 1289.98c0-9.99-8.1-18.09-18.09-18.09-9.98 0-18.08 8.1-18.08 18.09 0 9.98 8.1 18.08 18.08 18.08 9.99 0 18.09-8.1 18.09-18.08"/><path d="m2326.8 1243.47c9.98 0 18.08-8.09 18.08-18.08s-8.1-18.09-18.08-18.09c-9.99 0-18.09 8.1-18.09 18.09s8.1 18.08 18.09 18.08"/><path d="m2398.7 1257.68c9.99 0 18.09-8.1 18.09-18.08 0-9.99-8.1-18.09-18.09-18.09-9.98 0-18.08 8.1-18.08 18.09 0 9.98 8.1 18.08 18.08 18.08"/><path d="m2330.24 1271.03c-9.99 0-18.08 8.1-18.08 18.08 0 9.99 8.09 18.09 18.08 18.09s18.09-8.1 18.09-18.09c0-9.98-8.1-18.08-18.09-18.08"/><path d="m2402.58 1291.27c-9.99 0-18.08 8.09-18.08 18.08s8.09 18.09 18.08 18.09 18.08-8.1 18.08-18.09-8.09-18.08-18.08-18.08"/><path d="m2199.34 1346.81c9.99 0 18.09-8.09 18.09-18.08s-8.1-18.09-18.09-18.09-18.08 8.1-18.08 18.09 8.09 18.08 18.08 18.08"/><path d="m2101.17 1333.04c-9.99 0-18.09 8.09-18.09 18.08s8.1 18.08 18.09 18.08 18.08-8.09 18.08-18.08-8.09-18.08-18.08-18.08"/><path d="m2139.92 1395.9c0 9.99 8.1 18.09 18.08 18.09 9.99 0 18.09-8.1 18.09-18.09s-8.1-18.08-18.09-18.08c-9.98 0-18.08 8.09-18.08 18.08"/><path d="m2148.18 2156.62c-6.13-.15-11.1 4.35-11.4 10.35-.3 6.01 4.33 11.13 10.35 11.43.18.01.83.04 1.88.04 8.31 0 41.27-1.78 59.4-28.99 3.34-5.01 1.99-11.78-3.02-15.12s-11.78-1.98-15.12 3.03c-13.45 20.17-41.66 19.25-42.09 19.26"/><path d="m2249.13 1172.34c-1.87 3.35-5.95 6.44-11.2 8.02-8.2 2.46-16.09.33-17.62-4.77-.51-1.7-.19-3.51.69-5.26 1.75-3.51 5.92-6.78 11.38-8.42 8.2-2.46 16.09-.33 17.62 4.76.55 1.83.18 3.79-.87 5.67zm248.7 240.22c-.3 0-.63 0-.95.03-34.99 2.75-58.82-13.57-84.29-30.97-23.55-16.09-47.89-32.73-81.87-35.34-45.39-3.49-56.98-45.61-57.46-47.42-.32-1.26-.89-2.38-1.58-3.39-7.83-26.61-17.93-51.62-22.68-62.88 8.54-7.09 15.46-18.54 19.34-27.83 1.1-2.63 2.32-6.08 3.33-9.91 2.19-8.29 3.3-18.59-.62-27.71-5.99-13.97-17.24-21.05-33.43-21.05-7.04 0-15.16 1.28-26.33 4.14-.23.06-.46.13-.68.2-5.31 1.73-49.33 17-52.3 44.87-.18 1.67-.26 3.37-.12 5.14 2.26 29.55 47.75 39.5 68.15 39.5 1.14 0 2.21-.06 3.28-.11 4.39 10.4 14.58 35.48 22.25 61.56-.02.99.04 2 .3 3.01.01.01.01.02.01.03v.01c9.22 35.53 1.53 46.9-12.42 67.53-8.97 13.27-20.14 29.77-29.6 56.46-47.82 134.88-127.8 155.02-171.22 155.02-25.55 0-51.13-6.76-70.18-18.56-36.96-22.87-56.96-54.58-56.31-89.26.63-34.02 21.59-67.68 53.38-85.75 3.16-1.8 6.24-3.52 9.24-5.2 42.38-23.69 73-40.81 96.72-138.64 4.84-19.97 13.28-36.66 23.16-50.49 28.89-40.42 70.26-56.22 71.17-56.57 34.16-14.41 63.13-21.41 88.58-21.41 45.2 0 75.48 21.87 113.82 49.56l2.27 1.65c16.79 12.12 34.66 20.17 52.07 25.47 23.9 7.27 46.95 9.33 65.17 9.33 7.03 0 14.11-.31 21.2-.93.25-.02 2.19-.19 5.32-.19 11.11 0 39 2.15 58.01 22.05 14.87 15.55 21.7 39.15 20.29 70.14-5.3 116.57-91.4 117.91-95.02 117.91zm-240.01-28.37c8.53-12.62 16.06-23.75 18.94-39.1 11.73 11.35 28.56 21.1 52.29 22.93 28.16 2.17 49.08 16.46 71.23 31.6 18.95 12.95 38.38 26.23 62.77 32.04-14.12 44.38-48.86 52.81-92.46 63.24-31.07 7.44-66.31 15.86-97.35 39.6-76.22 58.29-122.12 55.01-145.32 45.02 37.1-23.17 75.22-66.04 102.79-143.81 8.54-24.06 18.4-38.65 27.11-51.52zm240.18 321.82c-70.07 132.96-194.87 222.61-326.46 234.94-1.07-7.82-1.46-14.19-.98-18.51 7.81-69.82 2.79-111.49 2.57-113.24-.75-5.97-6.21-10.14-12.16-9.46-5.97.74-10.22 6.19-9.48 12.16.05.4 4.89 41.13-2.59 108.11-4.48 40.04 39.13 173.48 65.54 212.3 2.34 3.45 6.4 5.26 10.58 4.66.25-.03 25.92-2.52 45.35 40.22 6.86 15.1 5.34 24.98 1.39 33.67-10.05-21.54-25.65-30.78-26.51-31.27-5.18-2.98-11.76-1.2-14.79 3.96s-1.29 11.82 3.84 14.9c.76.46 18.72 11.54 23.08 39.63-12.54 21.51-38.91 30.76-75.53 26.35-5.73-15.15-17.34-29.64-18.85-31.48-3.82-4.66-10.68-5.34-15.34-1.53s-5.35 10.68-1.54 15.34c3.26 3.99 11.24 14.99 15.07 24.73-6.01 4.46-21.76 10.8-55.73-3.76-14.64-6.27-33.86-40.02-42.53-59.81-.37-.82-.83-1.61-1.38-2.31-1.2-1.54-119.44-154.96-154.68-321.1-1.25-5.89-7.04-9.68-12.93-8.4-5.89 1.25-9.65 7.04-8.4 12.93 4.74 22.33 10.89 44.32 17.97 65.74-17.63-2.47-46.94-6.33-66.99-7.75 2.22-10.07 2.83-21.3 1.65-33.73-9.34-98.04-137.03-156.33-142.46-158.76-5.49-2.46-11.95-.01-14.41 5.49s0 11.95 5.49 14.41c1.21.54 121.52 55.39 129.67 140.92 1.98 20.82-1.75 36.9-11.09 47.78-12.05 14.03-30.1 15.21-30.21 15.22-6.01.27-10.68 5.36-10.41 11.37.26 5.85 5.08 10.42 10.88 10.42.17 0 .33 0 .49-.01.72-.03 12.19-.67 25.16-7.01 8.43 5.54 30.18 21.9 34.24 45.34 2.92 16.9-1.04 26.16-5.91 31.27-2.13-11.89-5.53-22.17-5.73-22.79-1.91-5.71-8.08-8.79-13.79-6.9-5.71 1.91-8.8 8.08-6.9 13.79.06.19 6.07 18.48 6.31 31.92-.35 1.2-2.15 5.51-10.32 8.75-6.83 2.72-15.2 2.48-22.33 1.11-.26-6.3-1.95-14.62-7.47-23.44-3.19-5.11-9.91-6.66-15.02-3.47-5.1 3.19-6.66 9.91-3.46 15.02 2.83 4.54 3.83 8.73 4.1 11.85-10.51 2.58-32.1 5.1-48.19-11.45-23.92-24.6-39.36-51.27-53.42-82.61 22.89 5.12 44.59 6.52 61.42 6.52 19.7 0 32.75-1.91 33.23-1.98 5.95-.93 10.01-6.5 9.09-12.45-.92-5.94-6.46-10.01-12.44-9.1-.41.07-41.91 6.25-87.41-4.07-59.22-13.46-97.3-47.46-113.18-101.07-26.01-87.86-18.5-299.78 71.83-382.42 33.3-30.46 56.89-49.49 75.84-64.78 14.19-11.45 25.99-20.99 37.44-31.72-.66 13.5-.28 28.4 1.58 44.9.63 5.57 5.35 9.68 10.82 9.68.41 0 .82-.02 1.24-.07 5.98-.68 10.28-6.07 9.61-12.05-8.4-74.42 14.87-112.19 27.48-126.77 9.95 18.62 22.8 36.16 38.66 52.51 12.13 12.5 24.57 31.91 36.6 50.68 12.6 19.65 24.51 38.19 35.86 48.39-.22 2.49-.36 4.99-.41 7.5-.79 42.69 22.87 81.12 66.63 108.22 22.41 13.86 52.17 21.82 81.66 21.82 17.85 0 41.13-2.95 66.03-13.7 10.1 7.07 27.28 15.38 52.41 15.38 30.78 0 73.37-12.5 129.1-55.11 27.38-20.94 58.8-28.45 89.19-35.72 45.42-10.87 92.29-22.22 109.25-81.53 1.4.05 2.78.12 4.21.12 2.98 0 6.03-.11 9.07-.34 2.18-.03 10.53-.36 21.82-3.07 11.33 67.56 22.72 189.83-22.02 274.72zm26.27 186.9c-9.56 18.94-30.02 20.79-31.11 20.88-5.97.38-10.53 5.53-10.18 11.52.35 5.79 5.15 10.26 10.88 10.26.21 0 .43-.01.65-.02 1.35-.08 30.7-2.19 46.75-28.38 11.44 1.92 29.95 6.76 37.57 16.18 12 14.82 11.34 26.75 7.87 34.85-7.89-9.71-17.22-13.97-17.79-14.22-5.46-2.42-11.82.02-14.3 5.46s-.06 11.89 5.35 14.43c.11.04 9.61 4.71 13.83 15.02-3.31 14.75-11.89 24.24-26.33 28.82-10.93 3.46-21.55 2.86-24.11 2.65-5.64-16.69-17.62-26.85-18.2-27.33-4.6-3.83-11.41-3.22-15.28 1.37-3.87 4.58-3.29 11.44 1.27 15.34.1.08 8.98 7.91 12.15 19.8-4.22.89-9.74 1.45-16.15 1.07-9.23-.53-26.37-3.42-37.4-16.77-.33-.4-.68-.76-1.05-1.11-12.8-11.7-22.11-32.12-32.12-70.48-9.21-35.3-12.86-66.74-13.4-71.67 45.27-39.17 84.43-88.08 114.12-144.4.41-.78.78-1.59 1.18-2.37 4.14 70.24 5.57 162.71 5.8 179.1zm-317.36-1205.967c-4.59-67.285 5.51-116.147 29.22-141.298 17.95-19.055 40.73-26.277 64.14-20.322 31.89 8.105 59.29 39.085 69.81 78.921 15.05 57.058 37.01 88.275 56.37 115.819 12.97 18.435 24.16 34.358 31.74 55.583 12.41 34.711 24.07 97.71-6.75 122.158-7.24-8.86-15.77-18.351-25.71-27.987-5.15-4.99-10.7-10.014-16.61-15.01-30.47-25.727-71.27-50.596-124.21-65.23-7.82-2.16-15.95-4.045-24.3-5.728-12.79-2.579-26.16-4.616-40.25-5.895-3.28-14.483-10.68-50.498-13.45-91.011zm-310.81 755.727c-7.22-9.15-15.19-21.53-23.5-34.49-1.55-2.43-3.11-4.87-4.68-7.31-11.12-17.25-22.59-34.35-34.48-46.61-37.33-38.46-56.25-82.24-57.63-133.3-.16-6.27-.12-12.62.24-19.11.1-1.81-.31-3.51-1.04-5.04-1.05-2.16-2.79-3.91-4.99-4.92-1.14-.52-2.38-.86-3.71-.93-3.09-.21-5.91 1.03-7.92 3.1-.81.82-1.5 1.76-1.99 2.83-.55 1.17-.9 2.45-.98 3.81s-.07 2.7-.13 4.05c-.19 4.94-.24 9.83-.14 14.67-.16.1-.34.15-.5.26-24.96 16.15-62.44 19.83-83.55 8.21-41.16-22.66-52.82-62.9-67.58-113.84-11.89-41.03-25.37-87.54-57.16-135.766-18.52-28.098-40.85-90.878 7.24-127.39 23.09-17.53 50.53-22.42 81.55-14.549 47.7 12.11 114.77 61.991 157.82 134.385 2.01 3.377 3.89 6.869 5.79 10.343 1.96 3.586 3.85 7.221 5.68 10.906 1.76 3.535 3.56 7.042 5.2 10.661 1.42 3.14 4.15 5.24 7.24 6.03 2.32.6 4.83.49 7.18-.57 5.49-2.48 7.93-8.94 5.45-14.426-3.1-6.876-6.63-13.895-10.53-20.983 42.38-53.104 128.16-135.774 266.73-164.199 223.35-45.812 329.72 72.147 365.08 124.991 16.71 24.976 42.14 78.787 68.4 193.337l.65 2.84c5.95 25.79 11.43 42.84 15.07 52.8-8.4-1.45-15.62-1.8-20.36-1.8-4.45 0-7.21.27-7.34.28-6.33.55-12.77.83-19.18.83-28.28 0-69.36-5.32-104.47-30.67l-2.28-1.64c-39.88-28.81-74.33-53.7-126.58-53.7-28.42 0-60.17 7.57-96.57 22.94-2.82 1.03-57.18 21.56-89.38 76.95-7.61 13.08-13.99 28.09-18.15 45.25-21.47 88.58-45.82 102.19-86.17 124.75-3.05 1.7-6.17 3.45-9.38 5.27-28.69 16.31-49.59 42.32-58.95 71.75zm718.53-147.03c1.69-37.17-7.16-66.17-26.3-86.2-8.12-8.5-17.33-14.48-26.54-18.73-.12-.44-.23-.88-.42-1.31l-2.17-4.98c-.08-.17-8.38-17.48-18.11-59.66l-.65-2.82c-26.99-117.77-53.8-174.083-71.53-200.584-1.32-1.967-2.75-4.036-4.25-6.162 38.22-29.848 32-96.712 14.07-146.884-8.58-24.012-21.14-41.875-34.44-60.789-18.31-26.046-39.07-55.565-53.13-108.84-12.69-48.104-45.46-84.312-85.52-94.493-30.98-7.865-62.09 1.789-85.38 26.503-56.95 60.427-32.2 201.342-22.57 245.897-34.97-1.211-73.64 1.779-116.37 10.546-139.55 28.626-228.07 109.876-274.2 165.614-38.66-60.507-101.86-121.101-166.61-137.54-37.26-9.46-71.87-3.12-100.1 18.321-26.21 19.899-39.11 48.473-37.33 82.626 1.28 24.544 10.66 52.256 25.08 74.131 29.97 45.464 42.96 90.284 54.42 129.834 15.52 53.58 28.93 99.85 78 126.87 11.43 6.3 25.99 9.34 41.37 9.34 18.48 0 38.11-4.46 54.93-12.93 2.26 17.94 6.67 35.14 13.22 51.58-8.54 8.03-27.07 29.34-36.08 69.15-17.78 20.24-33.06 32.61-55.95 51.07-19.18 15.48-43.06 34.75-76.86 65.67-100.73 92.14-104.37 315.67-78.01 404.7 18.22 61.52 60.25 92.67 103.11 108.11.07.21.11.43.2.65 16.98 40.56 34.48 73.94 64.67 105.01 15.28 15.72 33.44 19.89 48.42 19.89 11.26 0 20.73-2.36 25.83-3.95 8.49 2.48 25.65 5.91 41.79-.5 13.29-5.27 19.26-13.33 21.93-19.41 5.75-2.19 13.86-6.63 20.19-15.42 8.28-11.52 10.86-26.72 7.66-45.19-4.61-26.65-24.29-45.47-37.16-55.2.6-.64 1.22-1.23 1.8-1.91 2.49-2.86 4.62-5.99 6.56-9.26 22.43.88 69.9 7.61 83.39 9.58 46.65 126.6 122.4 227.54 131.92 239.95 4.49 10.02 27.44 58.73 53.36 69.85 18.4 7.88 33.24 10.72 45.08 10.72 18.74 0 29.95-7.11 35.79-12.56 72.08 9.22 96.12-29 103.17-46.25.94-2.29 2.59-5.08 4.34-8.03 7.63-12.85 19.16-32.26 4.96-63.47-19.87-43.74-47.53-51.68-60.75-52.83-19.86-32.73-43.78-104.97-54.03-152.88 74.03-7.33 145.85-37.67 207.85-85.62 2.01 13.98 5.79 36.35 12.19 60.9 11.19 42.87 21.87 65.57 37.95 80.56 14.67 17.31 37.1 24.29 57.34 24.29 5.9-.01 11.61-.6 16.89-1.7 8.34-1.74 14.72-4.61 18.95-8.47 23.02.77 59.61-8.57 68.56-48.82 3.42-3.48 8.77-9.91 12.21-18.85 4.88-12.6 6.81-32.4-11.59-55.14-12.42-15.33-36.19-21.47-49.81-23.8-.52-33.45-2.69-147.74-8.52-211.88-.15-1.59-.64-3.07-1.39-4.38 25.62-85.49 14.95-186.89 4.88-245.33 0-.01-.01-.02-.01-.03 31.78-14.12 70.03-47.84 73.7-128.56z"/><path d="m2086.96 1112.28c2.65 0 5.31-.96 7.41-2.91.34-.32 34.46-31.42 97.58-41.14 5.95-.91 10.04-6.48 9.12-12.43s-6.54-10.07-12.43-9.12c-69.67 10.72-107.52 45.24-109.1 46.71-4.41 4.1-4.67 10.99-.57 15.41 2.15 2.31 5.06 3.48 7.99 3.48"/></g></g></svg>