<svg height="1985" viewBox="0 0 1528 1985" width="1528" xmlns="http://www.w3.org/2000/svg"><g fill="none" fill-rule="evenodd" transform="translate(40 -396)"><path d="m1076.92 2119.19c-3.63-2.59-5.44-7.05-4.64-11.44 19.21-105.16 20.13-250.85 20.14-252.3.03-6.36 5.2-11.49 11.56-11.46 6.42.02 11.48 5.21 11.45 11.56-.01 1.45-.88 141.31-18.98 247.6 72.8-7.74 118.34-39.5 138.98-97.13 48.6-135.76-60.91-238.88-133.29-278.41-3.88-2.12-6.21-6.28-5.97-10.7 4.72-90.11-17.5-153.82-40.84-204.31-70.849 41.8-165.455 25.93-208.939 18.62-3.695-.62-7.024-1.18-9.939-1.64-19.829-3.09-32.404 1.23-48.343 6.72-18.034 6.2-39.938 13.74-77.019 11.79-5.275-.28-10.85-.74-16.765-1.43-46-5.36-72.938-19.94-92.606-30.59-13.758-7.45-23.646-12.8-34.971-12.83-3.975.01-10.742.63-18.577 1.36-35.415 3.29-101.513 9.38-157.129-16.7-13.773 27.56-72.265 153.69-79.511 320.73-.108 2.47-1.016 4.85-2.587 6.78-24.713 30.24-89.642 149.01-68.888 243.96 9.396 42.98 35.567 75.25 77.788 95.92 28.812 14.1 61.544 21.65 97.259 22.71-17.228-34.73-85.893-176.1-99.37-249.18-1.15-6.25 2.981-12.25 9.231-13.4 6.242-1.17 12.252 2.98 13.406 9.23 14.514 78.71 100.238 248.92 101.103 250.63 2.341 4.64 1.29 10.27-2.572 13.74-1.122 1.05-28.732 27.38-11.905 74.24 10.022 27.91 30.041 33.47 43.97 33.62-2.685-5.05-4.196-10.04-4.732-14.14-.827-6.3 3.613-12.08 9.914-12.9 6.25-.82 11.999 3.55 12.888 9.78.642 3.98 5.448 23.34 37.848 20.46 15.02-1.35 18.282-14.53 17.842-22.11-.37-6.35 4.471-11.79 10.819-12.16 6.364-.39 11.785 4.48 12.155 10.82.327 5.63-.373 11.36-2.04 16.79 15.247 1.46 26.754-2.58 34.219-12.02 18.918-23.92 11.835-80.33-18.944-150.89-56.619-129.83-51.301-277.84-51.047-284.07.261-6.35 5.616-11.29 11.967-11.03h.14c6.28.33 11.146 5.66 10.892 11.96-.059 1.48-5.305 149.08 49.148 273.93 5.53 12.68 10.244 24.83 14.313 36.54 4.417.47 8.9.96 13.518 1.47 32.716 3.63 69.778 7.74 112.199 5.02 63.225-4.05 112.572-14.04 150.63-30.46.719-5.27 1.56-10.67 2.673-16.39 26.819-137.75 5.902-305.71 5.688-307.39-.803-6.31 3.653-12.07 9.957-12.88 6.309-.81 12.067 3.65 12.875 9.96.894 7.01 21.612 173.25-5.928 314.71-9.671 49.67-3.841 85.49 16.854 103.59 12.17 10.64 28.185 13.49 40.771 11.85-2.791-6.43-4.318-12.66-4.813-17.6-.637-6.32 3.972-11.96 10.298-12.6 6.329-.68 11.93 3.95 12.595 10.24.364 3.18 4.341 30.27 33.625 31.81.07 0 .15.01.22.01 31.37 1.49 34.09-28.49 34.3-31.91.38-6.34 5.71-11.05 12.18-10.79 6.34.39 11.17 5.84 10.79 12.18-.07 1.15-.72 9.78-4.8 19.86 2.95.54 6.97.7 11.35-.82 8.26-2.86 15.54-10.78 21.64-23.56 17.68-51.18-17.89-83.43-34.05-94.95" fill="#fffffe"/><path d="m357.994 569.959c9.234-11.877 22.511-18.784 39.461-20.532 3.241-.334228 6.493-.418 9.665-.252 57.433 3.01 85.643 86.093 90.592 141.204 3.981 44.344-8.737 73.005-41.236 92.925-9.092 5.574-17.728 17.545-26.078 29.125-13.88 19.244-29.613 41.055-53.552 39.8-.002 0 0 0-.002 0-3.138-.164-6.338-.739-9.506-1.711-9.68-2.967-17.277-9.35-21.968-18.46-12.798-24.862-.861-63.884 1.128-69.956 8.648-33.385 6.395-55.513 1.661-87.916l-.443-3.019c-4.078-27.667-10.9-73.971 10.278-101.208zm150.257 523.691s-27.805 51.29-71.842 28.88c-29.828-15.17-25.443-135.087 36.359-118.66 47.068 12.52 35.483 89.78 35.483 89.78zm74.945 13.63c60.972-67.57 120.25-67.42 142.566-67.36382 1.832 0 3.725.05382 5.965.16382 21.808 1.15 96.156 9.99 137.045 75.85 25.584 41.2 59.333 69.09 91.969 96.07 49.829 41.19 96.899 80.1 94.529 156.19-1.2 38.71-16.03 73.06-41.74 96.72-25.663 23.6-60.854 35.5-99.08 33.5-.005 0 0 0-.005 0-7.941-.42-16.071-1.44-24.167-3.03-55.79-10.96-79.72-37.15-100.833-60.25-4.599-5.04-9.107-9.95-13.833-14.59-8.322 12.49-32.347 42.43-71.082 41.69-38.275-.73-62.64-35.21-73.014-53.78-11.351 6.76-21.117 13.97-30.644 21.06-28.133 20.91-54.536 40.71-110.19 36.53-28.983-2.13-68.953-15.03-94.219-44.83-20.042-23.64-28.518-54.19-25.185-90.82 7.366-80.97 60.13-113.98 115.993-148.93 32.726-20.47 66.562-41.64 95.925-74.18zm69.415-106.01c2.869-1.588 71.12-38.478 149.786 1.86 5.656 2.9 7.89 9.83 4.991 15.49-2.902 5.66-9.835 7.89-15.49 4.99-67.861-34.789-127.531-2.54-128.125-2.21-1.956 1.08-4.091 1.54-6.174 1.43-3.83-.2-7.473-2.31-9.472-5.91-3.081-5.56-1.075-12.57 4.484-15.65zm341.341 29.92c63.178-9.88 55.008 109.84 23.758 121.81-46.139 17.67-68.431-36.24-68.431-36.24s-3.445-78.05 44.673-85.57zm15.198-314.008c10.68-54.292 47.42-133.971 104.86-130.96 3.17.166 6.4.591 9.58 1.261 16.68 3.509 29.16 11.766 37.1 24.544 18.22 29.301 6.59 74.641-.36 101.73l-.75 2.954c-8.09 31.737-12.65 53.511-7.54 87.608 1.34 6.247 9.14 46.3-6.19 69.691-5.62 8.569-13.84 14.123-23.78 16.062-3.25.635-6.49.873-9.63.709-23.94-1.255-37.3-24.589-49.1-45.176-7.09-12.392-14.43-25.203-22.89-31.696-30.24-23.206-39.89-53.037-31.3-96.727zm-694.345-41.809c4.495 42.782-1.305 78.029-6.421 109.128-5.883 35.756-10.529 63.998 1.786 91.885 13.37 30.274 45.205 33.511 56.12 33.702 7.172-18.168 13.292-29.521 15.268-33.017 3.127-5.538 10.141-7.484 15.68-4.357 5.533 3.126 7.486 10.147 4.358 15.679-6.783 12.006-65.393 122.077-34.689 287.577.602 3.23-.214 6.57-2.239 9.17-.775 1-77.851 102.48-27.767 215.89 42.453 96.13 155.046 85.68 209.14 80.66 8.753-.81 15.665-1.46 20.702-1.46 17.153-.03 30.466 7.23 45.932 15.6 19.028 10.3 42.71 23.12 84.316 27.97 42.356 4.95 64.274-2.61 83.629-9.27 17.452-6 33.955-11.68 59.391-7.69 2.996.47 6.41 1.05 10.203 1.68 61.408 10.34 205.206 34.53 253.356-88.48 39.33-100.47-21.03-188.94-21.64-189.83-2.24-3.21-2.7-7.36-1.2-10.98.65-1.58 64.6-159.88 5.36-292.503-2.59-5.804.02-12.609 5.82-15.201 5.8-2.586 12.61.01 15.2 5.814 4.77 10.676 8.75 21.471 12.13 32.302.21-.002.41-.044.63-.035 14.72.638 41.62-2.127 56.36-27.833 15.16-26.446 13.49-55.02 11.37-91.195-1.84-31.463-3.92-67.123 5.02-109.202l1.02-4.763c14.48-67.903 29.45-138.119-44.74-171.932-26.68-12.163-55.92-10.316-84.56 5.328-57.97 31.644-101.73 111.838-117.602 215.029 27.973 14.831 38.639 27.758 39.562 28.928 3.939 4.99 3.092 12.226-1.896 16.165-2.282 1.803-5.038 2.604-7.732 2.462-3.192-.167-6.297-1.653-8.432-4.358-.39-.472-48.339-56.338-222.305-65.455-172.648-9.048-225.992 33.527-226.51 33.959-4.857 4.034-12.096 3.445-16.175-1.356-4.083-4.803-3.588-11.96 1.173-16.097 1.121-.974 15.021-12.538 49.915-23.106-5.314-99.98-39.97-181.17-93.243-217.836-27.083-18.64-56.245-23.528-84.329-14.129-77.327 25.874-69.775 97.273-62.47 166.323z" fill="#fffffe"/><path d="m258.388 2141.04c-1.156.16-2.345.21-3.559 0-.417-.07-20.132-3.12-33.173 5.48-19.694 12.99-25.602 31.2-18.064 55.68 3.781 12.28 14.585 18.93 27.023 22.38-3.7-15.14-1.106-28.89-.943-29.72 1.225-6.24 7.246-10.33 13.514-9.07 6.222 1.22 10.279 7.25 9.078 13.47-.077.43-2.954 16.85 4.246 28.68 3.958.08 7.726.02 11.072-.15 47.272-2.3 85.699-20.08 100.756-31.72-21.508-4.18-41.781-10.89-60.614-20.11-19.4-9.49-35.829-21.18-49.336-34.92" fill="#fffffe"/><path d="m553.954 1266.08c7.295-4.75 17.061-2.69 21.815 4.6 4.753 7.3 2.692 17.06-4.603 21.82-7.295 4.75-17.061 2.69-21.814-4.61-4.753-7.29-2.693-17.06 4.602-21.81zm30.796-64.44c7.294-4.75 17.061-2.69 21.814 4.6 4.754 7.3 2.693 17.06-4.602 21.82-7.295 4.75-17.061 2.69-21.815-4.6-4.753-7.3-2.692-17.07 4.603-21.82zm30.192 79.64c7.295-4.75 17.061-2.69 21.814 4.6 4.754 7.3 2.693 17.06-4.602 21.82-7.295 4.75-17.061 2.69-21.814-4.61-4.754-7.29-2.693-17.06 4.602-21.81zm27.21-54.85c7.295-4.75 17.061-2.69 21.814 4.61 4.753 7.29 2.693 17.06-4.602 21.81s-17.061 2.69-21.815-4.6c-4.753-7.3-2.692-17.06 4.603-21.82zm150.355 28.32c-4.824 7.25-14.611 9.21-21.858 4.39-7.249-4.83-9.213-14.61-4.389-21.86 4.825-7.25 14.611-9.21 21.859-4.39 7.248 4.83 9.213 14.61 4.388 21.86zm5.02 33.5c4.824-7.25 14.611-9.21 21.858-4.39 7.248 4.83 9.213 14.61 4.389 21.86-4.825 7.25-14.611 9.21-21.859 4.39s-9.212-14.61-4.388-21.86zm26.376-75.2c4.824-7.25 14.61-9.21 21.858-4.39 7.248 4.83 9.213 14.61 4.388 21.86-4.824 7.25-14.61 9.21-21.858 4.39-7.248-4.83-9.213-14.61-4.388-21.86zm34.758 60.6c4.824-7.25 14.611-9.21 21.858-4.39 7.248 4.83 9.213 14.61 4.389 21.86-4.825 7.25-14.611 9.21-21.859 4.39-7.248-4.83-9.213-14.61-4.388-21.86zm-464.462 58.82c-2.751 30.25 3.917 55.1 19.82 73.85 26.674 31.47 69.952 36.15 78.356 36.77 47.002 3.41 67.98-12.14 94.763-32.06 16.708-12.42 35.645-26.49 63.171-37.55 28.224-11.33 48.949-33.74 50.402-54.5.022-.59.068-1.04.068-1.04.057-.59.197-1.14.336-1.68 1.197-30.85 4.171-94.84 5.167-116.09-30.618-8.41-63.456-42.9-55.69-73.35 8.806-34.52 73.44-32.88 73.44-32.88s76.927.72 74.55 46.07c-2.004 38.24-41.481 57.78-69.319 61.46-1.114 23.79-4.678 100.52-5.484 124.75.842 12.22 6.41 38.47 37.287 54.82 19.631 10.39 32.714 24.71 45.367 38.56 20.538 22.47 39.93 43.69 88.287 53.2 7.032 1.38 14.071 2.26 20.93 2.62h.009c31.99 1.68 61.217-8.07 82.287-27.45 21.434-19.72 33.304-47.55 34.324-80.5 2.02-64.82-36.911-96.99-86.193-137.73-32.476-26.84-69.289-57.27-96.857-101.67-35.908-57.83-105.176-64.29-118.698-65-1.782-.1-3.288-.13-4.49-.14309-21.672-.04691-71.655-.17691-125.746 59.77309-31.518 34.93-68.328 57.96-100.807 78.28-55.282 34.58-98.949 61.9-105.28 131.49z" fill="#b3b5b2"/><path d="m370.935 670.86c5.02 34.358 7.574 59.7-2.257 97.404-.065.251-.139.499-.221.744-3.016 9.086-9.978 38.265-2.612 52.534 1.884 3.653 4.425 5.803 8.238 6.97 1.371.421 2.706.666 3.968.733 11.409.598 22.227-14.4 33.678-30.28 9.68-13.42 19.689-27.296 32.716-35.283 25.06-15.361 33.566-35.337 30.341-71.245-4.371-48.673-28.627-118.168-68.871-120.277-1.986-.104-4.039-.051271-6.104.164-10.606 1.092-18.341 4.94-23.648 11.763-15.144 19.477-9.217 59.694-5.675 83.725z" fill="#ccbbb5"/><path d="m1278.1 2085.85c-9.07-16.64-27.13-27.4-44.82-27.15-26.11 34.81-65.68 56.56-118.09 65.12 3.11 3.82 6.18 8.04 9.01 12.65 24.97 8.7 78.54 22.6 115.76 16.77 4.56-14.05-5.19-27.75-5.3-27.89-3.81-5.09-2.77-12.3 2.32-16.11 5.09-3.8 12.29-2.77 16.11 2.32.6.81 10.81 14.84 11.13 33.09 3.04-2.03 5.74-4.38 7.96-7.16 17.6-22.1 11.27-41.84 5.92-51.64" fill="#fffffe"/><path d="m1054.46 795.651c12.13 9.305 20.63 24.154 28.85 38.513 9.74 16.988 18.93 33.033 30.33 33.631 1.26.067 2.62-.038 4.03-.313 3.91-.763 6.66-2.635 8.92-6.071 8.82-13.423 4.94-43.168 2.89-52.53-.06-.247-.1-.505-.14-.753-5.83-38.515-.65-63.454 7.94-97.106l.76-2.98c6.03-23.531 16.13-62.91 3.1-83.864-4.56-7.34-11.85-11.976-22.28-14.171-2.03-.428-4.07-.697-6.06-.801-40.24-2.109-71.63 64.469-81.06 112.419-6.96 35.378-.59 56.133 22.72 74.026" fill="#ccbbb5"/><path d="m751.794 1148.31c11.259.59 20.725-5.38 21.142-13.33.416-7.94-8.374-14.87-19.634-15.46s-20.725 5.38-21.142 13.33c-.416 7.94 8.374 14.87 19.634 15.46" fill="#fffffe"/><path d="m463.811 1047.23c-.51 9.72 4.178 17.87 10.47 18.2s11.806-7.28 12.316-17.01c.51-9.72-4.178-17.87-10.471-18.2-6.292-.33-11.806 7.29-12.315 17.01" fill="#fffffe"/><path d="m1007.43 1093.38c6.29.33 11.81-7.29 12.32-17.01.51-9.73-4.18-17.88-10.48-18.21-6.29-.33-11.801 7.29-12.311 17.01-.509 9.73 4.181 17.88 10.471 18.21" fill="#fffffe"/><g fill="#1b1a19"><path d="m828.291 1234.91c7.248 4.82 17.034 2.86 21.858-4.39 4.825-7.25 2.86-17.03-4.388-21.86-7.248-4.82-17.034-2.86-21.858 4.39-4.825 7.25-2.86 17.03 4.388 21.86"/><path d="m788.119 1232.89c-7.248-4.82-17.034-2.86-21.859 4.39-4.824 7.25-2.86 17.03 4.389 21.86 7.247 4.82 17.034 2.86 21.858-4.39 4.825-7.25 2.86-17.03-4.388-21.86"/><path d="m801.915 1310.11c7.248 4.82 17.034 2.86 21.859-4.39 4.824-7.25 2.859-17.03-4.389-21.86-7.247-4.82-17.034-2.86-21.858 4.39s-2.86 17.04 4.388 21.86"/><path d="m863.049 1295.51c7.248 4.82 17.034 2.86 21.859-4.39 4.824-7.25 2.859-17.03-4.389-21.86-7.247-4.82-17.034-2.86-21.858 4.39-4.825 7.25-2.86 17.03 4.388 21.86"/><path d="m601.962 1228.06c7.295-4.76 9.356-14.52 4.602-21.82-4.753-7.29-14.52-9.35-21.814-4.6-7.295 4.75-9.356 14.52-4.603 21.82 4.754 7.29 14.52 9.35 21.815 4.6"/><path d="m659.364 1252.85c7.295-4.75 9.355-14.52 4.602-21.81-4.753-7.3-14.519-9.36-21.814-4.61-7.295 4.76-9.356 14.52-4.603 21.82 4.754 7.29 14.52 9.35 21.815 4.6"/><path d="m632.154 1307.7c7.295-4.76 9.356-14.52 4.602-21.82-4.753-7.29-14.519-9.35-21.814-4.6s-9.356 14.52-4.602 21.81c4.753 7.3 14.519 9.36 21.814 4.61"/><path d="m571.166 1292.5c7.295-4.76 9.356-14.52 4.603-21.82-4.754-7.29-14.52-9.35-21.815-4.6s-9.355 14.52-4.602 21.81c4.753 7.3 14.519 9.36 21.814 4.61"/><path d="m732.16 1132.85c.417-7.95 9.882-13.92 21.142-13.33s20.05 7.52 19.634 15.46c-.417 7.95-9.883 13.92-21.142 13.33-11.26-.59-20.05-7.52-19.634-15.46zm-337.961 199.62c6.331-69.59 49.998-96.91 105.28-131.49 32.479-20.32 69.289-43.35 100.807-78.28 54.091-59.95 104.074-59.82 125.746-59.77309 1.202.01309 2.708.04309 4.49.14309 13.522.71 82.79 7.17 118.698 65 27.568 44.4 64.381 74.83 96.857 101.67 49.282 40.74 88.213 72.91 86.193 137.73-1.02 32.95-12.89 60.78-34.324 80.5-21.07 19.38-50.297 29.13-82.287 27.45-.004 0-.004 0-.009 0-6.859-.36-13.898-1.24-20.93-2.62-48.357-9.51-67.749-30.73-88.287-53.2-12.653-13.85-25.736-28.17-45.367-38.56-30.877-16.35-36.445-42.6-37.287-54.82.806-24.23 4.37-100.96 5.484-124.75 27.838-3.68 67.315-23.22 69.319-61.46 2.377-45.35-74.55-46.07-74.55-46.07s-64.634-1.64-73.44 32.88c-7.766 30.45 25.072 64.94 55.69 73.35-.996 21.25-3.97 85.24-5.167 116.09-.139.54-.279 1.09-.336 1.68 0 0-.046.45-.068 1.04-1.453 20.76-22.178 43.17-50.402 54.5-27.526 11.06-46.463 25.13-63.171 37.55-26.783 19.92-47.761 35.47-94.763 32.06-8.404-.62-51.682-5.3-78.356-36.77-15.903-18.75-22.571-43.6-19.82-73.85zm206.673 97.04c9.527-7.09 19.293-14.3 30.644-21.06 10.374 18.57 34.739 53.05 73.014 53.78 38.735.74 62.76-29.2 71.082-41.69 4.726 4.64 9.234 9.55 13.833 14.59 21.113 23.1 45.043 49.29 100.833 60.25 8.096 1.59 16.226 2.61 24.167 3.03h.005c38.226 2 73.417-9.9 99.08-33.5 25.71-23.66 40.54-58.01 41.74-96.72 2.37-76.09-44.7-115-94.529-156.19-32.636-26.98-66.385-54.87-91.969-96.07-40.889-65.86-115.237-74.7-137.045-75.85-2.24-.11-4.133-.16382-5.965-.16382-22.316-.05618-81.594-.20618-142.566 67.36382-29.363 32.54-63.199 53.71-95.925 74.18-55.863 34.95-108.627 67.96-115.993 148.93-3.333 36.63 5.143 67.18 25.185 90.82 25.266 29.8 65.236 42.7 94.219 44.83 55.654 4.18 82.057-15.62 110.19-36.53z"/></g><path d="m378.051 829.245c-1.262-.067-2.597-.312-3.968-.733-3.813-1.167-6.354-3.317-8.238-6.97-7.366-14.269-.404-43.448 2.612-52.534.082-.245.156-.493.221-.744 9.831-37.704 7.277-63.046 2.257-97.404l-.447-3.048c-3.542-24.031-9.469-64.248 5.675-83.725 5.307-6.823 13.042-10.671 23.648-11.763 2.065-.215271 4.118-.268 6.104-.164 40.244 2.109 64.5 71.604 68.871 120.277 3.225 35.908-5.281 55.884-30.341 71.245-13.027 7.987-23.036 21.863-32.716 35.283-11.451 15.88-22.269 30.878-33.678 30.28zm52.347-16.816c8.35-11.58 16.986-23.551 26.078-29.125 32.499-19.92 45.217-48.581 41.236-92.925-4.949-55.111-33.159-138.194-90.592-141.204-3.172-.166-6.424-.082228-9.665.252-16.95 1.748-30.227 8.655-39.461 20.532-21.178 27.237-14.356 73.541-10.278 101.208l.443 3.019c4.734 32.403 6.987 54.531-1.661 87.916-1.989 6.072-13.926 45.094-1.128 69.956 4.691 9.11 12.288 15.493 21.968 18.46 3.168.972 6.368 1.547 9.506 1.711h.002c23.939 1.255 39.672-20.556 53.552-39.8z" fill="#ccbbb5"/><path d="m486.597 1048.42c-.51 9.73-6.024 17.34-12.316 17.01s-10.98-8.48-10.47-18.2c.509-9.72 6.023-17.34 12.315-17.01 6.293.33 10.981 8.48 10.471 18.2zm-50.188 74.11c44.037 22.41 71.842-28.88 71.842-28.88s11.585-77.26-35.483-89.78c-61.802-16.427-66.187 103.49-36.359 118.66z" fill="#1b1a19"/><path d="m1009.27 1058.16c6.3.33 10.99 8.48 10.48 18.21-.51 9.72-6.03 17.34-12.32 17.01s-10.98-8.48-10.471-18.21c.51-9.72 6.021-17.34 12.311-17.01zm8.44 94.84c31.25-11.97 39.42-131.69-23.758-121.81-48.118 7.52-44.673 85.57-44.673 85.57s22.292 53.91 68.431 36.24z" fill="#1b1a19"/><path d="m1272.18 2137.49c-2.22 2.78-4.92 5.13-7.96 7.16-.32-18.25-10.53-32.28-11.13-33.09-3.82-5.09-11.02-6.12-16.11-2.32-5.09 3.81-6.13 11.02-2.32 16.11.11.14 9.86 13.84 5.3 27.89-37.22 5.83-90.79-8.07-115.76-16.77-2.83-4.61-5.9-8.83-9.01-12.65 52.41-8.56 91.98-30.31 118.09-65.12 17.69-.25 35.75 10.51 44.82 27.15 5.35 9.8 11.68 29.54-5.92 51.64zm-161.21 76.65c-6.1 12.78-13.38 20.7-21.64 23.56-4.38 1.52-8.4 1.36-11.35.82 4.08-10.08 4.73-18.71 4.8-19.86.38-6.34-4.45-11.79-10.79-12.18-6.47-.26-11.8 4.45-12.18 10.79-.21 3.42-2.93 33.4-34.3 31.91-.07 0-.15-.01-.22-.01-29.284-1.54-33.261-28.63-33.625-31.81-.665-6.29-6.266-10.92-12.595-10.24-6.326.64-10.935 6.28-10.298 12.6.495 4.94 2.022 11.17 4.813 17.6-12.586 1.64-28.601-1.21-40.771-11.85-20.695-18.1-26.525-53.92-16.854-103.59 27.54-141.46 6.822-307.7 5.928-314.71-.808-6.31-6.566-10.77-12.875-9.96-6.304.81-10.76 6.57-9.957 12.88.214 1.68 21.131 169.64-5.688 307.39-1.113 5.72-1.954 11.12-2.673 16.39-38.058 16.42-87.405 26.41-150.63 30.46-42.421 2.72-79.483-1.39-112.199-5.02-4.618-.51-9.101-1-13.518-1.47-4.069-11.71-8.783-23.86-14.313-36.54-54.453-124.85-49.207-272.45-49.148-273.93.254-6.3-4.612-11.63-10.892-11.96-.05 0-.095 0-.14 0-6.351-.26-11.706 4.68-11.967 11.03-.254 6.23-5.572 154.24 51.047 284.07 30.779 70.56 37.862 126.97 18.944 150.89-7.465 9.44-18.972 13.48-34.219 12.02 1.667-5.43 2.367-11.16 2.04-16.79-.37-6.34-5.791-11.21-12.155-10.82-6.348.37-11.189 5.81-10.819 12.16.44 7.58-2.822 20.76-17.842 22.11-32.4 2.88-37.206-16.48-37.848-20.46-.889-6.23-6.638-10.6-12.888-9.78-6.301.82-10.741 6.6-9.914 12.9.536 4.1 2.047 9.09 4.732 14.14-13.929-.15-33.948-5.71-43.97-33.62-16.827-46.86 10.783-73.19 11.905-74.24 3.862-3.47 4.913-9.1 2.572-13.74-.865-1.71-86.589-171.92-101.103-250.63-1.154-6.25-7.164-10.4-13.406-9.23-6.25 1.15-10.381 7.15-9.231 13.4 13.477 73.08 82.142 214.45 99.37 249.18-35.715-1.06-68.447-8.61-97.259-22.71-42.221-20.67-68.392-52.94-77.788-95.92-20.754-94.95 44.175-213.72 68.888-243.96 1.571-1.93 2.479-4.31 2.587-6.78 7.246-167.04 65.738-293.17 79.511-320.73 55.616 26.08 121.714 19.99 157.129 16.7 7.835-.73 14.602-1.35 18.577-1.36 11.325.03 21.213 5.38 34.971 12.83 19.668 10.65 46.606 25.23 92.606 30.59 5.915.69 11.49 1.15 16.765 1.43 37.081 1.95 58.985-5.59 77.019-11.79 15.939-5.49 28.514-9.81 48.343-6.72 2.915.46 6.244 1.02 9.939 1.64 43.484 7.31 138.09 23.18 208.939-18.62 23.34 50.49 45.56 114.2 40.84 204.31-.24 4.42 2.09 8.58 5.97 10.7 72.38 39.53 181.89 142.65 133.29 278.41-20.64 57.63-66.18 89.39-138.98 97.13 18.1-106.29 18.97-246.15 18.98-247.6.03-6.35-5.03-11.54-11.45-11.56-6.36-.03-11.53 5.1-11.56 11.46-.01 1.45-.93 147.14-20.14 252.3-.8 4.39 1.01 8.85 4.64 11.44 16.16 11.52 51.73 43.77 34.05 94.95zm-843.388 13.65c-3.346.17-7.114.23-11.072.15-7.2-11.83-4.323-28.25-4.246-28.68 1.201-6.22-2.856-12.25-9.078-13.47-6.268-1.26-12.289 2.83-13.514 9.07-.163.83-2.757 14.58.943 29.72-12.438-3.45-23.242-10.1-27.023-22.38-7.538-24.48-1.63-42.69 18.064-55.68 13.041-8.6 32.756-5.55 33.173-5.48 1.214.21 2.403.16 3.559 0 13.507 13.74 29.936 25.43 49.336 34.92 18.833 9.22 39.106 15.93 60.614 20.11-15.057 11.64-53.484 29.42-100.756 31.72zm69.319-826.76c-50.084-113.41 26.992-214.89 27.767-215.89 2.025-2.6 2.841-5.94 2.239-9.17-30.704-165.5 27.906-275.571 34.689-287.577 3.128-5.532 1.175-12.553-4.358-15.679-5.539-3.127-12.553-1.181-15.68 4.357-1.976 3.496-8.096 14.849-15.268 33.017-10.915-.191-42.75-3.428-56.12-33.702-12.315-27.887-7.669-56.129-1.786-91.885 5.116-31.099 10.916-66.346 6.421-109.128l-.509-4.834c-7.305-69.05-14.857-140.449 62.47-166.323 28.084-9.399 57.246-4.511 84.329 14.129 53.273 36.666 87.929 117.856 93.243 217.836-34.894 10.568-48.794 22.132-49.915 23.106-4.761 4.137-5.256 11.294-1.173 16.097 4.079 4.801 11.318 5.39 16.175 1.356.518-.432 53.862-43.007 226.51-33.959 173.966 9.117 221.915 64.983 222.305 65.455 2.135 2.705 5.24 4.191 8.432 4.358 2.694.142 5.45-.659 7.732-2.462 4.988-3.939 5.835-11.175 1.896-16.165-.923-1.17-11.589-14.097-39.562-28.928 15.872-103.191 59.632-183.385 117.602-215.029 28.64-15.644 57.88-17.491 84.56-5.328 74.19 33.813 59.22 104.029 44.74 171.932l-1.02 4.763c-8.94 42.079-6.86 77.739-5.02 109.202 2.12 36.175 3.79 64.749-11.37 91.195-14.74 25.706-41.64 28.471-56.36 27.833-.22-.009-.42.033-.63.035-3.38-10.831-7.36-21.626-12.13-32.302-2.59-5.804-9.4-8.4-15.2-5.814-5.8 2.592-8.41 9.397-5.82 15.201 59.24 132.623-4.71 290.923-5.36 292.503-1.5 3.62-1.04 7.77 1.2 10.98.61.89 60.97 89.36 21.64 189.83-48.15 123.01-191.948 98.82-253.356 88.48-3.793-.63-7.207-1.21-10.203-1.68-25.436-3.99-41.939 1.69-59.391 7.69-19.355 6.66-41.273 14.22-83.629 9.27-41.606-4.85-65.288-17.67-84.316-27.97-15.466-8.37-28.779-15.63-45.932-15.6-5.037 0-11.949.65-20.702 1.46-54.094 5.02-166.687 15.47-209.14-80.66zm961.409 673.8c-10.91-20-30.23-33.8-51.36-37.88 3.83-7.3 7.23-15.01 10.15-23.17 52.42-146.43-59-257.37-137.62-302.82 3.55-93.46-20.43-159.35-44.94-211.65 20.61-16.68 38.21-39.59 50.46-70.88 38.63-98.68-7.24-184.2-20.77-206.12 9.95-26.45 47.24-137.36 21.26-249.652 18.57-.433 51.67-6.24 70.7-39.435 18.57-32.396 16.63-65.571 14.39-103.986-1.75-30.013-3.74-64.03 4.56-103.074l1.01-4.748c14.05-65.92 33.31-156.198-57.71-197.678-33.04-15.059-70.38-12.899-105.14 6.072-62.902 34.344-110.385 117.981-128.246 225.024-36.848-15.466-93.41-30.608-177.915-35.037-77.529-4.063-132.34 1.967-170.066 10.443-6.569-104.942-44.681-190.764-102.929-230.854-32.801-22.573-69.976-28.613-104.684-16.997-94.855 31.741-85.144 123.542-78.054 190.573l.509 4.818c4.17 39.698-1.363 73.32-6.243 102.984-6.247 37.972-11.641 70.762 3.443 104.923 16.162 36.594 50.013 45.133 69.06 46.958-16.935 51.776-33.533 136.336-14.787 242.606-15.346 21.76-77.819 121.24-27.542 235.07 13.453 30.47 32.863 51.65 55.055 66.32-14.076 27.58-73.914 154.15-82.195 327.26-28.989 37.75-93.316 158.91-71.136 260.38 4.332 19.82 11.73 37.63 22.046 53.45-9.404.71-20.786 3.08-30.634 9.58-28.158 18.57-37.884 47.57-27.388 81.66 7.807 25.35 32.065 39.88 69.072 41.82 5.713.3 11.731.3 18.036-.01 44.734-2.18 111.729-22.66 126.515-50.89 2.518.23 5.067.4 7.615.57-6.701 16.8-10.256 40.62.5 70.57 13.713 38.19 41.351 47.4 61.897 48.48 12.312.64 22.031-1.62 24.72-2.33 6.582 3.29 14.582 5.58 24.352 6.09 3.928.21 8.141.11267 12.641-.27 9.368-.84 17-4.15 22.977-8.94.981.5 2.02.91 3.159 1.12 4.027.73 7.956 1.18 11.767 1.38 21.517 1.13 39.388-6.09 51.084-20.88 18.322-23.16 20.119-62.65 5.941-113.88 1.157.13 2.29.25 3.46.38 18.238 2.03 37.787 4.2 58.949 5.31 17.881.94 36.908 1.11 57.256-.19 59.945-3.84 108.28-12.95 147.043-27.73-1.061 45.56 14.172 70.19 29.085 83.23 13.463 11.77 29.825 17.05 45.021 17.84 9.124.48 17.78-.7 25.183-3.01 8.494 7.81 20.223 13.69 36.203 14.52.11.01.24.02.35.02 16.16.77 29.96-4.08 40.2-13.75 2.97 1.26 8.33 3.08 15.19 3.44 4.87.26 10.45-.23 16.41-2.19 14.75-4.87 26.81-17.06 35.83-36.26.16-.36.31-.71.44-1.08 7.8-22.17 7.72-41.61 3.54-58.15 12.63 3.55 29.67 7.73 48.02 10.48 9.05 1.35 17.6 2.24 25.66 2.66 38.35 2.01 65.37-6.53 80.47-25.49 18.63-23.38 21.67-52.17 8.13-77z" fill="#1b1a19"/><path d="m1031.74 721.625c9.43-47.95 40.82-114.528 81.06-112.419 1.99.104 4.03.373 6.06.801 10.43 2.195 17.72 6.831 22.28 14.171 13.03 20.954 2.93 60.333-3.1 83.864l-.76 2.98c-8.59 33.652-13.77 58.591-7.94 97.106.04.248.08.506.14.753 2.05 9.362 5.93 39.107-2.89 52.53-2.26 3.436-5.01 5.308-8.92 6.071-1.41.275-2.77.38-4.03.313-11.4-.598-20.59-16.643-30.33-33.631-8.22-14.359-16.72-29.208-28.85-38.513-23.31-17.893-29.68-38.648-22.72-74.026zm8.71 92.284c8.46 6.493 15.8 19.304 22.89 31.696 11.8 20.587 25.16 43.921 49.1 45.176 3.14.164 6.38-.074 9.63-.709 9.94-1.939 18.16-7.493 23.78-16.062 15.33-23.391 7.53-63.444 6.19-69.691-5.11-34.097-.55-55.871 7.54-87.608l.75-2.954c6.95-27.089 18.58-72.429.36-101.73-7.94-12.778-20.42-21.035-37.1-24.544-3.18-.67-6.41-1.095-9.58-1.261-57.44-3.011-94.18 76.668-104.86 130.96-8.59 43.69 1.06 73.521 31.3 96.727z" fill="#ccbbb5"/><path d="m657.599 1022.83c2.083.11 4.218-.35 6.174-1.43.594-.33 60.264-32.579 128.125 2.21 5.655 2.9 12.588.67 15.49-4.99 2.899-5.66.665-12.59-4.991-15.49-78.666-40.338-146.917-3.448-149.786-1.86-5.559 3.08-7.565 10.09-4.484 15.65 1.999 3.6 5.642 5.71 9.472 5.91" fill="#1b1a19"/></g></svg>