<svg height="1854" viewBox="0 0 1282 1854" width="1282" xmlns="http://www.w3.org/2000/svg"><g fill="none" fill-rule="evenodd" transform="translate(-1400 -473)"><g fill="#fffffe"><path d="m1981.12 1370.66c-3.38 2.07-6.81 3.92-10.24 5.59 2.32 15.39.67 33.23-5.04 53.41-5.57 19.74-15.61 35.91-28.04 50.54-4.97 5.86-10.34 11.47-15.95 16.95-7.89 7.72-16.26 15.21-24.79 22.81-11.53 10.28-23.21 20.77-34.18 32.23-8 8.35-15.56 17.28-22.41 27.05 1.16 3.98 2.43 7.94 3.86 11.87.16.46.35.9.52 1.36.77 2.08 1.54 4.17 2.39 6.24.91 2.23 1.91 4.42 2.9 6.61 15.52-27.6 38.91-48.59 61.64-68.85 10.75-9.59 21.62-19.31 31.77-29.78 5.49-5.67 10.76-11.58 15.68-17.81 12.05-15.23 22.03-32.44 27.9-53.2 7.68-27.2 8.96-51.21 3.9-71.83-3.23 2.44-6.53 4.74-9.91 6.81"/><path d="m2153.14 1450.55c-3.9-1.65-7.53-3.41-11.01-5.25-9.68 8.6-18.67 19.45-26.95 32.5-1.85 2.92-3.68 5.91-5.46 9.05-3.63 6.41-6.57 12.86-9.04 19.36-13.23 34.68-11.44 70.38-9.63 105.09 1.58 30.44 3.18 61.87-5.55 92.33 4.33-1.58 8.59-3.32 12.77-5.22.44-.19.87-.38 1.3-.58 3.84-1.77 7.6-3.67 11.3-5.69 2.14-11.81 3.13-23.54 3.44-35.16.42-15.82-.37-31.44-1.17-46.83-2.07-39.79-4.03-77.37 15.82-112.4.02-.02.03-.04.04-.06 4.78-8.44 9.82-15.9 15.1-22.41 6.76-8.34 13.93-15.06 21.46-20.19-4.36-1.4-8.53-2.91-12.42-4.54"/><path d="m2491.15 2015.83c38.07-92.46-19.57-235.39-93.47-287.55-3.21-2.27-4.98-6.08-4.64-10 8.46-96.68-32.24-206.48-46.93-242.35-36.42 20.76-79.17 26.84-116.83 27.33 4.14 35.3-.77 71.23-14.83 104.92-32.72 78.39-108.75 129.04-193.7 129.04-27.75 0-54.92-5.47-80.73-16.24-51.72-21.59-91.94-62.03-113.24-113.86-14.96-36.4-19.29-75.37-13.09-113.25-33.35 1.5-72.35-1.39-106.9-18.29-22.14 46.83-63.56 149.4-73.71 278.86-.18 2.38-1.13 4.63-2.71 6.42-24.74 28.22-91.09 140.1-74.33 231.98 7.58 41.59 31.63 73.46 71.48 94.73 30.24 16.13 87.42 23.26 119.27 25.14-13.48-30.25-64.71-147.68-87.71-235.85-1.54-5.91 2-11.95 7.91-13.5 5.9-1.53 11.95 2 13.49 7.91 25.99 99.62 89.1 238.23 89.73 239.62 2.07 4.52.86 9.87-2.95 13.07-1.11.96-28.51 25.32-13.92 70.88 8.69 27.15 27.73 33.16 41.1 33.77-2.41-4.95-3.69-9.78-4.07-13.74-.59-6.08 3.87-11.48 9.95-12.06 6.02-.59 11.41 3.82 12.05 9.83.49 3.85 4.39 22.65 35.67 20.91 14.46-.79 18.03-13.34 17.87-20.63-.15-6.11 4.69-11.17 10.79-11.31.09-.01.18-.01.26-.01 5.99 0 10.92 4.78 11.05 10.8.13 5.42-.73 10.89-2.52 16.06 14.61 1.9 25.78-1.58 33.27-10.4 18.97-22.33 14.06-76.74-13.13-145.54-50.03-126.57-39.95-268.53-39.5-274.51.46-6.09 5.75-10.64 11.86-10.19 6.09.46 10.66 5.77 10.2 11.86-.11 1.41-10.1 142.98 38.01 264.71 4.96 12.56 9.14 24.58 12.69 36.13 21.04 5.92 54.29 9.42 94.24 9.88 23.14.3 56.13-1.93 76.57-6.11 3.77-12.67 8.36-25.97 13.86-39.9 48.11-121.73 38.13-263.3 38.02-264.71-.46-6.09 4.11-11.4 10.19-11.86 6.09-.46 11.4 4.1 11.86 10.19.46 5.98 10.53 147.94-39.5 274.51-5.81 14.7-10.54 28.7-14.3 41.91-.11 1.44-.51 2.81-1.14 4.07-12.69 46.65-12.18 82.49 2.32 99.56 7.48 8.82 18.65 12.29 33.25 10.4-1.78-5.17-2.64-10.64-2.51-16.06.15-6.1 5.12-11.07 11.31-10.79 6.11.14 10.94 5.21 10.8 11.31-.17 7.29 3.4 19.84 17.87 20.63 33.06 1.81 35.56-19.86 35.65-20.78.58-6.08 5.97-10.58 12.06-9.96 6.08.58 10.54 5.98 9.96 12.06-.38 3.97-1.68 8.82-4.1 13.77 13.44-.56 32.4-6.56 41.13-33.79 14.76-46.14-13.64-70.65-13.93-70.89-3.82-3.21-5.03-8.59-2.93-13.11.77-1.68 77.39-168.03 88.69-244.09.9-6.04 6.55-10.21 12.56-9.31 6.04.9 10.21 6.52 9.31 12.56-10.11 68.11-67.36 198.87-85.23 238.57 68.27.92 154.16-14.83 186.25-92.75"/></g><path d="m1656.28 696.935c6.55 32.711 10.27 56.899 2.74 93.58-.05.244-.11.488-.18.728-2.44 8.87-7.65 37.22.14 50.542 1.99 3.411 4.54 5.346 8.25 6.275 1.33.334 2.63.503 3.84.503 10.99 0 20.61-14.938 30.8-30.752 8.62-13.363 17.52-27.182 29.62-35.501 23.27-16.001 30.43-35.597 25.53-69.893-6.64-46.487-33.41-111.954-72.14-111.954-1.91 0-3.87.155-5.84.464-10.13 1.581-17.36 5.664-22.1 12.478-13.56 19.451-5.85 57.748-1.24 80.631z" fill="#cbbab4"/><path d="m1570.89 2071.87c-1.11.12-2.25.13-3.4-.11-.35-.06-19.22-3.68-32.05 4.16-19.35 11.81-25.63 29.1-19.22 52.86 3.23 11.93 13.38 18.69 25.22 22.43-3.06-14.67-.11-27.81.08-28.6 1.38-5.95 7.32-9.65 13.28-8.26 5.93 1.39 9.63 7.31 8.26 13.24-.07.36-3.41 16.08 3.13 27.71 3.8.2 7.42.26 10.65.21 48.61-.68 88.21-18.69 100.65-29.24-21.53-4.2-43.75-10.32-60.38-19.19-18.32-9.78-33.71-21.55-46.22-35.21" fill="#fffffe"/><path d="m1638.79 600.761c8.26-11.862 20.66-19.158 36.83-21.687 3.1-.482 6.22-.728 9.26-.728 55.28 0 86.52 78.308 94.04 130.943 6.05 42.353-4.71 70.494-34.9 91.245-8.44 5.806-16.12 17.728-23.56 29.26-12.35 19.164-26.35 40.886-49.39 40.886-3.02 0-6.12-.391-9.2-1.164-9.44-2.361-17.05-8.104-22.01-16.607-13.53-23.215-4.04-61.256-2.44-67.189 6.62-32.478 3.35-53.597-2.83-84.446l-.57-2.875c-5.31-26.343-14.19-70.437 4.77-97.638zm170.52 494.969s-24.1 50.62-67.48 31.34c-29.39-13.06-31.21-128.355 28.92-115.7 45.79 9.65 38.56 84.36 38.56 84.36zm133.88-95.9c2.68-1.669 66.31-40.501 143.83-5.749 5.58 2.499 8.07 9.039 5.57 14.609-2.5 5.58-9.04 8.07-14.61 5.57-66.87-29.97-122.5 3.98-123.06 4.33-1.82 1.13-3.85 1.68-5.86 1.68-3.68 0-7.28-1.84-9.38-5.2-3.24-5.18-1.66-12 3.51-15.24zm329.06 11.54c60.13-12.655 58.31 102.64 28.92 115.7-43.38 19.28-67.48-31.34-67.48-31.34s-7.23-74.71 38.56-84.36zm-1.2-302.081c7.52-52.635 38.77-130.943 94.03-130.943 3.05 0 6.17.246 9.26.728 16.18 2.529 28.57 9.825 36.84 21.689 18.95 27.208 10.07 71.306 4.76 97.654l-.57 2.857c-6.17 30.86-9.44 51.983-2.83 84.446 1.61 5.927 11.1 43.97-2.43 67.186-4.96 8.506-12.57 14.249-22.01 16.61-3.09.773-6.19 1.164-9.21 1.164-23.03 0-37.03-21.722-49.38-40.886-7.44-11.529-15.12-23.454-23.56-29.26-30.19-20.749-40.95-48.89-34.9-91.245zm-668.4-5.201c6.46 40.828 2.67 74.943-.68 105.043-3.85 34.607-6.88 61.942 6.34 88.083 14.35 28.38 45.06 29.881 55.55 29.516 5.96-17.795 11.27-28.996 12.99-32.449 2.72-5.467 9.36-7.694 14.83-4.97 5.46 2.721 7.69 9.361 4.97 14.827-5.91 11.862-56.62 120.422-18.83 277.702.74 3.07.12 6.32-1.69 8.91-.69 1-69.55 102.26-15.79 208.56 11.51 22.77 26.98 38.76 44.5 49.86.74.19 1.48.45 2.19.81 1.22.6 2.25 1.43 3.13 2.37 33.78 19.11 74.17 21.41 108.47 19.18 1.66-5.98 3.59-11.92 5.79-17.8-4.23.22-8.58.34-13.24.24-27.92-.6-66.93-10.97-92.67-38.29-20.42-21.68-30.09-50.57-28.73-85.88 2.99-78.06 51.97-112.39 103.82-148.74 30.37-21.29 61.77-43.31 88.32-76.01 55.1-67.9 111.99-70.75 133.4-71.82 1.77-.08 3.59-.14 5.74-.14 20.99 0 92.78 4.76 135.33 65.9 26.63 38.25 60.41 63.32 93.09 87.56 49.89 37.02 97.01 71.99 98.56 145.12.8 37.21-11.71 70.92-35.19 94.91-23.18 23.68-55.87 36.81-92.15 37.11 1.87 5.84 3.47 11.72 4.82 17.64 64.42-.02 143.01-16.67 171.48-102.33 32.8-98.75-29.67-180.24-30.31-181.05-2.32-2.97-2.97-6.93-1.72-10.5.55-1.55 53.96-156.67-9.55-280.951-2.78-5.439-.62-12.1 4.82-14.879 5.43-2.774 12.1-.625 14.88 4.814 5.11 10.005 9.47 20.164 13.26 30.387.2-.012.39-.063.59-.065 14.16-.13 39.84-4.138 52.68-29.54 13.23-26.145 10.19-53.48 6.34-88.088-3.34-30.097-7.14-64.214-.67-105.04l.73-4.613c10.48-65.893 21.32-134.028-51.58-162.745-26.2-10.322-54.17-7.086-80.88 9.367-54.03 33.281-91.99 112.437-102.03 212.256 27.59 12.824 38.47 24.692 39.42 25.769 4.03 4.589 3.58 11.576-1.01 15.607-2.1 1.844-4.7 2.751-7.29 2.751-3.08 0-6.13-1.27-8.32-3.758-.39-.434-49.21-51.631-216.61-51.631-166.13 0-215.17 43.538-215.65 43.979-4.46 4.114-11.43 3.914-15.59-.488-4.16-4.404-4.04-11.296.32-15.506 1.02-.991 13.78-12.786 46.73-24.682-10.13-95.673-47.47-171.841-100.43-204.346-26.94-16.53-55.17-19.748-81.64-9.318-72.9 28.717-62.06 96.852-51.57 162.745z" fill="#fffffe"/><path d="m2552.01 2066.35c-8.7-17.38-27.43-28.7-45.57-27.5-.6.04-1.18-.01-1.76-.06-20.1 37.81-53.81 64.28-99.62 78.81 6.81 2.34 14.71 4.69 23.51 6.65 36.21 8.04 63.76 10.47 83.84 7.27 6.36-13.87-3.34-28.54-3.44-28.69-3.49-5.02-2.25-11.91 2.77-15.4 5-3.48 11.9-2.25 15.39 2.77.56.8 10.02 14.8 9.58 32.52 2.98-2.03 5.63-4.34 7.88-6.97 17.65-20.64 12.23-39.81 7.42-49.4" fill="#fffffe"/><path d="m2318.47 782.31c12.11 8.319 21.01 22.138 29.62 35.503 10.2 15.815 19.82 30.75 30.8 30.75 1.21 0 2.51-.169 3.84-.503 3.73-.931 6.28-2.871 8.27-6.292 7.82-13.406 2.58-41.679.13-50.525-.07-.24-.13-.482-.18-.726-7.53-36.666-3.81-60.858 2.73-93.582l.58-2.886c4.61-22.885 12.33-61.186-1.23-80.642-4.75-6.816-11.98-10.899-22.1-12.48-1.97-.309-3.94-.464-5.85-.464-38.72 0-65.5 65.467-72.14 111.954-4.9 34.296 2.26 53.892 25.53 69.893" fill="#cbbab4"/><path d="m1764.33 1053.43c0 9.36 4.91 16.94 10.97 16.94 6.05 0 10.96-7.58 10.96-16.94s-4.91-16.94-10.96-16.94c-6.06 0-10.97 7.58-10.97 16.94" fill="#fffffe"/><path d="m2288.31 1070.37c6.06 0 10.96-7.58 10.96-16.94s-4.9-16.94-10.96-16.94c-6.05 0-10.96 7.58-10.96 16.94s4.91 16.94 10.96 16.94" fill="#fffffe"/><path d="m2110.87 1692.14c36.64-20.02 66.32-52.13 83.17-92.48 12.95-31.04 17.24-64.21 12.93-96.69-1-7.47-2.44-14.91-4.35-22.28-1.62-6.25-3.58-12.46-5.86-18.59-.22-.03-.43-.04-.65-.07-3.76-.54-7.34-1.17-10.82-1.86-7.13-1.4-13.66-3.13-19.73-5.08-7.53 5.13-14.7 11.85-21.46 20.19-5.28 6.51-10.32 13.97-15.1 22.41-.01.02-.02.04-.04.06-19.85 35.03-17.89 72.61-15.82 112.4.8 15.39 1.59 31.01 1.17 46.83-.31 11.62-1.3 23.35-3.44 35.16" fill="#5cb8dc"/><path d="m2109.72 1486.85c1.78-3.14 3.61-6.13 5.46-9.05 8.28-13.05 17.27-23.9 26.95-32.5-19.79-10.45-33.3-23.7-45.8-36.02-12.03-11.85-23.39-23.04-39.28-30.42-22.18-10.3-34.86-25.15-42.11-39.13-.12.01-.23.01-.35.01-6.33 9.17-14.56 17.3-23.56 24.11 5.06 20.62 3.78 44.63-3.9 71.83-5.87 20.76-15.85 37.97-27.9 53.2-4.92 6.23-10.19 12.14-15.68 17.81-10.15 10.47-21.02 20.19-31.77 29.78-22.73 20.26-46.12 41.25-61.64 68.85 19.68 43.18 54.36 76.86 98.39 95.25 23.11 9.64 47.41 14.53 72.22 14.53 22.56 0 44.4-4.02 64.75-11.47 8.73-30.46 7.13-61.89 5.55-92.33-1.81-34.71-3.6-70.41 9.63-105.09 2.47-6.5 5.41-12.95 9.04-19.36" fill="#5cb8dc"/><path d="m1897.06 1519.96c8.53-7.6 16.9-15.09 24.79-22.81 5.61-5.48 10.98-11.09 15.95-16.95 12.43-14.63 22.47-30.8 28.04-50.54 5.71-20.18 7.36-38.02 5.04-53.41-.62.3-1.25.65-1.87.94-12.34 5.72-22.5 12.05-31.59 18.59-8.04 5.78-15.26 11.73-22.34 17.59-18.73 15.51-36.71 30.31-65.37 36.96-.71 1.57-1.41 3.14-2.08 4.73-1.96 4.7-3.67 9.45-5.23 14.23-2.47 7.55-4.47 15.19-5.96 22.89-5.57 28.87-4.22 58.56 4.03 87.06 6.85-9.77 14.41-18.7 22.41-27.05 10.97-11.46 22.65-21.95 34.18-32.23" fill="#5cb8dc"/><path d="m2064.12 1220.59c4.27-7.2 13.56-9.57 20.76-5.31 7.2 4.27 9.57 13.56 5.31 20.75-4.27 7.2-13.56 9.58-20.76 5.31-7.19-4.26-9.57-13.55-5.31-20.75zm32.57 47.34c4.26-7.2 13.56-9.57 20.75-5.31 7.2 4.27 9.58 13.56 5.31 20.76-4.26 7.19-13.55 9.57-20.75 5.3-7.2-4.26-9.58-13.55-5.31-20.75zm21.53-73.49c4.26-7.2 13.56-9.57 20.75-5.31 7.2 4.27 9.58 13.56 5.31 20.76-4.26 7.19-13.55 9.57-20.75 5.31-7.2-4.27-9.58-13.56-5.31-20.76zm36.4 56.41c4.26-7.2 13.56-9.58 20.75-5.32 7.2 4.27 9.58 13.56 5.31 20.76-4.26 7.2-13.55 9.57-20.75 5.31-7.2-4.27-9.58-13.56-5.31-20.75zm-188.97-31.11c4.93 6.76 3.44 16.24-3.32 21.17s-16.24 3.44-21.17-3.32c-4.92-6.76-3.44-16.24 3.32-21.17 6.76-4.92 16.24-3.44 21.17 3.32zm-103.81 39.16c6.76-4.92 16.24-3.44 21.17 3.32 4.92 6.76 3.44 16.24-3.32 21.17s-16.24 3.44-21.17-3.32-3.44-16.24 3.32-21.17zm26.31-63.38c6.76-4.93 16.24-3.44 21.17 3.32s3.44 16.23-3.32 21.16-16.24 3.44-21.17-3.32c-4.92-6.76-3.44-16.23 3.32-21.16zm32.98 74.9c6.76-4.93 16.24-3.44 21.16 3.32 4.93 6.76 3.45 16.24-3.31 21.17-6.77 4.92-16.24 3.44-21.17-3.32s-3.44-16.24 3.32-21.17zm375.91 140.69c19.58-19.99 29.57-47.3 28.89-78.97-1.32-62.3-40.3-91.21-89.63-127.82-32.52-24.13-69.37-51.48-98.06-92.7-37.37-53.69-104.17-56.41-117.18-56.41-1.71 0-3.16.04-4.31.1-20.8 1.04-68.77 3.43-117.66 63.68-28.49 35.1-62.65 59.05-92.8 80.18-51.31 35.97-91.84 64.38-94.41 131.48-1.12 29.16 6.53 52.67 22.73 69.86 27.17 28.85 68.95 31.17 77.05 31.35 8.51.17 16.11-.26 23.01-1.21 5.13-.7 9.83-1.72 14.26-2.96 6.28-1.76 11.96-4.03 17.26-6.7 12.59-6.36 23.12-14.99 34.78-24.66 14.37-11.89 30.61-25.24 53.68-36.71 1.68-.84 3.3-1.69 5.05-2.5 1.57-.72 3.1-1.49 4.61-2.28 3.32-1.75 6.51-3.66 9.53-5.7 2.42-1.65 4.72-3.39 6.92-5.19.67-.55 1.33-1.09 1.97-1.65 4.29-3.72 8.07-7.71 11.27-11.85 3.01-3.9 5.5-7.93 7.36-12.01 2.46-5.4 3.88-10.87 3.97-16.15-.01-.57.01-1.01.01-1.01.03-.55.14-1.08.24-1.6-.4-29.65-.77-91.24-.88-111.68-29.8-6.54-63.05-37.98-57.13-67.59 6.72-33.57 68.82-35.25 68.82-35.25s73.86-3.18 73.86 40.47c0 36.8-36.9 57.52-63.43 62.46.13 22.88.56 96.69 1.01 119.99.32 2.64.92 5.93 1.99 9.65 1.02 3.51 2.48 7.36 4.54 11.35 2 3.9 4.61 7.9 7.95 11.82 5.63 6.6 13.34 12.93 24.06 17.9 19.36 8.99 32.64 22.08 45.48 34.73 14.47 14.25 28.4 27.95 51.24 37.23 4.84 1.97 10.13 3.72 15.86 5.25 2.17.58 4.41 1.13 6.73 1.64 2.33.51 4.73 1 7.21 1.44 2.08.36 4.15.73 6.35 1.04.04.01.08.01.13.02 1.1.16 2.2.26 3.3.39 3.18.37 6.34.66 9.47.82 33.61 1.7 64.16-9.06 84.9-30.25z" fill="#b2b4b1"/><path d="m2045.77 1135.94c10.83 0 19.61-6.2 19.61-13.85s-8.78-13.85-19.61-13.85c-10.84 0-19.62 6.2-19.62 13.85s8.78 13.85 19.62 13.85" fill="#fffffe"/><g fill="#1b1a19"><path d="m2138.97 1189.13c-7.19-4.26-16.49-1.89-20.75 5.31-4.27 7.2-1.89 16.49 5.31 20.76 7.2 4.26 16.49 1.88 20.75-5.31 4.27-7.2 1.89-16.49-5.31-20.76"/><path d="m2084.88 1215.28c-7.2-4.26-16.49-1.89-20.76 5.31-4.26 7.2-1.88 16.49 5.31 20.75 7.2 4.27 16.49 1.89 20.76-5.31 4.26-7.19 1.89-16.48-5.31-20.75"/><path d="m2117.44 1262.62c-7.19-4.26-16.49-1.89-20.75 5.31-4.27 7.2-1.89 16.49 5.31 20.75 7.2 4.27 16.49 1.89 20.75-5.3 4.27-7.2 1.89-16.49-5.31-20.76"/><path d="m2175.37 1245.53c-7.19-4.26-16.49-1.88-20.75 5.32-4.27 7.19-1.89 16.48 5.31 20.75 7.2 4.26 16.49 1.89 20.75-5.31 4.27-7.2 1.89-16.49-5.31-20.76"/><path d="m1888.15 1195.52c-6.76 4.93-8.24 14.4-3.32 21.16 4.93 6.76 14.41 8.25 21.17 3.32s8.25-14.4 3.32-21.16-14.41-8.25-21.17-3.32"/><path d="m1944.48 1216.42c-6.76 4.93-8.24 14.41-3.32 21.17 4.93 6.76 14.41 8.25 21.17 3.32s8.25-14.41 3.32-21.17-14.41-8.24-21.17-3.32"/><path d="m1921.13 1270.42c-6.76 4.93-8.25 14.41-3.32 21.17s14.4 8.24 21.17 3.32c6.76-4.93 8.24-14.41 3.31-21.17-4.92-6.76-14.4-8.25-21.16-3.32"/><path d="m1861.84 1258.9c-6.76 4.93-8.25 14.41-3.32 21.17s14.41 8.25 21.17 3.32 8.24-14.41 3.32-21.17c-4.93-6.76-14.41-8.24-21.17-3.32"/></g><path d="m1671.07 848.563c-1.21 0-2.51-.169-3.84-.503-3.71-.929-6.26-2.864-8.25-6.275-7.79-13.322-2.58-41.672-.14-50.542.07-.24.13-.484.18-.728 7.53-36.681 3.81-60.869-2.74-93.58l-.58-2.899c-4.61-22.883-12.32-61.18 1.24-80.631 4.74-6.814 11.97-10.897 22.1-12.478 1.97-.309 3.93-.464 5.84-.464 38.73 0 65.5 65.467 72.14 111.954 4.9 34.296-2.26 53.892-25.53 69.893-12.1 8.319-21 22.138-29.62 35.501-10.19 15.814-19.81 30.752-30.8 30.752zm49.39-18.769c7.44-11.532 15.12-23.454 23.56-29.26 30.19-20.751 40.95-48.892 34.9-91.245-7.52-52.635-38.76-130.943-94.04-130.943-3.04 0-6.16.246-9.26.728-16.17 2.529-28.57 9.825-36.83 21.687-18.96 27.201-10.08 71.295-4.77 97.638l.57 2.875c6.18 30.849 9.45 51.968 2.83 84.446-1.6 5.933-11.09 43.974 2.44 67.189 4.96 8.503 12.57 14.246 22.01 16.607 3.08.773 6.18 1.164 9.2 1.164 23.04 0 37.04-21.722 49.39-40.886z" fill="#cbbab4"/><path d="m1786.26 1053.43c0 9.36-4.91 16.94-10.96 16.94-6.06 0-10.97-7.58-10.97-16.94s4.91-16.94 10.97-16.94c6.05 0 10.96 7.58 10.96 16.94zm-44.43 73.64c43.38 19.28 67.48-31.34 67.48-31.34s7.23-74.71-38.56-84.36c-60.13-12.655-58.31 102.64-28.92 115.7z" fill="#1b1a19"/><path d="m2288.31 1036.49c6.06 0 10.96 7.58 10.96 16.94s-4.9 16.94-10.96 16.94c-6.05 0-10.96-7.58-10.96-16.94s4.91-16.94 10.96-16.94zm12.86 90.58c29.39-13.06 31.21-128.355-28.92-115.7-45.79 9.65-38.56 84.36-38.56 84.36s24.1 50.62 67.48 31.34z" fill="#1b1a19"/><path d="m2292.94 712.417c6.64-46.487 33.42-111.954 72.14-111.954 1.91 0 3.88.155 5.85.464 10.12 1.581 17.35 5.664 22.1 12.48 13.56 19.456 5.84 57.757 1.23 80.642l-.58 2.886c-6.54 32.724-10.26 56.916-2.73 93.582.05.244.11.486.18.726 2.45 8.846 7.69 37.119-.13 50.525-1.99 3.421-4.54 5.361-8.27 6.292-1.33.334-2.63.503-3.84.503-10.98 0-20.6-14.935-30.8-30.75-8.61-13.365-17.51-27.184-29.62-35.503-23.27-16.001-30.43-35.597-25.53-69.893zm13.01 88.117c8.44 5.806 16.12 17.731 23.56 29.26 12.35 19.164 26.35 40.886 49.38 40.886 3.02 0 6.12-.391 9.21-1.164 9.44-2.361 17.05-8.104 22.01-16.61 13.53-23.216 4.04-61.259 2.43-67.186-6.61-32.463-3.34-53.586 2.83-84.446l.57-2.857c5.31-26.348 14.19-70.446-4.76-97.654-8.27-11.864-20.66-19.16-36.84-21.689-3.09-.482-6.21-.728-9.26-.728-55.26 0-86.51 78.308-94.03 130.943-6.05 42.355 4.71 70.496 34.9 91.245z" fill="#cbbab4"/><path d="m1949.06 1020.27c2.01 0 4.04-.55 5.86-1.68.56-.35 56.19-34.3 123.06-4.33 5.57 2.5 12.11.01 14.61-5.57 2.5-5.57.01-12.11-5.57-14.609-77.52-34.752-141.15 4.08-143.83 5.749-5.17 3.24-6.75 10.06-3.51 15.24 2.1 3.36 5.7 5.2 9.38 5.2" fill="#1b1a19"/><path d="m2544.59 2115.75c-2.25 2.63-4.9 4.94-7.88 6.97.44-17.72-9.02-31.72-9.58-32.52-3.49-5.02-10.39-6.25-15.39-2.77-5.02 3.49-6.26 10.38-2.77 15.4.1.15 9.8 14.82 3.44 28.69-20.08 3.2-47.63.77-83.84-7.27-8.8-1.96-16.7-4.31-23.51-6.65 45.81-14.53 79.52-41 99.62-78.81.58.05 1.16.1 1.76.06 18.14-1.2 36.87 10.12 45.57 27.5 4.81 9.59 10.23 28.76-7.42 49.4zm-239.69-7.17c17.87-39.7 75.12-170.46 85.23-238.57.9-6.04-3.27-11.66-9.31-12.56-6.01-.9-11.66 3.27-12.56 9.31-11.3 76.06-87.92 242.41-88.69 244.09-2.1 4.52-.89 9.9 2.93 13.11.29.24 28.69 24.75 13.93 70.89-8.73 27.23-27.69 33.23-41.13 33.79 2.42-4.95 3.72-9.8 4.1-13.77.58-6.08-3.88-11.48-9.96-12.06-6.09-.62-11.48 3.88-12.06 9.96-.09.92-2.59 22.59-35.65 20.78-14.47-.79-18.04-13.34-17.87-20.63.14-6.1-4.69-11.17-10.8-11.31-6.19-.28-11.16 4.69-11.31 10.79-.13 5.42.73 10.89 2.51 16.06-14.6 1.89-25.77-1.58-33.25-10.4-14.5-17.07-15.01-52.91-2.32-99.56.63-1.26 1.03-2.63 1.14-4.07 3.76-13.21 8.49-27.21 14.3-41.91 50.03-126.57 39.96-268.53 39.5-274.51-.46-6.09-5.77-10.65-11.86-10.19-6.08.46-10.65 5.77-10.19 11.86.11 1.41 10.09 142.98-38.02 264.71-5.5 13.93-10.09 27.23-13.86 39.9-20.44 4.18-53.43 6.41-76.57 6.11-39.95-.46-73.2-3.96-94.24-9.88-3.55-11.55-7.73-23.57-12.69-36.13-48.11-121.73-38.12-263.3-38.01-264.71.46-6.09-4.11-11.4-10.2-11.86-6.11-.45-11.4 4.1-11.86 10.19-.45 5.98-10.53 147.94 39.5 274.51 27.19 68.8 32.1 123.21 13.13 145.54-7.49 8.82-18.66 12.3-33.27 10.4 1.79-5.17 2.65-10.64 2.52-16.06-.13-6.02-5.06-10.8-11.05-10.8-.08 0-.17 0-.26.01-6.1.14-10.94 5.2-10.79 11.31.16 7.29-3.41 19.84-17.87 20.63-31.28 1.74-35.18-17.06-35.67-20.91-.64-6.01-6.03-10.42-12.05-9.83-6.08.58-10.54 5.98-9.95 12.06.38 3.96 1.66 8.79 4.07 13.74-13.37-.61-32.41-6.62-41.1-33.77-14.59-45.56 12.81-69.92 13.92-70.88 3.81-3.2 5.02-8.55 2.95-13.07-.63-1.39-63.74-140-89.73-239.62-1.54-5.91-7.59-9.44-13.49-7.91-5.91 1.55-9.45 7.59-7.91 13.5 23 88.17 74.23 205.6 87.71 235.85-31.85-1.88-89.03-9.01-119.27-25.14-39.85-21.27-63.9-53.14-71.48-94.73-16.76-91.88 49.59-203.76 74.33-231.98 1.58-1.79 2.53-4.04 2.71-6.42 10.15-129.46 51.57-232.03 73.71-278.86 34.55 16.9 73.55 19.79 106.9 18.29-6.2 37.88-1.87 76.85 13.09 113.25 21.3 51.83 61.52 92.27 113.24 113.86 25.81 10.77 52.98 16.24 80.73 16.24 84.95 0 160.98-50.65 193.7-129.04 14.06-33.69 18.97-69.62 14.83-104.92 37.66-.49 80.41-6.57 116.83-27.33 14.69 35.87 55.39 145.67 46.93 242.35-.34 3.92 1.43 7.73 4.64 10 73.9 52.16 131.54 195.09 93.47 287.55-32.09 77.92-117.98 93.67-186.25 92.75zm-728.06 46.93c-3.23.05-6.85-.01-10.65-.21-6.54-11.63-3.2-27.35-3.13-27.71 1.37-5.93-2.33-11.85-8.26-13.24-5.96-1.39-11.9 2.31-13.28 8.26-.19.79-3.14 13.93-.08 28.6-11.84-3.74-21.99-10.5-25.22-22.43-6.41-23.76-.13-41.05 19.22-52.86 12.83-7.84 31.7-4.22 32.05-4.16 1.15.24 2.29.23 3.4.11 12.51 13.66 27.9 25.43 46.22 35.21 16.63 8.87 38.85 14.99 60.38 19.19-12.44 10.55-52.04 28.56-100.65 29.24zm635.3-714.15c-3.13-.16-6.29-.45-9.47-.82-1.1-.13-2.2-.23-3.3-.39-.05-.01-.09-.01-.13-.02-2.2-.31-4.27-.68-6.35-1.04-2.48-.44-4.88-.93-7.21-1.44-2.32-.51-4.56-1.06-6.73-1.64-5.73-1.53-11.02-3.28-15.86-5.25-22.84-9.28-36.77-22.98-51.24-37.23-12.84-12.65-26.12-25.74-45.48-34.73-10.72-4.97-18.43-11.3-24.06-17.9-3.34-3.92-5.95-7.92-7.95-11.82-2.06-3.99-3.52-7.84-4.54-11.35-1.07-3.72-1.67-7.01-1.99-9.65-.45-23.3-.88-97.11-1.01-119.99 26.53-4.94 63.43-25.66 63.43-62.46 0-43.65-73.86-40.47-73.86-40.47s-62.1 1.68-68.82 35.25c-5.92 29.61 27.33 61.05 57.13 67.59.11 20.44.48 82.03.88 111.68-.1.52-.21 1.05-.24 1.6 0 0-.02.44-.01 1.01-.09 5.28-1.51 10.75-3.97 16.15-1.86 4.08-4.35 8.11-7.36 12.01-3.2 4.14-6.98 8.13-11.27 11.85-.64.56-1.3 1.1-1.97 1.65-2.2 1.8-4.5 3.54-6.92 5.19-3.02 2.04-6.21 3.95-9.53 5.7-1.51.79-3.04 1.56-4.61 2.28-1.75.81-3.37 1.66-5.05 2.5-23.07 11.47-39.31 24.82-53.68 36.71-11.66 9.67-22.19 18.3-34.78 24.66-5.3 2.67-10.98 4.94-17.26 6.7-4.43 1.24-9.13 2.26-14.26 2.96-6.9.95-14.5 1.38-23.01 1.21-8.1-.18-49.88-2.5-77.05-31.35-16.2-17.19-23.85-40.7-22.73-69.86 2.57-67.1 43.1-95.51 94.41-131.48 30.15-21.13 64.31-45.08 92.8-80.18 48.89-60.25 96.86-62.64 117.66-63.68 1.15-.06 2.6-.1 4.31-.1 13.01 0 79.81 2.72 117.18 56.41 28.69 41.22 65.54 68.57 98.06 92.7 49.33 36.61 88.31 65.52 89.63 127.82.68 31.67-9.31 58.98-28.89 78.97-20.74 21.19-51.29 31.95-84.9 30.25zm-185.99-319.27c0-7.65 8.78-13.85 19.62-13.85 10.83 0 19.61 6.2 19.61 13.85s-8.78 13.85-19.61 13.85c-10.84 0-19.62-6.2-19.62-13.85zm167.89 477.57c-16.85 40.35-46.53 72.46-83.17 92.48-3.7 2.02-7.46 3.92-11.3 5.69-.43.2-.86.39-1.3.58-4.18 1.9-8.44 3.64-12.77 5.22-20.35 7.45-42.19 11.47-64.75 11.47-24.81 0-49.11-4.89-72.22-14.53-44.03-18.39-78.71-52.07-98.39-95.25-.99-2.19-1.99-4.38-2.9-6.61-.85-2.07-1.62-4.16-2.39-6.24-.17-.46-.36-.9-.52-1.36-1.43-3.93-2.7-7.89-3.86-11.87-8.25-28.5-9.6-58.19-4.03-87.06 1.49-7.7 3.49-15.34 5.96-22.89 1.56-4.78 3.27-9.53 5.23-14.23.67-1.59 1.37-3.16 2.08-4.73 28.66-6.65 46.64-21.45 65.37-36.96 7.08-5.86 14.3-11.81 22.34-17.59 9.09-6.54 19.25-12.87 31.59-18.59.62-.29 1.25-.64 1.87-.94 3.43-1.67 6.86-3.52 10.24-5.59s6.68-4.37 9.91-6.81c9-6.81 17.23-14.94 23.56-24.11.12 0 .23 0 .35-.01 7.25 13.98 19.93 28.83 42.11 39.13 15.89 7.38 27.25 18.57 39.28 30.42 12.5 12.32 26.01 25.57 45.8 36.02 3.48 1.84 7.11 3.6 11.01 5.25 3.89 1.63 8.06 3.14 12.42 4.54 6.07 1.95 12.6 3.68 19.73 5.08 3.48.69 7.06 1.32 10.82 1.86.22.03.43.04.65.07 2.28 6.13 4.24 12.34 5.86 18.59 1.91 7.37 3.35 14.81 4.35 22.28 4.31 32.48.02 65.65-12.93 96.69zm-533.7-200.35c-53.76-106.3 15.1-207.56 15.79-208.56 1.81-2.59 2.43-5.84 1.69-8.91-37.79-157.28 12.92-265.84 18.83-277.702 2.72-5.466.49-12.106-4.97-14.827-5.47-2.724-12.11-.497-14.83 4.97-1.72 3.453-7.03 14.654-12.99 32.449-10.49.365-41.2-1.136-55.55-29.516-13.22-26.141-10.19-53.476-6.34-88.083 3.35-30.1 7.14-64.215.68-105.043l-.73-4.613c-10.49-65.893-21.33-134.028 51.57-162.745 26.47-10.43 54.7-7.212 81.64 9.318 52.96 32.505 90.3 108.673 100.43 204.346-32.95 11.896-45.71 23.691-46.73 24.682-4.36 4.21-4.48 11.102-.32 15.506 4.16 4.402 11.13 4.602 15.59.488.48-.441 49.52-43.979 215.65-43.979 167.4 0 216.22 51.197 216.61 51.631 2.19 2.488 5.24 3.758 8.32 3.758 2.59 0 5.19-.907 7.29-2.751 4.59-4.031 5.04-11.018 1.01-15.607-.95-1.077-11.83-12.945-39.42-25.769 10.04-99.819 48-178.975 102.03-212.256 26.71-16.453 54.68-19.689 80.88-9.367 72.9 28.717 62.06 96.852 51.58 162.745l-.73 4.613c-6.47 40.826-2.67 74.943.67 105.04 3.85 34.608 6.89 61.943-6.34 88.088-12.84 25.402-38.52 29.41-52.68 29.54-.2.002-.39.053-.59.065-3.79-10.223-8.15-20.382-13.26-30.387-2.78-5.439-9.45-7.588-14.88-4.814-5.44 2.779-7.6 9.44-4.82 14.879 63.51 124.281 10.1 279.401 9.55 280.951-1.25 3.57-.6 7.53 1.72 10.5.64.81 63.11 82.3 30.31 181.05-28.47 85.66-107.06 102.31-171.48 102.33-1.35-5.92-2.95-11.8-4.82-17.64 36.28-.3 68.97-13.43 92.15-37.11 23.48-23.99 35.99-57.7 35.19-94.91-1.55-73.13-48.67-108.1-98.56-145.12-32.68-24.24-66.46-49.31-93.09-87.56-42.55-61.14-114.34-65.9-135.33-65.9-2.15 0-3.97.06-5.74.14-21.41 1.07-78.3 3.92-133.4 71.82-26.55 32.7-57.95 54.72-88.32 76.01-51.85 36.35-100.83 70.68-103.82 148.74-1.36 35.31 8.31 64.2 28.73 85.88 25.74 27.32 64.75 37.69 92.67 38.29 4.66.1 9.01-.02 13.24-.24-2.2 5.88-4.13 11.82-5.79 17.8-34.3 2.23-74.69-.07-108.47-19.18-.88-.94-1.91-1.77-3.13-2.37-.71-.36-1.45-.62-2.19-.81-17.52-11.1-32.99-27.09-44.5-49.86zm911.45 657.13c-11.3-22.56-33.64-37.6-57.43-39.55 36.31-101.6-22.27-244.55-98.8-302.92 6.95-103.95-37.47-218.98-50.68-250.54 22.61-17.6 41.48-42.47 53.1-77.46 32.11-96.63-16.21-176.39-30.3-196.74 8.22-25.89 38.43-134.19 7.85-240.638 17.8-1.351 49.27-8.591 65.86-41.396 16.19-32.021 12.67-63.76 8.58-100.51-3.19-28.711-6.8-61.254-.8-99.138l.73-4.598c10.17-63.966 24.1-151.57-65.32-186.799-32.47-12.786-68.19-8.838-100.59 11.117-58.64 36.12-100 118.766-111.75 222.382-36.14-12.989-91.18-24.676-172.49-24.676-74.6 0-126.9 8.543-162.67 18.574-11.58-100.372-52.47-180.81-110.38-216.351-32.61-20.009-68.58-23.938-101.31-11.046-89.43 35.229-75.49 122.833-65.32 186.799l.73 4.598c6 37.884 2.38 70.427-.81 99.14-4.08 36.75-7.61 68.487 8.58 100.508 17.35 34.304 50.26 40.795 68.63 41.588-13.64 50.536-25.32 132.506-1.99 233.546-13.63 21.66-68.57 120.26-14.6 226.97 12.41 24.54 28.72 42.26 47.04 55-22.35 46.93-65.29 151.91-76.33 284.83-29.1 35.29-94.94 149.48-77.04 247.67 3.49 19.18 10 36.54 19.38 52.08-9.06.36-20.07 2.25-29.74 8.16-27.67 16.89-37.98 44.42-29.05 77.51 7.52 27.84 35.74 43.09 79.59 43.09.89 0 1.78 0 2.68-.02 44.46-.61 112.38-19.19 124.52-47.31 12.55 1.77 23.87 2.92 32.43 3.64-6.96 15.9-11.11 38.6-1.81 67.63 13.38 41.82 44.96 48.94 64.9 48.94 8.36 0 14.61-1.24 16.69-1.71 7.71 4.21 17.63 6.97 30.31 6.97 1.64 0 3.33-.05 5.06-.14 9.02-.5 16.46-3.42 22.36-7.82.93.51 1.91.94 3 1.18 6.26 1.35 12.29 2.03 18.02 2.03 17.66 0 32.57-6.37 42.99-18.65 18.18-21.39 21.34-58.68 9.9-107.55 22.4 4.6 52.63 7.29 87.37 7.69 1.32.01 2.67.02 4.04.02 19.99 0 46.08-1.59 66.65-4.72-10.62 47.4-7.22 83.61 10.58 104.56 10.42 12.28 25.33 18.65 42.99 18.65 5.74 0 11.77-.68 18.02-2.03 1.09-.24 2.07-.67 3-1.18 5.9 4.4 13.34 7.32 22.37 7.82 1.73.09 3.41.14 5.05.14 12.68 0 22.6-2.76 30.32-6.97 2.07.47 8.32 1.71 16.68 1.71 19.94 0 51.53-7.12 64.91-48.94 9.95-31.09 4.48-54.92-3.34-70.91 19.5-.16 37.75-1.67 54.75-4.48 5.27 2.84 25.62 13.15 54.88 19.65 27.42 6.09 50.54 9.17 69.94 9.17 31.67 0 53.42-8.2 67.68-24.89 18.67-21.83 22.56-49.38 10.39-73.68z" fill="#1b1a19"/></g></svg>