<?xml version="1.0" encoding="UTF-8"?>
<svg width="1400px" height="1400px" viewBox="0 0 1400 1400" version="1.1" xmlns="http://www.w3.org/2000/svg" xmlns:xlink="http://www.w3.org/1999/xlink">
    <!-- Generator: Sketch 63.1 (92452) - https://sketch.com -->
    <desc>Created with Sketch.</desc>
    <g id="Page-1" stroke="none" stroke-width="1" fill="none" fill-rule="evenodd">
        <g id="417" transform="translate(-25.000000, -711.000000)">
            <polygon id="Fill-1" points="0.06 2800 2800 2800 2800 0.04 0.06 0.04"></polygon>
            <path d="M685.026,848.404 C678.505,850.739 650.06,864.537 662.928,924.495 C668.157,948.858 670.158,974.975 672.094,1000.23 C676.339,1055.71 680.351,1108.11 720.057,1124.11 C728.104,1127.35 735.683,1129 742.584,1129 C742.584,1129 742.584,1129 742.589,1129 C770.125,1129 781.267,1104.65 789.399,1086.87 C791.884,1081.45 794.229,1076.32 796.614,1072.71 C800.805,1066.36 805.565,1061.98 810.17,1057.74 C819.021,1049.59 828.172,1041.16 828.277228,1022.96 C828.376,1004.47 796.285,911.425 752.622,867.516 C729.946,844.719 706.445,838.208 685.026,848.404" id="Fill-3" fill="#CCBBB5"></path>
            <path d="M1168.75,906.797 C1168.93,825.904 1166.97,795.848 1155.57,788.334 C1152.04,786.004 1147.75,785.632 1143.8,787.336 C1124.88,795.506 1115.23,864.899 1110.47,921.673 C1110.43,922.155 1110.46,922.623 1110.5,923.091 C1116.27,924.666 1121.91,926.382 1127.39,928.251 C1135.22,930.921 1142.73,933.872 1149.92,937.064 C1156.65,940.052 1163.1,943.242 1169.23,946.609 C1168.68,939.664 1168.71,922.349 1168.75,906.797" id="Fill-4" fill="#CCBBB5"></path>
            <path d="M1110.47,921.673 C1115.23,864.899 1124.88,795.506 1143.8,787.336 C1147.75,785.632 1152.04,786.004 1155.57,788.334 C1166.97,795.848 1168.93,825.904 1168.75,906.797 C1168.71,922.349 1168.68,939.664 1169.23,946.609 C1173.86,949.152 1178.34,951.781 1182.61,954.502 C1182.22,943.981 1182.42,930.224 1182.74,912.323 C1183.7,860.675 1185.13,782.626 1162.59,760.85 C1158.61,757.013 1154.17,755.347 1148.65,755.656 C1101.37,758.169 1082.43,864.992 1078.02,916.183 C1089.28,917.92 1100.11,920.26 1110.5,923.091 C1110.46,922.623 1110.43,922.155 1110.47,921.673" id="Fill-5" fill="#FFFFFE"></path>
            <path d="M1102.43,1872.6 C1102.66,1872.75 1104.72,1874.15 1107.37,1876.61 C1103.84,1863.35 1093.04,1855.45 1081.89,1852 C1071.89,1860.8 1057.85,1863.1 1056.08,1863.36 C1055.65,1863.42 1055.24,1863.45 1054.83,1863.45 C1050.65,1863.45 1047,1860.39 1046.38,1856.15 C1045.69,1851.48 1048.91,1847.15 1053.57,1846.45 C1056.87,1845.95 1065.65,1843.66 1070.81,1838.93 C1071.36,1826.88 1073.48,1783.87 1076.8,1755.46 C1079.76,1730.11 1083.23,1661.34 1083.52,1611.16 C1049.93,1678.99 1010.56,1723.53 970.322,1752.2 C970.516,1752.93 970.65,1753.69 970.639,1754.49 C970.629,1755.01 970.185,1807.5 995.641,1874.39 C995.935,1875.16 996.115,1875.97 996.175,1876.79 C997.003,1887.78 1007.04,1908.95 1023.74,1920.12 C1033.76,1926.83 1044.81,1929 1056.63,1926.74 C1056.47,1925.74 1056.46,1924.69 1056.68,1923.64 C1057.47,1919.77 1053.2,1911.33 1049.95,1906.96 C1047.13,1903.18 1047.91,1897.82 1051.69,1895 C1055.46,1892.19 1060.83,1892.95 1063.65,1896.74 C1065.63,1899.4 1074.95,1912.65 1073.73,1924.97 C1079.15,1924.62 1086.72,1922.97 1093.36,1918.41 C1098.2,1915.09 1101.78,1910.54 1104.34,1905.06 C1104,1904.3 1103.74,1903.49 1103.64,1902.62 C1102.54,1893.42 1093.06,1886.9 1092.97,1886.84 C1089.08,1884.2 1088.02,1878.9 1090.63,1874.99 C1093.25,1871.09 1098.51,1870.01 1102.43,1872.6" id="Fill-6" fill="#FFFFFE"></path>
            <path d="M493.712,1807.43 C493.179,1807.17 492.675,1806.85 492.211,1806.48 C478.669,1795.83 480.46,1756.33 481.719,1743.6 C480.164,1742.91 478.619,1742.24 477.053,1741.54 C450.372,1729.57 427.362,1721.28 407.922,1715.43 C409.284,1730.04 414.24,1761.42 432.393,1795.32 C432.662,1795.83 432.882,1796.36 433.046,1796.9 C439.173,1817.39 442.596,1826.64 459.555,1831.25 C466.828,1833.22 473.115,1834.4 478.603,1835.04 C478.441,1833.37 477.809,1831.43 475.99,1829.82 C472.972,1827.17 472.677,1822.56 475.337,1819.55 C477.991,1816.53 482.591,1816.24 485.61,1818.9 C491.183,1823.8 493.033,1829.95 493.207,1835.18 C498.526,1834.43 501.941,1832.74 503.182,1830.43 C503.482,1829.88 503.841,1829.36 504.255,1828.88 C504.25,1828.88 507.818,1824.47 506.8,1819.73 C505.887,1815.46 501.361,1811.2 493.712,1807.43" id="Fill-7" fill="#FFFFFE"></path>
            <path d="M1234.96,1269.59 C1241.56,1270.74 1245.99,1277.02 1244.84,1283.62 C1243.7,1290.22 1237.41,1294.65 1230.81,1293.5 C1224.21,1292.36 1219.78,1286.07 1220.93,1279.47 C1222.08,1272.87 1228.36,1268.44 1234.96,1269.59 Z M1212.02,1240.35 C1210.88,1246.95 1204.59,1251.37 1197.99,1250.23 C1191.39,1249.08 1186.96,1242.8 1188.11,1236.2 C1189.26,1229.6 1195.54,1225.17 1202.14,1226.32 C1208.74,1227.46 1213.17,1233.75 1212.02,1240.35 Z M1207.03,1326.05 C1205.88,1332.65 1199.6,1337.07 1193,1335.93 C1186.39,1334.78 1181.97,1328.5 1183.12,1321.9 C1184.26,1315.29 1190.54,1310.87 1197.15,1312.02 C1203.75,1313.16 1208.17,1319.44 1207.03,1326.05 Z M1174.71,1282.22 C1173.56,1288.82 1167.28,1293.25 1160.68,1292.1 C1154.08,1290.95 1149.65,1284.67 1150.8,1278.07 C1151.94,1271.47 1158.23,1267.04 1164.83,1268.19 C1171.43,1269.34 1175.86,1275.62 1174.71,1282.22 Z M1335.1,1322.39 C1332.78,1310.7 1330.19,1297.65 1328.96,1276.26 C1326.27,1279.47 1322.03,1281.23 1317.62,1280.47 C1311.01,1279.32 1306.59,1273.04 1307.73,1266.44 C1308.88,1259.83 1315.16,1255.41 1321.76,1256.55 C1324.3,1256.99 1326.5,1258.2 1328.2,1259.88 C1327.77,1251.09 1327.11,1242.65 1326.18,1234.63 C1321.1,1232.48 1317.97,1227.08 1318.96,1221.41 C1319.47,1218.48 1321.02,1216.02 1323.14,1214.24 C1316.52,1178.69 1304.26,1153.01 1287.23,1140.04 C1277.72,1132.79 1266.69,1129.19 1253.85,1129.19 C1247.55,1129.19 1240.82,1130.06 1233.6,1131.79 C1192.23,1141.7 1171.07,1173.87 1146.57,1211.12 C1125.9,1242.54 1102.48,1278.15 1062.79,1307.06 C992.792,1358.05 965.116,1415.87 990.572,1457.96 C1000.01,1473.56 1020.64,1491.36 1050.25,1494.53 C1077.99,1497.53 1122.7,1488.64 1178.53,1429.58 C1193.22,1414.04 1206.23,1404.84 1217.7,1396.73 C1240.47,1380.63 1255.5,1369.99 1267.51,1319.78 C1267.52,1319.71 1267.54,1319.64 1267.56,1319.57 C1274.42,1290.66 1270.36,1240.61 1268.48,1221.88 C1268.2,1221 1268.03,1220.07 1268.03,1219.11 C1266.65,1215.79 1256.31,1209.17 1250.71,1205.58 C1237.8,1197.3 1225.59,1189.48 1228.06,1177.48 C1230.99,1163.31 1254.55,1156.71 1269.55,1156.71 C1286.65,1156.71 1298.55,1164.44 1301.37,1177.37 C1305.99,1198.52 1294.08,1215.14 1287.57,1222.36 C1289.56,1242.7 1292.98,1288.87 1286.88,1319.8 C1294.99,1332.98 1296.14,1353.57 1297.27,1373.54 C1297.88,1384.49 1299.33,1410.11 1303.98,1411.81 C1306.67,1412.78 1310,1411.88 1313.87,1409.06 C1327.46,1399.12 1340.03,1371.23 1339.26,1352.74 C1338.75,1340.76 1337.06,1332.24 1335.1,1322.39 L1335.1,1322.39 Z" id="Fill-8" fill="#B3B5B2"></path>
            <path d="M973.927,1129.5 C981.666,1124.76 989.399,1122.35 996.908,1122.35 C1033.64,1122.35 1047.81,1176.67 1049.3,1182.86 C1049.63,1184.22 1049.65,1185.64 1049.37,1187.01 C1048.98,1188.88 1039.41,1232.89 999.273,1237.41 C998.076,1237.55 996.898,1237.61 995.731,1237.61 C995.726,1237.61 995.726,1237.61 995.726,1237.61 C977.924,1237.61 962.606,1222.51 955.746,1198.2 C949.08,1174.57 951.929,1143 973.927,1129.5 Z M810.17,1057.74 C805.565,1061.98 800.805,1066.36 796.614,1072.71 C794.229,1076.32 791.884,1081.45 789.399,1086.87 C781.267,1104.65 770.125,1129 742.589,1129 C742.584,1129 742.584,1129 742.584,1129 C735.683,1129 728.104,1127.35 720.057,1124.11 C680.351,1108.11 676.339,1055.71 672.094,1000.23 C670.158,974.975 668.157,948.858 662.928,924.495 C650.06,864.537 678.505,850.739 685.026,848.404 C706.445,838.208 729.946,844.719 752.622,867.516 C796.285,911.425 828.376,1004.47 828.277228,1022.96 C828.172,1041.16 819.021,1049.59 810.17,1057.74 Z M779.381,1982.52 C764.168,1990.01 755.885,1991.64 754.992,1991.79 C754.483,1991.89 753.974,1991.93 753.476,1991.93 C749.414,1991.93 745.812,1989.03 745.073,1984.89 C744.245,1980.26 747.304,1975.84 751.919,1974.98 C752.173,1974.93 759.024,1973.49 771.827,1967.18 C776.038,1965.1 781.177,1966.84 783.272,1971.07 C785.358,1975.3 783.617,1980.43 779.381,1982.52 Z M1156.52,1087.78 C1157.75,1086.91 1187.17,1066.74 1220.76,1075.65 C1225.82,1076.99 1228.83,1082.17 1227.49,1087.23 C1226.15,1092.28 1220.97,1095.27 1215.91,1093.95 C1190.73,1087.29 1167.6,1103.15 1167.37,1103.31 C1165.71,1104.46 1163.82,1105.01 1161.95,1105.01 C1158.96,1105.01 1156.02,1103.6 1154.18,1100.96 C1151.19,1096.67 1152.23,1090.77 1156.52,1087.78 Z M1276.88,1354.09 C1264.21,1387.04 1248.04,1398.47 1228.64,1412.19 C1217.88,1419.8 1205.69,1428.42 1192.29,1442.59 C1137.97,1500.04 1091.72,1513.97 1059.67,1513.97 C1055.62,1513.97 1051.81,1513.75 1048.23,1513.36 C1017.25,1510.04 989.634,1493 974.366,1467.76 C943.362,1416.5 972.974,1349.06 1051.65,1291.75 C1088.55,1264.86 1110,1232.25 1130.75,1200.71 C1156.34,1161.8 1180.53,1125.03 1229.19,1113.37 C1240.69,1110.61 1251.44,1109.81 1261.48,1110.74 C1256.31,1085.01 1239.26,1022.91 1190.37,983.34 C1161.77,960.194 1119.88,940.701 1069.18,934.01 C1068.58,934.095 1067.96,934.13 1067.33,934.097 C1066.31,934.035 1065.35,933.773 1064.45,933.417 C1011.78,927.366 949.931,935.227 883.728,966.928 C888.481,983.287 892.263,1000.1 894.905,1017.17 C895.703,1022.34 892.161,1027.17 886.992,1027.98 C881.813,1028.77 876.988,1025.23 876.185,1020.06 C860.927,921.469 806.997,832.096 741.98,797.674 C712.827,782.245 684.522,780.211 660.109,791.814 C632.622,804.869 590.716,840.481 618.901,932.286 C629.943,968.242 631.814,1011.51 633.461,1049.68 C634.932,1083.78 636.32,1115.98 643.918,1135.49 C662.708,1183.77 712.962,1181.59 713.471,1181.56 C718.655,1181.27 723.155,1185.28 723.439,1190.5 C723.724,1195.73 719.717,1200.19 714.498,1200.47 C713.421,1200.53 712.283,1200.56 711.096,1200.56 C700.443,1200.56 685.586,1198.04 670.867,1190.93 C663.14,1213.42 637.086,1309.34 712.148,1409.64 C715.282,1413.83 714.429,1419.76 710.242,1422.89 C708.541,1424.17 706.55,1424.78 704.575,1424.78 C701.696,1424.78 698.847,1423.47 696.991,1420.99 C648.075,1355.63 638.741,1292.73 641.076,1247.33 C617.576,1266.74 586.033,1300.45 572.186,1329.94 C570.729,1333.04 567.65,1334.86 564.442,1334.86 C563.225,1334.86 561.987,1334.6 560.815,1334.05 C556.539,1332.04 554.703,1326.95 556.709,1322.68 C564.193,1306.74 576.143,1289.98 589.354,1274.55 C445.935,1267.9 337.593,1300.71 267.448,1372.44 C209.065,1431.49 195.446,1526.76 187.308,1583.68 C184.881,1600.65 182.965,1614.05 180.418,1623.1 C149.821,1731.79 142.077,1818.32 159.173,1860.52 C159.44,1861.18 159.625,1861.87 159.722,1862.57 C160.054,1865 160.343,1867.4 160.625,1869.75 C163.255,1891.65 164.844,1904.86 196.821,1913.87 C206.37,1916.55 214.57,1918.36 221.729,1919.53 C220.841,1911.84 215.131,1906.21 215.06,1906.14 C211.654,1902.9 211.467,1897.51 214.673,1894.08 C217.876,1890.65 223.227,1890.43 226.677,1893.6 C227.244,1894.12 238.933,1905.09 239.025,1921.19 C253.435,1921.34 260.703,1917.59 264.27,1913.37 C264.799,1912.75 265.413,1912.2 266.096,1911.75 C267.203,1911.02 268.712,1909.89 270.368,1908.48 C267.005,1898.97 258.23,1892.31 258.128,1892.24 C254.316,1889.46 253.473,1884.11 256.252,1880.29 C259.041,1876.48 264.375,1875.65 268.197,1878.42 C268.659,1878.76 276.267,1884.39 282.1,1893.74 C282.972,1891.6 283.481,1889.42 283.389,1887.25 C282.691,1870.54 279.398,1865.34 250.804,1856.56 C247.57,1855.56 245.225,1852.76 244.826,1849.4 C244.687,1848.24 241.503,1820.64 247.86,1797.27 C252.66,1779.63 265.901,1764.42 281.234,1746.82 C303.317,1721.46 330.804,1689.91 343.132,1638.26 C344.225,1633.68 348.81,1630.83 353.431,1631.93 C358.021,1633.03 360.855,1637.64 359.757,1642.23 C355.931,1658.26 350.779,1672.39 344.863,1685.08 C365.604,1686.67 412.782,1693.96 484.048,1725.94 C561.015,1760.48 625.571,1775.37 646.54,1779.66 C647.763,1745.26 650.628,1721.25 650.953,1718.62 C651.532,1713.94 655.808,1710.61 660.483,1711.19 C665.168,1711.76 668.496,1716.04 667.917,1720.72 C667.703,1722.47 646.867,1896.68 695.409,1995.16 C695.633,1995.62 695.818,1996.1 695.958,1996.59 C706.451,2033.38 731.926,2043.52 751.45,2045.55 C766.367,2047.55 774.95,2044.62 779.074,2042.39 C776.764,2033.48 773.986,2030.27 773.952,2030.23 C770.475,2027.04 770.39,2021.77 773.583,2018.29 C776.771,2014.82 782.319,2014.72 785.797,2017.92 C786.878,2018.91 791.745,2024.03 795.305,2036.97 C802.459,2035.78 814.568,2031.41 822.706,2015.81 C822.084,2014.91 821.583,2013.92 821.336,2012.79 C819.675,2005.16 811.757,2001.5 811.677,2001.47 C807.331,1999.63 805.3,1994.61 807.137,1990.26 C808.983,1985.92 814.007,1983.9 818.343,1985.72 C818.585,1985.83 820.842,1986.81 823.766,1988.82 C823.603,1988.44 823.477,1988.05 823.297,1987.67 C818.233,1977.05 807.361,1969.75 791.854,1966.56 C788.182,1965.8 785.428,1962.74 785.073,1959 C784.994,1958.16 783.168,1938.14 788.531,1912.06 C791.25,1898.85 799.927,1860.56 808.319,1823.53 C815.963,1789.78 823.187,1757.9 825.228,1747.99 C826.181,1743.36 830.712,1740.39 835.327,1741.34 C839.947,1742.29 842.926,1746.82 841.973,1751.44 C840.895,1756.67 838.42,1767.82 835.221,1782.05 C973.726,1774.83 1049.91,1657.51 1090.49,1552.52 C1070.52,1555.83 1049.15,1557.87 1026.25,1558.33 C995.741,1573.23 967.606,1578.44 943.183,1578.44 C888.284,1578.44 852.146,1552.13 849.981,1550.52 C845.794,1547.39 844.931,1541.45 848.06,1537.26 C851.193,1533.07 857.13,1532.22 861.307,1535.33 C864.25,1537.52 930.564,1585.07 1019.71,1540.43 C1020.98,1539.79 1022.38,1539.45 1023.8,1539.43 C1051.32,1539 1076.54,1536.24 1099.56,1531.65 C1101.61,1530 1104.35,1529.35 1107.03,1530.04 C1202.82,1508.82 1258.93,1455.1 1281.13,1404.09 C1279.55,1395.45 1278.96,1385.34 1278.36,1374.61 C1277.98,1367.85 1277.58,1360.75 1276.88,1354.09 L1276.88,1354.09 Z" id="Fill-9" fill="#FFFFFE"></path>
            <path d="M1009.16,1172.79 C1015.06,1171.61 1018.46,1163.77 1016.77,1155.29 C1016.74,1155.15 1016.69,1155.04 1016.66,1154.91 C1014.85,1146.64 1008.82,1140.9 1003.01,1142.06 C1002.75,1142.12 1002.53,1142.25 1002.28,1142.32 C996.854,1143.99 993.782,1151.45 995.407,1159.56 C997.106,1168.05 1003.26,1173.97 1009.16,1172.79" id="Fill-10" fill="#FFFFFE"></path>
            <path d="M1291.86,1178.67 C1292.11,1178.12 1292.28,1177.56 1292.28,1176.96 C1292.28,1174.71 1290.36,1172.74 1287.47,1171.6 C1285.83,1170.95 1283.88,1170.57 1281.78,1170.57 C1276.71,1170.58 1272.49,1172.79 1271.51,1175.71 C1271.38,1176.13 1271.3,1176.56 1271.3,1177 C1271.31,1180.54 1276.01,1183.4 1281.8,1183.39003 C1282.27,1183.39003 1282.71,1183.34 1283.16,1183.3 C1287.37,1182.96 1290.75,1181.12 1291.86,1178.67" id="Fill-11" fill="#FFFFFE"></path>
            <path d="M1003.01,1142.06 C1008.82,1140.9 1014.85,1146.64 1016.66,1154.91 C1016.69,1155.04 1016.74,1155.15 1016.77,1155.29 C1018.46,1163.77 1015.06,1171.61 1009.16,1172.79 C1003.26,1173.97 997.106,1168.05 995.407,1159.56 C993.782,1151.45 996.854,1143.99 1002.28,1142.32 C1002.53,1142.25 1002.75,1142.12 1003.01,1142.06 Z M995.726,1237.61 C995.726,1237.61 995.726,1237.61 995.731,1237.61 C996.898,1237.61 998.076,1237.55 999.273,1237.41 C1039.41,1232.89 1048.98,1188.88 1049.37,1187.01 C1049.65,1185.64 1049.63,1184.22 1049.3,1182.86 C1047.81,1176.67 1033.64,1122.35 996.908,1122.35 C989.399,1122.35 981.666,1124.76 973.927,1129.5 C951.929,1143 949.08,1174.57 955.746,1198.2 C962.606,1222.51 977.924,1237.61 995.726,1237.61 L995.726,1237.61 Z" id="Fill-12" fill="#1B1A19"></path>
            <path d="M1313.87,1409.06 C1310,1411.88 1306.67,1412.78 1303.98,1411.81 C1299.33,1410.11 1297.88,1384.49 1297.27,1373.54 C1296.14,1353.57 1294.99,1332.98 1286.88,1319.8 C1292.98,1288.87 1289.56,1242.7 1287.57,1222.36 C1294.08,1215.14 1305.99,1198.52 1301.37,1177.37 C1298.55,1164.44 1286.65,1156.71 1269.55,1156.71 C1254.55,1156.71 1230.99,1163.31 1228.06,1177.48 C1225.59,1189.48 1237.8,1197.3 1250.71,1205.58 C1256.31,1209.17 1266.65,1215.79 1268.03,1219.11 C1268.03,1220.07 1268.2,1221 1268.48,1221.88 C1270.36,1240.61 1274.42,1290.66 1267.56,1319.57 C1267.54,1319.64 1267.52,1319.71 1267.51,1319.78 C1255.5,1369.99 1240.47,1380.63 1217.7,1396.73 C1206.23,1404.84 1193.22,1414.04 1178.53,1429.58 C1122.7,1488.64 1077.99,1497.53 1050.25,1494.53 C1020.64,1491.36 1000.01,1473.56 990.572,1457.96 C965.116,1415.87 992.792,1358.05 1062.79,1307.06 C1102.48,1278.15 1125.9,1242.54 1146.57,1211.12 C1171.07,1173.87 1192.23,1141.7 1233.6,1131.79 C1240.82,1130.06 1247.55,1129.19 1253.85,1129.19 C1266.69,1129.19 1277.72,1132.79 1287.23,1140.04 C1304.26,1153.01 1316.52,1178.69 1323.14,1214.24 C1321.02,1216.02 1319.47,1218.48 1318.96,1221.41 C1317.97,1227.08 1321.1,1232.48 1326.18,1234.63 C1327.11,1242.65 1327.77,1251.09 1328.2,1259.88 C1326.5,1258.2 1324.3,1256.99 1321.76,1256.55 C1315.16,1255.41 1308.88,1259.83 1307.73,1266.44 C1306.59,1273.04 1311.01,1279.32 1317.62,1280.47 C1322.03,1281.23 1326.27,1279.47 1328.96,1276.26 C1330.19,1297.65 1332.78,1310.7 1335.1,1322.39 C1337.06,1332.24 1338.75,1340.76 1339.26,1352.74 C1340.03,1371.23 1327.46,1399.12 1313.87,1409.06 Z M1291.86,1178.67 C1290.75,1181.12 1287.37,1182.96 1283.16,1183.3 C1282.71,1183.34 1282.27,1183.39003 1281.8,1183.39003 C1276.01,1183.4 1271.31,1180.54 1271.3,1177 C1271.3,1176.56 1271.38,1176.13 1271.51,1175.71 C1272.49,1172.79 1276.71,1170.58 1281.78,1170.57 C1283.88,1170.57 1285.83,1170.95 1287.47,1171.6 C1290.36,1172.74 1292.28,1174.71 1292.28,1176.96 C1292.28,1177.56 1292.11,1178.12 1291.86,1178.67 Z M1107.03,1530.04 C1104.35,1529.35 1101.61,1530 1099.56,1531.65 C1076.54,1536.24 1051.32,1539 1023.8,1539.43 C1022.38,1539.45 1020.98,1539.79 1019.71,1540.43 C930.564,1585.07 864.25,1537.52 861.307,1535.33 C857.13,1532.22 851.193,1533.07 848.06,1537.26 C844.931,1541.45 845.794,1547.39 849.981,1550.52 C852.146,1552.13 888.284,1578.44 943.183,1578.44 C967.606,1578.44 995.741,1573.23 1026.25,1558.33 C1049.15,1557.87 1070.52,1555.83 1090.49,1552.52 C1049.91,1657.51 973.726,1774.83 835.221,1782.05 C838.42,1767.82 840.895,1756.67 841.973,1751.44 C842.926,1746.82 839.947,1742.29 835.327,1741.34 C830.712,1740.39 826.181,1743.36 825.228,1747.99 C823.187,1757.9 815.963,1789.78 808.319,1823.53 C799.927,1860.56 791.25,1898.85 788.531,1912.06 C783.168,1938.14 784.994,1958.16 785.073,1959 C785.428,1962.74 788.182,1965.8 791.854,1966.56 C807.361,1969.75 818.233,1977.05 823.297,1987.67 C823.477,1988.05 823.603,1988.44 823.766,1988.82 C820.842,1986.81 818.585,1985.83 818.343,1985.72 C814.007,1983.9 808.983,1985.92 807.137,1990.26 C805.3,1994.61 807.331,1999.63 811.677,2001.47 C811.757,2001.5 819.675,2005.16 821.336,2012.79 C821.583,2013.92 822.084,2014.91 822.706,2015.81 C814.568,2031.41 802.459,2035.78 795.305,2036.97 C791.745,2024.03 786.878,2018.91 785.797,2017.92 C782.319,2014.72 776.771,2014.82 773.583,2018.29 C770.39,2021.77 770.475,2027.04 773.952,2030.23 C773.986,2030.27 776.764,2033.48 779.074,2042.39 C774.95,2044.62 766.367,2047.55 751.45,2045.55 C731.926,2043.52 706.451,2033.38 695.958,1996.59 C695.818,1996.1 695.633,1995.62 695.409,1995.16 C646.867,1896.68 667.703,1722.47 667.917,1720.72 C668.496,1716.04 665.168,1711.76 660.483,1711.19 C655.808,1710.61 651.532,1713.94 650.953,1718.62 C650.628,1721.25 647.763,1745.26 646.54,1779.66 C625.571,1775.37 561.015,1760.48 484.048,1725.94 C412.782,1693.96 365.604,1686.67 344.863,1685.08 C350.779,1672.39 355.931,1658.26 359.757,1642.23 C360.855,1637.64 358.021,1633.03 353.431,1631.93 C348.81,1630.83 344.225,1633.68 343.132,1638.26 C330.804,1689.91 303.317,1721.46 281.234,1746.82 C265.901,1764.42 252.66,1779.63 247.86,1797.27 C241.503,1820.64 244.687,1848.24 244.826,1849.4 C245.225,1852.76 247.57,1855.56 250.804,1856.56 C279.398,1865.34 282.691,1870.54 283.389,1887.25 C283.481,1889.42 282.972,1891.6 282.1,1893.74 C276.267,1884.39 268.659,1878.76 268.197,1878.42 C264.375,1875.65 259.041,1876.48 256.252,1880.29 C253.473,1884.11 254.316,1889.46 258.128,1892.24 C258.23,1892.31 267.005,1898.97 270.368,1908.48 C268.712,1909.89 267.203,1911.02 266.096,1911.75 C265.413,1912.2 264.799,1912.75 264.27,1913.37 C260.703,1917.59 253.435,1921.34 239.025,1921.19 C238.933,1905.09 227.244,1894.12 226.677,1893.6 C223.227,1890.43 217.876,1890.65 214.673,1894.08 C211.467,1897.51 211.654,1902.9 215.06,1906.14 C215.131,1906.21 220.841,1911.84 221.729,1919.53 C214.57,1918.36 206.37,1916.55 196.821,1913.87 C164.844,1904.86 163.255,1891.65 160.625,1869.75 C160.343,1867.4 160.054,1865 159.722,1862.57 C159.625,1861.87 159.44,1861.18 159.173,1860.52 C142.077,1818.32 149.821,1731.79 180.418,1623.1 C182.965,1614.05 184.881,1600.65 187.308,1583.68 C195.446,1526.76 209.065,1431.49 267.448,1372.44 C337.593,1300.71 445.935,1267.9 589.354,1274.55 C576.143,1289.98 564.193,1306.74 556.709,1322.68 C554.703,1326.95 556.539,1332.04 560.815,1334.05 C561.987,1334.6 563.225,1334.86 564.442,1334.86 C567.65,1334.86 570.729,1333.04 572.186,1329.94 C586.033,1300.45 617.576,1266.74 641.076,1247.33 C638.741,1292.73 648.075,1355.63 696.991,1420.99 C698.847,1423.47 701.696,1424.78 704.575,1424.78 C706.55,1424.78 708.541,1424.17 710.242,1422.89 C714.429,1419.76 715.282,1413.83 712.148,1409.64 C637.086,1309.34 663.14,1213.42 670.867,1190.93 C685.586,1198.04 700.443,1200.56 711.096,1200.56 C712.283,1200.56 713.421,1200.53 714.498,1200.47 C719.717,1200.19 723.724,1195.73 723.439,1190.5 C723.155,1185.28 718.655,1181.27 713.471,1181.56 C712.962,1181.59 662.708,1183.77 643.918,1135.49 C636.32,1115.98 634.932,1083.78 633.461,1049.68 C631.814,1011.51 629.943,968.242 618.901,932.286 C590.716,840.481 632.622,804.869 660.109,791.814 C684.522,780.211 712.827,782.245 741.98,797.674 C806.997,832.096 860.927,921.469 876.185,1020.06 C876.988,1025.23 881.813,1028.77 886.992,1027.98 C892.161,1027.17 895.703,1022.34 894.905,1017.17 C892.263,1000.1 888.481,983.287 883.728,966.928 C949.931,935.227 1011.78,927.366 1064.45,933.417 C1065.35,933.773 1066.31,934.035 1067.33,934.097 C1067.96,934.13 1068.58,934.095 1069.18,934.01 C1119.88,940.701 1161.77,960.194 1190.37,983.34 C1239.26,1022.91 1256.31,1085.01 1261.48,1110.74 C1251.44,1109.81 1240.69,1110.61 1229.19,1113.37 C1180.53,1125.03 1156.34,1161.8 1130.75,1200.71 C1110,1232.25 1088.55,1264.86 1051.65,1291.75 C972.974,1349.06 943.362,1416.5 974.366,1467.76 C989.634,1493 1017.25,1510.04 1048.23,1513.36 C1051.81,1513.75 1055.62,1513.97 1059.67,1513.97 C1091.72,1513.97 1137.97,1500.04 1192.29,1442.59 C1205.69,1428.42 1217.88,1419.8 1228.64,1412.19 C1248.04,1398.47 1264.21,1387.04 1276.88,1354.09 C1277.58,1360.75 1277.98,1367.85 1278.36,1374.61 C1278.96,1385.34 1279.55,1395.45 1281.13,1404.09 C1258.93,1455.1 1202.82,1508.82 1107.03,1530.04 Z M1076.8,1755.46 C1073.48,1783.87 1071.36,1826.88 1070.81,1838.93 C1065.65,1843.66 1056.87,1845.95 1053.57,1846.45 C1048.91,1847.15 1045.69,1851.48 1046.38,1856.15 C1047,1860.39 1050.65,1863.45 1054.83,1863.45 C1055.24,1863.45 1055.65,1863.42 1056.08,1863.36 C1057.85,1863.1 1071.89,1860.8 1081.89,1852 C1093.04,1855.45 1103.84,1863.35 1107.37,1876.61 C1104.72,1874.15 1102.66,1872.75 1102.43,1872.6 C1098.51,1870.01 1093.25,1871.09 1090.63,1874.99 C1088.02,1878.9 1089.08,1884.2 1092.97,1886.84 C1093.06,1886.9 1102.54,1893.42 1103.64,1902.62 C1103.74,1903.49 1104,1904.3 1104.34,1905.06 C1101.78,1910.54 1098.2,1915.09 1093.36,1918.41 C1086.72,1922.97 1079.15,1924.62 1073.73,1924.97 C1074.95,1912.65 1065.63,1899.4 1063.65,1896.74 C1060.83,1892.95 1055.46,1892.19 1051.69,1895 C1047.91,1897.82 1047.13,1903.18 1049.95,1906.96 C1053.2,1911.33 1057.47,1919.77 1056.68,1923.64 C1056.46,1924.69 1056.47,1925.74 1056.63,1926.74 C1044.81,1929 1033.76,1926.83 1023.74,1920.12 C1007.04,1908.95 997.003,1887.78 996.175,1876.79 C996.115,1875.97 995.935,1875.16 995.641,1874.39 C970.185,1807.5 970.629,1755.01 970.639,1754.49 C970.65,1753.69 970.516,1752.93 970.322,1752.2 C1010.56,1723.53 1049.93,1678.99 1083.52,1611.16 C1083.23,1661.34 1079.76,1730.11 1076.8,1755.46 Z M492.211,1806.48 C492.675,1806.85 493.179,1807.17 493.712,1807.43 C501.361,1811.2 505.887,1815.46 506.8,1819.73 C507.818,1824.47 504.25,1828.88 504.255,1828.88 C503.841,1829.36 503.482,1829.88 503.182,1830.43 C501.941,1832.74 498.526,1834.43 493.207,1835.18 C493.033,1829.95 491.183,1823.8 485.61,1818.9 C482.591,1816.24 477.991,1816.53 475.337,1819.55 C472.677,1822.56 472.972,1827.17 475.99,1829.82 C477.809,1831.43 478.441,1833.37 478.603,1835.04 C473.115,1834.4 466.828,1833.22 459.555,1831.25 C442.596,1826.64 439.173,1817.39 433.046,1796.9 C432.882,1796.36 432.662,1795.83 432.393,1795.32 C414.24,1761.42 409.284,1730.04 407.922,1715.43 C427.362,1721.28 450.372,1729.57 477.053,1741.54 C478.619,1742.24 480.164,1742.91 481.719,1743.6 C480.46,1756.33 478.669,1795.83 492.211,1806.48 Z M1148.65,755.656 C1154.17,755.347 1158.61,757.013 1162.59,760.85 C1185.13,782.626 1183.7,860.675 1182.74,912.323 C1182.42,930.224 1182.22,943.981 1182.61,954.502 C1178.34,951.781 1173.86,949.152 1169.23,946.609 C1163.1,943.242 1156.65,940.052 1149.92,937.064 C1142.73,933.872 1135.22,930.921 1127.39,928.251 C1121.91,926.382 1116.27,924.666 1110.5,923.091 C1100.11,920.26 1089.28,917.92 1078.02,916.183 C1082.43,864.992 1101.37,758.169 1148.65,755.656 Z M1358.18,1351.95 C1357.61,1338.5 1355.7,1328.88 1353.68,1318.7 C1351.17,1306.04 1348.32,1291.69 1347.44,1265.86 C1345.8,1217.27 1336.02,1153.39 1298.7,1124.97 C1293.39,1120.92 1287.66,1117.81 1281.61,1115.43 C1278.47,1095.09 1262.99,1018.54 1203.31,969.488 C1200.75,963.554 1201.26,935.392 1201.68,912.673 C1202.81,851.216 1204.22,774.731 1175.74,747.229 C1167.95,739.695 1158.51,736.125 1147.64,736.746 C1114.1,738.527 1088.88,771.403 1072.68,834.456 C1064.39,866.724 1060.71,898.257 1059.26,913.909 C1005.64,909.033 943.768,917.687 877.962,948.702 C852.052,873.118 805.101,809.663 750.841,780.937 C716.195,762.589 682.002,760.446 651.986,774.706 C572.216,812.595 589.614,901.416 600.8,937.844 C611.128,971.483 612.939,1013.46 614.541,1050.5 C616.083,1086.2 617.534,1119.93 626.266,1142.36 C632.934,1159.49 643.082,1171.89 654.393,1180.73 C652.132,1186.48 646.676,1201.9 643.387,1224.11 C632.478,1231.6 618.35,1243.7 604.3,1258.15 C448.675,1248.3 331.265,1282.73 255.259,1360.45 C192.941,1423.49 178.821,1522.25 170.384,1581.26 C168.142,1596.95 166.203,1610.51 163.963,1618.47 C145.49,1684.09 118.308,1803.15 142.923,1865.92 C143.185,1867.9 143.422,1869.86 143.654,1871.79 C146.395,1894.62 149.232,1918.23 192.188,1930.32 C210.966,1935.61 226.824,1938.25 239.892,1938.25 C256.536,1938.25 268.651,1933.96 276.499,1925.35 C281.703,1921.71 301.311,1906.6 300.473,1886.53 C299.36,1860.08 287.416,1850.62 261.346,1841.98 C260.802,1833.44 260.398,1816.31 264.355,1801.76 C268.127,1787.89 280.171,1774.06 294.122,1758.05 C307.636,1742.53 323.049,1724.78 336.224,1701.78 C342.604,1701.9 360.938,1702.97 390.405,1710.5 C390.942,1722.32 394.424,1760.25 416.916,1802.62 C422.773,1822.19 428.596,1840.54 455.075,1847.74 C467.413,1851.1 478.185,1852.77 487.266,1852.77 C502.199,1852.77 512.562,1848.25 517.806,1839.3 C519.937,1836.54 525.839,1827.68 523.584,1816.46 C521.668,1806.94 514.578,1798.96 502.499,1792.72 C498.555,1787.68 497.297,1764.36 498.116,1750.65 C571.526,1781.3 629.383,1793.8 646.098,1797.02 C645.151,1857.96 650.342,1941.84 679.737,2002.03 C690.095,2037.46 714.908,2058.94 749.434,2062.52 C753.585,2063.08 757.417,2063.32 760.94,2063.32 C777.395,2063.32 787.119,2058.01 791.784,2054.46 C801.03,2054.13 824.031,2050.48 837.976,2023.51 C844.936,2010.06 845.216,1993.91 838.729,1980.3 C832.173,1966.57 819.206,1956.47 801.833,1951.43 C801.718,1944.17 802.097,1930.96 805.276,1915.51 C807.96,1902.47 816.616,1864.26 824.989,1827.3 C827.168,1817.69 829.308,1808.25 831.309,1799.39 C868.529,1798.11 911.241,1788.85 953.759,1763.11 C954.627,1781.29 958.881,1825.42 979.256,1879.39 C980.912,1894 992.478,1919.77 1014.23,1934.33 C1024.57,1941.25 1035.95,1944.74 1047.85,1944.74 C1054.04,1944.74 1060.37,1943.79 1066.77,1941.9 C1075.32,1942.87 1090.35,1941.21 1103.04,1932.51 C1114.69,1924.51 1122.21,1912.09 1124.78,1896.61 C1130.13,1864.44 1110.56,1843.55 1088.07,1836.02 C1088.81,1820.63 1090.84,1782.58 1093.78,1757.45 C1097.64,1724.43 1102.15,1624.81 1100.16,1577.05 C1100.13,1576.37 1100.01,1575.73 1099.84,1575.11 C1103.36,1566.65 1106.79,1557.84 1110.13,1548.76 C1204.54,1528.09 1263.45,1477.23 1291.41,1426.05 C1293.17,1427.54 1295.16,1428.76 1297.48,1429.6 C1303.69,1431.86 1313.5,1432.79 1325.05,1424.35 C1343.74,1410.68 1359.22,1376.85 1358.18,1351.95 L1358.18,1351.95 Z" id="Fill-13" fill="#1B1A19"></path>
            <path d="M771.827,1967.18 C759.024,1973.49 752.173,1974.93 751.919,1974.98 C747.304,1975.84 744.245,1980.26 745.073,1984.89 C745.812,1989.03 749.414,1991.93 753.476,1991.93 C753.974,1991.93 754.483,1991.89 754.992,1991.79 C755.885,1991.64 764.168,1990.01 779.381,1982.52 C783.617,1980.43 785.358,1975.3 783.272,1971.07 C781.177,1966.84 776.038,1965.1 771.827,1967.18" id="Fill-14" fill="#1B1A19"></path>
            <path d="M1202.14,1226.32 C1195.54,1225.17 1189.26,1229.6 1188.11,1236.2 C1186.96,1242.8 1191.39,1249.08 1197.99,1250.23 C1204.59,1251.37 1210.88,1246.95 1212.02,1240.35 C1213.17,1233.75 1208.74,1227.46 1202.14,1226.32" id="Fill-15" fill="#1B1A19"></path>
            <path d="M1220.93,1279.47 C1219.78,1286.07 1224.21,1292.36 1230.81,1293.5 C1237.41,1294.65 1243.7,1290.22 1244.84,1283.62 C1245.99,1277.02 1241.56,1270.74 1234.96,1269.59 C1228.36,1268.44 1222.08,1272.87 1220.93,1279.47" id="Fill-16" fill="#1B1A19"></path>
            <path d="M1197.15,1312.02 C1190.54,1310.87 1184.26,1315.29 1183.12,1321.9 C1181.97,1328.5 1186.39,1334.78 1193,1335.93 C1199.6,1337.07 1205.88,1332.65 1207.03,1326.05 C1208.17,1319.44 1203.75,1313.16 1197.15,1312.02" id="Fill-17" fill="#1B1A19"></path>
            <path d="M1164.83,1268.19 C1158.23,1267.04 1151.94,1271.47 1150.8,1278.07 C1149.65,1284.67 1154.08,1290.95 1160.68,1292.1 C1167.28,1293.25 1173.56,1288.82 1174.71,1282.22 C1175.86,1275.62 1171.43,1269.34 1164.83,1268.19" id="Fill-18" fill="#1B1A19"></path>
            <path d="M1161.95,1105.01 C1163.82,1105.01 1165.71,1104.46 1167.37,1103.31 C1167.6,1103.15 1190.73,1087.29 1215.91,1093.95 C1220.97,1095.27 1226.15,1092.28 1227.49,1087.23 C1228.83,1082.17 1225.82,1076.99 1220.76,1075.65 C1187.17,1066.74 1157.75,1086.91 1156.52,1087.78 C1152.23,1090.77 1151.19,1096.67 1154.18,1100.96 C1156.02,1103.6 1158.96,1105.01 1161.95,1105.01" id="Fill-19" fill="#1B1A19"></path>
        </g>
    </g>
</svg>