<svg height="2800" viewBox="0 0 2800 2800" width="2800" xmlns="http://www.w3.org/2000/svg"><g fill="none" fill-rule="evenodd"><path d="m.06 2800h2799.94v-2799.96h-2799.94z"/><path d="m826.209 2103v67.68c0 5.43 0 14.54 25.119 14.54 25.12 0 25.12-9.11 25.12-14.54v-66.24h-20.273c-10.429 0-20.397-.51-29.966-1.44" fill="#d2ecf1"/><path d="m2014.75 2104.44v66.24c0 5.43 0 14.54 25.12 14.54s25.12-9.11 25.12-14.54v-67.68c-9.57.93-19.54 1.44-29.97 1.44z" fill="#d2ecf1"/><path d="m944.437 1236.73c3.959-26.93 26.178-40.48 40.145-43.01 4.294-.78 8.439 2.08 9.221 6.39.78 4.31-2.078 8.44-6.391 9.22-9.461 1.72-24.536 11.04-27.28 29.71-.579 3.94-3.967 6.78-7.837 6.78-.385 0-.772-.03-1.165-.09-4.336-.64-7.331-4.67-6.693-9zm-9.149 79.43c35.843 7.22 63.781 36.27 69.522 72.62 1.83.55 3.66 1.03 5.5 1.69 6.21 2.21 12.16 4.92 17.87 8.12-7.09-78.83 29.67-142.1 40.06-158.19-1.9-10.41-3.5-20.48-4.92-30.34-7.95-.47-15.71-2.12-23.09-5.08-5.42-2.17-8.06-8.33-5.89-13.75 2.18-5.42 8.33-8.05 13.76-5.88 3.98 1.59 8.16 2.67 12.42 3.25-4.51-39.36-5.21-73.99-3.51-104.15-24.03 4.98-42.14 26.3-42.14 51.78 0 9.83 2.71 19.41 7.84 27.72 3.07 4.98 1.52 11.49-3.45 14.56-1.73 1.06-3.65 1.58-5.54 1.58-3.55 0-7.02-1.79-9.01-5.03-1.3-2.1-2.45-4.29-3.53-6.5-48.122 1.66-86.787 41.22-86.787 89.75 0 20.63 7.161 40.78 20.162 56.73.286.36.499.74.733 1.12z" fill="#fffffe"/><path d="m1055.09 630.147c8.6-12.155 21.44-19.576 38.16-22.062 3.05-.455 6.12-.685 9.13-.685 57.64 0 89.68 82.135 97.16 137.344 5.96 44.084-5.42 73.247-36.91 94.555-9.08 6.148-17.3 18.698-25.25 30.837-13.55 20.688-27.57 42.087-51.04 42.087 0 0 0 0-.01 0-3.17 0-6.42-.426-9.67-1.263-9.62-2.479-17.34-8.4-22.34-17.122-13.85-24.172-3.62-63.778-1.93-69.818 7.25-34.252 3.96-56.55-2.31-89.145l-.58-3.018c-5.34-27.547-14.27-73.649 5.59-101.71zm663.32 118.414c8.21-54.629 41.16-135.903 98.29-135.903 3.3 0 6.66.276 10 .823 16.67 2.732 29.4 10.342 37.82 22.62 19.45 28.345 9.84 74.308 4.1 101.77l-.63 3.023c-6.75 32.497-10.37 54.743-3.62 89.104 1.6 6.068 11.25 45.816-2.95 69.779-5.13 8.647-12.94 14.452-22.6 16.792-3.07.746-6.15 1.123-9.16 1.123-23.78 0-37.59-21.778-50.94-42.839-7.78-12.252-15.81-24.923-24.8-31.203-31.17-21.77-42.12-51.099-35.51-95.089zm27.38 454.679c-45.71 19.92-70.63-33.42-70.63-33.42s-7.01-78.53 41.15-88.3c63.25-12.83 60.44 108.23 29.48 121.72zm-219.11-116.42c-2.42 5.31-8.71 7.65-14.01 5.22-70.09-32.03-127.84 2.19-130.27 3.67-1.71 1.04-3.62 1.54-5.49 1.54-3.56 0-7.04-1.8-9.04-5.06-3.04-4.98-1.49-11.47 3.48-14.52 2.8-1.72 69.48-41.72 150.11-4.86 5.31 2.42 7.65 8.7 5.22 14.01zm-292.54 79.75s-25.7 52.97-71.11 32.38c-30.76-13.94-31.78-135.03 31.27-121.27 48.02 10.48 39.84 88.89 39.84 88.89zm-219.67-428.635c6.45 42.787 2.21 78.509-1.53 110.03-4.33 36.484-7.74 65.303 6.08 93.134 14.94 30.109 47.21 32.266 58.75 32.013 9.24-26.32 18.83-42.085 22.97-48.2 3.28-4.837 9.85-6.102 14.69-2.831 3.07 2.079 4.69 5.486 4.63 8.936-.03 1.985-.6 3.984-1.8 5.752-4.35 6.434-29.71 46.959-38.1 126.551-.72 6.77-1.33 13.77-1.77 21.1-1.79 29.56-1.21 63.76 3.28 102.81.79 6.88 1.74 13.95 2.78 21.12 1.52 10.49 3.27 21.26 5.37 32.4.53 2.82-.1 5.74-1.77 8.08-.62.88-52.83 76.44-35.85 167.56 14.68 13.89 27.07 32.06 37.02 54.44.09.21.18.42.26.64 4.55 12.35 7.42 24.48 8.7 36.09 3.8 3.58 7.73 6.88 11.8 9.87 5.48 4.03 11.19 7.52 17.06 10.58 3.32 1.73 6.67 3.37 10.08 4.82-1.6-1.53-3.18-3.09-4.69-4.72-.03-.03-.06-.07-.09-.1-3.1-3.35-5.88-6.91-8.49-10.58-15.09-21.2-22.09-47.66-20.65-78.98 3.72-81.44 55.21-116.97 109.73-154.59 32.11-22.16 65.33-45.08 93.54-79.33 58.1-70.53 117.53-73.06 139.91-74.02 1.6-.06 3.15-.1 4.95-.1 15.69 0 96.27 3.36 141.78 69.8 27.76 40.51 63.12 67.15 97.31 92.92 51.9 39.1 100.91 76.03 101.98 152.34.36 26.41-5.68 51.07-17.35 71.96-2.03 3.65-4.25 7.18-6.63 10.58-2.56 3.68-5.32 7.21-8.27 10.58-1.56 1.78-3.17 3.53-4.84 5.23-1.16 1.17-2.36 2.3-3.56 3.43 7.05-2.45 13.98-5.3 20.69-8.66 6.16-3.09 12.13-6.62 17.88-10.58 4.68-3.22 9.23-6.72 13.58-10.58.73-.64 1.42-1.35 2.14-2.02-.4-11.48 1.04-23.5 4.52-35.63.11-.42 9.63-34.89 43.23-61.32 13.02-87.9-38.33-156.01-38.92-156.77-2.2-2.86-2.79-6.65-1.57-10.05.6-1.66 57.44-163.06-7.13-294.227-1.63-3.307-3.27-6.611-5.06-9.876-.91-1.669-1.28-3.473-1.25-5.248.07-3.676 2.01-7.217 5.46-9.107 5.12-2.807 11.56-.916 14.36 4.207 7.43 13.59 13.51 27.479 18.55 41.478.44-.055.87-.134 1.32-.135 15.1-.026 42.53-4.108 56.47-31.177 14.23-27.627 11.23-56.491 7.44-93.034-3.27-31.57-6.99-67.354.1-110.043l.8-4.839c11.59-69.52 23.57-141.408-53.54-172.441-27.77-11.175-57.48-7.961-85.94 9.286-57.39 34.776-98.07 118.223-109.31 223.624 29.09 13.687 40.49 26.289 41.47 27.427 3.83 4.415 3.35 11.095-1.07 14.92-2 1.73-4.46 2.579-6.92 2.579-.21 0-.41-.053-.62-.065-2.75-.162-5.43-1.342-7.38-3.589-.06-.062-12.61-13.755-46.68-27.474-2.59-1.041-5.41-2.103-8.34-3.169-5.08 20.039-23.21 34.93-44.81 34.93-19.88 0-36.81-12.619-43.35-30.247-5.96 1.406-12.13 2.227-18.51 2.227-26.4 0-49.82-12.816-64.54-32.494-.55-.005-1.07-.024-1.63-.028-175.03-1.384-227.01 44.328-227.51 44.79-4.28 3.91-10.95 3.683-14.91-.56-3.96-4.24-3.8-10.84.4-14.84 1.09-1.033 14.64-13.355 49.63-25.575-9.8-101.248-48.62-182.182-104.41-216.988-28.44-17.742-58.38-21.37-86.58-10.502-77.553 29.894-66.64 101.95-56.08 171.631z" fill="#c7a17e"/><path d="m963.909 1046.25c13.487 0 24.459-10.97 24.459-24.46s-10.972-24.458-24.459-24.458-24.458 10.968-24.458 24.458 10.971 24.46 24.458 24.46" fill="#fffffe"/><path d="m1945.37 1260.95c4.55 0 9.1.41 13.54 1.2 16.37 2.94 31.59 11.38 42.84 23.76 2.94 3.24 2.7 8.26-.54 11.21-1.52 1.38-3.43 2.06-5.34 2.06-2.15 0-4.3-.88-5.87-2.6-8.91-9.81-20.94-16.49-33.9-18.81-3.51-.63-7.12-.95-10.73-.95-4.38 0-7.93-3.56-7.93-7.94s3.55-7.93 7.93-7.93zm70.86 48.23c1.46 3.72 2.64 7.59 3.5 11.51.94 4.28-1.76 8.51-6.04 9.45-.57.13-1.15.19-1.71.19-3.64 0-6.92-2.53-7.74-6.23-.68-3.1-1.62-6.17-2.77-9.11-1.61-4.07.39-8.68 4.47-10.28 4.07-1.61 8.68.39 10.29 4.47zm-129.64-77.5c12.03-8.12 25.35-13.81 39.34-16.91.7-3.5 1.17-7.05 1.17-10.67 0-29.89-24.31-54.2-54.2-54.2-5.83 0-11.51.92-16.95 2.71-5.16 49.2-16.43 87.15-20.93 100.88 3.07 4.48 7.86 11.95 13.14 21.92 1.58-3.15 3.27-6.25 5.15-9.26 3.1-4.95 9.62-6.46 14.58-3.36 4.95 3.09 6.46 9.62 3.36 14.57-4.83 7.73-8.43 16.1-10.83 24.86 10.45 26.72 19.09 61.86 16.33 101.8 18.62-9.18 42.07-15.43 71.61-15.43.67 0 1.35.01 2.04.01.22 0 5.14.09 12.87 1.12 8.16-36.41 43.28-60.98 80.72-55.37.14.02.27.06.41.08.19-2.44.37-4.9.37-7.38 0-51.76-42.11-93.86-93.87-93.86-18.81 0-36.95 5.54-52.47 16.02-4.84 3.28-11.42 1.99-14.69-2.84-3.26-4.84-1.99-11.42 2.85-14.69z" fill="#fffffe"/><path d="m2055.46 1380.86c3.68-2.37 8.59-1.33 10.97 2.35 5.19 8.02 7.27 17.64 5.86 27.1-.78 5.19-2.55 10.1-5.26 14.56-1.49 2.46-4.11 3.82-6.79 3.82-1.4 0-2.82-.37-4.11-1.15-3.74-2.27-4.94-7.16-2.66-10.9 1.61-2.65 2.66-5.58 3.13-8.68.84-5.63-.4-11.36-3.49-16.13-2.37-3.68-1.33-8.59 2.35-10.97zm-71.47 12.98c24.55 6.51 56.96 21.09 77.39 53.74 11.68-7.83 20.02-20.25 22.17-34.61 2-13.41-1.33-26.79-9.39-37.69-8.07-10.9-19.89-18-33.3-20.01-26.29-3.94-50.9 13.15-56.87 38.57z" fill="#fffffe"/><path d="m1070.85 730.878c6.6 34.289 10.31 59.628 2.15 97.883-.04.227-.1.462-.17.684-2.85 10.094-8.45 39.451-.15 53.891 2.19 3.806 5.13 6.076 9.26 7.142 1.52.393 3 .591 4.4.591 12.04.003 22.39-15.797 33.34-32.525 9.09-13.882 18.5-28.236 31.09-36.763 24.63-16.662 32.68-38.159 27.8-74.201-6.69-49.423-34.75-119.026-76.19-119.026-1.97 0-4 .152-6.02.451-10.94 1.63-18.79 5.999-24 13.363-14.64 20.686-6.79 61.237-2.1 85.466z" fill="#1b1a19"/><path d="m2128.88 1860.88c0 5.84-4.73 10.57-10.57 10.57-5.85 0-10.58-4.73-10.58-10.57v-125.17c0-5.84 4.73-10.58 10.58-10.58 5.84 0 10.57 4.74 10.57 10.58zm0 81.08c0 5.84-4.73 10.57-10.57 10.57-5.85 0-10.58-4.73-10.58-10.57v-42.31c0-5.84 4.73-10.57 10.58-10.57 5.84 0 10.57 4.73 10.57 10.57zm-157.36 45.81c-7.17 2.65-14.63 3.98-22.06 3.98-9.03 0-18.03-1.96-26.47-5.84-13.58-6.24-24.29-16.83-30.67-30.14-2.23.24-4.47.4-6.73.4-26.42 0-50.34-16.65-59.52-41.44-12.15-32.82 4.67-69.4 37.49-81.55 3.39-1.25 6.86-2.19 10.37-2.85 5.54-6.94 12.83-12.31 21.37-15.47 12.37-4.58 25.78-4.06 37.75 1.44 11.99 5.51 21.1 15.35 25.68 27.71 2.69 7.28 3.49 14.78 2.76 22.02 21.04 4.09 39.55 18.66 47.52 40.19 12.14 32.82-4.67 69.4-37.49 81.55zm217.07-303.19c-2.4.27-4.23.32-5.17.32-.39 0-.63-.01-.71-.01l-325.47.01c.14 1.7.26 3.4.26 5.14 0 34.99-28.47 63.46-63.46 63.46s-63.46-28.47-63.46-63.46c0-1.74.12-3.44.26-5.14h-371.76c3.7 6.89 6.44 14.35 8.06 22.23 4.44 21.44.25 43.33-11.77 61.62-12.03 18.3-30.47 30.81-51.91 35.24-5.58 1.16-11.19 1.72-16.76 1.72-7.95.01-15.82-1.16-23.4-3.45-3.35 6.61-7.56 12.82-12.7 18.43-14.79 16.14-34.98 25.55-56.85 26.51-1.23.05-2.46.08-3.67.08-20.54 0-40.05-7.57-55.29-21.53-11.04-10.11-18.84-22.79-23.03-36.77-4.69 2.09-9.6 3.72-14.72 4.78-4.88 1.01-9.79 1.51-14.66 1.51-13.85 0-27.41-4.03-39.25-11.82-16.01-10.52-26.96-26.65-30.84-45.41-3.94-19.06.14-37.92 9.88-53.14h-314.083c-.044 0-.241.01-.571.01-.839 0-2.576-.05-4.909-.31v233.23c21.886 3.66 38.637 22.68 38.637 45.59 0 19.97-12.734 36.97-30.488 43.44 4.532 11.46 11.533 23.9 22.53 35.27 17.475 18.08 41.536 30.21 71.77 36.38 6.753 1.38 13.783 2.49 21.153 3.27 9.486 1 19.473 1.5 29.966 1.5h662.425c13.68-25.1 40.31-42.17 70.86-42.17 30.54 0 57.17 17.07 70.86 42.17h374.7c10.5 0 20.48-.5 29.97-1.5 7.37-.78 14.4-1.89 21.15-3.27 30.24-6.17 54.3-18.3 71.77-36.38 31.73-32.8 30.6956-74.69 30.6956-75.11z" fill="#d2ecf1"/><path d="m2216.51 1542.83c-1.76-1.77-4.04-2.91-6.76-3.57-1.68-.41-3.48-.67-5.55-.67h-17.32c-2.89 4.06-6.43 7.63-10.45 10.57-7.65 5.6-17.05 8.95-27.24 8.95s-19.59-3.35-27.24-8.95c-4.03-2.94-7.56-6.51-10.45-10.57h-31.88c-.53 3.72-1.22 7.24-2.06 10.57-5.5 21.86-16.97 35.4-27.46 43.51-15.61 12.09-35.37 17.2-52.76 17.2-7.93 0-15.31-1.1-21.63-3.05-8.1 4.47-18.32 7.46-31.15 7.46-3.14 0-6.44-.17-9.89-.55-15.84-1.72-27.76-9.46-36.03-19.89-25.52 5.41-51.01-1.97-68.89-20.19-6.95-7.08-12.43-15.36-16.38-24.49-1.3-3.01-2.39-6.13-3.36-9.32-4.37 3.39-8.91 6.45-13.53 9.32-35.6 22.16-77.74 29.9-116.2 31.41-7.07 1-14.31 1.53-21.7 1.53 0 0 0 0-.01 0-8.36 0-16.96-.65-25.55-1.94-1.46-.22-2.82-.5-4.24-.74-14.94-1.15-28.1-2.74-38.38-3.99-3.77-.46-7.16-.88-10.13-1.2-22.57-2.52-40.3 3.39-60.83 10.23-15.25 5.07-31.94 10.56-52.03 12.78-5.76.63-11.75 1.04-18.12 1.04-3.73 0-7.56-.12-11.52-.39-4.25-.28-8.29-.68-12.23-1.13-3.09-.35-6.09-.74-9.01-1.18-34.13-5.14-56.39-15.94-73.36-24.21-11.5-5.6-20.43-9.91-29.51-11.11-2.19-.29-4.39-.46-6.64-.35-4.05.18-10.87 1.13-18.76 2.22-4.39.61-9.28 1.28-14.53 1.94-12.64 3.36-27.3 5.13-45 4.64-3.19-.1-6.53-.33-9.95-.68-31.02.1-65.46-4.12-96.57-18.87-6.47-3.06-12.81-6.53-18.93-10.57h-5.8c-.62 3.63-1.41 7.17-2.43 10.57-2.91 9.72-7.43 18.42-13.56 25.74-13.78 16.45-34.52 23.69-57.05 20.1-3.92 13.22-13.95 26.12-37.035 33.04-8.666 2.6-16.539 3.72-23.627 3.72-6.387 0-12.109-.94-17.249-2.47-6.535 3.81-17.621 6.81-30.793 6.81-10.701 0-22.739-1.98-34.733-7.09-20.839-8.88-47.328-29.99-58.616-79.85-.49-2.16-.943-4.4-1.374-6.67-1.29 2.33-2.759 4.54-4.321 6.67-11.553 15.81-30.177 26.14-51.211 26.14-21.035 0-39.658-10.33-51.211-26.14-2.413-3.3-4.508-6.83-6.256-10.57h-21.019c-2.068 0-3.87.26-5.541.67-2.726.66-5.004 1.8-6.763 3.57-4.63 4.65-5.593169 12.73-5.593169 15.45v51.83c0 18.45 4.191169 32.35 12.358169 41.5.608.69 1.186 1.41 1.839 2.03 2.82 2.72 5.827 4.7 8.735 6.16 3.96 1.99 7.729 3 10.577 3.5 3.027.53 5.018.49 5.077.45h335.296c7.4-4.92 15.81-8.57 25.03-10.47 4.03-.83 8.14-1.24 12.24-1.38 2.57-4.85 5.63-9.49 9.28-13.77 13.06-15.32 31.3-24.64 51.37-26.24 13.23-1.02 26.29 1.59 38.02 7.09 9.72-15.68 25.26-26.67 43.56-30.45 10.69-2.21 21.31-1.68 31.2 1.01 23.75 6.46 43.16 25.66 48.48 51.37.15.77.19 1.54.32 2.31 10.36 2.01 20.33 6.04 29.42 12.01 3.72 2.44 7.13 5.21 10.35 8.16.13.12.27.23.4.36h393.7c10.02-21.9 32.08-37.17 57.69-37.17s47.67 15.27 57.69 37.17h331.38c.34 0 2.43.02119 5.48-.5 2.89-.49 6.65-1.53 10.58-3.49 2.99-1.49 6.06-3.5 8.95-6.33.58-.57 1.09-1.22 1.63-1.82 8.16-9.16 12.35008-23.06 12.35008-41.5v-51.69c0-2.86-.96008-10.94-5.59008-15.59" fill="#d2ecf1"/><path d="m1954.85 1886.31c-2.05-.26-4.13-.36-6.23-.32-2.34.05-4.69.3-7.04.75-1.14.21-2.28.47-3.42.78-1.12.32-2.24.65-3.35 1.06-2.41.88-4.92.79-7.17 0-1.21-.42-2.32-1.06-3.31-1.89-.43-.37-.85-.76-1.22-1.21-.78-.91-1.45-1.96-1.89-3.15-1.29-3.48-.62-7.19 1.43-9.97 1.18-1.59 2.82-2.88 4.82-3.62 1.47-.55 2.96-.97 4.45-1.4 2.78-.8 5.57-1.46 8.37-1.87.22-1.42.32-2.87.32-4.33 0-3.25-.53-6.56-1.73-9.78-2.61-7.07-7.82-12.7-14.66-15.84-5.21-2.39-10.88-3.12-16.4-2.19-1.75.3-3.48.74-5.17 1.37-3.51 1.29-6.65 3.23-9.32 5.69-2.71 2.49-4.93 5.52-6.52 8.97-.16.36-.23.73-.37 1.09-2.71 6.57-2.93 13.78-.45 20.49 1.01 2.74.82 5.63-.31 8.09s-3.2 4.48-5.94 5.5c-5.46 2.01-11.57-.78-13.59-6.25-2.59-7-3.49-14.33-2.84-21.54-16.75 10.37-24.5 31.47-17.4 50.65 6.12 16.53 22.07 27.63 39.68 27.63.29 0 .58-.03.87-.04-1.4-13.07 1.21-26.37 7.85-38.06 2.88-5.09 9.33-6.87 14.41-3.98 1.12.63 2.04 1.45 2.82 2.37 2.79 3.29 3.42 8.07 1.17 12.04-3.8 6.7-5.64 14.18-5.5 21.68.07 3.74.67 7.46 1.74 11.11.28.94.53 1.88.87 2.8.9 2.43 2.03 4.73 3.32 6.91 4.33 7.34 10.77 13.21 18.69 16.84 10.26 4.72 21.75 5.16 32.35 1.24 21.88-8.1 33.09-32.49 24.99-54.36-5.64-15.25-19.22-25.3-34.32-27.26" fill="#fffffe"/><path d="m720.091 1963.42c0-11.17-7.38-20.55-17.484-23.81-2.423-.78-4.956-1.31-7.635-1.31-1.008 0-1.965.18-2.942.3-3.853.45-7.45 1.71-10.569 3.71-6.961 4.47-11.609 12.24-11.609 21.11 0 9.47 5.325 17.63 13.079 21.91 3.396 1.87 7.224 3.02 11.342 3.14.238 0 .459.07.699.07 3.46 0 6.759-.71 9.762-1.98 9.015-3.81 15.357-12.75 15.357-23.14" fill="#fffffe"/><path d="m732.049 1216.14c3.729-2.31 8.614-1.17 10.925 2.55 2.312 3.72 1.168 8.61-2.553 10.93-8.622 5.35-13.769 14.59-13.769 24.72 0 4.39-3.55 7.94-7.932 7.94s-7.932-3.55-7.932-7.94c0-15.65 7.947-29.93 21.261-38.2zm1.795 69.1c-1.524 1.39-3.447 2.08-5.363 2.08-2.144 0-4.282-.86-5.846-2.56-1.725-1.88-3.3-3.92-4.682-6.06-2.378-3.67-1.322-8.59 2.358-10.96 3.674-2.39 8.585-1.33 10.966 2.35.899 1.39 1.921 2.71 3.045 3.94 2.961 3.22 2.747 8.24-.478 11.21zm21.894 31.24c34.263 0 62.138-27.87 62.138-62.14 0-34.26-27.875-62.13-62.138-62.13s-62.138 27.87-62.138 62.13c0 34.27 27.875 62.14 62.138 62.14z" fill="#fffffe"/><path d="m2117.13 1119.5c9.73-1.62 19.69.99 27.33 7.18 3.4 2.76 3.92 7.76 1.16 11.16-1.57 1.94-3.86 2.94-6.17 2.94-1.75 0-3.52-.58-4.99-1.77-4.1-3.33-9.46-4.74-14.71-3.86-4.35.71-8.41-2.2-9.13-6.52-.73-4.32 2.19-8.41 6.51-9.13zm32.05 24.65c4.34 0 7.88 3.48 7.94 7.83.02 1.88-.05 4.57-.15 5.45-.47 4.04-3.9 7.02-7.87 7.02-.31 0-.61-.01-.92-.05-4.34-.5-7.45-4.4-6.98-8.73.06-.71.07-2.32.05-3.48-.06-4.38 3.45-7.98 7.83-8.04zm-26.35 54.2c11.63 0 22.67-4.43 31.07-12.47 8.67-8.3 13.6-19.48 13.87-31.48.26-12.01-4.17-23.4-12.47-32.07-8.55-8.95-20.09-13.88-32.48-13.88-11.63 0-22.66 4.43-31.06 12.47-8.68 8.3-13.61 19.48-13.88 31.49-.26 12 4.17 23.39 12.47 32.06 8.56 8.96 20.1 13.88 32.48 13.88z" fill="#fffffe"/><path d="m1233.25 1776.38c-.62 2.42-2.34 4.22-4.46 5.18-1.01.46-2.08.78-3.22.78-.65 0-1.31-.08-1.98-.25-4.24-1.09-6.8-5.41-5.71-9.65.3-1.15.48-2.32.63-3.49.03-.23.1-.45.12-.68.42-3.97 3.7-6.85 7.57-7.05.38-.02.76-.05 1.15-.01 4.36.46 7.52 4.36 7.06 8.72-.06.59-.23 1.18-.32 1.77-.23 1.56-.44 3.14-.84 4.68zm-35.96-38.78c-4.24-1.1-6.8-5.42-5.71-9.67 1.09-4.24 5.44-6.79 9.66-5.7 4.72 1.21 9.1 3.18 13.07 5.74 2.2 1.43 4.28 3.02 6.2 4.81 3.09 2.89 5.79 6.23 8 9.98 2.22 3.77.96 8.64-2.82 10.86-.98.58-2.05.85-3.11.97-.3.04-.6.12-.9.12-2.72 0-5.37-1.39-6.85-3.91-2-3.4-4.64-6.27-7.73-8.53-2.9-2.14-6.21-3.75-9.81-4.67zm80.48-57.9c24.27-5 48.11 10.65 53.12 34.93.89 4.29-1.87 8.48-6.16 9.37-.54.11-1.08.16-1.61.16-3.69 0-6.99-2.57-7.76-6.32-3.25-15.71-18.68-25.84-34.37-22.6-4.29.92-8.49-1.87-9.38-6.16-.88-4.29 1.88-8.49 6.16-9.38zm-205.04-5.77c-.15.03-.3.04-.44.07-.43.08-.83.22-1.25.32-8.03 1.88-15.22 5.55-21.14 10.58-13.67 11.59-20.77 30.1-16.9 48.86 2.74 13.23 10.46 24.6 21.75 32.02 11.28 7.41 24.78 10 38.01 7.26 5.55-1.15 10.74-3.21 15.53-6.04-.03-1.17-.01-2.33.01-3.49.1-4.64.58-9.21 1.44-13.69 2.81-14.76 9.58-28.52 19.99-39.88 2.62-2.86 5.46-5.43 8.39-7.85 13.65-11.28 30.46-17.88 48.47-18.67 14.51-.62 28.91 2.58 41.68 9.3 5.17 2.72 7.16 9.12 4.44 14.29-.63 1.19-1.47 2.19-2.43 3.03-3.19 2.78-7.88 3.5-11.85 1.41-9.47-4.98-20.15-7.38-30.92-6.9-9.32.41-18.2 2.95-26.18 7.26-5.91 3.19-11.33 7.32-16 12.42-9.4 10.25-14.85 23.11-15.8 36.78-.16 2.3-.22 4.62-.12 6.96.71 16.23 7.7 31.21 19.67 42.18 11.98 10.98 27.52 16.66 43.74 15.92 16.23-.71 31.21-7.7 42.19-19.67 3.6-3.94 6.57-8.28 8.99-12.88 1.67-3.17 3.04-6.47 4.11-9.87 1.16-3.66 1.96-7.42 2.4-11.26.37-3.21.56-6.45.41-9.74-.27-6.19-1.46-12.26-3.54-18.01-1.53-4.23-.18-8.77 3.01-11.55.96-.84 2.07-1.54 3.34-2 5.49-1.99 11.55.86 13.54 6.36 2.81 7.77 4.42 15.94 4.79 24.28.3 6.98-.36 13.84-1.76 20.51 9.3 2.64 19.15 3.05 28.88 1.04 15.91-3.29 29.59-12.57 38.51-26.15 8.92-13.57 12.03-29.81 8.74-45.72-2.05-9.91-6.43-18.95-12.71-26.51-3.81-4.58-8.32-8.63-13.44-11.99-.63-.42-1.29-.75-1.93-1.14-13.17-8.01-28.62-10.74-43.79-7.6-2.85.57-5.68-.05-7.94-1.53-2.27-1.48-3.96-3.82-4.56-6.69-.87-4.23.92-8.37 4.22-10.74 1.16-.83 2.51-1.45 4-1.76 3.44-.71 6.9-1.12 10.35-1.39-6.5-23.17-29.95-37.75-53.87-32.81-12.71 2.62-23.47 10.33-30.13 21.3.49.43 1.02.79 1.49 1.23 2.28 2.11 4.46 4.36 6.48 6.77 3.76 4.47 3.18 11.14-1.29 14.9s-11.14 3.18-14.9-1.29c-.75-.89-1.59-1.68-2.39-2.51-6.87-7.19-15.49-12.34-24.92-14.91-5.97-1.63-12.22-2.28-18.52-1.76-14.44 1.15-27.56 7.85-36.95 18.87-3.69 4.33-6.61 9.14-8.75 14.24-2.87 6.84-4.27 14.23-4.14 21.79.02 1.15.02 2.29.11 3.44s-.05 2.27-.31 3.33c-1.05 4.32-4.73 7.68-9.39 8.06-.29.02-.57.03-.85.03-5.46 0-10.09-4.2-10.54-9.74-.21-2.71-.26-5.42-.19-8.1.1-3.57.5-7.1 1.09-10.58.03-.13.05-.26.07-.39z" fill="#fffffe"/><path d="m1836.35 1690.04c0-1.75-.14-3.45-.35-5.14-.45-3.7-1.37-7.24-2.71-10.58-1.55-3.83-3.63-7.39-6.17-10.57-7.75-9.75-19.69-16.02-33.08-16.02s-25.33 6.27-33.09 16.02c-2.53 3.18-4.62 6.74-6.16 10.57-1.34 3.34-2.26 6.88-2.71 10.58-.21 1.69-.35 3.39-.35 5.14 0 23.33 18.98 42.3 42.31 42.3s42.31-18.97 42.31-42.3" fill="#fffffe"/><path d="m900.813 1398.43c5.091-2.48 40.2-18.63 81.405-14.26-8.015-28.02-33.805-48.61-64.362-48.61-36.936 0-66.985 30.05-66.985 66.99 0 8.81 1.756 17.22 4.866 24.94 19.786-18.71 40.825-27.43 45.076-29.06" fill="#fffffe"/><path d="m1567.28 2151.88c-1.51 1.34-3.39 2-5.26 2-2.19 0-4.37-.91-5.94-2.68-1.65-1.86-3.16-3.89-4.48-6.02-2.3-3.72-1.15-8.61 2.57-10.92s8.61-1.15 10.92 2.57c.84 1.36 1.81 2.66 2.87 3.86 2.9 3.28 2.6 8.29-.68 11.19zm-21.88-36.47c.55-3.81 1.63-7.49 3.11-10.97 1.63-3.81 3.78-7.36 6.38-10.58 3.39-4.21 7.54-7.81 12.3-10.58.4-.23.77-.5 1.17-.72 2.85-1.54 6.22-1.14 8.63.72.84.66 1.58 1.49 2.12 2.5 1.43 2.65 1.16 5.73-.37 8.08-.7 1.08-1.64 2.02-2.85 2.67-3.64 1.96-6.73 4.69-9.18 7.91-2.92 3.83-4.91 8.36-5.6 13.22-.57 3.95-3.96 6.81-7.84 6.81-.38 0-.76-.03-1.14-.08-4.33-.63-7.35-4.64-6.73-8.98zm96.57-21.55c-2.02-3.79-4.45-7.33-7.22-10.58-10.92-12.83-27.16-21.01-45.29-21.01-18.14 0-34.38 8.18-45.3 21.01-2.76 3.25-5.19 6.79-7.22 10.58-1.78 3.35-3.26 6.89-4.39 10.58-1.67 5.48-2.59 11.29-2.59 17.32 0 32.8 26.69 59.49 59.5 59.49 32.8 0 59.49-26.69 59.49-59.49 0-6.03-.91-11.84-2.59-17.32-1.12-3.69-2.6-7.23-4.39-10.58z" fill="#fffffe"/><path d="m1766.03 826.308c12.48 8.71 21.66 23.201 30.55 37.215 10.77 16.98 20.94 33.015 33.08 33.015 1.33 0 2.74-.178 4.19-.529 4.14-1.004 7.12-3.23 9.36-7.003 8.51-14.318 3.35-43.752.64-53.885-.06-.225-.11-.46-.16-.687-7.6-38.376-3.51-63.656 3.59-97.842l.64-3.047c5.05-24.156 13.49-64.583-.84-85.478-5.1-7.439-12.89-11.924-23.8-13.711-2.22-.362-4.43-.545-6.58-.545-41.14 0-70.01 68.939-77.37 117.895-5.41 35.965 2.33 57.578 26.7 74.602" fill="#1b1a19"/><path d="m1443.55 1449.03c7.25 15.09 20.43 31.47 44.38 42.8 13.69 6.48 24.14 15.62 34.37 25.6 2.3 2.25 4.6 4.53 6.92 6.85 1.23 1.23 2.48 2.48 3.74 3.73 3.53 3.51 7.19 7.05 11.05 10.58 3.92 3.58 8.05 7.13 12.53 10.57 1.63 1.25 3.31 2.48 5.03 3.69-17.88 1.3-33.54 6.46-48.81 11.53-13.34 4.44-26.95 8.97-42.68 11.25-6.28.91-12.91 1.46-19.99 1.50068-3.52.00932-7.15-.09068-10.91-.34068-8.19-.55-15.7-1.45-22.65-2.59-29.08-4.8-48.17-14.08-64.09-21.84-2.25-1.1-4.45-2.16-6.62-3.2-1.62-.77-3.24-1.53-4.83-2.25-6.64-2.98-13.14-5.4-19.92-6.83.67-.49 1.33-.99 1.99-1.49 4.48-3.43 8.87-6.98 13.28-10.58.38-.3.75-.6 1.12-.91 3.94-3.21 7.91-6.44 12.02-9.67 12.59-9.86 26.55-19.61 45.12-28.05 18.44-8.38 37.13-22.63 48.95-40.35zm-678.069 20.5c23.327 0 42.306 18.98 42.306 42.31 0 1.9-.169 3.76-.413 5.59-.492 3.7-1.43 7.25-2.813 10.58-1.596 3.84-3.737 7.4-6.335 10.58-3.536 4.32-7.907 7.92-12.865 10.57-5.932 3.18-12.696 4.99-19.88 4.99s-13.948-1.81-19.88-4.99c-4.958-2.65-9.33-6.25-12.865-10.57l-.481913-.60068c-2.382462-3.02541-4.356837-6.37932-5.853087-9.97932-1.383-3.33-2.322-6.88-2.813-10.58-.244-1.83-.414-3.69-.414-5.59 0-23.33 18.979-42.31 42.307-42.31z" fill="#c7a17e"/><path d="m1198.88 1104.08976c-6.36-.04976-11.57 7.88024-11.65 17.70024-.07 9.83 5.03 17.84 11.39 17.88024 6.36.04976 11.57-7.88024 11.64-17.71024.07-9.82-5.02-17.83-11.38-17.87024" fill="#fffffe"/><path d="m1732.98 1108.01976c-6.35-.04976-11.57 7.88024-11.64 17.71024-.07 9.82 5.02 17.83 11.38 17.87024 6.36.04976 11.57-7.88024 11.65-17.71024.07-9.82-5.03-17.83-11.39-17.87024" fill="#fffffe"/><path d="m1537.22 1415.11c-7.92-4.77-10.47-15.06-5.7-22.98 4.78-7.92 15.07-10.48 22.99-5.7 7.92 4.77 10.47 15.06 5.7 22.98-4.77 7.93-15.06 10.48-22.99 5.7zm-30.93-57.2c-7.92-4.78-10.48-15.07-5.7-22.99 4.77-7.92 15.06-10.47 22.98-5.7s10.48 15.06 5.7 22.99c-4.77 7.92-15.06 10.47-22.98 5.7zm54.31-51.46c4.77-7.92 15.06-10.47 22.98-5.7 7.93 4.78 10.48 15.07 5.71 22.99-4.78 7.92-15.07 10.47-22.99 5.7s-10.48-15.06-5.7-22.99zm35.1 67.26c4.77-7.92 15.06-10.47 22.99-5.7 7.92 4.77 10.47 15.07 5.7 22.99-4.78 7.92-15.07 10.47-22.99 5.7s-10.47-15.07-5.7-22.99zm-213.18-22.19c-7.51 5.39-17.98 3.67-23.37-3.84-5.39-7.52-3.67-17.98 3.84-23.37 7.52-5.39 17.98-3.67 23.37 3.84 5.4 7.51 3.68 17.98-3.84 23.37zm-26.25 59.5c-7.52 5.39-17.98 3.67-23.37-3.84s-3.67-17.98 3.84-23.37 17.98-3.67 23.37 3.84c5.39 7.52 3.67 17.98-3.84 23.37zm-35.85-83.07c-7.51 5.39-17.97 3.67-23.37-3.84-5.39-7.51-3.67-17.98 3.84-23.37 7.52-5.39 17.98-3.67 23.37 3.84 5.4 7.52 3.68 17.98-3.84 23.37zm-49.13 42.65c7.52-5.4 17.98-3.68 23.37 3.84 5.4 7.51 3.68 17.97-3.84 23.37-7.51 5.39-17.97 3.67-23.37-3.85-5.39-7.51-3.67-17.97 3.84-23.36zm292.68 157.41c4.39 3.72 9.06 7.26 14.17 10.58 6 3.89 12.62 7.46 20.17 10.57 9.5 3.92 20.52 7.1 33.58 9.34 1.42.25 2.8.52 4.27.74 7.56 1.14 15.1 1.71 22.41 1.71h.01c5.71 0 11.27-.48 16.75-1.18 13.02-1.66 25.29-5.22 36.41-10.61 6.16-2.98 11.92-6.53 17.3-10.57 3.95-2.97 7.75-6.11 11.21-9.62.3-.31.55-.65.85-.96 3.2-3.33 6.09-6.88 8.8-10.58 14.32-19.55 21.73-43.98 21.34-71.67-.91-65.94-41.79-96.74-93.55-135.74-33.9-25.54-72.32-54.49-102.03-97.86-39.52-57.68-110.5-60.6-124.33-60.6-1.45 0-2.69.03-3.72.07-21.99.94-72.71 3.1-124.81 66.34-30.1 36.54-66.1 61.38-97.86 83.3-54.4 37.54-97.37 67.19-100.61 138.16-1.42 30.89 6.53 55.89 23.6 74.29 1.22 1.31 2.5 2.5 3.77 3.71 4.21 4.02 8.67 7.56 13.27 10.58 6.85 4.48 13.95 7.91 20.86 10.58 13.84 5.33 26.87 7.53 35.31 8.4 3.75.39 6.59.53 8.19.57 15.96.46 28.86-1.15 40.01-4.24 4.73-1.32 9.15-2.91 13.33-4.73 6.77-2.96 12.95-6.54 18.9-10.58 4.8-3.26 9.48-6.81 14.21-10.58 2.73-2.18 5.49-4.41 8.31-6.72 16.23-13.24 34.63-28.25 61.76-40.58 28.28-12.86 48.41-36.78 48.94-58.16 0-.35 0-.61.01-.8.59-46.59 2.68-107.05 3.39-126.84-15.53-3.72-31.76-14.09-41.59-27.19-8.06-10.74-11.12-22.19-8.85-33.12 6.44-31 57.5-32.36 59.67-32.4h.55c6.16 0 37.68.81 53.63 16.88 6.26 6.3 9.4 14.05 9.33 23.02-.22 30.58-29.69 48.61-51.58 53.13-.7 19.26-2.82 80.16-3.4 126.89v.01l-.01.85c0 .04-.01.08-.01.09 0 6.6 1.95 41.72 41.04 60.22 20.1 9.51 33.88 23.29 47.2 36.61 2.73 2.73 5.44 5.44 8.2 8.11 3.74 3.63 7.56 7.17 11.6 10.58z" fill="#4f433b"/><path d="m1469.55 1237.89c8.21.06 14.9-4.59 14.94018-10.38.03982-5.8-6.58018-10.55-14.79018-10.61s-14.9 4.59-14.94028 10.39c-.04972 5.79 6.58028 10.54 14.79028 10.6" fill="#fffffe"/><path d="m840.157 1528.01c.322 2.84.727 5.74 1.258 8.72.113.63.252 1.23.371 1.86.691 3.64 1.47 7.17 2.354 10.57 7.877 30.32 23.332 51.08 45.159 60.39 12.303 5.24 24.383 5.97 33.365 5.01-3.723-4.04-6.349-8.21-7.92-11.8-2.344-5.35.093-11.58 5.444-13.93 5.319-2.32 11.516.07 13.892 5.36.972 2.06 8.438 16.26 29.321 16.4 5.137.04 11.056-.75 17.925-2.81 10.856-3.26 17.306-7.64 20.784-13.66 4.3-7.45 4.04-17.4 1.79-30.88-.96-5.76 2.93-11.21 8.7-12.17s11.21 2.93 12.17 8.69c.62 3.76 1.44 8.7 1.76 14.23.08.01.16 0 .24.02 15.85 2.81 29.18-1.56 38.51-12.69 2.95-3.53 5.36-7.63 7.27-12.16 1.39-3.29 2.49-6.84 3.32-10.57.75-3.38 1.27-6.91 1.56-10.58.27-3.42.34-6.95.21-10.58-.01-.16-.01-.33-.02-.5-.26-6.26-1.08-12.8-2.53-19.51-1.3-6-3.08-12.13-5.34-18.32-6.25-14-13.53-26.04-21.77-36.15-4.78-5.86-9.87-11.09-15.3-15.62-8.3-6.93-17.36-12.25-27.13-16.02-.72-.28-1.43-.58-2.16-.85-2.75-.98-5.498-1.8-8.244-2.51-3.51-.91-7.001-1.58-10.471-2.09-39.17-5.84-74.457 11.52-74.865 11.72-.419.21-.868.4-1.309.55-1.715.61-23.158 8.46-41.72 27.66-2.403 2.48-4.749 5.17-7.006 8.04-2.167 2.76-4.237 5.71-6.181 8.85-8.747 14.12-14.759 32.13-14.147 54.75.093 3.43.297 6.94.71 10.58" fill="#c7a17e"/><path d="m1994.93 1588.6c12.92.45 29.37-2.71 42.22-12.65 8.65-6.69 14.79-15.67 18.47-26.79 1.1-3.31 1.92-6.87 2.57-10.57.6-3.37.99-6.9 1.22-10.58.21-3.39.26-6.92.15-10.58-.06-2.07-.05-4.1-.22-6.26-1.03-13.89-3.85-25.81-7.87-36.15-2.76-7.09-6.08-13.4-9.85-19.03-2.72-4.07-5.65-7.79-8.75-11.17-2.41-2.62-4.91-5.04-7.48-7.28-31.11-27.11-72.46-27.77-75.13-27.78-.61-.01-1.22-.01-1.82-.01-33.33 0-57.61 8.9-75.14 20.59-4.93 3.29-9.32 6.81-13.23 10.4-7.9 7.27-13.82 14.87-18.19 21.7-6.2 9.71-9.27 17.83-10.39 21.21-.33 1.02-.51 1.64-.53 1.71-2.22 7.76-3.43 15.4-3.74 22.78-.13 3.15-.11 6.26.1 9.29.15 2.07.38 4.11.68 6.11.23 1.51.49 3 .81 4.47.77 3.66 1.82 7.2 3.14 10.58 1.45 3.73 3.22 7.26 5.3 10.57 2.2 3.48 4.71 6.73 7.6 9.67 11.48 11.71 26.87 16.97 43.2 15.24-2.15-6.45-3.34-13.14-3.59-19.61-.07-1.92.41-3.71 1.24-5.3.85-1.62 2.1-2.99 3.64-3.98 1.54-.98 3.32-1.62 5.28-1.7 4.18-.27 7.91 2.13 9.76 5.68.7 1.36 1.15 2.86 1.22 4.48.03.8.1 1.62.17 2.44.03.3.04.59.07.89 1.19 11.02 6.18 22.47 15.2 29.4 4.36 3.34 9.64 5.65 15.91 6.33 6.79.74 12.53.48 17.39-.45 20.22-3.83 25.06-19.14 25.82-22.14.02-.09.06-.23.08-.3 1.3-5.65 6.93-9.23 12.59-8 5.66 1.25 9.27 6.76 8.09 12.43-.87 4.18-2.82 9.25-5.99 14.36" fill="#c7a17e"/><path d="m1332.51 609.711c6.26-7.627 15.48-12.211 25.3-12.575 4.44-.17 8.06 3.259 8.22 7.633.17 4.379-3.25 8.059-7.63 8.222-5.28.196-10.25 2.667-13.62 6.781-1.57 1.913-3.84 2.902-6.14 2.902-1.77 0-3.55-.589-5.02-1.797-3.39-2.779-3.88-7.778-1.11-11.166zm22.59 66.549c25.14 2.249 46.57-16.077 48.78-40.763 2.21-24.688-16.08-46.57-40.76-48.777-1.37-.124-2.73-.184-4.07-.184-23.4 0-42.62 17.603-44.71 40.946-1.07 11.961 2.58 23.619 10.28 32.833 7.7 9.213 18.53 14.876 30.48 15.945z" fill="#fffffe"/><path d="m1475.3 730.648c1.99-13.892 10.58-26.17 22.97-32.848 3.85-2.073 8.67-.643 10.74 3.218 2.08 3.857.64 8.668-3.22 10.747-7.97 4.299-13.5 12.201-14.78 21.13-.56 3.956-3.96 6.809-7.84 6.809-.38 0-.75-.026-1.14-.08-4.33-.62-7.35-4.64-6.73-8.976zm21.88 36.481c-1.51 1.333-3.39 1.989-5.25 1.989-2.2 0-4.38-.907-5.95-2.678-.45-.509-.79-1.107-1.22-1.638-1.14-1.419-2.3-2.834-3.25-4.378-2.31-3.727-1.16-8.615 2.56-10.923 3.73-2.303 8.62-1.157 10.93 2.567.84 1.363 1.8 2.664 2.87 3.862 2.43 2.751 2.58 6.706.64 9.628-.38.563-.8 1.102-1.33 1.571zm-11.46 18.886c9.57 6.596 21.16 10.479 33.64 10.479 5.51 0 10.82-.811 15.89-2.219.15-1.343.34-2.67.61-3.976 1.5-7.539 4.85-14.42 9.54-20.158 7.56-9.236 18.61-15.512 31.11-16.781 1.5-5.206 2.35-10.681 2.35-16.36 0-32.804-26.69-59.493-59.5-59.493-32.8 0-59.49 26.689-59.49 59.493 0 9.804 2.43 19.037 6.65 27.199 4.52 8.756 11.13 16.258 19.2 21.816z" fill="#fffffe"/><path d="m1575.18 775.092c-8.97 2.236-16.01 9.265-18.25 18.233-.25 1.003-.4 2.032-.53 3.077-.12.993-.3 1.967-.3 2.992 0 3.012.62 5.863 1.6 8.541 3.51 9.639 12.68 16.578 23.52 16.578 12.21 0 22.39-8.77 24.64-20.338.3-1.55.48-3.144.48-4.781 0-7.923-3.76-14.915-9.51-19.522-2.06-1.657-4.36-3.003-6.88-3.945-2.73-1.019-5.65-1.653-8.73-1.653-.95 0-1.85.178-2.77.28-1.11.124-2.21.273-3.27.538" fill="#fffffe"/><path d="m2149.19 1536.96c7.66 0 14.45-3.52 19.06-8.95 2.56-3.02 4.47-6.59 5.38-10.58.41-1.8.68-3.66.68-5.59 0-13.85-11.27-25.12-25.12-25.12s-25.12 11.27-25.12 25.12c0 1.93.26 3.79.68 5.59.91 3.99 2.81 7.56 5.38 10.58 4.61 5.43 11.4 8.95 19.06 8.95" fill="#fffffe"/><g fill="#1b1a19"><path d="m2222.10008 1610.11c0 18.44-4.19008 32.34-12.35008 41.5-.54.6-1.05 1.25-1.63 1.82-2.89 2.83-5.96 4.84-8.95 6.33-3.93 1.96-7.69 3-10.58 3.49-3.05.52119-5.14.5-5.48.5h-331.38c-10.02-21.9-32.08-37.17-57.69-37.17s-47.67 15.27-57.69 37.17h-393.7c-.13-.13-.27-.24-.4-.36-3.22-2.95-6.63-5.72-10.35-8.16-9.09-5.97-19.06-10-29.42-12.01-.13-.77-.17-1.54-.32-2.31-5.32-25.71-24.73-44.91-48.48-51.37-9.89-2.69-20.51-3.22-31.2-1.01-18.3 3.78-33.84 14.77-43.56 30.45-11.73-5.5-24.79-8.11-38.02-7.09-20.07 1.6-38.31 10.92-51.37 26.24-3.65 4.28-6.71 8.92-9.28 13.77-4.1.14-8.21.55-12.24 1.38-9.22 1.9-17.63 5.55-25.03 10.47h-335.296c-.059.04-2.05.08-5.077-.45-2.848-.5-6.617-1.51-10.577-3.5-2.908-1.46-5.915-3.44-8.735-6.16-.653-.62-1.231-1.34-1.839-2.03-8.167-9.15-12.358169-23.05-12.358169-41.5v-51.83c0-2.72.963169-10.8 5.593169-15.45 1.759-1.77 4.037-2.91 6.763-3.57 1.671-.41 3.473-.67 5.541-.67h21.019c1.748 3.74 3.843 7.27 6.256 10.57 11.553 15.81 30.176 26.14 51.211 26.14 21.034 0 39.658-10.33 51.211-26.14 1.562-2.13 3.031-4.34 4.321-6.67.431 2.27.884 4.51 1.374 6.67 11.288 49.86 37.777 70.97 58.616 79.85 11.994 5.11 24.032 7.09 34.733 7.09 13.172 0 24.258-3 30.793-6.81 5.14 1.53 10.862 2.47 17.249 2.47 7.088 0 14.961-1.12 23.627-3.72 23.085-6.92 33.115-19.82 37.035-33.04 22.53 3.59 43.27-3.65 57.05-20.1 6.13-7.32 10.65-16.02 13.56-25.74 1.02-3.4 1.81-6.94 2.43-10.57h5.8c6.12 4.04 12.46 7.51 18.93 10.57 31.11 14.75 65.55 18.97 96.57 18.87 3.42.35 6.76.58 9.95.68 17.7.49 32.36-1.28 45-4.64 5.25-.66 10.14-1.33 14.53-1.94 7.89-1.09 14.71-2.04 18.76-2.22 2.25-.11 4.45.06 6.64.35 9.08 1.2 18.01 5.51 29.51 11.11 16.97 8.27 39.23 19.07 73.36 24.21 2.92.44 5.92.83 9.01 1.18 3.94.45 7.98.85 12.23 1.13 3.96.27 7.79.39 11.52.39 6.37 0 12.36-.41 18.12-1.04 20.09-2.22 36.78-7.71 52.03-12.78 20.53-6.84 38.26-12.75 60.83-10.23 2.97.32 6.36.74 10.13 1.2 10.28 1.25 23.44 2.84 38.38 3.99 1.42.24 2.78.52 4.24.74 8.59 1.29 17.19 1.94 25.55 1.94h.01c7.39 0 14.63-.53 21.7-1.53 38.46-1.51 80.6-9.25 116.2-31.41 4.62-2.87 9.16-5.93 13.53-9.32.97 3.19 2.06 6.31 3.36 9.32 3.95 9.13 9.43 17.41 16.38 24.49 17.88 18.22 43.37 25.6 68.89 20.19 8.27 10.43 20.19 18.17 36.03 19.89 3.45.38 6.75.55 9.89.55 12.83 0 23.05-2.99 31.15-7.46 6.32 1.95 13.7 3.05 21.63 3.05 17.39 0 37.15-5.11 52.76-17.2 10.49-8.11 21.96-21.65 27.46-43.51.84-3.33 1.53-6.85 2.06-10.57h31.88c2.89 4.06 6.42 7.63 10.45 10.57 7.65 5.6 17.05 8.95 27.24 8.95s19.59-3.35 27.24-8.95c4.02-2.94 7.56-6.51 10.45-10.57h17.32c2.07 0 3.87.26 5.55.67 2.72.66 5 1.8 6.76 3.57 4.63 4.65 5.59008 12.73 5.59008 15.59zm-470.37008 79.93c0-1.75.14-3.45.35-5.14.45-3.7 1.37-7.24 2.71-10.58 1.54-3.83 3.63-7.39 6.16-10.57 7.76-9.75 19.7-16.02 33.09-16.02s25.33 6.27 33.08 16.02c2.54 3.18 4.62 6.74 6.17 10.57 1.34 3.34 2.26 6.88 2.71 10.58.21 1.69.35 3.39.35 5.14 0 23.33-18.98 42.3-42.31 42.3s-42.31-18.97-42.31-42.3zm-679.97 2.96c.45 5.54 5.08 9.74 10.54 9.74.28 0 .56-.01.85-.03 4.66-.38 8.34-3.74 9.39-8.06.26-1.06.4-2.18.31-3.33s-.09-2.29-.11-3.44c-.13-7.56 1.27-14.95 4.14-21.79 2.14-5.1 5.06-9.91 8.75-14.24 9.39-11.02 22.51-17.72 36.95-18.87 6.3-.52 12.55.13 18.52 1.76 9.43 2.57 18.05 7.72 24.92 14.91.8.83 1.64 1.62 2.39 2.51 3.76 4.47 10.43 5.05 14.9 1.29s5.05-10.43 1.29-14.9c-2.02-2.41-4.2-4.66-6.48-6.77-.47-.44-1-.8-1.49-1.23 6.66-10.97 17.42-18.68 30.13-21.3 23.92-4.94 47.37 9.64 53.87 32.81-3.45.27-6.91.68-10.35 1.39-1.49.31-2.84.93-4 1.76-3.3 2.37-5.09 6.51-4.22 10.74.6 2.87 2.29 5.21 4.56 6.69 2.26 1.48 5.09 2.1 7.94 1.53 15.17-3.14 30.62-.41 43.79 7.6.64.39 1.3.72 1.93 1.14 5.12 3.36 9.63 7.41 13.44 11.99 6.28 7.56 10.66 16.6 12.71 26.51 3.29 15.91.18 32.15-8.74 45.72-8.92 13.58-22.6 22.86-38.51 26.15-9.73 2.01-19.58 1.6-28.88-1.04 1.4-6.67 2.06-13.53 1.76-20.51-.37-8.34-1.98-16.51-4.79-24.28-1.99-5.5-8.05-8.35-13.54-6.36-1.27.46-2.38 1.16-3.34 2-3.19 2.78-4.54 7.32-3.01 11.55 2.08 5.75 3.27 11.82 3.54 18.01.15 3.29-.04 6.53-.41 9.74-.44 3.84-1.24 7.6-2.4 11.26-1.07 3.4-2.44 6.7-4.11 9.87-2.42 4.6-5.39 8.94-8.99 12.88-10.98 11.97-25.96 18.96-42.19 19.67-16.22.74-31.76-4.94-43.74-15.92-11.97-10.97-18.96-25.95-19.67-42.18-.1-2.34-.04-4.66.12-6.96.95-13.67 6.4-26.53 15.8-36.78 4.67-5.1 10.09-9.23 16-12.42 7.98-4.31 16.86-6.85 26.18-7.26 10.77-.48 21.45 1.92 30.92 6.9 3.97 2.09 8.66 1.37 11.85-1.41.96-.84 1.8-1.84 2.43-3.03 2.72-5.17.73-11.57-4.44-14.29-12.77-6.72-27.17-9.92-41.68-9.3-18.01.79-34.82 7.39-48.47 18.67-2.93 2.42-5.77 4.99-8.39 7.85-10.41 11.36-17.18 25.12-19.99 39.88-.86 4.48-1.34 9.05-1.44 13.69-.02 1.16-.04 2.32-.01 3.49-4.79 2.83-9.98 4.89-15.53 6.04-13.23 2.74-26.73.15-38.01-7.26-11.29-7.42-19.01-18.79-21.75-32.02-3.87-18.76 3.23-37.27 16.9-48.86 5.92-5.03 13.11-8.7 21.14-10.58.42-.1.82-.24 1.25-.32.14-.03.29-.04.44-.07-.02.13-.04.26-.07.39-.59 3.48-.99 7.01-1.09 10.58-.07 2.68-.02 5.39.19 8.1zm1086.15 349.13c-17.47 18.08-41.53 30.21-71.77 36.38-6.75 1.38-13.78 2.49-21.15 3.27-9.49 1-19.47 1.5-29.97 1.5h-374.7c-13.69-25.1-40.32-42.17-70.86-42.17-30.55 0-57.18 17.07-70.86 42.17h-662.425c-10.493 0-20.48-.5-29.966-1.5-7.37-.78-14.4-1.89-21.153-3.27-30.234-6.17-54.295-18.3-71.77-36.38-10.997-11.37-17.998-23.81-22.53-35.27 17.754-6.47 30.488-23.47 30.488-43.44 0-22.91-16.751-41.93-38.637-45.59v-233.23c2.333.26 4.07.31 4.909.31.33 0 .527-.01.571-.01h314.083c-9.74 15.22-13.82 34.08-9.88 53.14 3.88 18.76 14.83 34.89 30.84 45.41 11.84 7.79 25.4 11.82 39.25 11.82 4.87 0 9.78-.5 14.66-1.51 5.12-1.06 10.03-2.69 14.72-4.78 4.19 13.98 11.99 26.66 23.03 36.77 15.24 13.96 34.75 21.53 55.29 21.53 1.21 0 2.44-.03 3.67-.08 21.87-.96 42.06-10.37 56.85-26.51 5.14-5.61 9.35-11.82 12.7-18.43 7.58 2.29 15.45 3.46 23.4 3.45 5.57 0 11.18-.56 16.76-1.72 21.44-4.43 39.88-16.94 51.91-35.24 12.02-18.29 16.21-40.18 11.77-61.62-1.62-7.88-4.36-15.34-8.06-22.23h371.76c-.14 1.7-.26 3.4-.26 5.14 0 34.99 28.47 63.46 63.46 63.46s63.46-28.47 63.46-63.46c0-1.74-.12-3.44-.26-5.14l325.47-.01c.08 0 .32.01.71.01.94 0 2.77-.05 5.17-.32l.0156 282.44c0 .42 1.0344 42.31-30.6956 75.11zm-92.92 128.55c0 5.43 0 14.54-25.12 14.54s-25.12-9.11-25.12-14.54v-66.24h20.27c10.43 0 20.4-.51 29.97-1.44zm-475.53 10.57c-32.81 0-59.5-26.69-59.5-59.49 0-6.03.92-11.84 2.59-17.32 1.13-3.69 2.61-7.23 4.39-10.58 2.03-3.79 4.46-7.33 7.22-10.58 10.92-12.83 27.16-21.01 45.3-21.01 18.13 0 34.37 8.18 45.29 21.01 2.77 3.25 5.2 6.79 7.22 10.58 1.79 3.35 3.27 6.89 4.39 10.58 1.68 5.48 2.59 11.29 2.59 17.32 0 32.8-26.69 59.49-59.49 59.49zm-713.012-10.57c0 5.43 0 14.54-25.12 14.54-25.119 0-25.119-9.11-25.119-14.54v-67.68c9.569.93 19.537 1.44 29.966 1.44h20.273zm-181.476-182.14c-.24 0-.461-.07-.699-.07-4.118-.12-7.946-1.27-11.342-3.14-7.754-4.28-13.079-12.44-13.079-21.91 0-8.87 4.648-16.64 11.609-21.11 3.119-2 6.716-3.26 10.569-3.71.977-.12 1.934-.3 2.942-.3 2.679 0 5.212.53 7.635 1.31 10.104 3.26 17.484 12.64 17.484 23.81 0 10.39-6.342 19.33-15.357 23.14-3.003 1.27-6.302 1.98-9.762 1.98zm70.509-519.01c23.327 0 42.306 18.98 42.306 42.31 0 1.9-.169 3.76-.413 5.59-.492 3.7-1.43 7.25-2.813 10.58-1.596 3.84-3.737 7.4-6.335 10.58-3.536 4.32-7.907 7.92-12.865 10.57-5.932 3.18-12.696 4.99-19.88 4.99s-13.948-1.81-19.88-4.99c-4.958-2.65-9.33-6.25-12.865-10.57-2.599-3.18-4.739-6.74-6.335-10.58-1.383-3.33-2.322-6.88-2.813-10.58-.244-1.83-.414-3.69-.414-5.59 0-23.33 18.979-42.31 42.307-42.31zm88.113-6.85c1.944-3.14 4.014-6.09 6.181-8.85 2.257-2.87 4.603-5.56 7.006-8.04 18.562-19.2 40.005-27.05 41.72-27.66.441-.15.89-.34 1.309-.55.408-.2 35.695-17.56 74.865-11.72 3.47.51 6.961 1.18 10.471 2.09 2.746.71 5.494 1.53 8.244 2.51.73.27 1.44.57 2.16.85 9.77 3.77 18.83 9.09 27.13 16.02 5.43 4.53 10.52 9.76 15.3 15.62 8.24 10.11 15.52 22.15 21.77 36.15 2.26 6.19 4.04 12.32 5.34 18.32 1.45 6.71 2.27 13.25 2.53 19.51.01.17.01.34.02.5.13 3.63.06 7.16-.21 10.58-.29 3.67-.81 7.2-1.56 10.58-.83 3.73-1.93 7.28-3.32 10.57-1.91 4.53-4.32 8.63-7.27 12.16-9.33 11.13-22.66 15.5-38.51 12.69-.08-.02-.16-.01-.24-.02-.32-5.53-1.14-10.47-1.76-14.23-.96-5.76-6.4-9.65-12.17-8.69s-9.66 6.41-8.7 12.17c2.25 13.48 2.51 23.43-1.79 30.88-3.478 6.02-9.928 10.4-20.784 13.66-6.869 2.06-12.788 2.85-17.925 2.81-20.883-.14-28.349-14.34-29.321-16.4-2.376-5.29-8.573-7.68-13.892-5.36-5.351 2.35-7.788 8.58-5.444 13.93 1.571 3.59 4.197 7.76 7.92 11.8-8.982.96-21.062.23-33.365-5.01-21.827-9.31-37.282-30.07-45.159-60.39-.884-3.4-1.663-6.93-2.354-10.57-.119-.63-.258-1.23-.371-1.86-.531-2.98-.936-5.88-1.258-8.72-.413-3.64-.617-7.15-.71-10.58-.612-22.62 5.4-40.63 14.147-54.75zm64.262-127.12c30.557 0 56.347 20.59 64.362 48.61-41.205-4.37-76.314 11.78-81.405 14.26-4.251 1.63-25.29 10.35-45.076 29.06-3.11-7.72-4.866-16.13-4.866-24.94 0-36.94 30.049-66.99 66.985-66.99zm83.324-167c1.08 2.21 2.23 4.4 3.53 6.5 1.99 3.24 5.46 5.03 9.01 5.03 1.89 0 3.81-.52 5.54-1.58 4.97-3.07 6.52-9.58 3.45-14.56-5.13-8.31-7.84-17.89-7.84-27.72 0-25.48 18.11-46.8 42.14-51.78-1.7 30.16-1 64.79 3.51 104.15-4.26-.58-8.44-1.66-12.42-3.25-5.43-2.17-11.58.46-13.76 5.88-2.17 5.42.47 11.58 5.89 13.75 7.38 2.96 15.14 4.61 23.09 5.08 1.42 9.86 3.02 19.93 4.92 30.34-10.39 16.09-47.15 79.36-40.06 158.19-5.71-3.2-11.66-5.91-17.87-8.12-1.84-.66-3.67-1.14-5.5-1.69-5.741-36.35-33.679-65.4-69.522-72.62-.234-.38-.447-.76-.733-1.12-13.001-15.95-20.162-36.1-20.162-56.73 0-48.53 38.665-88.09 86.787-89.75zm453.57972 58.73c.04028-5.8 6.73028-10.45 14.94028-10.39s14.83 4.81 14.79018 10.61c-.04018 5.79-6.73018 10.44-14.94018 10.38s-14.84-4.81-14.79028-10.6zm106.81028 325.56c-17.88 1.3-33.54 6.46-48.81 11.53-13.34 4.44-26.95 8.97-42.68 11.25-6.28.91-12.91 1.46-19.99 1.50068-3.52.00932-7.15-.09068-10.91-.34068-8.19-.55-15.7-1.45-22.65-2.59-29.08-4.8-48.17-14.08-64.09-21.84-2.25-1.1-4.45-2.16-6.62-3.2-1.62-.77-3.24-1.53-4.83-2.25-6.64-2.98-13.14-5.4-19.92-6.83.67-.49 1.33-.99 1.99-1.49 4.48-3.43 8.87-6.98 13.28-10.58.38-.3.75-.6 1.12-.91 3.94-3.21 7.91-6.44 12.02-9.67 12.59-9.86 26.55-19.61 45.12-28.05 18.44-8.38 37.13-22.63 48.95-40.35 7.25 15.09 20.43 31.47 44.38 42.8 13.69 6.48 24.14 15.62 34.37 25.6 2.3 2.25 4.6 4.53 6.92 6.85 1.23 1.23 2.48 2.48 3.74 3.73 3.53 3.51 7.19 7.05 11.05 10.58 3.92 3.58 8.05 7.13 12.53 10.57 1.63 1.25 3.31 2.48 5.03 3.69zm-9.2-35.42c-2.76-2.67-5.47-5.38-8.2-8.11-13.32-13.32-27.1-27.1-47.2-36.61-39.09-18.5-41.04-53.62-41.04-60.22 0-.01.01-.05.01-.09l.01-.85s0 0 0-.01c.58-46.73 2.7-107.63 3.4-126.89 21.89-4.52 51.36-22.55 51.58-53.13.07-8.97-3.07-16.72-9.33-23.02-15.95-16.07-47.47-16.88-53.63-16.88-.05 0-.5 0-.55 0-2.17.04-53.23 1.4-59.67 32.4-2.27 10.93.79 22.38 8.85 33.12 9.83 13.1 26.06 23.47 41.59 27.19-.71 19.79-2.8 80.25-3.39 126.84-.01.19-.01.45-.01.8-.53 21.38-20.66 45.3-48.94 58.16-27.13 12.33-45.53 27.34-61.76 40.58-2.82 2.31-5.58 4.54-8.31 6.72-4.73 3.77-9.41 7.32-14.21 10.58-5.95 4.04-12.13 7.62-18.9 10.58-4.18 1.82-8.6 3.41-13.33 4.73-11.15 3.09-24.05 4.7-40.01 4.24-1.6-.04-4.44-.18-8.19-.57-8.44-.87-21.47-3.07-35.31-8.4-6.91-2.67-14.01-6.1-20.86-10.58-4.6-3.02-9.06-6.56-13.27-10.58-1.27-1.21-2.55-2.4-3.77-3.71-17.07-18.4-25.02-43.4-23.6-74.29 3.24-70.97 46.21-100.62 100.61-138.16 31.76-21.92 67.76-46.76 97.86-83.3 52.1-63.24 102.82-65.4 124.81-66.34 1.03-.04 2.27-.07 3.72-.07 13.83 0 84.81 2.92 124.33 60.6 29.71 43.37 68.13 72.32 102.03 97.86 51.76 39 92.64 69.8 93.55 135.74.39 27.69-7.02 52.12-21.34 71.67-2.71 3.7-5.6 7.25-8.8 10.58-.3.31-.55.65-.85.96-3.46 3.51-7.26 6.65-11.21 9.62-5.38 4.04-11.14 7.59-17.3 10.57-11.12 5.39-23.39 8.95-36.41 10.61-5.48.7-11.04 1.18-16.75 1.18 0 0 0 0-.01 0-7.31 0-14.85-.57-22.41-1.71-1.47-.22-2.85-.49-4.27-.74-13.06-2.24-24.08-5.42-33.58-9.34-7.55-3.11-14.17-6.68-20.17-10.57-5.11-3.32-9.78-6.86-14.17-10.58-4.04-3.41-7.86-6.95-11.6-10.58zm-462.55-276.68c-2.1-11.14-3.85-21.91-5.37-32.4-1.04-7.17-1.99-14.24-2.78-21.12-4.49-39.05-5.07-73.25-3.28-102.81.44-7.33 1.05-14.33 1.77-21.1 8.39-79.592 33.75-120.117 38.1-126.551 1.2-1.768 1.77-3.767 1.8-5.752.06-3.45-1.56-6.857-4.63-8.936-4.84-3.271-11.41-2.006-14.69 2.831-4.14 6.115-13.73 21.88-22.97 48.2-11.54.253-43.81-1.904-58.75-32.013-13.82-27.831-10.41-56.65-6.08-93.134 3.74-31.521 7.98-67.243 1.53-110.03l-.74-4.854c-10.56-69.681-21.473-141.737 56.08-171.631 28.2-10.868 58.14-7.24 86.58 10.502 55.79 34.806 94.61 115.74 104.41 216.988-34.99 12.22-48.54 24.542-49.63 25.575-4.2 4-4.36 10.6-.4 14.84 3.96 4.243 10.63 4.47 14.91.56.5-.462 52.48-46.174 227.51-44.79.56.004 1.08.023 1.63.028 14.72 19.678 38.14 32.494 64.54 32.494 6.38 0 12.55-.821 18.51-2.227 6.54 17.628 23.47 30.247 43.35 30.247 21.6 0 39.73-14.891 44.81-34.93 2.93 1.066 5.75 2.128 8.34 3.169 34.07 13.719 46.62 27.412 46.68 27.474 1.95 2.247 4.63 3.427 7.38 3.589.21.012.41.065.62.065 2.46 0 4.92-.849 6.92-2.579 4.42-3.825 4.9-10.505 1.07-14.92-.98-1.138-12.38-13.74-41.47-27.427 11.24-105.401 51.92-188.848 109.31-223.624 28.46-17.247 58.17-20.461 85.94-9.286 77.11 31.033 65.13 102.921 53.54 172.441l-.8 4.839c-7.09 42.689-3.37 78.473-.1 110.043 3.79 36.543 6.79 65.407-7.44 93.034-13.94 27.069-41.37 31.151-56.47 31.177-.45.001-.88.08-1.32.135-5.04-13.999-11.12-27.888-18.55-41.478-2.8-5.123-9.24-7.014-14.36-4.207-3.45 1.89-5.39 5.431-5.46 9.107-.03 1.775.34 3.579 1.25 5.248 1.79 3.265 3.43 6.569 5.06 9.876 64.57 131.167 7.73 292.567 7.13 294.227-1.22 3.4-.63 7.19 1.57 10.05.59.76 51.94 68.87 38.92 156.77-33.6 26.43-43.12 60.9-43.23 61.32-3.48 12.13-4.92 24.15-4.52 35.63-.72.67-1.41 1.38-2.14 2.02-4.35 3.86-8.9 7.36-13.58 10.58-5.75 3.96-11.72 7.49-17.88 10.58-6.71 3.36-13.64 6.21-20.69 8.66 1.2-1.13 2.4-2.26 3.56-3.43 1.67-1.7 3.28-3.45 4.84-5.23 2.95-3.37 5.71-6.9 8.27-10.58 2.38-3.4 4.6-6.93 6.63-10.58 11.67-20.89 17.71-45.55 17.35-71.96-1.07-76.31-50.08-113.24-101.98-152.34-34.19-25.77-69.55-52.41-97.31-92.92-45.51-66.44-126.09-69.8-141.78-69.8-1.8 0-3.35.04-4.95.1-22.38.96-81.81 3.49-139.91 74.02-28.21 34.25-61.43 57.17-93.54 79.33-54.52 37.62-106.01 73.15-109.73 154.59-1.44 31.32 5.56 57.78 20.65 78.98 2.61 3.67 5.39 7.23 8.49 10.58.03.03.06.07.09.1 1.51 1.63 3.09 3.19 4.69 4.72-3.41-1.45-6.76-3.09-10.08-4.82-5.87-3.06-11.58-6.55-17.06-10.58-4.07-2.99-8-6.29-11.8-9.87-1.28-11.61-4.15-23.74-8.7-36.09-.08-.22-.17-.43-.26-.64-9.95-22.38-22.34-40.55-37.02-54.44-16.98-91.12 35.23-166.68 35.85-167.56 1.67-2.34 2.3-5.26 1.77-8.08zm429.54-563.243c32.81 0 59.5 26.689 59.5 59.493 0 5.679-.85 11.154-2.35 16.36-12.5 1.269-23.55 7.545-31.11 16.781-4.69 5.738-8.04 12.619-9.54 20.158-.27 1.306-.46 2.633-.61 3.976-5.07 1.408-10.38 2.219-15.89 2.219-12.48 0-24.07-3.883-33.64-10.479-8.07-5.558-14.68-13.06-19.2-21.816-4.22-8.162-6.65-17.395-6.65-27.199 0-32.804 26.69-59.493 59.49-59.493zm70.59 98.42c2.52.942 4.82 2.288 6.88 3.945 5.75 4.607 9.51 11.599 9.51 19.522 0 1.637-.18 3.231-.48 4.781-2.25 11.568-12.43 20.338-24.64 20.338-10.84 0-20.01-6.939-23.52-16.578-.98-2.678-1.6-5.529-1.6-8.541 0-1.025.18-1.999.3-2.992.13-1.045.28-2.074.53-3.077 2.24-8.968 9.28-15.997 18.25-18.233 1.06-.265 2.16-.414 3.27-.538.92-.102 1.82-.28 2.77-.28 3.08 0 6 .634 8.73 1.653zm266 376.683c5.44-1.79 11.12-2.71 16.95-2.71 29.89 0 54.2 24.31 54.2 54.2 0 3.62-.47 7.17-1.17 10.67-13.99 3.1-27.31 8.79-39.34 16.91-4.84 3.27-6.11 9.85-2.85 14.69 3.27 4.83 9.85 6.12 14.69 2.84 15.52-10.48 33.66-16.02 52.47-16.02 51.76 0 93.87 42.1 93.87 93.86 0 2.48-.18 4.94-.37 7.38-.14-.02-.27-.06-.41-.08-37.44-5.61-72.56 18.96-80.72 55.37-7.73-1.03-12.65-1.12-12.87-1.12-.69 0-1.37-.01-2.04-.01-29.54 0-52.99 6.25-71.61 15.43 2.76-39.94-5.88-75.08-16.33-101.8 2.4-8.76 6-17.13 10.83-24.86 3.1-4.95 1.59-11.48-3.36-14.57-4.96-3.1-11.48-1.59-14.58 3.36-1.88 3.01-3.57 6.11-5.15 9.26-5.28-9.97-10.07-17.44-13.14-21.92 4.5-13.73 15.77-51.68 20.93-100.88zm136.88 409.2c-5.66-1.23-11.29 2.35-12.59 8-.02.07-.06.21-.08.3-.76 3-5.6 18.31-25.82 22.14-4.86.93-10.6 1.19-17.39.45-6.27-.68-11.55-2.99-15.91-6.33-9.02-6.93-14.01-18.38-15.2-29.4-.03-.3-.04-.59-.07-.89-.07-.82-.14-1.64-.17-2.44-.07-1.62-.52-3.12-1.22-4.48-1.85-3.55-5.58-5.95-9.76-5.68-1.96.08-3.74.72-5.28 1.7-1.54.99-2.79 2.36-3.64 3.98-.83 1.59-1.31 3.38-1.24 5.3.25 6.47 1.44 13.16 3.59 19.61-16.33 1.73-31.72-3.53-43.2-15.24-2.89-2.94-5.4-6.19-7.6-9.67-2.08-3.31-3.85-6.84-5.3-10.57-1.32-3.38-2.37-6.92-3.14-10.58-.32-1.47-.58-2.96-.81-4.47-.3-2-.53-4.04-.68-6.11-.21-3.03-.23-6.14-.1-9.29.31-7.38 1.52-15.02 3.74-22.78.02-.07.2-.69.53-1.71 1.12-3.38 4.19-11.5 10.39-21.21 4.37-6.83 10.29-14.43 18.19-21.7 3.91-3.59 8.3-7.11 13.23-10.4 17.53-11.69 41.81-20.59 75.14-20.59.6 0 1.21 0 1.82.01 2.67.01 44.02.67 75.13 27.78 2.57 2.24 5.07 4.66 7.48 7.28 3.1 3.38 6.03 7.1 8.75 11.17 3.77 5.63 7.09 11.94 9.85 19.03 4.02 10.34 6.84 22.26 7.87 36.15.17 2.16.16 4.19.22 6.26.11 3.66.06 7.19-.15 10.58-.23 3.68-.62 7.21-1.22 10.58-.65 3.7-1.47 7.26-2.57 10.57-3.68 11.12-9.82 20.1-18.47 26.79-12.85 9.94-29.3 13.1-42.22 12.65 3.17-5.11 5.12-10.18 5.99-14.36 1.18-5.67-2.43-11.18-8.09-12.43zm81.33-186.53c8.06 10.9 11.39 24.28 9.39 37.69-2.15 14.36-10.49 26.78-22.17 34.61-20.43-32.65-52.84-47.23-77.39-53.74 5.97-25.42 30.58-42.51 56.87-38.57 13.41 2.01 25.23 9.11 33.3 20.01zm75.03 111.44c13.85 0 25.12 11.27 25.12 25.12 0 1.93-.27 3.79-.68 5.59-.91 3.99-2.82 7.56-5.38 10.58-4.61 5.43-11.4 8.95-19.06 8.95s-14.45-3.52-19.06-8.95c-2.57-3.02-4.47-6.59-5.38-10.58-.42-1.8-.68-3.66-.68-5.59 0-13.85 11.27-25.12 25.12-25.12zm82.5 41.37c-6.84-6.97-16.34-10.66-27.49-10.66h-9.11c.22-1.83.37-3.69.37-5.59 0-25.52-20.75-46.27-46.27-46.27s-46.27 20.75-46.27 46.27c0 1.9.15 3.76.37 5.59h-22.48c-.06-2.54-.17-5.14-.37-7.83-1.23-16.47-4.64-30.63-9.51-42.93 17.72-10.95 30.36-29.33 33.54-50.57 2.84-19-1.89-37.96-13.31-53.4-6.99-9.44-15.98-16.85-26.25-21.85.2-.65.35-1.34.42-2.05.39-3.87.59-7.82.59-11.75 0-63.42-51.59-115.02-115.02-115.02-1.04 0-2.07.09-3.11.12.28-2.67.47-5.35.47-8.05 0-41.55-33.81-75.36-75.36-75.36-5.14 0-10.19.53-15.13 1.54 2.36-39.97.04-85.42-12.78-130.572 18.23-1.024 52-7.828 69.84-42.47 17.11-33.225 13.66-66.44 9.67-104.899-3.13-30.243-6.69-64.521-.08-104.4l.81-4.821c11.12-66.753 26.36-158.167-66.51-195.544-33.68-13.554-70.91-9.717-104.8 10.819-61.83 37.463-105.83 124.176-118.74 233.187-2.9-1.079-5.93-2.149-9.07-3.21-3.64-14.826-14.42-26.839-28.5-32.196 1.51-6.158 2.4-12.557 2.4-19.174 0-44.467-36.18-80.646-80.65-80.646-44.46 0-80.64 36.179-80.64 80.646 0 9.476 1.73 18.534 4.74 26.988-73.87.227-126.12 8.637-162.08 18.561-11.16-105.737-53.29-190.797-113.79-228.543-33.81-21.092-71.23-25.458-105.39-12.294-93.403 36.006-79.521 127.635-69.383 194.537l.733 4.842c6.027 39.967 1.968 74.189-1.614 104.382-4.555 38.397-8.487 71.558 8.134 105.036 17.81 35.873 52.14 42.738 71.14 43.643-5.24 18.908-9.81 41.748-12.51 68.658-36.56 4.48-64.982 35.67-64.982 73.42 0 3.88.334 7.72.928 11.51-56.726 4.91-101.406 52.59-101.406 110.57 0 19.96 5.5 39.52 15.577 56.56-44.369 4.54-79.099 42.13-79.099 87.68 0 15.27 3.911 29.63 10.771 42.17-7.829 10.67-14.494 23.4-18.444 38.5-10.485-20.64-31.874-34.84-56.564-34.84-34.991 0-63.46 28.47-63.46 63.46 0 1.89.121 3.75.283 5.59h-15.309c-11.145 0-20.647 3.69-27.482 10.66-11.602 11.84-11.604 28.66-11.571683 30.33v51.69c0 25.79 6.962683 45.57 20.683683 58.77 4.148 4 8.539 6.98 12.831 9.23l.005 241.06c-18.943 5.79-32.762 23.43-32.762 44.25 0 23.48 17.593 42.89 40.28 45.84 5.211 14.96 13.963 31.83 28.819 47.29 21.374 22.24 50.627 36.78 87.258 43.52v70.61c0 13.33 6.011 35.69 46.272 35.69 40.262 0 46.273-22.36 46.273-35.69v-66.24h613.129c-1.23 5.58-1.92 11.37-1.92 17.32 0 44.47 36.18 80.65 80.65 80.65s80.64-36.18 80.64-80.65c0-5.95-.69-11.74-1.92-17.32h325.42v66.24c0 13.33 6.01 35.69 46.27 35.69s46.27-22.36 46.27-35.69v-70.61c36.63-6.74 65.89-21.28 87.26-43.52 37.92-39.46 36.42-88.28 36.35-89.91v-288.54c4.29-2.25 8.68-5.23 12.82-9.22 13.73-13.2 20.68431-32.98 20.68431-58.77v-51.48c.03569-1.87.03569-18.7-11.56431-30.54z"/><path d="m1964.18 1967.93c-10.6 3.92-22.09 3.48-32.35-1.24-7.92-3.63-14.36-9.5-18.69-16.84-1.29-2.18-2.42-4.48-3.32-6.91-.34-.92-.59-1.86-.87-2.8-1.07-3.65-1.67-7.37-1.74-11.11-.14-7.5 1.7-14.98 5.5-21.68 2.25-3.97 1.62-8.75-1.17-12.04-.78-.92-1.7-1.74-2.82-2.37-5.08-2.89-11.53-1.11-14.41 3.98-6.64 11.69-9.25 24.99-7.85 38.06-.29.01-.58.04-.87.04-17.61 0-33.56-11.1-39.68-27.63-7.1-19.18.65-40.28 17.4-50.65-.65 7.21.25 14.54 2.84 21.54 2.02 5.47 8.13 8.26 13.59 6.25 2.74-1.02 4.81-3.04 5.94-5.5s1.32-5.35.31-8.09c-2.48-6.71-2.26-13.92.45-20.49.14-.36.21-.73.37-1.09 1.59-3.45 3.81-6.48 6.52-8.97 2.67-2.46 5.81-4.4 9.32-5.69 1.69-.63 3.42-1.07 5.17-1.37 5.52-.93 11.19-.2 16.4 2.19 6.84 3.14 12.05 8.77 14.66 15.84 1.2 3.22 1.73 6.53 1.73 9.78 0 1.46-.1 2.91-.32 4.33-2.8.41-5.59 1.07-8.37 1.87-1.49.43-2.98.85-4.45 1.4-2 .74-3.64 2.03-4.82 3.62-2.05 2.78-2.72 6.49-1.43 9.97.44 1.19 1.11 2.24 1.89 3.15.37.45.79.84 1.22 1.21.99.83 2.1 1.47 3.31 1.89 2.25.79 4.76.88 7.17 0 1.11-.41 2.23-.74 3.35-1.06 1.14-.31 2.28-.57 3.42-.78 2.35-.45 4.7-.7 7.04-.75 2.1-.04 4.18.06 6.23.32 15.1 1.96 28.68 12.01 34.32 27.26 8.1 21.87-3.11 46.26-24.99 54.36zm-2.69-101.9c.73-7.24-.07-14.74-2.76-22.02-4.58-12.36-13.69-22.2-25.68-27.71-11.97-5.5-25.38-6.02-37.75-1.44-8.54 3.16-15.83 8.53-21.37 15.47-3.51.66-6.98 1.6-10.37 2.85-32.82 12.15-49.64 48.73-37.49 81.55 9.18 24.79 33.1 41.44 59.52 41.44 2.26 0 4.5-.16 6.73-.4 6.38 13.31 17.09 23.9 30.67 30.14 8.44 3.88 17.44 5.84 26.47 5.84 7.43 0 14.89-1.33 22.06-3.98 32.82-12.15 49.63-48.73 37.49-81.55-7.97-21.53-26.48-36.1-47.52-40.19z"/><path d="m755.738 1192.21c34.263 0 62.138 27.87 62.138 62.13 0 34.27-27.875 62.14-62.138 62.14s-62.138-27.87-62.138-62.14c0-34.26 27.875-62.13 62.138-62.13zm0 145.43c45.927 0 83.291-37.37 83.291-83.3 0-45.92-37.364-83.29-83.291-83.29s-83.291 37.37-83.291 83.29c0 45.93 37.364 83.3 83.291 83.3z"/><path d="m963.909 997.332c13.487 0 24.459 10.968 24.459 24.458s-10.972 24.46-24.459 24.46-24.458-10.97-24.458-24.46 10.971-24.458 24.458-24.458zm0 70.068c25.151 0 45.611-20.46 45.611-45.61s-20.46-45.612-45.611-45.612c-25.15 0-45.612 20.462-45.612 45.612s20.462 45.61 45.612 45.61z"/><path d="m2091.76 1120.92c8.4-8.04 19.43-12.47 31.06-12.47 12.39 0 23.93 4.93 32.48 13.88 8.3 8.67 12.73 20.06 12.47 32.07-.27 12-5.2 23.18-13.87 31.48-8.4 8.04-19.44 12.47-31.07 12.47-12.38 0-23.92-4.92-32.48-13.88-8.3-8.67-12.73-20.06-12.47-32.06.27-12.01 5.2-23.19 13.88-31.49zm31.07 98.59c17.1 0 33.33-6.52 45.69-18.34 12.76-12.21 20.01-28.65 20.39-46.3.39-17.66-6.12-34.41-18.32-47.16-12.59-13.16-29.55-20.41-47.77-20.41-17.1 0-33.33 6.51-45.69 18.34-12.76 12.2-20 28.65-20.39 46.3s6.12 34.4 18.32 47.16c12.59 13.16 29.55 20.41 47.77 20.41z"/><path d="m2141.25 1152.19c.02 1.16.01 2.77-.05 3.48-.47 4.33 2.64 8.23 6.98 8.73.31.04.61.05.92.05 3.97 0 7.4-2.98 7.87-7.02.1-.88.17-3.57.15-5.45-.06-4.35-3.6-7.83-7.94-7.83-.03 0-.07 0-.1 0-4.38.06-7.89 3.66-7.83 8.04"/><path d="m2119.75 1135.15c5.25-.88 10.61.53 14.71 3.86 1.47 1.19 3.24 1.77 4.99 1.77 2.31 0 4.6-1 6.17-2.94 2.76-3.4 2.24-8.4-1.16-11.16-7.64-6.19-17.6-8.8-27.33-7.18-4.32.72-7.24 4.81-6.51 9.13.72 4.32 4.78 7.23 9.13 6.52"/><path d="m2056.6 1407.96c-.47 3.1-1.52 6.03-3.13 8.68-2.28 3.74-1.08 8.63 2.66 10.9 1.29.78 2.71 1.15 4.11 1.15 2.68 0 5.3-1.36 6.79-3.82 2.71-4.46 4.48-9.37 5.26-14.56 1.41-9.46-.67-19.08-5.86-27.1-2.38-3.68-7.29-4.72-10.97-2.35-3.68 2.38-4.72 7.29-2.35 10.97 3.09 4.77 4.33 10.5 3.49 16.13"/><path d="m1945.37 1276.82c3.61 0 7.22.32 10.73.95 12.96 2.32 24.99 9 33.9 18.81 1.57 1.72 3.72 2.6 5.87 2.6 1.91 0 3.82-.68 5.34-2.06 3.24-2.95 3.48-7.97.54-11.21-11.25-12.38-26.47-20.82-42.84-23.76-4.44-.79-8.99-1.2-13.54-1.2-4.38 0-7.93 3.55-7.93 7.93s3.55 7.94 7.93 7.94"/><path d="m718.72 1262.28c4.382 0 7.932-3.55 7.932-7.94 0-10.13 5.147-19.37 13.769-24.72 3.721-2.32 4.865-7.21 2.553-10.93-2.311-3.72-7.196-4.86-10.925-2.55-13.314 8.27-21.261 22.55-21.261 38.2 0 4.39 3.55 7.94 7.932 7.94"/><path d="m731.277 1270.09c-2.381-3.68-7.292-4.74-10.966-2.35-3.68 2.37-4.736 7.29-2.358 10.96 1.382 2.14 2.957 4.18 4.682 6.06 1.564 1.7 3.702 2.56 5.846 2.56 1.916 0 3.839-.69 5.363-2.08 3.225-2.97 3.439-7.99.478-11.21-1.124-1.23-2.146-2.55-3.045-3.94"/><path d="m951.13 1245.73c.393.06.78.09 1.165.09 3.87 0 7.258-2.84 7.837-6.78 2.744-18.67 17.819-27.99 27.28-29.71 4.313-.78 7.171-4.91 6.391-9.22-.782-4.31-4.927-7.17-9.221-6.39-13.967 2.53-36.186 16.08-40.145 43.01-.638 4.33 2.357 8.36 6.693 9"/><path d="m1280.99 1695.24c15.69-3.24 31.12 6.89 34.37 22.6.77 3.75 4.07 6.32 7.76 6.32.53 0 1.07-.05 1.61-.16 4.29-.89 7.05-5.08 6.16-9.37-5.01-24.28-28.85-39.93-53.12-34.93-4.28.89-7.04 5.09-6.16 9.38.89 4.29 5.09 7.08 9.38 6.16"/><path d="m1222.58 1754.59c1.06-.12 2.13-.39 3.11-.97 3.78-2.22 5.04-7.09 2.82-10.86-2.21-3.75-4.91-7.09-8-9.98-1.92-1.79-4-3.38-6.2-4.81-3.97-2.56-8.35-4.53-13.07-5.74-4.22-1.09-8.57 1.46-9.66 5.7-1.09 4.25 1.47 8.57 5.71 9.67 3.6.92 6.91 2.53 9.81 4.67 3.09 2.26 5.73 5.13 7.73 8.53 1.48 2.52 4.13 3.91 6.85 3.91.3 0 .6-.08.9-.12"/><path d="m1227.35 1761.21c-.39-.04-.77-.01-1.15.01-3.87.2-7.15 3.08-7.57 7.05-.02.23-.09.45-.12.68-.15 1.17-.33 2.34-.63 3.49-1.09 4.24 1.47 8.56 5.71 9.65.67.17 1.33.25 1.98.25 1.14 0 2.21-.32 3.22-.78 2.12-.96 3.84-2.76 4.46-5.18.4-1.54.61-3.12.84-4.68.09-.59.26-1.18.32-1.77.46-4.36-2.7-8.26-7.06-8.72"/><path d="m1576.99 2083.28c-2.41-1.86-5.78-2.26-8.63-.72-.4.22-.77.49-1.17.72-4.76 2.77-8.91 6.37-12.3 10.58-2.6 3.22-4.75 6.77-6.38 10.58-1.48 3.48-2.56 7.16-3.11 10.97-.62 4.34 2.4 8.35 6.73 8.98.38.05.76.08 1.14.08 3.88 0 7.27-2.86 7.84-6.81.69-4.86 2.68-9.39 5.6-13.22 2.45-3.22 5.54-5.95 9.18-7.91 1.21-.65 2.15-1.59 2.85-2.67 1.53-2.35 1.8-5.43.37-8.08-.54-1.01-1.28-1.84-2.12-2.5"/><path d="m1565.09 2136.83c-2.31-3.72-7.2-4.88-10.92-2.57s-4.87 7.2-2.57 10.92c1.32 2.13 2.83 4.16 4.48 6.02 1.57 1.77 3.75 2.68 5.94 2.68 1.87 0 3.75-.66 5.26-2 3.28-2.9 3.58-7.91.68-11.19-1.06-1.2-2.03-2.5-2.87-3.86"/><path d="m2118.31 1889.08c-5.85 0-10.58 4.73-10.58 10.57v42.31c0 5.84 4.73 10.57 10.58 10.57 5.84 0 10.57-4.73 10.57-10.57v-42.31c0-5.84-4.73-10.57-10.57-10.57"/><path d="m2118.31 1725.13c-5.85 0-10.58 4.74-10.58 10.58v125.17c0 5.84 4.73 10.57 10.58 10.57 5.84 0 10.57-4.73 10.57-10.57v-125.17c0-5.84-4.73-10.58-10.57-10.58"/><path d="m2001.47 1314.99c1.15 2.94 2.09 6.01 2.77 9.11.82 3.7 4.1 6.23 7.74 6.23.56 0 1.14-.06 1.71-.19 4.28-.94 6.98-5.17 6.04-9.45-.86-3.92-2.04-7.79-3.5-11.51-1.61-4.08-6.22-6.08-10.29-4.47-4.08 1.6-6.08 6.21-4.47 10.28"/><path d="m1739.33 751.706c7.36-48.956 36.23-117.895 77.37-117.895 2.15 0 4.36.183 6.58.545 10.91 1.787 18.7 6.272 23.8 13.711 14.33 20.895 5.89 61.322.84 85.478l-.64 3.047c-7.1 34.186-11.19 59.466-3.59 97.842.05.227.1.462.16.687 2.71 10.133 7.87 39.567-.64 53.885-2.24 3.773-5.22 5.999-9.36 7.003-1.45.351-2.86.529-4.19.529-12.14 0-22.31-16.035-33.08-33.015-8.89-14.014-18.07-28.505-30.55-37.215-24.37-17.024-32.11-38.637-26.7-74.602zm14.59 91.944c8.99 6.28 17.02 18.951 24.8 31.203 13.35 21.061 27.16 42.839 50.94 42.839 3.01 0 6.09-.377 9.16-1.123 9.66-2.34 17.47-8.145 22.6-16.792 14.2-23.963 4.55-63.711 2.95-69.779-6.75-34.361-3.13-56.607 3.62-89.104l.63-3.023c5.74-27.462 15.35-73.425-4.1-101.77-8.42-12.278-21.15-19.888-37.82-22.62-3.34-.547-6.7-.823-10-.823-57.13 0-90.08 81.274-98.29 135.903-6.61 43.99 4.34 73.319 35.51 95.089z"/><path d="m1086.34 891.069c-1.4 0-2.88-.198-4.4-.591-4.13-1.066-7.07-3.336-9.26-7.142-8.3-14.44-2.7-43.797.15-53.891.07-.222.13-.457.17-.684 8.16-38.255 4.45-63.594-2.15-97.883l-.59-3.044c-4.69-24.229-12.54-64.78 2.1-85.466 5.21-7.364 13.06-11.733 24-13.363 2.02-.299 4.05-.451 6.02-.451 41.44 0 69.5 69.603 76.19 119.026 4.88 36.042-3.17 57.539-27.8 74.201-12.59 8.527-22 22.881-31.09 36.763-10.95 16.728-21.3 32.528-33.34 32.525zm76.29-51.77c31.49-21.308 42.87-50.471 36.91-94.555-7.48-55.209-39.52-137.344-97.16-137.344-3.01 0-6.08.23-9.13.685-16.72 2.486-29.56 9.907-38.16 22.062-19.86 28.061-10.93 74.163-5.59 101.71l.58 3.018c6.27 32.595 9.56 54.893 2.31 89.145-1.69 6.04-11.92 45.646 1.93 69.818 5 8.722 12.72 14.643 22.34 17.122 3.25.837 6.5 1.263 9.67 1.263h.01c23.47 0 37.49-21.399 51.04-42.087 7.95-12.139 16.17-24.689 25.25-30.837z"/><path d="m1376.91 1097.25c1.87 0 3.78-.5 5.49-1.54 2.43-1.48 60.18-35.7 130.27-3.67 5.3 2.43 11.59.09 14.01-5.22 2.43-5.31.09-11.59-5.22-14.01-80.63-36.86-147.31 3.14-150.11 4.86-4.97 3.05-6.52 9.54-3.48 14.52 2 3.26 5.48 5.06 9.04 5.06"/><path d="m1210.26 1121.96c-.07 9.83-5.28 17.76-11.64 17.71024-6.36-.04024-11.46-8.05024-11.39-17.88024.08-9.82 5.29-17.75 11.65-17.70024 6.36.04024 11.45 8.05024 11.38 17.87024zm-47.23 76.99c45.41 20.59 71.11-32.38 71.11-32.38s8.18-78.41-39.84-88.89c-63.05-13.76-62.03 107.33-31.27 121.27z"/><path d="m1732.98 1108.01976c6.36.04024 11.46 8.05024 11.39 17.87024-.08 9.83-5.29 17.76-11.65 17.71024-6.36-.04024-11.45-8.05024-11.38-17.87024.07-9.83 5.29-17.76 11.64-17.71024zm12.81 95.22024c30.96-13.49 33.77-134.55-29.48-121.72-48.16 9.77-41.15 88.3-41.15 88.3s24.92 53.34 70.63 33.42z"/><path d="m1589.29 1323.74c4.77-7.92 2.22-18.21-5.71-22.99-7.92-4.77-18.21-2.22-22.98 5.7-4.78 7.93-2.22 18.22 5.7 22.99s18.21 2.22 22.99-5.7"/><path d="m1523.57 1329.22c-7.92-4.77-18.21-2.22-22.98 5.7-4.78 7.92-2.22 18.21 5.7 22.99 7.92 4.77 18.21 2.22 22.98-5.7 4.78-7.93 2.22-18.22-5.7-22.99"/><path d="m1554.51 1386.43c-7.92-4.78-18.21-2.22-22.99 5.7-4.77 7.92-2.22 18.21 5.7 22.98 7.93 4.78 18.22 2.23 22.99-5.7 4.77-7.92 2.22-18.21-5.7-22.98"/><path d="m1601.4 1396.7c7.92 4.77 18.21 2.22 22.99-5.7 4.77-7.92 2.22-18.22-5.7-22.99-7.93-4.77-18.22-2.22-22.99 5.7s-2.22 18.22 5.7 22.99"/><path d="m1300.89 1300.74c-7.51 5.39-9.23 15.86-3.84 23.37 5.4 7.51 15.86 9.23 23.37 3.84 7.52-5.39 9.24-15.85 3.84-23.37-5.39-7.51-15.85-9.23-23.37-3.84"/><path d="m1362.99 1324.31c-7.51 5.39-9.23 15.85-3.84 23.37 5.39 7.51 15.86 9.23 23.37 3.84 7.52-5.39 9.24-15.86 3.84-23.37-5.39-7.51-15.85-9.23-23.37-3.84"/><path d="m1336.74 1383.81c-7.51 5.39-9.23 15.86-3.84 23.37s15.85 9.23 23.37 3.84c7.51-5.39 9.23-15.85 3.84-23.37-5.39-7.51-15.86-9.23-23.37-3.84"/><path d="m1271.29 1370.6c-7.51 5.39-9.23 15.85-3.84 23.36 5.4 7.52 15.86 9.24 23.37 3.85 7.52-5.4 9.24-15.86 3.84-23.37-5.39-7.52-15.85-9.24-23.37-3.84"/><path d="m1314.34 627.482c2.09-23.343 21.31-40.946 44.71-40.946 1.34 0 2.7.06 4.07.184 24.68 2.207 42.97 24.089 40.76 48.777-2.21 24.686-23.64 43.012-48.78 40.763-11.95-1.069-22.78-6.732-30.48-15.945-7.7-9.214-11.35-20.872-10.28-32.833zm38.88 69.848c2 .178 3.98.266 5.96.266 34.42 0 62.7-25.886 65.77-60.214 3.25-36.305-23.64-68.485-59.95-71.733-36.93-3.313-68.49 23.65-71.73 59.948-1.57 17.587 3.8 34.733 15.12 48.282s27.24 21.879 44.83 23.451z"/><path d="m1338.64 622.674c2.3 0 4.57-.989 6.14-2.902 3.37-4.114 8.34-6.585 13.62-6.781 4.38-.163 7.8-3.843 7.63-8.222-.16-4.374-3.78-7.803-8.22-7.633-9.82.364-19.04 4.948-25.3 12.575-2.77 3.388-2.28 8.387 1.11 11.166 1.47 1.208 3.25 1.797 5.02 1.797"/><path d="m1482.03 739.624c.39.054.76.08 1.14.08 3.88 0 7.28-2.853 7.84-6.809 1.28-8.929 6.81-16.831 14.78-21.13 3.86-2.079 5.3-6.89 3.22-10.747-2.07-3.861-6.89-5.291-10.74-3.218-12.39 6.678-20.98 18.956-22.97 32.848-.62 4.336 2.4 8.356 6.73 8.976"/><path d="m1495 752.068c-2.31-3.724-7.2-4.87-10.93-2.567-3.72 2.308-4.87 7.196-2.56 10.923.95 1.544 2.11 2.959 3.25 4.378.43.531.77 1.129 1.22 1.638 1.57 1.771 3.75 2.678 5.95 2.678 1.86 0 3.74-.656 5.25-1.989.53-.469.95-1.008 1.33-1.571 1.94-2.922 1.79-6.877-.64-9.628-1.07-1.198-2.03-2.499-2.87-3.862"/></g><path d="m517.069 1974.68c-2.076 5.91-6.652 13.57-16.702 19.63 2.371 13.08-.542 29.48-16.309 39.54-1.549 6.82-5.51 17.82-15.524 25.32-6.595 4.93-14.476 7.42-23.529 7.42-3.92 0-8.061-.47-12.415-1.4-5.712-1.23-9.353-6.85-8.129-12.56s6.833-9.34 12.56-8.13c1.356.29 2.587.41 3.841.56 6.242.76 11.293-.1 14.901-2.76 7.116-5.25 8.154-15.97 8.165-16.08.33-3.73 2.623-7.09 6.011-8.7 14.987-7.1 9.378-21.6 8.103-24.44-1.053-2.34-1.159-4.96-.423-7.39.098-.33.158-.66.289-.97.59-1.44 1.5-2.69 2.618-3.73.974-.9 2.102-1.63 3.367-2.12 7.127-2.74 11.573-6.51 13.221-11.2 1.533-4.36.726-9.19-.39-12.84-1.013-3.31-2.279-5.66-2.306-5.71-2.944-5.05-1.239-11.52 3.806-14.47 5.061-2.94 11.522-1.23 14.466 3.81 1.094 1.88 10.499 18.8 4.379 36.22zm-95.67-124.61c-2.99 5-9.446 6.63-14.46 3.66-1.723-.99-5.292-2.44-8.631-2.74-1.527-.15-3.011-.07-4.239.43-1.278.52-2.282 1.63-3.148 2.91-1.276 1.89-2.194 4.23-2.76 6.31-.888 3.26-3.285 5.9-6.445 7.1-3.166 1.2-6.698.82-9.539-1.03-.922-.58-2.432-1.35-4.151-2.01-3.019-1.16-6.702-1.99-9.111-.87-1.89.87-3.499 3.38-4.682 7.11-.045.14-.085.3-.129.44 6.163 1 10.697 2.63 11.762 3.04 5.459 2.08 8.191 8.2 6.105 13.65-2.082 5.45-8.196 8.18-13.619 6.12-1.784-.67-5.029-1.56-8.72-2.06-5.305-.73-11.557-.63-15.924 2.31-3.277 2.21-5.449 6.19-6.532 11.81-.43 2.22-.705 4.68-.784 7.43-.162 5.74-4.865 10.28-10.566 10.28-.101 0-.204 0-.307-.01-5.839-.16-10.437-5.03-10.27-10.87.483-16.96 6.123-29.16 16.759-36.26 3.281-2.19 6.76-3.68 10.265-4.66 2.482-13.97 8.46-23.29 17.888-27.59 7.85-3.57 15.969-2.64 22.28-.73 4.177-6.88 9.471-10.33 13.778-12.06 14.708-5.91 29.871 2.78 31.554 3.79 5.01 3 6.632 9.5 3.626 14.5zm-9.446 295.1c-5.67 6.3-13.561 10.03-23.524 11.13-6.409 10.13-18.08 19.9-33.418 19.9-4.782 0-9.911-.95-15.359-3.12-5.423-2.17-8.062-8.33-5.893-13.75 2.169-5.43 8.305-8.07 13.753-5.89 3.433 1.37 6.448 1.73 9.115 1.47 6.085-.6 10.254-4.57 12.818-8.2 1.351-1.92 2.273-3.73 2.784-4.88 1.704-3.81 5.521-6.34 9.693-6.34 2.185 0 4.086-.21 5.854-.52 3.688-.64 6.54-1.89 8.359-3.84.741-.8 1.277-1.69 1.702-2.6 1.516-3.21 1.318-6.58 1.314-6.63-.424-5.76 3.842-10.88 9.6-11.4 5.743-.49 10.845 3.6 11.455 9.34.155 1.48 1.25 14.78-8.253 25.33zm-14.899-215.91c5.831.33 10.298 5.32 9.972 11.15-.325 5.84-5.355 10.28-11.15 9.98-2.127-.12-5.928-.07-7.447 1.6-1.575 1.73-1.595 5.72-1.358 7.27.45 2.98-.382 6.08-2.308 8.4-1.927 2.32-4.736 3.78-7.752 3.89-1.429.05-3.242.19-5.096.5-3.501.58-7.163 1.78-8.75 4.28-1.382 2.17-1.425 5.45-.98 8.49.371 2.54 1.076 4.91 1.677 6.33 2.278 5.35-.18 11.57-5.52 13.88-1.374.59-2.804.88-4.214.88-4.054 0-7.912-2.35-9.653-6.3-.878-2-8.345-19.99.754-34.49 4.395-7.01 11.46-11.55 21.081-13.56.744-4.37 2.495-9.32 6.275-13.58 3.889-4.38 11.238-9.43 24.469-8.72zm-86.101 153.31c-.134-.01-3.254-.2-7.012.47-4.269.77-9.365 2.66-11.887 7.28-2.482 4.55-2.824 9.13-2.509 12.75.345 3.97 1.483 6.78 1.575 6.99 2.282 5.33-.124 11.56-5.426 13.9-1.402.62-2.866.91-4.304.91-4 0-7.809-2.27-9.572-6.15-.359-.79-8.676-19.57 1.665-38.53 9.144-16.76 29.009-19.66 39.337-18.69 5.818.53 10.102 5.68 9.567 11.5-.532 5.79-5.655 10.03-11.434 9.57zm-46.554 104.11c-4.483 1.22-8.511 1.73-12.1 1.73-8.279 0-14.241-2.68-18.166-5.41-12.813-8.89-14.618-24.92-14.78-26.72-.53-5.82 3.757-10.96 9.575-11.49 5.776-.57 10.917 3.72 11.483 9.5.247 2.24 1.776 8.61 5.848 11.38 2.802 1.91 7.034 2.11 12.573.6 5.647-1.53 11.449 1.79 12.988 7.42 1.537 5.64-1.787 11.45-7.421 12.99zm-55.078-134c-1.415.66-2.905.97-4.379.97-4.036 0-7.938-2.34-9.753-6.22-3.231-6.89-5.131-22.62 8.227-37.89 8.693-9.94 22.132-12.91 29.877-13.8 1.405-4.14 3.611-8.34 6.916-12.38 19.676-24.03 44.533-16.96 45.581-16.65 5.598 1.67 8.785 7.56 7.114 13.15-1.655 5.56-7.486 8.73-13.014 7.16-.557-.14-2.721-.61-5.754-.35-4.636.39-11.322 2.47-17.556 10.09-4.274 5.22-4.527 10.63-3.954 14.38.385 2.52 1.129 4.31 1.323 4.72 2.443 5.25.253 11.55-4.955 14.06-1.498.73-3.083 1.07-4.64 1.07-3.853 0-7.543-2.1-9.387-5.79-1.03-2.06-2.021-4.75-2.723-7.87-1.593.32-3.273.76-4.928 1.33-3.084 1.07-6.041 2.59-7.979 4.81-3.065 3.5-4.406 6.61-4.969 9.14-.769 3.44-.044 5.75.11 6.15 2.479 5.29.134 11.44-5.157 13.92zm39.174-150.65c12.635-9.71 27.857-7.3 29.556-6.99 5.746 1.05 9.559 6.55 8.514 12.3-1.041 5.72-6.482 9.52-12.204 8.53-.343-.04-7.852-1.1-13.076 3.01-3.61 2.84-5.735 7.95-6.313 15.18-.445 5.53-5.074 9.73-10.533 9.73-.282 0-.566-.01-.855-.03-5.823-.47-10.163-5.57-9.699-11.39 1.082-13.51 5.996-23.72 14.61-30.34zm226.061-48.07c12.183-1.44 19.49 3 23.482 6.97 9.601 9.53 8.279 24.21 8.093 25.86-.599 5.41-5.18 9.41-10.494 9.41-.393 0-.785-.03-1.183-.07-5.779-.64-9.952-5.83-9.353-11.6.197-2.15-.191-6.86-1.988-8.62-1.317-1.29-4.374-1.14-6.089-.94-5.789.68-11.057-3.47-11.738-9.27-.682-5.8 3.465-11.06 9.27-11.74zm83.57 112.07c1.926-2.04 18.762-21.1-.599-44.6-1.865-2.27-2.706-5.21-2.319-8.12.165-1.34 3.93-33.8-20.492-51.57-2.345-1.71-3.884-4.3-4.261-7.17-.485-3.41-5.66-33.73-36.156-33.73-3.956 0-7.576-2.21-9.394-5.72-.475-.89-12.508-23.02-36.904-23.02-4.137 0-8.506.64-12.979 1.9-3.165.89-6.574.26-9.208-1.72-.062-.05-11.335-8.17-25.852-8.17-11.383 0-22.001 5.04-31.576 14.98-2.298 2.39-5.608 3.57-8.893 3.16-.005 0-2.205-.25-5.629-.25-13.706 0-37.413 3.58-42.216 27.53-1.054 5.25-5.874 8.87-11.202 8.46-.098 0-.694-.04-1.637-.04-12.105 0-41.142 3.85-49.363 39.47-.914 3.96-4.018 7.05-7.984 7.94-4.349 1.02-42.671 11.38-34.563 55.96.997 5.49-2.433 10.8-7.842 12.16-1.542.4-38.958 10.63-38.958 52.36 0 2.71-1.04 5.32-2.907 7.28-.145.16-16.986 18.43-15.561 40.66.868 13.52 8.424 26.25 22.458 37.85 3.767 3.11 4.911 8.4 2.768 12.79-.052.11-7.137 15.25-2.314 28.36 2.546 6.92 8.01 12.17 16.699 16.06 3.806 1.7 6.257 5.48 6.257 9.65.289 31.57 25.672 32.48 28.564 32.48.133 0 .255.05.387.05.708.03 1.404.12 2.089.29.151.03.307.05.456.09.79.23 1.543.56 2.262.97.204.11.388.25.584.38.531.35 1.027.74 1.494 1.19.175.16.353.32.517.5.565.62 1.086 1.29 1.504 2.06.002 0 .012.02.014.02.002.01.005.01.007.01.009.02.248.44.675 1.12.047.08.081.13.132.22.085.13.195.29.292.44.105.16.199.31.319.49.086.13.193.28.286.42.16.23.313.46.494.72.065.09.143.19.211.29.231.32.467.65.731 1.01.046.06.102.13.149.19.295.39.602.8.935 1.22.093.11.199.24.294.36.307.38.617.76.955 1.16.103.13.22.25.326.38.347.4.697.81 1.074 1.22.134.15.285.31.423.46.368.39.735.79 1.128 1.19.155.16.326.32.485.48.4.4.798.8 1.224 1.2.155.14.325.29.483.43.446.41.892.82 1.363 1.23.248.21.515.41.77.62.286.24.571.47.867.71.123.09.236.19.36.29.324.25.67.49 1.004.73.379.28.747.56 1.138.83.378.26.778.5 1.168.75.374.24.735.49 1.121.72.785.47 1.592.92 2.424 1.35 3.45 1.76 6.964 2.91 10.565 3.5l-.083-.04c5.38.89 10.975.54 16.775-1.12 1.789-.51 3.616-1.19 5.458-1.95-2.439-15.51-4.777-25.97-4.817-26.14-1.408-6.21-.318-12.58 3.067-17.96 3.388-5.38 8.669-9.11 14.866-10.52 12.815-2.88 25.576 5.18 28.476 17.92.219.96 3.917 17.37 7.064 40.37.948.05 1.85.17 2.829.17 13.778 0 26.994-5.3 39.285-15.76 2.5-2.12 5.831-2.98 9.053-2.28.005 0 4.436.89 10.618.89 23.694 0 36.91-11.67 39.286-34.69.299-2.94 1.817-5.62 4.188-7.39 2.36-1.77 5.35-2.45 8.268-1.92-.005 0-.005 0-.005 0 .01 0 1.539.24 3.899.24 12.276 0 27.841-5.7 32.246-32.89.827-5.09 5.206-8.85 10.365-8.88 4.54-.08 17.833-2.06 24.144-10.19 4.297-5.53 5.19-13.73 2.659-24.39-.681-2.87-.129-5.9 1.519-8.35 1.647-2.45 4.245-4.1 7.168-4.55-.005 0 9.394-1.72 14.419-9.26 3.692-5.53 4.431-13.34 2.205-23.19-1.048-4.63 1.116-9.39 5.294-11.64.717-.43 20.905-12.71 10.478-50.51-1.002-3.62 0-7.51 2.629-10.2z" fill="#fff6e2"/><path d="m305.058 2262.06c.659 12.29.75 25.65-.322 38.54 1.723 1.35 3.36 2.74 4.907 4.13 1.121-10.85 1.436-22.99.967-36.29-1.07-1.35-2.96-3.62-5.552-6.38" fill="#9b764e"/><path d="m295.066 2341.43 2.06 7.32c3.997-6.67 7.142-14.93 9.401-24.71-1.282-1.42-2.727-2.95-4.393-4.59-1.618 8.05-3.919 15.51-7.068 21.98" fill="#9b764e"/><path d="m227.31 2321.34c-2.056 1.77-3.815 3.55-5.091 5.21.502 10.93 2.564 20.58 6.897 27.71.985 1.62 2.097 3.08 3.271 4.45 1.27-.57 2.838-1.46 4.611-2.73-1.225-1.34-2.358-2.81-3.366-4.47-4.559-7.5-6.294-18.19-6.322-30.17" fill="#9b764e"/><path d="m232.792 2277.11c-2.002.78-4.004 1.62-5.876 2.5-1.694 8.29-3.049 16.7-3.887 24.9 2.047-1.5 3.98-2.82 5.655-3.91.99-7.85 2.431-15.78 4.108-23.49" fill="#9b764e"/><path d="m254.008 2364.24c-.637-.08-1.233-.21-1.846-.32-1.688 1.63-3.35 3.06-4.952 4.27 1.955.57 3.988 1.03 6.155 1.29 12.222 1.5 22.701-.87 31.186-6.85l-1.533-5.45c-7.681 6.13-17.224 8.49-29.01 7.06" fill="#9b764e"/><path d="m297.172 2194.18c1.808.73 3.417 1.53 5.036 2.33-1.278-6.73-2.215-10.9-2.319-11.36-.323-1.42-1.777-2.34-3.202-1.99-.845.2-1.346.74-1.611 1.16-.269.42-.543 1.11-.344 2 .019.08.645 2.89 1.573 7.61.29.08.582.14.867.25" fill="#9b764e"/><path d="m302.945 2237.07c.073.64.142 1.3.213 1.95 2.043 1.53 3.987 3.12 5.804 4.73-.157-1.63-.318-3.24-.487-4.83-.424-3.98-.878-7.84-1.357-11.54-.445-3.43-.904-6.73-1.368-9.86-1.666-1.4-3.658-2.88-6.046-4.35.585 3.7 1.174 7.67 1.745 11.86.524 3.85 1.028 7.87 1.496 12.04" fill="#9b764e"/><path d="m238.621 2236.49c-.002.01-.004.02-.006.03-2.426 7.12-4.934 15.34-7.262 24.16 2.257-.81 4.308-1.5 5.972-2.03 2.085-7.6 4.207-14.44 6.126-20.1-.424-.16-.847-.32-1.269-.48-1.197-.47-2.378-1.02-3.561-1.58" fill="#9b764e"/><g fill="#1b1a19"><path d="m308.962 2243.75c-1.817-1.61-3.761-3.2-5.804-4.73-.071-.65-.14-1.31-.213-1.95-.468-4.17-.972-8.19-1.496-12.04-.571-4.19-1.16-8.16-1.745-11.86 2.388 1.47 4.38 2.95 6.046 4.35.464 3.13.923 6.43 1.368 9.86.479 3.7.933 7.56 1.357 11.54.169 1.59.33 3.2.487 4.83zm-79.846 110.51c-4.333-7.13-6.395-16.78-6.897-27.71 1.276-1.66 3.035-3.44 5.091-5.21.028 11.98 1.763 22.67 6.322 30.17 1.008 1.66 2.141 3.13 3.366 4.47-1.773 1.27-3.341 2.16-4.611 2.73-1.174-1.37-2.286-2.83-3.271-4.45zm-2.2-74.65c1.872-.88 3.874-1.72 5.876-2.5-1.677 7.71-3.118 15.64-4.108 23.49-1.675 1.09-3.608 2.41-5.655 3.91.838-8.2 2.193-16.61 3.887-24.9zm11.699-43.09.006-.03c1.183.56 2.364 1.11 3.561 1.58.422.16.845.32 1.269.48-1.919 5.66-4.041 12.5-6.126 20.1-1.664.53-3.715 1.22-5.972 2.03 2.328-8.82 4.836-17.04 7.262-24.16zm40.66 2.92c.846-.24 1.706-.61 2.557-.89.67 5.88 1.265 12.05 1.711 18.35 2.838 40.02-1.557 70.67-11.756 81.97-2.619 2.91-6.272 5.46-15.238 4.37-3.217-.4-3.971-1.28-4.834-2.7-8.282-13.64-.042-62.5 12.998-98.73 1.098-.04 2.198-.12 3.304-.23.16-.01.322-.04.483-.05 1.522-.17 3.052-.39 4.589-.67.338-.06.675-.12 1.013-.19 1.682-.33 3.37-.72 5.068-1.21.035-.01.07-.01.105-.02zm15.457-53.12c-.199-.89.075-1.58.344-2 .265-.42.766-.96 1.611-1.16 1.425-.35 2.879.57 3.202 1.99.104.46 1.041 4.63 2.319 11.36-1.619-.8-3.228-1.6-5.036-2.33-.285-.11-.577-.17-.867-.25-.928-4.72-1.554-7.53-1.573-7.61zm.334 155.11c3.149-6.47 5.45-13.93 7.068-21.98 1.666 1.64 3.111 3.17 4.393 4.59-2.259 9.78-5.404 18.04-9.401 24.71zm15.544-72.99c.469 13.3.154 25.44-.967 36.29-1.547-1.39-3.184-2.78-4.907-4.13 1.072-12.89.981-26.25.322-38.54 2.592 2.76 4.482 5.03 5.552 6.38zm-57.245 101.04c-2.167-.26-4.2-.72-6.155-1.29 1.602-1.21 3.264-2.64 4.952-4.27.613.11 1.209.24 1.846.32 11.786 1.43 21.329-.93 29.01-7.06l1.533 5.45c-8.485 5.98-18.964 8.35-31.186 6.85zm291.654-342.74c-4.178 2.25-6.342 7.01-5.294 11.64 2.226 9.85 1.487 17.66-2.205 23.19-5.025 7.54-14.424 9.26-14.419 9.26-2.923.45-5.521 2.1-7.168 4.55-1.648 2.45-2.2 5.48-1.519 8.35 2.531 10.66 1.638 18.86-2.659 24.39-6.311 8.13-19.604 10.11-24.144 10.19-5.159.03-9.538 3.79-10.365 8.88-4.405 27.19-19.97 32.89-32.246 32.89-2.36 0-3.889-.24-3.899-.24h.005c-2.918-.53-5.908.15-8.268 1.92-2.371 1.77-3.889 4.45-4.188 7.39-2.376 23.02-15.592 34.69-39.286 34.69-6.182 0-10.613-.89-10.618-.89-3.222-.7-6.553.16-9.053 2.28-12.291 10.46-25.507 15.76-39.285 15.76-.979 0-1.881-.12-2.829-.17-3.147-23-6.845-39.41-7.064-40.37-2.9-12.74-15.661-20.8-28.476-17.92-6.197 1.41-11.478 5.14-14.866 10.52-3.385 5.38-4.475 11.75-3.067 17.96.04.17 2.378 10.63 4.817 26.14-1.842.76-3.669 1.44-5.458 1.95-5.8 1.66-11.395 2.01-16.775 1.12l.083.04c-3.601-.59-7.115-1.74-10.565-3.5-.832-.43-1.64-.88-2.424-1.35-.386-.23-.747-.48-1.121-.72-.39-.25-.79-.49-1.168-.75-.391-.27-.759-.55-1.138-.83-.334-.24-.68-.48-1.004-.73-.124-.1-.237-.2-.36-.29-.296-.24-.581-.47-.867-.71-.255-.21-.522-.41-.77-.62-.471-.41-.917-.82-1.363-1.23-.158-.14-.328-.29-.483-.43-.426-.4-.824-.8-1.224-1.2-.159-.16-.33-.32-.485-.48-.393-.4-.76-.8-1.128-1.19-.138-.15-.289-.31-.423-.46-.377-.41-.727-.82-1.074-1.22-.106-.13-.223-.25-.326-.38-.338-.4-.648-.78-.955-1.16-.095-.12-.201-.25-.294-.36-.333-.42-.64-.83-.935-1.22-.047-.06-.103-.13-.149-.19-.264-.36-.5-.69-.731-1.01-.068-.1-.146-.2-.211-.29-.181-.26-.334-.49-.494-.72-.093-.14-.2-.29-.286-.42-.12-.18-.214-.33-.319-.49-.097-.15-.207-.31-.292-.44-.051-.09-.085-.14-.132-.22-.427-.68-.666-1.1-.675-1.12-.002 0-.005 0-.007-.01-.002 0-.012-.02-.014-.02-.418-.77-.939-1.44-1.504-2.06-.164-.18-.343-.34-.517-.5-.467-.45-.963-.84-1.494-1.19-.196-.13-.38-.27-.584-.38-.719-.41-1.472-.74-2.262-.97-.149-.04-.305-.06-.456-.09-.685-.17-1.381-.26-2.089-.29-.132 0-.254-.05-.387-.05-2.892 0-28.275-.91-28.564-32.48 0-4.17-2.451-7.95-6.257-9.65-8.689-3.89-14.153-9.14-16.699-16.06-4.823-13.11 2.262-28.25 2.314-28.36 2.143-4.39.999-9.68-2.768-12.79-14.034-11.6-21.59-24.33-22.458-37.85-1.425-22.23 15.416-40.5 15.561-40.66 1.867-1.96 2.907-4.57 2.907-7.28 0-41.73 37.416-51.96 38.958-52.36 5.409-1.36 8.839-6.67 7.842-12.16-8.108-44.58 30.214-54.94 34.563-55.96 3.966-.89 7.07-3.98 7.984-7.94 8.221-35.62 37.258-39.47 49.363-39.47.943 0 1.539.04 1.637.04 5.328.41 10.148-3.21 11.202-8.46 4.803-23.95 28.51-27.53 42.216-27.53 3.424 0 5.624.25 5.629.25 3.285.41 6.595-.77 8.893-3.16 9.575-9.94 20.193-14.98 31.576-14.98 14.517 0 25.79 8.12 25.852 8.17 2.634 1.98 6.043 2.61 9.208 1.72 4.473-1.26 8.842-1.9 12.979-1.9 24.396 0 36.429 22.13 36.904 23.02 1.818 3.51 5.438 5.72 9.394 5.72 30.496 0 35.671 30.32 36.156 33.73.377 2.87 1.916 5.46 4.261 7.17 24.422 17.77 20.657 50.23 20.492 51.57-.387 2.91.454 5.85 2.319 8.12 19.361 23.5 2.525 42.56.599 44.6-2.629 2.69-3.631 6.58-2.629 10.2 10.427 37.8-9.761 50.08-10.478 50.51zm31.528-115.29c.532-11.82-.697-43.22-25.91-64.12-3.837-17.59-17.946-44.4-50.316-47.38-6.75-9.73-23.73-29-52.32-29-4.561 0-9.25.51-13.98 1.52-6.332-3.67-18.809-9.52-34.059-9.52-15.855 0-30.377 6.04-43.226 17.94-.868-.02-1.834-.04-2.872-.04-30.291 0-52.33 13.34-60.622 36.15-24.908 1.77-52.449 15.63-62.832 49.76-14.732 5.47-49.429 23.36-45.54 69.28-18.865 8.02-44.15 28.29-45.834 65.8-6.161 7.68-20.043 27.94-18.529 53.06 1.061 17.57 9.257 33.68 24.388 47.98-2.652 8.53-5.396 22.89-.276 37 3.863 10.65 11.297 19.14 22.135 25.31 2.114 18.05 12.942 43.68 43.334 46.65.07.1.163.22.235.32.414.59.869 1.21 1.355 1.86.188.25.386.51.585.77.5.65 1.04 1.33 1.608 2.02.171.21.328.41.506.62.744.89 1.545 1.81 2.396 2.74.203.22.425.45.634.68.687.73 1.408 1.47 2.16 2.22.298.29.598.59.906.88.03.03.058.06.088.09-6.907 19.32-33.83 101.19-9.525 141.2 8.756 14.42 22.514 23.15 39.781 25.24 3.212.39 6.409.59 9.502.59 18.636 0 34.826-7.03 46.821-20.33 19.844-22.01 27.869-61.56 23.856-117.55-.269-3.76-.593-7.44-.939-11.06.12 0 .231.01.351.01 17.466 0 33.986-5.95 49.18-17.7 2.556.3 5.908.55 9.776.55 31.333 0 52.274-15.83 58.719-43.85 12.193-.75 39.213-6.6 48.396-42.59 8.96-1.55 22.826-5.78 31.869-17.3 6.869-8.76 9.652-19.73 8.32-32.71 5.815-2.57 12.916-7.09 18.235-14.91 6.156-9.04 8.392-20.14 6.683-33.07 9.218-8.24 23.963-27.79 15.674-64.49 9.802-13.3 18.416-38.44-.713-64.62z"/><path d="m417.773 1835.57c-1.683-1.01-16.846-9.7-31.554-3.79-4.307 1.73-9.601 5.18-13.778 12.06-6.311-1.91-14.43-2.84-22.28.73-9.428 4.3-15.406 13.62-17.888 27.59-3.505.98-6.984 2.47-10.265 4.66-10.636 7.1-16.276 19.3-16.759 36.26-.167 5.84 4.431 10.71 10.27 10.87.103.01.206.01.307.01 5.701 0 10.404-4.54 10.566-10.28.079-2.75.354-5.21.784-7.43 1.083-5.62 3.255-9.6 6.532-11.81 4.367-2.94 10.619-3.04 15.924-2.31 3.691.5 6.936 1.39 8.72 2.06 5.423 2.06 11.537-.67 13.619-6.12 2.086-5.45-.646-11.57-6.105-13.65-1.065-.41-5.599-2.04-11.762-3.04.044-.14.084-.3.129-.44 1.183-3.73 2.792-6.24 4.682-7.11 2.409-1.12 6.092-.29 9.111.87 1.719.66 3.229 1.43 4.151 2.01 2.841 1.85 6.373 2.23 9.539 1.03 3.16-1.2 5.557-3.84 6.445-7.1.566-2.08 1.484-4.42 2.76-6.31.866-1.28 1.87-2.39 3.148-2.91 1.228-.5 2.712-.58 4.239-.43 3.339.3 6.908 1.75 8.631 2.74 5.014 2.97 11.47 1.34 14.46-3.66 3.006-5 1.384-11.5-3.626-14.5"/><path d="m498.224 1934.65c-5.045 2.95-6.75 9.42-3.806 14.47.027.05 1.293 2.4 2.306 5.71 1.116 3.65 1.923 8.48.39 12.84-1.648 4.69-6.094 8.46-13.221 11.2-1.265.49-2.393 1.22-3.367 2.12-1.118 1.04-2.028 2.29-2.618 3.73-.131.31-.191.64-.289.97-.736 2.43-.63 5.05.423 7.39 1.275 2.84 6.884 17.34-8.103 24.44-3.388 1.61-5.681 4.97-6.011 8.7-.011.11-1.049 10.83-8.165 16.08-3.608 2.66-8.659 3.52-14.901 2.76-1.254-.15-2.485-.27-3.841-.56-5.727-1.21-11.336 2.42-12.56 8.13s2.417 11.33 8.129 12.56c4.354.93 8.495 1.4 12.415 1.4 9.053 0 16.934-2.49 23.529-7.42 10.014-7.5 13.975-18.5 15.524-25.32 15.767-10.06 18.68-26.46 16.309-39.54 10.05-6.06 14.626-13.72 16.702-19.63 6.12-17.42-3.285-34.34-4.379-36.22-2.944-5.04-9.405-6.75-14.466-3.81"/><path d="m232.244 2017.33c.702 3.12 1.693 5.81 2.723 7.87 1.844 3.69 5.534 5.79 9.387 5.79 1.557 0 3.142-.34 4.64-1.07 5.208-2.51 7.398-8.81 4.955-14.06-.194-.41-.938-2.2-1.323-4.72-.573-3.75-.32-9.16 3.954-14.38 6.234-7.62 12.92-9.7 17.556-10.09 3.033-.26 5.197.21 5.754.35 5.528 1.57 11.359-1.6 13.014-7.16 1.671-5.59-1.516-11.48-7.114-13.15-1.048-.31-25.905-7.38-45.581 16.65-3.305 4.04-5.511 8.24-6.916 12.38-7.745.89-21.184 3.86-29.877 13.8-13.358 15.27-11.458 31-8.227 37.89 1.815 3.88 5.717 6.22 9.753 6.22 1.474 0 2.964-.31 4.379-.97 5.291-2.48 7.636-8.63 5.157-13.92-.154-.4-.879-2.71-.11-6.15.563-2.53 1.904-5.64 4.969-9.14 1.938-2.22 4.895-3.74 7.979-4.81 1.655-.57 3.335-1.01 4.928-1.33"/><path d="m312.82 2061.5c-10.328-.97-30.193 1.93-39.337 18.69-10.341 18.96-2.024 37.74-1.665 38.53 1.763 3.88 5.572 6.15 9.572 6.15 1.438 0 2.902-.29 4.304-.91 5.302-2.34 7.708-8.57 5.426-13.9-.092-.21-1.23-3.02-1.575-6.99-.315-3.62.027-8.2 2.509-12.75 2.522-4.62 7.618-6.51 11.887-7.28 3.758-.67 6.878-.48 7.012-.47 5.779.46 10.902-3.78 11.434-9.57.535-5.82-3.749-10.97-9.567-11.5"/><path d="m408.751 2110.5c-5.758.52-10.024 5.64-9.6 11.4.004.05.202 3.42-1.314 6.63-.425.91-.961 1.8-1.702 2.6-1.819 1.95-4.671 3.2-8.359 3.84-1.768.31-3.669.52-5.854.52-4.172 0-7.989 2.53-9.693 6.34-.511 1.15-1.433 2.96-2.784 4.88-2.564 3.63-6.733 7.6-12.818 8.2-2.667.26-5.682-.1-9.115-1.47-5.448-2.18-11.584.46-13.753 5.89-2.169 5.42.47 11.58 5.893 13.75 5.448 2.17 10.577 3.12 15.359 3.12 15.338 0 27.009-9.77 33.418-19.9 9.963-1.1 17.854-4.83 23.524-11.13 9.503-10.55 8.408-23.85 8.253-25.33-.61-5.74-5.712-9.83-11.455-9.34"/><path d="m258.832 2166.27c-5.539 1.51-9.771 1.31-12.573-.6-4.072-2.77-5.601-9.14-5.848-11.38-.566-5.78-5.707-10.07-11.483-9.5-5.818.53-10.105 5.67-9.575 11.49.162 1.8 1.967 17.83 14.78 26.72 3.925 2.73 9.887 5.41 18.166 5.41 3.589 0 7.617-.51 12.1-1.73 5.634-1.54 8.958-7.35 7.421-12.99-1.539-5.63-7.341-8.95-12.988-7.42"/><path d="m477.024 1874.97c1.715-.2 4.772-.35 6.089.94 1.797 1.76 2.185 6.47 1.988 8.62-.599 5.77 3.574 10.96 9.353 11.6.398.04.79.07 1.183.07 5.314 0 9.895-4 10.494-9.41.186-1.65 1.508-16.33-8.093-25.86-3.992-3.97-11.299-8.41-23.482-6.97-5.805.68-9.952 5.94-9.27 11.74.681 5.8 5.949 9.95 11.738 9.27"/><path d="m395.876 1950.39c5.795.3 10.825-4.14 11.15-9.98.326-5.83-4.141-10.82-9.972-11.15-13.231-.71-20.58 4.34-24.469 8.72-3.78 4.26-5.531 9.21-6.275 13.58-9.621 2.01-16.686 6.55-21.081 13.56-9.099 14.5-1.632 32.49-.754 34.49 1.741 3.95 5.599 6.3 9.653 6.3 1.41 0 2.84-.29 4.214-.88 5.34-2.31 7.798-8.53 5.52-13.88-.601-1.42-1.306-3.79-1.677-6.33-.445-3.04-.402-6.32.98-8.49 1.587-2.5 5.249-3.7 8.75-4.28 1.854-.31 3.667-.45 5.096-.5 3.016-.11 5.825-1.57 7.752-3.89 1.926-2.32 2.758-5.42 2.308-8.4-.237-1.55-.217-5.54 1.358-7.27 1.519-1.67 5.32-1.72 7.447-1.6"/><path d="m243.584 1943.76c.289.02.573.03.855.03 5.459 0 10.088-4.2 10.533-9.73.578-7.23 2.703-12.34 6.313-15.18 5.224-4.11 12.733-3.05 13.076-3.01 5.722.99 11.163-2.81 12.204-8.53 1.045-5.75-2.768-11.25-8.514-12.3-1.699-.31-16.921-2.72-29.556 6.99-8.614 6.62-13.528 16.83-14.61 30.34-.464 5.82 3.876 10.92 9.699 11.39"/></g><path d="m2588.63 2072.74c-.17.01-.35.02-.52.02-4.15 0-7.63-3.22-7.91-7.42l-1.76-27.33c-.29-4.37 3.03-8.14 7.4-8.42 4.42-.31 8.15 3.03 8.43 7.4l1.77 27.32c.28 4.38-3.03 8.15-7.41 8.43zm-11.93 219.96c-10.89 6.28-37.48 12.62-72.37 12.62-3.73 0-6.1-.09-6.55-.1l-1.67-.08-1.72.08c-.7.02-2.99.1-6.52.1-34.89 0-61.49-6.34-72.36-12.63-3.29-1.89-5.31-5.41-5.29015-9.21.35015-63.38 7.36015-236.22 7.43015-237.96-.01 0 .17-37.12 22.59-59.64 12.81-12.86 31.08-19.11 55.86-19.11 25.04 0 43.44 6.39 56.27 19.53 20.21 20.7 22.02 53.76 22.17 59.22h.01c.07 1.74 7.09 174.59 7.43033 237.97.02967 3.8-1.99033 7.31-5.28033 9.21zm-32.74-334.45c1.9-3.94 6.65-5.6 10.59-3.69 1.19.57 29.24 14.54 36.95 55.02.82 4.3-2 8.45-6.31 9.27-.5.1-1 .15-1.49.15-3.73 0-7.06-2.65-7.78-6.45-6.23-32.72-28.05-43.6-28.27-43.7-3.94-1.91-5.6-6.65-3.69-10.6zm57.03 73.55c0-.2 0-.41 0-.62.01-.45.6-48.09-29.81-79.12-2.52-2.56-5.22-4.9-8.02-7.1h-134.1c-2.85 2.24-5.6 4.61-8.14 7.22-30.48 31.22-29.72 78.53-29.71 79 .01.21 0 .42 0 .62-.08 2.14-7.44 214.67-7.44 273.4 0 41.46 86.72 43.56 104.1 43.56 4.77 0 7.63-.12 7.76-.13.15 0 .31-.01.47-.01s.32.01.48.01c.12.01 2.99.13 7.75.13 14 0 41.04-1.01 64.74-7.84 26.12-7.52 39.37-19.54 39.37-35.72 0-58.74-7.37-271.26-7.45-273.4z" fill="#f6d9de"/><path d="m2492.75 2168.81c25.92-11.31 34.87-25.76 44.33-41.05 4.01-6.49 8.17-13.19 13.61-19.61 1.62-1.91 3.26-3.73 4.9-5.47-.52-14.11-1-26.46-1.37-35.99-4.7 3.22-10.96 8.48-18.2 17.02-4.68 5.51-8.34 11.44-12.22 17.72-9.84 15.94-20.99 34.01-51.49 47.22-20.78 9.01-33.24 23.61-38.39 30.75-.44 13.44-.85 26.82-1.22 39.59 14.71-22.33 34.78-39.16 60.05-50.18" fill="#fffffe"/><path d="m2550.57 2136.11c-9.85 15.91-21.01 33.95-51.47 47.24-32.42 14.14-54.41 38.11-67.33 72.89-.15 7.45-.27 14.36-.33 20.48 10.03 3.56 29.64 7.44 56.43 7.44 3.15 0 5.2-.07 5.66-.08l2.12-.09c.15 0 .3-.01.45-.01s.3.01.45.01l2.07.09c.34.01 2.43.08 5.71.08 26.79 0 46.4-3.88 56.44-7.44-.4-36.22-2.46-99-4.29-149.88-2.02 2.99-3.94 6.08-5.91 9.27" fill="#e69bb2"/><path d="m2510.3 2093.09c4.02-6.5 8.17-13.22 13.62-19.65 12.56-14.8 23.13-21.59 29.59-24.67-.06-1.43-.09-2.28-.09-2.39-.02-.26-.02-.52-.01-.77-.1-7.6-3.19-31.23-16.17-44.53-8.64-8.85-22.1-13.15-41.14-13.15-18.86 0-32.24 4.21-40.87 12.88-12.48 12.53-16.46 35.8-16.44 45.11-.04 1.18-2.11 52.22-4.05 108.79 7.7-7.21 18.01-14.87 31.26-20.61 25.93-11.24 34.85-25.7 44.3-41.01" fill="#e69bb2"/><path d="m2496.1 1875.33h6.17v-36.14h-12.34v36.14z" fill="#fffffe"/><path d="m2441.9 1790.71v-10.57h-32.7c-25.12 0-39.02 14.94-44.17 25.43 2.16 1.62 6.11 3.52 9.22 4.66.55-.62 1.15-1.31 1.66-1.9 5.67-6.59 15.16-17.62 33.29-17.62z" fill="#fffffe"/><path d="m2507.03 1800.85c0-4.38 3.55-7.93 7.93-7.93s7.93 3.55 7.93 7.93v1.76c0 2.41-1.09 4.54-2.79 6-1.39 1.19-3.17 1.94-5.14 1.94-3.29 0-6.11-2-7.31-4.85-.4-.95-.62-1.99-.62-3.09zm0-35.7c0-4.38 3.55-7.93 7.93-7.93s7.93 3.55 7.93 7.93v14.11c0 4.38-3.55 7.93-7.93 7.93s-7.93-3.55-7.93-7.93zm-38.25 52.63c.6.15 1.22.26 1.87.26h50.9c.65 0 1.27-.11 1.88-.26 3.28-.85 5.72-3.8 5.72-7.34v-50.9c0-4.2-3.41-7.61-7.6-7.61h-50.9c-4.18 0-7.59 3.41-7.6 7.59v.02 50.9c0 .16.04.32.05.49.22 3.32 2.56 6.05 5.68 6.85z" fill="#e69bb2"/><path d="m2527.38 1906.57v17.23h7.47v-26.45c-2.29-.19-4.79-.33-7.47-.44z" fill="#fffffe"/><path d="m2557.36 1916.44v-9.38c0-.56-.07-.32-.01-.58-.16-1.03-1.11-3.89-6.63-6.18v23.5h6.64z" fill="#fffffe"/><path d="m2434.85 1923.8h6.64v-23.5c-6.04 2.52-6.68 5.88-6.68 5.91.03.29.04.57.04.85z" fill="#fffffe"/><path d="m2464.83 1917.28v-20.37c-2.68.11-5.18.25-7.48.44v26.45h7.48z" fill="#fffffe"/><path d="m2480.7 1905.16v18.64h7.47v-27.3c-2.61 0-5.07.02-7.47.04z" fill="#fffffe"/><path d="m2504.03 1905.16v18.64h7.48v-27.26c-2.4-.02-4.87-.04-7.48-.04z" fill="#fffffe"/><path d="m2464.83 1896.91v26.89h-7.48v-26.45c2.3-.19 4.8-.33 7.48-.44zm70.02.44v26.45h-7.47v-26.89c2.68.11 5.18.25 7.47.44zm-54.15 17.55v-18.36c2.4-.02 4.86-.04 7.47-.04v27.3h-7.47zm30.81-10.65v19.55h-7.48v-27.3c2.61 0 5.08.02 7.48.04zm45.84 2.23c-.06.26.01.02.01.58v16.74h-6.64v-23.5c5.52 2.29 6.47 5.15 6.63 6.18zm-67.42-67.29h12.34v36.14c-2 0-4.05 0-6.17 0s-4.16 0-6.17 0zm-114.02-30.86c-.51.59-1.11 1.28-1.66 1.9-3.11-1.14-7.06-3.04-9.22-4.66 5.15-10.49 19.05-25.43 44.17-25.43h32.7v10.57h-32.7c-18.13 0-27.62 11.03-33.29 17.62zm87.19 2.6c-.01-.17-.05-.33-.05-.49v-50.9c0-.01 0-.01 0-.02.01-4.18 3.42-7.59 7.6-7.59h50.9c4.19 0 7.6 3.41 7.6 7.61v50.9c0 3.54-2.44 6.49-5.72 7.34-.61.15-1.23.26-1.88.26h-50.9c-.65 0-1.27-.11-1.87-.26-3.12-.8-5.46-3.53-5.68-6.85zm-28.29 95.28c0-.03.64-3.39 6.68-5.91v23.5h-6.64v-16.74c0-.28-.01-.56-.04-.85zm134.26 434.71c-23.7 6.83-50.74 7.84-64.74 7.84-4.76 0-7.63-.12-7.75-.13-.16 0-.32-.01-.48-.01s-.32.01-.47.01c-.13.01-2.99.13-7.76.13-17.38 0-104.1-2.1-104.1-43.56 0-58.73 7.36-271.26 7.44-273.4 0-.2.01-.41 0-.62-.01-.47-.77-47.78 29.71-79 2.54-2.61 5.29-4.98 8.14-7.22h134.1c2.8 2.2 5.5 4.54 8.02 7.1 30.41 31.03 29.82 78.67 29.81 79.12v.62c.08 2.14 7.45 214.66 7.45 273.4 0 16.18-13.25 28.2-39.37 35.72zm53.08-309.58c.07-5.2-.19-57.54-35.72-93.94-2.52-2.57-5.18-4.96-7.92-7.25v-22.78c.34-7.12-3.55-20.25-20.34-26.89-8.25-3.27-19.16-4.46-34.74-4.9v-36.48c14.98-.98 26.88-13.44 26.88-28.66v-50.9c0-15.86-12.9-28.76-28.76-28.76h-50.9c-15.67 0-28.43 12.61-28.72 28.21h-32.73c-38.74 0-59.11 26.12-65.05 41.56-2.01 5.24-1.27 10.83 2.1 15.73 6.91 10.06 24.98 15.86 29.45 15.86 7.62 0 12.4-5.55 16.24-10.01 5.33-6.2 9.42-10.26 17.26-10.26h32.77c.72 14.56 12.3 26.29 26.81 27.23v36.48c-15.58.44-26.49 1.63-34.74 4.9-16.79 6.65-20.68 19.77-20.35 26.89v22.78c-2.74 2.28-5.39 4.68-7.91 7.25-35.54 36.4-35.79 88.74-35.72 93.94-.31 8.82-7.45 215.73-7.45 273.86 0 18.39 9.49 43.04 54.67 56.05 26.2 7.54 55.47 8.67 70.59 8.67 4.24 0 7.14-.1 8.23-.13 1.09.03 3.99.13 8.23.13 15.12 0 44.4-1.13 70.59-8.67 45.18-13.01 54.67-37.66 54.67-56.05 0-58.13-7.14-265.04-7.44-273.86z" fill="#1b1a19"/><path d="m2433.92 2179.4c5.15-7.14 17.61-21.74 38.39-30.75 30.5-13.21 41.65-31.28 51.49-47.22 3.88-6.28 7.54-12.21 12.22-17.72 7.24-8.54 13.5-13.8 18.2-17.02.37 9.53.85 21.88 1.37 35.99-1.64 1.74-3.28 3.56-4.9 5.47-5.44 6.42-9.6 13.12-13.61 19.61-9.46 15.29-18.41 29.74-44.33 41.05-25.27 11.02-45.34 27.85-60.05 50.18.37-12.77.78-26.15 1.22-39.59zm62.18-191.47c19.04 0 32.5 4.3 41.14 13.15 12.98 13.3 16.07 36.93 16.17 44.53-.01.25-.01.51.01.77 0 .11.03.96.09 2.39-6.46 3.08-17.03 9.87-29.59 24.67-5.45 6.43-9.6 13.15-13.62 19.65-9.45 15.31-18.37 29.77-44.3 41.01-13.25 5.74-23.56 13.4-31.26 20.61 1.94-56.57 4.01-107.61 4.05-108.79-.02-9.31 3.96-32.58 16.44-45.11 8.63-8.67 22.01-12.88 40.87-12.88zm2.52 296.15-2.07-.09c-.15 0-.3-.01-.45-.01s-.3.01-.45.01l-2.12.09c-.46.01-2.51.08-5.66.08-26.79 0-46.4-3.88-56.43-7.44.06-6.12.18-13.03.33-20.48 12.92-34.78 34.91-58.75 67.33-72.89 30.46-13.29 41.62-31.33 51.47-47.24 1.97-3.19 3.89-6.28 5.91-9.27 1.83 50.88 3.89 113.66 4.29 149.88-10.04 3.56-29.65 7.44-56.44 7.44-3.28 0-5.37-.07-5.71-.08zm75.92-238.56c-.15-5.46-1.96-38.52-22.17-59.22-12.83-13.14-31.23-19.53-56.27-19.53-24.78 0-43.05 6.25-55.86 19.11-22.42 22.52-22.6 59.64-22.59 59.64-.07 1.74-7.08 174.58-7.43015 237.96-.01985 3.8 2.00015 7.32 5.29015 9.21 10.87 6.29 37.47 12.63 72.36 12.63 3.53 0 5.82-.08 6.52-.1l1.72-.08 1.67.08c.45.01 2.82.1 6.55.1 34.89 0 61.48-6.34 72.37-12.62 3.29-1.9 5.31-5.41 5.28033-9.21-.34033-63.38-7.36033-236.23-7.43033-237.97z" fill="#1b1a19"/><path d="m2547.65 1968.85c.22.1 22.04 10.98 28.27 43.7.72 3.8 4.05 6.45 7.78 6.45.49 0 .99-.05 1.49-.15 4.31-.82 7.13-4.97 6.31-9.27-7.71-40.48-35.76-54.45-36.95-55.02-3.94-1.91-8.69-.25-10.59 3.69-1.91 3.95-.25 8.69 3.69 10.6" fill="#1b1a19"/><path d="m2585.84 2029.59c-4.37.28-7.69 4.05-7.4 8.42l1.76 27.33c.28 4.2 3.76 7.42 7.91 7.42.17 0 .35-.01.52-.02 4.38-.28 7.69-4.05 7.41-8.43l-1.77-27.32c-.28-4.37-4.01-7.71-8.43-7.4" fill="#1b1a19"/><path d="m2514.96 1810.55c1.97 0 3.75-.75 5.14-1.94 1.7-1.46 2.79-3.59 2.79-6v-1.76c0-4.38-3.55-7.93-7.93-7.93s-7.93 3.55-7.93 7.93v1.76c0 1.1.22 2.14.62 3.09 1.2 2.85 4.02 4.85 7.31 4.85" fill="#1b1a19"/><path d="m2514.96 1787.19c4.38 0 7.93-3.55 7.93-7.93v-14.11c0-4.38-3.55-7.93-7.93-7.93s-7.93 3.55-7.93 7.93v14.11c0 4.38 3.55 7.93 7.93 7.93" fill="#1b1a19"/></g></svg>