<?xml version="1.0" encoding="UTF-8"?>
<svg width="1271px" height="1867px" viewBox="0 0 1271 1867" version="1.1" xmlns="http://www.w3.org/2000/svg" xmlns:xlink="http://www.w3.org/1999/xlink">
    <!-- Generator: Sketch 63.1 (92452) - https://sketch.com -->
    <desc>Created with Sketch.</desc>
    <g id="Page-1" stroke="none" stroke-width="1" fill="none" fill-rule="evenodd">
        <g id="421" transform="translate(-1440.000000, -480.000000)">
            <polygon id="Fill-1" points="0.06 2800 2800 2800 2800 0.04 0.06 0.04"></polygon>
            <path d="M2208.41,2149.45 C2190.28,2176.66 2157.32,2178.44 2149.01,2178.44 C2147.96,2178.44 2147.31,2178.41 2147.13,2178.4 C2141.11,2178.1 2136.48,2172.98 2136.78,2166.97 C2137.08,2160.97 2142.05,2156.47 2148.18,2156.62 C2148.61,2156.61 2176.82,2157.53 2190.27,2137.36 C2193.61,2132.35 2200.38,2130.99 2205.39,2134.33 C2210.4,2137.67 2211.75,2144.44 2208.41,2149.45 Z M2225.02,2136.97 C2220.84,2137.57 2216.78,2135.76 2214.44,2132.31 C2188.03,2093.49 2144.42,1960.05 2148.9,1920.01 C2156.38,1853.03 2151.54,1812.3 2151.49,1811.9 C2150.75,1805.93 2155,1800.48 2160.97,1799.74 C2166.92,1799.06 2172.38,1803.23 2173.13,1809.2 C2173.35,1810.95 2178.37,1852.62 2170.56,1922.44 C2170.08,1926.76 2170.47,1933.13 2171.54,1940.95 C2303.13,1928.62 2427.93,1838.97 2498,1706.01 C2542.74,1621.12 2531.35,1498.85 2520.02,1431.29 C2508.73,1434 2500.38,1434.33 2498.2,1434.36 C2495.16,1434.59 2492.11,1434.7 2489.13,1434.7 C2487.7,1434.7 2486.32,1434.63 2484.92,1434.58 C2467.96,1493.89 2421.09,1505.24 2375.67,1516.11 C2345.28,1523.38 2313.86,1530.89 2286.48,1551.83 C2230.75,1594.44 2188.16,1606.94 2157.38,1606.94 C2132.25,1606.94 2115.07,1598.63 2104.97,1591.56 C2080.07,1602.31 2056.79,1605.26 2038.94,1605.26 C2009.45,1605.26 1979.69,1597.3 1957.28,1583.44 C1913.52,1556.34 1889.86,1517.91 1890.65,1475.22 C1890.7,1472.71 1890.84,1470.21 1891.06,1467.72 C1879.71,1457.52 1867.8,1438.98 1855.2,1419.33 C1843.17,1400.56 1830.73,1381.15 1818.6,1368.65 C1802.74,1352.3 1789.89,1334.76 1779.94,1316.14 C1767.33,1330.72 1744.06,1368.49 1752.46,1442.91 C1753.13,1448.89 1748.83,1454.28 1742.85,1454.96 C1742.43,1455.01 1742.02,1455.03 1741.61,1455.03 C1736.14,1455.03 1731.42,1450.92 1730.79,1445.35 C1728.93,1428.85 1728.55,1413.95 1729.21,1400.45 C1717.76,1411.18 1705.96,1420.72 1691.77,1432.17 C1672.82,1447.46 1649.23,1466.49 1615.93,1496.95 C1525.6,1579.59 1518.09,1791.51 1544.1,1879.37 C1559.98,1932.98 1598.06,1966.98 1657.28,1980.44 C1702.78,1990.76 1744.28,1984.58 1744.69,1984.51 C1750.67,1983.6 1756.21,1987.67 1757.13,1993.61 C1758.05,1999.56 1753.99,2005.13 1748.04,2006.06 C1747.56,2006.13 1734.51,2008.04 1714.81,2008.04 C1697.98,2008.04 1676.28,2006.64 1653.39,2001.52 C1667.45,2032.86 1682.89,2059.53 1706.81,2084.13 C1722.9,2100.68 1744.49,2098.16 1755,2095.58 C1754.73,2092.46 1753.73,2088.27 1750.9,2083.73 C1747.7,2078.62 1749.26,2071.9 1754.36,2068.71 C1759.47,2065.52 1766.19,2067.07 1769.38,2072.18 C1774.9,2081 1776.59,2089.32 1776.85,2095.62 C1783.98,2096.99 1792.35,2097.23 1799.18,2094.51 C1807.35,2091.27 1809.15,2086.96 1809.5,2085.76 C1809.26,2072.32 1803.25,2054.03 1803.19,2053.84 C1801.29,2048.13 1804.38,2041.96 1810.09,2040.05 C1815.8,2038.16 1821.97,2041.24 1823.88,2046.95 C1824.08,2047.57 1827.48,2057.85 1829.61,2069.74 C1834.48,2064.63 1838.44,2055.37 1835.52,2038.47 C1831.46,2015.03 1809.71,1998.67 1801.28,1993.13 C1788.31,1999.47 1776.84,2000.11 1776.12,2000.14 C1775.96,2000.15 1775.8,2000.15 1775.63,2000.15 C1769.83,2000.15 1765.01,1995.58 1764.75,1989.73 C1764.48,1983.72 1769.15,1978.63 1775.16,1978.36 C1775.27,1978.35 1793.32,1977.17 1805.37,1963.14 C1814.71,1952.26 1818.44,1936.18 1816.46,1915.36 C1808.31,1829.83 1688,1774.98 1686.79,1774.44 C1681.3,1771.98 1678.84,1765.53 1681.3,1760.03 C1683.76,1754.53 1690.22,1752.08 1695.71,1754.54 C1701.14,1756.97 1828.83,1815.26 1838.17,1913.3 C1839.35,1925.73 1838.74,1936.96 1836.52,1947.03 C1856.57,1948.45 1885.88,1952.31 1903.51,1954.78 C1896.43,1933.36 1890.28,1911.37 1885.54,1889.04 C1884.29,1883.15 1888.05,1877.36 1893.94,1876.11 C1899.83,1874.83 1905.62,1878.62 1906.87,1884.51 C1942.11,2050.65 2060.35,2204.07 2061.55,2205.61 C2062.1,2206.31 2062.56,2207.1 2062.93,2207.92 C2071.6,2227.71 2090.82,2261.46 2105.46,2267.73 C2139.43,2282.29 2155.18,2275.95 2161.19,2271.49 C2157.36,2261.75 2149.38,2250.75 2146.12,2246.76 C2142.31,2242.1 2143,2235.23 2147.66,2231.42 C2152.32,2227.61 2159.18,2228.29 2163,2232.95 C2164.51,2234.79 2176.12,2249.28 2181.85,2264.43 C2218.47,2268.84 2244.84,2259.59 2257.38,2238.08 C2253.02,2209.99 2235.06,2198.91 2234.3,2198.45 C2229.17,2195.37 2227.43,2188.71 2230.46,2183.55 C2233.49,2178.39 2240.07,2176.61 2245.25,2179.59 C2246.11,2180.08 2261.71,2189.32 2271.76,2210.86 C2275.71,2202.17 2277.23,2192.29 2270.37,2177.19 C2250.94,2134.45 2225.27,2136.94 2225.02,2136.97 L2225.02,2136.97 Z" id="Fill-3" fill="#FFFFFE"></path>
            <path d="M2402.58,1327.44 C2392.59,1327.44 2384.5,1319.34 2384.5,1309.35 C2384.5,1299.36 2392.59,1291.27 2402.58,1291.27 C2412.57,1291.27 2420.66,1299.36 2420.66,1309.35 C2420.66,1319.34 2412.57,1327.44 2402.58,1327.44 Z M2398.7,1221.51 C2408.69,1221.51 2416.79,1229.61 2416.79,1239.6 C2416.79,1249.58 2408.69,1257.68 2398.7,1257.68 C2388.72,1257.68 2380.62,1249.58 2380.62,1239.6 C2380.62,1229.61 2388.72,1221.51 2398.7,1221.51 Z M2330.24,1307.2 C2320.25,1307.2 2312.16,1299.1 2312.16,1289.11 C2312.16,1279.13 2320.25,1271.03 2330.24,1271.03 C2340.23,1271.03 2348.33,1279.13 2348.33,1289.11 C2348.33,1299.1 2340.23,1307.2 2330.24,1307.2 Z M2326.8,1207.3 C2336.78,1207.3 2344.88,1215.4 2344.88,1225.39 C2344.88,1235.38 2336.78,1243.47 2326.8,1243.47 C2316.81,1243.47 2308.71,1235.38 2308.71,1225.39 C2308.71,1215.4 2316.81,1207.3 2326.8,1207.3 Z M2176.09,1395.9 C2176.09,1405.89 2167.99,1413.99 2158,1413.99 C2148.02,1413.99 2139.92,1405.89 2139.92,1395.9 C2139.92,1385.91 2148.02,1377.82 2158,1377.82 C2167.99,1377.82 2176.09,1385.91 2176.09,1395.9 Z M2199.34,1310.64 C2209.33,1310.64 2217.43,1318.74 2217.43,1328.73 C2217.43,1338.72 2209.33,1346.81 2199.34,1346.81 C2189.35,1346.81 2181.26,1338.72 2181.26,1328.73 C2181.26,1318.74 2189.35,1310.64 2199.34,1310.64 Z M2116.67,1289.98 C2116.67,1279.99 2124.77,1271.89 2134.75,1271.89 C2144.74,1271.89 2152.84,1279.99 2152.84,1289.98 C2152.84,1299.96 2144.74,1308.06 2134.75,1308.06 C2124.77,1308.06 2116.67,1299.96 2116.67,1289.98 Z M2101.17,1369.2 C2091.18,1369.2 2083.08,1361.11 2083.08,1351.12 C2083.08,1341.13 2091.18,1333.04 2101.17,1333.04 C2111.16,1333.04 2119.25,1341.13 2119.25,1351.12 C2119.25,1361.11 2111.16,1369.2 2101.17,1369.2 Z M2572.56,1224.51 C2553.55,1204.61 2525.66,1202.46 2514.55,1202.46 C2511.42,1202.46 2509.48,1202.63 2509.23,1202.65 C2502.14,1203.27 2495.06,1203.58 2488.03,1203.58 C2469.81,1203.58 2446.76,1201.52 2422.86,1194.25 C2405.45,1188.95 2387.58,1180.9 2370.79,1168.78 L2368.52,1167.13 C2330.18,1139.44 2299.9,1117.57 2254.7,1117.57 C2229.25,1117.57 2200.28,1124.57 2166.12,1138.98 C2165.21,1139.33 2123.84,1155.13 2094.95,1195.55 C2085.07,1209.38 2076.63,1226.07 2071.79,1246.04 C2048.07,1343.87 2017.45,1360.99 1975.07,1384.68 C1972.07,1386.36 1968.99,1388.08 1965.83,1389.88 C1934.04,1407.95 1913.08,1441.61 1912.45,1475.63 C1911.8,1510.31 1931.8,1542.02 1968.76,1564.89 C1987.81,1576.69 2013.39,1583.45 2038.94,1583.45 C2082.36,1583.45 2162.34,1563.31 2210.16,1428.43 C2219.62,1401.74 2230.79,1385.24 2239.76,1371.97 C2253.71,1351.34 2261.4,1339.97 2252.18,1304.44 L2252.18,1304.43 C2252.18,1304.42 2252.18,1304.41 2252.17,1304.4 C2251.91,1303.39 2251.85,1302.38 2251.87,1301.39 C2244.2,1275.31 2234.01,1250.23 2229.62,1239.83 C2228.55,1239.88 2227.48,1239.94 2226.34,1239.94 C2205.94,1239.94 2160.45,1229.99 2158.19,1200.44 C2158.05,1198.67 2158.13,1196.97 2158.31,1195.3 C2161.28,1167.43 2205.3,1152.16 2210.61,1150.43 C2210.83,1150.36 2211.06,1150.29 2211.29,1150.23 C2222.46,1147.37 2230.58,1146.09 2237.62,1146.09 C2253.81,1146.09 2265.06,1153.17 2271.05,1167.14 C2274.97,1176.26 2273.86,1186.56 2271.67,1194.85 C2270.66,1198.68 2269.44,1202.13 2268.34,1204.76 C2264.46,1214.05 2257.54,1225.5 2249,1232.59 C2253.75,1243.85 2263.85,1268.86 2271.68,1295.47 C2272.37,1296.48 2272.94,1297.6 2273.26,1298.86 C2273.74,1300.67 2285.33,1342.79 2330.72,1346.28 C2364.7,1348.89 2389.04,1365.53 2412.59,1381.62 C2438.06,1399.02 2461.89,1415.34 2496.88,1412.59 C2497.2,1412.56 2497.53,1412.56 2497.83,1412.56 C2501.45,1412.56 2587.55,1411.22 2592.85,1294.65 C2594.26,1263.66 2587.43,1240.06 2572.56,1224.51 L2572.56,1224.51 Z" id="Fill-4" fill="#B3B5B2"></path>
            <path d="M2370.59,1494.9 C2414.19,1484.47 2448.93,1476.04 2463.05,1431.66 C2438.66,1425.85 2419.23,1412.57 2400.28,1399.62 C2378.13,1384.48 2357.21,1370.19 2329.05,1368.02 C2305.32,1366.19 2288.49,1356.44 2276.76,1345.09 C2273.88,1360.44 2266.35,1371.57 2257.82,1384.19 C2249.11,1397.06 2239.25,1411.65 2230.71,1435.71 C2203.14,1513.48 2165.02,1556.35 2127.92,1579.52 C2151.12,1589.51 2197.02,1592.79 2273.24,1534.5 C2304.28,1510.76 2339.52,1502.34 2370.59,1494.9" id="Fill-5" fill="#FFFFFE"></path>
            <path d="M2220.36,777.954 C2234.45,779.233 2247.82,781.27 2260.61,783.849 C2248.73,740.578 2223.26,633.557 2248.66,590.115 C2254.84,579.556 2263.53,572.982 2274.51,570.575 C2325.58,559.372 2342.87,610.129 2358.12,654.897 C2366.9,680.661 2375.98,707.3 2390.54,726.124 C2411.01,752.598 2458.97,814.598 2426.14,869.303 C2426.02,869.496 2425.85,869.633 2425.73,869.817 C2435.67,879.453 2444.2,888.944 2451.44,897.804 C2482.26,873.356 2470.6,810.357 2458.19,775.646 C2450.61,754.421 2439.42,738.498 2426.45,720.063 C2407.09,692.519 2385.13,661.302 2370.08,604.244 C2359.56,564.408 2332.16,533.428 2300.27,525.323 C2276.86,519.368 2254.08,526.59 2236.13,545.645 C2212.42,570.796 2202.32,619.658 2206.91,686.943 C2209.68,727.456 2217.08,763.471 2220.36,777.954" id="Fill-6" fill="#FFFFFE"></path>
            <path d="M2541.26,1907.17 C2525.21,1933.36 2495.86,1935.47 2494.51,1935.55 C2494.29,1935.56 2494.07,1935.57 2493.86,1935.57 C2488.13,1935.57 2483.33,1931.1 2482.98,1925.31 C2482.63,1919.32 2487.19,1914.17 2493.16,1913.79 C2494.25,1913.7 2514.71,1911.85 2524.27,1892.91 C2524.04,1876.52 2522.61,1784.05 2518.47,1713.81 C2518.07,1714.59 2517.7,1715.4 2517.29,1716.18 C2487.6,1772.5 2448.44,1821.41 2403.17,1860.58 C2403.71,1865.51 2407.36,1896.95 2416.57,1932.25 C2426.58,1970.61 2435.89,1991.03 2448.69,2002.73 C2449.06,2003.08 2449.41,2003.44 2449.74,2003.84 C2460.77,2017.19 2477.91,2020.08 2487.14,2020.61 C2493.55,2020.99 2499.07,2020.43 2503.29,2019.54 C2500.12,2007.65 2491.24,1999.82 2491.14,1999.74 C2486.58,1995.84 2486,1988.98 2489.87,1984.4 C2493.74,1979.81 2500.55,1979.2 2505.15,1983.03 C2505.73,1983.51 2517.71,1993.67 2523.35,2010.36 C2525.91,2010.57 2536.53,2011.17 2547.46,2007.71 C2561.9,2003.13 2570.48,1993.64 2573.79,1978.89 C2569.57,1968.58 2560.07,1963.91 2559.96,1963.87 C2554.55,1961.33 2552.13,1954.88 2554.61,1949.44 C2557.09,1944 2563.45,1941.56 2568.91,1943.98 C2569.48,1944.23 2578.81,1948.49 2586.7,1958.2 C2590.17,1950.1 2590.83,1938.17 2578.83,1923.35 C2571.21,1913.93 2552.7,1909.09 2541.26,1907.17" id="Fill-7" fill="#FFFFFE"></path>
            <path d="M1570.42,892.806 C1573.57,886.785 1585.43,869.297 1616.76,869.297 C1623.09,869.297 1629.95,870.027 1637.14,871.469 C1686.41,881.349 1744.72,931.604 1771.89,1001.99 C1773.61,1006.45 1775.22,1010.98 1776.68,1015.6 C1778.29,1020.71 1779.73,1025.91 1781,1031.2 C1782.57,1037.72 1783.89,1044.35 1784.89,1051.12 C1784.98,1051.69 1785.01,1052.27 1785.01,1052.84 C1784.65,1081.21 1771.23,1095.79 1761.43,1106.44 C1760.26,1107.71 1759.22,1108.85 1758.26,1109.94 C1754.31,1114.41 1752.1,1117.59 1752.06,1120.98 C1751.94,1132.16 1749.95,1146.79 1744.75,1159.83 C1742.23,1166.14 1738.91,1172.01 1734.74,1177 C1727.82,1185.29 1718.46,1191.03 1705.87,1191.5 C1704.89,1191.54 1703.92,1191.56 1702.98,1191.56 C1658.75,1191.56 1648.28,1154.44 1636.15,1111.47 C1632,1096.76 1627.3,1080.1 1620.88,1063.45 C1612.29,1041.18 1601.01,1020.85 1590.09,1001.19 C1566.83,959.289 1546.71,923.044 1570.42,892.806 Z M1895.26,1156.38 C1903.03,1150.56 1911.38,1147.6 1920.1,1147.6 C1948.67,1147.6 1971.04,1179.53 1980.7,1196 C1983.3,1200.45 1985.04,1203.83 1985.65,1205.08 C1993.04,1219.37 1991.38,1238.1 1981.11,1254.98 C1969.55,1273.97 1950.22,1286.25 1931.87,1286.25 L1930.81,1286.24 C1908.74,1285.68 1889.76,1257.52 1881.48,1231.58 C1877.46,1219 1875.76,1207.11 1876.26,1196.41 C1877.05,1179.27 1883.5,1165.2 1895.26,1156.38 Z M2079.54,1093.39 C2081.12,1091.92 2118.97,1057.4 2188.64,1046.68 C2194.53,1045.73 2200.15,1049.85 2201.07,1055.8 C2201.99,1061.75 2197.9,1067.32 2191.95,1068.23 C2128.83,1077.95 2094.71,1109.05 2094.37,1109.37 C2092.27,1111.32 2089.61,1112.28 2086.96,1112.28 C2084.03,1112.28 2081.12,1111.11 2078.97,1108.8 C2074.87,1104.38 2075.13,1097.49 2079.54,1093.39 Z M2391.51,981.414 C2394.35,980.663 2397.27,980.283 2400.17,980.283 C2424.11,980.283 2442.96,1005.4 2452.62,1028.9 C2461.48,1050.45 2466.63,1080.76 2451.99,1095.25 C2443.64,1103.51 2431.67,1107.87 2417.38,1107.87 C2394.59,1107.87 2366.74,1095.95 2361.49,1076.69 C2353.71,1046.18 2351.35,992.016 2391.51,981.414 Z M1603.52,1114.05 C1618.28,1164.99 1629.94,1205.23 1671.1,1227.89 C1692.21,1239.51 1729.69,1235.83 1754.65,1219.68 C1754.81,1219.57 1754.99,1219.52 1755.15,1219.42 C1755.05,1214.58 1755.1,1209.69 1755.29,1204.75 C1755.35,1203.4 1755.34,1202.06 1755.42,1200.7 C1755.5,1199.34 1755.85,1198.06 1756.4,1196.89 C1756.89,1195.82 1757.58,1194.88 1758.39,1194.06 C1760.4,1191.99 1763.22,1190.75 1766.31,1190.96 C1767.64,1191.03 1768.88,1191.37 1770.02,1191.89 C1772.22,1192.9 1773.96,1194.65 1775.01,1196.81 C1775.74,1198.34 1776.15,1200.04 1776.05,1201.85 C1775.69,1208.34 1775.65,1214.69 1775.81,1220.96 C1777.19,1272.02 1796.11,1315.8 1833.44,1354.26 C1845.33,1366.52 1856.8,1383.62 1867.92,1400.87 C1869.49,1403.31 1871.05,1405.75 1872.6,1408.18 C1880.91,1421.14 1888.88,1433.52 1896.1,1442.67 C1905.46,1413.24 1926.36,1387.23 1955.05,1370.92 C1958.26,1369.1 1961.38,1367.35 1964.43,1365.65 C2004.78,1343.09 2029.13,1329.48 2050.6,1240.9 C2054.76,1223.74 2061.14,1208.73 2068.75,1195.65 C2100.95,1140.26 2155.31,1119.73 2158.13,1118.7 C2194.53,1103.33 2226.28,1095.76 2254.7,1095.76 C2306.95,1095.76 2341.4,1120.65 2381.28,1149.46 L2383.56,1151.1 C2418.67,1176.45 2459.75,1181.77 2488.03,1181.77 C2494.44,1181.77 2500.88,1181.49 2507.21,1180.94 C2507.34,1180.93 2510.1,1180.66 2514.55,1180.66 C2519.29,1180.66 2526.51,1181.01 2534.91,1182.46 C2531.27,1172.5 2525.79,1155.45 2519.84,1129.66 L2519.19,1126.82 C2492.93,1012.27 2467.5,958.459 2450.79,933.483 C2415.43,880.639 2309.06,762.68 2085.71,808.492 C1947.14,836.917 1861.36,919.587 1818.98,972.691 C1822.88,979.779 1826.41,986.798 1829.51,993.674 C1831.99,999.16 1829.55,1005.62 1824.06,1008.1 C1821.71,1009.16 1819.2,1009.27 1816.88,1008.67 C1813.79,1007.88 1811.06,1005.78 1809.64,1002.64 C1808,999.021 1806.2,995.514 1804.44,991.979 C1802.61,988.294 1800.72,984.659 1798.76,981.073 C1796.86,977.599 1794.98,974.107 1792.97,970.73 C1749.92,898.336 1682.85,848.455 1635.15,836.345 C1604.13,828.474 1576.69,833.364 1553.6,850.894 C1505.51,887.406 1527.84,950.186 1546.36,978.284 C1578.15,1026.51 1591.63,1073.02 1603.52,1114.05 L1603.52,1114.05 Z" id="Fill-8" fill="#FFFFFE"></path>
            <path d="M2390.54,726.123 C2375.98,707.299 2366.9,680.66 2358.12,654.897 C2342.87,610.129 2325.58,559.371 2274.51,570.575 C2263.53,572.981 2254.84,579.556 2248.66,590.115 C2223.26,633.557 2248.73,740.577 2260.61,783.849 C2268.96,785.531 2277.09,787.416 2284.91,789.577 C2337.85,804.211 2378.65,829.08 2409.12,854.806 C2415.03,859.802 2420.58,864.828 2425.73,869.816 C2425.85,869.632 2426.02,869.497 2426.14,869.302 C2458.97,814.598 2411.01,752.597 2390.54,726.123" id="Fill-9" fill="#CCBBB5"></path>
            <path d="M1781,1031.2 C1779.73,1025.92 1778.29,1020.71 1776.68,1015.6 C1775.22,1010.98 1773.61,1006.45 1771.89,1001.99 C1744.72,931.604 1686.41,881.349 1637.14,871.469 C1629.95,870.026 1623.09,869.297 1616.76,869.297 C1585.43,869.297 1573.57,886.785 1570.42,892.806 C1546.71,923.043 1566.83,959.289 1590.09,1001.18 C1601.01,1020.85 1612.29,1041.18 1620.88,1063.45 C1627.3,1080.1 1632,1096.76 1636.15,1111.46 C1648.28,1154.44 1658.75,1191.56 1702.98,1191.56 C1703.92,1191.56 1704.89,1191.54 1705.87,1191.5 C1718.46,1191.03 1727.82,1185.29 1734.74,1177 C1738.91,1172.01 1742.23,1166.13 1744.75,1159.83 C1749.95,1146.79 1751.94,1132.15 1752.06,1120.98 C1752.1,1117.59 1754.31,1114.41 1758.26,1109.94 C1759.22,1108.85 1760.26,1107.71 1761.43,1106.44 C1771.23,1095.79 1784.65,1081.21 1785.01,1052.84 C1785.01,1052.27 1784.98,1051.69 1784.89,1051.12 C1783.89,1044.35 1782.57,1037.72 1781,1031.2" id="Fill-10" fill="#CCBBB5"></path>
            <path d="M1922.08,1198.03 C1926.69,1207.69 1935.9,1212.91 1942.66,1209.69 C1947.13,1207.56 1949.35,1202.26 1949.06,1196.12 C1948.9,1192.98 1948.13,1189.64 1946.57,1186.36 C1946.34,1185.89 1946.05,1185.47 1945.8,1185.01 C1942.8,1179.53 1938.34,1175.68 1933.81,1174.33 C1931.1,1173.53 1928.39,1173.56 1925.99,1174.71 C1919.64,1177.73 1917.79,1187.11 1921.37,1196.23 C1921.61,1196.83 1921.8,1197.44 1922.08,1198.03" id="Fill-11" fill="#FFFFFE"></path>
            <path d="M2420.61,1037.27 C2424.39,1036.14 2427.07,1032.79 2428.34,1028.39 C2429.49,1024.45 2429.51,1019.68 2428.06,1014.83 C2425,1004.57 2416.7,997.995 2409.53,1000.14 C2407.77,1000.66 2406.24,1001.67 2404.98,1003.04 C2401.1,1007.23 2399.76,1014.84 2402.07,1022.58 C2405.13,1032.84 2413.43,1039.41 2420.61,1037.27" id="Fill-12" fill="#FFFFFE"></path>
            <path d="M2250,1166.67 C2248.47,1161.58 2240.58,1159.45 2232.38,1161.91 C2226.92,1163.55 2222.75,1166.82 2221,1170.33 C2220.12,1172.08 2219.8,1173.89 2220.31,1175.59 C2221.84,1180.69 2229.73,1182.82 2237.93,1180.36 C2243.18,1178.78 2247.26,1175.69 2249.13,1172.34 C2250.18,1170.46 2250.55,1168.5 2250,1166.67" id="Fill-13" fill="#FFFFFE"></path>
            <path d="M1945.8,1185.01 C1946.05,1185.47 1946.34,1185.89 1946.57,1186.36 C1948.13,1189.64 1948.9,1192.98 1949.06,1196.12 C1949.35,1202.26 1947.13,1207.56 1942.66,1209.69 C1935.9,1212.91 1926.69,1207.69 1922.08,1198.03 C1921.8,1197.44 1921.61,1196.83 1921.37,1196.23 C1917.79,1187.11 1919.64,1177.73 1925.99,1174.71 C1928.39,1173.56 1931.1,1173.53 1933.81,1174.33 C1938.34,1175.68 1942.8,1179.53 1945.8,1185.01 Z M1931.87,1286.25 C1950.22,1286.25 1969.55,1273.97 1981.11,1254.98 C1991.38,1238.1 1993.04,1219.37 1985.65,1205.08 C1985.04,1203.83 1983.3,1200.45 1980.7,1196 C1971.04,1179.53 1948.67,1147.6 1920.1,1147.6 C1911.38,1147.6 1903.03,1150.56 1895.26,1156.38 C1883.5,1165.2 1877.05,1179.27 1876.26,1196.41 C1875.76,1207.11 1877.46,1219 1881.48,1231.58 C1889.76,1257.52 1908.74,1285.68 1930.81,1286.24 L1931.87,1286.25 L1931.87,1286.25 Z" id="Fill-14" fill="#1B1A19"></path>
            <path d="M2409.53,1000.14 C2416.7,997.995 2425,1004.57 2428.06,1014.83 C2429.51,1019.68 2429.49,1024.45 2428.34,1028.39 C2427.07,1032.79 2424.39,1036.14 2420.61,1037.27 C2413.43,1039.41 2405.13,1032.84 2402.07,1022.58 C2399.76,1014.84 2401.1,1007.23 2404.98,1003.04 C2406.24,1001.67 2407.77,1000.66 2409.53,1000.14 Z M2417.38,1107.87 C2431.67,1107.87 2443.64,1103.51 2451.99,1095.25 C2466.63,1080.76 2461.48,1050.45 2452.62,1028.9 C2442.96,1005.4 2424.11,980.283 2400.17,980.283 C2397.27,980.283 2394.35,980.663 2391.51,981.414 C2351.35,992.016 2353.71,1046.18 2361.49,1076.69 C2366.74,1095.95 2394.59,1107.87 2417.38,1107.87 L2417.38,1107.87 Z" id="Fill-15" fill="#1B1A19"></path>
            <path d="M2152.84,1289.98 C2152.84,1279.99 2144.74,1271.89 2134.75,1271.89 C2124.77,1271.89 2116.67,1279.99 2116.67,1289.98 C2116.67,1299.96 2124.77,1308.06 2134.75,1308.06 C2144.74,1308.06 2152.84,1299.96 2152.84,1289.98" id="Fill-16" fill="#1B1A19"></path>
            <path d="M2326.8,1243.47 C2336.78,1243.47 2344.88,1235.38 2344.88,1225.39 C2344.88,1215.4 2336.78,1207.3 2326.8,1207.3 C2316.81,1207.3 2308.71,1215.4 2308.71,1225.39 C2308.71,1235.38 2316.81,1243.47 2326.8,1243.47" id="Fill-17" fill="#1B1A19"></path>
            <path d="M2398.7,1257.68 C2408.69,1257.68 2416.79,1249.58 2416.79,1239.6 C2416.79,1229.61 2408.69,1221.51 2398.7,1221.51 C2388.72,1221.51 2380.62,1229.61 2380.62,1239.6 C2380.62,1249.58 2388.72,1257.68 2398.7,1257.68" id="Fill-18" fill="#1B1A19"></path>
            <path d="M2330.24,1271.03 C2320.25,1271.03 2312.16,1279.13 2312.16,1289.11 C2312.16,1299.1 2320.25,1307.2 2330.24,1307.2 C2340.23,1307.2 2348.33,1299.1 2348.33,1289.11 C2348.33,1279.13 2340.23,1271.03 2330.24,1271.03" id="Fill-19" fill="#1B1A19"></path>
            <path d="M2402.58,1291.27 C2392.59,1291.27 2384.5,1299.36 2384.5,1309.35 C2384.5,1319.34 2392.59,1327.44 2402.58,1327.44 C2412.57,1327.44 2420.66,1319.34 2420.66,1309.35 C2420.66,1299.36 2412.57,1291.27 2402.58,1291.27" id="Fill-20" fill="#1B1A19"></path>
            <path d="M2199.34,1346.81 C2209.33,1346.81 2217.43,1338.72 2217.43,1328.73 C2217.43,1318.74 2209.33,1310.64 2199.34,1310.64 C2189.35,1310.64 2181.26,1318.74 2181.26,1328.73 C2181.26,1338.72 2189.35,1346.81 2199.34,1346.81" id="Fill-21" fill="#1B1A19"></path>
            <path d="M2101.17,1333.04 C2091.18,1333.04 2083.08,1341.13 2083.08,1351.12 C2083.08,1361.11 2091.18,1369.2 2101.17,1369.2 C2111.16,1369.2 2119.25,1361.11 2119.25,1351.12 C2119.25,1341.13 2111.16,1333.04 2101.17,1333.04" id="Fill-22" fill="#1B1A19"></path>
            <path d="M2139.92,1395.9 C2139.92,1405.89 2148.02,1413.99 2158,1413.99 C2167.99,1413.99 2176.09,1405.89 2176.09,1395.9 C2176.09,1385.91 2167.99,1377.82 2158,1377.82 C2148.02,1377.82 2139.92,1385.91 2139.92,1395.9" id="Fill-23" fill="#1B1A19"></path>
            <path d="M2148.18,2156.62 C2142.05,2156.47 2137.08,2160.97 2136.78,2166.97 C2136.48,2172.98 2141.11,2178.1 2147.13,2178.4 C2147.31,2178.41 2147.96,2178.44 2149.01,2178.44 C2157.32,2178.44 2190.28,2176.66 2208.41,2149.45 C2211.75,2144.44 2210.4,2137.67 2205.39,2134.33 C2200.38,2130.99 2193.61,2132.35 2190.27,2137.36 C2176.82,2157.53 2148.61,2156.61 2148.18,2156.62" id="Fill-24" fill="#1B1A19"></path>
            <path d="M2249.13,1172.34 C2247.26,1175.69 2243.18,1178.78 2237.93,1180.36 C2229.73,1182.82 2221.84,1180.69 2220.31,1175.59 C2219.8,1173.89 2220.12,1172.08 2221,1170.33 C2222.75,1166.82 2226.92,1163.55 2232.38,1161.91 C2240.58,1159.45 2248.47,1161.58 2250,1166.67 C2250.55,1168.5 2250.18,1170.46 2249.13,1172.34 Z M2497.83,1412.56 C2497.53,1412.56 2497.2,1412.56 2496.88,1412.59 C2461.89,1415.34 2438.06,1399.02 2412.59,1381.62 C2389.04,1365.53 2364.7,1348.89 2330.72,1346.28 C2285.33,1342.79 2273.74,1300.67 2273.26,1298.86 C2272.94,1297.6 2272.37,1296.48 2271.68,1295.47 C2263.85,1268.86 2253.75,1243.85 2249,1232.59 C2257.54,1225.5 2264.46,1214.05 2268.34,1204.76 C2269.44,1202.13 2270.66,1198.68 2271.67,1194.85 C2273.86,1186.56 2274.97,1176.26 2271.05,1167.14 C2265.06,1153.17 2253.81,1146.09 2237.62,1146.09 C2230.58,1146.09 2222.46,1147.37 2211.29,1150.23 C2211.06,1150.29 2210.83,1150.36 2210.61,1150.43 C2205.3,1152.16 2161.28,1167.43 2158.31,1195.3 C2158.13,1196.97 2158.05,1198.67 2158.19,1200.44 C2160.45,1229.99 2205.94,1239.94 2226.34,1239.94 C2227.48,1239.94 2228.55,1239.88 2229.62,1239.83 C2234.01,1250.23 2244.2,1275.31 2251.87,1301.39 C2251.85,1302.38 2251.91,1303.39 2252.17,1304.4 C2252.18,1304.41 2252.18,1304.42 2252.18,1304.43 L2252.18,1304.44 C2261.4,1339.97 2253.71,1351.34 2239.76,1371.97 C2230.79,1385.24 2219.62,1401.74 2210.16,1428.43 C2162.34,1563.31 2082.36,1583.45 2038.94,1583.45 C2013.39,1583.45 1987.81,1576.69 1968.76,1564.89 C1931.8,1542.02 1911.8,1510.31 1912.45,1475.63 C1913.08,1441.61 1934.04,1407.95 1965.83,1389.88 C1968.99,1388.08 1972.07,1386.36 1975.07,1384.68 C2017.45,1360.99 2048.07,1343.87 2071.79,1246.04 C2076.63,1226.07 2085.07,1209.38 2094.95,1195.55 C2123.84,1155.13 2165.21,1139.33 2166.12,1138.98 C2200.28,1124.57 2229.25,1117.57 2254.7,1117.57 C2299.9,1117.57 2330.18,1139.44 2368.52,1167.13 L2370.79,1168.78 C2387.58,1180.9 2405.45,1188.95 2422.86,1194.25 C2446.76,1201.52 2469.81,1203.58 2488.03,1203.58 C2495.06,1203.58 2502.14,1203.27 2509.23,1202.65 C2509.48,1202.63 2511.42,1202.46 2514.55,1202.46 C2525.66,1202.46 2553.55,1204.61 2572.56,1224.51 C2587.43,1240.06 2594.26,1263.66 2592.85,1294.65 C2587.55,1411.22 2501.45,1412.56 2497.83,1412.56 Z M2257.82,1384.19 C2266.35,1371.57 2273.88,1360.44 2276.76,1345.09 C2288.49,1356.44 2305.32,1366.19 2329.05,1368.02 C2357.21,1370.19 2378.13,1384.48 2400.28,1399.62 C2419.23,1412.57 2438.66,1425.85 2463.05,1431.66 C2448.93,1476.04 2414.19,1484.47 2370.59,1494.9 C2339.52,1502.34 2304.28,1510.76 2273.24,1534.5 C2197.02,1592.79 2151.12,1589.51 2127.92,1579.52 C2165.02,1556.35 2203.14,1513.48 2230.71,1435.71 C2239.25,1411.65 2249.11,1397.06 2257.82,1384.19 Z M2498,1706.01 C2427.93,1838.97 2303.13,1928.62 2171.54,1940.95 C2170.47,1933.13 2170.08,1926.76 2170.56,1922.44 C2178.37,1852.62 2173.35,1810.95 2173.13,1809.2 C2172.38,1803.23 2166.92,1799.06 2160.97,1799.74 C2155,1800.48 2150.75,1805.93 2151.49,1811.9 C2151.54,1812.3 2156.38,1853.03 2148.9,1920.01 C2144.42,1960.05 2188.03,2093.49 2214.44,2132.31 C2216.78,2135.76 2220.84,2137.57 2225.02,2136.97 C2225.27,2136.94 2250.94,2134.45 2270.37,2177.19 C2277.23,2192.29 2275.71,2202.17 2271.76,2210.86 C2261.71,2189.32 2246.11,2180.08 2245.25,2179.59 C2240.07,2176.61 2233.49,2178.39 2230.46,2183.55 C2227.43,2188.71 2229.17,2195.37 2234.3,2198.45 C2235.06,2198.91 2253.02,2209.99 2257.38,2238.08 C2244.84,2259.59 2218.47,2268.84 2181.85,2264.43 C2176.12,2249.28 2164.51,2234.79 2163,2232.95 C2159.18,2228.29 2152.32,2227.61 2147.66,2231.42 C2143,2235.23 2142.31,2242.1 2146.12,2246.76 C2149.38,2250.75 2157.36,2261.75 2161.19,2271.49 C2155.18,2275.95 2139.43,2282.29 2105.46,2267.73 C2090.82,2261.46 2071.6,2227.71 2062.93,2207.92 C2062.56,2207.1 2062.1,2206.31 2061.55,2205.61 C2060.35,2204.07 1942.11,2050.65 1906.87,1884.51 C1905.62,1878.62 1899.83,1874.83 1893.94,1876.11 C1888.05,1877.36 1884.29,1883.15 1885.54,1889.04 C1890.28,1911.37 1896.43,1933.36 1903.51,1954.78 C1885.88,1952.31 1856.57,1948.45 1836.52,1947.03 C1838.74,1936.96 1839.35,1925.73 1838.17,1913.3 C1828.83,1815.26 1701.14,1756.97 1695.71,1754.54 C1690.22,1752.08 1683.76,1754.53 1681.3,1760.03 C1678.84,1765.53 1681.3,1771.98 1686.79,1774.44 C1688,1774.98 1808.31,1829.83 1816.46,1915.36 C1818.44,1936.18 1814.71,1952.26 1805.37,1963.14 C1793.32,1977.17 1775.27,1978.35 1775.16,1978.36 C1769.15,1978.63 1764.48,1983.72 1764.75,1989.73 C1765.01,1995.58 1769.83,2000.15 1775.63,2000.15 C1775.8,2000.15 1775.96,2000.15 1776.12,2000.14 C1776.84,2000.11 1788.31,1999.47 1801.28,1993.13 C1809.71,1998.67 1831.46,2015.03 1835.52,2038.47 C1838.44,2055.37 1834.48,2064.63 1829.61,2069.74 C1827.48,2057.85 1824.08,2047.57 1823.88,2046.95 C1821.97,2041.24 1815.8,2038.16 1810.09,2040.05 C1804.38,2041.96 1801.29,2048.13 1803.19,2053.84 C1803.25,2054.03 1809.26,2072.32 1809.5,2085.76 C1809.15,2086.96 1807.35,2091.27 1799.18,2094.51 C1792.35,2097.23 1783.98,2096.99 1776.85,2095.62 C1776.59,2089.32 1774.9,2081 1769.38,2072.18 C1766.19,2067.07 1759.47,2065.52 1754.36,2068.71 C1749.26,2071.9 1747.7,2078.62 1750.9,2083.73 C1753.73,2088.27 1754.73,2092.46 1755,2095.58 C1744.49,2098.16 1722.9,2100.68 1706.81,2084.13 C1682.89,2059.53 1667.45,2032.86 1653.39,2001.52 C1676.28,2006.64 1697.98,2008.04 1714.81,2008.04 C1734.51,2008.04 1747.56,2006.13 1748.04,2006.06 C1753.99,2005.13 1758.05,1999.56 1757.13,1993.61 C1756.21,1987.67 1750.67,1983.6 1744.69,1984.51 C1744.28,1984.58 1702.78,1990.76 1657.28,1980.44 C1598.06,1966.98 1559.98,1932.98 1544.1,1879.37 C1518.09,1791.51 1525.6,1579.59 1615.93,1496.95 C1649.23,1466.49 1672.82,1447.46 1691.77,1432.17 C1705.96,1420.72 1717.76,1411.18 1729.21,1400.45 C1728.55,1413.95 1728.93,1428.85 1730.79,1445.35 C1731.42,1450.92 1736.14,1455.03 1741.61,1455.03 C1742.02,1455.03 1742.43,1455.01 1742.85,1454.96 C1748.83,1454.28 1753.13,1448.89 1752.46,1442.91 C1744.06,1368.49 1767.33,1330.72 1779.94,1316.14 C1789.89,1334.76 1802.74,1352.3 1818.6,1368.65 C1830.73,1381.15 1843.17,1400.56 1855.2,1419.33 C1867.8,1438.98 1879.71,1457.52 1891.06,1467.72 C1890.84,1470.21 1890.7,1472.71 1890.65,1475.22 C1889.86,1517.91 1913.52,1556.34 1957.28,1583.44 C1979.69,1597.3 2009.45,1605.26 2038.94,1605.26 C2056.79,1605.26 2080.07,1602.31 2104.97,1591.56 C2115.07,1598.63 2132.25,1606.94 2157.38,1606.94 C2188.16,1606.94 2230.75,1594.44 2286.48,1551.83 C2313.86,1530.89 2345.28,1523.38 2375.67,1516.11 C2421.09,1505.24 2467.96,1493.89 2484.92,1434.58 C2486.32,1434.63 2487.7,1434.7 2489.13,1434.7 C2492.11,1434.7 2495.16,1434.59 2498.2,1434.36 C2500.38,1434.33 2508.73,1434 2520.02,1431.29 C2531.35,1498.85 2542.74,1621.12 2498,1706.01 Z M2524.27,1892.91 C2514.71,1911.85 2494.25,1913.7 2493.16,1913.79 C2487.19,1914.17 2482.63,1919.32 2482.98,1925.31 C2483.33,1931.1 2488.13,1935.57 2493.86,1935.57 C2494.07,1935.57 2494.29,1935.56 2494.51,1935.55 C2495.86,1935.47 2525.21,1933.36 2541.26,1907.17 C2552.7,1909.09 2571.21,1913.93 2578.83,1923.35 C2590.83,1938.17 2590.17,1950.1 2586.7,1958.2 C2578.81,1948.49 2569.48,1944.23 2568.91,1943.98 C2563.45,1941.56 2557.09,1944 2554.61,1949.44 C2552.13,1954.88 2554.55,1961.33 2559.96,1963.87 C2560.07,1963.91 2569.57,1968.58 2573.79,1978.89 C2570.48,1993.64 2561.9,2003.13 2547.46,2007.71 C2536.53,2011.17 2525.91,2010.57 2523.35,2010.36 C2517.71,1993.67 2505.73,1983.51 2505.15,1983.03 C2500.55,1979.2 2493.74,1979.81 2489.87,1984.4 C2486,1988.98 2486.58,1995.84 2491.14,1999.74 C2491.24,1999.82 2500.12,2007.65 2503.29,2019.54 C2499.07,2020.43 2493.55,2020.99 2487.14,2020.61 C2477.91,2020.08 2460.77,2017.19 2449.74,2003.84 C2449.41,2003.44 2449.06,2003.08 2448.69,2002.73 C2435.89,1991.03 2426.58,1970.61 2416.57,1932.25 C2407.36,1896.95 2403.71,1865.51 2403.17,1860.58 C2448.44,1821.41 2487.6,1772.5 2517.29,1716.18 C2517.7,1715.4 2518.07,1714.59 2518.47,1713.81 C2522.61,1784.05 2524.04,1876.52 2524.27,1892.91 Z M2206.91,686.943 C2202.32,619.658 2212.42,570.796 2236.13,545.645 C2254.08,526.59 2276.86,519.368 2300.27,525.323 C2332.16,533.428 2359.56,564.408 2370.08,604.244 C2385.13,661.302 2407.09,692.519 2426.45,720.063 C2439.42,738.498 2450.61,754.421 2458.19,775.646 C2470.6,810.357 2482.26,873.356 2451.44,897.804 C2444.2,888.944 2435.67,879.453 2425.73,869.817 C2420.58,864.827 2415.03,859.803 2409.12,854.807 C2378.65,829.08 2337.85,804.211 2284.91,789.577 C2277.09,787.417 2268.96,785.532 2260.61,783.849 C2247.82,781.27 2234.45,779.233 2220.36,777.954 C2217.08,763.471 2209.68,727.456 2206.91,686.943 Z M1896.1,1442.67 C1888.88,1433.52 1880.91,1421.14 1872.6,1408.18 C1871.05,1405.75 1869.49,1403.31 1867.92,1400.87 C1856.8,1383.62 1845.33,1366.52 1833.44,1354.26 C1796.11,1315.8 1777.19,1272.02 1775.81,1220.96 C1775.65,1214.69 1775.69,1208.34 1776.05,1201.85 C1776.15,1200.04 1775.74,1198.34 1775.01,1196.81 C1773.96,1194.65 1772.22,1192.9 1770.02,1191.89 C1768.88,1191.37 1767.64,1191.03 1766.31,1190.96 C1763.22,1190.75 1760.4,1191.99 1758.39,1194.06 C1757.58,1194.88 1756.89,1195.82 1756.4,1196.89 C1755.85,1198.06 1755.5,1199.34 1755.42,1200.7 C1755.34,1202.06 1755.35,1203.4 1755.29,1204.75 C1755.1,1209.69 1755.05,1214.58 1755.15,1219.42 C1754.99,1219.52 1754.81,1219.57 1754.65,1219.68 C1729.69,1235.83 1692.21,1239.51 1671.1,1227.89 C1629.94,1205.23 1618.28,1164.99 1603.52,1114.05 C1591.63,1073.02 1578.15,1026.51 1546.36,978.284 C1527.84,950.186 1505.51,887.406 1553.6,850.894 C1576.69,833.364 1604.13,828.474 1635.15,836.345 C1682.85,848.455 1749.92,898.336 1792.97,970.73 C1794.98,974.107 1796.86,977.599 1798.76,981.073 C1800.72,984.659 1802.61,988.294 1804.44,991.979 C1806.2,995.514 1808,999.021 1809.64,1002.64 C1811.06,1005.78 1813.79,1007.88 1816.88,1008.67 C1819.2,1009.27 1821.71,1009.16 1824.06,1008.1 C1829.55,1005.62 1831.99,999.16 1829.51,993.674 C1826.41,986.798 1822.88,979.779 1818.98,972.691 C1861.36,919.587 1947.14,836.917 2085.71,808.492 C2309.06,762.68 2415.43,880.639 2450.79,933.483 C2467.5,958.459 2492.93,1012.27 2519.19,1126.82 L2519.84,1129.66 C2525.79,1155.45 2531.27,1172.5 2534.91,1182.46 C2526.51,1181.01 2519.29,1180.66 2514.55,1180.66 C2510.1,1180.66 2507.34,1180.93 2507.21,1180.94 C2500.88,1181.49 2494.44,1181.77 2488.03,1181.77 C2459.75,1181.77 2418.67,1176.45 2383.56,1151.1 L2381.28,1149.46 C2341.4,1120.65 2306.95,1095.76 2254.7,1095.76 C2226.28,1095.76 2194.53,1103.33 2158.13,1118.7 C2155.31,1119.73 2100.95,1140.26 2068.75,1195.65 C2061.14,1208.73 2054.76,1223.74 2050.6,1240.9 C2029.13,1329.48 2004.78,1343.09 1964.43,1365.65 C1961.38,1367.35 1958.26,1369.1 1955.05,1370.92 C1926.36,1387.23 1905.46,1413.24 1896.1,1442.67 Z M2614.63,1295.64 C2616.32,1258.47 2607.47,1229.47 2588.33,1209.44 C2580.21,1200.94 2571,1194.96 2561.79,1190.71 C2561.67,1190.27 2561.56,1189.83 2561.37,1189.4 L2559.2,1184.42 C2559.12,1184.25 2550.82,1166.94 2541.09,1124.76 L2540.44,1121.94 C2513.45,1004.17 2486.64,947.857 2468.91,921.356 C2467.59,919.389 2466.16,917.32 2464.66,915.194 C2502.88,885.346 2496.66,818.482 2478.73,768.31 C2470.15,744.298 2457.59,726.435 2444.29,707.521 C2425.98,681.475 2405.22,651.956 2391.16,598.681 C2378.47,550.577 2345.7,514.369 2305.64,504.188 C2274.66,496.323 2243.55,505.977 2220.26,530.691 C2163.31,591.118 2188.06,732.033 2197.69,776.588 C2162.72,775.377 2124.05,778.367 2081.32,787.134 C1941.77,815.76 1853.25,897.01 1807.12,952.748 C1768.46,892.241 1705.26,831.647 1640.51,815.208 C1603.25,805.748 1568.64,812.088 1540.41,833.529 C1514.2,853.428 1501.3,882.002 1503.08,916.155 C1504.36,940.699 1513.74,968.411 1528.16,990.286 C1558.13,1035.75 1571.12,1080.57 1582.58,1120.12 C1598.1,1173.7 1611.51,1219.97 1660.58,1246.99 C1672.01,1253.29 1686.57,1256.33 1701.95,1256.33 C1720.43,1256.33 1740.06,1251.87 1756.88,1243.4 C1759.14,1261.34 1763.55,1278.54 1770.1,1294.98 C1761.56,1303.01 1743.03,1324.32 1734.02,1364.13 C1716.24,1384.37 1700.96,1396.74 1678.07,1415.2 C1658.89,1430.68 1635.01,1449.95 1601.21,1480.87 C1500.48,1573.01 1496.84,1796.54 1523.2,1885.57 C1541.42,1947.09 1583.45,1978.24 1626.31,1993.68 C1626.38,1993.89 1626.42,1994.11 1626.51,1994.33 C1643.49,2034.89 1660.99,2068.27 1691.18,2099.34 C1706.46,2115.06 1724.62,2119.23 1739.6,2119.23 C1750.86,2119.23 1760.33,2116.87 1765.43,2115.28 C1773.92,2117.76 1791.08,2121.19 1807.22,2114.78 C1820.51,2109.51 1826.48,2101.45 1829.15,2095.37 C1834.9,2093.18 1843.01,2088.74 1849.34,2079.95 C1857.62,2068.43 1860.2,2053.23 1857,2034.76 C1852.39,2008.11 1832.71,1989.29 1819.84,1979.56 C1820.44,1978.92 1821.06,1978.33 1821.64,1977.65 C1824.13,1974.79 1826.26,1971.66 1828.2,1968.39 C1850.63,1969.27 1898.1,1976 1911.59,1977.97 C1958.24,2104.57 2033.99,2205.51 2043.51,2217.92 C2048,2227.94 2070.95,2276.65 2096.87,2287.77 C2115.27,2295.65 2130.11,2298.49 2141.95,2298.49 C2160.69,2298.49 2171.9,2291.38 2177.74,2285.93 C2249.82,2295.15 2273.86,2256.93 2280.91,2239.68 C2281.85,2237.39 2283.5,2234.6 2285.25,2231.65 C2292.88,2218.8 2304.41,2199.39 2290.21,2168.18 C2270.34,2124.44 2242.68,2116.5 2229.46,2115.35 C2209.6,2082.62 2185.68,2010.38 2175.43,1962.47 C2249.46,1955.14 2321.28,1924.8 2383.28,1876.85 C2385.29,1890.83 2389.07,1913.2 2395.47,1937.75 C2406.66,1980.62 2417.34,2003.32 2433.42,2018.31 C2448.09,2035.62 2470.52,2042.6 2490.76,2042.6 C2496.66,2042.59 2502.37,2042 2507.65,2040.9 C2515.99,2039.16 2522.37,2036.29 2526.6,2032.43 C2549.62,2033.2 2586.21,2023.86 2595.16,1983.61 C2598.58,1980.13 2603.93,1973.7 2607.37,1964.76 C2612.25,1952.16 2614.18,1932.36 2595.78,1909.62 C2583.36,1894.29 2559.59,1888.15 2545.97,1885.82 C2545.45,1852.37 2543.28,1738.08 2537.45,1673.94 C2537.3,1672.35 2536.81,1670.87 2536.06,1669.56 C2561.68,1584.07 2551.01,1482.67 2540.94,1424.23 C2540.94,1424.22 2540.93,1424.21 2540.93,1424.2 C2572.71,1410.08 2610.96,1376.36 2614.63,1295.64 L2614.63,1295.64 Z" id="Fill-25" fill="#1B1A19"></path>
            <path d="M2086.96,1112.28 C2089.61,1112.28 2092.27,1111.32 2094.37,1109.37 C2094.71,1109.05 2128.83,1077.95 2191.95,1068.23 C2197.9,1067.32 2201.99,1061.75 2201.07,1055.8 C2200.15,1049.85 2194.53,1045.73 2188.64,1046.68 C2118.97,1057.4 2081.12,1091.92 2079.54,1093.39 C2075.13,1097.49 2074.87,1104.38 2078.97,1108.8 C2081.12,1111.11 2084.03,1112.28 2086.96,1112.28" id="Fill-26" fill="#1B1A19"></path>
        </g>
    </g>
</svg>