<?xml version="1.0" encoding="UTF-8"?>
<svg width="2522px" height="2522px" viewBox="0 0 2522 2522" version="1.1" xmlns="http://www.w3.org/2000/svg" xmlns:xlink="http://www.w3.org/1999/xlink">
    <!-- Generator: Sketch 63.1 (92452) - https://sketch.com -->
    <desc>Created with Sketch.</desc>
    <g id="247" stroke="none" stroke-width="1" fill="none" fill-rule="evenodd">
        <polygon id="Fill-1" points="0 2522 2800 2522 2800 -278 0 -278"></polygon>
        <path d="M1486.02873,1702 C1465.26739,1731.12707 1429.24711,1751.64274 1373.97341,1766.57048 C1355.42901,1771.57966 1336.46519,1783.3642 1314.5055,1797.00472 C1311.1002,1799.11017 1307.58505,1801.28547 1304,1803.49071 C1327.0382,1811.97238 1368.72066,1822.21026 1433.94063,1820.88313 C1463.76946,1820.27444 1478.69885,1817.64014 1495.975,1814.59671 C1515.13855,1811.21402 1536.86856,1807.3823 1582.16603,1805.45646 C1611.75518,1804.19918 1624.66736,1786.83669 1630,1775.36149 C1614.89086,1767.81779 1597.22524,1761.31185 1579.98903,1754.98551 C1543.16986,1741.49466 1505.45192,1727.66455 1486.02873,1702" id="Fill-3" fill="#C7A17E"></path>
        <path d="M1719.40004,1616.27213 C1705.58882,1616.27213 1694.39784,1605.08014 1694.39784,1591.27768 C1694.39784,1577.47522 1705.58882,1566.28322 1719.40004,1566.28322 C1733.20125,1566.28322 1744.39223,1577.47522 1744.39223,1591.27768 C1744.39223,1605.08014 1733.20125,1616.27213 1719.40004,1616.27213 Z M1661.90499,1677.69308 C1648.10378,1677.69308 1636.9128,1666.50108 1636.9128,1652.69862 C1636.9128,1638.88616 1648.10378,1627.69417 1661.90499,1627.69417 C1675.7062,1627.69417 1686.89718,1638.88616 1686.89718,1652.69862 C1686.89718,1666.50108 1675.7062,1677.69308 1661.90499,1677.69308 Z M1610.52048,1518.68474 C1610.52048,1504.88228 1621.71147,1493.69029 1635.52268,1493.69029 C1649.32389,1493.69029 1660.51487,1504.88228 1660.51487,1518.68474 C1660.51487,1532.4972 1649.32389,1543.6792 1635.52268,1543.6792 C1621.71147,1543.6792 1610.52048,1532.4972 1610.52048,1518.68474 Z M1580.76787,1624.62362 C1566.96666,1624.62362 1555.77568,1613.43163 1555.77568,1599.62917 C1555.77568,1585.82671 1566.96666,1574.63471 1580.76787,1574.63471 C1594.56909,1574.63471 1605.76007,1585.82671 1605.76007,1599.62917 C1605.76007,1613.43163 1594.56909,1624.62362 1580.76787,1624.62362 Z M1305.1937,1699.59698 C1291.38249,1699.59698 1280.19151,1688.40499 1280.19151,1674.60253 C1280.19151,1660.80007 1291.38249,1649.60807 1305.1937,1649.60807 C1318.99491,1649.60807 1330.18589,1660.80007 1330.18589,1674.60253 C1330.18589,1688.40499 1318.99491,1699.59698 1305.1937,1699.59698 Z M1269.48057,1553.18089 C1269.48057,1539.37843 1280.67155,1528.18644 1294.47276,1528.18644 C1308.28397,1528.18644 1319.47495,1539.37843 1319.47495,1553.18089 C1319.47495,1566.99335 1308.28397,1578.18535 1294.47276,1578.18535 C1280.67155,1578.18535 1269.48057,1566.99335 1269.48057,1553.18089 Z M1384.9407,1587.70704 C1398.74191,1587.70704 1409.93289,1598.89904 1409.93289,1612.7015 C1409.93289,1626.50396 1398.74191,1637.69595 1384.9407,1637.69595 C1371.12949,1637.69595 1359.9385,1626.50396 1359.9385,1612.7015 C1359.9385,1598.89904 1371.12949,1587.70704 1384.9407,1587.70704 Z M1221.87639,1654.36892 C1208.06518,1654.36892 1196.8742,1643.17693 1196.8742,1629.36447 C1196.8742,1615.56201 1208.06518,1604.37001 1221.87639,1604.37001 C1235.6776,1604.37001 1246.86858,1615.56201 1246.86858,1629.36447 C1246.86858,1643.17693 1235.6776,1654.36892 1221.87639,1654.36892 Z M1775.34494,1554.96121 C1719.54005,1517.74457 1665.61532,1440.49081 1608.52031,1358.70623 L1608.18028,1358.22615 C1548.025,1272.04079 1421.35389,1282.31262 1420.09378,1282.44264 C1289.2623,1292.95452 1246.22853,1358.39618 1200.67453,1427.67852 C1176.96245,1463.74495 1152.4403,1501.0316 1115.14703,1529.49667 C1096.63541,1543.62919 1074.77349,1556.08141 1051.64146,1569.27376 C991.174156,1603.7499 928.723678,1639.37625 921,1707.95847 C925.999439,1711.69914 930.834863,1715.72986 935.461269,1720.09063 C963.736749,1746.77539 979.131099,1778.86111 985.791683,1806.11596 C1012.25801,1827.05969 1041.64058,1832.7207 1077.45372,1834.60104 C1187.89341,1839.31188 1248.93877,1801.35511 1297.98307,1770.87968 C1321.98517,1755.95702 1342.71699,1743.06473 1365.549,1736.89363 C1445.09597,1715.3998 1464.53768,1686.18459 1472.69839,1660.29998 C1485.37951,1593.31804 1472.06834,1548.65008 1471.93833,1548.2 C1471.28827,1546.08963 1471.15826,1543.94924 1471.42828,1541.88888 C1458.09711,1537.58811 1437.06527,1530.09678 1415.56338,1519.5949 C1367.54917,1496.14072 1340.37679,1469.71602 1334.7863,1441.05091 C1331.89604,1426.27828 1335.06632,1413.15594 1344.19712,1402.07396 C1376.22993,1363.18703 1468.94807,1362.73695 1469.87815,1362.73695 L1479.03895,1362.70695 C1567.49671,1362.70695 1573.53724,1403.78427 1575.52741,1417.27667 C1582.65804,1465.80532 1531.06351,1520.01498 1500.61084,1539.37843 C1501.47092,1542.15893 1516.00219,1590.87761 1502.451,1664.27069 C1505.36126,1694.95615 1546.46487,1710.09885 1590.02869,1726.0817 C1612.76068,1734.41318 1636.25274,1743.03472 1655.64444,1754.55677 C1692.29766,1776.31065 1764.36398,1786.96255 1813.22827,1768.09919 C1839.50057,1757.95738 1856.56207,1740.63429 1863.96272,1716.62001 C1888.14484,1637.996 1835.84025,1595.28839 1775.34494,1554.96121 L1775.34494,1554.96121 Z" id="Fill-4" fill="#4F433B"></path>
        <path d="M2207.30027,1614.58305 C2121.64624,1539.03635 2028.81434,1578.55601 2027.88332,1578.96632 C2020.28497,1582.29882 2011.42525,1578.85624 2008.09159,1571.27055 C2004.74792,1563.67485 2008.20171,1554.8182 2015.79004,1551.4857 C2017.13151,1550.89525 2027.63304,1546.44191 2044.29133,1542.79918 C2003.38642,1471.52569 1942.77989,1414.56294 1906.16971,1384 C1921.82689,1458.84617 1911.0851,1553.68735 1870,1596.1292 C1892.5948,1624.96084 1906.7103,1661.79849 1896.71933,1709.61437 C1898.50129,1711.43574 1899.8828,1713.68743 1900.56355,1716.32941 C1900.99402,1717.93061 1912.03614,1757.53033 1955.96437,1777.04498 C1993.95607,1793.91764 2027.6831,1790.64519 2044.12114,1787.32269 C2043.01993,1777.70548 2040.44711,1763.42476 2034.38045,1750.08475 C2030.94668,1742.53908 2034.29035,1733.64241 2041.83863,1730.20983 C2049.39693,1726.78726 2058.2967,1730.12977 2061.72046,1737.66543 C2069.73926,1755.30867 2072.90274,1773.68246 2074.15411,1785.61141 C2125.41038,1791.76603 2164.4232,1775.62391 2179.03925,1768.23837 C2178.48864,1766.34695 2178.30844,1764.31543 2178.55872,1762.23386 C2181.76224,1736.40448 2167.64674,1710.30489 2167.49658,1710.0447 C2163.52221,1702.78925 2166.1551,1693.6624 2173.40306,1689.6694 C2180.641,1685.67641 2189.76102,1688.27836 2193.77542,1695.50378 C2194.51624,1696.82477 2210.81413,1726.65716 2208.87199,1760.07224 C2229.66482,1754.42801 2239.28538,1739.84706 2243.73026,1727.38771 C2256.20395,1692.40145 2240.53675,1643.90506 2207.30027,1614.58305" id="Fill-5" fill="#C7A17E"></path>
        <path d="M1290.52637,685.089375 C1377.10816,680.529085 1462.79056,690.569521 1538,712.422116 C1537.39041,712.045174 1536.79081,711.655235 1536.2212,711.181309 C1535.95138,710.956344 1506.25134,686.52715 1449.31962,663.517736 C1396.80492,642.288044 1309.65351,617.972832 1192.80207,622.564117 C1147.60245,624.347839 1105.8805,631.634704 1062,645.298575 C1069.48497,670.979573 1076.64016,697.903378 1083.46557,726 C1129.90435,707.758842 1197.02922,690.011608 1290.52637,685.089375" id="Fill-6" fill="#C7A17E"></path>
        <path d="M914.99427,1742.62309 C887.178729,1716.37564 850.545065,1703.75687 809.189801,1706.17664 C774.903436,1708.46641 728.339508,1720.67522 714.360728,1729.05441 C707.265825,1733.32399 698.042651,1731.02422 693.780108,1723.91491 C689.516565,1716.8156 691.818858,1707.5965 698.924763,1703.33691 C718.426246,1691.63805 770.092823,1678.71931 807.322563,1676.23955 C811.916148,1675.96958 816.445724,1675.90958 820.941297,1675.94958 C814.079423,1658.35129 799.557574,1625.34451 776.287612,1592.00776 C774.922438,1590.69788 773.76029,1589.13804 772.945186,1587.30821 C772.939186,1587.28822 772.934185,1587.27822 772.934185,1587.27822 C759.034415,1568.05009 742.219275,1548.97195 722.242731,1532.90351 C715.78691,1527.71402 714.763779,1518.26494 719.957441,1511.81557 C725.144101,1505.3562 734.588303,1504.3363 741.049126,1509.52579 C745.48169,1513.09544 749.745233,1516.79508 753.88876,1520.57471 C748.556081,1478.00886 756.993156,1441.38243 765.300213,1405.61591 C771.411991,1379.29848 777.730796,1352.09113 778.319871,1322.614 C778.70992,1303.13589 774.70041,1279.01824 770.061819,1251.10096 C761.73876,1201.04584 751.665477,1140.20177 762.545862,1075.60806 C737.808713,1068.38876 661.262968,1039.65156 621.561914,953 C564.370633,1029.61254 532.989638,1131.28263 530.783357,1248.19125 C529.221158,1330.95319 547.358467,1383.59806 558.125838,1407.35574 C567.638049,1400.08645 574.151878,1395.92686 575.34203,1395.17693 C582.366924,1390.79736 591.621102,1392.91715 596.013661,1399.94646 C600.406221,1406.97578 598.269949,1416.22488 591.242054,1420.61445 C589.935888,1421.43437 459.192243,1505.15622 470.71971,1636.56342 C479.062773,1731.63416 593.640359,1832.19436 594.795506,1833.19426 C596.516726,1834.69412 597.878899,1836.56394 598.770012,1838.66373 C600.445226,1842.52336 640.584336,1931.58468 760.949659,1914.9263 C767.71452,1888.15891 754.387824,1858.33182 754.246806,1858.02185 C750.74236,1850.52258 753.989773,1841.59345 761.498729,1838.09379 C769.006685,1834.59413 777.930821,1837.83381 781.437267,1845.34308 C782.147358,1846.86293 797.280284,1880.0297 791.551555,1914.9263 C838.931587,1919.54585 873.425978,1904.50732 886.838686,1897.28802 C888.251866,1867.59091 879.134705,1834.40415 879.040693,1834.06418 C876.81341,1826.08496 881.477003,1817.80576 889.45902,1815.58598 C897.439035,1813.3462 905.711089,1818.01574 907.940372,1825.99497 C908.343424,1827.44482 916.710489,1857.85186 917.000526,1889.3088 C932.359481,1885.60916 954.704326,1873.8403 960,1836.87391 C959.660957,1810.60646 945.70418,1771.60026 914.99427,1742.62309" id="Fill-7" fill="#C7A17E"></path>
        <path d="M706.256765,333.535566 C719.16849,328.088266 732.258266,325.325128 745.159988,325.325128 C774.826546,325.325128 803.494816,339.659655 830.367569,367.929834 C919.751354,461.960494 965.155452,681.50599 962.971822,724.051714 C958.996676,801.507546 908.488105,809.145163 878.311399,813.713737 C868.19148,815.24326 857.726461,816.822767 853.072118,820.241701 C845.83103,825.550044 841.772859,836.656579 837.071503,849.512567 C828.634068,872.605362 817.077735,904.225495 776.461018,916.531655 C770.970434,918.191138 765.268789,919.030876 759.52013,919.030876 L759.51713,919.030876 C747.575685,919.030876 729.933595,915.342027 713.712916,897.747517 C680.488331,861.728755 668.562891,783.213254 678.268691,664.394329 C681.411598,625.925333 671.811828,581.102319 662.52915,537.753845 C644.591976,453.99398 626.046626,367.383005 706.256765,333.535566 Z M985.146219,1201.32279 C1003.4445,1185.43775 1024.14047,1183.05849 1034.85356,1183.05849 C1039.62494,1183.05849 1042.55578,1183.52835 1042.68582,1183.54834 C1102.78316,1197.1241 1115.72689,1294.16382 1107.7946,1330.85238 C1101.44277,1350.07638 1074.42497,1399.29102 1025.53087,1399.29102 C1024.54058,1399.29102 1023.5403,1399.26103 1022.53,1399.23104 C985.127214,1397.64154 948.182556,1365.93143 949.953067,1298.65242 C951.147411,1253.32657 962.988827,1220.57678 985.146219,1201.32279 Z M1268.03083,1194.66487 C1269.84135,1193.25531 1313.29388,1160.22562 1399.19867,1153.5577 C1459.12595,1148.90915 1527.5757,1177.34028 1530.45653,1178.5599 C1538.09874,1181.76889 1541.67977,1190.55615 1538.46884,1198.18377 C1535.25792,1205.82139 1526.46538,1209.40027 1518.82318,1206.20127 C1518.18299,1205.93135 1454.10451,1179.36964 1401.51934,1183.46836 C1324.49712,1189.4365 1286.81625,1218.05757 1286.44614,1218.34748 C1283.70535,1220.46682 1280.46441,1221.4965 1277.25349,1221.4965 C1272.77219,1221.4965 1268.35092,1219.50712 1265.39006,1215.69831 C1260.3086,1209.16035 1261.48894,1199.74329 1268.03083,1194.66487 Z M1704.85684,1173.46149 C1720.44134,1156.15689 1738.06642,1155.27716 1741.4474,1155.27716 L1741.97755,1155.28716 C1741.97755,1155.28716 1742.90782,1155.16719 1744.35824,1155.16719 C1753.6009,1155.16719 1785.24003,1159.20593 1804.30553,1211.17972 C1819.0998,1251.51713 1818.95976,1298.26254 1803.93542,1327.51342 C1797.10345,1340.81927 1787.5707,1349.48656 1776.36747,1352.59559 C1771.68612,1353.89519 1766.61466,1354.55498 1761.28312,1354.55498 C1726.71315,1354.55498 1687.20175,1326.74366 1681.81019,1305.18039 C1675.12827,1242.02009 1682.91051,1197.83388 1704.85684,1173.46149 Z M1717.59052,766.728398 C1699.05517,762.849608 1682.33034,749.983623 1670.52694,730.499702 C1649.951,696.574288 1634.05642,625.556448 1675.11826,479.85691 C1710.97861,352.638606 1759.78269,288.134733 1820.20012,288.134733 C1829.70286,288.134733 1839.44567,289.797214 1849.17848,293.080189 C1930.46193,320.507631 1916.868,413.571593 1903.72421,503.57351 C1902.19377,514.080231 1900.65333,524.608946 1899.26293,535.049688 C1892.82107,583.386606 1897.92254,627.774756 1902.84396,670.701361 C1908.39556,719.082265 1913.63707,764.779006 1899.47299,805.996146 C1887.60956,840.505378 1861.79212,862.808419 1833.68401,862.808419 C1797.12346,862.808419 1776.51752,828.069258 1769.42547,795.559402 C1765.85444,779.244493 1755.39142,773.986134 1751.14019,772.496598 C1748.85954,772.466608 1742.99785,772.056736 1717.59052,766.728398 Z M631.282136,731.17949 C629.003479,758.760884 626.424735,790.011133 628.017194,840.685322 C632.851589,994.467337 740.601673,1036.85411 769.699067,1045.50141 C779.718957,1008.39299 797.515091,970.414842 827.329692,932.846565 C832.478177,926.358589 841.911899,925.258932 848.409773,930.417323 C854.901646,935.565716 855.99096,944.992775 850.842475,951.48075 C768.748793,1054.92847 786.304857,1160.50553 800.412927,1245.33906 C805.299337,1274.72989 809.519554,1300.10197 809.075426,1322.34503 C808.423238,1354.95486 801.74131,1383.70588 795.282447,1411.51721 C783.724113,1461.26168 772.884986,1508.327 799.900779,1571.26736 C835.602079,1621.33174 852.355912,1670.69634 854.795616,1678.25398 C868.615602,1680.91315 881.796405,1685.16182 894.184979,1691 C909.294338,1616.27332 977.188924,1577.5354 1037.70438,1543.06616 C1059.9508,1530.39011 1080.95686,1518.42385 1097.88174,1505.51788 C1131.12133,1480.16579 1153.1977,1446.62625 1176.55444,1411.11733 C1224.07815,1338.88987 1273.22232,1264.20317 1418.53424,1252.54681 C1424.2659,1252.00698 1563.56608,1240.42059 1633.82635,1341.00921 L1634.16645,1341.48906 C1689.60244,1420.8443 1741.95755,1495.80091 1793.06229,1529.85028 C1810.35728,1541.37669 1831.69343,1555.60225 1850.82895,1573.68661 C1885.35891,1536.2083 1895.58186,1434.83993 1870.22455,1361.96267 C1845.13731,1289.89516 1849.41855,1237.1816 1853.55974,1186.20751 C1855.74037,1159.43586 1857.99102,1131.7445 1856.1905,1100.59422 C1849.78865,989.708822 1784.05969,918.121159 1783.3895,917.411381 C1777.74787,911.353271 1778.06796,901.866231 1784.12971,896.207997 C1790.19146,890.559759 1799.6842,890.889656 1805.33583,896.947766 C1807.06633,898.797189 1831.12327,925.029004 1852.62947,970.014967 C1966.94245,926.738471 1955.14905,806.106111 1943.66573,689.311554 C1939.50453,647.050741 1935.5834,607.134196 1937.77403,571.73824 C1938.87435,553.942793 1941.26504,533.798079 1943.80577,512.471733 C1960.40056,372.625369 1963.6415,255.273986 1834.85434,236 C1605.81827,243.661609 1569.59782,708.611532 1569.25772,713.315065 C1569.05767,716.152179 1568.02737,718.718379 1566.49693,720.881704 C1630.00525,742.575934 1684.54098,773.076417 1723.68227,810.494742 C1729.674,816.212958 1729.88406,825.709994 1724.16241,831.698126 C1721.21156,834.777165 1717.26042,836.326682 1713.30928,836.326682 C1709.58821,836.326682 1705.85713,834.947112 1702.94629,832.167979 C1620.49251,753.342575 1455.55492,706.146301 1292.50789,714.715628 C1124.59945,723.541874 1047.10709,774.795881 1021.64975,791.640625 C1018.56886,793.679989 1016.11815,795.279489 1014.25762,796.379146 C1007.12556,800.587833 997.923905,798.218572 993.713691,791.0808 C989.500475,783.953024 991.87216,774.755893 999.010219,770.547207 C1000.53366,769.647487 1002.54424,768.307905 1005.08497,766.628429 C1014.59772,760.330395 1030.96244,749.533763 1055.73958,737.757438 C1016.55828,575.086196 944.736562,369.307404 823.434569,299.865072 C782.868866,276.639319 739.360315,271.119042 697.614272,283.891057 C613.227928,309.71 585.788012,403.943597 618.258379,556.406025 C638.042086,649.287043 635.060226,685.425767 631.282136,731.17949 L631.282136,731.17949 Z" id="Fill-8" fill="#C7A17E"></path>
        <path d="M1513.99499,1427 C1531.11537,1427 1545,1418.4979 1545,1408 C1545,1397.5021 1531.11537,1389 1513.99499,1389 C1496.87462,1389 1483,1397.5021 1483,1408 C1483,1418.4979 1496.87462,1427 1513.99499,1427" id="Fill-9" fill="#FFFFFE"></path>
        <path d="M1045.40701,1281.99225 C1055.05479,1281.65202 1062.47303,1270.1841 1061.97646,1256.38458 C1061.47988,1242.57504 1053.2509,1231.66751 1043.59299,1232.00775 C1033.94521,1232.34798 1026.52697,1243.8159 1027.02354,1257.61542 C1027.52012,1271.42496 1035.7491,1282.33249 1045.40701,1281.99225" id="Fill-10" fill="#FFFFFE"></path>
        <path d="M1049.38094,1295.00521 C1042.75745,1295.24868 1037.67407,1303.27315 1038.01632,1312.93092 C1038.35856,1322.59884 1044.00564,1330.23781 1050.61906,1329.99434 C1057.24255,1329.76101 1062.32593,1321.73654 1061.98368,1312.06862 C1061.64144,1302.41085 1055.99436,1294.77188 1049.38094,1295.00521" id="Fill-11" fill="#FFFFFE"></path>
        <path d="M1757.57272,1253.90941 C1767.08758,1252.73472 1773.42411,1240.63644 1771.72431,1226.88155 C1770.02451,1213.12665 1760.94214,1202.92594 1751.42728,1204.09059 C1741.91242,1205.26528 1735.57589,1217.36356 1737.27569,1231.11845 C1738.96543,1244.87335 1748.05786,1255.07406 1757.57272,1253.90941" id="Fill-12" fill="#FFFFFE"></path>
        <path d="M1758.89303,1268.06143 C1752.37239,1268.86237 1748.02864,1277.08938 1749.18697,1286.44364 C1750.35529,1295.79791 1756.58634,1302.72955 1763.10697,1301.9385 C1769.62761,1301.14744 1773.97136,1292.92043 1772.81303,1283.56617 C1771.64471,1274.2119 1765.41366,1267.27037 1758.89303,1268.06143" id="Fill-13" fill="#FFFFFE"></path>
        <path d="M1320,1553.995 C1320,1540.19224 1308.80776,1529 1294.995,1529 C1281.19224,1529 1270,1540.19224 1270,1553.995 C1270,1567.80776 1281.19224,1579 1294.995,1579 C1308.80776,1579 1320,1567.80776 1320,1553.995" id="Fill-14" fill="#1B1A19"></path>
        <path d="M1385.005,1638 C1398.80776,1638 1410,1626.80552 1410,1613 C1410,1599.19448 1398.80776,1588 1385.005,1588 C1371.19224,1588 1360,1599.19448 1360,1613 C1360,1626.80552 1371.19224,1638 1385.005,1638" id="Fill-15" fill="#1B1A19"></path>
        <path d="M1306.005,1650 C1292.19224,1650 1281,1661.19448 1281,1675 C1281,1688.80552 1292.19224,1700 1306.005,1700 C1319.80776,1700 1331,1688.80552 1331,1675 C1331,1661.19448 1319.80776,1650 1306.005,1650" id="Fill-16" fill="#1B1A19"></path>
        <path d="M1222.005,1605 C1208.19224,1605 1197,1616.19224 1197,1629.995 C1197,1643.80776 1208.19224,1655 1222.005,1655 C1235.80776,1655 1247,1643.80776 1247,1629.995 C1247,1616.19224 1235.80776,1605 1222.005,1605" id="Fill-17" fill="#1B1A19"></path>
        <path d="M1661,1519 C1661,1505.19448 1649.80776,1494 1636.005,1494 C1622.19224,1494 1611,1505.19448 1611,1519 C1611,1532.81553 1622.19224,1544 1636.005,1544 C1649.80776,1544 1661,1532.81553 1661,1519" id="Fill-18" fill="#1B1A19"></path>
        <path d="M1581,1575 C1567.19448,1575 1556,1586.19448 1556,1600 C1556,1613.80552 1567.19448,1625 1581,1625 C1594.80552,1625 1606,1613.80552 1606,1600 C1606,1586.19448 1594.80552,1575 1581,1575" id="Fill-19" fill="#1B1A19"></path>
        <path d="M1720.005,1567 C1706.19224,1567 1695,1578.19448 1695,1592 C1695,1605.80552 1706.19224,1617 1720.005,1617 C1733.80776,1617 1745,1605.80552 1745,1592 C1745,1578.19448 1733.80776,1567 1720.005,1567" id="Fill-20" fill="#1B1A19"></path>
        <path d="M1662,1628 C1648.19448,1628 1637,1639.19224 1637,1653.005 C1637,1666.80776 1648.19448,1678 1662,1678 C1675.80552,1678 1687,1666.80776 1687,1653.005 C1687,1639.19224 1675.80552,1628 1662,1628" id="Fill-21" fill="#1B1A19"></path>
        <path d="M1043.34891,1232.72233 C1052.8811,1232.3828 1061.00297,1243.26768 1061.49308,1257.04854 C1061.9832,1270.81942 1054.66151,1282.26352 1045.13932,1282.60305 C1035.60712,1282.94258 1027.48525,1272.0577 1026.99514,1258.27684 C1026.50503,1244.50596 1033.82671,1233.06186 1043.34891,1232.72233 Z M1049.99044,1329.93731 C1043.41892,1330.17698 1037.80763,1322.65742 1037.46755,1313.14064 C1037.12747,1303.63384 1042.17864,1295.73481 1048.76015,1295.49515 C1055.33167,1295.26546 1060.94296,1302.78502 1061.28304,1312.29182 C1061.62311,1321.8086 1056.57195,1329.70763 1049.99044,1329.93731 Z M1021.6339,1399.94008 C1022.64414,1399.97004 1023.64437,1400 1024.6346,1400 C1073.52586,1400 1100.54208,1350.83828 1106.89354,1331.63495 C1114.82537,1294.98585 1101.88239,1198.05049 1041.78855,1184.48932 C1041.65852,1184.46935 1038.72784,1184 1033.95674,1184 C1023.24427,1184 1002.54951,1186.3767 984.252294,1202.24466 C962.09619,1221.47795 950.255463,1254.19251 949.061188,1299.46963 C947.29078,1366.67628 984.233289,1398.35229 1021.6339,1399.94008 L1021.6339,1399.94008 Z" id="Fill-22" fill="#1B1A19"></path>
        <path d="M1752.0903,1204.33071 C1761.56613,1203.17333 1770.61125,1213.3104 1772.30408,1226.97949 C1773.99691,1240.64858 1767.68636,1252.6714 1758.21053,1253.83876 C1748.73469,1254.99614 1739.67956,1244.85906 1737.99674,1231.18997 C1736.30392,1217.52088 1742.61446,1205.49807 1752.0903,1204.33071 Z M1763.58952,1302.22933 C1757.04858,1303.02753 1750.79814,1296.03334 1749.62618,1286.59469 C1748.46424,1277.15603 1752.82152,1268.8548 1759.36245,1268.04663 C1765.90338,1267.24843 1772.15383,1274.25259 1773.32579,1283.69125 C1774.48773,1293.12991 1770.13045,1301.43114 1763.58952,1302.22933 Z M1760.90503,1355 L1760.90503,1355 C1766.24395,1355 1771.32244,1354.34149 1776.01027,1353.04442 C1787.22902,1349.94144 1796.77497,1341.291 1803.61641,1328.01103 C1818.66155,1298.81705 1818.80179,1252.16255 1803.98703,1211.90358 C1784.89512,1160.03088 1753.21217,1156 1743.95671,1156 C1742.50428,1156 1741.57272,1156.09977 1741.57272,1156.09977 L1741.04183,1156.10975 C1737.65618,1156.10975 1720.00668,1156.98777 1704.4006,1174.25871 C1682.42387,1198.58371 1674.63085,1242.68398 1681.32203,1305.72143 C1686.72105,1327.24277 1726.28718,1355 1760.90503,1355 L1760.90503,1355 Z" id="Fill-23" fill="#1B1A19"></path>
        <path d="M745.177854,325 C732.279974,325 719.194096,327.764507 706.287216,333.214507 C626.099961,367.078722 644.639789,453.732623 662.571622,537.535001 C671.851536,580.903959 681.448447,625.749188 678.306476,664.237251 C668.603566,783.115065 680.525455,861.66948 713.740146,897.706093 C729.955996,915.309323 747.592832,919 759.530721,919 L759.533721,919 C765.280667,919 770.980614,918.159846 776.469563,916.499541 C817.074186,904.187282 828.627078,872.551477 837.062,849.447237 C841.761956,836.584877 845.818918,825.472838 853.057851,820.161863 C857.710808,816.741235 868.172711,815.160945 878.289616,813.630665 C908.457336,809.059826 958.950867,801.418424 962.92483,723.924203 C965.107809,681.357392 919.717231,461.703085 830.360062,367.625822 C803.495312,339.341632 774.835578,325 745.177854,325" id="Fill-24" fill="#1B1A19"></path>
        <path d="M1898.59742,535.05516 C1899.98701,524.608489 1901.52655,514.073796 1903.05609,503.561109 C1916.19217,413.508086 1929.77811,320.391281 1848.54238,292.948265 C1838.81529,289.663425 1829.0782,288 1819.58103,288 C1759.19908,288 1710.42365,352.5405 1674.58436,479.831042 C1633.54663,625.613312 1649.43188,696.671478 1669.99573,730.616156 C1681.79221,750.11114 1698.50721,762.984431 1717.03168,766.865423 C1742.42409,772.196786 1748.28234,772.606891 1750.56166,772.636898 C1754.81039,774.127279 1765.26726,779.388625 1768.8362,795.712798 C1775.92408,828.241114 1796.51793,863 1833.05701,863 C1861.14861,863 1886.9509,840.684295 1898.80736,806.155468 C1912.96313,764.914924 1907.7247,719.192235 1902.17635,670.78386 C1897.25782,627.832879 1892.15935,583.419525 1898.59742,535.05516" id="Fill-25" fill="#1B1A19"></path>
        <path d="M2243.73583,1727.80526 C2239.29491,1740.25837 2229.68293,1754.83201 2208.90866,1760.47342 C2210.84906,1727.07508 2194.56571,1697.25763 2193.82555,1695.93731 C2189.81473,1688.7155 2180.70285,1686.11485 2173.47136,1690.10585 C2166.22987,1694.09685 2163.59933,1703.21912 2167.57015,1710.47093 C2167.72018,1710.731 2181.82308,1736.81751 2178.62242,1762.63396 C2178.37237,1764.71448 2178.55241,1766.74499 2179.10252,1768.63546 C2164.49952,1776.0173 2125.52149,1792.15133 2074.31095,1785.9998 C2073.0607,1774.07682 2069.90005,1755.71223 2061.8884,1738.07783 C2058.46769,1730.54595 2049.57586,1727.20511 2042.02431,1730.62597 C2034.48276,1734.05682 2031.14207,1742.94904 2034.57277,1750.49093 C2040.63402,1763.82426 2043.20455,1778.09782 2044.30478,1787.71022 C2027.8814,1791.03105 1994.18446,1794.30187 1956.22665,1777.43766 C1912.33762,1757.93279 1901.30535,1718.3529 1900.87526,1716.7525 C1900.19512,1714.11184 1898.81483,1711.86128 1897.03447,1710.04083 C1907.01652,1662.24889 1892.91362,1625.4297 1870.33897,1596.6125 C1911.38742,1554.19191 1922.11963,1459.39824 1906.47641,1384.58956 C1943.05394,1415.13718 2003.6064,1472.0714 2044.47481,1543.30919 C2027.83139,1546.9501 2017.33923,1551.40121 2015.99895,1551.99136 C2008.41739,1555.32219 2004.96668,1564.1744 2008.30737,1571.7663 C2011.63805,1579.34819 2020.48988,1582.78905 2028.08144,1579.45822 C2029.01163,1579.04812 2121.76072,1539.54825 2207.33833,1615.05711 C2240.54517,1644.36443 2256.19839,1692.83653 2243.73583,1727.80526 Z M1864.26772,1717.26263 C1856.8662,1741.27863 1839.80269,1758.60295 1813.52728,1768.74549 C1764.65722,1787.6102 1692.58238,1776.95754 1655.92484,1755.2021 C1636.53085,1743.67923 1613.03601,1735.05707 1590.30133,1726.72499 C1546.73237,1710.741 1505.6239,1695.59722 1502.7133,1664.90956 C1516.26609,1591.51123 1501.7331,1542.78906 1500.87293,1540.00837 C1531.32919,1520.64353 1582.92982,1466.42999 1575.79835,1417.89787 C1573.80794,1404.4045 1567.76669,1363.32425 1479.29849,1363.32425 L1470.1366,1363.35425 C1469.20641,1363.35425 1376.47732,1363.80437 1344.44073,1402.69408 C1335.30885,1413.77684 1332.1382,1426.90012 1335.02879,1441.67381 C1340.61994,1470.34097 1367.79554,1496.76757 1415.81542,1520.22343 C1437.31985,1530.72605 1458.35417,1538.21792 1471.68692,1542.51899 C1471.41686,1544.57951 1471.54689,1546.72004 1472.19702,1548.83057 C1472.32705,1549.28068 1485.63979,1593.95184 1472.95718,1660.93857 C1464.7955,1686.82503 1445.3515,1716.04233 1365.79512,1737.53769 C1342.96042,1743.70923 1322.22616,1756.60245 1298.22122,1771.52618 C1249.17112,1802.00379 1188.11855,1839.96327 1077.66582,1835.25209 C1041.84845,1833.37162 1012.4624,1827.71021 985.992951,1806.76498 C979.33158,1779.50817 963.935411,1747.42016 935.656591,1720.7335 C931.029638,1716.37241 926.193643,1712.3414 921.193614,1708.60047 C928.918204,1640.01334 991.376059,1604.38444 1051.85051,1569.90583 C1074.98527,1556.71254 1096.84977,1544.25943 1115.36358,1530.1259 C1152.66126,1501.65879 1177.1863,1464.36948 1200.90118,1428.30047 C1246.46056,1359.01317 1289.49942,1293.56683 1420.34635,1283.0542 C1421.60661,1282.92417 1548.29269,1272.6516 1608.45507,1358.84313 L1608.79514,1359.32325 C1665.89689,1441.11367 1719.82799,1518.37296 1775.63948,1555.59226 C1836.14193,1595.92233 1888.4527,1638.633 1864.26772,1717.26263 Z M1482.42913,1408.67557 C1482.42913,1398.15294 1496.28198,1389.63081 1513.3755,1389.63081 C1530.46902,1389.63081 1544.33187,1398.15294 1544.33187,1408.67557 C1544.33187,1419.1982 1530.46902,1427.72033 1513.3755,1427.72033 C1496.28198,1427.72033 1482.42913,1419.1982 1482.42913,1408.67557 Z M1582.14965,1805.48466 C1536.78032,1807.41514 1515.01584,1811.2561 1495.82189,1814.64695 C1478.51833,1817.69771 1463.56525,1820.33837 1433.6891,1820.94852 C1368.36565,1822.27885 1326.61706,1812.01629 1303.54231,1803.51417 C1307.13305,1801.30362 1310.65377,1799.12307 1314.06448,1797.01255 C1336.059,1783.33913 1355.05291,1771.52618 1373.62674,1766.50493 C1428.98813,1751.54119 1465.06556,1730.97605 1485.85984,1701.77876 C1505.31384,1727.50519 1543.09162,1741.36865 1579.96921,1754.89203 C1597.23276,1761.23361 1614.9264,1767.75524 1630.05952,1775.31713 C1624.71842,1786.82 1611.78575,1804.22435 1582.14965,1805.48466 Z M917.067765,1889.29559 C916.777705,1857.82773 908.409983,1827.41014 908.0069,1825.95977 C905.777441,1817.97778 897.504738,1813.30661 889.524095,1815.54717 C881.541452,1817.76773 876.877493,1826.0498 879.104951,1834.03179 C879.19897,1834.37187 888.316847,1867.57016 886.903556,1897.27758 C873.489795,1904.49939 838.992695,1919.54314 791.608942,1914.92199 C797.338121,1880.01327 782.204006,1846.83499 781.49386,1845.31461 C777.987138,1837.80273 769.062301,1834.56192 761.553756,1838.0628 C754.04421,1841.56367 750.796542,1850.4959 754.301263,1857.99777 C754.442292,1858.30785 767.770035,1888.1453 761.004643,1914.92199 C640.629867,1931.58615 600.487605,1842.4939 598.81226,1838.63294 C597.921076,1836.53241 596.558796,1834.66195 594.837442,1833.16157 C593.682204,1832.16132 479.095619,1731.5662 470.751902,1636.46245 C459.223529,1505.00963 589.977441,1421.25871 591.28371,1420.43851 C598.312157,1416.04741 600.448597,1406.7951 596.055692,1399.76335 C591.662788,1392.73159 582.407883,1390.61106 575.382437,1394.99215 C574.192192,1395.74234 567.677852,1399.90338 558.164894,1407.1752 C547.396677,1383.40926 529.257944,1330.74611 530.820265,1247.95544 C533.02672,1131.00623 564.410179,1029.30083 621.605951,952.661696 C661.310123,1039.34334 737.86188,1068.09052 762.600972,1075.31232 C751.719732,1139.92846 761.793805,1200.79366 770.117519,1250.86616 C774.756473,1278.79314 778.766299,1302.91916 778.376219,1322.40403 C777.787097,1351.89139 771.467797,1379.10819 765.355539,1405.43476 C757.047829,1441.2137 748.610092,1477.85285 753.94319,1520.43348 C749.799337,1516.65253 745.535459,1512.95161 741.102547,1509.38072 C734.641217,1504.18942 725.196273,1505.20968 720.009205,1511.67129 C714.815136,1518.1229 715.838347,1527.57526 722.294676,1532.76656 C742.272788,1548.84057 759.089249,1567.92534 772.984109,1587.15014 C772.984109,1587.15014 772.995111,1587.17014 773.001112,1587.19015 C773.81628,1589.02061 774.978519,1590.581 776.3438,1591.89132 C799.61559,1625.23965 814.138579,1658.2579 821.000992,1675.86229 C816.505066,1675.82228 811.975134,1675.8823 807.381188,1676.15236 C770.148525,1678.63298 718.47789,1691.55621 698.974876,1703.25913 C691.868413,1707.5202 689.565939,1716.7425 693.829817,1723.84427 C698.092694,1730.95605 707.316593,1733.25662 714.412053,1728.98556 C728.391931,1720.60346 774.959515,1708.39041 809.248573,1706.09984 C850.607085,1703.67924 887.243626,1716.30239 915.061352,1742.55895 C945.773673,1771.54619 959.731546,1810.56593 960.070616,1836.84249 C954.774526,1873.82173 932.427926,1885.59467 917.067765,1889.29559 Z M696.925454,283.956708 C738.668046,271.177517 782.173,276.700896 822.735349,299.939699 C944.027314,369.42105 1015.8431,575.315466 1055.02116,738.07811 C1030.24606,749.861053 1013.88269,760.663751 1004.37073,766.965324 C1001.83021,768.645744 999.819797,769.986078 998.296484,770.886303 C991.159014,775.097355 988.787526,784.299653 993.000393,791.431434 C997.21026,798.573217 1006.41115,800.943809 1013.54262,796.732758 C1015.403,795.632483 1017.85351,794.032083 1020.93414,791.991574 C1046.38938,775.137365 1123.87533,723.854559 1291.76989,715.023353 C1454.80344,706.449212 1619.72739,753.672005 1702.17436,832.5417 C1705.08496,835.322394 1708.81573,836.702739 1712.53649,836.702739 C1716.4873,836.702739 1720.43812,835.152352 1723.38873,832.071582 C1729.1099,826.080086 1728.89986,816.577713 1722.90863,810.856285 C1683.77057,773.416935 1629.23935,742.899314 1565.73628,721.192894 C1567.26659,719.028353 1568.2968,716.460712 1568.49684,713.622003 C1568.83691,708.915828 1605.05437,243.704657 1834.07151,236.038742 C1962.84801,255.323558 1959.60735,372.740879 1943.01393,512.665821 C1940.47341,534.00415 1938.08291,554.160183 1936.98269,571.965629 C1934.79224,607.381473 1938.71304,647.320447 1942.8739,689.605006 C1954.35626,806.465188 1966.14869,927.165329 1851.84516,970.466142 C1830.34074,925.454902 1806.28579,899.208348 1804.55543,897.357886 C1798.90427,891.296372 1789.41231,890.966289 1783.35107,896.617701 C1777.28982,902.279114 1776.96975,911.771485 1782.61091,917.832999 C1783.28105,918.543176 1849.00458,990.171063 1855.4059,1101.11877 C1857.20627,1132.28655 1854.95581,1159.99347 1852.77536,1186.78016 C1848.6345,1237.7829 1844.35362,1290.52607 1869.43879,1362.63407 C1894.794,1435.55228 1884.5719,1536.97761 1850.04479,1574.47697 C1830.91086,1556.38246 1809.57647,1542.1489 1792.28291,1530.61602 C1741.18239,1496.54751 1688.83161,1421.54879 1633.4002,1342.14896 L1633.06013,1341.66884 C1562.80567,1241.02371 1423.517,1252.6166 1417.78582,1253.15673 C1272.48592,1264.81965 1223.3458,1339.54831 1175.82602,1411.81636 C1152.47122,1447.34523 1130.39667,1480.90361 1097.15983,1506.26994 C1080.23635,1519.18317 1059.23203,1531.15616 1036.98745,1543.83932 C976.476993,1578.32794 908.588019,1617.08761 893.47991,1691.85629 C881.09236,1686.01483 867.912647,1681.76377 854.093803,1679.1031 C851.654301,1671.54121 834.901853,1622.14888 799.203505,1572.05637 C772.189945,1509.08064 783.028176,1461.98888 794.585555,1412.21645 C801.043884,1384.38951 807.725259,1355.62232 808.377393,1322.99417 C808.821485,1300.73862 804.601616,1275.35228 799.715611,1245.94493 C785.608707,1161.06374 768.054094,1055.42736 850.140989,951.921511 C855.289049,945.42989 854.199825,935.997535 847.708489,930.846248 C841.211151,925.684959 831.77821,926.785234 826.63015,933.276855 C796.818014,970.866242 779.023352,1008.86573 769.00429,1045.995 C739.909301,1037.34284 632.168125,994.932252 627.33413,841.063828 C625.741803,790.361167 628.320333,759.093358 630.598802,731.496467 C634.37658,685.717035 637.358194,649.558005 617.576122,556.624798 C585.108439,404.076704 612.546087,309.790159 696.925454,283.956708 Z M1192.37943,622.50725 C1309.3335,617.914103 1396.56146,642.239178 1449.12227,663.477481 C1506.104,686.49623 1535.83012,710.935332 1536.10018,711.160389 C1536.67029,711.634507 1537.27042,712.024604 1537.88054,712.401699 C1462.60505,690.540239 1376.8474,680.495731 1290.18956,685.05787 C1196.6103,689.9821 1129.42647,707.736534 1082.94691,725.985091 C1076.1155,697.877072 1068.95403,670.942345 1061.46248,645.25093 C1105.38152,631.581516 1147.14012,624.291696 1192.37943,622.50725 Z M2227.19242,1592.56149 C2173.20131,1544.91959 2117.16978,1536.39747 2076.36138,1538.89809 C2012.73828,1420.49852 1898.24472,1339.61833 1892.28349,1335.46729 C1875.54004,1278.18298 1878.98075,1234.82216 1882.68151,1189.21077 C1884.94198,1161.40382 1887.28246,1132.63664 1885.36206,1099.39834 C1883.14161,1060.83871 1874.49983,1026.7702 1863.6576,998.083038 C1998.19529,946.400132 1984.14239,802.714251 1972.73005,686.666272 C1968.69922,645.614021 1964.88843,606.839338 1966.92885,573.821093 C1967.97907,556.856856 1970.32955,537.107925 1972.81006,516.201704 C1986.29284,402.450298 2006.68704,230.549371 1837.07212,206.153279 C1836.23195,206.029248 1835.39178,206 1834.55161,206 C1726.85944,208.810943 1641.45186,298.215269 1587.56077,464.555807 C1559.97509,549.726076 1547.24247,633.430978 1541.92137,678.197157 C1503.92355,652.093639 1386.21933,584.818839 1191.19919,592.524763 C1143.33934,594.412235 1099.17025,602.108156 1052.7707,616.533759 C997.325284,439.119455 925.191437,324.051721 837.650419,273.902197 C789.715552,246.444341 738.022913,240.002732 688.142646,255.262543 C642.227196,269.321053 608.438241,301.285035 590.426534,347.697625 C569.8583,400.701862 569.119148,473.094939 588.229082,562.871358 C607.090964,651.489488 604.406411,684.012609 600.692647,729.02585 C598.351165,757.422941 595.696619,789.600977 597.341957,842.004063 C598.272149,871.621459 602.728066,897.527928 609.539468,920.32362 C608.379229,921.133823 607.280003,922.04405 606.350811,923.20434 C539.750103,1006.16506 503.255592,1118.26305 500.81909,1247.3953 C498.993715,1344.20947 522.647583,1403.64431 534.429008,1427.08017 C491.678209,1466.17993 432.121951,1539.45823 440.86275,1639.09311 C449.665562,1739.43817 555.158275,1837.91276 572.832913,1853.75672 C581.606718,1870.931 626.478954,1947 732.103694,1947 C745.463444,1947 759.785392,1945.7897 775.140553,1943.07902 C843.860697,1954.18179 892.302667,1929.25557 906.297548,1920.81346 C923.646119,1919.81321 977.854276,1911.28108 989.19361,1844.61443 C1017.62346,1859.82823 1047.51961,1863.7192 1076.23553,1865.22958 C1082.9069,1865.50965 1089.40824,1865.64969 1095.76955,1865.64969 C1174.31571,1865.64969 1229.23702,1844.73446 1271.46571,1822.08881 C1289.09934,1831.57118 1335.86896,1851.07605 1422.26675,1851.07605 C1426.19756,1851.07605 1430.20838,1851.03604 1434.29922,1850.94601 C1466.49585,1850.29585 1483.2793,1847.32511 1501.04296,1844.19433 C1519.31672,1840.96352 1540.04099,1837.31261 1583.42992,1835.46215 C1624.00827,1833.73171 1646.38288,1809.89576 1656.63499,1789.15058 C1701.98432,1809.2356 1771.38861,1817.17758 1824.3295,1796.74248 C1850.30485,1786.71998 1870.09892,1770.56594 1882.66151,1749.37065 C1892.8336,1767.1951 1911.47744,1790.38089 1944.04414,1804.8545 C1971.17973,1816.91752 1996.45493,1820.47841 2016.82912,1820.47841 C2038.0735,1820.47841 2054.01678,1816.60744 2061.22826,1814.4569 C2132.03283,1826.12982 2184.07355,1800.49341 2198.02642,1792.58144 C2233.66375,1789.93078 2260.49928,1770.15584 2272.00164,1737.87778 C2288.61506,1691.24613 2269.77118,1630.13087 2227.19242,1592.56149 L2227.19242,1592.56149 Z" id="Fill-26" fill="#1B1A19"></path>
        <path d="M1276.99677,1222 C1280.20293,1222 1283.43906,1220.97712 1286.17578,1218.87177 C1286.54534,1218.58378 1324.17027,1190.15168 1401.07815,1184.22295 C1453.58525,1180.15129 1517.56861,1206.53763 1518.20785,1206.80576 C1525.83871,1209.98364 1534.61819,1206.42839 1537.82435,1198.8412 C1541.03051,1191.26394 1537.45479,1182.5347 1529.82393,1179.34689 C1526.94738,1178.13532 1458.59925,1149.89191 1398.76092,1154.50977 C1312.98367,1161.13366 1269.59564,1193.94528 1267.7878,1195.34553 C1261.25563,1200.39041 1260.07704,1209.7453 1265.15096,1216.24009 C1268.10742,1220.02376 1272.52213,1222 1276.99677,1222" id="Fill-27" fill="#1B1A19"></path>
        <path d="M2257.60991,2019.18953 C2296.66398,1982.41005 2305.96019,1946.11029 2285.31861,1911.21975 C2262.23802,1903.03432 2237.90794,1899.3064 2213.67782,1900.10595 C2213.49789,1900.10595 2213.30797,1900.10595 2213.11805,1900.11594 C2210.26921,1900.21589 2207.42037,1900.38579 2204.57153,1900.61567 C2203.73188,1900.68563 2202.88222,1900.77558 2202.04257,1900.85553 C2200.31327,1901.01544 2198.59397,1901.20534 2196.87467,1901.40522 C2195.46525,1901.57513 2194.05582,1901.75503 2192.65639,1901.95492 C2191.74676,1902.08485 2190.83713,1902.23476 2189.9275,1902.38468 C2162.30877,1906.74225 2135.66963,1917.00652 2112.06925,1932.75774 C2111.40952,1933.19749 2110.75979,1933.63725 2110.11005,1934.087 C2108.69063,1935.05646 2107.27121,1936.0459 2105.87178,1937.05534 C2103.93257,1938.47455 2101.99336,1939.92374 2100.08414,1941.42291 C2099.29446,1942.04256 2098.52477,1942.6922 2097.74509,1943.32185 C2096.17573,1944.60113 2094.61637,1945.89041 2093.08699,1947.21967 C2092.37728,1947.82933 2091.66757,1948.44899 2090.96786,1949.06864 C2088.79874,1950.99757 2086.64962,1952.96647 2084.56047,1955.00533 C2082.07148,1957.43398 2079.66247,1959.91259 2077.32342,1962.45118 C2076.31383,1963.54057 2075.37421,1964.66994 2074.39461,1965.77932 C2073.13513,1967.20852 2071.85565,1968.61774 2070.64614,1970.07692 C2069.35667,1971.63605 2068.11717,1973.22517 2066.87768,1974.81428 C2066.098,1975.81372 2065.29832,1976.81317 2064.52864,1977.8326 C2063.05924,1979.79151 2061.64981,1981.7804 2060.27037,1983.78928 C2059.83055,1984.40893 2059.39073,1985.02859 2058.9709,1985.65823 C2057.36156,1988.03691 2055.81219,1990.44556 2054.33279,1992.87421 C2054.21284,1993.0641 2054.09289,1993.254 2053.98294,1993.44389 C2032.85155,2028.30445 2023.68529,2068.48204 2026.49414,2108 C2065.06842,2078.46647 2108.87056,2070.13112 2148.27449,2062.6353 C2189.00788,2054.87963 2227.48219,2047.55371 2257.60991,2019.18953" id="Fill-28" fill="#D1DA32"></path>
        <path d="M2359.99596,1958.83944 C2349.50673,1948.05804 2338.02757,1938.81827 2325.88846,1931 C2331.40806,1960.93165 2324.15859,1999.7527 2279.42188,2041.95733 C2242.76458,2076.52389 2198.00787,2085.0429 2154.72105,2093.29162 C2110.35431,2101.75056 2068.3374,2109.79908 2033,2144.04529 C2041.2194,2175.5486 2057.38821,2205.41018 2081.66642,2230.34655 C2128.03301,2277.99694 2193.06823,2296.67669 2254.08374,2286.15557 C2260.53327,2275.33412 2266.56283,2264.05219 2272.3924,2253.05056 C2293.05088,2214.08936 2314.41931,2173.79675 2358.23609,2148.96049 C2376.88471,2138.3793 2394.92339,2131.56209 2412.05213,2128.45881 C2422.48136,2068.91584 2405.26263,2005.34862 2359.99596,1958.83944" id="Fill-29" fill="#D1DA32"></path>
        <path d="M2299.3973,2266.64888 C2298.27489,2268.75263 2297.14246,2270.87631 2296,2273 C2297.1625,2272.52142 2298.325,2272.06279 2299.47747,2271.5543 C2299.98857,2271.32498 2300.49967,2271.10563 2301.02079,2270.86634 C2303.23555,2269.86931 2305.43027,2268.81245 2307.62499,2267.73565 C2308.3766,2267.35678 2309.1182,2266.98787 2309.86981,2266.59903 C2311.80397,2265.61196 2313.71809,2264.56508 2315.62218,2263.50822 C2316.54416,2262.98976 2317.47616,2262.48127 2318.38812,2261.95284 C2320.10181,2260.96578 2321.79545,2259.91889 2323.48909,2258.872 C2324.52131,2258.2339 2325.56355,2257.5958 2326.58575,2256.93775 C2328.15913,2255.92078 2329.70244,2254.85395 2331.25578,2253.79709 C2332.32809,2253.05928 2333.40039,2252.33145 2334.46268,2251.5737 C2335.97593,2250.47696 2337.45912,2249.34034 2338.95233,2248.20372 C2339.98455,2247.41606 2341.03681,2246.63837 2342.04898,2245.83077 C2343.64241,2244.56454 2345.20577,2243.22851 2346.77915,2241.90245 C2347.63098,2241.17462 2348.51288,2240.46672 2349.36471,2239.72891 C2351.74984,2237.62517 2354.1049,2235.4616 2356.40985,2233.22824 C2358.91524,2230.79547 2361.34045,2228.30288 2363.70554,2225.76044 C2364.46717,2224.94287 2365.16868,2224.09539 2365.9203,2223.25788 C2367.47363,2221.52304 2369.037,2219.77823 2370.53021,2217.98356 C2371.4121,2216.91673 2372.25391,2215.82996 2373.11576,2214.75317 C2374.37848,2213.15791 2375.64119,2211.57262 2376.8538,2209.94745 C2377.7858,2208.70116 2378.67772,2207.43492 2379.57966,2206.16869 C2380.63192,2204.69307 2381.67416,2203.20749 2382.67631,2201.71194 C2383.63838,2200.27621 2384.56036,2198.8305 2385.47232,2197.37483 C2386.32415,2196.0388 2387.15594,2194.69281 2387.96769,2193.32687 C2388.93978,2191.69173 2389.90185,2190.03665 2390.82383,2188.3716 C2391.46521,2187.22501 2392.08654,2186.06845 2392.69786,2184.91188 C2393.71003,2183.01752 2394.70216,2181.10321 2395.64419,2179.16896 C2396.04505,2178.34142 2396.42587,2177.50391 2396.81671,2176.67637 C2397.88901,2174.40313 2398.94128,2172.12988 2399.91337,2169.82673 C2399.98352,2169.66721 2400.04365,2169.49771 2400.10377,2169.33818 C2401.12597,2166.91539 2402.07802,2164.46268 2403,2162 C2393.53966,2165.0609 2383.6484,2169.49771 2373.39637,2175.27055 C2337.29877,2195.61008 2318.8892,2230.11749 2299.3973,2266.64888" id="Fill-30" fill="#D1DA32"></path>
        <path d="M2278.99094,2041.19114 C2323.67791,1999.1019 2330.91931,1960.38698 2325.40586,1930.53716 C2312.79083,1922.43078 2299.43668,1915.90176 2285.62307,1911 C2306.24859,1945.85141 2296.95962,1982.11046 2257.93593,2018.8487 C2227.83166,2047.18107 2189.38728,2054.49877 2148.68559,2062.24575 C2109.31231,2069.73316 2065.54426,2078.05917 2027,2107.55958 C2027.839,2119.48952 2029.79668,2131.34958 2032.84307,2143 C2068.14117,2108.84741 2110.11136,2100.8209 2154.42877,2092.38509 C2197.66745,2084.15891 2242.3744,2075.6632 2278.99094,2041.19114" id="Fill-31" fill="#FFFFFE"></path>
        <path d="M2272.31232,2252.83133 C2266.48158,2263.85412 2260.45082,2275.15775 2254,2286 C2268.35182,2283.52263 2282.4636,2279.40037 2296.07533,2273.67333 C2297.21547,2271.53698 2298.34561,2269.40062 2299.46576,2267.28433 C2318.91822,2230.53501 2337.29054,2195.82175 2373.3151,2175.36088 C2383.5464,2169.55361 2393.41765,2165.09033 2402.85884,2162.01117 C2406.94936,2150.9282 2409.97974,2139.53431 2412,2128 C2394.86783,2131.10925 2376.82555,2137.93957 2358.17319,2148.5411 C2314.34764,2173.42513 2292.97493,2213.79521 2272.31232,2252.83133" id="Fill-32" fill="#FFFFFE"></path>
        <path d="M2317.74372,2262.07268 C2316.83356,2262.60285 2315.9034,2263.11301 2314.98324,2263.63318 C2313.0829,2264.69352 2311.17257,2265.74385 2309.24223,2266.73417 C2308.4921,2267.1243 2307.75197,2267.49442 2307.00183,2267.87454 C2304.81145,2268.95488 2302.62106,2270.01522 2300.41067,2271.01555 C2299.89058,2271.25562 2299.38049,2271.47569 2298.8704,2271.70577 C2297.7202,2272.21593 2296.56,2272.67608 2295.39979,2273.15623 C2281.7874,2278.86806 2267.67492,2282.97938 2253.32239,2285.45017 C2192.29165,2295.96354 2127.24021,2277.29756 2080.86205,2229.68229 C2056.57778,2204.7643 2040.40493,2174.92473 2032.18349,2143.44464 C2029.13295,2131.7709 2027.17261,2119.88709 2026.33246,2107.93326 C2023.52196,2068.38057 2032.69358,2028.16768 2053.8373,1993.27649 C2053.94732,1993.08643 2054.06734,1992.89637 2054.18736,1992.70631 C2055.66762,1990.27553 2057.21789,1987.86476 2058.82818,1985.48399 C2059.24825,1984.85379 2059.68833,1984.23359 2060.1284,1983.61339 C2061.50865,1981.60275 2062.9189,1979.61211 2064.38915,1977.65148 C2065.15929,1976.63115 2065.95943,1975.63083 2066.73957,1974.63051 C2067.97979,1973.04 2069.22,1971.44949 2070.51023,1969.88899 C2071.72044,1968.42852 2073.00067,1967.01807 2074.26089,1965.58761 C2075.24106,1964.47726 2076.18123,1963.3469 2077.19141,1962.25655 C2079.53182,1959.71573 2081.94224,1957.23494 2084.43268,1954.80416 C2086.52305,1952.7635 2088.67343,1950.79287 2090.84381,1948.86225 C2091.54393,1948.24205 2092.25406,1947.62185 2092.96418,1947.01166 C2094.49445,1945.68123 2096.05472,1944.39082 2097.625,1943.11041 C2098.40514,1942.4802 2099.17527,1941.83 2099.96541,1941.2098 C2101.87575,1939.70932 2103.81609,1938.25885 2105.75643,1936.8384 C2107.15668,1935.82807 2108.57693,1934.83775 2109.99718,1933.86744 C2110.64729,1933.4173 2111.29741,1932.97716 2111.95752,1932.53702 C2135.57168,1916.77196 2162.22637,1906.49867 2189.86123,1902.13727 C2190.77139,1901.98722 2191.68155,1901.83717 2192.59171,1901.70713 C2193.99195,1901.50707 2195.4022,1901.32701 2196.81245,1901.15696 C2198.53275,1900.95689 2200.25305,1900.76683 2201.98336,1900.60678 C2202.82351,1900.52675 2203.67366,1900.43672 2204.5138,1900.3667 C2207.36431,1900.13663 2210.21481,1899.96657 2213.06531,1899.86654 C2213.25534,1899.85654 2213.44538,1899.85654 2213.62541,1899.85654 C2237.86967,1899.05628 2262.21395,1902.78748 2285.30802,1910.9801 C2299.14045,1915.89168 2312.5128,1922.43378 2325.14503,1930.55638 C2337.28716,1938.36889 2348.76918,1947.60185 2359.26103,1958.3753 C2404.53899,2004.8502 2421.76202,2068.37057 2411.33019,2127.86965 C2409.30983,2139.37334 2406.2793,2150.73698 2402.18858,2161.79052 C2401.26842,2164.26132 2400.31825,2166.7221 2399.29807,2169.15288 C2399.23806,2169.31294 2399.17805,2169.48299 2399.10804,2169.64304 C2398.13787,2171.95378 2397.08768,2174.23451 2396.01749,2176.51524 C2395.62742,2177.34551 2395.24736,2178.18578 2394.84729,2179.01605 C2393.90712,2180.95667 2392.91695,2182.87728 2391.90677,2184.77789 C2391.29666,2185.93827 2390.67655,2187.09864 2390.03644,2188.24901 C2389.11628,2189.91954 2388.15611,2191.58008 2387.18594,2193.2206 C2386.3758,2194.59104 2385.54565,2195.94147 2384.6955,2197.2819 C2383.78534,2198.74237 2382.86518,2200.19284 2381.90501,2201.6333 C2380.90483,2203.13378 2379.86465,2204.62426 2378.81447,2206.10473 C2377.91431,2207.37514 2377.02415,2208.64555 2376.09399,2209.89595 C2374.88378,2211.52647 2373.62355,2213.11698 2372.36333,2214.71749 C2371.50318,2215.79784 2370.66303,2216.88819 2369.78288,2217.95853 C2368.29262,2219.75911 2366.73234,2221.50967 2365.18207,2223.25023 C2364.43194,2224.0905 2363.73181,2224.94077 2362.97168,2225.76103 C2360.61126,2228.31185 2358.19084,2230.81265 2355.6904,2233.25344 C2353.38999,2235.49416 2351.03958,2237.66485 2348.65916,2239.77553 C2347.80901,2240.51577 2346.92886,2241.22599 2346.07871,2241.95623 C2344.50843,2243.28665 2342.94816,2244.62708 2341.35788,2245.89749 C2340.3477,2246.70775 2339.29751,2247.488 2338.26733,2248.27825 C2336.77707,2249.41862 2335.29681,2250.55899 2333.78655,2251.65934 C2332.72636,2252.41958 2331.65617,2253.14982 2330.58598,2253.89005 C2329.03571,2254.95039 2327.49544,2256.02074 2325.92516,2257.04106 C2324.90498,2257.70128 2323.8648,2258.34148 2322.83462,2258.98169 C2321.14432,2260.03202 2319.45402,2261.08236 2317.74372,2262.07268 Z M2384.33544,2247.90814 C2384.98555,2247.21791 2385.62566,2246.51769 2386.25578,2245.81747 C2388.16611,2243.7368 2390.01644,2241.62612 2391.82676,2239.49544 C2392.24683,2238.99528 2392.68691,2238.51512 2393.09698,2238.01496 C2395.25736,2235.42413 2397.33773,2232.80329 2399.35808,2230.14244 C2399.82816,2229.52224 2400.28824,2228.88204 2400.75833,2228.26184 C2402.41862,2226.03112 2404.0289,2223.7704 2405.59918,2221.48967 C2406.00925,2220.88947 2406.42932,2220.29928 2406.8394,2219.68909 C2410.77009,2213.84721 2414.41073,2207.85529 2417.73131,2201.74333 C2417.88134,2201.47325 2418.03137,2201.19316 2418.18139,2200.92307 C2420.26176,2197.07184 2422.1821,2193.14058 2424.03242,2189.1693 C2424.54251,2188.07895 2425.0426,2186.9786 2425.53269,2185.87825 C2426.81291,2183.02733 2427.98312,2180.13641 2429.14332,2177.24548 C2430.35353,2174.16449 2431.50374,2171.0735 2432.57392,2167.9525 C2432.93399,2166.92217 2433.29405,2165.89184 2433.63411,2164.86151 C2435.79449,2158.34942 2437.76484,2151.76731 2439.32511,2145.04515 C2439.42513,2144.62502 2439.40513,2144.19488 2439.46514,2143.77475 C2455.63798,2071.9017 2436.4046,1993.50657 2381.2849,1936.91842 C2358.27085,1913.30085 2331.2661,1895.88526 2302.39102,1884.58164 C2301.93094,1884.35157 2301.48086,1884.10149 2300.99078,1883.92143 C2272.32573,1872.88789 2242.24044,1868.10636 2212.54522,1869.13669 C2212.10514,1869.15669 2211.67506,1869.1767 2211.23499,1869.19671 C2208.55452,1869.30674 2205.87404,1869.46679 2203.19357,1869.66686 C2202.09338,1869.75689 2200.98318,1869.83691 2199.88299,1869.93694 C2197.90264,1870.107 2195.93229,1870.33707 2193.96195,1870.56715 C2190.72138,1870.94727 2187.50081,1871.38741 2184.28024,1871.90758 C2183.66014,1872.00761 2183.04003,1872.08763 2182.42992,1872.19767 C2180.0595,1872.5978 2177.68909,1873.03794 2175.33867,1873.51809 C2175.00861,1873.58812 2174.68856,1873.64813 2174.3685,1873.71816 C2146.60362,1879.42999 2119.70889,1890.41351 2095.28459,1906.69873 C2094.57446,1907.17889 2093.87434,1907.65904 2093.16422,1908.13919 C2091.41391,1909.32958 2089.6636,1910.52996 2087.9433,1911.78036 C2085.6629,1913.44089 2083.4025,1915.13144 2081.17211,1916.882 C2080.16193,1917.68225 2079.16175,1918.51252 2078.16158,1919.32278 C2076.41127,1920.74324 2074.68096,1922.1837 2072.97066,1923.66417 C2072.12051,1924.40441 2071.27036,1925.13464 2070.43022,1925.88488 C2067.90977,1928.1256 2065.40933,1930.40633 2062.97891,1932.7871 C2059.80835,1935.87809 2056.77782,1939.05911 2053.81729,1942.29014 C2052.77711,1943.43051 2051.77694,1944.60088 2050.76676,1945.76126 C2048.93644,1947.84192 2047.13612,1949.9526 2045.38581,1952.10329 C2044.1756,1953.59377 2042.97539,1955.09425 2041.79518,1956.61474 C2040.44494,1958.3753 2039.13471,1960.15587 2037.83448,1961.94645 C2036.49425,1963.78704 2035.14401,1965.61762 2033.86378,1967.48822 C2033.42371,1968.12843 2033.02364,1968.79864 2032.59356,1969.44885 C2000.74796,2017.14414 1988.29577,2075.28279 1998.46756,2133.04131 C1998.63759,2133.98161 1998.80762,2134.91191 1998.98765,2135.85221 C1999.37772,2137.92287 1999.68777,2139.99353 2000.13785,2142.0642 C2000.23787,2142.55436 2000.3979,2143.0145 2000.54792,2143.47465 C2009.32947,2182.79726 2028.72288,2220.22926 2058.83818,2251.13917 C2113.91787,2307.6673 2191.69155,2328.95412 2263.89425,2314.71956 C2264.59437,2314.67955 2265.2945,2314.58952 2265.99462,2314.44947 C2272.57578,2313.07903 2279.02691,2311.31847 2285.41804,2309.37785 C2286.42821,2309.06775 2287.41839,2308.74764 2288.41856,2308.42754 C2291.63913,2307.41722 2294.82969,2306.32687 2298.01025,2305.15649 C2301.00078,2304.05614 2303.9813,2302.92578 2306.92182,2301.69538 C2307.972,2301.25524 2309.00219,2300.79509 2310.04237,2300.34495 C2313.98306,2298.6244 2317.89375,2296.84383 2321.73443,2294.8932 C2322.04448,2294.74315 2322.35453,2294.5831 2322.66459,2294.42305 C2325.75513,2292.84254 2328.81567,2291.19201 2331.8462,2289.46146 C2331.88621,2289.44145 2331.93622,2289.41144 2331.97623,2289.39144 C2334.96675,2287.67089 2337.92727,2285.87031 2340.84779,2284.00971 C2341.4579,2283.61959 2342.068,2283.21946 2342.67811,2282.81933 C2344.96851,2281.32885 2347.23891,2279.78836 2349.48931,2278.19785 C2350.16943,2277.7277 2350.84955,2277.25755 2351.51967,2276.77739 C2354.21014,2274.83677 2356.88061,2272.83613 2359.51107,2270.75546 C2360.00116,2270.36534 2360.47124,2269.96521 2360.95132,2269.57508 C2363.15171,2267.81452 2365.32209,2265.99394 2367.47247,2264.12334 C2368.1826,2263.51314 2368.89272,2262.89294 2369.60285,2262.26274 C2372.15329,2259.99201 2374.67374,2257.68127 2377.14417,2255.2705 C2379.61461,2252.86973 2381.99503,2250.39893 2384.33544,2247.90814 L2384.33544,2247.90814 Z" id="Fill-33" fill="#1B1A19"></path>
    </g>
</svg>