<svg height="2522" viewBox="0 0 2522 2522" width="2522" xmlns="http://www.w3.org/2000/svg"><g fill="none" fill-rule="evenodd"><path d="m0 2522h2800v-2800h-2800z"/><path d="m1486.02873 1702c-20.76134 29.12707-56.78162 49.64274-112.05532 64.57048-18.5444 5.00918-37.50822 16.79372-59.46791 30.43424-3.4053 2.10545-6.92045 4.28075-10.5055 6.48599 23.0382 8.48167 64.72066 18.71955 129.94063 17.39242 29.82883-.60869 44.75822-3.24299 62.03437-6.28642 19.16355-3.38269 40.89356-7.21441 86.19103-9.14025 29.58915-1.25728 42.50133-18.61977 47.83397-30.09497-15.10914-7.5437-32.77476-14.04964-50.01097-20.37598-36.81917-13.49085-74.53711-27.32096-93.9603-52.98551" fill="#c7a17e"/><path d="m1719.40004 1616.27213c-13.81122 0-25.0022-11.19199-25.0022-24.99445s11.19098-24.99446 25.0022-24.99446c13.80121 0 24.99219 11.192 24.99219 24.99446s-11.19098 24.99445-24.99219 24.99445zm-57.49505 61.42095c-13.80121 0-24.99219-11.192-24.99219-24.99446 0-13.81246 11.19098-25.00445 24.99219-25.00445s24.99219 11.19199 24.99219 25.00445c0 13.80246-11.19098 24.99446-24.99219 24.99446zm-51.38451-159.00834c0-13.80246 11.19099-24.99445 25.0022-24.99445 13.80121 0 24.99219 11.19199 24.99219 24.99445 0 13.81246-11.19098 24.99446-24.99219 24.99446-13.81121 0-25.0022-11.182-25.0022-24.99446zm-29.75261 105.93888c-13.80121 0-24.99219-11.19199-24.99219-24.99445s11.19098-24.99446 24.99219-24.99446c13.80122 0 24.9922 11.192 24.9922 24.99446s-11.19098 24.99445-24.9922 24.99445zm-275.57417 74.97336c-13.81121 0-25.00219-11.19199-25.00219-24.99445s11.19098-24.99446 25.00219-24.99446c13.80121 0 24.99219 11.192 24.99219 24.99446s-11.19098 24.99445-24.99219 24.99445zm-35.71313-146.41609c0-13.80246 11.19098-24.99445 24.99219-24.99445 13.81121 0 25.00219 11.19199 25.00219 24.99445 0 13.81246-11.19098 25.00446-25.00219 25.00446-13.80121 0-24.99219-11.192-24.99219-25.00446zm115.46013 34.52615c13.80121 0 24.99219 11.192 24.99219 24.99446s-11.19098 24.99445-24.99219 24.99445c-13.81121 0-25.0022-11.19199-25.0022-24.99445s11.19099-24.99446 25.0022-24.99446zm-163.06431 66.66188c-13.81121 0-25.00219-11.19199-25.00219-25.00445 0-13.80246 11.19098-24.99446 25.00219-24.99446 13.80121 0 24.99219 11.192 24.99219 24.99446 0 13.81246-11.19098 25.00445-24.99219 25.00445zm553.46855-99.40771c-55.80489-37.21664-109.72962-114.4704-166.82463-196.25498l-.34003-.48008c-60.15528-86.18536-186.82639-75.91353-188.0865-75.78351-130.83148 10.51188-173.86525 75.95354-219.41925 145.23588-23.71208 36.06643-48.23423 73.35308-85.5275 101.81815-18.51162 14.13252-40.37354 26.58474-63.50557 39.77709-60.467304 34.47614-122.917782 70.10249-130.64146 138.68471 4.999439 3.74067 9.834863 7.77139 14.461269 12.13216 28.27548 26.68476 43.66983 58.77048 50.330414 86.02533 26.466327 20.94373 55.848897 26.60474 91.662037 28.48508 110.43969 4.71084 171.48505-33.24593 220.52935-63.72136 24.0021-14.92266 44.73392-27.81495 67.56593-33.98605 79.54697-21.49383 98.98868-50.70904 107.14939-76.59365 12.68112-66.98194-.63005-111.6499-.76006-112.09998-.65006-2.11037-.78007-4.25076-.51005-6.31112-13.33117-4.30077-34.36301-11.7921-55.8649-22.29398-48.01421-23.45418-75.18659-49.87888-80.77708-78.54399-2.89026-14.77263.28002-27.89497 9.41082-38.97695 32.03281-38.88693 124.75095-39.33701 125.68103-39.33701l9.1608-.03c88.45776 0 94.49829 41.07732 96.48846 54.56972 7.13063 48.52865-44.4639 102.73831-74.91657 122.10176.86008 2.7805 15.39135 51.49918 1.84016 124.89226 2.91026 30.68546 44.01387 45.82816 87.57769 61.81101 22.73199 8.33148 46.22405 16.95302 65.61575 28.47507 36.65322 21.75388 108.71954 32.40578 157.58383 13.54242 26.2723-10.14181 43.3338-27.4649 50.73445-51.47918 24.18212-78.62401-28.12247-121.33162-88.61778-161.6588z" fill="#4f433b"/><path d="m2207.30027 1614.58305c-85.65403-75.5467-178.48593-36.02704-179.41695-35.61673-7.59835 3.3325-16.45807-.11008-19.79173-7.69577-3.34367-7.5957.11012-16.45235 7.69845-19.78485 1.34147-.59045 11.843-5.04379 28.50129-8.68652-40.90491-71.27349-101.51144-128.23624-138.12162-158.79918 15.65718 74.84617 4.91539 169.68735-36.16971 212.1292 22.5948 28.83164 36.7103 65.66929 26.71933 113.48517 1.78196 1.82137 3.16347 4.07306 3.84422 6.71504.43047 1.6012 11.47259 41.20092 55.40082 60.71557 37.9917 16.87266 71.71873 13.60021 88.15677 10.27771-1.10121-9.61721-3.67403-23.89793-9.74069-37.23794-3.43377-7.54567-.0901-16.44234 7.45818-19.87492 7.5583-3.42257 16.45807-.08006 19.88183 7.4556 8.0188 17.64324 11.18228 36.01703 12.43365 47.94598 51.25627 6.15462 90.26909-9.9875 104.88514-17.37304-.55061-1.89142-.73081-3.92294-.48053-6.00451 3.20352-25.82938-10.91198-51.92897-11.06214-52.18916-3.97437-7.25545-1.34148-16.3823 5.90648-20.3753 7.23794-3.99299 16.35796-1.39104 20.37236 5.83438.74082 1.32099 17.03871 31.15338 15.09657 64.56846 20.79283-5.64423 30.41339-20.22518 34.85827-32.68453 12.47369-34.98626-3.19351-83.48265-36.42999-112.80466" fill="#c7a17e"/><path d="m1290.52637 685.089375c86.58179-4.56029 172.26419 5.480146 247.47363 27.332741-.60959-.376942-1.20919-.766881-1.7788-1.240807-.26982-.224965-29.96986-24.654159-86.90158-47.663573-52.5147-21.229692-139.66611-45.544904-256.51755-40.953619-45.19962 1.783722-86.92157 9.070587-130.80207 22.734458 7.48497 25.680998 14.64016 52.604803 21.46557 80.701425 46.43878-18.241158 113.56365-35.988392 207.0608-40.910625" fill="#c7a17e"/><path d="m914.99427 1742.62309c-27.815541-26.24745-64.449205-38.86622-105.804469-36.44645-34.286365 2.28977-80.850293 14.49858-94.829073 22.87777-7.094903 4.26958-16.318077 1.96981-20.58062-5.1395-4.263543-7.09931-1.96125-16.31841 5.144655-20.578 19.501483-11.69886 71.16806-24.6176 108.3978-27.09736 4.593585-.26997 9.123161-.32997 13.618734-.28997-6.861874-17.59829-21.383723-50.60507-44.653685-83.94182-1.365174-1.30988-2.527322-2.86972-3.342426-4.69955-.006-.01999-.011001-.02999-.011001-.02999-13.89977-19.22813-30.71491-38.30627-50.691454-54.37471-6.455821-5.18949-7.478952-14.63857-2.28529-21.08794 5.18666-6.45937 14.630862-7.47927 21.091685-2.28978 4.432564 3.56965 8.696107 7.26929 12.839634 11.04892-5.332679-42.56585 3.104396-79.19228 11.411453-114.9588 6.111778-26.31743 12.430583-53.52478 13.019658-83.00191.390049-19.47811-3.619461-43.59576-8.258052-71.51304-8.323059-50.05512-18.396342-110.89919-7.515957-175.4929-24.737149-7.2193-101.282894-35.9565-140.983948-122.60806-57.191281 76.61254-88.572276 178.28263-90.778557 295.19125-1.562199 82.76194 16.57511 135.40681 27.342481 159.16449 9.512211-7.26929 16.02604-11.42888 17.216192-12.17881 7.024894-4.37957 16.279072-2.25978 20.671631 4.76953 4.39256 7.02932 2.256288 16.27842-4.771607 20.66799-1.306166.81992-132.049811 84.54177-120.522344 215.94897 8.343063 95.07074 122.920649 195.63094 124.075796 196.63084 1.72122 1.49986 3.083393 3.36968 3.974506 5.46947 1.675214 3.85963 41.814324 92.92095 162.179647 76.26257 6.764861-26.76739-6.561835-56.59448-6.702853-56.90445-3.504446-7.49927-.257033-16.4284 7.251923-19.92806 7.507956-3.49966 16.432092-.25998 19.938538 7.24929.710091 1.51985 15.843017 34.68662 10.114288 69.58322 47.380032 4.61955 81.874423-10.41898 95.287131-17.63828 1.41318-29.69711-7.703981-62.88387-7.797993-63.22384-2.227283-7.97922 2.43631-16.25842 10.418327-18.4782 7.980015-2.23978 16.252069 2.42976 18.481352 10.40899.403052 1.44985 8.770117 31.85689 9.060154 63.31383 15.358955-3.69964 37.7038-15.4685 42.999474-52.43489-.339043-26.26745-14.29582-65.27365-45.00573-94.25082" fill="#c7a17e"/><path d="m706.256765 333.535566c12.911725-5.4473 26.001501-8.210438 38.903223-8.210438 29.666558 0 58.334828 14.334527 85.207581 42.604706 89.383785 94.03066 134.787883 313.576156 132.604253 356.12188-3.975146 77.455832-54.483717 85.093449-84.660423 89.662023-10.119919 1.529523-20.584938 3.10903-25.239281 6.527964-7.241088 5.308343-11.299259 16.414878-16.000615 29.270866-8.437435 23.092795-19.993768 54.712928-60.610485 67.019088-5.490584 1.659483-11.192229 2.499221-16.940888 2.499221h-.003c-11.941445 0-29.583535-3.688849-45.804214-21.283359-33.224585-36.018762-45.150025-114.534263-35.444225-233.353188 3.142907-38.468996-6.456863-83.29201-15.739541-126.640484-17.937174-83.759865-36.482524-170.37084 43.727615-204.218279zm278.889454 867.787224c18.298281-15.88504 38.994251-18.2643 49.707341-18.2643 4.77138 0 7.70222.46986 7.83226.48985 60.09734 13.57576 73.04107 110.61548 65.10878 147.30404-6.35183 19.224-33.36963 68.43864-82.26373 68.43864-.99029 0-1.99057-.02999-3.00087-.05998-37.402786-1.5895-74.347444-33.29961-72.576933-100.57862 1.194344-45.32585 13.03576-78.07564 35.193152-97.32963zm282.884611-6.65792c1.81052-1.40956 45.26305-34.43925 131.16784-41.10717 59.92728-4.64855 128.37703 23.78258 131.25786 25.0022 7.64221 3.20899 11.22324 11.99625 8.01231 19.62387-3.21092 7.63762-12.00346 11.2165-19.64566 8.0175-.64019-.26992-64.71867-26.83163-117.30384-22.73291-77.02222 5.96814-114.70309 34.58921-115.0732 34.87912-2.74079 2.11934-5.98173 3.14902-9.19265 3.14902-4.4813 0-8.90257-1.98938-11.86343-5.79819-5.08146-6.53796-3.90112-15.95502 2.64077-21.03344zm436.82601-21.20338c15.5845-17.3046 33.20958-18.18433 36.59056-18.18433l.53015.01s.93027-.11997 2.38069-.11997c9.24266 0 40.88179 4.03874 59.94729 56.01253 14.79427 40.33741 14.65423 87.08282-.37011 116.3337-6.83197 13.30585-16.36472 21.97314-27.56795 25.08217-4.68135 1.2996-9.75281 1.95939-15.08435 1.95939-34.56997 0-74.08137-27.81132-79.47293-49.37459-6.68192-63.1603 1.10032-107.34651 23.04665-131.7189zm12.73368-406.733092c-18.53535-3.87879-35.26018-16.744775-47.06358-36.228696-20.57594-33.925414-36.47052-104.943254 4.59132-250.642792 35.86035-127.218304 84.66443-191.722177 145.08186-191.722177 9.50274 0 19.24555 1.662481 28.97836 4.945456 81.28345 27.427442 67.68952 120.491404 54.54573 210.493321-1.53044 10.506721-3.07088 21.035436-4.46128 31.476178-6.44186 48.336918-1.34039 92.725068 3.58103 135.651673 5.5516 48.380904 10.79311 94.077645-3.37097 135.294785-11.86343 34.509232-37.68087 56.812273-65.78898 56.812273-36.56055 0-57.16649-34.739161-64.25854-67.249017-3.57103-16.314909-14.03405-21.573268-18.28528-23.062804-2.28065-.02999-8.14234-.439862-33.54967-5.7682zm-1086.308384-35.548908c-2.278657 27.581394-4.857401 58.831643-3.264942 109.505832 4.834395 153.782015 112.584479 196.168788 141.681873 204.816088 10.01989-37.10842 27.816024-75.086568 57.630625-112.654845 5.148485-6.487976 14.582207-7.587633 21.080081-2.429242 6.491873 5.148393 7.581187 14.575452 2.432702 21.063427-82.093682 103.44772-64.537618 209.02478-50.429548 293.85831 4.88641 29.39083 9.106627 54.76291 8.662499 77.00597-.652188 32.60983-7.334116 61.36085-13.792979 89.17218-11.558334 49.74447-22.397461 96.80979 4.618332 159.75015 35.7013 50.06438 52.455133 99.42898 54.894837 106.98662 13.819986 2.65917 27.000789 6.90784 39.389363 12.74602 15.109359-74.72668 83.003945-113.4646 143.519401-147.93384 22.24642-12.67605 43.25248-24.64231 60.17736-37.54828 33.23959-25.35209 55.31596-58.89163 78.6727-94.40055 47.52371-72.22746 96.66788-146.91416 241.9798-158.57052 5.73166-.53983 145.03184-12.12622 215.29211 88.4624l.3401.47985c55.43599 79.35524 107.7911 154.31185 158.89584 188.36122 17.29499 11.52641 38.63114 25.75197 57.76666 43.83633 34.52996-37.47831 44.75291-138.84668 19.3956-211.72394-25.08724-72.06751-20.806-124.78107-16.66481-175.75516 2.18063-26.77165 4.43128-54.46301 2.63076-85.61329-6.40185-110.885398-72.13081-182.473061-72.801-183.182839-5.64163-6.05811-5.32154-15.54515.74021-21.203384 6.06175-5.648238 15.55449-5.318341 21.20612.739769 1.7305 1.849423 25.78744 28.081238 47.29364 73.067201 114.31298-43.276496 102.51958-163.908856 91.03626-280.703413-4.1612-42.260813-8.08233-82.177358-5.8917-117.573314 1.10032-17.795447 3.49101-37.940161 6.03174-59.266507 16.59479-139.846364 19.83573-257.197747-108.95143-276.471733-229.03607 7.661609-265.25652 472.611532-265.59662 477.315065-.20005 2.837114-1.23035 5.403314-2.76079 7.566639 63.50832 21.69423 118.04405 52.194713 157.18534 89.613038 5.99173 5.718216 6.20179 15.215252.48014 21.203384-2.95085 3.079039-6.90199 4.628556-10.85313 4.628556-3.72107 0-7.45215-1.37957-10.36299-4.158703-82.45378-78.825404-247.39137-126.021678-410.4384-117.452351-167.90844 8.826246-245.4008 60.080253-270.85814 76.924997-3.08089 2.039364-5.5316 3.638864-7.39213 4.738521-7.13206 4.208687-16.333715 1.839426-20.543929-5.298346-4.213216-7.127776-1.841531-16.324907 5.296528-20.533593 1.523441-.89972 3.534021-2.239302 6.074751-3.918778 9.51275-6.298034 25.87747-17.094666 50.65461-28.870991-39.1813-162.671242-111.003018-368.450034-232.305011-437.892366-40.565703-23.225753-84.074254-28.74603-125.820297-15.974015-84.386344 25.818943-111.82626 120.05254-79.355893 272.514968 19.783707 92.881018 16.801847 129.019742 13.023757 174.773465z" fill="#c7a17e"/><g fill="#fffffe"><path d="m1513.99499 1427c17.12038 0 31.00501-8.5021 31.00501-19s-13.88463-19-31.00501-19c-17.12037 0-30.99499 8.5021-30.99499 19s13.87462 19 30.99499 19"/><path d="m1045.40701 1281.99225c9.64778-.34023 17.06602-11.80815 16.56945-25.60767-.49658-13.80954-8.72556-24.71707-18.38347-24.37683-9.64778.34023-17.06602 11.80815-16.56945 25.60767.49658 13.80954 8.72556 24.71707 18.38347 24.37683"/><path d="m1049.38094 1295.00521c-6.62349.24347-11.70687 8.26794-11.36462 17.92571.34224 9.66792 5.98932 17.30689 12.60274 17.06342 6.62349-.23333 11.70687-8.2578 11.36462-17.92572-.34224-9.65777-5.98932-17.29674-12.60274-17.06341"/><path d="m1757.57272 1253.90941c9.51486-1.17469 15.85139-13.27297 14.15159-27.02786-1.6998-13.7549-10.78217-23.95561-20.29703-22.79096-9.51486 1.17469-15.85139 13.27297-14.15159 27.02786 1.68974 13.7549 10.78217 23.95561 20.29703 22.79096"/><path d="m1758.89303 1268.06143c-6.52064.80094-10.86439 9.02795-9.70606 18.38221 1.16832 9.35427 7.39937 16.28591 13.92 15.49486 6.52064-.79106 10.86439-9.01807 9.70606-18.37233-1.16832-9.35427-7.39937-16.2958-13.92-15.50474"/></g><g fill="#1b1a19"><path d="m1320 1553.995c0-13.80276-11.19224-24.995-25.005-24.995-13.80276 0-24.995 11.19224-24.995 24.995 0 13.81276 11.19224 25.005 24.995 25.005 13.81276 0 25.005-11.19224 25.005-25.005"/><path d="m1385.005 1638c13.80276 0 24.995-11.19448 24.995-25s-11.19224-25-24.995-25c-13.81276 0-25.005 11.19448-25.005 25s11.19224 25 25.005 25"/><path d="m1306.005 1650c-13.81276 0-25.005 11.19448-25.005 25s11.19224 25 25.005 25c13.80276 0 24.995-11.19448 24.995-25s-11.19224-25-24.995-25"/><path d="m1222.005 1605c-13.81276 0-25.005 11.19224-25.005 24.995 0 13.81276 11.19224 25.005 25.005 25.005 13.80276 0 24.995-11.19224 24.995-25.005 0-13.80276-11.19224-24.995-24.995-24.995"/><path d="m1661 1519c0-13.80552-11.19224-25-24.995-25-13.81276 0-25.005 11.19448-25.005 25 0 13.81553 11.19224 25 25.005 25 13.80276 0 24.995-11.18447 24.995-25"/><path d="m1581 1575c-13.80552 0-25 11.19448-25 25s11.19448 25 25 25 25-11.19448 25-25-11.19448-25-25-25"/><path d="m1720.005 1567c-13.81276 0-25.005 11.19448-25.005 25s11.19224 25 25.005 25c13.80276 0 24.995-11.19448 24.995-25s-11.19224-25-24.995-25"/><path d="m1662 1628c-13.80552 0-25 11.19224-25 25.005 0 13.80276 11.19448 24.995 25 24.995s25-11.19224 25-24.995c0-13.81276-11.19448-25.005-25-25.005"/><path d="m1043.34891 1232.72233c9.53219-.33953 17.65406 10.54535 18.14417 24.32621.49012 13.77088-6.83157 25.21498-16.35376 25.55451-9.5322.33953-17.65407-10.54535-18.14418-24.32621-.49011-13.77088 6.83157-25.21498 16.35377-25.55451zm6.64153 97.21498c-6.57152.23967-12.18281-7.27989-12.52289-16.79667-.34008-9.5068 4.71109-17.40583 11.2926-17.64549 6.57152-.22969 12.18281 7.28987 12.52289 16.79667.34007 9.51678-4.71109 17.41581-11.2926 17.64549zm-28.35654 70.00277c1.01024.02996 2.01047.05992 3.0007.05992 48.89126 0 75.90748-49.16172 82.25894-68.36505 7.93183-36.6491-5.01115-133.58446-65.10499-147.14563-.13003-.01997-3.06071-.48932-7.83181-.48932-10.71247 0-31.40723 2.3767-49.704446 18.24466-22.156104 19.23329-33.996831 51.94785-35.191106 97.22497-1.770408 67.20665 35.172101 98.88266 72.572712 100.47045z"/><path d="m1752.0903 1204.33071c9.47583-1.15738 18.52095 8.97969 20.21378 22.64878s-4.61772 25.69191-14.09355 26.85927c-9.47584 1.15738-18.53097-8.9797-20.21379-22.64879-1.69282-13.66909 4.61772-25.6919 14.09356-26.85926zm11.49922 97.89862c-6.54094.7982-12.79138-6.19599-13.96334-15.63464-1.16194-9.43866 3.19534-17.73989 9.73627-18.54806 6.54093-.7982 12.79138 6.20596 13.96334 15.64462 1.16194 9.43866-3.19534 17.73989-9.73627 18.53808zm-2.68449 52.77067c5.33892 0 10.41741-.65851 15.10524-1.95558 11.21875-3.10298 20.7647-11.75342 27.60614-25.03339 15.04514-29.19398 15.18538-75.84848.37062-116.10745-19.09191-51.8727-50.77486-55.90358-60.03032-55.90358-1.45243 0-2.38399.09977-2.38399.09977l-.53089.00998c-3.38565 0-21.03515.87802-36.64123 18.14896-21.97673 24.325-29.76975 68.42527-23.07857 131.46272 5.39902 21.52134 44.96515 49.27857 79.583 49.27857z"/><path d="m745.177854 325c-12.89788 0-25.983758 2.764507-38.890638 8.214507-80.187255 33.864215-61.647427 120.518116-43.715594 204.320494 9.279914 43.368958 18.876825 88.214187 15.734854 126.70225-9.70291 118.877814 2.218979 197.432229 35.43367 233.468842 16.21585 17.60323 33.852686 21.293907 45.790575 21.293907h.003c5.746946 0 11.446893-.840154 16.935842-2.500459 40.604623-12.312259 52.157515-43.948064 60.592437-67.052304 4.699956-12.86236 8.756918-23.974399 15.995851-29.285374 4.652957-3.420628 15.11486-5.000918 25.231765-6.531198 30.16772-4.570839 80.661251-12.212241 84.635214-89.706462 2.182979-42.566811-43.207599-262.221118-132.564768-356.298381-26.86475-28.28419-55.524484-42.625822-85.182208-42.625822"/><path d="m1898.59742 535.05516c1.38959-10.446671 2.92913-20.981364 4.45867-31.494051 13.13608-90.053023 26.72202-183.169828-54.51371-210.612844-9.72709-3.28484-19.46418-4.948265-28.96135-4.948265-60.38195 0-109.15738 64.5405-144.99667 191.831042-41.03773 145.78227-25.15248 216.840436-4.58863 250.785114 11.79648 19.494984 28.51148 32.368275 47.03595 36.249267 25.39241 5.331363 31.25066 5.741468 33.52998 5.771475 4.24873 1.490381 14.7056 6.751727 18.27454 23.0759 7.08788 32.528316 27.68173 67.287202 64.22081 67.287202 28.0916 0 53.89389-22.315705 65.75035-56.844532 14.15577-41.240544 8.91734-86.963233 3.36899-135.371608-4.91853-42.950981-10.017-87.364335-3.57893-135.7287"/><path d="m2243.73583 1727.80526c-4.44092 12.45311-14.0529 27.02675-34.82717 32.66816 1.9404-33.39834-14.34295-63.21579-15.08311-64.53611-4.01082-7.22181-13.1227-9.82246-20.35419-5.83146-7.24149 3.991-9.87203 13.11327-5.90121 20.36508.15003.26007 14.25293 26.34658 11.05227 52.16303-.25005 2.08052-.07001 4.11103.4801 6.0015-14.603 7.38184-53.58103 23.51587-104.79157 17.36434-1.25025-11.92298-4.4109-30.28757-12.42255-47.92197-3.42071-7.53188-12.31254-10.87272-19.86409-7.45186-7.54155 3.43085-10.88224 12.32307-7.45154 19.86496 6.06125 13.33333 8.63178 27.60689 9.73201 37.21929-16.42338 3.32083-50.12032 6.59165-88.07813-10.27256-43.88903-19.50487-54.9213-59.08476-55.35139-60.68516-.68014-2.64066-2.06043-4.89122-3.84079-6.71167 9.98205-47.79194-4.12085-84.61113-26.6955-113.42833 41.04845-42.42059 51.78066-137.21426 36.13744-212.02294 36.57753 30.54762 97.12999 87.48184 137.9984 158.71963-16.64342 3.64091-27.13558 8.09202-28.47586 8.68217-7.58156 3.33083-11.03227 12.18304-7.69158 19.77494 3.33068 7.58189 12.18251 11.02275 19.77407 7.69192.93019-.4101 93.67928-39.90997 179.25689 35.59889 33.20684 29.30732 48.86006 77.77942 36.3975 112.74815zm-379.46811-10.54263c-7.40152 24.016-24.46503 41.34032-50.74044 51.48286-48.87006 18.86471-120.9449 8.21205-157.60244-13.54339-19.39399-11.52287-42.88883-20.14503-65.62351-28.47711-43.56896-15.98399-84.67743-31.12777-87.58803-61.81543 13.55279-73.39833-.9802-122.1205-1.84037-124.90119 30.45626-19.36484 82.05689-73.57838 74.92542-122.1105-1.99041-13.49337-8.03166-54.57362-96.49986-54.57362l-9.16189.03c-.93019 0-93.65928.45012-125.69587 39.33983-9.13188 11.08276-12.30253 24.20604-9.41194 38.97973 5.59115 28.66716 32.76675 55.09376 80.78663 78.54962 21.50443 10.50262 42.53875 17.99449 55.8715 22.29556-.27006 2.06052-.14003 4.20105.5101 6.31158.13003.45011 13.44277 45.12127.76016 112.108-8.16168 25.88646-27.60568 55.10376-107.16206 76.59912-22.8347 6.17154-43.56896 19.06476-67.5739 33.98849-49.0501 30.47761-110.10267 68.43709-220.5554 63.72591-35.81737-1.88047-65.20342-7.54188-91.672869-28.48711-6.661371-27.25681-22.05754-59.34482-50.33636-86.03148-4.626953-4.36109-9.462948-8.3921-14.462977-12.13303 7.72459-68.58713 70.182445-104.21603 130.656896-138.69464 23.13476-13.19329 44.99926-25.6464 63.51307-39.77993 37.29768-28.46711 61.82272-65.75642 85.5376-101.82543 45.55938-69.2873 88.59824-134.73364 219.44517-145.24627 1.26026-.13003 127.94634-10.4026 188.10872 75.78893l.34007.48012c57.10175 81.79042 111.03285 159.04971 166.84434 196.26901 60.50245 40.33007 112.81322 83.04074 88.62824 161.67037zm-381.83859-308.58706c0-10.52263 13.85285-19.04476 30.94637-19.04476s30.95637 8.52213 30.95637 19.04476-13.86285 19.04476-30.95637 19.04476-30.94637-8.52213-30.94637-19.04476zm99.72052 396.80909c-45.36933 1.93048-67.13381 5.77144-86.32776 9.16229-17.30356 3.05076-32.25664 5.69142-62.13279 6.30157-65.32345 1.33033-107.07204-8.93223-130.14679-17.43435 3.59074-2.21055 7.11146-4.3911 10.52217-6.50162 21.99452-13.67342 40.98843-25.48637 59.56226-30.50762 55.36139-14.96374 91.43882-35.52888 112.2331-64.72617 19.454 25.72643 57.23178 39.58989 94.10937 53.11327 17.26355 6.34158 34.95719 12.86321 50.09031 20.4251-5.3411 11.50287-18.27377 28.90722-47.90987 30.16753zm-665.081885 83.81093c-.29006-31.46786-8.657782-61.88545-9.060865-63.33582-2.229459-7.98199-10.502162-12.65316-18.482805-10.4126-7.982643 2.22056-12.646602 10.50263-10.419144 18.48462.094019.34008 9.211896 33.53837 7.798605 63.24579-13.413761 7.22181-47.910861 22.26556-95.294614 17.64441 5.729179-34.90872-9.404936-68.087-10.115082-69.60738-3.506722-7.51188-12.431559-10.75269-19.940104-7.25181-7.509546 3.50087-10.757214 12.4331-7.252493 19.93497.141029.31008 13.468772 30.14753 6.70338 56.92422-120.374776 16.66416-160.517038-72.42809-162.192383-76.28905-.891184-2.10053-2.253464-3.97099-3.974818-5.47137-1.155238-1.00025-115.741823-101.59537-124.08554-196.69912-11.528373-131.45282 119.225539-215.20374 120.531808-216.02394 7.028447-4.3911 9.164887-13.64341 4.771982-20.67516-4.392904-7.03176-13.647809-9.15229-20.673255-4.7712-1.190245.75019-7.704585 4.91123-17.217543 12.18305-10.768217-23.76594-28.90695-76.42909-27.344629-159.21976 2.206455-116.94921 33.589914-218.65461 90.785686-295.293744 39.704172 86.681644 116.255929 115.428824 140.995021 122.650624-10.88124 64.61614-.807167 125.48134 7.516547 175.55384 4.638954 27.92698 8.64878 52.053 8.2587 71.53787-.589122 29.48736-6.908422 56.70416-13.02068 83.03073-8.30771 35.77894-16.745447 72.41809-11.412349 114.99872-4.143853-3.78095-8.407731-7.48187-12.840643-11.05276-6.46133-5.1913-15.906274-4.17104-21.093342 2.29057-5.194069 6.45161-4.170858 15.90397 2.285471 21.09527 19.978112 16.07401 36.794573 35.15878 50.689433 54.38358 0 0 .011002.02.017003.04001.815168 1.83046 1.977407 3.39085 3.342688 4.70117 23.27179 33.34833 37.794779 66.36658 44.657192 83.97097-4.495926-.04001-9.025858.02001-13.619804.29007-37.232663 2.48062-88.903298 15.40385-108.406312 27.10677-7.106463 4.26107-9.408937 13.48337-5.145059 20.58514 4.262877 7.11178 13.486776 9.41235 20.582236 5.14129 13.979878-8.3821 60.547462-20.59515 94.83652-22.88572 41.358512-2.4206 77.995053 10.20255 105.812779 36.45911 30.712321 28.98724 44.670194 68.00698 45.009264 94.28354-5.29609 36.97924-27.64269 48.75218-43.002851 52.4531zm-220.142311-1605.338882c41.742592-12.779191 85.247546-7.255812 125.809895 15.982991 121.291965 69.481351 193.107751 275.375767 232.285811 438.138411-24.7751 11.782943-41.13847 22.585641-50.65043 28.887214-2.54052 1.68042-4.550933 3.020754-6.074246 3.920979-7.13747 4.211052-9.508958 13.41335-5.296091 20.545131 4.209867 7.141783 13.410757 9.512375 20.542227 5.301324 1.86038-1.100275 4.31089-2.700675 7.39152-4.741184 25.45524-16.854209 102.94119-68.137015 270.83575-76.968221 163.03355-8.574141 327.9575 38.648652 410.40447 117.518347 2.9106 2.780694 6.64137 4.161039 10.36213 4.161039 3.95081 0 7.90163-1.550387 10.85224-4.631157 5.72117-5.991496 5.51113-15.493869-.4801-21.215297-39.13806-37.43935-93.66928-67.956971-157.17235-89.663391 1.53031-2.164541 2.56052-4.732182 2.76056-7.570891.34007-4.706175 36.55753-469.917346 265.57467-477.583261 128.7765 19.284816 125.53584 136.702137 108.94242 276.627079-2.54052 21.338329-4.93102 41.494362-6.03124 59.299808-2.19045 35.415844 1.73035 75.354818 5.89121 117.639377 11.48236 116.860182 23.27479 237.560323-91.02874 280.861136-21.50442-45.01124-45.55937-71.257794-47.28973-73.108256-5.65116-6.061514-15.14312-6.391597-21.20436-.740185-6.06125 5.661413-6.38132 15.153784-.74016 21.215298.67014.710177 66.39367 72.338064 72.79499 183.285771 1.80037 31.16778-.45009 58.8747-2.63054 85.66139-4.14086 51.00274-8.42174 103.74591 16.66343 175.85391 25.35521 72.91821 15.13311 174.34354-19.394 211.8429-19.13393-18.09451-40.46832-32.32807-57.76188-43.86095-51.10052-34.06851-103.4513-109.06723-158.88271-188.46706l-.34007-.48012c-70.25446-100.64513-209.54313-89.05224-215.27431-88.51211-145.2999 11.66292-194.44002 86.39158-241.9598 158.65963-23.3548 35.52887-45.42935 69.08725-78.66619 94.45358-16.92348 12.91323-37.9278 24.88622-60.17238 37.56938-60.510457 34.48862-128.399431 73.24829-143.50754 148.01697-12.38755-5.84146-25.567263-10.09252-39.386107-12.75319-2.439502-7.56189-19.19195-56.95422-54.890298-107.04673-27.01356-62.97573-16.175329-110.06749-4.61795-159.83992 6.458329-27.82694 13.139704-56.59413 13.791838-89.22228.444092-22.25555-3.775777-47.64189-8.661782-77.04924-14.106904-84.88119-31.661517-190.51757 50.425378-294.023419 5.14806-6.491621 4.058836-15.923976-2.4325-21.075263-6.497338-5.161289-15.930279-4.061014-21.078339 2.430607-29.812136 37.589387-47.606798 75.588875-57.62586 112.718145-29.094989-8.65216-136.836165-51.062748-141.67016-204.931172-1.592327-50.702661.986203-81.97047 3.264672-109.567361 3.777778-45.779432 6.759392-81.938462-13.02268-174.871669-32.467683-152.548094-5.030035-246.834639 79.349332-272.66809zm495.453976 338.550542c116.95407-4.593147 204.18203 19.731928 256.74284 40.970231 56.98173 23.018749 86.70785 47.457851 86.97791 47.682908.57011.474118 1.17024.864215 1.78036 1.24131-75.27549-21.86146-161.03314-31.905968-247.69098-27.343829-93.57926 4.92423-160.76309 22.678664-207.24265 40.927221-6.83141-28.108019-13.99288-55.042746-21.48443-80.734161 43.91904-13.669414 85.67764-20.959234 130.91695-22.74368zm1034.81299 970.05424c-53.99111-47.6419-110.02264-56.16402-150.83104-53.6634-63.6231-118.39957-178.11666-199.27976-184.07789-203.4308-16.74345-57.28431-13.30274-100.64513-9.60198-146.25652 2.26047-27.80695 4.60095-56.57413 2.68055-89.81243-2.22045-38.55963-10.86223-72.62814-21.70446-101.315302 134.53769-51.682906 120.48479-195.368787 109.07245-311.416766-4.03083-41.052251-7.84162-79.826934-5.8012-112.845179 1.05022-16.964237 3.4007-36.713168 5.88121-57.619389 13.48278-113.751406 33.87698-285.652333-135.73794-310.048425-.84017-.124031-1.68034-.153279-2.52051-.153279-107.69217 2.810943-193.09975 92.215269-246.99084 258.555807-27.58568 85.170269-40.3183 168.875171-45.6394 213.64135-37.99782-26.103518-155.70204-93.378318-350.72218-85.672394-47.85985 1.887472-92.02894 9.583393-138.42849 24.008996-55.445416-177.414304-127.579263-292.482038-215.120281-342.631562-47.934867-27.457856-99.627506-33.899465-149.507773-18.639654-45.91545 14.05851-79.704405 46.022492-97.716112 92.435082-20.568234 53.004237-21.307386 125.397314-2.197452 215.173733 18.861882 88.61813 16.177329 121.141251 12.463565 166.154492-2.341482 28.397091-4.996028 60.575127-3.35069 112.978213.930192 29.617396 5.386109 55.523865 12.197511 78.319557-1.160239.810203-2.259465 1.72043-3.188657 2.88072-66.600708 82.96072-103.095219 195.05871-105.531721 324.19096-1.825375 96.81417 21.828493 156.24901 33.609918 179.68487-42.750799 39.09976-102.307057 112.37806-93.566258 212.01294 8.802812 100.34506 114.295525 198.81965 131.970163 214.66361 8.773805 17.17428 53.646041 93.24328 159.270781 93.24328 13.35975 0 27.681698-1.2103 43.036859-3.92098 68.720144 11.10277 117.162114-13.82345 131.156995-22.26556 17.348571-1.00025 71.556728-9.53238 82.896062-76.19903 28.42985 15.2138 58.326 19.10477 87.04192 20.61515 6.67137.28007 13.17271.42011 19.53402.42011 78.54616 0 133.46747-20.91523 175.69616-43.56088 17.63363 9.48237 64.40325 28.98724 150.80104 28.98724 3.93081 0 7.94163-.04001 12.03247-.13004 32.19663-.65016 48.98008-3.6209 66.74374-6.75168 18.27376-3.23081 38.99803-6.88172 82.38696-8.73218 40.57835-1.73044 62.95296-25.56639 73.20507-46.31157 45.34933 20.08502 114.75362 28.027 167.69451 7.5919 25.97535-10.0225 45.76942-26.17654 58.33201-47.37183 10.17209 17.82445 28.81593 41.01024 61.38263 55.48385 27.13559 12.06302 52.41079 15.62391 72.78498 15.62391 21.24438 0 37.18766-3.87097 44.39914-6.02151 70.80457 11.67292 122.84529-13.96349 136.79816-21.87546 35.63733-2.65066 62.47286-22.4256 73.97522-54.70366 16.61342-46.63165-2.23046-107.74691-44.80922-145.31629z"/><path d="m1276.99677 1222c3.20616 0 6.44229-1.02288 9.17901-3.12823.36956-.28799 37.99449-28.72009 114.90237-34.64882 52.5071-4.07166 116.49046 22.31468 117.1297 22.58281 7.63086 3.17788 16.41034-.37737 19.6165-7.96456 3.20616-7.57726-.36956-16.3065-8.00042-19.49431-2.87655-1.21157-71.22468-29.45498-131.06301-24.83712-85.77725 6.62389-129.16528 39.43551-130.97312 40.83576-6.53217 5.04488-7.71076 14.39977-2.63684 20.89456 2.95646 3.78367 7.37117 5.75991 11.84581 5.75991"/></g><path d="m2257.60991 2019.18953c39.05407-36.77948 48.35028-73.07924 27.7087-107.96978-23.08059-8.18543-47.41067-11.91335-71.64079-11.1138-.17993 0-.36985 0-.55977.00999-2.84884.09995-5.69768.26985-8.54652.49973-.83965.06996-1.68931.15991-2.52896.23986-1.7293.15991-3.4486.34981-5.1679.54969-1.40942.16991-2.81885.34981-4.21828.5497-.90963.12993-1.81926.27984-2.72889.42976-27.61873 4.35757-54.25787 14.62184-77.85825 30.37306-.65973.43975-1.30946.87951-1.9592 1.32926-1.41942.96946-2.83884 1.9589-4.23827 2.96834-1.93921 1.41921-3.87842 2.8684-5.78764 4.36757-.78968.61965-1.55937 1.26929-2.33905 1.89894-1.56936 1.27928-3.12872 2.56856-4.6581 3.89782-.70971.60966-1.41942 1.22932-2.11913 1.84897-2.16912 1.92893-4.31824 3.89783-6.40739 5.93669-2.48899 2.42865-4.898 4.90726-7.23705 7.44585-1.00959 1.08939-1.94921 2.21876-2.92881 3.32814-1.25948 1.4292-2.53896 2.83842-3.74847 4.2976-1.28947 1.55913-2.52897 3.14825-3.76846 4.73736-.77968.99944-1.57936 1.99889-2.34904 3.01832-1.4694 1.95891-2.87883 3.9478-4.25827 5.95668-.43982.61965-.87964 1.23931-1.29947 1.86895-1.60934 2.37868-3.15871 4.78733-4.63811 7.21598-.11995.18989-.2399.37979-.34985.56968-21.13139 34.86056-30.29765 75.03815-27.4888 114.55611 38.57428-29.53353 82.37642-37.86888 121.78035-45.3647 40.73339-7.75567 79.2077-15.08159 109.33542-43.44577" fill="#d1da32"/><path d="m2359.99596 1958.83944c-10.48923-10.7814-21.96839-20.02117-34.1075-27.83944 5.5196 29.93165-1.72987 68.7527-46.46658 110.95733-36.6573 34.56656-81.41401 43.08557-124.70083 51.33429-44.36674 8.45894-86.38365 16.50746-121.72105 50.75367 8.2194 31.50331 24.38821 61.36489 48.66642 86.30126 46.36659 47.65039 111.40181 66.33014 172.41732 55.80902 6.44953-10.82145 12.47909-22.10338 18.30866-33.10501 20.65848-38.9612 42.02691-79.25381 85.84369-104.09007 18.64862-10.58119 36.6873-17.3984 53.81604-20.50168 10.42923-59.54297-6.7895-123.11019-52.05617-169.61937" fill="#d1da32"/><path d="m2299.3973 2266.64888c-1.12241 2.10375-2.25484 4.22743-3.3973 6.35112 1.1625-.47858 2.325-.93721 3.47747-1.4457.5111-.22932 1.0222-.44867 1.54332-.68796 2.21476-.99703 4.40948-2.05389 6.6042-3.13069.75161-.37887 1.49321-.74778 2.24482-1.13662 1.93416-.98707 3.84828-2.03395 5.75237-3.09081.92198-.51846 1.85398-1.02695 2.76594-1.55538 1.71369-.98706 3.40733-2.03395 5.10097-3.08084 1.03222-.6381 2.07446-1.2762 3.09666-1.93425 1.57338-1.01697 3.11669-2.0838 4.67003-3.14066 1.07231-.73781 2.14461-1.46564 3.2069-2.22339 1.51325-1.09674 2.99644-2.23336 4.48965-3.36998 1.03222-.78766 2.08448-1.56535 3.09665-2.37295 1.59343-1.26623 3.15679-2.60226 4.73017-3.92832.85183-.72783 1.73373-1.43573 2.58556-2.17354 2.38513-2.10374 4.74019-4.26731 7.04514-6.50067 2.50539-2.43277 4.9306-4.92536 7.29569-7.4678.76163-.81757 1.46314-1.66505 2.21476-2.50256 1.55333-1.73484 3.1167-3.47965 4.60991-5.27432.88189-1.06683 1.7237-2.1536 2.58555-3.23039 1.26272-1.59526 2.52543-3.18055 3.73804-4.80572.932-1.24629 1.82392-2.51253 2.72586-3.77876 1.05226-1.47562 2.0945-2.9612 3.09665-4.45675.96207-1.43573 1.88405-2.88144 2.79601-4.33711.85183-1.33603 1.68362-2.68202 2.49537-4.04796.97209-1.63514 1.93416-3.29022 2.85614-4.95527.64138-1.14659 1.26271-2.30315 1.87403-3.45972 1.01217-1.89436 2.0043-3.80867 2.94633-5.74292.40086-.82754.78168-1.66505 1.17252-2.49259 1.0723-2.27324 2.12457-4.54649 3.09666-6.84964.07015-.15952.13028-.32902.1904-.48855 1.0222-2.42279 1.97425-4.8755 2.89623-7.33818-9.46034 3.0609-19.3516 7.49771-29.60363 13.27055-36.0976 20.33953-54.50717 54.84694-73.99907 91.37833" fill="#d1da32"/><path d="m2278.99094 2041.19114c44.68697-42.08924 51.92837-80.80416 46.41492-110.65398-12.61503-8.10638-25.96918-14.6354-39.78279-19.53716 20.62552 34.85141 11.33655 71.11046-27.68714 107.8487-30.10427 28.33237-68.54865 35.65007-109.25034 43.39705-39.37328 7.48741-83.14133 15.81342-121.68559 45.31383.839 11.92994 2.79668 23.79 5.84307 35.44042 35.2981-34.15259 77.26829-42.1791 121.5857-50.61491 43.23868-8.22618 87.94563-16.72189 124.56217-51.19395" fill="#fffffe"/><path d="m2272.31232 2252.83133c-5.83074 11.02279-11.8615 22.32642-18.31232 33.16867 14.35182-2.47737 28.4636-6.59963 42.07533-12.32667 1.14014-2.13635 2.27028-4.27271 3.39043-6.389 19.45246-36.74932 37.82478-71.46258 73.84934-91.92345 10.2313-5.80727 20.10255-10.27055 29.54374-13.34971 4.09052-11.08297 7.1209-22.47686 9.14116-34.01117-17.13217 3.10925-35.17445 9.93957-53.82681 20.5411-43.82555 24.88403-65.19826 65.25411-85.86087 104.29023" fill="#fffffe"/><path d="m2317.74372 2262.07268c-.91016.53017-1.84032 1.04033-2.76048 1.5605-1.90034 1.06034-3.81067 2.11067-5.74101 3.10099-.75013.39013-1.49026.76025-2.2404 1.14037-2.19038 1.08034-4.38077 2.14068-6.59116 3.14101-.52009.24007-1.03018.46014-1.54027.69022-1.1502.51016-2.3104.97031-3.47061 1.45046-13.61239 5.71183-27.72487 9.82315-42.0774 12.29394-61.03074 10.51337-126.08218-8.15261-172.46034-55.76788-24.28427-24.91799-40.45712-54.75756-48.67856-86.23765-3.05054-11.67374-5.01088-23.55755-5.85103-35.51138-2.8105-39.55269 6.36112-79.76558 27.50484-114.65677.11002-.19006.23004-.38012.35006-.57018 1.48026-2.43078 3.03053-4.84155 4.64082-7.22232.42007-.6302.86015-1.2504 1.30022-1.8706 1.38025-2.01064 2.7905-4.00128 4.26075-5.96191.77014-1.02033 1.57028-2.02065 2.35042-3.02097 1.24022-1.59051 2.48043-3.18102 3.77066-4.74152 1.21021-1.46047 2.49044-2.87092 3.75066-4.30138.98017-1.11035 1.92034-2.24071 2.93052-3.33106 2.34041-2.54082 4.75083-5.02161 7.24127-7.45239 2.09037-2.04066 4.24075-4.01129 6.41113-5.94191.70012-.6202 1.41025-1.2404 2.12037-1.85059 1.53027-1.33043 3.09054-2.62084 4.66082-3.90125.78014-.63021 1.55027-1.28041 2.34041-1.90061 1.91034-1.50048 3.85068-2.95095 5.79102-4.3714 1.40025-1.01033 2.8205-2.00065 4.24075-2.97096.65011-.45014 1.30023-.89028 1.96034-1.33042 23.61416-15.76506 50.26885-26.03835 77.90371-30.39975.91016-.15005 1.82032-.3001 2.73048-.43014 1.40024-.20006 2.81049-.38012 4.22074-.55017 1.7203-.20007 3.4406-.39013 5.17091-.55018.84015-.08003 1.6903-.17006 2.53044-.24008 2.85051-.23007 5.70101-.40013 8.55151-.50016.19003-.01.38007-.01.5601-.01 24.24426-.80026 48.58854 2.93094 71.68261 11.12356 13.83243 4.91158 27.20478 11.45368 39.83701 19.57628 12.14213 7.81251 23.62415 17.04547 34.116 27.81892 45.27796 46.4749 62.50099 109.99527 52.06916 169.49435-2.02036 11.50369-5.05089 22.86733-9.14161 33.92087-.92016 2.4708-1.87033 4.93158-2.89051 7.36236-.06001.16006-.12002.33011-.19003.49016-.97017 2.31074-2.02036 4.59147-3.09055 6.8722-.39007.83027-.77013 1.67054-1.1702 2.50081-.94017 1.94062-1.93034 3.86123-2.94052 5.76184-.61011 1.16038-1.23022 2.32075-1.87033 3.47112-.92016 1.67053-1.88033 3.33107-2.8505 4.97159-.81014 1.37044-1.64029 2.72087-2.49044 4.0613-.91016 1.46047-1.83032 2.91094-2.79049 4.3514-1.00018 1.50048-2.04036 2.99096-3.09054 4.47143-.90016 1.27041-1.79032 2.54082-2.72048 3.79122-1.21021 1.63052-2.47044 3.22103-3.73066 4.82154-.86015 1.08035-1.7003 2.1707-2.58045 3.24104-1.49026 1.80058-3.05054 3.55114-4.60081 5.2917-.75013.84027-1.45026 1.69054-2.21039 2.5108-2.36042 2.55082-4.78084 5.05162-7.28128 7.49241-2.30041 2.24072-4.65082 4.41141-7.03124 6.52209-.85015.74024-1.7303 1.45046-2.58045 2.1807-1.57028 1.33042-3.13055 2.67085-4.72083 3.94126-1.01018.81026-2.06037 1.59051-3.09055 2.38076-1.49026 1.14037-2.97052 2.28074-4.48078 3.38109-1.06019.76024-2.13038 1.49048-3.20057 2.23071-1.55027 1.06034-3.09054 2.13069-4.66082 3.15101-1.02018.66022-2.06036 1.30042-3.09054 1.94063-1.6903 1.05033-3.3806 2.10067-5.0909 3.09099zm66.59172-14.16454c.65011-.69023 1.29022-1.39045 1.92034-2.09067 1.91033-2.08067 3.76066-4.19135 5.57098-6.32203.42007-.50016.86015-.98032 1.27022-1.48048 2.16038-2.59083 4.24075-5.21167 6.2611-7.87252.47008-.6202.93016-1.2604 1.40025-1.8806 1.66029-2.23072 3.27057-4.49144 4.84085-6.77217.41007-.6002.83014-1.19039 1.24022-1.80058 3.93069-5.84188 7.57133-11.8338 10.89191-17.94576.15003-.27008.30006-.55017.45008-.82026 2.08037-3.85123 4.00071-7.78249 5.85103-11.75377.51009-1.09035 1.01018-2.1907 1.50027-3.29105 1.28022-2.85092 2.45043-5.74184 3.61063-8.63277 1.21021-3.08099 2.36042-6.17198 3.4306-9.29298.36007-1.03033.72013-2.06066 1.06019-3.09099 2.16038-6.51209 4.13073-13.0942 5.691-19.81636.10002-.42013.08002-.85027.14003-1.2704 16.17284-71.87305-3.06054-150.26818-58.18024-206.85633-23.01405-23.61757-50.0188-41.03316-78.89388-52.33678-.46008-.23007-.91016-.48015-1.40024-.66021-28.66505-11.03354-58.75034-15.81507-88.44556-14.78474-.44008.02-.87016.04001-1.31023.06002-2.68047.11003-5.36095.27008-8.04142.47015-1.10019.09003-2.21039.17005-3.31058.27008-1.98035.17006-3.9507.40013-5.92104.63021-3.24057.38012-6.46114.82026-9.68171 1.34043-.6201.10003-1.24021.18005-1.85032.29009-2.37042.40013-4.74083.84027-7.09125 1.32042-.33006.07003-.65011.13004-.97017.20007-27.76488 5.71183-54.65961 16.69535-79.08391 32.98057-.71013.48016-1.41025.96031-2.12037 1.44046-1.75031 1.19039-3.50062 2.39077-5.22092 3.64117-2.2804 1.66053-4.5408 3.35108-6.77119 5.10164-1.01018.80025-2.01036 1.63052-3.01053 2.44078-1.75031 1.42046-3.48062 2.86092-5.19092 4.34139-.85015.74024-1.7003 1.47047-2.54044 2.22071-2.52045 2.24072-5.02089 4.52145-7.45131 6.90222-3.17056 3.09099-6.20109 6.27201-9.16162 9.50304-1.04018 1.14037-2.04035 2.31074-3.05053 3.47112-1.83032 2.08066-3.63064 4.19134-5.38095 6.34203-1.21021 1.49048-2.41042 2.99096-3.59063 4.51145-1.35024 1.76056-2.66047 3.54113-3.9607 5.33171-1.34023 1.84059-2.69047 3.67117-3.9707 5.54177-.44007.64021-.84014 1.31042-1.27022 1.96063-31.8456 47.69529-44.29779 105.83394-34.126 163.59246.17003.9403.34006 1.8706.52009 2.8109.39007 2.07066.70012 4.14132 1.1502 6.21199.10002.49016.26005.9503.41007 1.41045 8.78155 39.32261 28.17496 76.75461 58.29026 107.66452 55.07969 56.52813 132.85337 77.81495 205.05607 63.58039.70012-.04001 1.40025-.13004 2.10037-.27009 6.58116-1.37044 13.03229-3.131 19.42342-5.07162 1.01017-.3101 2.00035-.63021 3.00052-.95031 3.22057-1.01032 6.41113-2.10067 9.59169-3.27105 2.99053-1.10035 5.97105-2.23071 8.91157-3.46111 1.05018-.44014 2.08037-.90029 3.12055-1.35043 3.94069-1.72055 7.85138-3.50112 11.69206-5.45175.31005-.15005.6201-.3101.93016-.47015 3.09054-1.58051 6.15108-3.23104 9.18161-4.96159.04001-.02001.09002-.05002.13003-.07002 2.99052-1.72055 5.95104-3.52113 8.87156-5.38173.61011-.39012 1.22021-.79025 1.83032-1.19038 2.2904-1.49048 4.5608-3.03097 6.8112-4.62148.68012-.47015 1.36024-.9403 2.03036-1.42046 2.69047-1.94062 5.36094-3.94126 7.9914-6.02193.49009-.39012.96017-.79025 1.44025-1.18038 2.20039-1.76056 4.37077-3.58114 6.52115-5.45174.71013-.6102 1.42025-1.2304 2.13038-1.8606 2.55044-2.27073 5.07089-4.58147 7.54132-6.99224 2.47044-2.40077 4.85086-4.87157 7.19127-7.36236z" fill="#1b1a19"/></g></svg>