<svg height="2800" viewBox="0 0 2800 2800" width="2800" xmlns="http://www.w3.org/2000/svg"><g fill="none" fill-rule="evenodd"><path d="m.06 2800h2799.94v-2799.96h-2799.94z"/><path d="m1340.42 1668.1c-4.24 0-7.67-3.43-7.67-7.67s3.43-7.67 7.67-7.67h89.94l-18.28-181.48c-.17-1.65-1.29-13.83-.78-32.73h-253.36l28.56 214.21h100.64c4.24 0 7.67 3.43 7.67 7.67s-3.43 7.67-7.67 7.67h-98.6l26.12 195.89h236.98l-19.73-195.89z" fill="#f8eed9"/><path d="m2353.8 1193.65h36.38l22.35-167.62-70.29-46.859c-.61.158-1.24.269-1.91.269h-119.2c-4.23 0-7.67-3.435-7.67-7.673s3.44-7.672 7.67-7.672h98.5l-321.46-214.303c-.31.039-.61.095-.93.095h-480.08l-321.32 214.208h953.21c4.23 0 7.67 3.434 7.67 7.672s-3.44 7.673-7.67 7.673h-973.14c-.86 0-1.67-.173-2.44-.432l-70.53 47.022 22.34 167.62h80.37c4.24 0 7.67 3.43 7.67 7.67s-3.43 7.67-7.67 7.67h-78.32l28.56 214.21h256.14c3.42-50.6 18.91-131.69 78-196.99 5.44-6.01 11.14-11.74 17.08-17.22h-257.58c-4.24 0-7.67-3.43-7.67-7.67s3.43-7.67 7.67-7.67h275.82c58.28-44.82 136.89-67.5 234.47-67.5 97.59 0 176.2 22.68 234.47 67.5h323.99c4.24 0 7.67 3.43 7.67 7.67s-3.43 7.67-7.67 7.67h-305.75c5.95 5.48 11.65 11.21 17.09 17.22 59.09 65.3 74.58 146.39 78 196.99h82.17c4.24 0 7.67 3.44 7.67 7.68 0 4.23-3.43 7.67-7.67 7.67h-81.44c.51 18.9-.62 31.08-.78 32.73l-18.28 181.48h239.68l28.56-214.21h-98.79c-4.24 0-7.67-3.44-7.67-7.67 0-4.24 3.43-7.68 7.67-7.68h100.84l28.56-214.21h-34.34c-4.23 0-7.67-3.43-7.67-7.67s3.44-7.67 7.67-7.67" fill="#f8eed9"/><path d="m2068.01 1863.99h232.8l26.12-195.89h-239.19z" fill="#f8eed9"/><path d="m1757.74 589.501-217.57 145.041h435.13z" fill="#f8eed9"/><path d="m2592.89 1027.72c-2.55-12.77-9.93-23.79-20.77-31.02l-787.32-524.878c-8.04-5.361-17.4-8.194-27.06-8.194-9.67 0-19.03 2.833-27.07 8.194l-787.314 524.878c-10.844 7.23-18.222 18.25-20.779 31.02-2.556 12.78.017 25.79 7.245 36.64 9.074 13.6 24.269 21.73 40.651 21.73 9.623 0 18.964-2.84 27.011-8.2l88.976-59.32 14.22-9.47 652.8-435.204c1.29-.859 2.77-1.289 4.26-1.289 1.48 0 2.96.43 4.25 1.289l756 503.994c8.05 5.37 17.39 8.2 27.01 8.2 16.38 0 31.57-8.12 40.65-21.73 7.23-10.85 9.8-23.86 7.24-36.64" fill="#1c89b3"/><path d="m2390.18 1193.65h-36.38c-4.23 0-7.67 3.43-7.67 7.67s3.44 7.67 7.67 7.67h34.34l-28.56 214.21h-100.84c-4.24 0-7.67 3.44-7.67 7.68 0 4.23 3.43 7.67 7.67 7.67h98.79l-28.56 214.21h-239.68l18.28-181.48c.16-1.65 1.29-13.83.78-32.73h81.44c4.24 0 7.67-3.44 7.67-7.67 0-4.24-3.43-7.68-7.67-7.68h-82.17c-3.42-50.6-18.91-131.69-78-196.99-5.44-6.01-11.14-11.74-17.09-17.22h305.75c4.24 0 7.67-3.43 7.67-7.67s-3.43-7.67-7.67-7.67h-323.99c-58.27-44.82-136.88-67.5-234.47-67.5-97.58 0-176.19 22.68-234.47 67.5h-275.82c-4.24 0-7.67 3.43-7.67 7.67s3.43 7.67 7.67 7.67h257.58c-5.94 5.48-11.64 11.21-17.08 17.22-59.09 65.3-74.58 146.39-78 196.99h-256.14l-28.56-214.21h78.32c4.24 0 7.67-3.43 7.67-7.67s-3.43-7.67-7.67-7.67h-80.37l-22.34-167.62 70.53-47.022c.77.259 1.58.432 2.44.432h973.14c4.23 0 7.67-3.435 7.67-7.673s-3.44-7.672-7.67-7.672h-953.21l321.32-214.208h480.08c.32 0 .62-.056.93-.095l321.46 214.303h-98.5c-4.23 0-7.67 3.434-7.67 7.672s3.44 7.673 7.67 7.673h119.2c.67 0 1.3-.111 1.91-.269l70.29 46.859zm-89.37 670.34h-232.8l19.73-195.89h239.19zm-1086.15 0-26.12-195.89h98.6c4.24 0 7.67-3.43 7.67-7.67s-3.43-7.67-7.67-7.67h-100.64l-28.56-214.21h253.36c-.51 18.9.61 31.08.78 32.73l18.28 181.48h-89.94c-4.24 0-7.67 3.43-7.67 7.67s3.43 7.67 7.67 7.67h91.49l19.73 195.89zm543.08-1274.489 217.56 145.041h-435.13zm760.25 488.389-756-503.994c-1.29-.859-2.77-1.289-4.25-1.289-1.49 0-2.97.43-4.26 1.289l-652.8 435.204-14.22 9.47-88.976 59.32c-8.047 5.36-17.388 8.2-27.011 8.2-16.382 0-31.577-8.13-40.651-21.73-7.228-10.85-9.801-23.86-7.245-36.64 2.557-12.77 9.935-23.79 20.779-31.02l787.314-524.878c8.04-5.361 17.4-8.194 27.07-8.194 9.66 0 19.02 2.833 27.06 8.194l787.32 524.878c10.84 7.23 18.22 18.25 20.77 31.02 2.56 12.78-.01 25.79-7.24 36.64-9.08 13.61-24.27 21.73-40.65 21.73-9.62 0-18.96-2.83-27.01-8.2zm89.95-53.17c-3.36-16.8-13.06-31.287-27.31-40.788l-787.32-524.877c-10.57-7.048-22.87-10.771-35.57-10.771-12.71 0-25.01 3.723-35.58 10.771l-787.316 524.877c-14.254 9.501-23.954 23.988-27.314 40.788-3.361 16.79.023 33.9 9.525 48.15 11.925 17.89 31.895 28.56 53.418 28.56 12.662 0 24.944-3.72 35.517-10.77l82.73-55.15 111.62 837.16c.51 3.82 3.76 6.66 7.61 6.66h1099.57c3.85 0 7.1-2.84 7.61-6.66l111.62-837.16 82.73 55.15c10.57 7.05 22.86 10.78 35.52 10.78 21.52 0 41.49-10.68 53.41-28.57 9.51-14.25 12.89-31.36 9.53-48.15z" fill="#1b1a19"/><g fill="#c7a17e"><path d="m1676.9 919.952 15.5-19.992c-2.39-10.155-3.34-21.204-2.79-33.071l-16.23 20.929c.08.46.14.929.13 1.412-.12 11.248 1.04 21.517 3.39 30.722"/><path d="m1810.45 847.006-7.07-9.116c-2.39 7.883-6.77 14.891-12.56 20.473l14.9 19.216c.29-9.668 1.86-19.878 4.73-30.573"/><path d="m1656.44 946.351 9.06-11.684c-3.27-8.551-5.45-18.002-6.52-28.263l-14.77 19.05c1.17 6.641 2.93 12.779 5.24 18.381 1.05.969 3.8 1.919 6.99 2.516"/><path d="m1823.06 899.956 18.77 24.211c-2.23-13.701-2.07-27.103-1.1-38.102l-18.11-23.354c-2.29 13.117-2.21 25.133.27 35.846.1.468.15.935.17 1.399"/><path d="m1866.49 943.591c2.28-5.188 4.84-9.987 7.62-14.464l-18.67-24.084c.34 13.038 2.53 27.357 8.61 40.083 1.22-.484 2.13-1.008 2.44-1.535"/><path d="m1724.54 858.502c0-.079 0-.158 0-.237-5.73-5.565-10.08-12.538-12.45-20.372l-4.4 5.664c.06.667.05 1.343-.08 2.031-2.58 13.465-3.32 26.242-2.32 37.745z"/></g><path d="m1779.57 805.781c.46 1.124.61 2.29.53 3.427-.19 2.824-1.91 5.44-4.7 6.592-.96.393-1.95.581-2.92.581-2.31 0-4.52-1.068-5.98-2.895-.44-.555-.83-1.166-1.12-1.855-.72-1.753-1.83-3.261-3.3-4.487-1.98-1.65-2.91-4.088-2.73-6.477.12-1.537.68-3.053 1.74-4.327 2.71-3.258 7.56-3.698 10.81-.986.99.829 1.9 1.747 2.77 2.708 2.05 2.281 3.73 4.886 4.9 7.719zm-51.25 20.577c2.42 5.298 6.22 9.834 10.95 13.136.61.422 1.24.807 1.87 1.187 3.94 2.365 8.4 3.943 13.18 4.447 1.13.118 2.26.184 3.42.184 1.15 0 2.29-.066 3.41-.184.4-.043.8-.126 1.2-.184 4.87-.7 9.4-2.457 13.32-5.079.18-.119.35-.248.53-.371 6.59-4.602 11.4-11.585 13.15-19.703.48-2.208.75-4.493.75-6.841 0-7.99-2.93-15.299-7.74-20.95-5.94-6.973-14.77-11.415-24.62-11.415-9.86 0-18.69 4.443-24.63 11.416-4.81 5.651-7.74 12.96-7.74 20.949 0 2.349.27 4.635.75 6.844.49 2.29 1.24 4.481 2.2 6.564z" fill="#1c89b3"/><path d="m1992.34 1044.53c-.13-1.15-.26-2.31-.45-3.46-.11-.64-.28-1.27-.41-1.9-.22-1.04-.41-2.08-.68-3.1-.18-.68-.41-1.34-.62-2.01-.28-.96-.55-1.92-.88-2.86-.25-.69-.55-1.36-.82-2.05-.36-.89-.7-1.8-1.1-2.67-.31-.68-.67-1.34-1.01-2.01-.42-.85-.83-1.71-1.3-2.54-.37-.66-.79-1.29-1.19-1.94-.49-.8-.97-1.61-1.5-2.39-.44-.63-.92-1.24-1.38-1.86-.52-.69-1.02-1.4-1.57-2.07-2.22-1.9-7.66-6.03-12.63-7.78-3.99-1.41-6.09-5.8-4.68-9.794 1.41-3.995 5.8-6.084 9.79-4.678 4.31 1.521 8.34 3.891 11.55 6.077 6.03-9.45 9.35-20.571 9.36001-32.05.01999-32.344-25.63001-58.673-57.17001-58.694-16.22 0-30.96 7.804-42.46 21.949-3.25 4.004-6.24 8.524-8.93 13.517-1.31 2.422-2.57 4.922-3.73 7.566-2.15 4.892-6.55 7.884-11.3 9.729-7 2.72-14.72 2.929-17.15 2.915-.16-.001-.35-.001-.46-.003-.29.015-.58.006-.81-.003-.05 0-.14-.006-.26-.018l-185.6-.135c-.15.013-.3.021-.46.027-.18.004-.39.004-.61-.006-.1.002-.26 0-.38.001-1.08.002-2.97-.032-5.34-.252-3.42-.317-7.75-1.044-11.84-2.632-4.06-1.575-7.85-4.003-10.22-7.767-.41-.64-.78-1.308-1.09-2.027-1.15-2.629-2.4-5.114-3.7-7.524-2.68-5.001-5.66-9.529-8.91-13.54-11.5-14.188-26.24-22.023-42.47-22.033-15.32 0-29.69 6.11-40.49 17.202-10.78 11.069-16.73 25.781-16.74 41.429v.039c0 6.328 1.04 12.562 2.96 18.487 2.12 6.534 5.32 12.689 9.56 18.138.25.32.5.63.76.95.33.29.75.64 1.21 1.02 2.66 2.21 7.25 5.65 11.04 7.17 3.94 1.57 5.85 6.04 4.28 9.97-1.57 3.94-6.03 5.86-9.97 4.28-3.79-1.52-7.59-3.91-10.66-6.12-5.98 9.42-9.22 20.52-9.23001 31.94-.01999 32.35 25.63001 58.68 57.17001 58.7 23.04 0 43.12-15.69 55.12-43.03 5.51-12.55 25.33-12.71 28.9-12.65.21-.01.43-.01.6 0 .17 0 .33.01.5.03l185.55.13c.23-.02.45-.03.71-.03.13 0 .28 0 .42.01.21-.01.51-.01.9-.01 4.82 0 22.75.82 27.94 12.69 11.98 27.37 32.05 43.08 55.08 43.09 31.55 0 57.21-26.3 57.23-58.62 0-1.73-.08-3.45-.22-5.16-.05-.55-.15-1.09-.21-1.64" fill="#fffffe"/><path d="m1765.38 811.631c.29.689.68 1.3 1.12 1.855 1.46 1.827 3.67 2.895 5.98 2.895.97 0 1.96-.188 2.92-.581 2.79-1.152 4.51-3.768 4.7-6.592.08-1.137-.07-2.303-.53-3.427-1.17-2.833-2.85-5.438-4.9-7.719-.87-.961-1.78-1.879-2.77-2.708-3.25-2.712-8.1-2.272-10.81.986-1.06 1.274-1.62 2.79-1.74 4.327-.18 2.389.75 4.827 2.73 6.477 1.47 1.226 2.58 2.734 3.3 4.487" fill="#1b1a19"/><path d="m1658.98 906.404c1.07 10.261 3.25 19.712 6.52 28.263l-9.06 11.684c-3.19-.597-5.94-1.547-6.99-2.516-2.31-5.602-4.07-11.74-5.24-18.381zm30.63-39.515c-.55 11.867.4 22.916 2.79 33.071l-15.5 19.992c-2.35-9.205-3.51-19.474-3.39-30.722.01-.483-.05-.952-.13-1.412zm22.48-28.996c2.37 7.834 6.72 14.807 12.45 20.372v.237l-19.25 24.831c-1-11.503-.26-24.28 2.32-37.745.13-.688.14-1.364.08-2.031zm98.36 9.113c-2.87 10.695-4.44 20.905-4.73 30.573l-14.9-19.216c5.79-5.582 10.17-12.59 12.56-20.473zm31.38 77.161-18.77-24.211c-.02-.464-.07-.931-.17-1.399-2.48-10.713-2.56-22.729-.27-35.846l18.11 23.354c-.97 10.999-1.13 24.401 1.1 38.102zm24.66 19.424c-.31.527-1.22 1.051-2.44 1.535-6.08-12.726-8.27-27.045-8.61-40.083l18.67 24.084c-2.78 4.477-5.34 9.276-7.62 14.464zm-108.75-163.006c9.85 0 18.68 4.442 24.62 11.415 4.81 5.651 7.74 12.96 7.74 20.95 0 2.348-.27 4.633-.75 6.841-1.75 8.118-6.56 15.101-13.15 19.703-.18.123-.35.252-.53.371-3.92 2.622-8.45 4.379-13.32 5.079-.4.058-.8.141-1.2.184-1.12.118-2.26.184-3.41.184-1.16 0-2.29-.066-3.42-.184-4.78-.504-9.24-2.082-13.18-4.447-.63-.38-1.26-.765-1.87-1.187-4.73-3.302-8.53-7.838-10.95-13.136-.96-2.083-1.71-4.274-2.2-6.564-.48-2.209-.75-4.495-.75-6.844 0-7.989 2.93-15.298 7.74-20.949 5.94-6.973 14.77-11.416 24.63-11.416zm-20.46 86.523c6.21 2.962 13.13 4.671 20.46 4.671 7.32 0 14.24-1.709 20.45-4.672l61.97 79.944-164.76-.119zm115.24 187.062c-.39 0-.69 0-.9.01-.14-.01-.29-.01-.42-.01-.26 0-.48.01-.71.03l-185.55-.13c-.17-.02-.33-.03-.5-.03-.17-.01-.39-.01-.6 0-3.57-.06-23.39.1-28.9 12.65-12 27.34-32.08 43.03-55.12 43.03-31.54-.02-57.19-26.35-57.17001-58.7.01001-11.42 3.25001-22.52 9.23001-31.94 3.07 2.21 6.87 4.6 10.66 6.12 3.94 1.58 8.4-.34 9.97-4.28 1.57-3.93-.34-8.4-4.28-9.97-3.79-1.52-8.38-4.96-11.04-7.17-.46-.38-.88-.73-1.21-1.02-.26-.32-.51-.63-.76-.95-4.24-5.449-7.44-11.604-9.56-18.138-1.92-5.925-2.96-12.159-2.96-18.487 0-.012 0-.027 0-.039.01-15.648 5.96-30.36 16.74-41.429 10.8-11.092 25.17-17.202 40.49-17.202 16.23.01 30.97 7.845 42.47 22.033 3.25 4.011 6.23 8.539 8.91 13.54 1.3 2.41 2.55 4.895 3.7 7.524.31.719.68 1.387 1.09 2.027 2.37 3.764 6.16 6.192 10.22 7.767 4.09 1.588 8.42 2.315 11.84 2.632 2.37.22 4.26.254 5.34.252.12-.001.28.001.38-.001.22.01.43.01.61.006.16-.006.31-.014.46-.027l185.6.135c.12.012.21.018.26.018.23.009.52.018.81.003.11.002.3.002.46.003 2.43.014 10.15-.195 17.15-2.915 4.75-1.845 9.15-4.837 11.3-9.729 1.16-2.644 2.42-5.144 3.73-7.566 2.69-4.993 5.68-9.513 8.93-13.517 11.5-14.145 26.24-21.949 42.46-21.949 31.54.021 57.19 26.35 57.17001 58.694-.01001 11.479-3.33001 22.6-9.36001 32.05-3.21-2.186-7.24-4.556-11.55-6.077-3.99-1.406-8.38.683-9.79 4.678-1.41 3.994.69 8.384 4.68 9.794 4.97 1.75 10.41 5.88 12.63 7.78.55.67 1.05 1.38 1.57 2.07.46.62.94 1.23 1.38 1.86.53.78 1.01 1.59 1.5 2.39.4.65.82 1.28 1.19 1.94.47.83.88 1.69 1.3 2.54.34.67.7 1.33 1.01 2.01.4.87.74 1.78 1.1 2.67.27.69.57 1.36.82 2.05.33.94.6 1.9.88 2.86.21.67.44 1.33.62 2.01.27 1.02.46 2.06.68 3.1.13.63.3 1.26.41 1.9.19 1.15.32 2.31.45 3.46.06.55.16 1.09.21 1.64.14 1.71.22 3.43.22 5.16-.02 32.32-25.68 58.62-57.23 58.62-23.03-.01-43.1-15.72-55.08-43.09-5.19-11.87-23.12-12.69-27.94-12.69zm155.1-10.98c-.15-1.39-.31-2.77-.54-4.14-.13-.77-.29-1.54-.44-2.31-.25-1.24-.51-2.48-.81-3.71-.2-.79-.43-1.58-.65-2.37-.34-1.19-.7-2.37-1.1-3.53-.26-.78-.54-1.56-.83-2.33-.44-1.17-.91-2.32-1.41-3.46-.32-.73-.63-1.47-.97-2.19-.56-1.19-1.18-2.36-1.8-3.52-.34-.63-.67-1.28-1.03-1.91-.79-1.38-1.65-2.72-2.54-4.04-.24-.38-.47-.77-.72-1.14-.03-.04-.06-.09-.09-.14 8.71-12.439 13.46-27.466 13.47002-42.949.02998-40.801-32.50002-74.018-72.54002-74.045-19.97 0-37.99 8.811-52.07 24.855l-78.11-100.758v-2.553c0-26.308-21.4-47.71-47.7-47.71-26.31 0-47.71 21.402-47.71 47.71v2.553l-77.99 100.603c-14.07-16.085-32.12-24.922-52.14-24.936-19.46 0-37.74 7.756-51.45 21.842-13.59 13.945-21.08 32.458-21.09 52.122v.051c0 15.396 4.73 30.402 13.42 42.885-8.71 12.44-13.46 27.47-13.47002 42.94-.02998 40.81 32.50002 74.03 72.54002 74.06 29.38-.01 54.58-19.04 69.13-52.19 1.09-1.82 8.89-3.63 14.48-3.5.16.01.34.01.53.01.18.01.37.02.52.02l186.38.14c.16 0 .34-.01.54-.02.18-.01.37-.01.52-.01 4.86-.23 13.3 1.54 14.46 3.49 14.52 33.21 39.72 52.27 69.15 52.29 39.98 0 72.53-33.18 72.55-73.97 0-2.06-.1-4.12-.26-6.17-.06-.66-.16-1.31-.23-1.97z" fill="#1b1a19"/><path d="m223.092 1932.67c-.773.09-1.564.09-2.366-.08-.27-.05-13.341-2.55-22.232 2.88-13.424 8.2-17.784 20.19-13.332 36.68 2.235 8.28 9.276 12.95 17.485 15.53-2.112-10.16-.064-19.26.064-19.81.962-4.13 5.086-6.7 9.214-5.73 4.117.96 6.681 5.07 5.737 9.18-.056.25-2.366 11.14 2.155 19.21 2.636.14 5.15.19 7.387.16 33.73-.46 61.213-12.96 69.842-20.29-14.935-2.91-30.353-7.15-41.893-13.31-12.706-6.78-23.381-14.95-32.061-24.42" fill="#fffffe"/><path d="m903.802 1928.84c-6.042-12.06-19.028-19.97-31.622-19.09-.411.02-.811-.01-1.209-.05-13.948 26.24-37.34 44.61-69.136 54.69 4.727 1.63 10.21 3.26 16.321 4.61 25.12 5.58 44.237 7.27 58.167 5.05 4.422-9.59-2.121-19.51-2.416-19.95-2.362-3.49-1.475-8.26 2.005-10.64 3.476-2.39 8.215-1.54 10.621 1.92.387.56 6.952 10.27 6.645 22.56 2.074-1.4 3.909-3 5.472-4.83 12.246-14.32 8.482-27.62 5.152-34.27" fill="#fffffe"/><path d="m861.571 1893.78c26.413-64.14-13.58-163.31-64.847-199.5-2.233-1.58-3.459-4.22-3.219-6.94 5.866-67.07-22.371-143.26-32.561-168.15-45.066 25.69-104.173 18.95-132.031 15.76-2.484-.29-4.723-.55-6.683-.75-13.313-1.36-21.534 1.95-31.958 6.16-11.793 4.76-26.113 10.54-50.872 10.54-3.517 0-7.239-.12-11.201-.37-30.811-1.97-49.253-10.74-62.719-17.13-9.423-4.48-16.243-7.71-23.732-7.32-2.65.14-7.136.79-12.332 1.55-24.885 3.64-72.66 10.59-112.044-8.68-15.358 32.5-44.09 103.65-51.134 193.48-.129 1.65-.788 3.21-1.881 4.46-17.17 19.57-63.196 97.2-51.576 160.94 5.261 28.86 21.947 50.97 49.597 65.72 20.985 11.2 60.658 16.15 82.747 17.45-9.351-20.99-44.893-102.47-60.851-163.64-1.07-4.1 1.386-8.29 5.488-9.36 4.104-1.08 8.289 1.39 9.359 5.49 18.031 69.11 61.819 165.28 62.259 166.24 1.435 3.14.597 6.85-2.047 9.07-.771.67-19.782 17.57-9.66 49.18 6.028 18.83 19.238 23.01 28.515 23.43-1.67-3.43-2.564-6.78-2.826-9.53-.403-4.22 2.69-7.96 6.908-8.36 4.182-.4 7.914 2.64 8.359 6.81.335 2.67 3.088 15.67 24.743 14.51 10.04-.55 12.519-9.25 12.399-14.31-.099-4.24 3.255-7.75 7.491-7.85 4.313-.12 7.75 3.25 7.851 7.49.088 3.76-.512 7.56-1.748 11.14 10.129 1.32 17.882-1.1 23.076-7.21 13.162-15.5 9.757-53.25-9.109-100.98-34.706-87.82-27.717-186.31-27.402-190.46.319-4.23 4.016-7.39 8.227-7.07 4.226.32 7.392 4 7.073 8.23-.074.98-7.004 99.2 26.374 183.65 3.445 8.72 6.345 17.06 8.808 25.07 14.597 4.11 37.666 6.54 65.385 6.86 16.021.16 38.941-1.36 53.127-4.24 2.612-8.79 5.797-18.02 9.616-27.69 33.423-84.56 26.446-182.67 26.371-183.65-.32-4.23 2.848-7.91 7.073-8.23 4.181-.31 7.91 2.84 8.23 7.07.315 4.15 7.304 102.64-27.402 190.46-4.032 10.2-7.312 19.9-9.921 29.07-.082 1-.354 1.96-.797 2.83-8.8 32.37-8.45 57.23 1.607 69.08 5.197 6.11 12.951 8.52 23.079 7.21-1.237-3.59-1.836-7.38-1.749-11.14.096-4.18 3.513-7.49 7.667-7.49h.182c4.235.1 7.589 3.61 7.49 7.85-.117 5.05 2.362 13.76 12.402 14.31 22.873 1.29 24.672-13.78 24.734-14.42.399-4.22 4.112-7.32 8.368-6.9 4.217.4 7.31 4.14 6.905 8.36-.262 2.75-1.16 6.12-2.839 9.55 9.325-.38 22.482-4.55 28.53-23.44 10.247-32.01-9.462-49.02-9.662-49.19-2.653-2.23-3.486-5.95-2.032-9.1.536-1.15 53.695-116.57 61.532-169.34.623-4.19 4.54-7.08 8.715-6.46 4.193.62 7.085 4.52 6.462 8.71-7.017 47.26-46.734 137.97-59.136 165.52 47.382.61 106.958-10.29 129.222-64.35" fill="#fffffe"/><path d="m270.198 911.996c5.735-8.23 14.332-13.292 25.556-15.047 2.146-.334 4.308-.505 6.424-.505 38.345 0 60.025 54.332 65.243 90.851 4.197 29.385-3.27 48.905-24.212 63.305-5.859 4.03-11.189 12.3-16.346 20.3-8.568 13.3-18.28 28.37-34.263 28.37-.002 0-.003 0-.005 0-2.096 0-4.245-.27-6.386-.81-6.549-1.64-11.83-5.62-15.27-11.52-9.389-16.11-2.803-42.5-1.691-46.62 4.593-22.53 2.321-37.18-1.961-58.587l-.4-1.995c-3.681-18.277-9.84-48.87 3.311-67.742zm118.311 343.414s-16.723 35.12-46.823 21.74c-20.389-9.06-21.654-89.05 20.067-80.27 31.773 6.69 26.756 58.53 26.756 58.53zm50.371 6.47c38.234-47.11 77.704-49.09 92.563-49.83 1.225-.06 2.485-.1 3.976-.1 14.561 0 64.372 3.3 93.896 45.72 18.471 26.54 41.914 43.93 64.583 60.76 34.613 25.68 67.308 49.94 68.387 100.68.548 25.82-8.125 49.21-24.423 65.85-16.262 16.62-39.273 25.76-64.793 25.76h-.003c-5.302 0-10.751-.39-16.196-1.17-37.523-5.35-54.37-21.95-69.229-36.6-8.344-8.22-16.226-15.98-27.246-21.1-15.492-7.19-24.309-17.58-29.322-27.33-7.83 11.43-19.863 20.65-31.767 26.17-16.139 7.48-26.954 16.44-37.415 25.1-17.999 14.9-34.893 29.08-72.085 28.17-19.374-.41-46.439-7.61-64.297-26.57-14.167-15.03-20.873-35.08-19.934-59.58 2.077-54.16 36.056-77.98 72.028-103.2 21.074-14.77 42.864-30.04 61.277-52.73zm42.517-73.01c1.854-1.15 46.012-28.09 99.788-3.98 3.866 1.73 5.596 6.27 3.863 10.14-1.735 3.86-6.275 5.59-10.139 3.86-46.392-20.8-84.996 2.75-85.378 3-1.265.79-2.67 1.16-4.059 1.16-2.558 0-5.058-1.27-6.514-3.6-2.245-3.6-1.153-8.33 2.439-10.58zm228.302 8.01c41.72-8.78 40.455 71.21 20.067 80.27-30.101 13.38-46.824-21.74-46.824-21.74s-5.016-51.84 26.757-58.53zm-.834-209.585c5.215-36.519 26.896-90.851 65.24-90.851 2.119 0 4.28.171 6.426.505 11.224 1.755 19.822 6.817 25.556 15.049 13.151 18.877 6.989 49.473 3.305 67.754l-.398 1.982c-4.28 21.406-6.552 36.056-1.96 58.586 1.115 4.12 7.699 30.51-1.691 46.62-3.437 5.9-8.718 9.88-15.267 11.52-2.142.54-4.291.81-6.389.81-15.984 0-25.697-15.07-34.269-28.37-5.154-8-10.486-16.27-16.342-20.3-20.944-14.4-28.409-33.92-24.211-63.305zm-463.741-3.608c4.483 28.323 1.852 51.993-.469 72.873-2.669 24.02-4.778 42.98 4.395 61.12 9.957 19.69 31.265 20.73 38.539 20.48 4.141-12.35 7.82-20.12 9.013-22.52 1.887-3.79 6.495-5.33 10.288-3.44 3.792 1.88 5.337 6.49 3.448 10.28-4.097 8.23-39.278 83.55-13.061 192.67.514 2.14.087 4.39-1.171 6.19-.481.69-48.255 70.95-10.954 144.7 7.986 15.79 18.72 26.89 30.874 34.59.515.13 1.024.31 1.52.56.847.42 1.562.99 2.171 1.65 35.518 20.09 81.598 13.38 107.485 9.61 5.802-.85 10.384-1.52 13.74-1.69 11.399-.63 20.535 3.75 31.125 8.78 13.029 6.19 29.244 13.89 57.109 15.68 28.363 1.8 42.7-3.98 55.351-9.09 11.407-4.61 22.184-8.99 39.279-7.19 2.014.21 4.31.47 6.858.76 41.242 4.74 137.816 15.82 165.583-67.75 22.76-68.52-20.583-125.06-21.024-125.62-1.615-2.06-2.062-4.81-1.193-7.28.381-1.08 37.439-108.7-6.629-194.93-1.927-3.77-.432-8.39 3.341-10.32 3.771-1.93 8.395-.43 10.325 3.34 3.548 6.94 6.571 13.99 9.204 21.08.14-.01.272-.04.414-.04 9.824-.09 27.636-2.88 36.552-20.5 9.168-18.14 7.061-37.1 4.393-61.11-2.322-20.89-4.954-44.56-.47-72.883l.509-3.202c7.271-45.716 14.791-92.988-35.784-112.913-18.192-7.164-37.592-4.916-56.117 6.498-37.483 23.089-63.823 78.009-70.789 147.27 19.14 8.89 26.691 17.13 27.347 17.87 2.796 3.19 2.484 8.04-.699 10.83-1.456 1.28-3.263 1.91-5.062 1.91-2.13 0-4.249-.88-5.766-2.61-.276-.3-34.148-35.82-150.288-35.82-115.261 0-149.291 30.21-149.62 30.51-3.093 2.86-7.93 2.72-10.817-.33-2.886-3.06-2.806-7.84.219-10.76.713-.69 9.564-8.87 32.428-17.13-7.029-66.377-32.937-119.224-69.683-141.774-18.685-11.469-38.269-13.698-56.636-6.464-50.578 19.923-43.059 67.196-35.788 112.91z" fill="#fffffe"/><path d="m741.767 1037.96c8.398 5.77 14.575 15.36 20.551 24.63 7.073 10.97 13.75 21.33 21.369 21.33.842 0 1.741-.11 2.667-.34 2.578-.65 4.346-1.99 5.727-4.36 5.401-9.24 1.784-28.91.09-35.07-.045-.16-.084-.33-.12-.5-5.226-25.44-2.643-42.23 1.898-64.926l.401-2.002c3.198-15.879 8.551-42.453-.854-55.954-3.294-4.727-8.311-7.56-15.333-8.656-1.367-.215-2.73-.323-4.058-.323-26.868 0-45.444 45.422-50.051 77.676-3.398 23.795 1.568 37.385 17.713 48.495" fill="#cbbab4"/><path d="m282.335 978.724c4.54 22.696 7.125 39.486 1.896 64.926-.035.17-.075.34-.122.51-1.69 6.15-5.308 25.82.095 35.06 1.381 2.37 3.148 3.71 5.727 4.36.926.23 1.824.34 2.667.34h.002c7.617 0 14.296-10.36 21.366-21.33 5.974-9.27 12.154-18.86 20.549-24.63 16.148-11.1 21.114-24.7 17.714-48.495-4.608-32.252-23.182-77.676-50.051-77.676-1.326 0-2.691.108-4.056.323-7.024 1.096-12.039 3.929-15.335 8.656-9.403 13.496-4.053 40.066-.857 55.942z" fill="#cbbab4"/><path d="m357.302 1226.06c0 6.49 3.405 11.76 7.606 11.76s7.606-5.27 7.606-11.76-3.405-11.75-7.606-11.75-7.606 5.26-7.606 11.75" fill="#fffffe"/><path d="m720.842 1237.82c4.201 0 7.606-5.27 7.606-11.76s-3.405-11.75-7.606-11.75-7.606 5.26-7.606 11.75 3.405 11.76 7.606 11.76" fill="#fffffe"/><path d="m424.953 1368.62c4.691-3.42 11.266-2.39 14.684 2.31 3.42 4.69 2.388 11.26-2.302 14.68-4.691 3.42-11.266 2.39-14.685-2.3-3.418-4.69-2.388-11.27 2.303-14.69zm18.255-43.97c4.691-3.42 11.265-2.39 14.684 2.3s2.388 11.26-2.303 14.68-11.265 2.39-14.684-2.3-2.388-11.27 2.303-14.68zm22.88 51.96c4.691-3.42 11.265-2.38 14.684 2.31s2.388 11.26-2.303 14.68-11.265 2.39-14.684-2.3-2.388-11.27 2.303-14.69zm16.202-37.46c4.691-3.42 11.265-2.39 14.684 2.3s2.388 11.27-2.303 14.69c-4.69 3.42-11.265 2.38-14.684-2.31s-2.388-11.26 2.303-14.68zm101.091 13.61c-2.959 4.99-9.406 6.64-14.399 3.68-4.994-2.96-6.644-9.41-3.684-14.4 2.959-4.99 9.406-6.64 14.399-3.68 4.994 2.95 6.644 9.4 3.684 14.4zm4.512 22.12c2.959-4.99 9.406-6.64 14.4-3.68 4.993 2.96 6.643 9.41 3.684 14.4s-9.406 6.64-14.4 3.68c-4.994-2.95-6.643-9.4-3.684-14.4zm14.936-50.98c2.959-5 9.406-6.65 14.4-3.69s6.643 9.41 3.684 14.4c-2.959 5-9.406 6.65-14.4 3.69s-6.643-9.41-3.684-14.4zm25.256 39.13c2.959-4.99 9.406-6.64 14.4-3.68 4.993 2.96 6.643 9.4 3.684 14.4-2.959 4.99-9.406 6.64-14.4 3.68s-6.643-9.41-3.684-14.4zm-307.177 55.37c-.776 20.23 4.53 36.54 15.769 48.47 18.856 20.02 47.838 21.63 53.456 21.75 31.314.6 44.834-10.46 61.971-24.65 10.69-8.85 22.806-18.88 40.749-27.2 18.395-8.53 31.411-24.18 31.654-38.05-.005-.39.009-.69.009-.69.017-.39.09-.76.162-1.13-.279-20.57-.53-63.29-.609-77.47-20.678-4.54-43.743-26.35-39.635-46.89 4.658-23.3 47.747-24.46 47.747-24.46s51.242-2.21 51.242 28.07c0 25.53-25.603 39.92-44.009 43.34.089 15.87.395 67.09.704 83.25.987 8.1 5.608 25.38 26.738 35.19 13.433 6.24 22.646 15.32 31.553 24.09 14.455 14.25 28.11 27.7 60.631 32.34 26.793 3.83 51.642-3.57 67.859-20.13 13.579-13.87 20.511-32.82 20.047-54.8-.92-43.22-27.96-63.28-62.192-88.68-22.559-16.74-48.129-35.71-68.033-64.31-25.927-37.25-72.273-39.14-81.302-39.14-1.188 0-2.191.03-2.99.07-14.432.72-47.713 2.38-81.633 44.18-19.766 24.35-43.469 40.97-64.384 55.63-35.599 24.95-63.717 44.66-65.504 91.22z" fill="#b2b4b1"/><path d="m552.561 1283.31c7.517 0 13.611-4.3 13.611-9.61s-6.094-9.61-13.611-9.61-13.611 4.3-13.611 9.61 6.094 9.61 13.611 9.61" fill="#fffffe"/><g fill="#1b1a19"><path d="m606.513 1338.3c4.994 2.96 11.441 1.31 14.4-3.69 2.959-4.99 1.31-11.44-3.684-14.4s-11.441-1.31-14.4 3.69c-2.959 4.99-1.31 11.44 3.684 14.4"/><path d="m579.697 1338.36c-4.993-2.96-11.44-1.31-14.399 3.68-2.96 4.99-1.31 11.44 3.684 14.4 4.993 2.96 11.44 1.31 14.399-3.68 2.96-5 1.31-11.45-3.684-14.4"/><path d="m591.577 1389.28c4.994 2.96 11.441 1.31 14.4-3.68s1.309-11.44-3.684-14.4c-4.994-2.96-11.441-1.31-14.4 3.68-2.959 5-1.31 11.45 3.684 14.4"/><path d="m631.769 1377.43c4.994 2.96 11.441 1.31 14.4-3.68 2.959-5 1.309-11.44-3.684-14.4-4.994-2.96-11.441-1.31-14.4 3.68s-1.31 11.44 3.684 14.4"/><path d="m455.589 1341.63c4.691-3.42 5.722-9.99 2.303-14.68s-9.993-5.72-14.684-2.3c-4.691 3.41-5.722 9.99-2.303 14.68s9.993 5.72 14.684 2.3"/><path d="m494.671 1356.14c4.691-3.42 5.722-10 2.303-14.69s-9.993-5.72-14.684-2.3-5.722 9.99-2.303 14.68 9.994 5.73 14.684 2.31"/><path d="m478.469 1393.6c4.691-3.42 5.722-9.99 2.303-14.68s-9.993-5.73-14.684-2.31-5.722 10-2.303 14.69 9.993 5.72 14.684 2.3"/><path d="m437.335 1385.61c4.69-3.42 5.722-9.99 2.302-14.68-3.418-4.7-9.993-5.73-14.684-2.31s-5.721 10-2.303 14.69c3.419 4.69 9.994 5.72 14.685 2.3"/></g><path d="m292.6 1083.92h-.002c-.843 0-1.741-.11-2.667-.34-2.579-.65-4.346-1.99-5.727-4.36-5.403-9.24-1.785-28.91-.095-35.06.047-.17.087-.34.122-.51 5.229-25.44 2.644-42.23-1.896-64.926l-.405-2.014c-3.196-15.876-8.546-42.446.857-55.942 3.296-4.727 8.311-7.56 15.335-8.656 1.365-.215 2.73-.323 4.056-.323 26.869 0 45.443 45.424 50.051 77.676 3.4 23.795-1.566 37.395-17.714 48.495-8.395 5.77-14.575 15.36-20.549 24.63-7.07 10.97-13.749 21.33-21.366 21.33zm34.263-13.02c5.157-8 10.487-16.27 16.346-20.3 20.942-14.4 28.409-33.92 24.212-63.305-5.218-36.519-26.898-90.851-65.243-90.851-2.116 0-4.278.171-6.424.505-11.224 1.755-19.821 6.817-25.556 15.047-13.151 18.872-6.992 49.465-3.311 67.742l.4 1.995c4.282 21.407 6.554 36.057 1.961 58.587-1.112 4.12-7.698 30.51 1.691 46.62 3.44 5.9 8.721 9.88 15.27 11.52 2.141.54 4.29.81 6.386.81h.005c15.983 0 25.695-15.07 34.263-28.37z" fill="#cbbab4"/><path d="m372.514 1226.06c0 6.49-3.405 11.76-7.606 11.76s-7.606-5.27-7.606-11.76 3.405-11.75 7.606-11.75 7.606 5.26 7.606 11.75zm-30.828 51.09c30.1 13.38 46.823-21.74 46.823-21.74s5.017-51.84-26.756-58.53c-41.721-8.78-40.456 71.21-20.067 80.27z" fill="#1b1a19"/><path d="m720.842 1214.31c4.201 0 7.606 5.26 7.606 11.75s-3.405 11.76-7.606 11.76-7.606-5.27-7.606-11.76 3.405-11.75 7.606-11.75zm8.924 62.84c20.388-9.06 21.653-89.05-20.067-80.27-31.773 6.69-26.757 58.53-26.757 58.53s16.723 35.12 46.824 21.74z" fill="#1b1a19"/><path d="m724.054 989.465c4.607-32.254 23.183-77.676 50.051-77.676 1.328 0 2.691.108 4.058.323 7.022 1.096 12.039 3.929 15.333 8.656 9.405 13.501 4.052 40.075.854 55.954l-.401 2.002c-4.541 22.696-7.124 39.486-1.898 64.926.036.17.075.34.12.5 1.694 6.16 5.311 25.83-.09 35.07-1.381 2.37-3.149 3.71-5.727 4.36-.926.23-1.825.34-2.667.34-7.619 0-14.296-10.36-21.369-21.33-5.976-9.27-12.153-18.86-20.551-24.63-16.145-11.11-21.111-24.7-17.713-48.495zm9.022 61.135c5.856 4.03 11.188 12.3 16.342 20.3 8.572 13.3 18.285 28.37 34.269 28.37 2.098 0 4.247-.27 6.389-.81 6.549-1.64 11.83-5.62 15.267-11.52 9.39-16.11 2.806-42.5 1.691-46.62-4.592-22.53-2.32-37.18 1.96-58.586l.398-1.982c3.684-18.281 9.846-48.877-3.305-67.754-5.734-8.232-14.332-13.294-25.556-15.049-2.146-.334-4.307-.505-6.426-.505-38.344 0-60.025 54.332-65.24 90.851-4.198 29.385 3.267 48.905 24.211 63.305z" fill="#cbbab4"/><path d="m485.472 1203.05c1.389 0 2.794-.37 4.059-1.16.382-.25 38.986-23.8 85.378-3 3.864 1.73 8.404 0 10.139-3.86 1.733-3.87.003-8.41-3.863-10.14-53.776-24.11-97.934 2.83-99.788 3.98-3.592 2.25-4.684 6.98-2.439 10.58 1.456 2.33 3.956 3.6 6.514 3.6" fill="#1b1a19"/><path d="m538.95 1273.7c0-5.31 6.094-9.61 13.611-9.61s13.611 4.3 13.611 9.61-6.094 9.61-13.611 9.61-13.611-4.3-13.611-9.61zm-218.042 144.7c1.787-46.56 29.905-66.27 65.504-91.22 20.915-14.66 44.618-31.28 64.384-55.63 33.92-41.8 67.201-43.46 81.633-44.18.799-.04 1.802-.07 2.99-.07 9.029 0 55.375 1.89 81.302 39.14 19.904 28.6 45.474 47.57 68.033 64.31 34.232 25.4 61.272 45.46 62.192 88.68.464 21.98-6.468 40.93-20.047 54.8-16.217 16.56-41.066 23.96-67.859 20.13-32.521-4.64-46.176-18.09-60.631-32.34-8.907-8.77-18.12-17.85-31.553-24.09-21.13-9.81-25.751-27.09-26.738-35.19-.309-16.16-.615-67.38-.704-83.25 18.406-3.42 44.009-17.81 44.009-43.34 0-30.28-51.242-28.07-51.242-28.07s-43.089 1.16-47.747 24.46c-4.108 20.54 18.957 42.35 39.635 46.89.079 14.18.33 56.9.609 77.47-.072.37-.145.74-.162 1.13 0 0-.014.3-.009.69-.243 13.87-13.259 29.52-31.654 38.05-17.943 8.32-30.059 18.35-40.749 27.2-17.137 14.19-30.657 25.25-61.971 24.65-5.618-.12-34.6-1.73-53.456-21.75-11.239-11.93-16.545-28.24-15.769-48.47zm68.898 85.56c37.192.91 54.086-13.27 72.085-28.17 10.461-8.66 21.276-17.62 37.415-25.1 11.904-5.52 23.937-14.74 31.767-26.17 5.013 9.75 13.83 20.14 29.322 27.33 11.02 5.12 18.902 12.88 27.246 21.1 14.859 14.65 31.706 31.25 69.229 36.6 5.445.78 10.894 1.17 16.196 1.17h.003c25.52 0 48.531-9.14 64.793-25.76 16.298-16.64 24.971-40.03 24.423-65.85-1.079-50.74-33.774-75-68.387-100.68-22.669-16.83-46.112-34.22-64.583-60.76-29.524-42.42-79.335-45.72-93.896-45.72-1.491 0-2.751.04-3.976.1-14.859.74-54.329 2.72-92.563 49.83-18.413 22.69-40.203 37.96-61.277 52.73-35.972 25.22-69.951 49.04-72.028 103.2-.939 24.5 5.767 44.55 19.934 59.58 17.858 18.96 44.923 26.16 64.297 26.57z" fill="#1b1a19"/><path d="m898.65 1963.11c-1.563 1.83-3.398 3.43-5.472 4.83.307-12.29-6.258-22-6.645-22.56-2.406-3.46-7.145-4.31-10.621-1.92-3.48 2.38-4.367 7.15-2.005 10.64.295.44 6.838 10.36 2.416 19.95-13.93 2.22-33.047.53-58.167-5.05-6.111-1.35-11.594-2.98-16.321-4.61 31.796-10.08 55.188-28.45 69.136-54.69.398.04.798.07 1.209.05 12.594-.88 25.58 7.03 31.622 19.09 3.33 6.65 7.094 19.95-5.152 34.27zm-166.301-4.98c12.402-27.55 52.119-118.26 59.136-165.52.623-4.19-2.269-8.09-6.462-8.71-4.175-.62-8.092 2.27-8.715 6.46-7.837 52.77-60.996 168.19-61.532 169.34-1.454 3.15-.621 6.87 2.032 9.1.2.17 19.909 17.18 9.662 49.19-6.048 18.89-19.205 23.06-28.53 23.44 1.679-3.43 2.577-6.8 2.839-9.55.405-4.22-2.688-7.96-6.905-8.36-4.256-.42-7.969 2.68-8.368 6.9-.062.64-1.861 15.71-24.734 14.42-10.04-.55-12.519-9.26-12.402-14.31.099-4.24-3.255-7.75-7.49-7.85-.062 0-.122 0-.182 0-4.154 0-7.571 3.31-7.667 7.49-.087 3.76.512 7.55 1.749 11.14-10.128 1.31-17.882-1.1-23.079-7.21-10.057-11.85-10.407-36.71-1.607-69.08.443-.87.715-1.83.797-2.83 2.609-9.17 5.889-18.87 9.921-29.07 34.706-87.82 27.717-186.31 27.402-190.46-.32-4.23-4.049-7.38-8.23-7.07-4.225.32-7.393 4-7.073 8.23.075.98 7.052 99.09-26.371 183.65-3.819 9.67-7.004 18.9-9.616 27.69-14.186 2.88-37.106 4.4-53.127 4.24-27.719-.32-50.788-2.75-65.385-6.86-2.463-8.01-5.363-16.35-8.808-25.07-33.378-84.45-26.448-182.67-26.374-183.65.319-4.23-2.847-7.91-7.073-8.23-4.211-.32-7.908 2.84-8.227 7.07-.315 4.15-7.304 102.64 27.402 190.46 18.866 47.73 22.271 85.48 9.109 100.98-5.194 6.11-12.947 8.53-23.076 7.21 1.236-3.58 1.836-7.38 1.748-11.14-.101-4.24-3.538-7.61-7.851-7.49-4.236.1-7.59 3.61-7.491 7.85.12 5.06-2.359 13.76-12.399 14.31-21.655 1.16-24.408-11.84-24.743-14.51-.445-4.17-4.177-7.21-8.359-6.81-4.218.4-7.311 4.14-6.908 8.36.262 2.75 1.156 6.1 2.826 9.53-9.277-.42-22.487-4.6-28.515-23.43-10.122-31.61 8.889-48.51 9.66-49.18 2.644-2.22 3.482-5.93 2.047-9.07-.44-.96-44.228-97.13-62.259-166.24-1.07-4.1-5.255-6.57-9.359-5.49-4.102 1.07-6.558 5.26-5.488 9.36 15.958 61.17 51.5 142.65 60.851 163.64-22.089-1.3-61.762-6.25-82.747-17.45-27.65-14.75-44.336-36.86-49.597-65.72-11.62-63.74 34.406-141.37 51.576-160.94 1.093-1.25 1.752-2.81 1.881-4.46 7.044-89.83 35.776-160.98 51.134-193.48 39.384 19.27 87.159 12.32 112.044 8.68 5.196-.76 9.682-1.41 12.332-1.55 7.489-.39 14.309 2.84 23.732 7.32 13.466 6.39 31.908 15.16 62.719 17.13 3.962.25 7.684.37 11.201.37 24.759 0 39.079-5.78 50.872-10.54 10.424-4.21 18.645-7.52 31.958-6.16 1.96.2 4.199.46 6.683.75 27.858 3.19 86.965 9.93 132.031-15.76 10.19 24.89 38.427 101.08 32.561 168.15-.24 2.72.986 5.36 3.219 6.94 51.267 36.19 91.26 135.36 64.847 199.5-22.264 54.06-81.84 64.96-129.222 64.35zm-505.145 32.56c-2.237.03-4.751-.02-7.387-.16-4.521-8.07-2.211-18.96-2.155-19.21.944-4.11-1.62-8.22-5.737-9.18-4.128-.97-8.252 1.6-9.214 5.73-.128.55-2.176 9.65-.064 19.81-8.209-2.58-15.25-7.25-17.485-15.53-4.452-16.49-.092-28.48 13.332-36.68 8.891-5.43 21.962-2.93 22.232-2.88.802.17 1.593.17 2.366.08 8.68 9.47 19.355 17.64 32.061 24.42 11.54 6.16 26.958 10.4 41.893 13.31-8.629 7.33-36.112 19.83-69.842 20.29zm57.948-524.65c-37.301-73.75 10.473-144.01 10.954-144.7 1.258-1.8 1.685-4.05 1.171-6.19-26.217-109.12 8.964-184.44 13.061-192.67 1.889-3.79.344-8.4-3.448-10.28-3.793-1.89-8.401-.35-10.288 3.44-1.193 2.4-4.872 10.17-9.013 22.52-7.274.25-28.582-.79-38.539-20.48-9.173-18.14-7.064-37.1-4.395-61.12 2.321-20.88 4.952-44.55.469-72.873l-.51-3.205c-7.271-45.714-14.79-92.987 35.788-112.91 18.367-7.234 37.951-5.005 56.636 6.464 36.746 22.55 62.654 75.397 69.683 141.774-22.864 8.26-31.715 16.44-32.428 17.13-3.025 2.92-3.105 7.7-.219 10.76 2.887 3.05 7.724 3.19 10.817.33.329-.3 34.359-30.51 149.62-30.51 116.14 0 150.012 35.52 150.288 35.82 1.517 1.73 3.636 2.61 5.766 2.61 1.799 0 3.606-.63 5.062-1.91 3.183-2.79 3.495-7.64.699-10.83-.656-.74-8.207-8.98-27.347-17.87 6.966-69.261 33.306-124.181 70.789-147.27 18.525-11.414 37.925-13.662 56.117-6.498 50.575 19.925 43.055 67.197 35.784 112.913l-.509 3.202c-4.484 28.323-1.852 51.993.47 72.883 2.668 24.01 4.775 42.97-4.393 61.11-8.916 17.62-26.728 20.41-36.552 20.5-.142 0-.274.03-.414.04-2.633-7.09-5.656-14.14-9.204-21.08-1.93-3.77-6.554-5.27-10.325-3.34-3.773 1.93-5.268 6.55-3.341 10.32 44.068 86.23 7.01 193.85 6.629 194.93-.869 2.47-.422 5.22 1.193 7.28.441.56 43.784 57.1 21.024 125.62-27.767 83.57-124.341 72.49-165.583 67.75-2.548-.29-4.844-.55-6.858-.76-17.095-1.8-27.872 2.58-39.279 7.19-12.651 5.11-26.988 10.89-55.351 9.09-27.865-1.79-44.08-9.49-57.109-15.68-10.59-5.03-19.726-9.41-31.125-8.78-3.356.17-7.938.84-13.74 1.69-25.887 3.77-71.967 10.48-107.485-9.61-.609-.66-1.324-1.23-2.171-1.65-.496-.25-1.005-.43-1.52-.56-12.154-7.7-22.888-18.8-30.874-34.59zm632.371 455.93c-7.84-15.66-23.346-26.07-39.849-27.45 25.199-70.48-15.447-169.67-68.548-210.17 4.825-72.12-25.999-151.93-35.165-173.83 15.693-12.2 28.783-29.46 36.846-53.74 22.274-67.04-11.248-122.38-21.021-136.5 5.703-17.96 26.664-93.1 5.446-166.95 12.349-.94 34.185-5.96 45.698-28.73 11.233-22.21 8.785-44.23 5.949-69.73-2.214-19.92-4.723-42.5-.56-68.782l.507-3.192c7.057-44.381 16.726-105.161-45.319-129.602-22.523-8.874-47.311-6.133-69.786 7.71-40.683 25.061-69.378 82.401-77.535 154.296-25.072-9.01-63.258-17.124-119.675-17.124-51.76 0-88.042 5.924-112.864 12.884-8.035-69.637-36.403-125.446-76.582-150.104-22.624-13.882-47.588-16.606-70.289-7.662-62.043 24.441-52.375 85.22-45.317 129.599l.508 3.193c4.16 26.284 1.65 48.864-.563 68.784-2.835 25.5-5.282 47.52 5.952 69.73 12.037 23.8 34.872 28.31 47.616 28.86-9.468 35.06-17.567 91.93-1.379 162.04-9.457 15.02-47.579 83.43-10.134 157.47 8.613 17.03 19.928 29.32 32.642 38.16-15.511 32.56-45.301 105.39-52.961 197.62-20.192 24.48-65.873 103.71-53.455 171.83 2.425 13.31 6.94 25.35 13.444 36.13-6.282.25-13.919 1.57-20.633 5.67-19.193 11.72-26.35 30.81-20.149 53.77 5.22 19.32 24.795 29.9 55.218 29.9.613 0 1.232 0 1.852-.01 30.847-.43 77.981-13.32 86.405-32.83 8.704 1.23 16.555 2.03 22.493 2.53-4.825 11.03-7.705 26.78-1.256 46.92 9.288 29.02 31.198 33.95 45.037 33.95 5.793 0 10.125-.86 11.57-1.18 5.353 2.91 12.236 4.83 21.034 4.83 1.138 0 2.31-.03 3.508-.1 6.262-.34 11.423-2.37 15.518-5.42.642.36 1.324.66 2.078.82 4.343.94 8.522 1.41 12.502 1.41 12.255 0 22.596-4.42 29.83-12.94 12.608-14.84 14.806-40.71 6.866-74.62 15.545 3.19 36.519 5.06 60.621 5.33.902.01 1.826.02 2.77.02 13.872 0 31.99-1.1 46.273-3.28-7.37 32.89-5.01 58.01 7.341 72.55 7.235 8.52 17.574 12.94 29.829 12.94 3.98 0 8.161-.47 12.501-1.41.755-.16 1.439-.47 2.081-.82 4.095 3.05 9.257 5.08 15.518 5.42 1.198.07 2.367.1 3.506.1 8.797 0 15.68-1.92 21.033-4.83 1.442.32 5.774 1.18 11.572 1.18 13.84 0 35.752-4.94 45.037-33.95 6.908-21.57 3.112-38.11-2.315-49.2 13.525-.11 26.19-1.16 37.983-3.11 3.651 1.97 17.774 9.12 38.077 13.63 19.022 4.23 35.065 6.37 48.528 6.37 21.969 0 37.056-5.69 46.955-17.27 12.956-15.15 15.653-34.26 7.211-51.11z" fill="#1b1a19"/><path d="m842.844 2148.15c18.895 4.44 48.119 8.72 87.776 10.81.707-5.31 3.17-11.94 9.933-18.33 7.824-7.39 17.492-8.75 25.192-8.3-.534-4.72-.321-10.21 1.756-15.63 2.877-7.5 8.879-13.32 17.356-16.83 8.721-3.62 17.583-4.44 25.533-2.66-.21-.4-.45-.8-.69-1.19-.12-.18-.24-.35-.34-.54-2.79-4.13-7.65-7.75-16.12-8.56-7.682-.72-11.403 3.83-11.8 4.36-2.419 3.48-7.161 4.27-10.638 1.85-3.478-2.42-4.293-7.26-1.872-10.73 1.127-1.62 2.994-3.59 5.51-5.4-4.683-8.08-13.448-11.92-26.258-11.28-19.965.97-21.168 22.89-21.21 23.83-.132 2.97-1.972 5.6-4.721 6.74-2.746 1.14-5.91.59-8.11-1.41-.332-.3-9.517-8.19-22.8-4.86-9.025 2.26-13.446 9.7-15.565 15.55-3.428 9.47-2.038 17.66-.93 19.18 2.006 2.41 2.336 5.78.849 8.54-1.486 2.76-4.51 4.32-7.626 3.97-.842-.08-20.034-1.94-25.225 10.89" fill="#ebdcba"/><path d="m724.349 2244.4v2.87c0 10.79 19.027 27.19 72.425 40.84 49.824 12.74 116.194 19.76 186.885 19.76s137.061-7.02 186.881-19.76c53.4-13.65 72.43-30.05 72.43-40.84v-2.87c-40.1 32.31-152.39 49.47-259.311 49.47-106.92 0-219.214-17.16-259.31-49.47" fill="#7bc8e5"/><path d="m1119.28 2128.77c4.67 4.66 7.69 10.83 9.04 18.43 11.15-2.85 18.11-5.72 20.82-8.07-2.3-1.84-9.46-6.02-29.86-10.36" fill="#1b1a19"/><path d="m836.758 2242.78c.735-4.17 4.719-6.96 8.886-6.22 21.262 3.74 44.714 6.57 69.705 8.41 4.228.31 7.401 3.99 7.09 8.21-.297 4.04-3.663 7.11-7.644 7.11-.189 0-.379 0-.57-.02-25.505-1.88-49.473-4.77-71.242-8.6-4.174-.74-6.961-4.71-6.225-8.89zm-39.984 15.99c49.823 12.74 116.194 19.76 186.885 19.76s137.061-7.02 186.881-19.76c53.4-13.65 72.43-30.05 72.43-40.84 0-5.48-4.57-11.43-13.12-17.33-3.19 18.26-28.52 33.33-75.45 44.81-45.7 11.19-106.34 17.35-170.741 17.35-4.237 0-7.672-3.44-7.672-7.67 0-4.24 3.435-7.68 7.672-7.68 139.751 0 226.881-28.15 231.051-49.22l-33.93-65.48c-3.39-6.37-25-18.54-83.79-26.72.52 1.2.99 2.4 1.38 3.57 59.14 8.46 66.89 20.16 66.89 29.49 0 8.6-6.52 19.56-57.36 28.01-33.25 5.53-77.37 8.58-124.241 8.58-46.867 0-90.991-3.05-124.244-8.58-50.837-8.45-57.357-19.41-57.357-28.01 0-8.49 6.334-19.31 55.733-27.74l.94-.13c.159-1.17.339-2.34.584-3.53-51.808 8.34-70.234 19.7-72.875 25.25-.018.03-.05.06-.069.1-.03.06-.044.13-.076.19-7.371 13.92-28.742 55.39-33.672 64.96 1.704 7.83 16.394 19.27 53.412 29.61 4.082 1.13 6.468 5.37 5.329 9.45-.947 3.39-4.03 5.61-7.387 5.61-.683 0-1.377-.09-2.066-.28-39.882-11.14-61.496-25.24-64.426-41.95-8.563 5.9-13.136 11.86-13.136 17.34 0 10.79 19.027 27.19 72.425 40.84z" fill="#7bc8e5"/><path d="m990.731 2114.04c-4.595 1.91-7.5 4.56-8.88 8.1-2.401 6.16.196 14.23 1.399 16.82 1.322 2.85.788 6.23-1.362 8.51s-5.461 3.05-8.384 1.9c-.107-.04-14.238-5.3-22.415 2.42-2.997 2.83-4.423 5.5-5.023 7.85 11.734.42 24.25.65 37.593.65 25.041 0 47.231-.81 66.611-2.16-.28-3.62-1.38-6.47-3.44-8.54-5.03-5.07-14.98-5.34-18.06-5.03-2.42.26-4.78-.67-6.42-2.45-1.63-1.78-2.33-4.23-1.88-6.61 1.56-8.25-.58-15.45-5.88-19.76-5.91-4.8-14.826-5.44-23.859-1.7" fill="#ebdcba"/><path d="m835.74 2131.78c-11.176 3.17-15.805 5.95-17.564 7.34 1.677 1.46 4.961 3.11 9.85 4.83 1.692-5.06 4.399-9.06 7.714-12.17" fill="#1b1a19"/><path d="m1036.32 2129.43c6.46.7 15.04 2.92 21.41 9.35 3.41 3.45 7.1 9.22 7.83 18.14 19.2-1.73 35.1-3.99 47.77-6.41-.83-5.24-2.73-9.17-5.71-11.7-5.57-4.73-13.67-3.73-13.75-3.72-2.38.32-4.81-.51-6.5-2.22-1.68-1.72-2.5-4.12-2.15-6.5.09-.68 2.19-18.03-14.44-26.89-22.29-11.89-39.16-4.03-43.77-1.37.93 3.51 1.35 6.88 1.38 9.79 5.01 5.84 7.77 13.26 7.93 21.53" fill="#ebdcba"/><path d="m1119.28 2128.77c20.4 4.34 27.56 8.52 29.86 10.36-2.71 2.35-9.67 5.22-20.82 8.07-1.35-7.6-4.37-13.77-9.04-18.43zm-283.54 3.01c-3.315 3.11-6.022 7.11-7.714 12.17-4.889-1.72-8.173-3.37-9.85-4.83 1.759-1.39 6.388-4.17 17.564-7.34zm334.8 126.99c-49.82 12.74-116.19 19.76-186.881 19.76s-137.062-7.02-186.885-19.76c-53.398-13.65-72.425-30.05-72.425-40.84 0-5.48 4.573-11.44 13.136-17.34 2.93 16.71 24.544 30.81 64.426 41.95.689.19 1.383.28 2.066.28 3.357 0 6.44-2.22 7.387-5.61 1.139-4.08-1.247-8.32-5.329-9.45-37.018-10.34-51.708-21.78-53.412-29.61 4.93-9.57 26.301-51.04 33.672-64.96.032-.06.046-.13.076-.19.019-.04.051-.07.069-.1 2.641-5.55 21.067-16.91 72.875-25.25-.245 1.19-.425 2.36-.584 3.53l-.94.13c-49.399 8.43-55.733 19.25-55.733 27.74 0 8.6 6.52 19.56 57.357 28.01 33.253 5.53 77.377 8.58 124.244 8.58 46.871 0 90.991-3.05 124.241-8.58 50.84-8.45 57.36-19.41 57.36-28.01 0-9.33-7.75-21.03-66.89-29.49-.39-1.17-.86-2.37-1.38-3.57 58.79 8.18 80.4 20.35 83.79 26.72l33.93 65.48c-4.17 21.07-91.3 49.22-231.051 49.22-4.237 0-7.672 3.44-7.672 7.68 0 4.23 3.435 7.67 7.672 7.67 64.401 0 125.041-6.16 170.741-17.35 46.93-11.48 72.26-26.55 75.45-44.81 8.55 5.9 13.12 11.85 13.12 17.33 0 10.79-19.03 27.19-72.43 40.84zm72.43-11.5c0 10.79-19.03 27.19-72.43 40.84-49.82 12.74-116.19 19.76-186.881 19.76s-137.061-7.02-186.885-19.76c-53.398-13.65-72.425-30.05-72.425-40.84v-2.87c40.096 32.31 152.39 49.47 259.31 49.47 106.921 0 219.211-17.16 259.311-49.47zm-374.901-110.01c3.116.35 6.14-1.21 7.626-3.97 1.487-2.76 1.157-6.13-.849-8.54-1.108-1.52-2.498-9.71.93-19.18 2.119-5.85 6.54-13.29 15.565-15.55 13.283-3.33 22.468 4.56 22.8 4.86 2.2 2 5.364 2.55 8.11 1.41 2.749-1.14 4.589-3.77 4.721-6.74.042-.94 1.245-22.86 21.21-23.83 12.81-.64 21.575 3.2 26.258 11.28-2.516 1.81-4.383 3.78-5.51 5.4-2.421 3.47-1.606 8.31 1.872 10.73 3.477 2.42 8.219 1.63 10.638-1.85.397-.53 4.118-5.08 11.8-4.36 8.47.81 13.33 4.43 16.12 8.56.1.19.22.36.34.54.24.39.48.79.69 1.19-7.95-1.78-16.812-.96-25.533 2.66-8.477 3.51-14.479 9.33-17.356 16.83-2.077 5.42-2.29 10.91-1.756 15.63-7.7-.45-17.368.91-25.192 8.3-6.763 6.39-9.226 13.02-9.933 18.33-39.657-2.09-68.881-6.37-87.776-10.81 5.191-12.83 24.383-10.97 25.225-10.89zm152.401-1.76c-.45 2.38.25 4.83 1.88 6.61 1.64 1.78 4 2.71 6.42 2.45 3.08-.31 13.03-.04 18.06 5.03 2.06 2.07 3.16 4.92 3.44 8.54-19.38 1.35-41.57 2.16-66.611 2.16-13.343 0-25.859-.23-37.593-.65.6-2.35 2.026-5.02 5.023-7.85 8.177-7.72 22.308-2.46 22.415-2.42 2.923 1.15 6.234.38 8.384-1.9s2.684-5.66 1.362-8.51c-1.203-2.59-3.8-10.66-1.399-16.82 1.38-3.54 4.285-6.19 8.88-8.1 9.033-3.74 17.949-3.1 23.859 1.7 5.3 4.31 7.44 11.51 5.88 19.76zm50.31-36.02c16.63 8.86 14.53 26.21 14.44 26.89-.35 2.38.47 4.78 2.15 6.5 1.69 1.71 4.12 2.54 6.5 2.22.08-.01 8.18-1.01 13.75 3.72 2.98 2.53 4.88 6.46 5.71 11.7-12.67 2.42-28.57 4.68-47.77 6.41-.73-8.92-4.42-14.69-7.83-18.14-6.37-6.43-14.95-8.65-21.41-9.35-.16-8.27-2.92-15.69-7.93-21.53-.03-2.91-.45-6.28-1.38-9.79 4.61-2.66 21.48-10.52 43.77 1.37zm187.53 118.45c0-14.73-12.29-28-36.52-39.43l-27.39-52.86c0-.01-.01-.02-.02-.03v-.01c-11.72-22.32-74.5-32.66-111.86-36.89-1.4-.97-2.88-1.9-4.51-2.77-27.2-14.51-48.92-6.3-57.44-1.78l-.55-.02c-5.18-6.31-13.21-11.35-25.33-12.5-2-.19-3.89-.16-5.69-.01-4.818-9.6-16.082-22.5-41.566-21.24-19.959.97-29.653 14.56-33.585 26.72-6.457-2.7-15.522-4.65-26.228-1.98-9.139 2.29-16.597 7.9-21.791 16.1l-3.275.39c-51.84 7.79-81.962 19.27-89.643 34.12-.055.09-.127.17-.179.27-5.522 10.43-18.821 36.16-27.28 52.56-.096.04-.196.06-.291.1-22.106 10.49-34.144 22.54-35.905 35.83-.15.6-.253 1.22-.253 1.86v30.91c0 49.33 141.509 75.94 274.655 75.94 133.141 0 274.651-26.61 274.651-75.94v-25.6c0-.43-.06-.85-.12-1.26.08-.82.12-1.64.12-2.48z" fill="#1b1a19"/><path d="m915.349 2244.97c-24.991-1.84-48.443-4.67-69.705-8.41-4.167-.74-8.151 2.05-8.886 6.22-.736 4.18 2.051 8.15 6.225 8.89 21.769 3.83 45.737 6.72 71.242 8.6.191.02.381.02.57.02 3.981 0 7.347-3.07 7.644-7.11.311-4.22-2.862-7.9-7.09-8.21" fill="#1b1a19"/><path d="m2429.41 2022.98c-22.72-14.52-33.03-36.71-43-58.17-7.15-15.39-14.59-31.23-26.61-43.96-25.9 3.67-49.55 16.79-66.43 37.31-16.87 20.49-25.24 46.02-23.86 72.36 14.81 9.35 31.81 13.6 48.3 17.66 22.97 5.65 46.73 11.5 65.34 31 14.66 15.36 22.34 30.93 22.98 46.44 19.34-6.03 36.7-17.54 49.91-33.59 13.23-16.08 21.22-35.25 23.39-55.48-2.62.41-5.28.66-7.99.66-13.12 0-27.19-4.75-42.03-14.23" fill="#fad829"/><path d="m2400.33 1958.35c9.45 20.36 18.39 39.59 37.34 51.7 15.77 10.07 29.96 13.69 42.28 10.81-.02-.51-.05-1.01-.08-1.52-.08-1.47-.18-2.95-.32-4.43-2.72-28-16.18-53.27-37.91-71.15-17.71-14.58-39.8-22.98-62.61-23.92 4.33 5.82 8 11.91 11.32 18.1 3.62 6.75 6.82 13.62 9.98 20.41" fill="#fad829"/><path d="m2314.14 2063.08c-7.26-1.79-14.62-3.61-21.94-5.86-6.72-2.07-13.4-4.5-19.94-7.63 5.27 22.24 17.55 42.07 35.51 56.84 18.81 15.48 42.55 24 66.87 24 4.94 0 9.82-.38 14.63-1.04.51-.08 1.02-.14 1.53-.22.46-12.63-5.83-25.85-18.75-39.4-15.52-16.26-36.11-21.33-57.91-26.69" fill="#fad829"/><path d="m2437.67 2010.05c-18.95-12.11-27.89-31.34-37.34-51.7-3.16-6.79-6.36-13.66-9.98-20.41-3.32-6.19-6.99-12.28-11.32-18.1-1.42-.05-2.84-.09-4.26-.09-1.44 0-2.87.06-4.3.12-.39.02-.78.01-1.17.03-3.19.17-6.36.5-9.5.95 12.02 12.73 19.46 28.57 26.61 43.96 9.97 21.46 20.28 43.65 43 58.17 14.84 9.48 28.91 14.23 42.03 14.23 2.71 0 5.37-.25 7.99-.66.28-2.6.45-5.21.54-7.84.08-2.61.09-5.23-.02-7.85-12.32 2.88-26.51-.74-42.28-10.81" fill="#fffffe"/><path d="m2317.81 2048.18c-16.49-4.06-33.49-8.31-48.3-17.66.08 1.58.19 3.17.35 4.76.15 1.59.35 3.18.58 4.75.05.38.11.76.17 1.13.43 2.85.99 5.66 1.65 8.43 6.54 3.13 13.22 5.56 19.94 7.63 7.32 2.25 14.68 4.07 21.94 5.86 21.8 5.36 42.39 10.43 57.91 26.69 12.92 13.55 19.21 26.77 18.75 39.4 2.59-.4 5.16-.88 7.7-1.46 2.58-.6 5.12-1.31 7.63-2.09-.64-15.51-8.32-31.08-22.98-46.44-18.61-19.5-42.37-25.35-65.34-31" fill="#fffffe"/><path d="m2479.43 2036.55c-2.17 20.23-10.16 39.4-23.39 55.48-13.21 16.05-30.57 27.56-49.91 33.59-2.51.78-5.05 1.49-7.63 2.09-2.54.58-5.11 1.06-7.7 1.46-.51.08-1.02.14-1.53.22-4.81.66-9.69 1.04-14.63 1.04-24.32 0-48.06-8.52-66.87-24-17.96-14.77-30.24-34.6-35.51-56.84-.66-2.77-1.22-5.58-1.65-8.43-.06-.37-.12-.75-.17-1.13-.23-1.57-.43-3.16-.58-4.75-.16-1.59-.27-3.18-.35-4.76-1.38-26.34 6.99-51.87 23.86-72.36 16.88-20.52 40.53-33.64 66.43-37.31 3.14-.45 6.31-.78 9.5-.95.39-.02.78-.01 1.17-.03 1.43-.06 2.86-.12 4.3-.12 1.42 0 2.84.04 4.26.09 22.81.94 44.9 9.34 62.61 23.92 21.73 17.88 35.19 43.15 37.91 71.15.14 1.48.24 2.96.32 4.43.03.51.06 1.01.08 1.52.11 2.62.1 5.24.02 7.85-.09 2.63-.26 5.24-.54 7.84zm15.39-23.12c-3.11-32.09-18.54-61.04-43.43-81.52-21.55-17.74-48.76-27.5-76.62-27.5-36.25 0-70.24 16.03-93.25 43.99-20.49 24.89-30.05 56.27-26.94 88.36 3.12 32.08 18.54 61.03 43.44 81.52 21.54 17.73 48.76 27.5 76.62 27.5 8.27 0 16.41-.88 24.35-2.5.12-.02.24-.04.36-.07 26.69-5.54 50.86-19.95 68.54-41.43 17.65-21.45 27.17-47.71 27.48-75.09 0-.03 0-.07 0-.1.05-4.37-.12-8.76-.55-13.16z" fill="#1b1a19"/></g></svg>