<?xml version="1.0" encoding="UTF-8"?>
<svg width="2800px" height="2800px" viewBox="0 0 2800 2800" version="1.1" xmlns="http://www.w3.org/2000/svg" xmlns:xlink="http://www.w3.org/1999/xlink">
    <!-- Generator: Sketch 63.1 (92452) - https://sketch.com -->
    <desc>Created with Sketch.</desc>
    <g id="111" stroke="none" stroke-width="1" fill="none" fill-rule="evenodd">
        <polygon id="Fill-1" points="0.06 2800 2800 2800 2800 0.04 0.06 0.04"></polygon>
        <path d="M1340.42,1668.1 C1336.18,1668.1 1332.75,1664.67 1332.75,1660.43 C1332.75,1656.19 1336.18,1652.76 1340.42,1652.76 L1430.36,1652.76 L1412.08,1471.28 C1411.91,1469.63 1410.79,1457.45 1411.3,1438.55 L1157.94,1438.55 L1186.5,1652.76 L1287.14,1652.76 C1291.38,1652.76 1294.81,1656.19 1294.81,1660.43 C1294.81,1664.67 1291.38,1668.1 1287.14,1668.1 L1188.54,1668.1 L1214.66,1863.99 L1451.64,1863.99 L1431.91,1668.1 L1340.42,1668.1" id="Fill-3" fill="#F8EED9"></path>
        <path d="M2353.8,1193.65 L2390.18,1193.65 L2412.53,1026.03 L2342.24,979.171 C2341.63,979.329 2341,979.44 2340.33,979.44 L2221.13,979.44 C2216.9,979.44 2213.46,976.005 2213.46,971.767 C2213.46,967.529 2216.9,964.095 2221.13,964.095 L2319.63,964.095 L1998.17,749.792 C1997.86,749.831 1997.56,749.887 1997.24,749.887 L1517.16,749.887 L1195.84,964.095 L2149.05,964.095 C2153.28,964.095 2156.72,967.529 2156.72,971.767 C2156.72,976.005 2153.28,979.44 2149.05,979.44 L1175.91,979.44 C1175.05,979.44 1174.24,979.267 1173.47,979.008 L1102.94,1026.03 L1125.28,1193.65 L1205.65,1193.65 C1209.89,1193.65 1213.32,1197.08 1213.32,1201.32 C1213.32,1205.56 1209.89,1208.99 1205.65,1208.99 L1127.33,1208.99 L1155.89,1423.2 L1412.03,1423.2 C1415.45,1372.6 1430.94,1291.51 1490.03,1226.21 C1495.47,1220.2 1501.17,1214.47 1507.11,1208.99 L1249.53,1208.99 C1245.29,1208.99 1241.86,1205.56 1241.86,1201.32 C1241.86,1197.08 1245.29,1193.65 1249.53,1193.65 L1525.35,1193.65 C1583.63,1148.83 1662.24,1126.15 1759.82,1126.15 C1857.41,1126.15 1936.02,1148.83 1994.29,1193.65 L2318.28,1193.65 C2322.52,1193.65 2325.95,1197.08 2325.95,1201.32 C2325.95,1205.56 2322.52,1208.99 2318.28,1208.99 L2012.53,1208.99 C2018.48,1214.47 2024.18,1220.2 2029.62,1226.21 C2088.71,1291.51 2104.2,1372.6 2107.62,1423.2 L2189.79,1423.2 C2194.03,1423.2 2197.46,1426.64 2197.46,1430.88 C2197.46,1435.11 2194.03,1438.55 2189.79,1438.55 L2108.35,1438.55 C2108.86,1457.45 2107.73,1469.63 2107.57,1471.28 L2089.29,1652.76 L2328.97,1652.76 L2357.53,1438.55 L2258.74,1438.55 C2254.5,1438.55 2251.07,1435.11 2251.07,1430.88 C2251.07,1426.64 2254.5,1423.2 2258.74,1423.2 L2359.58,1423.2 L2388.14,1208.99 L2353.8,1208.99 C2349.57,1208.99 2346.13,1205.56 2346.13,1201.32 C2346.13,1197.08 2349.57,1193.65 2353.8,1193.65" id="Fill-4" fill="#F8EED9"></path>
        <polyline id="Fill-5" fill="#F8EED9" points="2068.01 1863.99 2300.81 1863.99 2326.93 1668.1 2087.74 1668.1 2068.01 1863.99"></polyline>
        <polyline id="Fill-6" fill="#F8EED9" points="1757.74 589.501 1540.17 734.542 1975.3 734.542 1757.74 589.501"></polyline>
        <path d="M2592.89,1027.72 C2590.34,1014.95 2582.96,1003.93 2572.12,996.7 L1784.8,471.822 C1776.76,466.461 1767.4,463.628 1757.74,463.628 C1748.07,463.628 1738.71,466.461 1730.67,471.822 L943.356,996.7 C932.512,1003.93 925.134,1014.95 922.577,1027.72 C920.021,1040.5 922.594,1053.51 929.822,1064.36 C938.896,1077.96 954.091,1086.09 970.473,1086.09 C980.096,1086.09 989.437,1083.25 997.484,1077.89 L1086.46,1018.57 L1100.68,1009.1 L1753.48,573.896 C1754.77,573.037 1756.25,572.607 1757.74,572.607 C1759.22,572.607 1760.7,573.037 1761.99,573.896 L2517.99,1077.89 C2526.04,1083.26 2535.38,1086.09 2545,1086.09 C2561.38,1086.09 2576.57,1077.97 2585.65,1064.36 C2592.88,1053.51 2595.45,1040.5 2592.89,1027.72" id="Fill-7" fill="#1C89B3"></path>
        <path d="M2390.18,1193.65 L2353.8,1193.65 C2349.57,1193.65 2346.13,1197.08 2346.13,1201.32 C2346.13,1205.56 2349.57,1208.99 2353.8,1208.99 L2388.14,1208.99 L2359.58,1423.2 L2258.74,1423.2 C2254.5,1423.2 2251.07,1426.64 2251.07,1430.88 C2251.07,1435.11 2254.5,1438.55 2258.74,1438.55 L2357.53,1438.55 L2328.97,1652.76 L2089.29,1652.76 L2107.57,1471.28 C2107.73,1469.63 2108.86,1457.45 2108.35,1438.55 L2189.79,1438.55 C2194.03,1438.55 2197.46,1435.11 2197.46,1430.88 C2197.46,1426.64 2194.03,1423.2 2189.79,1423.2 L2107.62,1423.2 C2104.2,1372.6 2088.71,1291.51 2029.62,1226.21 C2024.18,1220.2 2018.48,1214.47 2012.53,1208.99 L2318.28,1208.99 C2322.52,1208.99 2325.95,1205.56 2325.95,1201.32 C2325.95,1197.08 2322.52,1193.65 2318.28,1193.65 L1994.29,1193.65 C1936.02,1148.83 1857.41,1126.15 1759.82,1126.15 C1662.24,1126.15 1583.63,1148.83 1525.35,1193.65 L1249.53,1193.65 C1245.29,1193.65 1241.86,1197.08 1241.86,1201.32 C1241.86,1205.56 1245.29,1208.99 1249.53,1208.99 L1507.11,1208.99 C1501.17,1214.47 1495.47,1220.2 1490.03,1226.21 C1430.94,1291.51 1415.45,1372.6 1412.03,1423.2 L1155.89,1423.2 L1127.33,1208.99 L1205.65,1208.99 C1209.89,1208.99 1213.32,1205.56 1213.32,1201.32 C1213.32,1197.08 1209.89,1193.65 1205.65,1193.65 L1125.28,1193.65 L1102.94,1026.03 L1173.47,979.008 C1174.24,979.267 1175.05,979.44 1175.91,979.44 L2149.05,979.44 C2153.28,979.44 2156.72,976.005 2156.72,971.767 C2156.72,967.529 2153.28,964.095 2149.05,964.095 L1195.84,964.095 L1517.16,749.887 L1997.24,749.887 C1997.56,749.887 1997.86,749.831 1998.17,749.792 L2319.63,964.095 L2221.13,964.095 C2216.9,964.095 2213.46,967.529 2213.46,971.767 C2213.46,976.005 2216.9,979.44 2221.13,979.44 L2340.33,979.44 C2341,979.44 2341.63,979.329 2342.24,979.171 L2412.53,1026.03 L2390.18,1193.65 Z M2300.81,1863.99 L2068.01,1863.99 L2087.74,1668.1 L2326.93,1668.1 L2300.81,1863.99 Z M1214.66,1863.99 L1188.54,1668.1 L1287.14,1668.1 C1291.38,1668.1 1294.81,1664.67 1294.81,1660.43 C1294.81,1656.19 1291.38,1652.76 1287.14,1652.76 L1186.5,1652.76 L1157.94,1438.55 L1411.3,1438.55 C1410.79,1457.45 1411.91,1469.63 1412.08,1471.28 L1430.36,1652.76 L1340.42,1652.76 C1336.18,1652.76 1332.75,1656.19 1332.75,1660.43 C1332.75,1664.67 1336.18,1668.1 1340.42,1668.1 L1431.91,1668.1 L1451.64,1863.99 L1214.66,1863.99 Z M1757.74,589.501 L1975.3,734.542 L1540.17,734.542 L1757.74,589.501 Z M2517.99,1077.89 L1761.99,573.896 C1760.7,573.037 1759.22,572.607 1757.74,572.607 C1756.25,572.607 1754.77,573.037 1753.48,573.896 L1100.68,1009.1 L1086.46,1018.57 L997.484,1077.89 C989.437,1083.25 980.096,1086.09 970.473,1086.09 C954.091,1086.09 938.896,1077.96 929.822,1064.36 C922.594,1053.51 920.021,1040.5 922.577,1027.72 C925.134,1014.95 932.512,1003.93 943.356,996.7 L1730.67,471.822 C1738.71,466.461 1748.07,463.628 1757.74,463.628 C1767.4,463.628 1776.76,466.461 1784.8,471.822 L2572.12,996.7 C2582.96,1003.93 2590.34,1014.95 2592.89,1027.72 C2595.45,1040.5 2592.88,1053.51 2585.65,1064.36 C2576.57,1077.97 2561.38,1086.09 2545,1086.09 C2535.38,1086.09 2526.04,1083.26 2517.99,1077.89 Z M2607.94,1024.72 C2604.58,1007.92 2594.88,993.433 2580.63,983.932 L1793.31,459.055 C1782.74,452.007 1770.44,448.284 1757.74,448.284 C1745.03,448.284 1732.73,452.007 1722.16,459.055 L934.844,983.932 C920.59,993.433 910.89,1007.92 907.53,1024.72 C904.169,1041.51 907.553,1058.62 917.055,1072.87 C928.98,1090.76 948.95,1101.43 970.473,1101.43 C983.135,1101.43 995.417,1097.71 1005.99,1090.66 L1088.72,1035.51 L1200.34,1872.67 C1200.85,1876.49 1204.1,1879.33 1207.95,1879.33 L2307.52,1879.33 C2311.37,1879.33 2314.62,1876.49 2315.13,1872.67 L2426.75,1035.51 L2509.48,1090.66 C2520.05,1097.71 2532.34,1101.44 2545,1101.44 C2566.52,1101.44 2586.49,1090.76 2598.41,1072.87 C2607.92,1058.62 2611.3,1041.51 2607.94,1024.72 L2607.94,1024.72 Z" id="Fill-8" fill="#1B1A19"></path>
        <path d="M1676.9,919.952 L1692.4,899.96 C1690.01,889.805 1689.06,878.756 1689.61,866.889 L1673.38,887.818 C1673.46,888.278 1673.52,888.747 1673.51,889.23 C1673.39,900.478 1674.55,910.747 1676.9,919.952" id="Fill-9" fill="#C7A17E"></path>
        <path d="M1810.45,847.006 L1803.38,837.89 C1800.99,845.773 1796.61,852.781 1790.82,858.363 L1805.72,877.579 C1806.01,867.911 1807.58,857.701 1810.45,847.006" id="Fill-10" fill="#C7A17E"></path>
        <path d="M1656.44,946.351 L1665.5,934.667 C1662.23,926.116 1660.05,916.665 1658.98,906.404 L1644.21,925.454 C1645.38,932.095 1647.14,938.233 1649.45,943.835 C1650.5,944.804 1653.25,945.754 1656.44,946.351" id="Fill-11" fill="#C7A17E"></path>
        <path d="M1823.06,899.956 L1841.83,924.167 C1839.6,910.466 1839.76,897.064 1840.73,886.065 L1822.62,862.711 C1820.33,875.828 1820.41,887.844 1822.89,898.557 C1822.99,899.025 1823.04,899.492 1823.06,899.956" id="Fill-12" fill="#C7A17E"></path>
        <path d="M1866.49,943.591 C1868.77,938.403 1871.33,933.604 1874.11,929.127 L1855.44,905.043 C1855.78,918.081 1857.97,932.4 1864.05,945.126 C1865.27,944.642 1866.18,944.118 1866.49,943.591" id="Fill-13" fill="#C7A17E"></path>
        <path d="M1724.54,858.502 C1724.54,858.423 1724.54,858.344 1724.54,858.265 C1718.81,852.7 1714.46,845.727 1712.09,837.893 L1707.69,843.557 C1707.75,844.224 1707.74,844.9 1707.61,845.588 C1705.03,859.053 1704.29,871.83 1705.29,883.333 L1724.54,858.502" id="Fill-14" fill="#C7A17E"></path>
        <path d="M1779.57,805.781 C1780.03,806.905 1780.18,808.071 1780.1,809.208 C1779.91,812.032 1778.19,814.648 1775.4,815.8 C1774.44,816.193 1773.45,816.381 1772.48,816.381 C1770.17,816.381 1767.96,815.313 1766.5,813.486 C1766.06,812.931 1765.67,812.32 1765.38,811.631 C1764.66,809.878 1763.55,808.37 1762.08,807.144 C1760.1,805.494 1759.17,803.056 1759.35,800.667 C1759.47,799.13 1760.03,797.614 1761.09,796.34 C1763.8,793.082 1768.65,792.642 1771.9,795.354 C1772.89,796.183 1773.8,797.101 1774.67,798.062 C1776.72,800.343 1778.4,802.948 1779.57,805.781 Z M1728.32,826.358 C1730.74,831.656 1734.54,836.192 1739.27,839.494 C1739.88,839.916 1740.51,840.301 1741.14,840.681 C1745.08,843.046 1749.54,844.624 1754.32,845.128 C1755.45,845.246 1756.58,845.312 1757.74,845.312 C1758.89,845.312 1760.03,845.246 1761.15,845.128 C1761.55,845.085 1761.95,845.002 1762.35,844.944 C1767.22,844.244 1771.75,842.487 1775.67,839.865 C1775.85,839.746 1776.02,839.617 1776.2,839.494 C1782.79,834.892 1787.6,827.909 1789.35,819.791 C1789.83,817.583 1790.1,815.298 1790.1,812.95 C1790.1,804.96 1787.17,797.651 1782.36,792 C1776.42,785.027 1767.59,780.585 1757.74,780.585 C1747.88,780.585 1739.05,785.028 1733.11,792.001 C1728.3,797.652 1725.37,804.961 1725.37,812.95 C1725.37,815.299 1725.64,817.585 1726.12,819.794 C1726.61,822.084 1727.36,824.275 1728.32,826.358 L1728.32,826.358 Z" id="Fill-15" fill="#1C89B3"></path>
        <path d="M1992.34,1044.53 C1992.21,1043.38 1992.08,1042.22 1991.89,1041.07 C1991.78,1040.43 1991.61,1039.8 1991.48,1039.17 C1991.26,1038.13 1991.07,1037.09 1990.8,1036.07 C1990.62,1035.39 1990.39,1034.73 1990.18,1034.06 C1989.9,1033.1 1989.63,1032.14 1989.3,1031.2 C1989.05,1030.51 1988.75,1029.84 1988.48,1029.15 C1988.12,1028.26 1987.78,1027.35 1987.38,1026.48 C1987.07,1025.8 1986.71,1025.14 1986.37,1024.47 C1985.95,1023.62 1985.54,1022.76 1985.07,1021.93 C1984.7,1021.27 1984.28,1020.64 1983.88,1019.99 C1983.39,1019.19 1982.91,1018.38 1982.38,1017.6 C1981.94,1016.97 1981.46,1016.36 1981,1015.74 C1980.48,1015.05 1979.98,1014.34 1979.43,1013.67 C1977.21,1011.77 1971.77,1007.64 1966.8,1005.89 C1962.81,1004.48 1960.71,1000.09 1962.12,996.096 C1963.53,992.101 1967.92,990.012 1971.91,991.418 C1976.22,992.939 1980.25,995.309 1983.46,997.495 C1989.49,988.045 1992.81,976.924 1992.82001,965.445 C1992.84,933.101 1967.19,906.772 1935.65,906.751 C1919.43,906.751 1904.69,914.555 1893.19,928.7 C1889.94,932.704 1886.95,937.224 1884.26,942.217 C1882.95,944.639 1881.69,947.139 1880.53,949.783 C1878.38,954.675 1873.98,957.667 1869.23,959.512 C1862.23,962.232 1854.51,962.441 1852.08,962.427 C1851.92,962.426 1851.73,962.426 1851.62,962.424 C1851.33,962.439 1851.04,962.43 1850.81,962.421 C1850.76,962.421 1850.67,962.415 1850.55,962.403 L1664.95,962.268 C1664.8,962.281 1664.65,962.289 1664.49,962.295 C1664.31,962.299 1664.1,962.299 1663.88,962.289 C1663.78,962.291 1663.62,962.289 1663.5,962.29 C1662.42,962.292 1660.53,962.258 1658.16,962.038 C1654.74,961.721 1650.41,960.994 1646.32,959.406 C1642.26,957.831 1638.47,955.403 1636.1,951.639 C1635.69,950.999 1635.32,950.331 1635.01,949.612 C1633.86,946.983 1632.61,944.498 1631.31,942.088 C1628.63,937.087 1625.65,932.559 1622.4,928.548 C1610.9,914.36 1596.16,906.525 1579.93,906.515 C1564.61,906.515 1550.24,912.625 1539.44,923.717 C1528.66,934.786 1522.71,949.498 1522.7,965.146 C1522.7,965.158 1522.7,965.173 1522.7,965.185 C1522.7,971.513 1523.74,977.747 1525.66,983.672 C1527.78,990.206 1530.98,996.361 1535.22,1001.81 C1535.47,1002.13 1535.72,1002.44 1535.98,1002.76 C1536.31,1003.05 1536.73,1003.4 1537.19,1003.78 C1539.85,1005.99 1544.44,1009.43 1548.23,1010.95 C1552.17,1012.52 1554.08,1016.99 1552.51,1020.92 C1550.94,1024.86 1546.48,1026.78 1542.54,1025.2 C1538.75,1023.68 1534.95,1021.29 1531.88,1019.08 C1525.9,1028.5 1522.66,1039.6 1522.64999,1051.02 C1522.63,1083.37 1548.28,1109.7 1579.82,1109.72 C1602.86,1109.72 1622.94,1094.03 1634.94,1066.69 C1640.45,1054.14 1660.27,1053.98 1663.84,1054.04 C1664.05,1054.03 1664.27,1054.03 1664.44,1054.04 C1664.61,1054.04 1664.77,1054.05 1664.94,1054.07 L1850.49,1054.2 C1850.72,1054.18 1850.94,1054.17 1851.2,1054.17 C1851.33,1054.17 1851.48,1054.17 1851.62,1054.18 C1851.83,1054.17 1852.13,1054.17 1852.52,1054.17 C1857.34,1054.17 1875.27,1054.99 1880.46,1066.86 C1892.44,1094.23 1912.51,1109.94 1935.54,1109.95 C1967.09,1109.95 1992.75,1083.65 1992.77,1051.33 C1992.77,1049.6 1992.69,1047.88 1992.55,1046.17 C1992.5,1045.62 1992.4,1045.08 1992.34,1044.53" id="Fill-16" fill="#FFFFFE"></path>
        <path d="M1765.38,811.631 C1765.67,812.32 1766.06,812.931 1766.5,813.486 C1767.96,815.313 1770.17,816.381 1772.48,816.381 C1773.45,816.381 1774.44,816.193 1775.4,815.8 C1778.19,814.648 1779.91,812.032 1780.1,809.208 C1780.18,808.071 1780.03,806.905 1779.57,805.781 C1778.4,802.948 1776.72,800.343 1774.67,798.062 C1773.8,797.101 1772.89,796.183 1771.9,795.354 C1768.65,792.642 1763.8,793.082 1761.09,796.34 C1760.03,797.614 1759.47,799.13 1759.35,800.667 C1759.17,803.056 1760.1,805.494 1762.08,807.144 C1763.55,808.37 1764.66,809.878 1765.38,811.631" id="Fill-17" fill="#1B1A19"></path>
        <path d="M1658.98,906.404 C1660.05,916.665 1662.23,926.116 1665.5,934.667 L1656.44,946.351 C1653.25,945.754 1650.5,944.804 1649.45,943.835 C1647.14,938.233 1645.38,932.095 1644.21,925.454 L1658.98,906.404 Z M1689.61,866.889 C1689.06,878.756 1690.01,889.805 1692.4,899.96 L1676.9,919.952 C1674.55,910.747 1673.39,900.478 1673.51,889.23 C1673.52,888.747 1673.46,888.278 1673.38,887.818 L1689.61,866.889 Z M1712.09,837.893 C1714.46,845.727 1718.81,852.7 1724.54,858.265 C1724.54,858.344 1724.54,858.423 1724.54,858.502 L1705.29,883.333 C1704.29,871.83 1705.03,859.053 1707.61,845.588 C1707.74,844.9 1707.75,844.224 1707.69,843.557 L1712.09,837.893 Z M1810.45,847.006 C1807.58,857.701 1806.01,867.911 1805.72,877.579 L1790.82,858.363 C1796.61,852.781 1800.99,845.773 1803.38,837.89 L1810.45,847.006 Z M1841.83,924.167 L1823.06,899.956 C1823.04,899.492 1822.99,899.025 1822.89,898.557 C1820.41,887.844 1820.33,875.828 1822.62,862.711 L1840.73,886.065 C1839.76,897.064 1839.6,910.466 1841.83,924.167 Z M1866.49,943.591 C1866.18,944.118 1865.27,944.642 1864.05,945.126 C1857.97,932.4 1855.78,918.081 1855.44,905.043 L1874.11,929.127 C1871.33,933.604 1868.77,938.403 1866.49,943.591 Z M1757.74,780.585 C1767.59,780.585 1776.42,785.027 1782.36,792 C1787.17,797.651 1790.1,804.96 1790.1,812.95 C1790.1,815.298 1789.83,817.583 1789.35,819.791 C1787.6,827.909 1782.79,834.892 1776.2,839.494 C1776.02,839.617 1775.85,839.746 1775.67,839.865 C1771.75,842.487 1767.22,844.244 1762.35,844.944 C1761.95,845.002 1761.55,845.085 1761.15,845.128 C1760.03,845.246 1758.89,845.312 1757.74,845.312 C1756.58,845.312 1755.45,845.246 1754.32,845.128 C1749.54,844.624 1745.08,843.046 1741.14,840.681 C1740.51,840.301 1739.88,839.916 1739.27,839.494 C1734.54,836.192 1730.74,831.656 1728.32,826.358 C1727.36,824.275 1726.61,822.084 1726.12,819.794 C1725.64,817.585 1725.37,815.299 1725.37,812.95 C1725.37,804.961 1728.3,797.652 1733.11,792.001 C1739.05,785.028 1747.88,780.585 1757.74,780.585 Z M1737.28,867.108 C1743.49,870.07 1750.41,871.779 1757.74,871.779 C1765.06,871.779 1771.98,870.07 1778.19,867.107 L1840.16,947.051 L1675.4,946.932 L1737.28,867.108 Z M1852.52,1054.17 C1852.13,1054.17 1851.83,1054.17 1851.62,1054.18 C1851.48,1054.17 1851.33,1054.17 1851.2,1054.17 C1850.94,1054.17 1850.72,1054.18 1850.49,1054.2 L1664.94,1054.07 C1664.77,1054.05 1664.61,1054.04 1664.44,1054.04 C1664.27,1054.03 1664.05,1054.03 1663.84,1054.04 C1660.27,1053.98 1640.45,1054.14 1634.94,1066.69 C1622.94,1094.03 1602.86,1109.72 1579.82,1109.72 C1548.28,1109.7 1522.63,1083.37 1522.64999,1051.02 C1522.66,1039.6 1525.9,1028.5 1531.88,1019.08 C1534.95,1021.29 1538.75,1023.68 1542.54,1025.2 C1546.48,1026.78 1550.94,1024.86 1552.51,1020.92 C1554.08,1016.99 1552.17,1012.52 1548.23,1010.95 C1544.44,1009.43 1539.85,1005.99 1537.19,1003.78 C1536.73,1003.4 1536.31,1003.05 1535.98,1002.76 C1535.72,1002.44 1535.47,1002.13 1535.22,1001.81 C1530.98,996.361 1527.78,990.206 1525.66,983.672 C1523.74,977.747 1522.7,971.513 1522.7,965.185 C1522.7,965.173 1522.7,965.158 1522.7,965.146 C1522.71,949.498 1528.66,934.786 1539.44,923.717 C1550.24,912.625 1564.61,906.515 1579.93,906.515 C1596.16,906.525 1610.9,914.36 1622.4,928.548 C1625.65,932.559 1628.63,937.087 1631.31,942.088 C1632.61,944.498 1633.86,946.983 1635.01,949.612 C1635.32,950.331 1635.69,950.999 1636.1,951.639 C1638.47,955.403 1642.26,957.831 1646.32,959.406 C1650.41,960.994 1654.74,961.721 1658.16,962.038 C1660.53,962.258 1662.42,962.292 1663.5,962.29 C1663.62,962.289 1663.78,962.291 1663.88,962.289 C1664.1,962.299 1664.31,962.299 1664.49,962.295 C1664.65,962.289 1664.8,962.281 1664.95,962.268 L1850.55,962.403 C1850.67,962.415 1850.76,962.421 1850.81,962.421 C1851.04,962.43 1851.33,962.439 1851.62,962.424 C1851.73,962.426 1851.92,962.426 1852.08,962.427 C1854.51,962.441 1862.23,962.232 1869.23,959.512 C1873.98,957.667 1878.38,954.675 1880.53,949.783 C1881.69,947.139 1882.95,944.639 1884.26,942.217 C1886.95,937.224 1889.94,932.704 1893.19,928.7 C1904.69,914.555 1919.43,906.751 1935.65,906.751 C1967.19,906.772 1992.84,933.101 1992.82001,965.445 C1992.81,976.924 1989.49,988.045 1983.46,997.495 C1980.25,995.309 1976.22,992.939 1971.91,991.418 C1967.92,990.012 1963.53,992.101 1962.12,996.096 C1960.71,1000.09 1962.81,1004.48 1966.8,1005.89 C1971.77,1007.64 1977.21,1011.77 1979.43,1013.67 C1979.98,1014.34 1980.48,1015.05 1981,1015.74 C1981.46,1016.36 1981.94,1016.97 1982.38,1017.6 C1982.91,1018.38 1983.39,1019.19 1983.88,1019.99 C1984.28,1020.64 1984.7,1021.27 1985.07,1021.93 C1985.54,1022.76 1985.95,1023.62 1986.37,1024.47 C1986.71,1025.14 1987.07,1025.8 1987.38,1026.48 C1987.78,1027.35 1988.12,1028.26 1988.48,1029.15 C1988.75,1029.84 1989.05,1030.51 1989.3,1031.2 C1989.63,1032.14 1989.9,1033.1 1990.18,1034.06 C1990.39,1034.73 1990.62,1035.39 1990.8,1036.07 C1991.07,1037.09 1991.26,1038.13 1991.48,1039.17 C1991.61,1039.8 1991.78,1040.43 1991.89,1041.07 C1992.08,1042.22 1992.21,1043.38 1992.34,1044.53 C1992.4,1045.08 1992.5,1045.62 1992.55,1046.17 C1992.69,1047.88 1992.77,1049.6 1992.77,1051.33 C1992.75,1083.65 1967.09,1109.95 1935.54,1109.95 C1912.51,1109.94 1892.44,1094.23 1880.46,1066.86 C1875.27,1054.99 1857.34,1054.17 1852.52,1054.17 Z M2007.62,1043.19 C2007.47,1041.8 2007.31,1040.42 2007.08,1039.05 C2006.95,1038.28 2006.79,1037.51 2006.64,1036.74 C2006.39,1035.5 2006.13,1034.26 2005.83,1033.03 C2005.63,1032.24 2005.4,1031.45 2005.18,1030.66 C2004.84,1029.47 2004.48,1028.29 2004.08,1027.13 C2003.82,1026.35 2003.54,1025.57 2003.25,1024.8 C2002.81,1023.63 2002.34,1022.48 2001.84,1021.34 C2001.52,1020.61 2001.21,1019.87 2000.87,1019.15 C2000.31,1017.96 1999.69,1016.79 1999.07,1015.63 C1998.73,1015 1998.4,1014.35 1998.04,1013.72 C1997.25,1012.34 1996.39,1011 1995.5,1009.68 C1995.26,1009.3 1995.03,1008.91 1994.78,1008.54 C1994.75,1008.5 1994.72,1008.45 1994.69,1008.4 C2003.4,995.961 2008.15,980.934 2008.16002,965.451 C2008.19,924.65 1975.66,891.433 1935.62,891.406 C1915.65,891.406 1897.63,900.217 1883.55,916.261 L1805.44,815.503 L1805.44,812.95 C1805.44,786.642 1784.04,765.24 1757.74,765.24 C1731.43,765.24 1710.03,786.642 1710.03,812.95 L1710.03,815.503 L1632.04,916.106 C1617.97,900.021 1599.92,891.184 1579.9,891.17 C1560.44,891.17 1542.16,898.926 1528.45,913.012 C1514.86,926.957 1507.37,945.47 1507.36,965.134 C1507.36,965.152 1507.36,965.17 1507.36,965.185 C1507.36,980.581 1512.09,995.587 1520.78,1008.07 C1512.07,1020.51 1507.32,1035.54 1507.30998,1051.01 C1507.28,1091.82 1539.81,1125.04 1579.85,1125.07 C1609.23,1125.06 1634.43,1106.03 1648.98,1072.88 C1650.07,1071.06 1657.87,1069.25 1663.46,1069.38 C1663.62,1069.39 1663.8,1069.39 1663.99,1069.39 C1664.17,1069.4 1664.36,1069.41 1664.51,1069.41 L1850.89,1069.55 C1851.05,1069.55 1851.23,1069.54 1851.43,1069.53 C1851.61,1069.52 1851.8,1069.52 1851.95,1069.52 C1856.81,1069.29 1865.25,1071.06 1866.41,1073.01 C1880.93,1106.22 1906.13,1125.28 1935.56,1125.3 C1975.54,1125.3 2008.09,1092.12 2008.11,1051.33 C2008.11,1049.27 2008.01,1047.21 2007.85,1045.16 C2007.79,1044.5 2007.69,1043.85 2007.62,1043.19 L2007.62,1043.19 Z" id="Fill-18" fill="#1B1A19"></path>
        <path d="M223.092,1932.67 C222.319,1932.76 221.528,1932.76 220.726,1932.59 C220.456,1932.54 207.385,1930.04 198.494,1935.47 C185.07,1943.67 180.71,1955.66 185.162,1972.15 C187.397,1980.43 194.438,1985.1 202.647,1987.68 C200.535,1977.52 202.583,1968.42 202.711,1967.87 C203.673,1963.74 207.797,1961.17 211.925,1962.14 C216.042,1963.1 218.606,1967.21 217.662,1971.32 C217.606,1971.57 215.296,1982.46 219.817,1990.53 C222.453,1990.67 224.967,1990.72 227.204,1990.69 C260.934,1990.23 288.417,1977.73 297.046,1970.4 C282.111,1967.49 266.693,1963.25 255.153,1957.09 C242.447,1950.31 231.772,1942.14 223.092,1932.67" id="Fill-19" fill="#FFFFFE"></path>
        <path d="M903.802,1928.84 C897.76,1916.78 884.774,1908.87 872.18,1909.75 C871.769,1909.77 871.369,1909.74 870.971,1909.7 C857.023,1935.94 833.631,1954.31 801.835,1964.39 C806.562,1966.02 812.045,1967.65 818.156,1969 C843.276,1974.58 862.393,1976.27 876.323,1974.05 C880.745,1964.46 874.202,1954.54 873.907,1954.1 C871.545,1950.61 872.432,1945.84 875.912,1943.46 C879.388,1941.07 884.127,1941.92 886.533,1945.38 C886.92,1945.94 893.485,1955.65 893.178,1967.94 C895.252,1966.54 897.087,1964.94 898.65,1963.11 C910.896,1948.79 907.132,1935.49 903.802,1928.84" id="Fill-20" fill="#FFFFFE"></path>
        <path d="M861.571,1893.78 C887.984,1829.64 847.991,1730.47 796.724,1694.28 C794.491,1692.7 793.265,1690.06 793.505,1687.34 C799.371,1620.27 771.134,1544.08 760.944,1519.19 C715.878,1544.88 656.771,1538.14 628.913,1534.95 C626.429,1534.66 624.19,1534.4 622.23,1534.2 C608.917,1532.84 600.696,1536.15 590.272,1540.36 C578.479,1545.12 564.159,1550.9 539.4,1550.9 C535.883,1550.9 532.161,1550.78 528.199,1550.53 C497.388,1548.56 478.946,1539.79 465.48,1533.4 C456.057,1528.92 449.237,1525.69 441.748,1526.08 C439.098,1526.22 434.612,1526.87 429.416,1527.63 C404.531,1531.27 356.756,1538.22 317.372,1518.95 C302.014,1551.45 273.282,1622.6 266.238,1712.43 C266.109,1714.08 265.45,1715.64 264.357,1716.89 C247.187,1736.46 201.161,1814.09 212.781,1877.83 C218.042,1906.69 234.728,1928.8 262.378,1943.55 C283.363,1954.75 323.036,1959.7 345.125,1961 C335.774,1940.01 300.232,1858.53 284.274,1797.36 C283.204,1793.26 285.66,1789.07 289.762,1788 C293.866,1786.92 298.051,1789.39 299.121,1793.49 C317.152,1862.6 360.94,1958.77 361.38,1959.73 C362.815,1962.87 361.977,1966.58 359.333,1968.8 C358.562,1969.47 339.551,1986.37 349.673,2017.98 C355.701,2036.81 368.911,2040.99 378.188,2041.41 C376.518,2037.98 375.624,2034.63 375.362,2031.88 C374.959,2027.66 378.052,2023.92 382.27,2023.52 C386.452,2023.12 390.184,2026.16 390.629,2030.33 C390.964,2033 393.717,2046 415.372,2044.84 C425.412,2044.29 427.891,2035.59 427.771,2030.53 C427.672,2026.29 431.026,2022.78 435.262,2022.68 C439.575,2022.56 443.012,2025.93 443.113,2030.17 C443.201,2033.93 442.601,2037.73 441.365,2041.31 C451.494,2042.63 459.247,2040.21 464.441,2034.1 C477.603,2018.6 474.198,1980.85 455.332,1933.12 C420.626,1845.3 427.615,1746.81 427.93,1742.66 C428.249,1738.43 431.946,1735.27 436.157,1735.59 C440.383,1735.91 443.549,1739.59 443.23,1743.82 C443.156,1744.8 436.226,1843.02 469.604,1927.47 C473.049,1936.19 475.949,1944.53 478.412,1952.54 C493.009,1956.65 516.078,1959.08 543.797,1959.4 C559.818,1959.56 582.738,1958.04 596.924,1955.16 C599.536,1946.37 602.721,1937.14 606.54,1927.47 C639.963,1842.91 632.986,1744.8 632.911,1743.82 C632.591,1739.59 635.759,1735.91 639.984,1735.59 C644.165,1735.28 647.894,1738.43 648.214,1742.66 C648.529,1746.81 655.518,1845.3 620.812,1933.12 C616.78,1943.32 613.5,1953.02 610.891,1962.19 C610.809,1963.19 610.537,1964.15 610.094,1965.02 C601.294,1997.39 601.644,2022.25 611.701,2034.1 C616.898,2040.21 624.652,2042.62 634.78,2041.31 C633.543,2037.72 632.944,2033.93 633.031,2030.17 C633.127,2025.99 636.544,2022.68 640.698,2022.68 C640.758,2022.68 640.818,2022.68 640.88,2022.68 C645.115,2022.78 648.469,2026.29 648.37,2030.53 C648.253,2035.58 650.732,2044.29 660.772,2044.84 C683.645,2046.13 685.444,2031.06 685.506,2030.42 C685.905,2026.2 689.618,2023.1 693.874,2023.52 C698.091,2023.92 701.184,2027.66 700.779,2031.88 C700.517,2034.63 699.619,2038 697.94,2041.43 C707.265,2041.05 720.422,2036.88 726.47,2017.99 C736.717,1985.98 717.008,1968.97 716.808,1968.8 C714.155,1966.57 713.322,1962.85 714.776,1959.7 C715.312,1958.55 768.471,1843.13 776.308,1790.36 C776.931,1786.17 780.848,1783.28 785.023,1783.9 C789.216,1784.52 792.108,1788.42 791.485,1792.61 C784.468,1839.87 744.751,1930.58 732.349,1958.13 C779.731,1958.74 839.307,1947.84 861.571,1893.78" id="Fill-21" fill="#FFFFFE"></path>
        <path d="M270.198,911.996 C275.933,903.766 284.53,898.704 295.754,896.949 C297.9,896.615 300.062,896.444 302.178,896.444 C340.523,896.444 362.203,950.776 367.421,987.295 C371.618,1016.68 364.151,1036.2 343.209,1050.6 C337.35,1054.63 332.02,1062.9 326.863,1070.9 C318.295,1084.2 308.583,1099.27 292.6,1099.27 C292.598,1099.27 292.597,1099.27 292.595,1099.27 C290.499,1099.27 288.35,1099 286.209,1098.46 C279.66,1096.82 274.379,1092.84 270.939,1086.94 C261.55,1070.83 268.136,1044.44 269.248,1040.32 C273.841,1017.79 271.569,1003.14 267.287,981.733 L266.887,979.738 C263.206,961.461 257.047,930.868 270.198,911.996 Z M388.509,1255.41 C388.509,1255.41 371.786,1290.53 341.686,1277.15 C321.297,1268.09 320.032,1188.1 361.753,1196.88 C393.526,1203.57 388.509,1255.41 388.509,1255.41 Z M438.88,1261.88 C477.114,1214.77 516.584,1212.79 531.443,1212.05 C532.668,1211.99 533.928,1211.95 535.419,1211.95 C549.98,1211.95 599.791,1215.25 629.315,1257.67 C647.786,1284.21 671.229,1301.6 693.898,1318.43 C728.511,1344.11 761.206,1368.37 762.285,1419.11 C762.833,1444.93 754.16,1468.32 737.862,1484.96 C721.6,1501.58 698.589,1510.72 673.069,1510.72 L673.066,1510.72 C667.764,1510.72 662.315,1510.33 656.87,1509.55 C619.347,1504.2 602.5,1487.6 587.641,1472.95 C579.297,1464.73 571.415,1456.97 560.395,1451.85 C544.903,1444.66 536.086,1434.27 531.073,1424.52 C523.243,1435.95 511.21,1445.17 499.306,1450.69 C483.167,1458.17 472.352,1467.13 461.891,1475.79 C443.892,1490.69 426.998,1504.87 389.806,1503.96 C370.432,1503.55 343.367,1496.35 325.509,1477.39 C311.342,1462.36 304.636,1442.31 305.575,1417.81 C307.652,1363.65 341.631,1339.83 377.603,1314.61 C398.677,1299.84 420.467,1284.57 438.88,1261.88 Z M481.397,1188.87 C483.251,1187.72 527.409,1160.78 581.185,1184.89 C585.051,1186.62 586.781,1191.16 585.048,1195.03 C583.313,1198.89 578.773,1200.62 574.909,1198.89 C528.517,1178.09 489.913,1201.64 489.531,1201.89 C488.266,1202.68 486.861,1203.05 485.472,1203.05 C482.914,1203.05 480.414,1201.78 478.958,1199.45 C476.713,1195.85 477.805,1191.12 481.397,1188.87 Z M709.699,1196.88 C751.419,1188.1 750.154,1268.09 729.766,1277.15 C699.665,1290.53 682.942,1255.41 682.942,1255.41 C682.942,1255.41 677.926,1203.57 709.699,1196.88 Z M708.865,987.295 C714.08,950.776 735.761,896.444 774.105,896.444 C776.224,896.444 778.385,896.615 780.531,896.949 C791.755,898.704 800.353,903.766 806.087,911.998 C819.238,930.875 813.076,961.471 809.392,979.752 L808.994,981.734 C804.714,1003.14 802.442,1017.79 807.034,1040.32 C808.149,1044.44 814.733,1070.83 805.343,1086.94 C801.906,1092.84 796.625,1096.82 790.076,1098.46 C787.934,1099 785.785,1099.27 783.687,1099.27 C767.703,1099.27 757.99,1084.2 749.418,1070.9 C744.264,1062.9 738.932,1054.63 733.076,1050.6 C712.132,1036.2 704.667,1016.68 708.865,987.295 Z M245.124,983.687 C249.607,1012.01 246.976,1035.68 244.655,1056.56 C241.986,1080.58 239.877,1099.54 249.05,1117.68 C259.007,1137.37 280.315,1138.41 287.589,1138.16 C291.73,1125.81 295.409,1118.04 296.602,1115.64 C298.489,1111.85 303.097,1110.31 306.89,1112.2 C310.682,1114.08 312.227,1118.69 310.338,1122.48 C306.241,1130.71 271.06,1206.03 297.277,1315.15 C297.791,1317.29 297.364,1319.54 296.106,1321.34 C295.625,1322.03 247.851,1392.29 285.152,1466.04 C293.138,1481.83 303.872,1492.93 316.026,1500.63 C316.541,1500.76 317.05,1500.94 317.546,1501.19 C318.393,1501.61 319.108,1502.18 319.717,1502.84 C355.235,1522.93 401.315,1516.22 427.202,1512.45 C433.004,1511.6 437.586,1510.93 440.942,1510.76 C452.341,1510.13 461.477,1514.51 472.067,1519.54 C485.096,1525.73 501.311,1533.43 529.176,1535.22 C557.539,1537.02 571.876,1531.24 584.527,1526.13 C595.934,1521.52 606.711,1517.14 623.806,1518.94 C625.82,1519.15 628.116,1519.41 630.664,1519.7 C671.906,1524.44 768.48,1535.52 796.247,1451.95 C819.007,1383.43 775.664,1326.89 775.223,1326.33 C773.608,1324.27 773.161,1321.52 774.03,1319.05 C774.411,1317.97 811.469,1210.35 767.401,1124.12 C765.474,1120.35 766.969,1115.73 770.742,1113.8 C774.513,1111.87 779.137,1113.37 781.067,1117.14 C784.615,1124.08 787.638,1131.13 790.271,1138.22 C790.411,1138.21 790.543,1138.18 790.685,1138.18 C800.509,1138.09 818.321,1135.3 827.237,1117.68 C836.405,1099.54 834.298,1080.58 831.63,1056.57 C829.308,1035.68 826.676,1012.01 831.16,983.687 L831.669,980.485 C838.94,934.769 846.46,887.497 795.885,867.572 C777.693,860.408 758.293,862.656 739.768,874.07 C702.285,897.159 675.945,952.079 668.979,1021.34 C688.119,1030.23 695.67,1038.47 696.326,1039.21 C699.122,1042.4 698.81,1047.25 695.627,1050.04 C694.171,1051.32 692.364,1051.95 690.565,1051.95 C688.435,1051.95 686.316,1051.07 684.799,1049.34 C684.523,1049.04 650.651,1013.52 534.511,1013.52 C419.25,1013.52 385.22,1043.73 384.891,1044.03 C381.798,1046.89 376.961,1046.75 374.074,1043.7 C371.188,1040.64 371.268,1035.86 374.293,1032.94 C375.006,1032.25 383.857,1024.07 406.721,1015.81 C399.692,949.433 373.784,896.586 337.038,874.036 C318.353,862.567 298.769,860.338 280.402,867.572 C229.824,887.495 237.343,934.768 244.614,980.482 L245.124,983.687 L245.124,983.687 Z" id="Fill-22" fill="#FFFFFE"></path>
        <path d="M741.767,1037.96 C750.165,1043.73 756.342,1053.32 762.318,1062.59 C769.391,1073.56 776.068,1083.92 783.687,1083.92 C784.529,1083.92 785.428,1083.81 786.354,1083.58 C788.932,1082.93 790.7,1081.59 792.081,1079.22 C797.482,1069.98 793.865,1050.31 792.171,1044.15 C792.126,1043.99 792.087,1043.82 792.051,1043.65 C786.825,1018.21 789.408,1001.42 793.949,978.724 L794.35,976.722 C797.548,960.843 802.901,934.269 793.496,920.768 C790.202,916.041 785.185,913.208 778.163,912.112 C776.796,911.897 775.433,911.789 774.105,911.789 C747.237,911.789 728.661,957.211 724.054,989.465 C720.656,1013.26 725.622,1026.85 741.767,1037.96" id="Fill-23" fill="#CBBAB4"></path>
        <path d="M282.335,978.724 C286.875,1001.42 289.46,1018.21 284.231,1043.65 C284.196,1043.82 284.156,1043.99 284.109,1044.16 C282.419,1050.31 278.801,1069.98 284.204,1079.22 C285.585,1081.59 287.352,1082.93 289.931,1083.58 C290.857,1083.81 291.755,1083.92 292.598,1083.92 L292.6,1083.92 C300.217,1083.92 306.896,1073.56 313.966,1062.59 C319.94,1053.32 326.12,1043.73 334.515,1037.96 C350.663,1026.86 355.629,1013.26 352.229,989.465 C347.621,957.213 329.047,911.789 302.178,911.789 C300.852,911.789 299.487,911.897 298.122,912.112 C291.098,913.208 286.083,916.041 282.787,920.768 C273.384,934.264 278.734,960.834 281.93,976.71 L282.335,978.724" id="Fill-24" fill="#CBBAB4"></path>
        <path d="M357.302,1226.06 C357.302,1232.55 360.707,1237.82 364.908,1237.82 C369.109,1237.82 372.514,1232.55 372.514,1226.06 C372.514,1219.57 369.109,1214.31 364.908,1214.31 C360.707,1214.31 357.302,1219.57 357.302,1226.06" id="Fill-25" fill="#FFFFFE"></path>
        <path d="M720.842,1237.82 C725.043,1237.82 728.448,1232.55 728.448,1226.06 C728.448,1219.57 725.043,1214.31 720.842,1214.31 C716.641,1214.31 713.236,1219.57 713.236,1226.06 C713.236,1232.55 716.641,1237.82 720.842,1237.82" id="Fill-26" fill="#FFFFFE"></path>
        <path d="M424.953,1368.62 C429.644,1365.2 436.219,1366.23 439.637,1370.93 C443.057,1375.62 442.025,1382.19 437.335,1385.61 C432.644,1389.03 426.069,1388 422.65,1383.31 C419.232,1378.62 420.262,1372.04 424.953,1368.62 Z M443.208,1324.65 C447.899,1321.23 454.473,1322.26 457.892,1326.95 C461.311,1331.64 460.28,1338.21 455.589,1341.63 C450.898,1345.05 444.324,1344.02 440.905,1339.33 C437.486,1334.64 438.517,1328.06 443.208,1324.65 Z M466.088,1376.61 C470.779,1373.19 477.353,1374.23 480.772,1378.92 C484.191,1383.61 483.16,1390.18 478.469,1393.6 C473.778,1397.02 467.204,1395.99 463.785,1391.3 C460.366,1386.61 461.397,1380.03 466.088,1376.61 Z M482.29,1339.15 C486.981,1335.73 493.555,1336.76 496.974,1341.45 C500.393,1346.14 499.362,1352.72 494.671,1356.14 C489.981,1359.56 483.406,1358.52 479.987,1353.83 C476.568,1349.14 477.599,1342.57 482.29,1339.15 Z M583.381,1352.76 C580.422,1357.75 573.975,1359.4 568.982,1356.44 C563.988,1353.48 562.338,1347.03 565.298,1342.04 C568.257,1337.05 574.704,1335.4 579.697,1338.36 C584.691,1341.31 586.341,1347.76 583.381,1352.76 Z M587.893,1374.88 C590.852,1369.89 597.299,1368.24 602.293,1371.2 C607.286,1374.16 608.936,1380.61 605.977,1385.6 C603.018,1390.59 596.571,1392.24 591.577,1389.28 C586.583,1386.33 584.934,1379.88 587.893,1374.88 Z M602.829,1323.9 C605.788,1318.9 612.235,1317.25 617.229,1320.21 C622.223,1323.17 623.872,1329.62 620.913,1334.61 C617.954,1339.61 611.507,1341.26 606.513,1338.3 C601.519,1335.34 599.87,1328.89 602.829,1323.9 Z M628.085,1363.03 C631.044,1358.04 637.491,1356.39 642.485,1359.35 C647.478,1362.31 649.128,1368.75 646.169,1373.75 C643.21,1378.74 636.763,1380.39 631.769,1377.43 C626.775,1374.47 625.126,1368.02 628.085,1363.03 Z M320.908,1418.4 C320.132,1438.63 325.438,1454.94 336.677,1466.87 C355.533,1486.89 384.515,1488.5 390.133,1488.62 C421.447,1489.22 434.967,1478.16 452.104,1463.97 C462.794,1455.12 474.91,1445.09 492.853,1436.77 C511.248,1428.24 524.264,1412.59 524.507,1398.72 C524.502,1398.33 524.516,1398.03 524.516,1398.03 C524.533,1397.64 524.606,1397.27 524.678,1396.9 C524.399,1376.33 524.148,1333.61 524.069,1319.43 C503.391,1314.89 480.326,1293.08 484.434,1272.54 C489.092,1249.24 532.181,1248.08 532.181,1248.08 C532.181,1248.08 583.423,1245.87 583.423,1276.15 C583.423,1301.68 557.82,1316.07 539.414,1319.49 C539.503,1335.36 539.809,1386.58 540.118,1402.74 C541.105,1410.84 545.726,1428.12 566.856,1437.93 C580.289,1444.17 589.502,1453.25 598.409,1462.02 C612.864,1476.27 626.519,1489.72 659.04,1494.36 C685.833,1498.19 710.682,1490.79 726.899,1474.23 C740.478,1460.36 747.41,1441.41 746.946,1419.43 C746.026,1376.21 718.986,1356.15 684.754,1330.75 C662.195,1314.01 636.625,1295.04 616.721,1266.44 C590.794,1229.19 544.448,1227.3 535.419,1227.3 C534.231,1227.3 533.228,1227.33 532.429,1227.37 C517.997,1228.09 484.716,1229.75 450.796,1271.55 C431.03,1295.9 407.327,1312.52 386.412,1327.18 C350.813,1352.13 322.695,1371.84 320.908,1418.4 L320.908,1418.4 Z" id="Fill-27" fill="#B2B4B1"></path>
        <path d="M552.561,1283.31 C560.078,1283.31 566.172,1279.01 566.172,1273.7 C566.172,1268.39 560.078,1264.09 552.561,1264.09 C545.044,1264.09 538.95,1268.39 538.95,1273.7 C538.95,1279.01 545.044,1283.31 552.561,1283.31" id="Fill-28" fill="#FFFFFE"></path>
        <path d="M606.513,1338.3 C611.507,1341.26 617.954,1339.61 620.913,1334.61 C623.872,1329.62 622.223,1323.17 617.229,1320.21 C612.235,1317.25 605.788,1318.9 602.829,1323.9 C599.87,1328.89 601.519,1335.34 606.513,1338.3" id="Fill-29" fill="#1B1A19"></path>
        <path d="M579.697,1338.36 C574.704,1335.4 568.257,1337.05 565.298,1342.04 C562.338,1347.03 563.988,1353.48 568.982,1356.44 C573.975,1359.4 580.422,1357.75 583.381,1352.76 C586.341,1347.76 584.691,1341.31 579.697,1338.36" id="Fill-30" fill="#1B1A19"></path>
        <path d="M591.577,1389.28 C596.571,1392.24 603.018,1390.59 605.977,1385.6 C608.936,1380.61 607.286,1374.16 602.293,1371.2 C597.299,1368.24 590.852,1369.89 587.893,1374.88 C584.934,1379.88 586.583,1386.33 591.577,1389.28" id="Fill-31" fill="#1B1A19"></path>
        <path d="M631.769,1377.43 C636.763,1380.39 643.21,1378.74 646.169,1373.75 C649.128,1368.75 647.478,1362.31 642.485,1359.35 C637.491,1356.39 631.044,1358.04 628.085,1363.03 C625.126,1368.02 626.775,1374.47 631.769,1377.43" id="Fill-32" fill="#1B1A19"></path>
        <path d="M455.589,1341.63 C460.28,1338.21 461.311,1331.64 457.892,1326.95 C454.473,1322.26 447.899,1321.23 443.208,1324.65 C438.517,1328.06 437.486,1334.64 440.905,1339.33 C444.324,1344.02 450.898,1345.05 455.589,1341.63" id="Fill-33" fill="#1B1A19"></path>
        <path d="M494.671,1356.14 C499.362,1352.72 500.393,1346.14 496.974,1341.45 C493.555,1336.76 486.981,1335.73 482.29,1339.15 C477.599,1342.57 476.568,1349.14 479.987,1353.83 C483.406,1358.52 489.981,1359.56 494.671,1356.14" id="Fill-34" fill="#1B1A19"></path>
        <path d="M478.469,1393.6 C483.16,1390.18 484.191,1383.61 480.772,1378.92 C477.353,1374.23 470.779,1373.19 466.088,1376.61 C461.397,1380.03 460.366,1386.61 463.785,1391.3 C467.204,1395.99 473.778,1397.02 478.469,1393.6" id="Fill-35" fill="#1B1A19"></path>
        <path d="M437.335,1385.61 C442.025,1382.19 443.057,1375.62 439.637,1370.93 C436.219,1366.23 429.644,1365.2 424.953,1368.62 C420.262,1372.04 419.232,1378.62 422.65,1383.31 C426.069,1388 432.644,1389.03 437.335,1385.61" id="Fill-36" fill="#1B1A19"></path>
        <path d="M292.6,1083.92 L292.598,1083.92 C291.755,1083.92 290.857,1083.81 289.931,1083.58 C287.352,1082.93 285.585,1081.59 284.204,1079.22 C278.801,1069.98 282.419,1050.31 284.109,1044.16 C284.156,1043.99 284.196,1043.82 284.231,1043.65 C289.46,1018.21 286.875,1001.42 282.335,978.724 L281.93,976.71 C278.734,960.834 273.384,934.264 282.787,920.768 C286.083,916.041 291.098,913.208 298.122,912.112 C299.487,911.897 300.852,911.789 302.178,911.789 C329.047,911.789 347.621,957.213 352.229,989.465 C355.629,1013.26 350.663,1026.86 334.515,1037.96 C326.12,1043.73 319.94,1053.32 313.966,1062.59 C306.896,1073.56 300.217,1083.92 292.6,1083.92 Z M326.863,1070.9 C332.02,1062.9 337.35,1054.63 343.209,1050.6 C364.151,1036.2 371.618,1016.68 367.421,987.295 C362.203,950.776 340.523,896.444 302.178,896.444 C300.062,896.444 297.9,896.615 295.754,896.949 C284.53,898.704 275.933,903.766 270.198,911.996 C257.047,930.868 263.206,961.461 266.887,979.738 L267.287,981.733 C271.569,1003.14 273.841,1017.79 269.248,1040.32 C268.136,1044.44 261.55,1070.83 270.939,1086.94 C274.379,1092.84 279.66,1096.82 286.209,1098.46 C288.35,1099 290.499,1099.27 292.595,1099.27 C292.597,1099.27 292.598,1099.27 292.6,1099.27 C308.583,1099.27 318.295,1084.2 326.863,1070.9 L326.863,1070.9 Z" id="Fill-37" fill="#CBBAB4"></path>
        <path d="M372.514,1226.06 C372.514,1232.55 369.109,1237.82 364.908,1237.82 C360.707,1237.82 357.302,1232.55 357.302,1226.06 C357.302,1219.57 360.707,1214.31 364.908,1214.31 C369.109,1214.31 372.514,1219.57 372.514,1226.06 Z M341.686,1277.15 C371.786,1290.53 388.509,1255.41 388.509,1255.41 C388.509,1255.41 393.526,1203.57 361.753,1196.88 C320.032,1188.1 321.297,1268.09 341.686,1277.15 L341.686,1277.15 Z" id="Fill-38" fill="#1B1A19"></path>
        <path d="M720.842,1214.31 C725.043,1214.31 728.448,1219.57 728.448,1226.06 C728.448,1232.55 725.043,1237.82 720.842,1237.82 C716.641,1237.82 713.236,1232.55 713.236,1226.06 C713.236,1219.57 716.641,1214.31 720.842,1214.31 Z M729.766,1277.15 C750.154,1268.09 751.419,1188.1 709.699,1196.88 C677.926,1203.57 682.942,1255.41 682.942,1255.41 C682.942,1255.41 699.665,1290.53 729.766,1277.15 L729.766,1277.15 Z" id="Fill-39" fill="#1B1A19"></path>
        <path d="M724.054,989.465 C728.661,957.211 747.237,911.789 774.105,911.789 C775.433,911.789 776.796,911.897 778.163,912.112 C785.185,913.208 790.202,916.041 793.496,920.768 C802.901,934.269 797.548,960.843 794.35,976.722 L793.949,978.724 C789.408,1001.42 786.825,1018.21 792.051,1043.65 C792.087,1043.82 792.126,1043.99 792.171,1044.15 C793.865,1050.31 797.482,1069.98 792.081,1079.22 C790.7,1081.59 788.932,1082.93 786.354,1083.58 C785.428,1083.81 784.529,1083.92 783.687,1083.92 C776.068,1083.92 769.391,1073.56 762.318,1062.59 C756.342,1053.32 750.165,1043.73 741.767,1037.96 C725.622,1026.85 720.656,1013.26 724.054,989.465 Z M733.076,1050.6 C738.932,1054.63 744.264,1062.9 749.418,1070.9 C757.99,1084.2 767.703,1099.27 783.687,1099.27 C785.785,1099.27 787.934,1099 790.076,1098.46 C796.625,1096.82 801.906,1092.84 805.343,1086.94 C814.733,1070.83 808.149,1044.44 807.034,1040.32 C802.442,1017.79 804.714,1003.14 808.994,981.734 L809.392,979.752 C813.076,961.471 819.238,930.875 806.087,911.998 C800.353,903.766 791.755,898.704 780.531,896.949 C778.385,896.615 776.224,896.444 774.105,896.444 C735.761,896.444 714.08,950.776 708.865,987.295 C704.667,1016.68 712.132,1036.2 733.076,1050.6 L733.076,1050.6 Z" id="Fill-40" fill="#CBBAB4"></path>
        <path d="M485.472,1203.05 C486.861,1203.05 488.266,1202.68 489.531,1201.89 C489.913,1201.64 528.517,1178.09 574.909,1198.89 C578.773,1200.62 583.313,1198.89 585.048,1195.03 C586.781,1191.16 585.051,1186.62 581.185,1184.89 C527.409,1160.78 483.251,1187.72 481.397,1188.87 C477.805,1191.12 476.713,1195.85 478.958,1199.45 C480.414,1201.78 482.914,1203.05 485.472,1203.05" id="Fill-41" fill="#1B1A19"></path>
        <path d="M538.95,1273.7 C538.95,1268.39 545.044,1264.09 552.561,1264.09 C560.078,1264.09 566.172,1268.39 566.172,1273.7 C566.172,1279.01 560.078,1283.31 552.561,1283.31 C545.044,1283.31 538.95,1279.01 538.95,1273.7 Z M320.908,1418.4 C322.695,1371.84 350.813,1352.13 386.412,1327.18 C407.327,1312.52 431.03,1295.9 450.796,1271.55 C484.716,1229.75 517.997,1228.09 532.429,1227.37 C533.228,1227.33 534.231,1227.3 535.419,1227.3 C544.448,1227.3 590.794,1229.19 616.721,1266.44 C636.625,1295.04 662.195,1314.01 684.754,1330.75 C718.986,1356.15 746.026,1376.21 746.946,1419.43 C747.41,1441.41 740.478,1460.36 726.899,1474.23 C710.682,1490.79 685.833,1498.19 659.04,1494.36 C626.519,1489.72 612.864,1476.27 598.409,1462.02 C589.502,1453.25 580.289,1444.17 566.856,1437.93 C545.726,1428.12 541.105,1410.84 540.118,1402.74 C539.809,1386.58 539.503,1335.36 539.414,1319.49 C557.82,1316.07 583.423,1301.68 583.423,1276.15 C583.423,1245.87 532.181,1248.08 532.181,1248.08 C532.181,1248.08 489.092,1249.24 484.434,1272.54 C480.326,1293.08 503.391,1314.89 524.069,1319.43 C524.148,1333.61 524.399,1376.33 524.678,1396.9 C524.606,1397.27 524.533,1397.64 524.516,1398.03 C524.516,1398.03 524.502,1398.33 524.507,1398.72 C524.264,1412.59 511.248,1428.24 492.853,1436.77 C474.91,1445.09 462.794,1455.12 452.104,1463.97 C434.967,1478.16 421.447,1489.22 390.133,1488.62 C384.515,1488.5 355.533,1486.89 336.677,1466.87 C325.438,1454.94 320.132,1438.63 320.908,1418.4 Z M389.806,1503.96 C426.998,1504.87 443.892,1490.69 461.891,1475.79 C472.352,1467.13 483.167,1458.17 499.306,1450.69 C511.21,1445.17 523.243,1435.95 531.073,1424.52 C536.086,1434.27 544.903,1444.66 560.395,1451.85 C571.415,1456.97 579.297,1464.73 587.641,1472.95 C602.5,1487.6 619.347,1504.2 656.87,1509.55 C662.315,1510.33 667.764,1510.72 673.066,1510.72 L673.069,1510.72 C698.589,1510.72 721.6,1501.58 737.862,1484.96 C754.16,1468.32 762.833,1444.93 762.285,1419.11 C761.206,1368.37 728.511,1344.11 693.898,1318.43 C671.229,1301.6 647.786,1284.21 629.315,1257.67 C599.791,1215.25 549.98,1211.95 535.419,1211.95 C533.928,1211.95 532.668,1211.99 531.443,1212.05 C516.584,1212.79 477.114,1214.77 438.88,1261.88 C420.467,1284.57 398.677,1299.84 377.603,1314.61 C341.631,1339.83 307.652,1363.65 305.575,1417.81 C304.636,1442.31 311.342,1462.36 325.509,1477.39 C343.367,1496.35 370.432,1503.55 389.806,1503.96 L389.806,1503.96 Z" id="Fill-42" fill="#1B1A19"></path>
        <path d="M898.65,1963.11 C897.087,1964.94 895.252,1966.54 893.178,1967.94 C893.485,1955.65 886.92,1945.94 886.533,1945.38 C884.127,1941.92 879.388,1941.07 875.912,1943.46 C872.432,1945.84 871.545,1950.61 873.907,1954.1 C874.202,1954.54 880.745,1964.46 876.323,1974.05 C862.393,1976.27 843.276,1974.58 818.156,1969 C812.045,1967.65 806.562,1966.02 801.835,1964.39 C833.631,1954.31 857.023,1935.94 870.971,1909.7 C871.369,1909.74 871.769,1909.77 872.18,1909.75 C884.774,1908.87 897.76,1916.78 903.802,1928.84 C907.132,1935.49 910.896,1948.79 898.65,1963.11 Z M732.349,1958.13 C744.751,1930.58 784.468,1839.87 791.485,1792.61 C792.108,1788.42 789.216,1784.52 785.023,1783.9 C780.848,1783.28 776.931,1786.17 776.308,1790.36 C768.471,1843.13 715.312,1958.55 714.776,1959.7 C713.322,1962.85 714.155,1966.57 716.808,1968.8 C717.008,1968.97 736.717,1985.98 726.47,2017.99 C720.422,2036.88 707.265,2041.05 697.94,2041.43 C699.619,2038 700.517,2034.63 700.779,2031.88 C701.184,2027.66 698.091,2023.92 693.874,2023.52 C689.618,2023.1 685.905,2026.2 685.506,2030.42 C685.444,2031.06 683.645,2046.13 660.772,2044.84 C650.732,2044.29 648.253,2035.58 648.37,2030.53 C648.469,2026.29 645.115,2022.78 640.88,2022.68 C640.818,2022.68 640.758,2022.68 640.698,2022.68 C636.544,2022.68 633.127,2025.99 633.031,2030.17 C632.944,2033.93 633.543,2037.72 634.78,2041.31 C624.652,2042.62 616.898,2040.21 611.701,2034.1 C601.644,2022.25 601.294,1997.39 610.094,1965.02 C610.537,1964.15 610.809,1963.19 610.891,1962.19 C613.5,1953.02 616.78,1943.32 620.812,1933.12 C655.518,1845.3 648.529,1746.81 648.214,1742.66 C647.894,1738.43 644.165,1735.28 639.984,1735.59 C635.759,1735.91 632.591,1739.59 632.911,1743.82 C632.986,1744.8 639.963,1842.91 606.54,1927.47 C602.721,1937.14 599.536,1946.37 596.924,1955.16 C582.738,1958.04 559.818,1959.56 543.797,1959.4 C516.078,1959.08 493.009,1956.65 478.412,1952.54 C475.949,1944.53 473.049,1936.19 469.604,1927.47 C436.226,1843.02 443.156,1744.8 443.23,1743.82 C443.549,1739.59 440.383,1735.91 436.157,1735.59 C431.946,1735.27 428.249,1738.43 427.93,1742.66 C427.615,1746.81 420.626,1845.3 455.332,1933.12 C474.198,1980.85 477.603,2018.6 464.441,2034.1 C459.247,2040.21 451.494,2042.63 441.365,2041.31 C442.601,2037.73 443.201,2033.93 443.113,2030.17 C443.012,2025.93 439.575,2022.56 435.262,2022.68 C431.026,2022.78 427.672,2026.29 427.771,2030.53 C427.891,2035.59 425.412,2044.29 415.372,2044.84 C393.717,2046 390.964,2033 390.629,2030.33 C390.184,2026.16 386.452,2023.12 382.27,2023.52 C378.052,2023.92 374.959,2027.66 375.362,2031.88 C375.624,2034.63 376.518,2037.98 378.188,2041.41 C368.911,2040.99 355.701,2036.81 349.673,2017.98 C339.551,1986.37 358.562,1969.47 359.333,1968.8 C361.977,1966.58 362.815,1962.87 361.38,1959.73 C360.94,1958.77 317.152,1862.6 299.121,1793.49 C298.051,1789.39 293.866,1786.92 289.762,1788 C285.66,1789.07 283.204,1793.26 284.274,1797.36 C300.232,1858.53 335.774,1940.01 345.125,1961 C323.036,1959.7 283.363,1954.75 262.378,1943.55 C234.728,1928.8 218.042,1906.69 212.781,1877.83 C201.161,1814.09 247.187,1736.46 264.357,1716.89 C265.45,1715.64 266.109,1714.08 266.238,1712.43 C273.282,1622.6 302.014,1551.45 317.372,1518.95 C356.756,1538.22 404.531,1531.27 429.416,1527.63 C434.612,1526.87 439.098,1526.22 441.748,1526.08 C449.237,1525.69 456.057,1528.92 465.48,1533.4 C478.946,1539.79 497.388,1548.56 528.199,1550.53 C532.161,1550.78 535.883,1550.9 539.4,1550.9 C564.159,1550.9 578.479,1545.12 590.272,1540.36 C600.696,1536.15 608.917,1532.84 622.23,1534.2 C624.19,1534.4 626.429,1534.66 628.913,1534.95 C656.771,1538.14 715.878,1544.88 760.944,1519.19 C771.134,1544.08 799.371,1620.27 793.505,1687.34 C793.265,1690.06 794.491,1692.7 796.724,1694.28 C847.991,1730.47 887.984,1829.64 861.571,1893.78 C839.307,1947.84 779.731,1958.74 732.349,1958.13 Z M227.204,1990.69 C224.967,1990.72 222.453,1990.67 219.817,1990.53 C215.296,1982.46 217.606,1971.57 217.662,1971.32 C218.606,1967.21 216.042,1963.1 211.925,1962.14 C207.797,1961.17 203.673,1963.74 202.711,1967.87 C202.583,1968.42 200.535,1977.52 202.647,1987.68 C194.438,1985.1 187.397,1980.43 185.162,1972.15 C180.71,1955.66 185.07,1943.67 198.494,1935.47 C207.385,1930.04 220.456,1932.54 220.726,1932.59 C221.528,1932.76 222.319,1932.76 223.092,1932.67 C231.772,1942.14 242.447,1950.31 255.153,1957.09 C266.693,1963.25 282.111,1967.49 297.046,1970.4 C288.417,1977.73 260.934,1990.23 227.204,1990.69 Z M285.152,1466.04 C247.851,1392.29 295.625,1322.03 296.106,1321.34 C297.364,1319.54 297.791,1317.29 297.277,1315.15 C271.06,1206.03 306.241,1130.71 310.338,1122.48 C312.227,1118.69 310.682,1114.08 306.89,1112.2 C303.097,1110.31 298.489,1111.85 296.602,1115.64 C295.409,1118.04 291.73,1125.81 287.589,1138.16 C280.315,1138.41 259.007,1137.37 249.05,1117.68 C239.877,1099.54 241.986,1080.58 244.655,1056.56 C246.976,1035.68 249.607,1012.01 245.124,983.687 L244.614,980.482 C237.343,934.768 229.824,887.495 280.402,867.572 C298.769,860.338 318.353,862.567 337.038,874.036 C373.784,896.586 399.692,949.433 406.721,1015.81 C383.857,1024.07 375.006,1032.25 374.293,1032.94 C371.268,1035.86 371.188,1040.64 374.074,1043.7 C376.961,1046.75 381.798,1046.89 384.891,1044.03 C385.22,1043.73 419.25,1013.52 534.511,1013.52 C650.651,1013.52 684.523,1049.04 684.799,1049.34 C686.316,1051.07 688.435,1051.95 690.565,1051.95 C692.364,1051.95 694.171,1051.32 695.627,1050.04 C698.81,1047.25 699.122,1042.4 696.326,1039.21 C695.67,1038.47 688.119,1030.23 668.979,1021.34 C675.945,952.079 702.285,897.159 739.768,874.07 C758.293,862.656 777.693,860.408 795.885,867.572 C846.46,887.497 838.94,934.769 831.669,980.485 L831.16,983.687 C826.676,1012.01 829.308,1035.68 831.63,1056.57 C834.298,1080.58 836.405,1099.54 827.237,1117.68 C818.321,1135.3 800.509,1138.09 790.685,1138.18 C790.543,1138.18 790.411,1138.21 790.271,1138.22 C787.638,1131.13 784.615,1124.08 781.067,1117.14 C779.137,1113.37 774.513,1111.87 770.742,1113.8 C766.969,1115.73 765.474,1120.35 767.401,1124.12 C811.469,1210.35 774.411,1317.97 774.03,1319.05 C773.161,1321.52 773.608,1324.27 775.223,1326.33 C775.664,1326.89 819.007,1383.43 796.247,1451.95 C768.48,1535.52 671.906,1524.44 630.664,1519.7 C628.116,1519.41 625.82,1519.15 623.806,1518.94 C606.711,1517.14 595.934,1521.52 584.527,1526.13 C571.876,1531.24 557.539,1537.02 529.176,1535.22 C501.311,1533.43 485.096,1525.73 472.067,1519.54 C461.477,1514.51 452.341,1510.13 440.942,1510.76 C437.586,1510.93 433.004,1511.6 427.202,1512.45 C401.315,1516.22 355.235,1522.93 319.717,1502.84 C319.108,1502.18 318.393,1501.61 317.546,1501.19 C317.05,1500.94 316.541,1500.76 316.026,1500.63 C303.872,1492.93 293.138,1481.83 285.152,1466.04 Z M917.523,1921.97 C909.683,1906.31 894.177,1895.9 877.674,1894.52 C902.873,1824.04 862.227,1724.85 809.126,1684.35 C813.951,1612.23 783.127,1532.42 773.961,1510.52 C789.654,1498.32 802.744,1481.06 810.807,1456.78 C833.081,1389.74 799.559,1334.4 789.786,1320.28 C795.489,1302.32 816.45,1227.18 795.232,1153.33 C807.581,1152.39 829.417,1147.37 840.93,1124.6 C852.163,1102.39 849.715,1080.37 846.879,1054.87 C844.665,1034.95 842.156,1012.37 846.319,986.088 L846.826,982.896 C853.883,938.515 863.552,877.735 801.507,853.294 C778.984,844.42 754.196,847.161 731.721,861.004 C691.038,886.065 662.343,943.405 654.186,1015.3 C629.114,1006.29 590.928,998.176 534.511,998.176 C482.751,998.176 446.469,1004.1 421.647,1011.06 C413.612,941.423 385.244,885.614 345.065,860.956 C322.441,847.074 297.477,844.35 274.776,853.294 C212.733,877.735 222.401,938.514 229.459,982.893 L229.967,986.086 C234.127,1012.37 231.617,1034.95 229.404,1054.87 C226.569,1080.37 224.122,1102.39 235.356,1124.6 C247.393,1148.4 270.228,1152.91 282.972,1153.46 C273.504,1188.52 265.405,1245.39 281.593,1315.5 C272.136,1330.52 234.014,1398.93 271.459,1472.97 C280.072,1490 291.387,1502.29 304.101,1511.13 C288.59,1543.69 258.8,1616.52 251.14,1708.75 C230.948,1733.23 185.267,1812.46 197.685,1880.58 C200.11,1893.89 204.625,1905.93 211.129,1916.71 C204.847,1916.96 197.21,1918.28 190.496,1922.38 C171.303,1934.1 164.146,1953.19 170.347,1976.15 C175.567,1995.47 195.142,2006.05 225.565,2006.05 C226.178,2006.05 226.797,2006.05 227.417,2006.04 C258.264,2005.61 305.398,1992.72 313.822,1973.21 C322.526,1974.44 330.377,1975.24 336.315,1975.74 C331.49,1986.77 328.61,2002.52 335.059,2022.66 C344.347,2051.68 366.257,2056.61 380.096,2056.61 C385.889,2056.61 390.221,2055.75 391.666,2055.43 C397.019,2058.34 403.902,2060.26 412.7,2060.26 C413.838,2060.26 415.01,2060.23 416.208,2060.16 C422.47,2059.82 427.631,2057.79 431.726,2054.74 C432.368,2055.1 433.05,2055.4 433.804,2055.56 C438.147,2056.5 442.326,2056.97 446.306,2056.97 C458.561,2056.97 468.902,2052.55 476.136,2044.03 C488.744,2029.19 490.942,2003.32 483.002,1969.41 C498.547,1972.6 519.521,1974.47 543.623,1974.74 C544.525,1974.75 545.449,1974.76 546.393,1974.76 C560.265,1974.76 578.383,1973.66 592.666,1971.48 C585.296,2004.37 587.656,2029.49 600.007,2044.03 C607.242,2052.55 617.581,2056.97 629.836,2056.97 C633.816,2056.97 637.997,2056.5 642.337,2055.56 C643.092,2055.4 643.776,2055.09 644.418,2054.74 C648.513,2057.79 653.675,2059.82 659.936,2060.16 C661.134,2060.23 662.303,2060.26 663.442,2060.26 C672.239,2060.26 679.122,2058.34 684.475,2055.43 C685.917,2055.75 690.249,2056.61 696.047,2056.61 C709.887,2056.61 731.799,2051.67 741.084,2022.66 C747.992,2001.09 744.196,1984.55 738.769,1973.46 C752.294,1973.35 764.959,1972.3 776.752,1970.35 C780.403,1972.32 794.526,1979.47 814.829,1983.98 C833.851,1988.21 849.894,1990.35 863.357,1990.35 C885.326,1990.35 900.413,1984.66 910.312,1973.08 C923.268,1957.93 925.965,1938.82 917.523,1921.97 L917.523,1921.97 Z" id="Fill-43" fill="#1B1A19"></path>
        <path d="M842.844,2148.15 C861.739,2152.59 890.963,2156.87 930.62,2158.96 C931.327,2153.65 933.79,2147.02 940.553,2140.63 C948.377,2133.24 958.045,2131.88 965.745,2132.33 C965.211,2127.61 965.424,2122.12 967.501,2116.7 C970.378,2109.2 976.38,2103.38 984.857,2099.87 C993.578,2096.25 1002.44,2095.43 1010.39,2097.21 C1010.18,2096.81 1009.94,2096.41 1009.7,2096.02 C1009.58,2095.84 1009.46,2095.67 1009.36,2095.48 C1006.57,2091.35 1001.71,2087.73 993.24,2086.92 C985.558,2086.2 981.837,2090.75 981.44,2091.28 C979.021,2094.76 974.279,2095.55 970.802,2093.13 C967.324,2090.71 966.509,2085.87 968.93,2082.4 C970.057,2080.78 971.924,2078.81 974.44,2077 C969.757,2068.92 960.992,2065.08 948.182,2065.72 C928.217,2066.69 927.014,2088.61 926.972,2089.55 C926.84,2092.52 925,2095.15 922.251,2096.29 C919.505,2097.43 916.341,2096.88 914.141,2094.88 C913.809,2094.58 904.624,2086.69 891.341,2090.02 C882.316,2092.28 877.895,2099.72 875.776,2105.57 C872.348,2115.04 873.738,2123.23 874.846,2124.75 C876.852,2127.16 877.182,2130.53 875.695,2133.29 C874.209,2136.05 871.185,2137.61 868.069,2137.26 C867.227,2137.18 848.035,2135.32 842.844,2148.15" id="Fill-44" fill="#EBDCBA"></path>
        <path d="M724.349,2244.4 L724.349,2247.27 C724.349,2258.06 743.376,2274.46 796.774,2288.11 C846.598,2300.85 912.968,2307.87 983.659,2307.87 C1054.35,2307.87 1120.72,2300.85 1170.54,2288.11 C1223.94,2274.46 1242.97,2258.06 1242.97,2247.27 L1242.97,2244.4 C1202.87,2276.71 1090.58,2293.87 983.659,2293.87 C876.739,2293.87 764.445,2276.71 724.349,2244.4" id="Fill-45" fill="#7BC8E5"></path>
        <path d="M1119.28,2128.77 C1123.95,2133.43 1126.97,2139.6 1128.32,2147.2 C1139.47,2144.35 1146.43,2141.48 1149.14,2139.13 C1146.84,2137.29 1139.68,2133.11 1119.28,2128.77" id="Fill-46" fill="#1B1A19"></path>
        <path d="M836.758,2242.78 C837.493,2238.61 841.477,2235.82 845.644,2236.56 C866.906,2240.3 890.358,2243.13 915.349,2244.97 C919.577,2245.28 922.75,2248.96 922.439,2253.18 C922.142,2257.22 918.776,2260.29 914.795,2260.29 C914.606,2260.29 914.416,2260.29 914.225,2260.27 C888.72,2258.39 864.752,2255.5 842.983,2251.67 C838.809,2250.93 836.022,2246.96 836.758,2242.78 Z M796.774,2258.77 C846.597,2271.51 912.968,2278.53 983.659,2278.53 C1054.35,2278.53 1120.72,2271.51 1170.54,2258.77 C1223.94,2245.12 1242.97,2228.72 1242.97,2217.93 C1242.97,2212.45 1238.4,2206.5 1229.85,2200.6 C1226.66,2218.86 1201.33,2233.93 1154.4,2245.41 C1108.7,2256.6 1048.06,2262.76 983.659,2262.76 C979.422,2262.76 975.987,2259.32 975.987,2255.09 C975.987,2250.85 979.422,2247.41 983.659,2247.41 C1123.41,2247.41 1210.54,2219.26 1214.71,2198.19 L1180.78,2132.71 C1177.39,2126.34 1155.78,2114.17 1096.99,2105.99 C1097.51,2107.19 1097.98,2108.39 1098.37,2109.56 C1157.51,2118.02 1165.26,2129.72 1165.26,2139.05 C1165.26,2147.65 1158.74,2158.61 1107.9,2167.06 C1074.65,2172.59 1030.53,2175.64 983.659,2175.64 C936.792,2175.64 892.668,2172.59 859.415,2167.06 C808.578,2158.61 802.058,2147.65 802.058,2139.05 C802.058,2130.56 808.392,2119.74 857.791,2111.31 L858.731,2111.18 C858.89,2110.01 859.07,2108.84 859.315,2107.65 C807.507,2115.99 789.081,2127.35 786.44,2132.9 C786.422,2132.93 786.39,2132.96 786.371,2133 C786.341,2133.06 786.327,2133.13 786.295,2133.19 C778.924,2147.11 757.553,2188.58 752.623,2198.15 C754.327,2205.98 769.017,2217.42 806.035,2227.76 C810.117,2228.89 812.503,2233.13 811.364,2237.21 C810.417,2240.6 807.334,2242.82 803.977,2242.82 C803.294,2242.82 802.6,2242.73 801.911,2242.54 C762.029,2231.4 740.415,2217.3 737.485,2200.59 C728.922,2206.49 724.349,2212.45 724.349,2217.93 C724.349,2228.72 743.376,2245.12 796.774,2258.77 L796.774,2258.77 Z" id="Fill-47" fill="#7BC8E5"></path>
        <path d="M990.731,2114.04 C986.136,2115.95 983.231,2118.6 981.851,2122.14 C979.45,2128.3 982.047,2136.37 983.25,2138.96 C984.572,2141.81 984.038,2145.19 981.888,2147.47 C979.738,2149.75 976.427,2150.52 973.504,2149.37 C973.397,2149.33 959.266,2144.07 951.089,2151.79 C948.092,2154.62 946.666,2157.29 946.066,2159.64 C957.8,2160.06 970.316,2160.29 983.659,2160.29 C1008.7,2160.29 1030.89,2159.48 1050.27,2158.13 C1049.99,2154.51 1048.89,2151.66 1046.83,2149.59 C1041.8,2144.52 1031.85,2144.25 1028.77,2144.56 C1026.35,2144.82 1023.99,2143.89 1022.35,2142.11 C1020.72,2140.33 1020.02,2137.88 1020.47,2135.5 C1022.03,2127.25 1019.89,2120.05 1014.59,2115.74 C1008.68,2110.94 999.764,2110.3 990.731,2114.04" id="Fill-48" fill="#EBDCBA"></path>
        <path d="M835.74,2131.78 C824.564,2134.95 819.935,2137.73 818.176,2139.12 C819.853,2140.58 823.137,2142.23 828.026,2143.95 C829.718,2138.89 832.425,2134.89 835.74,2131.78" id="Fill-49" fill="#1B1A19"></path>
        <path d="M1036.32,2129.43 C1042.78,2130.13 1051.36,2132.35 1057.73,2138.78 C1061.14,2142.23 1064.83,2148 1065.56,2156.92 C1084.76,2155.19 1100.66,2152.93 1113.33,2150.51 C1112.5,2145.27 1110.6,2141.34 1107.62,2138.81 C1102.05,2134.08 1093.95,2135.08 1093.87,2135.09 C1091.49,2135.41 1089.06,2134.58 1087.37,2132.87 C1085.69,2131.15 1084.87,2128.75 1085.22,2126.37 C1085.31,2125.69 1087.41,2108.34 1070.78,2099.48 C1048.49,2087.59 1031.62,2095.45 1027.01,2098.11 C1027.94,2101.62 1028.36,2104.99 1028.39,2107.9 C1033.4,2113.74 1036.16,2121.16 1036.32,2129.43" id="Fill-50" fill="#EBDCBA"></path>
        <path d="M1119.28,2128.77 C1139.68,2133.11 1146.84,2137.29 1149.14,2139.13 C1146.43,2141.48 1139.47,2144.35 1128.32,2147.2 C1126.97,2139.6 1123.95,2133.43 1119.28,2128.77 Z M835.74,2131.78 C832.425,2134.89 829.718,2138.89 828.026,2143.95 C823.137,2142.23 819.853,2140.58 818.176,2139.12 C819.935,2137.73 824.564,2134.95 835.74,2131.78 Z M1170.54,2258.77 C1120.72,2271.51 1054.35,2278.53 983.659,2278.53 C912.968,2278.53 846.597,2271.51 796.774,2258.77 C743.376,2245.12 724.349,2228.72 724.349,2217.93 C724.349,2212.45 728.922,2206.49 737.485,2200.59 C740.415,2217.3 762.029,2231.4 801.911,2242.54 C802.6,2242.73 803.294,2242.82 803.977,2242.82 C807.334,2242.82 810.417,2240.6 811.364,2237.21 C812.503,2233.13 810.117,2228.89 806.035,2227.76 C769.017,2217.42 754.327,2205.98 752.623,2198.15 C757.553,2188.58 778.924,2147.11 786.295,2133.19 C786.327,2133.13 786.341,2133.06 786.371,2133 C786.39,2132.96 786.422,2132.93 786.44,2132.9 C789.081,2127.35 807.507,2115.99 859.315,2107.65 C859.07,2108.84 858.89,2110.01 858.731,2111.18 L857.791,2111.31 C808.392,2119.74 802.058,2130.56 802.058,2139.05 C802.058,2147.65 808.578,2158.61 859.415,2167.06 C892.668,2172.59 936.792,2175.64 983.659,2175.64 C1030.53,2175.64 1074.65,2172.59 1107.9,2167.06 C1158.74,2158.61 1165.26,2147.65 1165.26,2139.05 C1165.26,2129.72 1157.51,2118.02 1098.37,2109.56 C1097.98,2108.39 1097.51,2107.19 1096.99,2105.99 C1155.78,2114.17 1177.39,2126.34 1180.78,2132.71 L1214.71,2198.19 C1210.54,2219.26 1123.41,2247.41 983.659,2247.41 C979.422,2247.41 975.987,2250.85 975.987,2255.09 C975.987,2259.32 979.422,2262.76 983.659,2262.76 C1048.06,2262.76 1108.7,2256.6 1154.4,2245.41 C1201.33,2233.93 1226.66,2218.86 1229.85,2200.6 C1238.4,2206.5 1242.97,2212.45 1242.97,2217.93 C1242.97,2228.72 1223.94,2245.12 1170.54,2258.77 Z M1242.97,2247.27 C1242.97,2258.06 1223.94,2274.46 1170.54,2288.11 C1120.72,2300.85 1054.35,2307.87 983.659,2307.87 C912.968,2307.87 846.598,2300.85 796.774,2288.11 C743.376,2274.46 724.349,2258.06 724.349,2247.27 L724.349,2244.4 C764.445,2276.71 876.739,2293.87 983.659,2293.87 C1090.58,2293.87 1202.87,2276.71 1242.97,2244.4 L1242.97,2247.27 Z M868.069,2137.26 C871.185,2137.61 874.209,2136.05 875.695,2133.29 C877.182,2130.53 876.852,2127.16 874.846,2124.75 C873.738,2123.23 872.348,2115.04 875.776,2105.57 C877.895,2099.72 882.316,2092.28 891.341,2090.02 C904.624,2086.69 913.809,2094.58 914.141,2094.88 C916.341,2096.88 919.505,2097.43 922.251,2096.29 C925,2095.15 926.84,2092.52 926.972,2089.55 C927.014,2088.61 928.217,2066.69 948.182,2065.72 C960.992,2065.08 969.757,2068.92 974.44,2077 C971.924,2078.81 970.057,2080.78 968.93,2082.4 C966.509,2085.87 967.324,2090.71 970.802,2093.13 C974.279,2095.55 979.021,2094.76 981.44,2091.28 C981.837,2090.75 985.558,2086.2 993.24,2086.92 C1001.71,2087.73 1006.57,2091.35 1009.36,2095.48 C1009.46,2095.67 1009.58,2095.84 1009.7,2096.02 C1009.94,2096.41 1010.18,2096.81 1010.39,2097.21 C1002.44,2095.43 993.578,2096.25 984.857,2099.87 C976.38,2103.38 970.378,2109.2 967.501,2116.7 C965.424,2122.12 965.211,2127.61 965.745,2132.33 C958.045,2131.88 948.377,2133.24 940.553,2140.63 C933.79,2147.02 931.327,2153.65 930.62,2158.96 C890.963,2156.87 861.739,2152.59 842.844,2148.15 C848.035,2135.32 867.227,2137.18 868.069,2137.26 Z M1020.47,2135.5 C1020.02,2137.88 1020.72,2140.33 1022.35,2142.11 C1023.99,2143.89 1026.35,2144.82 1028.77,2144.56 C1031.85,2144.25 1041.8,2144.52 1046.83,2149.59 C1048.89,2151.66 1049.99,2154.51 1050.27,2158.13 C1030.89,2159.48 1008.7,2160.29 983.659,2160.29 C970.316,2160.29 957.8,2160.06 946.066,2159.64 C946.666,2157.29 948.092,2154.62 951.089,2151.79 C959.266,2144.07 973.397,2149.33 973.504,2149.37 C976.427,2150.52 979.738,2149.75 981.888,2147.47 C984.038,2145.19 984.572,2141.81 983.25,2138.96 C982.047,2136.37 979.45,2128.3 981.851,2122.14 C983.231,2118.6 986.136,2115.95 990.731,2114.04 C999.764,2110.3 1008.68,2110.94 1014.59,2115.74 C1019.89,2120.05 1022.03,2127.25 1020.47,2135.5 Z M1070.78,2099.48 C1087.41,2108.34 1085.31,2125.69 1085.22,2126.37 C1084.87,2128.75 1085.69,2131.15 1087.37,2132.87 C1089.06,2134.58 1091.49,2135.41 1093.87,2135.09 C1093.95,2135.08 1102.05,2134.08 1107.62,2138.81 C1110.6,2141.34 1112.5,2145.27 1113.33,2150.51 C1100.66,2152.93 1084.76,2155.19 1065.56,2156.92 C1064.83,2148 1061.14,2142.23 1057.73,2138.78 C1051.36,2132.35 1042.78,2130.13 1036.32,2129.43 C1036.16,2121.16 1033.4,2113.74 1028.39,2107.9 C1028.36,2104.99 1027.94,2101.62 1027.01,2098.11 C1031.62,2095.45 1048.49,2087.59 1070.78,2099.48 Z M1258.31,2217.93 C1258.31,2203.2 1246.02,2189.93 1221.79,2178.5 L1194.4,2125.64 C1194.4,2125.63 1194.39,2125.62 1194.38,2125.61 L1194.38,2125.6 C1182.66,2103.28 1119.88,2092.94 1082.52,2088.71 C1081.12,2087.74 1079.64,2086.81 1078.01,2085.94 C1050.81,2071.43 1029.09,2079.64 1020.57,2084.16 L1020.02,2084.14 C1014.84,2077.83 1006.81,2072.79 994.69,2071.64 C992.69,2071.45 990.8,2071.48 989,2071.63 C984.182,2062.03 972.918,2049.13 947.434,2050.39 C927.475,2051.36 917.781,2064.95 913.849,2077.11 C907.392,2074.41 898.327,2072.46 887.621,2075.13 C878.482,2077.42 871.024,2083.03 865.83,2091.23 L862.555,2091.62 C810.715,2099.41 780.593,2110.89 772.912,2125.74 C772.857,2125.83 772.785,2125.91 772.733,2126.01 C767.211,2136.44 753.912,2162.17 745.453,2178.57 C745.357,2178.61 745.257,2178.63 745.162,2178.67 C723.056,2189.16 711.018,2201.21 709.257,2214.5 C709.107,2215.1 709.004,2215.72 709.004,2216.36 L709.004,2247.27 C709.004,2296.6 850.513,2323.21 983.659,2323.21 C1116.8,2323.21 1258.31,2296.6 1258.31,2247.27 L1258.31,2221.67 C1258.31,2221.24 1258.25,2220.82 1258.19,2220.41 C1258.27,2219.59 1258.31,2218.77 1258.31,2217.93 L1258.31,2217.93 Z" id="Fill-51" fill="#1B1A19"></path>
        <path d="M915.349,2244.97 C890.358,2243.13 866.906,2240.3 845.644,2236.56 C841.477,2235.82 837.493,2238.61 836.758,2242.78 C836.022,2246.96 838.809,2250.93 842.983,2251.67 C864.752,2255.5 888.72,2258.39 914.225,2260.27 C914.416,2260.29 914.606,2260.29 914.795,2260.29 C918.776,2260.29 922.142,2257.22 922.439,2253.18 C922.75,2248.96 919.577,2245.28 915.349,2244.97" id="Fill-52" fill="#1B1A19"></path>
        <path d="M2429.41,2022.98 C2406.69,2008.46 2396.38,1986.27 2386.41,1964.81 C2379.26,1949.42 2371.82,1933.58 2359.8,1920.85 C2333.9,1924.52 2310.25,1937.64 2293.37,1958.16 C2276.5,1978.65 2268.13,2004.18 2269.51,2030.52 C2284.32,2039.87 2301.32,2044.12 2317.81,2048.18 C2340.78,2053.83 2364.54,2059.68 2383.15,2079.18 C2397.81,2094.54 2405.49,2110.11 2406.13,2125.62 C2425.47,2119.59 2442.83,2108.08 2456.04,2092.03 C2469.27,2075.95 2477.26,2056.78 2479.43,2036.55 C2476.81,2036.96 2474.15,2037.21 2471.44,2037.21 C2458.32,2037.21 2444.25,2032.46 2429.41,2022.98" id="Fill-53" fill="#FAD829"></path>
        <path d="M2400.33,1958.35 C2409.78,1978.71 2418.72,1997.94 2437.67,2010.05 C2453.44,2020.12 2467.63,2023.74 2479.95,2020.86 C2479.93,2020.35 2479.9,2019.85 2479.87,2019.34 C2479.79,2017.87 2479.69,2016.39 2479.55,2014.91 C2476.83,1986.91 2463.37,1961.64 2441.64,1943.76 C2423.93,1929.18 2401.84,1920.78 2379.03,1919.84 C2383.36,1925.66 2387.03,1931.75 2390.35,1937.94 C2393.97,1944.69 2397.17,1951.56 2400.33,1958.35" id="Fill-54" fill="#FAD829"></path>
        <path d="M2314.14,2063.08 C2306.88,2061.29 2299.52,2059.47 2292.2,2057.22 C2285.48,2055.15 2278.8,2052.72 2272.26,2049.59 C2277.53,2071.83 2289.81,2091.66 2307.77,2106.43 C2326.58,2121.91 2350.32,2130.43 2374.64,2130.43 C2379.58,2130.43 2384.46,2130.05 2389.27,2129.39 C2389.78,2129.31 2390.29,2129.25 2390.8,2129.17 C2391.26,2116.54 2384.97,2103.32 2372.05,2089.77 C2356.53,2073.51 2335.94,2068.44 2314.14,2063.08" id="Fill-55" fill="#FAD829"></path>
        <path d="M2437.67,2010.05 C2418.72,1997.94 2409.78,1978.71 2400.33,1958.35 C2397.17,1951.56 2393.97,1944.69 2390.35,1937.94 C2387.03,1931.75 2383.36,1925.66 2379.03,1919.84 C2377.61,1919.79 2376.19,1919.75 2374.77,1919.75 C2373.33,1919.75 2371.9,1919.81 2370.47,1919.87 C2370.08,1919.89 2369.69,1919.88 2369.3,1919.9 C2366.11,1920.07 2362.94,1920.4 2359.8,1920.85 C2371.82,1933.58 2379.26,1949.42 2386.41,1964.81 C2396.38,1986.27 2406.69,2008.46 2429.41,2022.98 C2444.25,2032.46 2458.32,2037.21 2471.44,2037.21 C2474.15,2037.21 2476.81,2036.96 2479.43,2036.55 C2479.71,2033.95 2479.88,2031.34 2479.97,2028.71 C2480.05,2026.1 2480.06,2023.48 2479.95,2020.86 C2467.63,2023.74 2453.44,2020.12 2437.67,2010.05" id="Fill-56" fill="#FFFFFE"></path>
        <path d="M2317.81,2048.18 C2301.32,2044.12 2284.32,2039.87 2269.51,2030.52 C2269.59,2032.1 2269.7,2033.69 2269.86,2035.28 C2270.01,2036.87 2270.21,2038.46 2270.44,2040.03 C2270.49,2040.41 2270.55,2040.79 2270.61,2041.16 C2271.04,2044.01 2271.6,2046.82 2272.26,2049.59 C2278.8,2052.72 2285.48,2055.15 2292.2,2057.22 C2299.52,2059.47 2306.88,2061.29 2314.14,2063.08 C2335.94,2068.44 2356.53,2073.51 2372.05,2089.77 C2384.97,2103.32 2391.26,2116.54 2390.8,2129.17 C2393.39,2128.77 2395.96,2128.29 2398.5,2127.71 C2401.08,2127.11 2403.62,2126.4 2406.13,2125.62 C2405.49,2110.11 2397.81,2094.54 2383.15,2079.18 C2364.54,2059.68 2340.78,2053.83 2317.81,2048.18" id="Fill-57" fill="#FFFFFE"></path>
        <path d="M2479.43,2036.55 C2477.26,2056.78 2469.27,2075.95 2456.04,2092.03 C2442.83,2108.08 2425.47,2119.59 2406.13,2125.62 C2403.62,2126.4 2401.08,2127.11 2398.5,2127.71 C2395.96,2128.29 2393.39,2128.77 2390.8,2129.17 C2390.29,2129.25 2389.78,2129.31 2389.27,2129.39 C2384.46,2130.05 2379.58,2130.43 2374.64,2130.43 C2350.32,2130.43 2326.58,2121.91 2307.77,2106.43 C2289.81,2091.66 2277.53,2071.83 2272.26,2049.59 C2271.6,2046.82 2271.04,2044.01 2270.61,2041.16 C2270.55,2040.79 2270.49,2040.41 2270.44,2040.03 C2270.21,2038.46 2270.01,2036.87 2269.86,2035.28 C2269.7,2033.69 2269.59,2032.1 2269.51,2030.52 C2268.13,2004.18 2276.5,1978.65 2293.37,1958.16 C2310.25,1937.64 2333.9,1924.52 2359.8,1920.85 C2362.94,1920.4 2366.11,1920.07 2369.3,1919.9 C2369.69,1919.88 2370.08,1919.89 2370.47,1919.87 C2371.9,1919.81 2373.33,1919.75 2374.77,1919.75 C2376.19,1919.75 2377.61,1919.79 2379.03,1919.84 C2401.84,1920.78 2423.93,1929.18 2441.64,1943.76 C2463.37,1961.64 2476.83,1986.91 2479.55,2014.91 C2479.69,2016.39 2479.79,2017.87 2479.87,2019.34 C2479.9,2019.85 2479.93,2020.35 2479.95,2020.86 C2480.06,2023.48 2480.05,2026.1 2479.97,2028.71 C2479.88,2031.34 2479.71,2033.95 2479.43,2036.55 Z M2494.82,2013.43 C2491.71,1981.34 2476.28,1952.39 2451.39,1931.91 C2429.84,1914.17 2402.63,1904.41 2374.77,1904.41 C2338.52,1904.41 2304.53,1920.44 2281.52,1948.4 C2261.03,1973.29 2251.47,2004.67 2254.58,2036.76 C2257.7,2068.84 2273.12,2097.79 2298.02,2118.28 C2319.56,2136.01 2346.78,2145.78 2374.64,2145.78 C2382.91,2145.78 2391.05,2144.9 2398.99,2143.28 C2399.11,2143.26 2399.23,2143.24 2399.35,2143.21 C2426.04,2137.67 2450.21,2123.26 2467.89,2101.78 C2485.54,2080.33 2495.06,2054.07 2495.37,2026.69 C2495.37,2026.66 2495.37,2026.62 2495.37,2026.59 C2495.42,2022.22 2495.25,2017.83 2494.82,2013.43 L2494.82,2013.43 Z" id="Fill-58" fill="#1B1A19"></path>
    </g>
</svg>