<?xml version="1.0" encoding="UTF-8"?>
<svg width="1282px" height="1854px" viewBox="0 0 1282 1854" version="1.1" xmlns="http://www.w3.org/2000/svg" xmlns:xlink="http://www.w3.org/1999/xlink">
    <!-- Generator: Sketch 63.1 (92452) - https://sketch.com -->
    <desc>Created with Sketch.</desc>
    <g id="Page-1" stroke="none" stroke-width="1" fill="none" fill-rule="evenodd">
        <g id="122" transform="translate(-1400.000000, -473.000000)">
            <path d="M1981.12,1370.66 C1977.74,1372.73 1974.31,1374.58 1970.88,1376.25 C1973.2,1391.64 1971.55,1409.48 1965.84,1429.66 C1960.27,1449.4 1950.23,1465.57 1937.8,1480.2 C1932.83,1486.06 1927.46,1491.67 1921.85,1497.15 C1913.96,1504.87 1905.59,1512.36 1897.06,1519.96 C1885.53,1530.24 1873.85,1540.73 1862.88,1552.19 C1854.88,1560.54 1847.32,1569.47 1840.47,1579.24 C1841.63,1583.22 1842.9,1587.18 1844.33,1591.11 C1844.49,1591.57 1844.68,1592.01 1844.85,1592.47 C1845.62,1594.55 1846.39,1596.64 1847.24,1598.71 C1848.15,1600.94 1849.15,1603.13 1850.14,1605.32 C1865.66,1577.72 1889.05,1556.73 1911.78,1536.47 C1922.53,1526.88 1933.4,1517.16 1943.55,1506.69 C1949.04,1501.02 1954.31,1495.11 1959.23,1488.88 C1971.28,1473.65 1981.26,1456.44 1987.13,1435.68 C1994.81,1408.48 1996.09,1384.47 1991.03,1363.85 C1987.8,1366.29 1984.5,1368.59 1981.12,1370.66" id="Fill-3" fill="#FFFFFE"></path>
            <path d="M2153.14,1450.55 C2149.24,1448.9 2145.61,1447.14 2142.13,1445.3 C2132.45,1453.9 2123.46,1464.75 2115.18,1477.8 C2113.33,1480.72 2111.5,1483.71 2109.72,1486.85 C2106.09,1493.26 2103.15,1499.71 2100.68,1506.21 C2087.45,1540.89 2089.24,1576.59 2091.05,1611.3 C2092.63,1641.74 2094.23,1673.17 2085.5,1703.63 C2089.83,1702.05 2094.09,1700.31 2098.27,1698.41 C2098.71,1698.22 2099.14,1698.03 2099.57,1697.83 C2103.41,1696.06 2107.17,1694.16 2110.87,1692.14 C2113.01,1680.33 2114,1668.6 2114.31,1656.98 C2114.73,1641.16 2113.94,1625.54 2113.14,1610.15 C2111.07,1570.36 2109.11,1532.78 2128.96,1497.75 C2128.98,1497.73 2128.99,1497.71 2129,1497.69 C2133.78,1489.25 2138.82,1481.79 2144.1,1475.28 C2150.86,1466.94 2158.03,1460.22 2165.56,1455.09 C2161.2,1453.69 2157.03,1452.18 2153.14,1450.55" id="Fill-4" fill="#FFFFFE"></path>
            <path d="M2491.15,2015.83 C2529.22,1923.37 2471.58,1780.44 2397.68,1728.28 C2394.47,1726.01 2392.7,1722.2 2393.04,1718.28 C2401.5,1621.6 2360.8,1511.8 2346.11,1475.93 C2309.69,1496.69 2266.94,1502.77 2229.28,1503.26 C2233.42,1538.56 2228.51,1574.49 2214.45,1608.18 C2181.73,1686.57 2105.7,1737.22 2020.75,1737.22 C1993,1737.22 1965.83,1731.75 1940.02,1720.98 C1888.3,1699.39 1848.08,1658.95 1826.78,1607.12 C1811.82,1570.72 1807.49,1531.75 1813.69,1493.87 C1780.34,1495.37 1741.34,1492.48 1706.79,1475.58 C1684.65,1522.41 1643.23,1624.98 1633.08,1754.44 C1632.9,1756.82 1631.95,1759.07 1630.37,1760.86 C1605.63,1789.08 1539.28,1900.96 1556.04,1992.84 C1563.62,2034.43 1587.67,2066.3 1627.52,2087.57 C1657.76,2103.7 1714.94,2110.83 1746.79,2112.71 C1733.31,2082.46 1682.08,1965.03 1659.08,1876.86 C1657.54,1870.95 1661.08,1864.91 1666.99,1863.36 C1672.89,1861.83 1678.94,1865.36 1680.48,1871.27 C1706.47,1970.89 1769.58,2109.5 1770.21,2110.89 C1772.28,2115.41 1771.07,2120.76 1767.26,2123.96 C1766.15,2124.92 1738.75,2149.28 1753.34,2194.84 C1762.03,2221.99 1781.07,2228 1794.44,2228.61 C1792.03,2223.66 1790.75,2218.83 1790.37,2214.87 C1789.78,2208.79 1794.24,2203.39 1800.32,2202.81 C1806.34,2202.22 1811.73,2206.63 1812.37,2212.64 C1812.86,2216.49 1816.76,2235.29 1848.04,2233.55 C1862.5,2232.76 1866.07,2220.21 1865.91,2212.92 C1865.76,2206.81 1870.6,2201.75 1876.7,2201.61 C1876.79,2201.6 1876.88,2201.6 1876.96,2201.6 C1882.95,2201.6 1887.88,2206.38 1888.01,2212.4 C1888.14,2217.82 1887.28,2223.29 1885.49,2228.46 C1900.1,2230.36 1911.27,2226.88 1918.76,2218.06 C1937.73,2195.73 1932.82,2141.32 1905.63,2072.52 C1855.6,1945.95 1865.68,1803.99 1866.13,1798.01 C1866.59,1791.92 1871.88,1787.37 1877.99,1787.82 C1884.08,1788.28 1888.65,1793.59 1888.19,1799.68 C1888.08,1801.09 1878.09,1942.66 1926.2,2064.39 C1931.16,2076.95 1935.34,2088.97 1938.89,2100.52 C1959.93,2106.44 1993.18,2109.94 2033.13,2110.4 C2056.27,2110.7 2089.26,2108.47 2109.7,2104.29 C2113.47,2091.62 2118.06,2078.32 2123.56,2064.39 C2171.67,1942.66 2161.69,1801.09 2161.58,1799.68 C2161.12,1793.59 2165.69,1788.28 2171.77,1787.82 C2177.86,1787.36 2183.17,1791.92 2183.63,1798.01 C2184.09,1803.99 2194.16,1945.95 2144.13,2072.52 C2138.32,2087.22 2133.59,2101.22 2129.83,2114.43 C2129.72,2115.87 2129.32,2117.24 2128.69,2118.5 C2116,2165.15 2116.51,2200.99 2131.01,2218.06 C2138.49,2226.88 2149.66,2230.35 2164.26,2228.46 C2162.48,2223.29 2161.62,2217.82 2161.75,2212.4 C2161.9,2206.3 2166.87,2201.33 2173.06,2201.61 C2179.17,2201.75 2184,2206.82 2183.86,2212.92 C2183.69,2220.21 2187.26,2232.76 2201.73,2233.55 C2234.79,2235.36 2237.29,2213.69 2237.38,2212.77 C2237.96,2206.69 2243.35,2202.19 2249.44,2202.81 C2255.52,2203.39 2259.98,2208.79 2259.4,2214.87 C2259.02,2218.84 2257.72,2223.69 2255.3,2228.64 C2268.74,2228.08 2287.7,2222.08 2296.43,2194.85 C2311.19,2148.71 2282.79,2124.2 2282.5,2123.96 C2278.68,2120.75 2277.47,2115.37 2279.57,2110.85 C2280.34,2109.17 2356.96,1942.82 2368.26,1866.76 C2369.16,1860.72 2374.81,1856.55 2380.82,1857.45 C2386.86,1858.35 2391.03,1863.97 2390.13,1870.01 C2380.02,1938.12 2322.77,2068.88 2304.9,2108.58 C2373.17,2109.5 2459.06,2093.75 2491.15,2015.83" id="Fill-5" fill="#FFFFFE"></path>
            <path d="M1656.28,696.935 C1662.83,729.646 1666.55,753.834 1659.02,790.515 C1658.97,790.759 1658.91,791.003 1658.84,791.243 C1656.4,800.113 1651.19,828.463 1658.98,841.785 C1660.97,845.196 1663.52,847.131 1667.23,848.06 C1668.56,848.394 1669.86,848.563 1671.07,848.563 C1682.06,848.563 1691.68,833.625 1701.87,817.811 C1710.49,804.448 1719.39,790.629 1731.49,782.31 C1754.76,766.309 1761.92,746.713 1757.02,712.417 C1750.38,665.93 1723.61,600.463 1684.88,600.463 C1682.97,600.463 1681.01,600.618 1679.04,600.927 C1668.91,602.508 1661.68,606.591 1656.94,613.405 C1643.38,632.856 1651.09,671.153 1655.7,694.036 L1656.28,696.935" id="Fill-6" fill="#CBBAB4"></path>
            <path d="M1570.89,2071.87 C1569.78,2071.99 1568.64,2072 1567.49,2071.76 C1567.14,2071.7 1548.27,2068.08 1535.44,2075.92 C1516.09,2087.73 1509.81,2105.02 1516.22,2128.78 C1519.45,2140.71 1529.6,2147.47 1541.44,2151.21 C1538.38,2136.54 1541.33,2123.4 1541.52,2122.61 C1542.9,2116.66 1548.84,2112.96 1554.8,2114.35 C1560.73,2115.74 1564.43,2121.66 1563.06,2127.59 C1562.99,2127.95 1559.65,2143.67 1566.19,2155.3 C1569.99,2155.5 1573.61,2155.56 1576.84,2155.51 C1625.45,2154.83 1665.05,2136.82 1677.49,2126.27 C1655.96,2122.07 1633.74,2115.95 1617.11,2107.08 C1598.79,2097.3 1583.4,2085.53 1570.89,2071.87" id="Fill-7" fill="#FFFFFE"></path>
            <path d="M1638.79,600.761 C1647.05,588.899 1659.45,581.603 1675.62,579.074 C1678.72,578.592 1681.84,578.346 1684.88,578.346 C1740.16,578.346 1771.4,656.654 1778.92,709.289 C1784.97,751.642 1774.21,779.783 1744.02,800.534 C1735.58,806.34 1727.9,818.262 1720.46,829.794 C1708.11,848.958 1694.11,870.68 1671.07,870.68 C1668.05,870.68 1664.95,870.289 1661.87,869.516 C1652.43,867.155 1644.82,861.412 1639.86,852.909 C1626.33,829.694 1635.82,791.653 1637.42,785.72 C1644.04,753.242 1640.77,732.123 1634.59,701.274 L1634.02,698.399 C1628.71,672.056 1619.83,627.962 1638.79,600.761 Z M1809.31,1095.73 C1809.31,1095.73 1785.21,1146.35 1741.83,1127.07 C1712.44,1114.01 1710.62,998.715 1770.75,1011.37 C1816.54,1021.02 1809.31,1095.73 1809.31,1095.73 Z M1943.19,999.83 C1945.87,998.161 2009.5,959.329 2087.02,994.081 C2092.6,996.58 2095.09,1003.12 2092.59,1008.69 C2090.09,1014.27 2083.55,1016.76 2077.98,1014.26 C2011.11,984.29 1955.48,1018.24 1954.92,1018.59 C1953.1,1019.72 1951.07,1020.27 1949.06,1020.27 C1945.38,1020.27 1941.78,1018.43 1939.68,1015.07 C1936.44,1009.89 1938.02,1003.07 1943.19,999.83 Z M2272.25,1011.37 C2332.38,998.715 2330.56,1114.01 2301.17,1127.07 C2257.79,1146.35 2233.69,1095.73 2233.69,1095.73 C2233.69,1095.73 2226.46,1021.02 2272.25,1011.37 Z M2271.05,709.289 C2278.57,656.654 2309.82,578.346 2365.08,578.346 C2368.13,578.346 2371.25,578.592 2374.34,579.074 C2390.52,581.603 2402.91,588.899 2411.18,600.763 C2430.13,627.971 2421.25,672.069 2415.94,698.417 L2415.37,701.274 C2409.2,732.134 2405.93,753.257 2412.54,785.72 C2414.15,791.647 2423.64,829.69 2410.11,852.906 C2405.15,861.412 2397.54,867.155 2388.1,869.516 C2385.01,870.289 2381.91,870.68 2378.89,870.68 C2355.86,870.68 2341.86,848.958 2329.51,829.794 C2322.07,818.265 2314.39,806.34 2305.95,800.534 C2275.76,779.785 2265,751.644 2271.05,709.289 Z M1602.65,704.088 C1609.11,744.916 1605.32,779.031 1601.97,809.131 C1598.12,843.738 1595.09,871.073 1608.31,897.214 C1622.66,925.594 1653.37,927.095 1663.86,926.73 C1669.82,908.935 1675.13,897.734 1676.85,894.281 C1679.57,888.814 1686.21,886.587 1691.68,889.311 C1697.14,892.032 1699.37,898.672 1696.65,904.138 C1690.74,916 1640.03,1024.56 1677.82,1181.84 C1678.56,1184.91 1677.94,1188.16 1676.13,1190.75 C1675.44,1191.75 1606.58,1293.01 1660.34,1399.31 C1671.85,1422.08 1687.32,1438.07 1704.84,1449.17 C1705.58,1449.36 1706.32,1449.62 1707.03,1449.98 C1708.25,1450.58 1709.28,1451.41 1710.16,1452.35 C1743.94,1471.46 1784.33,1473.76 1818.63,1471.53 C1820.29,1465.55 1822.22,1459.61 1824.42,1453.73 C1820.19,1453.95 1815.84,1454.07 1811.18,1453.97 C1783.26,1453.37 1744.25,1443 1718.51,1415.68 C1698.09,1394 1688.42,1365.11 1689.78,1329.8 C1692.77,1251.74 1741.75,1217.41 1793.6,1181.06 C1823.97,1159.77 1855.37,1137.75 1881.92,1105.05 C1937.02,1037.15 1993.91,1034.3 2015.32,1033.23 C2017.09,1033.15 2018.91,1033.09 2021.06,1033.09 C2042.05,1033.09 2113.84,1037.85 2156.39,1098.99 C2183.02,1137.24 2216.8,1162.31 2249.48,1186.55 C2299.37,1223.57 2346.49,1258.54 2348.04,1331.67 C2348.84,1368.88 2336.33,1402.59 2312.85,1426.58 C2289.67,1450.26 2256.98,1463.39 2220.7,1463.69 C2222.57,1469.53 2224.17,1475.41 2225.52,1481.33 C2289.94,1481.31 2368.53,1464.66 2397,1379 C2429.8,1280.25 2367.33,1198.76 2366.69,1197.95 C2364.37,1194.98 2363.72,1191.02 2364.97,1187.45 C2365.52,1185.9 2418.93,1030.78 2355.42,906.499 C2352.64,901.06 2354.8,894.399 2360.24,891.62 C2365.67,888.846 2372.34,890.995 2375.12,896.434 C2380.23,906.439 2384.59,916.598 2388.38,926.821 C2388.58,926.809 2388.77,926.758 2388.97,926.756 C2403.13,926.626 2428.81,922.618 2441.65,897.216 C2454.88,871.071 2451.84,843.736 2447.99,809.128 C2444.65,779.031 2440.85,744.914 2447.32,704.088 L2448.05,699.475 C2458.53,633.582 2469.37,565.447 2396.47,536.73 C2370.27,526.408 2342.3,529.644 2315.59,546.097 C2261.56,579.378 2223.6,658.534 2213.56,758.353 C2241.15,771.177 2252.03,783.045 2252.98,784.122 C2257.01,788.711 2256.56,795.698 2251.97,799.729 C2249.87,801.573 2247.27,802.48 2244.68,802.48 C2241.6,802.48 2238.55,801.21 2236.36,798.722 C2235.97,798.288 2187.15,747.091 2019.75,747.091 C1853.62,747.091 1804.58,790.629 1804.1,791.07 C1799.64,795.184 1792.67,794.984 1788.51,790.582 C1784.35,786.178 1784.47,779.286 1788.83,775.076 C1789.85,774.085 1802.61,762.29 1835.56,750.394 C1825.43,654.721 1788.09,578.553 1735.13,546.048 C1708.19,529.518 1679.96,526.3 1653.49,536.73 C1580.59,565.447 1591.43,633.582 1601.92,699.475 L1602.65,704.088 L1602.65,704.088 Z" id="Fill-8" fill="#FFFFFE"></path>
            <path d="M2552.01,2066.35 C2543.31,2048.97 2524.58,2037.65 2506.44,2038.85 C2505.84,2038.89 2505.26,2038.84 2504.68,2038.79 C2484.58,2076.6 2450.87,2103.07 2405.06,2117.6 C2411.87,2119.94 2419.77,2122.29 2428.57,2124.25 C2464.78,2132.29 2492.33,2134.72 2512.41,2131.52 C2518.77,2117.65 2509.07,2102.98 2508.97,2102.83 C2505.48,2097.81 2506.72,2090.92 2511.74,2087.43 C2516.74,2083.95 2523.64,2085.18 2527.13,2090.2 C2527.69,2091 2537.15,2105 2536.71,2122.72 C2539.69,2120.69 2542.34,2118.38 2544.59,2115.75 C2562.24,2095.11 2556.82,2075.94 2552.01,2066.35" id="Fill-9" fill="#FFFFFE"></path>
            <path d="M2318.47,782.31 C2330.58,790.629 2339.48,804.448 2348.09,817.813 C2358.29,833.628 2367.91,848.563 2378.89,848.563 C2380.1,848.563 2381.4,848.394 2382.73,848.06 C2386.46,847.129 2389.01,845.189 2391,841.768 C2398.82,828.362 2393.58,800.089 2391.13,791.243 C2391.06,791.003 2391,790.761 2390.95,790.517 C2383.42,753.851 2387.14,729.659 2393.68,696.935 L2394.26,694.049 C2398.87,671.164 2406.59,632.863 2393.03,613.407 C2388.28,606.591 2381.05,602.508 2370.93,600.927 C2368.96,600.618 2366.99,600.463 2365.08,600.463 C2326.36,600.463 2299.58,665.93 2292.94,712.417 C2288.04,746.713 2295.2,766.309 2318.47,782.31" id="Fill-10" fill="#CBBAB4"></path>
            <path d="M1764.33,1053.43 C1764.33,1062.79 1769.24,1070.37 1775.3,1070.37 C1781.35,1070.37 1786.26,1062.79 1786.26,1053.43 C1786.26,1044.07 1781.35,1036.49 1775.3,1036.49 C1769.24,1036.49 1764.33,1044.07 1764.33,1053.43" id="Fill-11" fill="#FFFFFE"></path>
            <path d="M2288.31,1070.37 C2294.37,1070.37 2299.27,1062.79 2299.27,1053.43 C2299.27,1044.07 2294.37,1036.49 2288.31,1036.49 C2282.26,1036.49 2277.35,1044.07 2277.35,1053.43 C2277.35,1062.79 2282.26,1070.37 2288.31,1070.37" id="Fill-12" fill="#FFFFFE"></path>
            <path d="M2110.87,1692.14 C2147.51,1672.12 2177.19,1640.01 2194.04,1599.66 C2206.99,1568.62 2211.28,1535.45 2206.97,1502.97 C2205.97,1495.5 2204.53,1488.06 2202.62,1480.69 C2201,1474.44 2199.04,1468.23 2196.76,1462.1 C2196.54,1462.07 2196.33,1462.06 2196.11,1462.03 C2192.35,1461.49 2188.77,1460.86 2185.29,1460.17 C2178.16,1458.77 2171.63,1457.04 2165.56,1455.09 C2158.03,1460.22 2150.86,1466.94 2144.1,1475.28 C2138.82,1481.79 2133.78,1489.25 2129,1497.69 C2128.99,1497.71 2128.98,1497.73 2128.96,1497.75 C2109.11,1532.78 2111.07,1570.36 2113.14,1610.15 C2113.94,1625.54 2114.73,1641.16 2114.31,1656.98 C2114,1668.6 2113.01,1680.33 2110.87,1692.14" id="Fill-13" fill="#5CB8DC"></path>
            <path d="M2109.72,1486.85 C2111.5,1483.71 2113.33,1480.72 2115.18,1477.8 C2123.46,1464.75 2132.45,1453.9 2142.13,1445.3 C2122.34,1434.85 2108.83,1421.6 2096.33,1409.28 C2084.3,1397.43 2072.94,1386.24 2057.05,1378.86 C2034.87,1368.56 2022.19,1353.71 2014.94,1339.73 C2014.82,1339.74 2014.71,1339.74 2014.59,1339.74 C2008.26,1348.91 2000.03,1357.04 1991.03,1363.85 C1996.09,1384.47 1994.81,1408.48 1987.13,1435.68 C1981.26,1456.44 1971.28,1473.65 1959.23,1488.88 C1954.31,1495.11 1949.04,1501.02 1943.55,1506.69 C1933.4,1517.16 1922.53,1526.88 1911.78,1536.47 C1889.05,1556.73 1865.66,1577.72 1850.14,1605.32 C1869.82,1648.5 1904.5,1682.18 1948.53,1700.57 C1971.64,1710.21 1995.94,1715.1 2020.75,1715.1 C2043.31,1715.1 2065.15,1711.08 2085.5,1703.63 C2094.23,1673.17 2092.63,1641.74 2091.05,1611.3 C2089.24,1576.59 2087.45,1540.89 2100.68,1506.21 C2103.15,1499.71 2106.09,1493.26 2109.72,1486.85" id="Fill-14" fill="#5CB8DC"></path>
            <path d="M1897.06,1519.96 C1905.59,1512.36 1913.96,1504.87 1921.85,1497.15 C1927.46,1491.67 1932.83,1486.06 1937.8,1480.2 C1950.23,1465.57 1960.27,1449.4 1965.84,1429.66 C1971.55,1409.48 1973.2,1391.64 1970.88,1376.25 C1970.26,1376.55 1969.63,1376.9 1969.01,1377.19 C1956.67,1382.91 1946.51,1389.24 1937.42,1395.78 C1929.38,1401.56 1922.16,1407.51 1915.08,1413.37 C1896.35,1428.88 1878.37,1443.68 1849.71,1450.33 C1849,1451.9 1848.3,1453.47 1847.63,1455.06 C1845.67,1459.76 1843.96,1464.51 1842.4,1469.29 C1839.93,1476.84 1837.93,1484.48 1836.44,1492.18 C1830.87,1521.05 1832.22,1550.74 1840.47,1579.24 C1847.32,1569.47 1854.88,1560.54 1862.88,1552.19 C1873.85,1540.73 1885.53,1530.24 1897.06,1519.96" id="Fill-15" fill="#5CB8DC"></path>
            <path d="M2064.12,1220.59 C2068.39,1213.39 2077.68,1211.02 2084.88,1215.28 C2092.08,1219.55 2094.45,1228.84 2090.19,1236.03 C2085.92,1243.23 2076.63,1245.61 2069.43,1241.34 C2062.24,1237.08 2059.86,1227.79 2064.12,1220.59 Z M2096.69,1267.93 C2100.95,1260.73 2110.25,1258.36 2117.44,1262.62 C2124.64,1266.89 2127.02,1276.18 2122.75,1283.38 C2118.49,1290.57 2109.2,1292.95 2102,1288.68 C2094.8,1284.42 2092.42,1275.13 2096.69,1267.93 Z M2118.22,1194.44 C2122.48,1187.24 2131.78,1184.87 2138.97,1189.13 C2146.17,1193.4 2148.55,1202.69 2144.28,1209.89 C2140.02,1217.08 2130.73,1219.46 2123.53,1215.2 C2116.33,1210.93 2113.95,1201.64 2118.22,1194.44 Z M2154.62,1250.85 C2158.88,1243.65 2168.18,1241.27 2175.37,1245.53 C2182.57,1249.8 2184.95,1259.09 2180.68,1266.29 C2176.42,1273.49 2167.13,1275.86 2159.93,1271.6 C2152.73,1267.33 2150.35,1258.04 2154.62,1250.85 Z M1965.65,1219.74 C1970.58,1226.5 1969.09,1235.98 1962.33,1240.91 C1955.57,1245.84 1946.09,1244.35 1941.16,1237.59 C1936.24,1230.83 1937.72,1221.35 1944.48,1216.42 C1951.24,1211.5 1960.72,1212.98 1965.65,1219.74 Z M1861.84,1258.9 C1868.6,1253.98 1878.08,1255.46 1883.01,1262.22 C1887.93,1268.98 1886.45,1278.46 1879.69,1283.39 C1872.93,1288.32 1863.45,1286.83 1858.52,1280.07 C1853.59,1273.31 1855.08,1263.83 1861.84,1258.9 Z M1888.15,1195.52 C1894.91,1190.59 1904.39,1192.08 1909.32,1198.84 C1914.25,1205.6 1912.76,1215.07 1906,1220 C1899.24,1224.93 1889.76,1223.44 1884.83,1216.68 C1879.91,1209.92 1881.39,1200.45 1888.15,1195.52 Z M1921.13,1270.42 C1927.89,1265.49 1937.37,1266.98 1942.29,1273.74 C1947.22,1280.5 1945.74,1289.98 1938.98,1294.91 C1932.21,1299.83 1922.74,1298.35 1917.81,1291.59 C1912.88,1284.83 1914.37,1275.35 1921.13,1270.42 Z M2297.04,1411.11 C2316.62,1391.12 2326.61,1363.81 2325.93,1332.14 C2324.61,1269.84 2285.63,1240.93 2236.3,1204.32 C2203.78,1180.19 2166.93,1152.84 2138.24,1111.62 C2100.87,1057.93 2034.07,1055.21 2021.06,1055.21 C2019.35,1055.21 2017.9,1055.25 2016.75,1055.31 C1995.95,1056.35 1947.98,1058.74 1899.09,1118.99 C1870.6,1154.09 1836.44,1178.04 1806.29,1199.17 C1754.98,1235.14 1714.45,1263.55 1711.88,1330.65 C1710.76,1359.81 1718.41,1383.32 1734.61,1400.51 C1761.78,1429.36 1803.56,1431.68 1811.66,1431.86 C1820.17,1432.03 1827.77,1431.6 1834.67,1430.65 C1839.8,1429.95 1844.5,1428.93 1848.93,1427.69 C1855.21,1425.93 1860.89,1423.66 1866.19,1420.99 C1878.78,1414.63 1889.31,1406 1900.97,1396.33 C1915.34,1384.44 1931.58,1371.09 1954.65,1359.62 C1956.33,1358.78 1957.95,1357.93 1959.7,1357.12 C1961.27,1356.4 1962.8,1355.63 1964.31,1354.84 C1967.63,1353.09 1970.82,1351.18 1973.84,1349.14 C1976.26,1347.49 1978.56,1345.75 1980.76,1343.95 C1981.43,1343.4 1982.09,1342.86 1982.73,1342.3 C1987.02,1338.58 1990.8,1334.59 1994,1330.45 C1997.01,1326.55 1999.5,1322.52 2001.36,1318.44 C2003.82,1313.04 2005.24,1307.57 2005.33,1302.29 C2005.32,1301.72 2005.34,1301.28 2005.34,1301.28 C2005.37,1300.73 2005.48,1300.2 2005.58,1299.68 C2005.18,1270.03 2004.81,1208.44 2004.7,1188 C1974.9,1181.46 1941.65,1150.02 1947.57,1120.41 C1954.29,1086.84 2016.39,1085.16 2016.39,1085.16 C2016.39,1085.16 2090.25,1081.98 2090.25,1125.63 C2090.25,1162.43 2053.35,1183.15 2026.82,1188.09 C2026.95,1210.97 2027.38,1284.78 2027.83,1308.08 C2028.15,1310.72 2028.75,1314.01 2029.82,1317.73 C2030.84,1321.24 2032.3,1325.09 2034.36,1329.08 C2036.36,1332.98 2038.97,1336.98 2042.31,1340.9 C2047.94,1347.5 2055.65,1353.83 2066.37,1358.8 C2085.73,1367.79 2099.01,1380.88 2111.85,1393.53 C2126.32,1407.78 2140.25,1421.48 2163.09,1430.76 C2167.93,1432.73 2173.22,1434.48 2178.95,1436.01 C2181.12,1436.59 2183.36,1437.14 2185.68,1437.65 C2188.01,1438.16 2190.41,1438.65 2192.89,1439.09 C2194.97,1439.45 2197.04,1439.82 2199.24,1440.13 C2199.28,1440.14 2199.32,1440.14 2199.37,1440.15 C2200.47,1440.31 2201.57,1440.41 2202.67,1440.54 C2205.85,1440.91 2209.01,1441.2 2212.14,1441.36 C2245.75,1443.06 2276.3,1432.3 2297.04,1411.11 L2297.04,1411.11 Z" id="Fill-16" fill="#B2B4B1"></path>
            <path d="M2045.77,1135.94 C2056.6,1135.94 2065.38,1129.74 2065.38,1122.09 C2065.38,1114.44 2056.6,1108.24 2045.77,1108.24 C2034.93,1108.24 2026.15,1114.44 2026.15,1122.09 C2026.15,1129.74 2034.93,1135.94 2045.77,1135.94" id="Fill-17" fill="#FFFFFE"></path>
            <path d="M2138.97,1189.13 C2131.78,1184.87 2122.48,1187.24 2118.22,1194.44 C2113.95,1201.64 2116.33,1210.93 2123.53,1215.2 C2130.73,1219.46 2140.02,1217.08 2144.28,1209.89 C2148.55,1202.69 2146.17,1193.4 2138.97,1189.13" id="Fill-18" fill="#1B1A19"></path>
            <path d="M2084.88,1215.28 C2077.68,1211.02 2068.39,1213.39 2064.12,1220.59 C2059.86,1227.79 2062.24,1237.08 2069.43,1241.34 C2076.63,1245.61 2085.92,1243.23 2090.19,1236.03 C2094.45,1228.84 2092.08,1219.55 2084.88,1215.28" id="Fill-19" fill="#1B1A19"></path>
            <path d="M2117.44,1262.62 C2110.25,1258.36 2100.95,1260.73 2096.69,1267.93 C2092.42,1275.13 2094.8,1284.42 2102,1288.68 C2109.2,1292.95 2118.49,1290.57 2122.75,1283.38 C2127.02,1276.18 2124.64,1266.89 2117.44,1262.62" id="Fill-20" fill="#1B1A19"></path>
            <path d="M2175.37,1245.53 C2168.18,1241.27 2158.88,1243.65 2154.62,1250.85 C2150.35,1258.04 2152.73,1267.33 2159.93,1271.6 C2167.13,1275.86 2176.42,1273.49 2180.68,1266.29 C2184.95,1259.09 2182.57,1249.8 2175.37,1245.53" id="Fill-21" fill="#1B1A19"></path>
            <path d="M1888.15,1195.52 C1881.39,1200.45 1879.91,1209.92 1884.83,1216.68 C1889.76,1223.44 1899.24,1224.93 1906,1220 C1912.76,1215.07 1914.25,1205.6 1909.32,1198.84 C1904.39,1192.08 1894.91,1190.59 1888.15,1195.52" id="Fill-22" fill="#1B1A19"></path>
            <path d="M1944.48,1216.42 C1937.72,1221.35 1936.24,1230.83 1941.16,1237.59 C1946.09,1244.35 1955.57,1245.84 1962.33,1240.91 C1969.09,1235.98 1970.58,1226.5 1965.65,1219.74 C1960.72,1212.98 1951.24,1211.5 1944.48,1216.42" id="Fill-23" fill="#1B1A19"></path>
            <path d="M1921.13,1270.42 C1914.37,1275.35 1912.88,1284.83 1917.81,1291.59 C1922.74,1298.35 1932.21,1299.83 1938.98,1294.91 C1945.74,1289.98 1947.22,1280.5 1942.29,1273.74 C1937.37,1266.98 1927.89,1265.49 1921.13,1270.42" id="Fill-24" fill="#1B1A19"></path>
            <path d="M1861.84,1258.9 C1855.08,1263.83 1853.59,1273.31 1858.52,1280.07 C1863.45,1286.83 1872.93,1288.32 1879.69,1283.39 C1886.45,1278.46 1887.93,1268.98 1883.01,1262.22 C1878.08,1255.46 1868.6,1253.98 1861.84,1258.9" id="Fill-25" fill="#1B1A19"></path>
            <path d="M1671.07,848.563 C1669.86,848.563 1668.56,848.394 1667.23,848.06 C1663.52,847.131 1660.97,845.196 1658.98,841.785 C1651.19,828.463 1656.4,800.113 1658.84,791.243 C1658.91,791.003 1658.97,790.759 1659.02,790.515 C1666.55,753.834 1662.83,729.646 1656.28,696.935 L1655.7,694.036 C1651.09,671.153 1643.38,632.856 1656.94,613.405 C1661.68,606.591 1668.91,602.508 1679.04,600.927 C1681.01,600.618 1682.97,600.463 1684.88,600.463 C1723.61,600.463 1750.38,665.93 1757.02,712.417 C1761.92,746.713 1754.76,766.309 1731.49,782.31 C1719.39,790.629 1710.49,804.448 1701.87,817.811 C1691.68,833.625 1682.06,848.563 1671.07,848.563 Z M1720.46,829.794 C1727.9,818.262 1735.58,806.34 1744.02,800.534 C1774.21,779.783 1784.97,751.642 1778.92,709.289 C1771.4,656.654 1740.16,578.346 1684.88,578.346 C1681.84,578.346 1678.72,578.592 1675.62,579.074 C1659.45,581.603 1647.05,588.899 1638.79,600.761 C1619.83,627.962 1628.71,672.056 1634.02,698.399 L1634.59,701.274 C1640.77,732.123 1644.04,753.242 1637.42,785.72 C1635.82,791.653 1626.33,829.694 1639.86,852.909 C1644.82,861.412 1652.43,867.155 1661.87,869.516 C1664.95,870.289 1668.05,870.68 1671.07,870.68 C1694.11,870.68 1708.11,848.958 1720.46,829.794 L1720.46,829.794 Z" id="Fill-26" fill="#CBBAB4"></path>
            <path d="M1786.26,1053.43 C1786.26,1062.79 1781.35,1070.37 1775.3,1070.37 C1769.24,1070.37 1764.33,1062.79 1764.33,1053.43 C1764.33,1044.07 1769.24,1036.49 1775.3,1036.49 C1781.35,1036.49 1786.26,1044.07 1786.26,1053.43 Z M1741.83,1127.07 C1785.21,1146.35 1809.31,1095.73 1809.31,1095.73 C1809.31,1095.73 1816.54,1021.02 1770.75,1011.37 C1710.62,998.715 1712.44,1114.01 1741.83,1127.07 L1741.83,1127.07 Z" id="Fill-27" fill="#1B1A19"></path>
            <path d="M2288.31,1036.49 C2294.37,1036.49 2299.27,1044.07 2299.27,1053.43 C2299.27,1062.79 2294.37,1070.37 2288.31,1070.37 C2282.26,1070.37 2277.35,1062.79 2277.35,1053.43 C2277.35,1044.07 2282.26,1036.49 2288.31,1036.49 Z M2301.17,1127.07 C2330.56,1114.01 2332.38,998.715 2272.25,1011.37 C2226.46,1021.02 2233.69,1095.73 2233.69,1095.73 C2233.69,1095.73 2257.79,1146.35 2301.17,1127.07 L2301.17,1127.07 Z" id="Fill-28" fill="#1B1A19"></path>
            <path d="M2292.94,712.417 C2299.58,665.93 2326.36,600.463 2365.08,600.463 C2366.99,600.463 2368.96,600.618 2370.93,600.927 C2381.05,602.508 2388.28,606.591 2393.03,613.407 C2406.59,632.863 2398.87,671.164 2394.26,694.049 L2393.68,696.935 C2387.14,729.659 2383.42,753.851 2390.95,790.517 C2391,790.761 2391.06,791.003 2391.13,791.243 C2393.58,800.089 2398.82,828.362 2391,841.768 C2389.01,845.189 2386.46,847.129 2382.73,848.06 C2381.4,848.394 2380.1,848.563 2378.89,848.563 C2367.91,848.563 2358.29,833.628 2348.09,817.813 C2339.48,804.448 2330.58,790.629 2318.47,782.31 C2295.2,766.309 2288.04,746.713 2292.94,712.417 Z M2305.95,800.534 C2314.39,806.34 2322.07,818.265 2329.51,829.794 C2341.86,848.958 2355.86,870.68 2378.89,870.68 C2381.91,870.68 2385.01,870.289 2388.1,869.516 C2397.54,867.155 2405.15,861.412 2410.11,852.906 C2423.64,829.69 2414.15,791.647 2412.54,785.72 C2405.93,753.257 2409.2,732.134 2415.37,701.274 L2415.94,698.417 C2421.25,672.069 2430.13,627.971 2411.18,600.763 C2402.91,588.899 2390.52,581.603 2374.34,579.074 C2371.25,578.592 2368.13,578.346 2365.08,578.346 C2309.82,578.346 2278.57,656.654 2271.05,709.289 C2265,751.644 2275.76,779.785 2305.95,800.534 L2305.95,800.534 Z" id="Fill-29" fill="#CBBAB4"></path>
            <path d="M1949.06,1020.27 C1951.07,1020.27 1953.1,1019.72 1954.92,1018.59 C1955.48,1018.24 2011.11,984.29 2077.98,1014.26 C2083.55,1016.76 2090.09,1014.27 2092.59,1008.69 C2095.09,1003.12 2092.6,996.58 2087.02,994.081 C2009.5,959.329 1945.87,998.161 1943.19,999.83 C1938.02,1003.07 1936.44,1009.89 1939.68,1015.07 C1941.78,1018.43 1945.38,1020.27 1949.06,1020.27" id="Fill-30" fill="#1B1A19"></path>
            <path d="M2544.59,2115.75 C2542.34,2118.38 2539.69,2120.69 2536.71,2122.72 C2537.15,2105 2527.69,2091 2527.13,2090.2 C2523.64,2085.18 2516.74,2083.95 2511.74,2087.43 C2506.72,2090.92 2505.48,2097.81 2508.97,2102.83 C2509.07,2102.98 2518.77,2117.65 2512.41,2131.52 C2492.33,2134.72 2464.78,2132.29 2428.57,2124.25 C2419.77,2122.29 2411.87,2119.94 2405.06,2117.6 C2450.87,2103.07 2484.58,2076.6 2504.68,2038.79 C2505.26,2038.84 2505.84,2038.89 2506.44,2038.85 C2524.58,2037.65 2543.31,2048.97 2552.01,2066.35 C2556.82,2075.94 2562.24,2095.11 2544.59,2115.75 Z M2304.9,2108.58 C2322.77,2068.88 2380.02,1938.12 2390.13,1870.01 C2391.03,1863.97 2386.86,1858.35 2380.82,1857.45 C2374.81,1856.55 2369.16,1860.72 2368.26,1866.76 C2356.96,1942.82 2280.34,2109.17 2279.57,2110.85 C2277.47,2115.37 2278.68,2120.75 2282.5,2123.96 C2282.79,2124.2 2311.19,2148.71 2296.43,2194.85 C2287.7,2222.08 2268.74,2228.08 2255.3,2228.64 C2257.72,2223.69 2259.02,2218.84 2259.4,2214.87 C2259.98,2208.79 2255.52,2203.39 2249.44,2202.81 C2243.35,2202.19 2237.96,2206.69 2237.38,2212.77 C2237.29,2213.69 2234.79,2235.36 2201.73,2233.55 C2187.26,2232.76 2183.69,2220.21 2183.86,2212.92 C2184,2206.82 2179.17,2201.75 2173.06,2201.61 C2166.87,2201.33 2161.9,2206.3 2161.75,2212.4 C2161.62,2217.82 2162.48,2223.29 2164.26,2228.46 C2149.66,2230.35 2138.49,2226.88 2131.01,2218.06 C2116.51,2200.99 2116,2165.15 2128.69,2118.5 C2129.32,2117.24 2129.72,2115.87 2129.83,2114.43 C2133.59,2101.22 2138.32,2087.22 2144.13,2072.52 C2194.16,1945.95 2184.09,1803.99 2183.63,1798.01 C2183.17,1791.92 2177.86,1787.36 2171.77,1787.82 C2165.69,1788.28 2161.12,1793.59 2161.58,1799.68 C2161.69,1801.09 2171.67,1942.66 2123.56,2064.39 C2118.06,2078.32 2113.47,2091.62 2109.7,2104.29 C2089.26,2108.47 2056.27,2110.7 2033.13,2110.4 C1993.18,2109.94 1959.93,2106.44 1938.89,2100.52 C1935.34,2088.97 1931.16,2076.95 1926.2,2064.39 C1878.09,1942.66 1888.08,1801.09 1888.19,1799.68 C1888.65,1793.59 1884.08,1788.28 1877.99,1787.82 C1871.88,1787.37 1866.59,1791.92 1866.13,1798.01 C1865.68,1803.99 1855.6,1945.95 1905.63,2072.52 C1932.82,2141.32 1937.73,2195.73 1918.76,2218.06 C1911.27,2226.88 1900.1,2230.36 1885.49,2228.46 C1887.28,2223.29 1888.14,2217.82 1888.01,2212.4 C1887.88,2206.38 1882.95,2201.6 1876.96,2201.6 C1876.88,2201.6 1876.79,2201.6 1876.7,2201.61 C1870.6,2201.75 1865.76,2206.81 1865.91,2212.92 C1866.07,2220.21 1862.5,2232.76 1848.04,2233.55 C1816.76,2235.29 1812.86,2216.49 1812.37,2212.64 C1811.73,2206.63 1806.34,2202.22 1800.32,2202.81 C1794.24,2203.39 1789.78,2208.79 1790.37,2214.87 C1790.75,2218.83 1792.03,2223.66 1794.44,2228.61 C1781.07,2228 1762.03,2221.99 1753.34,2194.84 C1738.75,2149.28 1766.15,2124.92 1767.26,2123.96 C1771.07,2120.76 1772.28,2115.41 1770.21,2110.89 C1769.58,2109.5 1706.47,1970.89 1680.48,1871.27 C1678.94,1865.36 1672.89,1861.83 1666.99,1863.36 C1661.08,1864.91 1657.54,1870.95 1659.08,1876.86 C1682.08,1965.03 1733.31,2082.46 1746.79,2112.71 C1714.94,2110.83 1657.76,2103.7 1627.52,2087.57 C1587.67,2066.3 1563.62,2034.43 1556.04,1992.84 C1539.28,1900.96 1605.63,1789.08 1630.37,1760.86 C1631.95,1759.07 1632.9,1756.82 1633.08,1754.44 C1643.23,1624.98 1684.65,1522.41 1706.79,1475.58 C1741.34,1492.48 1780.34,1495.37 1813.69,1493.87 C1807.49,1531.75 1811.82,1570.72 1826.78,1607.12 C1848.08,1658.95 1888.3,1699.39 1940.02,1720.98 C1965.83,1731.75 1993,1737.22 2020.75,1737.22 C2105.7,1737.22 2181.73,1686.57 2214.45,1608.18 C2228.51,1574.49 2233.42,1538.56 2229.28,1503.26 C2266.94,1502.77 2309.69,1496.69 2346.11,1475.93 C2360.8,1511.8 2401.5,1621.6 2393.04,1718.28 C2392.7,1722.2 2394.47,1726.01 2397.68,1728.28 C2471.58,1780.44 2529.22,1923.37 2491.15,2015.83 C2459.06,2093.75 2373.17,2109.5 2304.9,2108.58 Z M1576.84,2155.51 C1573.61,2155.56 1569.99,2155.5 1566.19,2155.3 C1559.65,2143.67 1562.99,2127.95 1563.06,2127.59 C1564.43,2121.66 1560.73,2115.74 1554.8,2114.35 C1548.84,2112.96 1542.9,2116.66 1541.52,2122.61 C1541.33,2123.4 1538.38,2136.54 1541.44,2151.21 C1529.6,2147.47 1519.45,2140.71 1516.22,2128.78 C1509.81,2105.02 1516.09,2087.73 1535.44,2075.92 C1548.27,2068.08 1567.14,2071.7 1567.49,2071.76 C1568.64,2072 1569.78,2071.99 1570.89,2071.87 C1583.4,2085.53 1598.79,2097.3 1617.11,2107.08 C1633.74,2115.95 1655.96,2122.07 1677.49,2126.27 C1665.05,2136.82 1625.45,2154.83 1576.84,2155.51 Z M2212.14,1441.36 C2209.01,1441.2 2205.85,1440.91 2202.67,1440.54 C2201.57,1440.41 2200.47,1440.31 2199.37,1440.15 C2199.32,1440.14 2199.28,1440.14 2199.24,1440.13 C2197.04,1439.82 2194.97,1439.45 2192.89,1439.09 C2190.41,1438.65 2188.01,1438.16 2185.68,1437.65 C2183.36,1437.14 2181.12,1436.59 2178.95,1436.01 C2173.22,1434.48 2167.93,1432.73 2163.09,1430.76 C2140.25,1421.48 2126.32,1407.78 2111.85,1393.53 C2099.01,1380.88 2085.73,1367.79 2066.37,1358.8 C2055.65,1353.83 2047.94,1347.5 2042.31,1340.9 C2038.97,1336.98 2036.36,1332.98 2034.36,1329.08 C2032.3,1325.09 2030.84,1321.24 2029.82,1317.73 C2028.75,1314.01 2028.15,1310.72 2027.83,1308.08 C2027.38,1284.78 2026.95,1210.97 2026.82,1188.09 C2053.35,1183.15 2090.25,1162.43 2090.25,1125.63 C2090.25,1081.98 2016.39,1085.16 2016.39,1085.16 C2016.39,1085.16 1954.29,1086.84 1947.57,1120.41 C1941.65,1150.02 1974.9,1181.46 2004.7,1188 C2004.81,1208.44 2005.18,1270.03 2005.58,1299.68 C2005.48,1300.2 2005.37,1300.73 2005.34,1301.28 C2005.34,1301.28 2005.32,1301.72 2005.33,1302.29 C2005.24,1307.57 2003.82,1313.04 2001.36,1318.44 C1999.5,1322.52 1997.01,1326.55 1994,1330.45 C1990.8,1334.59 1987.02,1338.58 1982.73,1342.3 C1982.09,1342.86 1981.43,1343.4 1980.76,1343.95 C1978.56,1345.75 1976.26,1347.49 1973.84,1349.14 C1970.82,1351.18 1967.63,1353.09 1964.31,1354.84 C1962.8,1355.63 1961.27,1356.4 1959.7,1357.12 C1957.95,1357.93 1956.33,1358.78 1954.65,1359.62 C1931.58,1371.09 1915.34,1384.44 1900.97,1396.33 C1889.31,1406 1878.78,1414.63 1866.19,1420.99 C1860.89,1423.66 1855.21,1425.93 1848.93,1427.69 C1844.5,1428.93 1839.8,1429.95 1834.67,1430.65 C1827.77,1431.6 1820.17,1432.03 1811.66,1431.86 C1803.56,1431.68 1761.78,1429.36 1734.61,1400.51 C1718.41,1383.32 1710.76,1359.81 1711.88,1330.65 C1714.45,1263.55 1754.98,1235.14 1806.29,1199.17 C1836.44,1178.04 1870.6,1154.09 1899.09,1118.99 C1947.98,1058.74 1995.95,1056.35 2016.75,1055.31 C2017.9,1055.25 2019.35,1055.21 2021.06,1055.21 C2034.07,1055.21 2100.87,1057.93 2138.24,1111.62 C2166.93,1152.84 2203.78,1180.19 2236.3,1204.32 C2285.63,1240.93 2324.61,1269.84 2325.93,1332.14 C2326.61,1363.81 2316.62,1391.12 2297.04,1411.11 C2276.3,1432.3 2245.75,1443.06 2212.14,1441.36 Z M2026.15,1122.09 C2026.15,1114.44 2034.93,1108.24 2045.77,1108.24 C2056.6,1108.24 2065.38,1114.44 2065.38,1122.09 C2065.38,1129.74 2056.6,1135.94 2045.77,1135.94 C2034.93,1135.94 2026.15,1129.74 2026.15,1122.09 Z M2194.04,1599.66 C2177.19,1640.01 2147.51,1672.12 2110.87,1692.14 C2107.17,1694.16 2103.41,1696.06 2099.57,1697.83 C2099.14,1698.03 2098.71,1698.22 2098.27,1698.41 C2094.09,1700.31 2089.83,1702.05 2085.5,1703.63 C2065.15,1711.08 2043.31,1715.1 2020.75,1715.1 C1995.94,1715.1 1971.64,1710.21 1948.53,1700.57 C1904.5,1682.18 1869.82,1648.5 1850.14,1605.32 C1849.15,1603.13 1848.15,1600.94 1847.24,1598.71 C1846.39,1596.64 1845.62,1594.55 1844.85,1592.47 C1844.68,1592.01 1844.49,1591.57 1844.33,1591.11 C1842.9,1587.18 1841.63,1583.22 1840.47,1579.24 C1832.22,1550.74 1830.87,1521.05 1836.44,1492.18 C1837.93,1484.48 1839.93,1476.84 1842.4,1469.29 C1843.96,1464.51 1845.67,1459.76 1847.63,1455.06 C1848.3,1453.47 1849,1451.9 1849.71,1450.33 C1878.37,1443.68 1896.35,1428.88 1915.08,1413.37 C1922.16,1407.51 1929.38,1401.56 1937.42,1395.78 C1946.51,1389.24 1956.67,1382.91 1969.01,1377.19 C1969.63,1376.9 1970.26,1376.55 1970.88,1376.25 C1974.31,1374.58 1977.74,1372.73 1981.12,1370.66 C1984.5,1368.59 1987.8,1366.29 1991.03,1363.85 C2000.03,1357.04 2008.26,1348.91 2014.59,1339.74 C2014.71,1339.74 2014.82,1339.74 2014.94,1339.73 C2022.19,1353.71 2034.87,1368.56 2057.05,1378.86 C2072.94,1386.24 2084.3,1397.43 2096.33,1409.28 C2108.83,1421.6 2122.34,1434.85 2142.13,1445.3 C2145.61,1447.14 2149.24,1448.9 2153.14,1450.55 C2157.03,1452.18 2161.2,1453.69 2165.56,1455.09 C2171.63,1457.04 2178.16,1458.77 2185.29,1460.17 C2188.77,1460.86 2192.35,1461.49 2196.11,1462.03 C2196.33,1462.06 2196.54,1462.07 2196.76,1462.1 C2199.04,1468.23 2201,1474.44 2202.62,1480.69 C2204.53,1488.06 2205.97,1495.5 2206.97,1502.97 C2211.28,1535.45 2206.99,1568.62 2194.04,1599.66 Z M1660.34,1399.31 C1606.58,1293.01 1675.44,1191.75 1676.13,1190.75 C1677.94,1188.16 1678.56,1184.91 1677.82,1181.84 C1640.03,1024.56 1690.74,916 1696.65,904.138 C1699.37,898.672 1697.14,892.032 1691.68,889.311 C1686.21,886.587 1679.57,888.814 1676.85,894.281 C1675.13,897.734 1669.82,908.935 1663.86,926.73 C1653.37,927.095 1622.66,925.594 1608.31,897.214 C1595.09,871.073 1598.12,843.738 1601.97,809.131 C1605.32,779.031 1609.11,744.916 1602.65,704.088 L1601.92,699.475 C1591.43,633.582 1580.59,565.447 1653.49,536.73 C1679.96,526.3 1708.19,529.518 1735.13,546.048 C1788.09,578.553 1825.43,654.721 1835.56,750.394 C1802.61,762.29 1789.85,774.085 1788.83,775.076 C1784.47,779.286 1784.35,786.178 1788.51,790.582 C1792.67,794.984 1799.64,795.184 1804.1,791.07 C1804.58,790.629 1853.62,747.091 2019.75,747.091 C2187.15,747.091 2235.97,798.288 2236.36,798.722 C2238.55,801.21 2241.6,802.48 2244.68,802.48 C2247.27,802.48 2249.87,801.573 2251.97,799.729 C2256.56,795.698 2257.01,788.711 2252.98,784.122 C2252.03,783.045 2241.15,771.177 2213.56,758.353 C2223.6,658.534 2261.56,579.378 2315.59,546.097 C2342.3,529.644 2370.27,526.408 2396.47,536.73 C2469.37,565.447 2458.53,633.582 2448.05,699.475 L2447.32,704.088 C2440.85,744.914 2444.65,779.031 2447.99,809.128 C2451.84,843.736 2454.88,871.071 2441.65,897.216 C2428.81,922.618 2403.13,926.626 2388.97,926.756 C2388.77,926.758 2388.58,926.809 2388.38,926.821 C2384.59,916.598 2380.23,906.439 2375.12,896.434 C2372.34,890.995 2365.67,888.846 2360.24,891.62 C2354.8,894.399 2352.64,901.06 2355.42,906.499 C2418.93,1030.78 2365.52,1185.9 2364.97,1187.45 C2363.72,1191.02 2364.37,1194.98 2366.69,1197.95 C2367.33,1198.76 2429.8,1280.25 2397,1379 C2368.53,1464.66 2289.94,1481.31 2225.52,1481.33 C2224.17,1475.41 2222.57,1469.53 2220.7,1463.69 C2256.98,1463.39 2289.67,1450.26 2312.85,1426.58 C2336.33,1402.59 2348.84,1368.88 2348.04,1331.67 C2346.49,1258.54 2299.37,1223.57 2249.48,1186.55 C2216.8,1162.31 2183.02,1137.24 2156.39,1098.99 C2113.84,1037.85 2042.05,1033.09 2021.06,1033.09 C2018.91,1033.09 2017.09,1033.15 2015.32,1033.23 C1993.91,1034.3 1937.02,1037.15 1881.92,1105.05 C1855.37,1137.75 1823.97,1159.77 1793.6,1181.06 C1741.75,1217.41 1692.77,1251.74 1689.78,1329.8 C1688.42,1365.11 1698.09,1394 1718.51,1415.68 C1744.25,1443 1783.26,1453.37 1811.18,1453.97 C1815.84,1454.07 1820.19,1453.95 1824.42,1453.73 C1822.22,1459.61 1820.29,1465.55 1818.63,1471.53 C1784.33,1473.76 1743.94,1471.46 1710.16,1452.35 C1709.28,1451.41 1708.25,1450.58 1707.03,1449.98 C1706.32,1449.62 1705.58,1449.36 1704.84,1449.17 C1687.32,1438.07 1671.85,1422.08 1660.34,1399.31 Z M2571.79,2056.44 C2560.49,2033.88 2538.15,2018.84 2514.36,2016.89 C2550.67,1915.29 2492.09,1772.34 2415.56,1713.97 C2422.51,1610.02 2378.09,1494.99 2364.88,1463.43 C2387.49,1445.83 2406.36,1420.96 2417.98,1385.97 C2450.09,1289.34 2401.77,1209.58 2387.68,1189.23 C2395.9,1163.34 2426.11,1055.04 2395.53,948.592 C2413.33,947.241 2444.8,940.001 2461.39,907.196 C2477.58,875.175 2474.06,843.436 2469.97,806.686 C2466.78,777.975 2463.17,745.432 2469.17,707.548 L2469.9,702.95 C2480.07,638.984 2494,551.38 2404.58,516.151 C2372.11,503.365 2336.39,507.313 2303.99,527.268 C2245.35,563.388 2203.99,646.034 2192.24,749.65 C2156.1,736.661 2101.06,724.974 2019.75,724.974 C1945.15,724.974 1892.85,733.517 1857.08,743.548 C1845.5,643.176 1804.61,562.738 1746.7,527.197 C1714.09,507.188 1678.12,503.259 1645.39,516.151 C1555.96,551.38 1569.9,638.984 1580.07,702.95 L1580.8,707.548 C1586.8,745.432 1583.18,777.975 1579.99,806.688 C1575.91,843.438 1572.38,875.175 1588.57,907.196 C1605.92,941.5 1638.83,947.991 1657.2,948.784 C1643.56,999.32 1631.88,1081.29 1655.21,1182.33 C1641.58,1203.99 1586.64,1302.59 1640.61,1409.3 C1653.02,1433.84 1669.33,1451.56 1687.65,1464.3 C1665.3,1511.23 1622.36,1616.21 1611.32,1749.13 C1582.22,1784.42 1516.38,1898.61 1534.28,1996.8 C1537.77,2015.98 1544.28,2033.34 1553.66,2048.88 C1544.6,2049.24 1533.59,2051.13 1523.92,2057.04 C1496.25,2073.93 1485.94,2101.46 1494.87,2134.55 C1502.39,2162.39 1530.61,2177.64 1574.46,2177.64 C1575.35,2177.64 1576.24,2177.64 1577.14,2177.62 C1621.6,2177.01 1689.52,2158.43 1701.66,2130.31 C1714.21,2132.08 1725.53,2133.23 1734.09,2133.95 C1727.13,2149.85 1722.98,2172.55 1732.28,2201.58 C1745.66,2243.4 1777.24,2250.52 1797.18,2250.52 C1805.54,2250.52 1811.79,2249.28 1813.87,2248.81 C1821.58,2253.02 1831.5,2255.78 1844.18,2255.78 C1845.82,2255.78 1847.51,2255.73 1849.24,2255.64 C1858.26,2255.14 1865.7,2252.22 1871.6,2247.82 C1872.53,2248.33 1873.51,2248.76 1874.6,2249 C1880.86,2250.35 1886.89,2251.03 1892.62,2251.03 C1910.28,2251.03 1925.19,2244.66 1935.61,2232.38 C1953.79,2210.99 1956.95,2173.7 1945.51,2124.83 C1967.91,2129.43 1998.14,2132.12 2032.88,2132.52 C2034.2,2132.53 2035.55,2132.54 2036.92,2132.54 C2056.91,2132.54 2083,2130.95 2103.57,2127.82 C2092.95,2175.22 2096.35,2211.43 2114.15,2232.38 C2124.57,2244.66 2139.48,2251.03 2157.14,2251.03 C2162.88,2251.03 2168.91,2250.35 2175.16,2249 C2176.25,2248.76 2177.23,2248.33 2178.16,2247.82 C2184.06,2252.22 2191.5,2255.14 2200.53,2255.64 C2202.26,2255.73 2203.94,2255.78 2205.58,2255.78 C2218.26,2255.78 2228.18,2253.02 2235.9,2248.81 C2237.97,2249.28 2244.22,2250.52 2252.58,2250.52 C2272.52,2250.52 2304.11,2243.4 2317.49,2201.58 C2327.44,2170.49 2321.97,2146.66 2314.15,2130.67 C2333.65,2130.51 2351.9,2129 2368.9,2126.19 C2374.17,2129.03 2394.52,2139.34 2423.78,2145.84 C2451.2,2151.93 2474.32,2155.01 2493.72,2155.01 C2525.39,2155.01 2547.14,2146.81 2561.4,2130.12 C2580.07,2108.29 2583.96,2080.74 2571.79,2056.44 L2571.79,2056.44 Z" id="Fill-31" fill="#1B1A19"></path>
        </g>
    </g>
</svg>