<svg height="1379" viewBox="0 0 1379 1379" width="1379" xmlns="http://www.w3.org/2000/svg"><g fill="none" fill-rule="evenodd" transform="translate(-49 -709)"><path d="m.06 2800h2799.94v-2799.96h-2799.94z"/><path d="m1190.64 836.678c-5.95-2.545-12.18-3.835-18.51-3.835-53.85 0-119.36 90.549-134.8 258.377-1.1 32.47.22 60.02 26.73 68.66 13.94 4.54 25.04 5.35 34.83 6.05 10.19.74 19.83 1.43 28.92 6.39 4.61 2.12 17.75 10.29 26.38 36.82 7.27 22.35 35.15 65.09 57.04 65.1 1.61 0 3.12-.25 4.64-.75 20.93-6.93 15.17-64.28 10.55-110.36-1.83-18.21-3.55-35.41-4.09-51.18-.58-17.29 3.58-41.04 8.41-68.53 13.06-74.421 30.95-176.349-40.1-206.742" fill="#ccbbb5"/><path d="m856.38 1732.35c0 10.63-8.616 19.25-19.245 19.25s-19.245-8.62-19.245-19.25c0-10.62 8.616-19.24 19.245-19.24s19.245 8.62 19.245 19.24zm-225.666 0c0-10.62 8.617-19.24 19.246-19.24s19.245 8.62 19.245 19.24c0 10.63-8.616 19.25-19.245 19.25s-19.246-8.62-19.246-19.25zm504.776 147.43c-21.27 29.01-73.45 56.72-142.224 53.19-61.483-3.14-94.214-23.96-121.806-46.98-134.333-49.51-245.802-7.31-262.315-.44-24.853 19.21-51.12 36.68-95.926 47.13-16.598 3.87-31.866 5.54-45.848 5.54-86.184 0-123.59-63.3-124.016-64.04-3.268-5.71-1.292-12.98 4.41-16.25 5.699-3.24 12.944-1.29 16.221 4.38 1.717 2.94 42.674 70.78 143.829 47.19 39.17-9.13 62.263-23.98 85.093-41.5 1.074-1.27 2.407-2.35 4.011-3.1 2.913-2.27 5.834-4.57 8.8-6.92 19.055-15.06 40.652-32.14 72.1-48.41 44.931-23.24 50.125-69.48 50.723-80.45v-52.33c-26.258-9.22-98.744-39.08-102.239-88.63-1.29-18.32 4.002-33.99 15.732-46.58 25.229-27.07 72.485-31.11 98.409-31.11 30.39 0 71.644 5.07 95.591 29.21 12.483 12.59 18.734 28.65 18.579 47.74-.298 36.65-35.668 67.46-102.269 89.43v49.09c.018.26.08.51.081.78 0 .12 0 .34-.004.67.006 5.15 1.36 56.33 51.263 79.72 29.701 13.93 49.435 31.29 68.521 48.07 30.945 27.22 57.668 50.72 122.277 54.02 59.507 3.06 104.887-20.41 121.817-43.5 3.89-5.29 11.33-6.44 16.63-2.55 5.3 3.88 6.45 11.33 2.56 16.63zm-608.254-84.85c10.629 0 19.245 8.61 19.245 19.24s-8.616 19.25-19.245 19.25-19.245-8.62-19.245-19.25 8.616-19.24 19.245-19.24zm0-72.52c10.629 0 19.246 8.61 19.246 19.24s-8.617 19.25-19.246 19.25c-10.628 0-19.245-8.62-19.245-19.25s8.617-19.24 19.245-19.24zm55.784-55.79c10.629 0 19.245 8.62 19.245 19.25s-8.616 19.24-19.245 19.24-19.246-8.61-19.246-19.24 8.617-19.25 19.246-19.25zm35.98 128.96c0 10.63-8.616 19.24-19.245 19.24s-19.245-8.61-19.245-19.24 8.616-19.25 19.245-19.25 19.245 8.62 19.245 19.25zm259.043-15.53c10.629 0 19.245 8.62 19.245 19.25 0 10.62-8.616 19.24-19.245 19.24s-19.245-8.62-19.245-19.24c0-10.63 8.616-19.25 19.245-19.25zm21.383-116.22c10.629 0 19.246 8.62 19.246 19.25s-8.617 19.25-19.246 19.25-19.245-8.62-19.245-19.25 8.616-19.25 19.245-19.25zm53.623 131.1c10.628 0 19.245 8.61 19.245 19.24s-8.617 19.25-19.245 19.25c-10.629 0-19.246-8.62-19.246-19.25s8.617-19.24 19.246-19.24zm0-74.38c10.629 0 19.245 8.61 19.245 19.24s-8.616 19.25-19.245 19.25-19.245-8.62-19.245-19.25 8.616-19.24 19.245-19.24zm197.131 46.32c-8.06 0-16.54 1.19-25.53 2.44-9.96 1.39-20.26 2.83-31.13 2.83-11.23 0-21.35-1.57-30.94-4.8-39.58-13.34-60.04-55.31-83.718-103.9-30.167-61.9-64.36-132.06-147.078-166.47-26.201-10.9-56.098-16.31-91.398-16.54-31.435.25-64.814 6.43-89.122 16.54-82.523 34.33-116.127 102.12-145.776 161.93-23.041 46.49-44.806 90.4-86.268 108.11-10.447 4.46-21.651 6.63-34.251 6.63-10.681 0-20.886-1.51-30.753-2.98-8.986-1.33-17.472-2.59-25.538-2.59-13.527 0-28.181 2.93-43.681 24.14-14.828 20.3-13.827 55.5 2.549 89.68 32.492 67.82 111.176 111.04 210.479 115.63 30.894 1.43 59.743 8.83 90.282 16.66 40.855 10.48 87.146 22.35 152.156 24.23 64.479-1.86 100.266-13.55 131.844-23.86 24.349-7.96 47.349-15.47 78.668-17.02 125.035-6.22 214.925-47.9 246.625-114.36 18.89-39.59 10.9-73.74-1.67-90.96-16.27-22.27-31.61-25.34-45.75-25.34z" fill="#fffffe"/><path d="m740.508 1776.68c-8.921 19.24-24.508 39.94-51.753 54.04-9.19 4.75-17.437 9.54-25.016 14.35 40.658-7.73 97.143-11.69 161.911 2.68-9.477-6.87-19.891-13.37-32.069-19.08-28.06-13.16-44.012-33.16-53.073-51.99" fill="#1a1919"/><path d="m384.436 1165.93c9.788-.7 20.883-1.51 34.826-6.05 26.509-8.64 27.828-36.19 26.726-68.66-15.431-167.828-80.944-258.377-134.794-258.377-6.334 0-12.564 1.29-18.515 3.835-71.047 30.396-53.158 132.324-40.097 206.742 4.826 27.49 8.992 51.24 8.409 68.53-.535 15.77-2.26 32.96-4.087 51.17-4.624 46.08-10.381 103.44 10.543 110.37 1.517.5 3.038.75 4.645.75 21.895 0 49.767-42.75 57.039-65.1 8.63-26.54 21.765-34.7 26.379-36.82 9.088-4.96 18.731-5.65 28.926-6.39" fill="#ccbbb5"/><g fill="#fffffe"><path d="m789.335 1573.37c13.863 0 25.102-5.93 25.102-13.25 0-7.31-11.239-13.24-25.102-13.24-13.864 0-25.103 5.93-25.103 13.24 0 7.32 11.239 13.25 25.103 13.25"/><path d="m439.967 1549.94c-.991-5.26-2.438-10.2-4.467-14.55-1.936-1.54-4.287-2.46-6.843-2.46-6.546 0-11.854 5.93-11.854 13.25s5.308 13.25 11.854 13.25c5.37 0 9.853-4.02 11.31-9.49"/><path d="m440.511 1546.18c0-4.46-1.988-8.39-5.011-10.79 2.029 4.35 3.476 9.29 4.467 14.55.32-1.2.544-2.45.544-3.76"/><path d="m433.538 1571.98c-4.824 0-8.734 4.37-8.734 9.76s3.91 9.76 8.734 9.76c3.369 0 6.257-2.15 7.715-5.27.198-2.54.366-5.13.466-7.81-1.219-3.75-4.405-6.44-8.181-6.44"/><path d="m441.253 1586.23c.629-1.35 1.02-2.86 1.02-4.49 0-1.17-.215-2.28-.554-3.32-.1 2.68-.268 5.27-.466 7.81"/><path d="m1110.37 1551.33c-2.49-6.97-6.03-13.61-10.5-19.09-.03 0-.06-.01-.09-.01-6.55 0-11.85 5.93-11.85 13.25s5.3 13.25 11.85 13.25c4.66 0 8.65-3.03 10.59-7.4"/><path d="m1111.64 1545.48c0-7.28-5.27-13.18-11.77-13.24 4.47 5.48 8.01 12.12 10.5 19.09.78-1.77 1.27-3.74 1.27-5.85"/><path d="m1107.12 1569.19c-4.82 0-8.73 4.37-8.73 9.76s3.91 9.76 8.73 9.76c2.86 0 5.38-1.56 6.97-3.93.49-3.49.68-7.06.58-10.66-1.51-2.93-4.31-4.93-7.55-4.93"/><path d="m1114.09 1584.78c1.09-1.63 1.77-3.63 1.77-5.83 0-1.77-.46-3.4-1.19-4.83.1 3.6-.09 7.17-.58 10.66"/></g><path d="m329.131 1209.14c-7.272 22.35-35.144 65.1-57.039 65.1-1.607 0-3.128-.25-4.645-.75-20.924-6.93-15.167-64.29-10.543-110.37 1.827-18.21 3.552-35.4 4.087-51.17.583-17.29-3.583-41.04-8.409-68.53-13.061-74.418-30.95-176.346 40.097-206.742 5.951-2.545 12.181-3.835 18.515-3.835 53.85 0 119.363 90.549 134.794 258.377 1.102 32.47-.217 60.02-26.726 68.66-13.943 4.54-25.038 5.35-34.826 6.05-10.195.74-19.838 1.43-28.926 6.39-4.614 2.12-17.749 10.28-26.379 36.82zm36.114-15.06c.69-.18.574-.25 1.424-.73 4.585-2.61 10.832-3.05 19.479-3.68 10.596-.76 23.783-1.71 40.491-7.16 45.793-14.92 44.124-63.46 43.124-92.45-.008-.23-.021-.45-.042-.68-7.619-83.29-27.7-154.33-58.071-205.434-28.708-48.302-64.382-74.906-100.456-74.906-9.571 0-18.95 1.937-27.878 5.757-88.39 37.812-68.615 150.478-54.178 232.743 4.597 26.18 8.564 48.79 8.064 63.6-.507 14.99-2.195 31.8-3.98 49.6-6.04 60.18-12.285 122.41 26.742 135.34 3.915 1.3 7.997 1.96 12.128 1.96 40.063 0 72.876-60.64 79.675-81.54 5.329-16.39 12.016-21.47 13.478-22.42z" fill="#ccbbb5"/><path d="m1230.74 1043.42c-4.83 27.49-8.99 51.24-8.41 68.53.54 15.77 2.26 32.97 4.09 51.18 4.62 46.08 10.38 103.43-10.55 110.36-1.52.5-3.03.75-4.64.75-21.89-.01-49.77-42.75-57.04-65.1-8.63-26.53-21.77-34.7-26.38-36.82-9.09-4.96-18.73-5.65-28.92-6.39-9.79-.7-20.89-1.51-34.83-6.05-26.51-8.64-27.83-36.19-26.73-68.66 15.44-167.828 80.95-258.377 134.8-258.377 6.33 0 12.56 1.29 18.51 3.835 71.05 30.393 53.16 132.321 40.1 206.742zm-30.74-228.623c-8.92-3.82-18.3-5.757-27.87-5.757-36.08 0-71.75 26.604-100.46 74.906-30.37 51.104-50.45 122.144-58.07 205.434-.02.23-.03.45-.04.68-1 28.99-2.67 77.52 43.12 92.45 16.71 5.45 29.9 6.4 40.49 7.16 8.65.63 14.9 1.07 19.48 3.68.86.48.74.55 1.42.73 1.47.95 8.16 6.03 13.49 22.42 6.8 20.9 39.61 81.53 79.67 81.54 4.13 0 8.21-.66 12.13-1.96 39.02-12.92 32.78-75.15 26.74-135.33-1.79-17.8-3.47-34.62-3.98-49.61-.5-14.81 3.47-37.42 8.06-63.6 14.44-82.268 34.21-194.931-54.18-232.743z" fill="#ccbbb5"/><g fill="#1a1919"><path d="m1290.25 1207.73c3.79 22.19 7.38 43.14 6.75 68.15-.97 38.89-17.1 75.04-43.15 96.69-18.81 15.64-41.08 22.26-64.59 19.32-13.65-58.09-38.74-89.05-40.45-91.11-4.21-5.05-11.71-5.74-16.77-1.52-5.04 4.21-5.72 11.71-1.52 16.76.62.74 61.34 75.54 38.39 215.45-10.27 62.65-1.84 94.48 6.32 125.26 6.8 25.68 13.22 50.11 8.17 93.53-9.97-4.82-20.94-7.19-33.22-7.19-9.71 0-19.43 1.36-28.82 2.67-9.16 1.28-18.63 2.6-27.84 2.6-8.6 0-16.23-1.16-23.34-3.55-30.15-10.17-48.58-47.99-69.92-91.78-30.432-62.44-68.303-140.15-159.333-178.02-29.105-12.1-61.942-18.11-100.555-18.36-35.036.27-70.846 6.96-98.251 18.36-90.748 37.75-128.015 112.93-157.96 173.34-21.948 44.28-40.904 82.52-74.294 96.79-7.535 3.22-15.448 4.72-24.9 4.72-8.924 0-17.831-1.32-27.259-2.72-9.443-1.4-19.209-2.85-29.03-2.85-10.843 0-20.626 1.9-29.587 5.76-3.21-34.14 1.926-56.78 7.33-80.55 7.407-32.58 15.066-66.28 3.38-129.11-23.82-128.06 38.58-224.44 39.214-225.39 3.626-5.48 2.134-12.86-3.336-16.49-5.474-3.64-12.862-2.14-16.498 3.33-1.599 2.4-23.587 36.21-37.469 90.34-22.647 2.22-44.064-4.47-62.241-19.59-26.049-21.65-42.181-57.8-43.151-96.69-.624-25.01 2.957-45.97 6.75-68.15 7.985-46.7 17.033-99.63-5.307-210.098-17.616-87.102-.014-161.748 48.29-204.801 30.608-27.282 69.591-37.734 101.905-27.216 117.657 36.493 174.981 227.169 202.406 381.795-30.647 9.77-62.609 23.26-94.857 41.91-5.689 3.29-7.633 10.57-4.344 16.26 2.206 3.82 6.204 5.95 10.314 5.95 2.021 0 4.072-.52 5.947-1.6 110.507-63.92 218.752-64.35 276.906-64.58 2.562-.01 4.98-.02 7.33-.03 2.351.01 4.768.02 7.33.03 58.154.23 166.399.66 276.91 64.58 1.87 1.08 3.92 1.6 5.94 1.6 4.12 0 8.11-2.13 10.32-5.95 3.29-5.69 1.35-12.97-4.35-16.26-32.24-18.65-64.203-32.13-94.85-41.91 49.453-278.914 137.31-361.605 202.56-381.845 32.16-10.441 71.14-.008 101.74 27.266 48.31 43.049 65.92 117.699 48.3 204.801-22.34 110.468-13.29 163.398-5.31 210.098zm-94.32 584.48c12.57 17.22 20.56 51.37 1.67 90.96-31.7 66.46-121.59 108.14-246.625 114.36-31.319 1.55-54.319 9.06-78.668 17.02-31.578 10.31-67.365 22-131.844 23.86-65.01-1.88-111.301-13.75-152.156-24.23-30.539-7.83-59.388-15.23-90.282-16.66-99.303-4.59-177.987-47.81-210.479-115.63-16.376-34.18-17.377-69.38-2.549-89.68 15.5-21.21 30.154-24.14 43.681-24.14 8.066 0 16.552 1.26 25.538 2.59 9.867 1.47 20.072 2.98 30.753 2.98 12.6 0 23.804-2.17 34.251-6.63 41.462-17.71 63.227-61.62 86.268-108.11 29.649-59.81 63.253-127.6 145.776-161.93 24.308-10.11 57.687-16.29 89.122-16.54 35.3.23 65.197 5.64 91.398 16.54 82.718 34.41 116.911 104.57 147.078 166.47 23.678 48.59 44.138 90.56 83.718 103.9 9.59 3.23 19.71 4.8 30.94 4.8 10.87 0 21.17-1.44 31.13-2.83 8.99-1.25 17.47-2.44 25.53-2.44 14.14 0 29.48 3.07 45.75 25.34zm67.17-1017.15c-36.89-32.883-84.77-45.195-124.79-32.178-67.26 20.862-122.7 86.524-164.767 195.162-31.362 80.986-47.065 165.806-53.575 202.636-70.116-18.71-131.544-18.97-170.883-19.13-1.327 0-2.59-.01-3.859-.02-.164 0-.318-.04-.484-.04-.992.01-2.047.02-3.082.02s-2.09-.01-3.082-.02c-.16 0-.309.04-.467.04-1.275.01-2.544.02-3.876.02-39.339.16-100.767.42-170.883 19.13-6.509-36.83-22.213-121.65-53.573-202.636-42.067-108.638-97.504-174.3-164.615-195.112-40.163-13.071-88.049-.759-124.946 32.132-54.79 48.826-75.123 131.67-55.785 227.286 21.458 106.12 12.808 156.72 5.176 201.37-3.995 23.36-7.768 45.42-7.084 72.76 1.139 45.65 20.476 88.41 51.729 114.39 20.294 16.88 43.801 25.55 68.8 25.55 1.107 0 2.23-.1 3.343-.13-6.758 36.59-8.961 80.23.004 128.43 10.788 58 3.999 87.86-3.19 119.48-6.223 27.38-12.612 55.71-6.273 100.99-3.873 3.8-7.591 8.1-11.16 12.98-20.235 27.7-20.119 71.38.302 114.01 36.345 75.85 122.641 124.12 230.845 129.12 28.451 1.31 54.874 8.09 85.47 15.94 42.131 10.8 89.886 23.05 157.731 24.98h.337.337c68.138-1.94 105.729-14.22 138.895-25.05 23.785-7.76 44.323-14.47 72.461-15.87 183.534-9.13 246.014-84.04 266.924-127.88 19.27-40.38 17.72-85.61-3.93-115.25-3.2-4.38-6.51-8.32-9.93-11.85.03-.19.11-.37.13-.56 8.55-55.99.59-86.05-7.12-115.12-7.85-29.67-15.28-57.69-5.82-115.32 7.61-46.45 6.63-86.23 1.56-119.15 2.11.12 4.21.25 6.29.25 25 0 48.51-8.67 68.8-25.54 31.26-25.99 50.6-68.75 51.74-114.4.68-27.34-3.09-49.4-7.09-72.76-7.63-44.65-16.28-95.25 5.18-201.37 19.34-95.616-1-178.46-55.79-227.29z"/><path d="m663.739 1845.07c7.579-4.81 15.826-9.6 25.016-14.35 27.245-14.1 42.832-34.8 51.753-54.04 9.061 18.83 25.013 38.83 53.073 51.99 12.178 5.71 22.592 12.21 32.069 19.08-64.768-14.37-121.253-10.41-161.911-2.68zm125.596-298.19c13.863 0 25.102 5.93 25.102 13.24 0 7.32-11.239 13.25-25.102 13.25-13.864 0-25.103-5.93-25.103-13.25 0-7.31 11.239-13.24 25.103-13.24zm343.595 316.27c-5.3-3.89-12.74-2.74-16.63 2.55-16.93 23.09-62.31 46.56-121.817 43.5-64.609-3.3-91.332-26.8-122.277-54.02-19.086-16.78-38.82-34.14-68.521-48.07-49.903-23.39-51.257-74.57-51.263-79.72.004-.33.004-.55.004-.67-.001-.27-.063-.52-.081-.78v-49.09c66.601-21.97 101.971-52.78 102.269-89.43.155-19.09-6.096-35.15-18.579-47.74-23.947-24.14-65.201-29.21-95.591-29.21-25.924 0-73.18 4.04-98.409 31.11-11.73 12.59-17.022 28.26-15.732 46.58 3.495 49.55 75.981 79.41 102.239 88.63v52.33c-.598 10.97-5.792 57.21-50.723 80.45-31.448 16.27-53.045 33.35-72.1 48.41-2.966 2.35-5.887 4.65-8.8 6.92-1.604.75-2.937 1.83-4.011 3.1-22.83 17.52-45.923 32.37-85.093 41.5-101.155 23.59-142.112-44.25-143.829-47.19-3.277-5.67-10.522-7.62-16.221-4.38-5.702 3.27-7.678 10.54-4.41 16.25.426.74 37.832 64.04 124.016 64.04 13.982 0 29.25-1.67 45.848-5.54 44.806-10.45 71.073-27.92 95.926-47.13 16.513-6.87 127.982-49.07 262.315.44 27.592 23.02 60.323 43.84 121.806 46.98 68.774 3.53 120.954-24.18 142.224-53.19 3.89-5.3 2.74-12.75-2.56-16.63z"/><path d="m583.02 1705.11c10.629 0 19.245-8.61 19.245-19.24s-8.616-19.25-19.245-19.25-19.246 8.62-19.246 19.25 8.617 19.24 19.246 19.24"/><path d="m669.205 1732.35c0-10.62-8.616-19.24-19.245-19.24s-19.246 8.62-19.246 19.24c0 10.63 8.617 19.25 19.246 19.25s19.245-8.62 19.245-19.25"/><path d="m580.51 1795.58c0 10.63 8.616 19.24 19.245 19.24s19.245-8.61 19.245-19.24-8.616-19.25-19.245-19.25-19.245 8.62-19.245 19.25"/><path d="m527.236 1760.9c10.629 0 19.246-8.62 19.246-19.25s-8.617-19.24-19.246-19.24c-10.628 0-19.245 8.61-19.245 19.24s8.617 19.25 19.245 19.25"/><path d="m527.236 1833.42c10.629 0 19.245-8.62 19.245-19.25s-8.616-19.24-19.245-19.24-19.245 8.61-19.245 19.24 8.616 19.25 19.245 19.25"/><path d="m899.426 1702.33c10.629 0 19.246-8.62 19.246-19.25s-8.617-19.25-19.246-19.25-19.245 8.62-19.245 19.25 8.616 19.25 19.245 19.25"/><path d="m837.135 1713.11c-10.629 0-19.245 8.62-19.245 19.24 0 10.63 8.616 19.25 19.245 19.25s19.245-8.62 19.245-19.25c0-10.62-8.616-19.24-19.245-19.24"/><path d="m878.043 1818.54c10.629 0 19.245-8.62 19.245-19.24 0-10.63-8.616-19.25-19.245-19.25s-19.245 8.62-19.245 19.25c0 10.62 8.616 19.24 19.245 19.24"/><path d="m953.049 1759.04c10.629 0 19.245-8.62 19.245-19.25s-8.616-19.24-19.245-19.24-19.245 8.61-19.245 19.24 8.616 19.25 19.245 19.25"/><path d="m953.049 1833.42c10.628 0 19.245-8.62 19.245-19.25s-8.617-19.24-19.245-19.24c-10.629 0-19.246 8.61-19.246 19.24s8.617 19.25 19.246 19.25"/><path d="m441.253 1586.23c-1.458 3.12-4.346 5.27-7.715 5.27-4.824 0-8.734-4.37-8.734-9.76s3.91-9.76 8.734-9.76c3.776 0 6.962 2.69 8.181 6.44.339 1.04.554 2.15.554 3.32 0 1.63-.391 3.14-1.02 4.49zm-24.45-40.05c0-7.32 5.308-13.25 11.854-13.25 2.556 0 4.907.92 6.843 2.46 3.023 2.4 5.011 6.33 5.011 10.79 0 1.31-.224 2.56-.544 3.76-1.457 5.47-5.94 9.49-11.31 9.49-6.546 0-11.854-5.93-11.854-13.25zm3.575-50.5c-3.599-.7-7.221-1.05-10.766-1.05-33.635 0-55.569 30.13-62.383 60-6.751 29.58.029 65.98 30.396 80.6 7.991 3.85 16.674 5.8 25.81 5.8h.003c28.768 0 52.838-19.51 53.847-20.34 2.063-1.7 3.494-4.04 4.068-6.64.561-2.56 13.503-62.98-8.632-96.64-7.733-11.77-18.613-19.08-32.343-21.73z"/><path d="m1114.09 1584.78c-1.59 2.37-4.11 3.93-6.97 3.93-4.82 0-8.73-4.37-8.73-9.76s3.91-9.76 8.73-9.76c3.24 0 6.04 2 7.55 4.93.73 1.43 1.19 3.06 1.19 4.83 0 2.2-.68 4.2-1.77 5.83zm-26.16-39.3c0-7.32 5.3-13.25 11.85-13.25.03 0 .06.01.09.01 6.5.06 11.77 5.96 11.77 13.24 0 2.11-.49 4.08-1.27 5.85-1.94 4.37-5.93 7.4-10.59 7.4-6.55 0-11.85-5.93-11.85-13.25zm-14.22-50.85c-3.54 0-7.16.35-10.77 1.05-13.72 2.65-24.61 9.96-32.34 21.73-22.14 33.66-9.19 94.08-8.63 96.64.57 2.6 2 4.94 4.06 6.64 1.01.83 25.08 20.34 53.86 20.34 9.13 0 17.81-1.95 25.81-5.8 30.36-14.62 37.14-51.02 30.39-80.6-6.81-29.87-28.74-60-62.38-60z"/></g><path d="m1254.18 1047.54c-4.59 26.18-8.56 48.79-8.06 63.6.51 14.99 2.19 31.81 3.98 49.61 6.04 60.18 12.28 122.41-26.74 135.33-3.92 1.3-8 1.96-12.13 1.96-40.06-.01-72.87-60.64-79.67-81.54-5.33-16.39-12.02-21.47-13.49-22.42-.68-.18-.56-.25-1.42-.73-4.58-2.61-10.83-3.05-19.48-3.68-10.59-.76-23.78-1.71-40.49-7.16-45.79-14.93-44.12-63.46-43.12-92.45.01-.23.02-.45.04-.68 7.62-83.29 27.7-154.33 58.07-205.434 28.71-48.302 64.38-74.906 100.46-74.906 9.57 0 18.95 1.937 27.87 5.757 88.39 37.812 68.62 150.475 54.18 232.743zm-118.09 507.09c6.75 29.58-.03 65.98-30.39 80.6-8 3.85-16.68 5.8-25.81 5.8-28.78 0-52.85-19.51-53.86-20.34-2.06-1.7-3.49-4.04-4.06-6.64-.56-2.56-13.51-62.98 8.63-96.64 7.73-11.77 18.62-19.08 32.34-21.73 3.61-.7 7.23-1.05 10.77-1.05 33.64 0 55.57 30.13 62.38 60zm-254.968-117.5c-2.212 3.79-6.194 5.9-10.285 5.9-2.042 0-4.107-.53-5.997-1.63-30.06-17.58-74.957-27.66-123.178-27.66-48.225 0-93.122 10.08-123.181 27.66-5.68 3.32-12.971 1.41-16.283-4.27-3.316-5.67-1.406-12.96 4.265-16.28 33.6-19.65 82.875-30.91 135.199-30.91 52.32 0 101.595 11.26 135.195 30.91 5.672 3.32 7.582 10.61 4.265 16.28zm-419.769 176.92c-.574 2.6-2.005 4.94-4.068 6.64-1.009.83-25.079 20.34-53.847 20.34-.002 0-.002 0-.003 0-9.136 0-17.819-1.95-25.81-5.8-30.367-14.62-37.147-51.02-30.396-80.6 6.814-29.87 28.748-60 62.383-60 3.545 0 7.167.35 10.766 1.05 13.73 2.65 24.61 9.96 32.343 21.73 22.135 33.66 9.193 94.08 8.632 96.64zm-189.261-316.01c-4.131 0-8.213-.66-12.128-1.96-39.027-12.93-32.782-75.16-26.742-135.34 1.785-17.8 3.473-34.61 3.98-49.6.5-14.81-3.467-37.42-8.064-63.6-14.437-82.265-34.212-194.931 54.178-232.743 8.928-3.82 18.307-5.757 27.878-5.757 36.074 0 71.748 26.604 100.456 74.906 30.371 51.104 50.452 122.144 58.071 205.434.021.23.034.45.042.68 1 28.99 2.669 77.53-43.124 92.45-16.708 5.45-29.895 6.4-40.491 7.16-8.647.63-14.894 1.07-19.479 3.68-.85.48-.734.55-1.424.73-1.462.95-8.149 6.03-13.478 22.42-6.799 20.9-39.612 81.54-79.675 81.54zm1023.468-300.408c17.62-87.102.01-161.752-48.3-204.801-30.6-27.274-69.58-37.707-101.74-27.266-65.25 20.24-153.107 102.931-202.56 381.845 30.647 9.78 62.61 23.26 94.85 41.91 5.7 3.29 7.64 10.57 4.35 16.26-2.21 3.82-6.2 5.95-10.32 5.95-2.02 0-4.07-.52-5.94-1.6-110.511-63.92-218.756-64.35-276.91-64.58-2.562-.01-4.979-.02-7.33-.03-2.35.01-4.768.02-7.33.03-58.154.23-166.399.66-276.906 64.58-1.875 1.08-3.926 1.6-5.947 1.6-4.11 0-8.108-2.13-10.314-5.95-3.289-5.69-1.345-12.97 4.344-16.26 32.248-18.65 64.21-32.14 94.857-41.91-27.425-154.626-84.749-345.302-202.406-381.795-32.314-10.518-71.297-.066-101.905 27.216-48.304 43.053-65.906 117.699-48.29 204.801 22.34 110.468 13.292 163.398 5.307 210.098-3.793 22.18-7.374 43.14-6.75 68.15.97 38.89 17.102 75.04 43.151 96.69 18.177 15.12 39.594 21.81 62.241 19.59 13.882-54.13 35.87-87.94 37.469-90.34 3.636-5.47 11.024-6.97 16.498-3.33 5.47 3.63 6.962 11.01 3.336 16.49-.634.95-63.034 97.33-39.214 225.39 11.686 62.83 4.027 96.53-3.38 129.11-5.404 23.77-10.54 46.41-7.33 80.55 8.961-3.86 18.744-5.76 29.587-5.76 9.821 0 19.587 1.45 29.03 2.85 9.428 1.4 18.335 2.72 27.259 2.72 9.452 0 17.365-1.5 24.9-4.72 33.39-14.27 52.346-52.51 74.294-96.79 29.945-60.41 67.212-135.59 157.96-173.34 27.405-11.4 63.215-18.09 98.251-18.36 38.613.25 71.45 6.26 100.555 18.36 91.03 37.87 128.901 115.58 159.333 178.02 21.34 43.79 39.77 81.61 69.92 91.78 7.11 2.39 14.74 3.55 23.34 3.55 9.21 0 18.68-1.32 27.84-2.6 9.39-1.31 19.11-2.67 28.82-2.67 12.28 0 23.25 2.37 33.22 7.19 5.05-43.42-1.37-67.85-8.17-93.53-8.16-30.78-16.59-62.61-6.32-125.26 22.95-139.91-37.77-214.71-38.39-215.45-4.2-5.05-3.52-12.55 1.52-16.76 5.06-4.22 12.56-3.53 16.77 1.52 1.71 2.06 26.8 33.02 40.45 91.11 23.51 2.94 45.78-3.68 64.59-19.32 26.05-21.65 42.18-57.8 43.15-96.69.63-25.01-2.96-45.96-6.75-68.15-7.98-46.7-17.03-99.63 5.31-210.098z" fill="#fffffe"/><path d="m876.857 1420.85c-33.6-19.65-82.875-30.91-135.195-30.91-52.324 0-101.599 11.26-135.199 30.91-5.671 3.32-7.581 10.61-4.265 16.28 3.312 5.68 10.603 7.59 16.283 4.27 30.059-17.58 74.956-27.66 123.181-27.66 48.221 0 93.118 10.08 123.178 27.66 1.89 1.1 3.955 1.63 5.997 1.63 4.091 0 8.073-2.11 10.285-5.9 3.317-5.67 1.407-12.96-4.265-16.28" fill="#1a1919"/><path d="m527.213 1794.92c10.628 0 19.244 8.62 19.244 19.25s-8.616 19.24-19.244 19.24c-10.629 0-19.245-8.61-19.245-19.24s8.616-19.25 19.245-19.25zm0-72.51c10.628 0 19.246 8.61 19.246 19.24s-8.618 19.25-19.246 19.25c-10.629 0-19.245-8.62-19.245-19.25s8.616-19.24 19.245-19.24zm55.783-55.79c10.629 0 19.247 8.62 19.247 19.25s-8.618 19.24-19.247 19.24-19.245-8.61-19.245-19.24 8.616-19.25 19.245-19.25zm35.981 128.95c0 10.63-8.616 19.25-19.245 19.25-10.628 0-19.245-8.62-19.245-19.25 0-10.62 8.617-19.24 19.245-19.24 10.629 0 19.245 8.62 19.245 19.24zm218.136-43.97c-10.629 0-19.247-8.62-19.247-19.25s8.618-19.24 19.247-19.24c10.628 0 19.244 8.61 19.244 19.24s-8.616 19.25-19.244 19.25zm40.906 28.45c10.629 0 19.247 8.61 19.247 19.24s-8.618 19.25-19.247 19.25c-10.628 0-19.244-8.62-19.244-19.25s8.616-19.24 19.244-19.24zm21.384-116.22c10.628 0 19.246 8.62 19.246 19.25s-8.618 19.24-19.246 19.24c-10.629 0-19.245-8.61-19.245-19.24s8.616-19.25 19.245-19.25zm53.623 131.09c10.629 0 19.245 8.62 19.245 19.25s-8.616 19.24-19.245 19.24-19.247-8.61-19.247-19.24 8.618-19.25 19.247-19.25zm0-74.37c10.629 0 19.245 8.61 19.245 19.24s-8.616 19.25-19.245 19.25-19.247-8.62-19.247-19.25 8.618-19.24 19.247-19.24zm-303.089-7.44c10.628 0 19.244 8.61 19.244 19.24s-8.616 19.25-19.244 19.25c-10.629 0-19.245-8.62-19.245-19.25s8.616-19.24 19.245-19.24zm-170.279 200.82c8.814-.7 18.171-2.11 28.134-4.44 46.454-10.82 70.297-29.68 97.904-51.51 9.732-7.69 20.138-15.91 32.171-24.28.953-1.09 2.102-2.04 3.463-2.75.636-.33 1.294-.61 1.932-.93 10.171-6.82 21.499-13.7 34.535-20.45 45.02-23.28 50.143-70.39 50.724-80.7v-52.08c-26.262-9.22-98.749-39.08-102.238-88.64-1.294-18.31 3.998-33.98 15.729-46.57 25.229-27.07 72.485-31.11 98.411-31.11 30.388 0 71.64 5.07 95.589 29.21 12.483 12.59 18.736 28.64 18.581 47.73-.301 36.67-35.671 67.48-102.269 89.44v49.13c.017.25.077.49.077.74 0 .12 0 .35-.004.67.008 5.19 1.383 56.34 51.263 79.72 29.702 13.93 49.437 31.28 68.525 48.07 30.943 27.22 57.666 50.72 122.275 54.02 4.412.23 8.72.27 12.97.21 75.19-32.92 33.02-152.8 24.41-160.88-.31-.3-.61-.61-.92-.92-.45-.43-.89-.87-1.34-1.32-1.33-1.32-2.64-2.69-3.92-4.1-.35-.38-.71-.75-1.05-1.14-1.57-1.76-3.1-3.58-4.6-5.46-.34-.43-.67-.87-1.01-1.31-1.21-1.55-2.41-3.13-3.58-4.76-.39-.54-.78-1.07-1.17-1.62-1.43-2.02-2.85-4.09-4.24-6.22-.14-.21-.27-.43-.41-.65-1.27-1.97-2.53-3.99-3.78-6.04-.38-.62-.75-1.25-1.12-1.87-1.17-1.96-2.34-3.95-3.48-5.98-.2-.34-.39-.67-.58-1.01-1.328-2.35-2.641-4.76-3.949-7.2-.341-.63-.68-1.28-1.021-1.92-1.049-1.98-2.097-3.98-3.14-6-.302-.59-.604-1.17-.906-1.75-1.284-2.52-2.569-5.06-3.853-7.63-.265-.54-.533-1.08-.798-1.61-1.085-2.19-2.171-4.39-3.26-6.61-.387-.78-.777-1.58-1.164-2.37-1.232-2.52-2.466-5.05-3.713-7.61-30.168-61.9-64.357-132.05-147.077-166.46-26.197-10.9-56.094-16.31-91.398-16.54-31.439.24-64.818 6.43-89.121 16.54-82.522 34.33-116.126 102.12-145.775 161.93-1.239 2.5-2.477 5-3.713 7.48-.389.78-.779 1.56-1.168 2.34-.965 1.93-1.933 3.86-2.904 5.78-.405.8-.807 1.6-1.214 2.4-1.316 2.59-2.635 5.17-3.965 7.72-1.298 2.49-2.61 4.95-3.927 7.4-.391.72-.786 1.44-1.181 2.16-.994 1.82-1.998 3.62-3.009 5.41-.405.72-.807 1.44-1.216 2.15-1.381 2.4-2.772 4.79-4.192 7.12-1.4 2.31-2.83 4.57-4.277 6.8-.428.66-.862 1.31-1.294 1.96-1.089 1.65-2.193 3.27-3.31 4.87-.452.64-.899 1.29-1.356 1.92-1.531 2.14-3.082 4.24-4.676 6.28-1.585 2.03-3.212 3.99-4.866 5.9-.488.57-.99 1.13-1.486 1.69-1.244 1.4-2.51 2.77-3.799 4.11-.519.54-1.034 1.09-1.561 1.62-1.768 1.77-3.566 3.51-5.424 5.17-8.68 32.64-49.289 124.66 32.731 164.75z" fill="#cacbc7"/><path d="m609.145 1885.55c-12.186 9.42-24.727 18.41-39.609 26.37 11.922 5.52 57.085 22.02 171.073 22.02 98.439 0 141.467-20.91 155.307-29.79-8.858-5.68-16.868-11.83-24.455-18.16-134.335-49.51-245.803-7.31-262.316-.44" fill="#cacbc7"/></g></svg>