<?xml version="1.0" encoding="UTF-8"?>
<svg width="1379px" height="1379px" viewBox="0 0 1379 1379" version="1.1" xmlns="http://www.w3.org/2000/svg" xmlns:xlink="http://www.w3.org/1999/xlink">
    <!-- Generator: Sketch 63.1 (92452) - https://sketch.com -->
    <desc>Created with Sketch.</desc>
    <g id="Page-1" stroke="none" stroke-width="1" fill="none" fill-rule="evenodd">
        <g id="344" transform="translate(-49.000000, -709.000000)">
            <polygon id="Fill-1" points="0.06 2800 2800 2800 2800 0.04 0.06 0.04"></polygon>
            <path d="M1190.64,836.678 C1184.69,834.133 1178.46,832.843 1172.13,832.843 C1118.28,832.843 1052.77,923.392 1037.33,1091.22 C1036.23,1123.69 1037.55,1151.24 1064.06,1159.88 C1078,1164.42 1089.1,1165.23 1098.89,1165.93 C1109.08,1166.67 1118.72,1167.36 1127.81,1172.32 C1132.42,1174.44 1145.56,1182.61 1154.19,1209.14 C1161.46,1231.49 1189.34,1274.23 1211.23,1274.24 C1212.84,1274.24 1214.35,1273.99 1215.87,1273.49 C1236.8,1266.56 1231.04,1209.21 1226.42,1163.13 C1224.59,1144.92 1222.87,1127.72 1222.33,1111.95 C1221.75,1094.66 1225.91,1070.91 1230.74,1043.42 C1243.8,968.999 1261.69,867.071 1190.64,836.678" id="Fill-36" fill="#CCBBB5"></path>
            <path d="M856.38,1732.35 C856.38,1742.98 847.764,1751.6 837.135,1751.6 C826.506,1751.6 817.89,1742.98 817.89,1732.35 C817.89,1721.73 826.506,1713.11 837.135,1713.11 C847.764,1713.11 856.38,1721.73 856.38,1732.35 Z M630.714,1732.35 C630.714,1721.73 639.331,1713.11 649.96,1713.11 C660.589,1713.11 669.205,1721.73 669.205,1732.35 C669.205,1742.98 660.589,1751.6 649.96,1751.6 C639.331,1751.6 630.714,1742.98 630.714,1732.35 Z M1135.49,1879.78 C1114.22,1908.79 1062.04,1936.5 993.266,1932.97 C931.783,1929.83 899.052,1909.01 871.46,1885.99 C737.127,1836.48 625.658,1878.68 609.145,1885.55 C584.292,1904.76 558.025,1922.23 513.219,1932.68 C496.621,1936.55 481.353,1938.22 467.371,1938.22 C381.187,1938.22 343.781,1874.92 343.355,1874.18 C340.087,1868.47 342.063,1861.2 347.765,1857.93 C353.464,1854.69 360.709,1856.64 363.986,1862.31 C365.703,1865.25 406.66,1933.09 507.815,1909.5 C546.985,1900.37 570.078,1885.52 592.908,1868 C593.982,1866.73 595.315,1865.65 596.919,1864.9 C599.832,1862.63 602.753,1860.33 605.719,1857.98 C624.774,1842.92 646.371,1825.84 677.819,1809.57 C722.75,1786.33 727.944,1740.09 728.542,1729.12 L728.542,1676.79 C702.284,1667.57 629.798,1637.71 626.303,1588.16 C625.013,1569.84 630.305,1554.17 642.035,1541.58 C667.264,1514.51 714.52,1510.47 740.444,1510.47 C770.834,1510.47 812.088,1515.54 836.035,1539.68 C848.518,1552.27 854.769,1568.33 854.614,1587.42 C854.316,1624.07 818.946,1654.88 752.345,1676.85 L752.345,1725.94 C752.363,1726.2 752.425,1726.45 752.426,1726.72 C752.426,1726.84 752.426,1727.06 752.422,1727.39 C752.428,1732.54 753.782,1783.72 803.685,1807.11 C833.386,1821.04 853.12,1838.4 872.206,1855.18 C903.151,1882.4 929.874,1905.9 994.483,1909.2 C1053.99,1912.26 1099.37,1888.79 1116.3,1865.7 C1120.19,1860.41 1127.63,1859.26 1132.93,1863.15 C1138.23,1867.03 1139.38,1874.48 1135.49,1879.78 Z M527.236,1794.93 C537.865,1794.93 546.481,1803.54 546.481,1814.17 C546.481,1824.8 537.865,1833.42 527.236,1833.42 C516.607,1833.42 507.991,1824.8 507.991,1814.17 C507.991,1803.54 516.607,1794.93 527.236,1794.93 Z M527.236,1722.41 C537.865,1722.41 546.482,1731.02 546.482,1741.65 C546.482,1752.28 537.865,1760.9 527.236,1760.9 C516.608,1760.9 507.991,1752.28 507.991,1741.65 C507.991,1731.02 516.608,1722.41 527.236,1722.41 Z M583.02,1666.62 C593.649,1666.62 602.265,1675.24 602.265,1685.87 C602.265,1696.5 593.649,1705.11 583.02,1705.11 C572.391,1705.11 563.774,1696.5 563.774,1685.87 C563.774,1675.24 572.391,1666.62 583.02,1666.62 Z M619,1795.58 C619,1806.21 610.384,1814.82 599.755,1814.82 C589.126,1814.82 580.51,1806.21 580.51,1795.58 C580.51,1784.95 589.126,1776.33 599.755,1776.33 C610.384,1776.33 619,1784.95 619,1795.58 Z M878.043,1780.05 C888.672,1780.05 897.288,1788.67 897.288,1799.3 C897.288,1809.92 888.672,1818.54 878.043,1818.54 C867.414,1818.54 858.798,1809.92 858.798,1799.3 C858.798,1788.67 867.414,1780.05 878.043,1780.05 Z M899.426,1663.83 C910.055,1663.83 918.672,1672.45 918.672,1683.08 C918.672,1693.71 910.055,1702.33 899.426,1702.33 C888.797,1702.33 880.181,1693.71 880.181,1683.08 C880.181,1672.45 888.797,1663.83 899.426,1663.83 Z M953.049,1794.93 C963.677,1794.93 972.294,1803.54 972.294,1814.17 C972.294,1824.8 963.677,1833.42 953.049,1833.42 C942.42,1833.42 933.803,1824.8 933.803,1814.17 C933.803,1803.54 942.42,1794.93 953.049,1794.93 Z M953.049,1720.55 C963.678,1720.55 972.294,1729.16 972.294,1739.79 C972.294,1750.42 963.678,1759.04 953.049,1759.04 C942.42,1759.04 933.804,1750.42 933.804,1739.79 C933.804,1729.16 942.42,1720.55 953.049,1720.55 Z M1150.18,1766.87 C1142.12,1766.87 1133.64,1768.06 1124.65,1769.31 C1114.69,1770.7 1104.39,1772.14 1093.52,1772.14 C1082.29,1772.14 1072.17,1770.57 1062.58,1767.34 C1023,1754 1002.54,1712.03 978.862,1663.44 C948.695,1601.54 914.502,1531.38 831.784,1496.97 C805.583,1486.07 775.686,1480.66 740.386,1480.43 C708.951,1480.68 675.572,1486.86 651.264,1496.97 C568.741,1531.3 535.137,1599.09 505.488,1658.9 C482.447,1705.39 460.682,1749.3 419.22,1767.01 C408.773,1771.47 397.569,1773.64 384.969,1773.64 C374.288,1773.64 364.083,1772.13 354.216,1770.66 C345.23,1769.33 336.744,1768.07 328.678,1768.07 C315.151,1768.07 300.497,1771 284.997,1792.21 C270.169,1812.51 271.17,1847.71 287.546,1881.89 C320.038,1949.71 398.722,1992.93 498.025,1997.52 C528.919,1998.95 557.768,2006.35 588.307,2014.18 C629.162,2024.66 675.453,2036.53 740.463,2038.41 C804.942,2036.55 840.729,2024.86 872.307,2014.55 C896.656,2006.59 919.656,1999.08 950.975,1997.53 C1076.01,1991.31 1165.9,1949.63 1197.6,1883.17 C1216.49,1843.58 1208.5,1809.43 1195.93,1792.21 C1179.66,1769.94 1164.32,1766.87 1150.18,1766.87 L1150.18,1766.87 Z" id="Fill-37" fill="#FFFFFE"></path>
            <path d="M740.508,1776.68 C731.587,1795.92 716,1816.62 688.755,1830.72 C679.565,1835.47 671.318,1840.26 663.739,1845.07 C704.397,1837.34 760.882,1833.38 825.65,1847.75 C816.173,1840.88 805.759,1834.38 793.581,1828.67 C765.521,1815.51 749.569,1795.51 740.508,1776.68" id="Fill-38" fill="#1A1919"></path>
            <path d="M384.436,1165.93 C394.224,1165.23 405.319,1164.42 419.262,1159.88 C445.771,1151.24 447.09,1123.69 445.988,1091.22 C430.557,923.392 365.044,832.843 311.194,832.843 C304.86,832.843 298.63,834.133 292.679,836.678 C221.632,867.074 239.521,969.002 252.582,1043.42 C257.408,1070.91 261.574,1094.66 260.991,1111.95 C260.456,1127.72 258.731,1144.91 256.904,1163.12 C252.28,1209.2 246.523,1266.56 267.447,1273.49 C268.964,1273.99 270.485,1274.24 272.092,1274.24 C293.987,1274.24 321.859,1231.49 329.131,1209.14 C337.761,1182.6 350.896,1174.44 355.51,1172.32 C364.598,1167.36 374.241,1166.67 384.436,1165.93" id="Fill-39" fill="#CCBBB5"></path>
            <path d="M789.335,1573.37 C803.198,1573.37 814.437,1567.44 814.437,1560.12 C814.437,1552.81 803.198,1546.88 789.335,1546.88 C775.471,1546.88 764.232,1552.81 764.232,1560.12 C764.232,1567.44 775.471,1573.37 789.335,1573.37" id="Fill-40" fill="#FFFFFE"></path>
            <path d="M439.967,1549.94 C438.976,1544.68 437.529,1539.74 435.5,1535.39 C433.564,1533.85 431.213,1532.93 428.657,1532.93 C422.111,1532.93 416.803,1538.86 416.803,1546.18 C416.803,1553.5 422.111,1559.43 428.657,1559.43 C434.027,1559.43 438.51,1555.41 439.967,1549.94" id="Fill-41" fill="#FFFFFE"></path>
            <path d="M440.511,1546.18 C440.511,1541.72 438.523,1537.79 435.5,1535.39 C437.529,1539.74 438.976,1544.68 439.967,1549.94 C440.287,1548.74 440.511,1547.49 440.511,1546.18" id="Fill-42" fill="#FFFFFE"></path>
            <path d="M433.538,1571.98 C428.714,1571.98 424.804,1576.35 424.804,1581.74 C424.804,1587.13 428.714,1591.5 433.538,1591.5 C436.907,1591.5 439.795,1589.35 441.253,1586.23 C441.451,1583.69 441.619,1581.1 441.719,1578.42 C440.5,1574.67 437.314,1571.98 433.538,1571.98" id="Fill-43" fill="#FFFFFE"></path>
            <path d="M441.253,1586.23 C441.882,1584.88 442.273,1583.37 442.273,1581.74 C442.273,1580.57 442.058,1579.46 441.719,1578.42 C441.619,1581.1 441.451,1583.69 441.253,1586.23" id="Fill-44" fill="#FFFFFE"></path>
            <path d="M1110.37,1551.33 C1107.88,1544.36 1104.34,1537.72 1099.87,1532.24 C1099.84,1532.24 1099.81,1532.23 1099.78,1532.23 C1093.23,1532.23 1087.93,1538.16 1087.93,1545.48 C1087.93,1552.8 1093.23,1558.73 1099.78,1558.73 C1104.44,1558.73 1108.43,1555.7 1110.37,1551.33" id="Fill-45" fill="#FFFFFE"></path>
            <path d="M1111.64,1545.48 C1111.64,1538.2 1106.37,1532.3 1099.87,1532.24 C1104.34,1537.72 1107.88,1544.36 1110.37,1551.33 C1111.15,1549.56 1111.64,1547.59 1111.64,1545.48" id="Fill-46" fill="#FFFFFE"></path>
            <path d="M1107.12,1569.19 C1102.3,1569.19 1098.39,1573.56 1098.39,1578.95 C1098.39,1584.34 1102.3,1588.71 1107.12,1588.71 C1109.98,1588.71 1112.5,1587.15 1114.09,1584.78 C1114.58,1581.29 1114.77,1577.72 1114.67,1574.12 C1113.16,1571.19 1110.36,1569.19 1107.12,1569.19" id="Fill-47" fill="#FFFFFE"></path>
            <path d="M1114.09,1584.78 C1115.18,1583.15 1115.86,1581.15 1115.86,1578.95 C1115.86,1577.18 1115.4,1575.55 1114.67,1574.12 C1114.77,1577.72 1114.58,1581.29 1114.09,1584.78" id="Fill-48" fill="#FFFFFE"></path>
            <path d="M329.131,1209.14 C321.859,1231.49 293.987,1274.24 272.092,1274.24 C270.485,1274.24 268.964,1273.99 267.447,1273.49 C246.523,1266.56 252.28,1209.2 256.904,1163.12 C258.731,1144.91 260.456,1127.72 260.991,1111.95 C261.574,1094.66 257.408,1070.91 252.582,1043.42 C239.521,969.002 221.632,867.074 292.679,836.678 C298.63,834.133 304.86,832.843 311.194,832.843 C365.044,832.843 430.557,923.392 445.988,1091.22 C447.09,1123.69 445.771,1151.24 419.262,1159.88 C405.319,1164.42 394.224,1165.23 384.436,1165.93 C374.241,1166.67 364.598,1167.36 355.51,1172.32 C350.896,1174.44 337.761,1182.6 329.131,1209.14 Z M365.245,1194.08 C365.935,1193.9 365.819,1193.83 366.669,1193.35 C371.254,1190.74 377.501,1190.3 386.148,1189.67 C396.744,1188.91 409.931,1187.96 426.639,1182.51 C472.432,1167.59 470.763,1119.05 469.763,1090.06 C469.755,1089.83 469.742,1089.61 469.721,1089.38 C462.102,1006.09 442.021,935.05 411.65,883.946 C382.942,835.644 347.268,809.04 311.194,809.04 C301.623,809.04 292.244,810.977 283.316,814.797 C194.926,852.609 214.701,965.275 229.138,1047.54 C233.735,1073.72 237.702,1096.33 237.202,1111.14 C236.695,1126.13 235.007,1142.94 233.222,1160.74 C227.182,1220.92 220.937,1283.15 259.964,1296.08 C263.879,1297.38 267.961,1298.04 272.092,1298.04 C312.155,1298.04 344.968,1237.4 351.767,1216.5 C357.096,1200.11 363.783,1195.03 365.245,1194.08 L365.245,1194.08 Z" id="Fill-49" fill="#CCBBB5"></path>
            <path d="M1230.74,1043.42 C1225.91,1070.91 1221.75,1094.66 1222.33,1111.95 C1222.87,1127.72 1224.59,1144.92 1226.42,1163.13 C1231.04,1209.21 1236.8,1266.56 1215.87,1273.49 C1214.35,1273.99 1212.84,1274.24 1211.23,1274.24 C1189.34,1274.23 1161.46,1231.49 1154.19,1209.14 C1145.56,1182.61 1132.42,1174.44 1127.81,1172.32 C1118.72,1167.36 1109.08,1166.67 1098.89,1165.93 C1089.1,1165.23 1078,1164.42 1064.06,1159.88 C1037.55,1151.24 1036.23,1123.69 1037.33,1091.22 C1052.77,923.392 1118.28,832.843 1172.13,832.843 C1178.46,832.843 1184.69,834.133 1190.64,836.678 C1261.69,867.071 1243.8,968.999 1230.74,1043.42 Z M1200,814.797 C1191.08,810.977 1181.7,809.04 1172.13,809.04 C1136.05,809.04 1100.38,835.644 1071.67,883.946 C1041.3,935.05 1021.22,1006.09 1013.6,1089.38 C1013.58,1089.61 1013.57,1089.83 1013.56,1090.06 C1012.56,1119.05 1010.89,1167.58 1056.68,1182.51 C1073.39,1187.96 1086.58,1188.91 1097.17,1189.67 C1105.82,1190.3 1112.07,1190.74 1116.65,1193.35 C1117.51,1193.83 1117.39,1193.9 1118.07,1194.08 C1119.54,1195.03 1126.23,1200.11 1131.56,1216.5 C1138.36,1237.4 1171.17,1298.03 1211.23,1298.04 C1215.36,1298.04 1219.44,1297.38 1223.36,1296.08 C1262.38,1283.16 1256.14,1220.93 1250.1,1160.75 C1248.31,1142.95 1246.63,1126.13 1246.12,1111.14 C1245.62,1096.33 1249.59,1073.72 1254.18,1047.54 C1268.62,965.272 1288.39,852.609 1200,814.797 L1200,814.797 Z" id="Fill-50" fill="#CCBBB5"></path>
            <path d="M1290.25,1207.73 C1294.04,1229.92 1297.63,1250.87 1297,1275.88 C1296.03,1314.77 1279.9,1350.92 1253.85,1372.57 C1235.04,1388.21 1212.77,1394.83 1189.26,1391.89 C1175.61,1333.8 1150.52,1302.84 1148.81,1300.78 C1144.6,1295.73 1137.1,1295.04 1132.04,1299.26 C1127,1303.47 1126.32,1310.97 1130.52,1316.02 C1131.14,1316.76 1191.86,1391.56 1168.91,1531.47 C1158.64,1594.12 1167.07,1625.95 1175.23,1656.73 C1182.03,1682.41 1188.45,1706.84 1183.4,1750.26 C1173.43,1745.44 1162.46,1743.07 1150.18,1743.07 C1140.47,1743.07 1130.75,1744.43 1121.36,1745.74 C1112.2,1747.02 1102.73,1748.34 1093.52,1748.34 C1084.92,1748.34 1077.29,1747.18 1070.18,1744.79 C1040.03,1734.62 1021.6,1696.8 1000.26,1653.01 C969.828,1590.57 931.957,1512.86 840.927,1474.99 C811.822,1462.89 778.985,1456.88 740.372,1456.63 C705.336,1456.9 669.526,1463.59 642.121,1474.99 C551.373,1512.74 514.106,1587.92 484.161,1648.33 C462.213,1692.61 443.257,1730.85 409.867,1745.12 C402.332,1748.34 394.419,1749.84 384.967,1749.84 C376.043,1749.84 367.136,1748.52 357.708,1747.12 C348.265,1745.72 338.499,1744.27 328.678,1744.27 C317.835,1744.27 308.052,1746.17 299.091,1750.03 C295.881,1715.89 301.017,1693.25 306.421,1669.48 C313.828,1636.9 321.487,1603.2 309.801,1540.37 C285.981,1412.31 348.381,1315.93 349.015,1314.98 C352.641,1309.5 351.149,1302.12 345.679,1298.49 C340.205,1294.85 332.817,1296.35 329.181,1301.82 C327.582,1304.22 305.594,1338.03 291.712,1392.16 C269.065,1394.38 247.648,1387.69 229.471,1372.57 C203.422,1350.92 187.29,1314.77 186.32,1275.88 C185.696,1250.87 189.277,1229.91 193.07,1207.73 C201.055,1161.03 210.103,1108.1 187.763,997.632 C170.147,910.53 187.749,835.884 236.053,792.831 C266.661,765.549 305.644,755.097 337.958,765.615 C455.615,802.108 512.939,992.784 540.364,1147.41 C509.717,1157.18 477.755,1170.67 445.507,1189.32 C439.818,1192.61 437.874,1199.89 441.163,1205.58 C443.369,1209.4 447.367,1211.53 451.477,1211.53 C453.498,1211.53 455.549,1211.01 457.424,1209.93 C567.931,1146.01 676.176,1145.58 734.33,1145.35 C736.892,1145.34 739.31,1145.33 741.66,1145.32 C744.011,1145.33 746.428,1145.34 748.99,1145.35 C807.144,1145.58 915.389,1146.01 1025.9,1209.93 C1027.77,1211.01 1029.82,1211.53 1031.84,1211.53 C1035.96,1211.53 1039.95,1209.4 1042.16,1205.58 C1045.45,1199.89 1043.51,1192.61 1037.81,1189.32 C1005.57,1170.67 973.607,1157.19 942.96,1147.41 C992.413,868.496 1080.27,785.805 1145.52,765.565 C1177.68,755.124 1216.66,765.557 1247.26,792.831 C1295.57,835.88 1313.18,910.53 1295.56,997.632 C1273.22,1108.1 1282.27,1161.03 1290.25,1207.73 Z M1195.93,1792.21 C1208.5,1809.43 1216.49,1843.58 1197.6,1883.17 C1165.9,1949.63 1076.01,1991.31 950.975,1997.53 C919.656,1999.08 896.656,2006.59 872.307,2014.55 C840.729,2024.86 804.942,2036.55 740.463,2038.41 C675.453,2036.53 629.162,2024.66 588.307,2014.18 C557.768,2006.35 528.919,1998.95 498.025,1997.52 C398.722,1992.93 320.038,1949.71 287.546,1881.89 C271.17,1847.71 270.169,1812.51 284.997,1792.21 C300.497,1771 315.151,1768.07 328.678,1768.07 C336.744,1768.07 345.23,1769.33 354.216,1770.66 C364.083,1772.13 374.288,1773.64 384.969,1773.64 C397.569,1773.64 408.773,1771.47 419.22,1767.01 C460.682,1749.3 482.447,1705.39 505.488,1658.9 C535.137,1599.09 568.741,1531.3 651.264,1496.97 C675.572,1486.86 708.951,1480.68 740.386,1480.43 C775.686,1480.66 805.583,1486.07 831.784,1496.97 C914.502,1531.38 948.695,1601.54 978.862,1663.44 C1002.54,1712.03 1023,1754 1062.58,1767.34 C1072.17,1770.57 1082.29,1772.14 1093.52,1772.14 C1104.39,1772.14 1114.69,1770.7 1124.65,1769.31 C1133.64,1768.06 1142.12,1766.87 1150.18,1766.87 C1164.32,1766.87 1179.66,1769.94 1195.93,1792.21 Z M1263.1,775.06 C1226.21,742.177 1178.33,729.865 1138.31,742.882 C1071.05,763.744 1015.61,829.406 973.543,938.044 C942.181,1019.03 926.478,1103.85 919.968,1140.68 C849.852,1121.97 788.424,1121.71 749.085,1121.55 C747.758,1121.55 746.495,1121.54 745.226,1121.53 C745.062,1121.53 744.908,1121.49 744.742,1121.49 C743.75,1121.5 742.695,1121.51 741.66,1121.51 C740.625,1121.51 739.57,1121.5 738.578,1121.49 C738.418,1121.49 738.269,1121.53 738.111,1121.53 C736.836,1121.54 735.567,1121.55 734.235,1121.55 C694.896,1121.71 633.468,1121.97 563.352,1140.68 C556.843,1103.85 541.139,1019.03 509.779,938.044 C467.712,829.406 412.275,763.744 345.164,742.932 C305.001,729.861 257.115,742.173 220.218,775.064 C165.428,823.89 145.095,906.734 164.433,1002.35 C185.891,1108.47 177.241,1159.07 169.609,1203.72 C165.614,1227.08 161.841,1249.14 162.525,1276.48 C163.664,1322.13 183.001,1364.89 214.254,1390.87 C234.548,1407.75 258.055,1416.42 283.054,1416.42 C284.161,1416.42 285.284,1416.32 286.397,1416.29 C279.639,1452.88 277.436,1496.52 286.401,1544.72 C297.189,1602.72 290.4,1632.58 283.211,1664.2 C276.988,1691.58 270.599,1719.91 276.938,1765.19 C273.065,1768.99 269.347,1773.29 265.778,1778.17 C245.543,1805.87 245.659,1849.55 266.08,1892.18 C302.425,1968.03 388.721,2016.3 496.925,2021.3 C525.376,2022.61 551.799,2029.39 582.395,2037.24 C624.526,2048.04 672.281,2060.29 740.126,2062.22 C740.238,2062.22 740.351,2062.22 740.463,2062.22 C740.575,2062.22 740.688,2062.22 740.8,2062.22 C808.938,2060.28 846.529,2048 879.695,2037.17 C903.48,2029.41 924.018,2022.7 952.156,2021.3 C1135.69,2012.17 1198.17,1937.26 1219.08,1893.42 C1238.35,1853.04 1236.8,1807.81 1215.15,1778.17 C1211.95,1773.79 1208.64,1769.85 1205.22,1766.32 C1205.25,1766.13 1205.33,1765.95 1205.35,1765.76 C1213.9,1709.77 1205.94,1679.71 1198.23,1650.64 C1190.38,1620.97 1182.95,1592.95 1192.41,1535.32 C1200.02,1488.87 1199.04,1449.09 1193.97,1416.17 C1196.08,1416.29 1198.18,1416.42 1200.26,1416.42 C1225.26,1416.42 1248.77,1407.75 1269.06,1390.88 C1300.32,1364.89 1319.66,1322.13 1320.8,1276.48 C1321.48,1249.14 1317.71,1227.08 1313.71,1203.72 C1306.08,1159.07 1297.43,1108.47 1318.89,1002.35 C1338.23,906.734 1317.89,823.89 1263.1,775.06 L1263.1,775.06 Z" id="Fill-51" fill="#1A1919"></path>
            <path d="M663.739,1845.07 C671.318,1840.26 679.565,1835.47 688.755,1830.72 C716,1816.62 731.587,1795.92 740.508,1776.68 C749.569,1795.51 765.521,1815.51 793.581,1828.67 C805.759,1834.38 816.173,1840.88 825.65,1847.75 C760.882,1833.38 704.397,1837.34 663.739,1845.07 Z M789.335,1546.88 C803.198,1546.88 814.437,1552.81 814.437,1560.12 C814.437,1567.44 803.198,1573.37 789.335,1573.37 C775.471,1573.37 764.232,1567.44 764.232,1560.12 C764.232,1552.81 775.471,1546.88 789.335,1546.88 Z M1132.93,1863.15 C1127.63,1859.26 1120.19,1860.41 1116.3,1865.7 C1099.37,1888.79 1053.99,1912.26 994.483,1909.2 C929.874,1905.9 903.151,1882.4 872.206,1855.18 C853.12,1838.4 833.386,1821.04 803.685,1807.11 C753.782,1783.72 752.428,1732.54 752.422,1727.39 C752.426,1727.06 752.426,1726.84 752.426,1726.72 C752.425,1726.45 752.363,1726.2 752.345,1725.94 L752.345,1676.85 C818.946,1654.88 854.316,1624.07 854.614,1587.42 C854.769,1568.33 848.518,1552.27 836.035,1539.68 C812.088,1515.54 770.834,1510.47 740.444,1510.47 C714.52,1510.47 667.264,1514.51 642.035,1541.58 C630.305,1554.17 625.013,1569.84 626.303,1588.16 C629.798,1637.71 702.284,1667.57 728.542,1676.79 L728.542,1729.12 C727.944,1740.09 722.75,1786.33 677.819,1809.57 C646.371,1825.84 624.774,1842.92 605.719,1857.98 C602.753,1860.33 599.832,1862.63 596.919,1864.9 C595.315,1865.65 593.982,1866.73 592.908,1868 C570.078,1885.52 546.985,1900.37 507.815,1909.5 C406.66,1933.09 365.703,1865.25 363.986,1862.31 C360.709,1856.64 353.464,1854.69 347.765,1857.93 C342.063,1861.2 340.087,1868.47 343.355,1874.18 C343.781,1874.92 381.187,1938.22 467.371,1938.22 C481.353,1938.22 496.621,1936.55 513.219,1932.68 C558.025,1922.23 584.292,1904.76 609.145,1885.55 C625.658,1878.68 737.127,1836.48 871.46,1885.99 C899.052,1909.01 931.783,1929.83 993.266,1932.97 C1062.04,1936.5 1114.22,1908.79 1135.49,1879.78 C1139.38,1874.48 1138.23,1867.03 1132.93,1863.15 L1132.93,1863.15 Z" id="Fill-52" fill="#1A1919"></path>
            <path d="M583.02,1705.11 C593.649,1705.11 602.265,1696.5 602.265,1685.87 C602.265,1675.24 593.649,1666.62 583.02,1666.62 C572.391,1666.62 563.774,1675.24 563.774,1685.87 C563.774,1696.5 572.391,1705.11 583.02,1705.11" id="Fill-53" fill="#1A1919"></path>
            <path d="M669.205,1732.35 C669.205,1721.73 660.589,1713.11 649.96,1713.11 C639.331,1713.11 630.714,1721.73 630.714,1732.35 C630.714,1742.98 639.331,1751.6 649.96,1751.6 C660.589,1751.6 669.205,1742.98 669.205,1732.35" id="Fill-54" fill="#1A1919"></path>
            <path d="M580.51,1795.58 C580.51,1806.21 589.126,1814.82 599.755,1814.82 C610.384,1814.82 619,1806.21 619,1795.58 C619,1784.95 610.384,1776.33 599.755,1776.33 C589.126,1776.33 580.51,1784.95 580.51,1795.58" id="Fill-55" fill="#1A1919"></path>
            <path d="M527.236,1760.9 C537.865,1760.9 546.482,1752.28 546.482,1741.65 C546.482,1731.02 537.865,1722.41 527.236,1722.41 C516.608,1722.41 507.991,1731.02 507.991,1741.65 C507.991,1752.28 516.608,1760.9 527.236,1760.9" id="Fill-56" fill="#1A1919"></path>
            <path d="M527.236,1833.42 C537.865,1833.42 546.481,1824.8 546.481,1814.17 C546.481,1803.54 537.865,1794.93 527.236,1794.93 C516.607,1794.93 507.991,1803.54 507.991,1814.17 C507.991,1824.8 516.607,1833.42 527.236,1833.42" id="Fill-57" fill="#1A1919"></path>
            <path d="M899.426,1702.33 C910.055,1702.33 918.672,1693.71 918.672,1683.08 C918.672,1672.45 910.055,1663.83 899.426,1663.83 C888.797,1663.83 880.181,1672.45 880.181,1683.08 C880.181,1693.71 888.797,1702.33 899.426,1702.33" id="Fill-58" fill="#1A1919"></path>
            <path d="M837.135,1713.11 C826.506,1713.11 817.89,1721.73 817.89,1732.35 C817.89,1742.98 826.506,1751.6 837.135,1751.6 C847.764,1751.6 856.38,1742.98 856.38,1732.35 C856.38,1721.73 847.764,1713.11 837.135,1713.11" id="Fill-59" fill="#1A1919"></path>
            <path d="M878.043,1818.54 C888.672,1818.54 897.288,1809.92 897.288,1799.3 C897.288,1788.67 888.672,1780.05 878.043,1780.05 C867.414,1780.05 858.798,1788.67 858.798,1799.3 C858.798,1809.92 867.414,1818.54 878.043,1818.54" id="Fill-60" fill="#1A1919"></path>
            <path d="M953.049,1759.04 C963.678,1759.04 972.294,1750.42 972.294,1739.79 C972.294,1729.16 963.678,1720.55 953.049,1720.55 C942.42,1720.55 933.804,1729.16 933.804,1739.79 C933.804,1750.42 942.42,1759.04 953.049,1759.04" id="Fill-61" fill="#1A1919"></path>
            <path d="M953.049,1833.42 C963.677,1833.42 972.294,1824.8 972.294,1814.17 C972.294,1803.54 963.677,1794.93 953.049,1794.93 C942.42,1794.93 933.803,1803.54 933.803,1814.17 C933.803,1824.8 942.42,1833.42 953.049,1833.42" id="Fill-62" fill="#1A1919"></path>
            <path d="M441.253,1586.23 C439.795,1589.35 436.907,1591.5 433.538,1591.5 C428.714,1591.5 424.804,1587.13 424.804,1581.74 C424.804,1576.35 428.714,1571.98 433.538,1571.98 C437.314,1571.98 440.5,1574.67 441.719,1578.42 C442.058,1579.46 442.273,1580.57 442.273,1581.74 C442.273,1583.37 441.882,1584.88 441.253,1586.23 Z M416.803,1546.18 C416.803,1538.86 422.111,1532.93 428.657,1532.93 C431.213,1532.93 433.564,1533.85 435.5,1535.39 C438.523,1537.79 440.511,1541.72 440.511,1546.18 C440.511,1547.49 440.287,1548.74 439.967,1549.94 C438.51,1555.41 434.027,1559.43 428.657,1559.43 C422.111,1559.43 416.803,1553.5 416.803,1546.18 Z M420.378,1495.68 C416.779,1494.98 413.157,1494.63 409.612,1494.63 C375.977,1494.63 354.043,1524.76 347.229,1554.63 C340.478,1584.21 347.258,1620.61 377.625,1635.23 C385.616,1639.08 394.299,1641.03 403.435,1641.03 C403.436,1641.03 403.436,1641.03 403.438,1641.03 C432.206,1641.03 456.276,1621.52 457.285,1620.69 C459.348,1618.99 460.779,1616.65 461.353,1614.05 C461.914,1611.49 474.856,1551.07 452.721,1517.41 C444.988,1505.64 434.108,1498.33 420.378,1495.68 L420.378,1495.68 Z" id="Fill-63" fill="#1A1919"></path>
            <path d="M1114.09,1584.78 C1112.5,1587.15 1109.98,1588.71 1107.12,1588.71 C1102.3,1588.71 1098.39,1584.34 1098.39,1578.95 C1098.39,1573.56 1102.3,1569.19 1107.12,1569.19 C1110.36,1569.19 1113.16,1571.19 1114.67,1574.12 C1115.4,1575.55 1115.86,1577.18 1115.86,1578.95 C1115.86,1581.15 1115.18,1583.15 1114.09,1584.78 Z M1087.93,1545.48 C1087.93,1538.16 1093.23,1532.23 1099.78,1532.23 C1099.81,1532.23 1099.84,1532.24 1099.87,1532.24 C1106.37,1532.3 1111.64,1538.2 1111.64,1545.48 C1111.64,1547.59 1111.15,1549.56 1110.37,1551.33 C1108.43,1555.7 1104.44,1558.73 1099.78,1558.73 C1093.23,1558.73 1087.93,1552.8 1087.93,1545.48 Z M1073.71,1494.63 C1070.17,1494.63 1066.55,1494.98 1062.94,1495.68 C1049.22,1498.33 1038.33,1505.64 1030.6,1517.41 C1008.46,1551.07 1021.41,1611.49 1021.97,1614.05 C1022.54,1616.65 1023.97,1618.99 1026.03,1620.69 C1027.04,1621.52 1051.11,1641.03 1079.89,1641.03 C1089.02,1641.03 1097.7,1639.08 1105.7,1635.23 C1136.06,1620.61 1142.84,1584.21 1136.09,1554.63 C1129.28,1524.76 1107.35,1494.63 1073.71,1494.63 L1073.71,1494.63 Z" id="Fill-64" fill="#1A1919"></path>
            <path d="M1254.18,1047.54 C1249.59,1073.72 1245.62,1096.33 1246.12,1111.14 C1246.63,1126.13 1248.31,1142.95 1250.1,1160.75 C1256.14,1220.93 1262.38,1283.16 1223.36,1296.08 C1219.44,1297.38 1215.36,1298.04 1211.23,1298.04 C1171.17,1298.03 1138.36,1237.4 1131.56,1216.5 C1126.23,1200.11 1119.54,1195.03 1118.07,1194.08 C1117.39,1193.9 1117.51,1193.83 1116.65,1193.35 C1112.07,1190.74 1105.82,1190.3 1097.17,1189.67 C1086.58,1188.91 1073.39,1187.96 1056.68,1182.51 C1010.89,1167.58 1012.56,1119.05 1013.56,1090.06 C1013.57,1089.83 1013.58,1089.61 1013.6,1089.38 C1021.22,1006.09 1041.3,935.05 1071.67,883.946 C1100.38,835.644 1136.05,809.04 1172.13,809.04 C1181.7,809.04 1191.08,810.977 1200,814.797 C1288.39,852.609 1268.62,965.272 1254.18,1047.54 Z M1136.09,1554.63 C1142.84,1584.21 1136.06,1620.61 1105.7,1635.23 C1097.7,1639.08 1089.02,1641.03 1079.89,1641.03 C1051.11,1641.03 1027.04,1621.52 1026.03,1620.69 C1023.97,1618.99 1022.54,1616.65 1021.97,1614.05 C1021.41,1611.49 1008.46,1551.07 1030.6,1517.41 C1038.33,1505.64 1049.22,1498.33 1062.94,1495.68 C1066.55,1494.98 1070.17,1494.63 1073.71,1494.63 C1107.35,1494.63 1129.28,1524.76 1136.09,1554.63 Z M881.122,1437.13 C878.91,1440.92 874.928,1443.03 870.837,1443.03 C868.795,1443.03 866.73,1442.5 864.84,1441.4 C834.78,1423.82 789.883,1413.74 741.662,1413.74 C693.437,1413.74 648.54,1423.82 618.481,1441.4 C612.801,1444.72 605.51,1442.81 602.198,1437.13 C598.882,1431.46 600.792,1424.17 606.463,1420.85 C640.063,1401.2 689.338,1389.94 741.662,1389.94 C793.982,1389.94 843.257,1401.2 876.857,1420.85 C882.529,1424.17 884.439,1431.46 881.122,1437.13 Z M461.353,1614.05 C460.779,1616.65 459.348,1618.99 457.285,1620.69 C456.276,1621.52 432.206,1641.03 403.438,1641.03 C403.436,1641.03 403.436,1641.03 403.435,1641.03 C394.299,1641.03 385.616,1639.08 377.625,1635.23 C347.258,1620.61 340.478,1584.21 347.229,1554.63 C354.043,1524.76 375.977,1494.63 409.612,1494.63 C413.157,1494.63 416.779,1494.98 420.378,1495.68 C434.108,1498.33 444.988,1505.64 452.721,1517.41 C474.856,1551.07 461.914,1611.49 461.353,1614.05 Z M272.092,1298.04 C267.961,1298.04 263.879,1297.38 259.964,1296.08 C220.937,1283.15 227.182,1220.92 233.222,1160.74 C235.007,1142.94 236.695,1126.13 237.202,1111.14 C237.702,1096.33 233.735,1073.72 229.138,1047.54 C214.701,965.275 194.926,852.609 283.316,814.797 C292.244,810.977 301.623,809.04 311.194,809.04 C347.268,809.04 382.942,835.644 411.65,883.946 C442.021,935.05 462.102,1006.09 469.721,1089.38 C469.742,1089.61 469.755,1089.83 469.763,1090.06 C470.763,1119.05 472.432,1167.59 426.639,1182.51 C409.931,1187.96 396.744,1188.91 386.148,1189.67 C377.501,1190.3 371.254,1190.74 366.669,1193.35 C365.819,1193.83 365.935,1193.9 365.245,1194.08 C363.783,1195.03 357.096,1200.11 351.767,1216.5 C344.968,1237.4 312.155,1298.04 272.092,1298.04 Z M1295.56,997.632 C1313.18,910.53 1295.57,835.88 1247.26,792.831 C1216.66,765.557 1177.68,755.124 1145.52,765.565 C1080.27,785.805 992.413,868.496 942.96,1147.41 C973.607,1157.19 1005.57,1170.67 1037.81,1189.32 C1043.51,1192.61 1045.45,1199.89 1042.16,1205.58 C1039.95,1209.4 1035.96,1211.53 1031.84,1211.53 C1029.82,1211.53 1027.77,1211.01 1025.9,1209.93 C915.389,1146.01 807.144,1145.58 748.99,1145.35 C746.428,1145.34 744.011,1145.33 741.66,1145.32 C739.31,1145.33 736.892,1145.34 734.33,1145.35 C676.176,1145.58 567.931,1146.01 457.424,1209.93 C455.549,1211.01 453.498,1211.53 451.477,1211.53 C447.367,1211.53 443.369,1209.4 441.163,1205.58 C437.874,1199.89 439.818,1192.61 445.507,1189.32 C477.755,1170.67 509.717,1157.18 540.364,1147.41 C512.939,992.784 455.615,802.108 337.958,765.615 C305.644,755.097 266.661,765.549 236.053,792.831 C187.749,835.884 170.147,910.53 187.763,997.632 C210.103,1108.1 201.055,1161.03 193.07,1207.73 C189.277,1229.91 185.696,1250.87 186.32,1275.88 C187.29,1314.77 203.422,1350.92 229.471,1372.57 C247.648,1387.69 269.065,1394.38 291.712,1392.16 C305.594,1338.03 327.582,1304.22 329.181,1301.82 C332.817,1296.35 340.205,1294.85 345.679,1298.49 C351.149,1302.12 352.641,1309.5 349.015,1314.98 C348.381,1315.93 285.981,1412.31 309.801,1540.37 C321.487,1603.2 313.828,1636.9 306.421,1669.48 C301.017,1693.25 295.881,1715.89 299.091,1750.03 C308.052,1746.17 317.835,1744.27 328.678,1744.27 C338.499,1744.27 348.265,1745.72 357.708,1747.12 C367.136,1748.52 376.043,1749.84 384.967,1749.84 C394.419,1749.84 402.332,1748.34 409.867,1745.12 C443.257,1730.85 462.213,1692.61 484.161,1648.33 C514.106,1587.92 551.373,1512.74 642.121,1474.99 C669.526,1463.59 705.336,1456.9 740.372,1456.63 C778.985,1456.88 811.822,1462.89 840.927,1474.99 C931.957,1512.86 969.828,1590.57 1000.26,1653.01 C1021.6,1696.8 1040.03,1734.62 1070.18,1744.79 C1077.29,1747.18 1084.92,1748.34 1093.52,1748.34 C1102.73,1748.34 1112.2,1747.02 1121.36,1745.74 C1130.75,1744.43 1140.47,1743.07 1150.18,1743.07 C1162.46,1743.07 1173.43,1745.44 1183.4,1750.26 C1188.45,1706.84 1182.03,1682.41 1175.23,1656.73 C1167.07,1625.95 1158.64,1594.12 1168.91,1531.47 C1191.86,1391.56 1131.14,1316.76 1130.52,1316.02 C1126.32,1310.97 1127,1303.47 1132.04,1299.26 C1137.1,1295.04 1144.6,1295.73 1148.81,1300.78 C1150.52,1302.84 1175.61,1333.8 1189.26,1391.89 C1212.77,1394.83 1235.04,1388.21 1253.85,1372.57 C1279.9,1350.92 1296.03,1314.77 1297,1275.88 C1297.63,1250.87 1294.04,1229.92 1290.25,1207.73 C1282.27,1161.03 1273.22,1108.1 1295.56,997.632 L1295.56,997.632 Z" id="Fill-65" fill="#FFFFFE"></path>
            <path d="M876.857,1420.85 C843.257,1401.2 793.982,1389.94 741.662,1389.94 C689.338,1389.94 640.063,1401.2 606.463,1420.85 C600.792,1424.17 598.882,1431.46 602.198,1437.13 C605.51,1442.81 612.801,1444.72 618.481,1441.4 C648.54,1423.82 693.437,1413.74 741.662,1413.74 C789.883,1413.74 834.78,1423.82 864.84,1441.4 C866.73,1442.5 868.795,1443.03 870.837,1443.03 C874.928,1443.03 878.91,1440.92 881.122,1437.13 C884.439,1431.46 882.529,1424.17 876.857,1420.85" id="Fill-66" fill="#1A1919"></path>
            <path d="M527.213,1794.92 C537.841,1794.92 546.457,1803.54 546.457,1814.17 C546.457,1824.8 537.841,1833.41 527.213,1833.41 C516.584,1833.41 507.968,1824.8 507.968,1814.17 C507.968,1803.54 516.584,1794.92 527.213,1794.92 Z M527.213,1722.41 C537.841,1722.41 546.459,1731.02 546.459,1741.65 C546.459,1752.28 537.841,1760.9 527.213,1760.9 C516.584,1760.9 507.968,1752.28 507.968,1741.65 C507.968,1731.02 516.584,1722.41 527.213,1722.41 Z M582.996,1666.62 C593.625,1666.62 602.243,1675.24 602.243,1685.87 C602.243,1696.5 593.625,1705.11 582.996,1705.11 C572.367,1705.11 563.751,1696.5 563.751,1685.87 C563.751,1675.24 572.367,1666.62 582.996,1666.62 Z M618.977,1795.57 C618.977,1806.2 610.361,1814.82 599.732,1814.82 C589.104,1814.82 580.487,1806.2 580.487,1795.57 C580.487,1784.95 589.104,1776.33 599.732,1776.33 C610.361,1776.33 618.977,1784.95 618.977,1795.57 Z M837.113,1751.6 C826.484,1751.6 817.866,1742.98 817.866,1732.35 C817.866,1721.72 826.484,1713.11 837.113,1713.11 C847.741,1713.11 856.357,1721.72 856.357,1732.35 C856.357,1742.98 847.741,1751.6 837.113,1751.6 Z M878.019,1780.05 C888.648,1780.05 897.266,1788.66 897.266,1799.29 C897.266,1809.92 888.648,1818.54 878.019,1818.54 C867.391,1818.54 858.775,1809.92 858.775,1799.29 C858.775,1788.66 867.391,1780.05 878.019,1780.05 Z M899.403,1663.83 C910.031,1663.83 918.649,1672.45 918.649,1683.08 C918.649,1693.71 910.031,1702.32 899.403,1702.32 C888.774,1702.32 880.158,1693.71 880.158,1683.08 C880.158,1672.45 888.774,1663.83 899.403,1663.83 Z M953.026,1794.92 C963.655,1794.92 972.271,1803.54 972.271,1814.17 C972.271,1824.8 963.655,1833.41 953.026,1833.41 C942.397,1833.41 933.779,1824.8 933.779,1814.17 C933.779,1803.54 942.397,1794.92 953.026,1794.92 Z M953.026,1720.55 C963.655,1720.55 972.271,1729.16 972.271,1739.79 C972.271,1750.42 963.655,1759.04 953.026,1759.04 C942.397,1759.04 933.779,1750.42 933.779,1739.79 C933.779,1729.16 942.397,1720.55 953.026,1720.55 Z M649.937,1713.11 C660.565,1713.11 669.181,1721.72 669.181,1732.35 C669.181,1742.98 660.565,1751.6 649.937,1751.6 C639.308,1751.6 630.692,1742.98 630.692,1732.35 C630.692,1721.72 639.308,1713.11 649.937,1713.11 Z M479.658,1913.93 C488.472,1913.23 497.829,1911.82 507.792,1909.49 C554.246,1898.67 578.089,1879.81 605.696,1857.98 C615.428,1850.29 625.834,1842.07 637.867,1833.7 C638.82,1832.61 639.969,1831.66 641.33,1830.95 C641.966,1830.62 642.624,1830.34 643.262,1830.02 C653.433,1823.2 664.761,1816.32 677.797,1809.57 C722.817,1786.29 727.94,1739.18 728.521,1728.87 L728.521,1676.79 C702.259,1667.57 629.772,1637.71 626.283,1588.15 C624.989,1569.84 630.281,1554.17 642.012,1541.58 C667.241,1514.51 714.497,1510.47 740.423,1510.47 C770.811,1510.47 812.063,1515.54 836.012,1539.68 C848.495,1552.27 854.748,1568.32 854.593,1587.41 C854.292,1624.08 818.922,1654.89 752.324,1676.85 L752.324,1725.98 C752.341,1726.23 752.401,1726.47 752.401,1726.72 C752.401,1726.84 752.401,1727.07 752.397,1727.39 C752.405,1732.58 753.78,1783.73 803.66,1807.11 C833.362,1821.04 853.097,1838.39 872.185,1855.18 C903.128,1882.4 929.851,1905.9 994.46,1909.2 C998.872,1909.43 1003.18,1909.47 1007.43,1909.41 C1082.62,1876.49 1040.45,1756.61 1031.84,1748.53 C1031.53,1748.23 1031.23,1747.92 1030.92,1747.61 C1030.47,1747.18 1030.03,1746.74 1029.58,1746.29 C1028.25,1744.97 1026.94,1743.6 1025.66,1742.19 C1025.31,1741.81 1024.95,1741.44 1024.61,1741.05 C1023.04,1739.29 1021.51,1737.47 1020.01,1735.59 C1019.67,1735.16 1019.34,1734.72 1019,1734.28 C1017.79,1732.73 1016.59,1731.15 1015.42,1729.52 C1015.03,1728.98 1014.64,1728.45 1014.25,1727.9 C1012.82,1725.88 1011.4,1723.81 1010.01,1721.68 C1009.87,1721.47 1009.74,1721.25 1009.6,1721.03 C1008.33,1719.06 1007.07,1717.04 1005.82,1714.99 C1005.44,1714.37 1005.07,1713.74 1004.7,1713.12 C1003.53,1711.16 1002.36,1709.17 1001.22,1707.14 C1001.02,1706.8 1000.83,1706.47 1000.64,1706.13 C999.312,1703.78 997.999,1701.37 996.691,1698.93 C996.35,1698.3 996.011,1697.65 995.67,1697.01 C994.621,1695.03 993.573,1693.03 992.53,1691.01 C992.228,1690.42 991.926,1689.84 991.624,1689.26 C990.34,1686.74 989.055,1684.2 987.771,1681.63 C987.506,1681.09 987.238,1680.55 986.973,1680.02 C985.888,1677.83 984.802,1675.63 983.713,1673.41 C983.326,1672.63 982.936,1671.83 982.549,1671.04 C981.317,1668.52 980.083,1665.99 978.836,1663.43 C948.668,1601.53 914.479,1531.38 831.759,1496.97 C805.562,1486.07 775.665,1480.66 740.361,1480.43 C708.922,1480.67 675.543,1486.86 651.24,1496.97 C568.718,1531.3 535.114,1599.09 505.465,1658.9 C504.226,1661.4 502.988,1663.9 501.752,1666.38 C501.363,1667.16 500.973,1667.94 500.584,1668.72 C499.619,1670.65 498.651,1672.58 497.68,1674.5 C497.275,1675.3 496.873,1676.1 496.466,1676.9 C495.15,1679.49 493.831,1682.07 492.501,1684.62 C491.203,1687.11 489.891,1689.57 488.574,1692.02 C488.183,1692.74 487.788,1693.46 487.393,1694.18 C486.399,1696 485.395,1697.8 484.384,1699.59 C483.979,1700.31 483.577,1701.03 483.168,1701.74 C481.787,1704.14 480.396,1706.53 478.976,1708.86 C477.576,1711.17 476.146,1713.43 474.699,1715.66 C474.271,1716.32 473.837,1716.97 473.405,1717.62 C472.316,1719.27 471.212,1720.89 470.095,1722.49 C469.643,1723.13 469.196,1723.78 468.739,1724.41 C467.208,1726.55 465.657,1728.65 464.063,1730.69 C462.478,1732.72 460.851,1734.68 459.197,1736.59 C458.709,1737.16 458.207,1737.72 457.711,1738.28 C456.467,1739.68 455.201,1741.05 453.912,1742.39 C453.393,1742.93 452.878,1743.48 452.351,1744.01 C450.583,1745.78 448.785,1747.52 446.927,1749.18 C438.247,1781.82 397.638,1873.84 479.658,1913.93 L479.658,1913.93 Z" id="Fill-67" fill="#CACBC7"></path>
            <path d="M609.145,1885.55 C596.959,1894.97 584.418,1903.96 569.536,1911.92 C581.458,1917.44 626.621,1933.94 740.609,1933.94 C839.048,1933.94 882.076,1913.03 895.916,1904.15 C887.058,1898.47 879.048,1892.32 871.461,1885.99 C737.126,1836.48 625.658,1878.68 609.145,1885.55" id="Fill-68" fill="#CACBC7"></path>
        </g>
    </g>
</svg>